<svg width="102" height="61" viewBox="0 0 102 61" fill="none" xmlns="http://www.w3.org/2000/svg">
<path d="M29.3167 49.0986L27.8093 48.3156C27.6136 48.2177 27.3787 48.2177 27.1829 48.3156L25.6169 49.0986C24.6381 49.588 24.0703 50.4298 24.0703 51.3694V56.4591C24.0703 56.831 24.3836 57.1443 24.7555 57.1443H30.1389C30.5108 57.1443 30.824 56.831 30.824 56.4591V51.3498C30.824 50.4298 30.2564 49.588 29.3167 49.0986Z" stroke="black" stroke-miterlimit="10"/>
<path d="M24.7359 44.2224H30.1192C30.4912 44.2224 30.8043 43.9092 30.8043 43.5372V38.428C30.8043 37.5079 30.2367 36.6661 29.2971 36.1768L27.7897 35.3937C27.5939 35.2958 27.359 35.2958 27.1633 35.3937L25.5972 36.1768C24.6184 36.6661 24.0508 37.5079 24.0508 38.4475V43.5372C24.0508 43.9092 24.3639 44.2224 24.7359 44.2224Z" stroke="black" stroke-miterlimit="10"/>
<path d="M76.34 48.4521L74.8328 47.6691C74.637 47.5712 74.4021 47.5712 74.2063 47.6691L72.6403 48.4521C71.6615 48.9415 71.0938 49.7833 71.0938 50.7229V55.8126C71.0938 56.1846 71.407 56.4978 71.779 56.4978H77.1623C77.5342 56.4978 77.8474 56.1846 77.8474 55.8126V50.7034C77.8474 49.7833 77.2797 48.9415 76.34 48.4521Z" stroke="black" stroke-miterlimit="10"/>
<path d="M71.7555 44.2224H77.1389C77.5108 44.2224 77.824 43.9092 77.824 43.5372V38.428C77.824 37.5079 77.2562 36.6661 76.3166 36.1768L74.8093 35.3937C74.6136 35.2958 74.3787 35.2958 74.1829 35.3937L72.6169 36.1768C71.6381 36.6661 71.0703 37.5079 71.0703 38.4475V43.5372C71.0703 43.9092 71.3836 44.2224 71.7555 44.2224Z" stroke="black" stroke-miterlimit="10"/>
<path d="M94.0507 3.76018C94.0507 2.23327 95.4798 1 97.2025 1C98.9252 1 100.335 2.23327 100.354 3.76018L100.393 7.28382H94.0312L94.0703 3.76018H94.0507Z" stroke="black" stroke-miterlimit="10"/>
<path d="M93.9924 7.51953H100.394L100.531 19.5586H93.875L93.9924 7.51953Z" stroke="black" stroke-miterlimit="10"/>
<path d="M93.8362 20.127H100.531L100.688 33.2036H93.7188L93.8362 20.127Z" stroke="black" stroke-miterlimit="10"/>
<path d="M93.7389 33.3594H100.747L101.06 60.0999H93.4844L93.7389 33.3594Z" stroke="black" stroke-miterlimit="10"/>
<path d="M67.3514 21.809C67.5276 20.1647 69.8179 18.2071 70.7184 17.5415L73.0479 15.6035L75.4166 17.5807C76.278 18.2071 78.5684 20.1842 78.7445 21.809C78.9011 23.3164 78.5487 24.765 78.3334 25.4501H67.7624C67.5471 24.765 67.1948 23.3359 67.3514 21.809Z" stroke="black" stroke-miterlimit="10"/>
<path d="M78.5877 25.7637H67.4883V31.1862H78.5877V25.7637Z" stroke="black" stroke-miterlimit="10"/>
<path d="M42.3349 24.8441C42.3349 24.8441 41.043 21.5749 41.4149 18.0709C41.7673 14.6843 46.9157 10.9649 47.0136 10.8866L51.0462 7.51953L55.1179 10.9061C55.1179 10.9061 60.3054 14.6843 60.6774 18.0513C61.0493 21.5553 59.777 24.8049 59.7574 24.8245C59.7378 24.8832 59.7182 24.9615 59.7182 25.0203H42.3937C42.3937 25.0203 42.3937 24.8832 42.3545 24.8245L42.3349 24.8441Z" stroke="black" stroke-miterlimit="10"/>
<path d="M62.517 25.4492H39.5547V31.4981H62.517V25.4492Z" stroke="black" stroke-miterlimit="10"/>
<path d="M23.9335 21.809C24.1096 20.1647 26.3999 18.2071 27.3004 17.5415L29.63 15.6035L31.9987 17.5807C32.86 18.2071 35.1503 20.1842 35.3264 21.809C35.4831 23.3164 35.1308 24.765 34.9154 25.4501H24.3445C24.1291 24.765 23.7769 23.3359 23.9335 21.809Z" stroke="black" stroke-miterlimit="10"/>
<path d="M35.1894 25.7637H24.0898V31.1862H35.1894V25.7637Z" stroke="black" stroke-miterlimit="10"/>
<path d="M1.99225 3.76018C1.99225 2.23327 3.42125 1 5.14392 1C6.86658 1 8.27601 2.23327 8.29559 3.76018L8.33478 7.28382H1.97266L2.01185 3.76018H1.99225Z" stroke="black" stroke-miterlimit="10"/>
<path d="M1.91432 7.51953H8.31551L8.47215 19.5586H1.79688L1.91432 7.51953Z" stroke="black" stroke-miterlimit="10"/>
<path d="M1.77376 20.127H8.46864L8.62528 33.2036H1.63672L1.77376 20.127Z" stroke="black" stroke-miterlimit="10"/>
<path d="M1.59824 33.3594H8.6064L8.91956 60.0999H1.34375L1.59824 33.3594Z" stroke="black" stroke-miterlimit="10"/>
<path d="M20.5859 31.832H39.5548V60.0994H20.5859V31.832Z" stroke="black" stroke-miterlimit="10"/>
<path d="M58.1909 60.0994V48.0211C58.1909 46.1419 57.0163 44.4192 55.0391 43.4013L51.3394 41.4828C51.1436 41.3849 50.9087 41.3849 50.713 41.4828L46.8565 43.4208C44.8206 44.4388 43.6069 46.181 43.6069 48.0994V60.1189H39.5352V31.8516H62.4975V60.1189H58.1713L58.1909 60.0994Z" stroke="black" stroke-miterlimit="10"/>
<path d="M81.4884 31.832H62.5195V60.0994H81.4884V31.832Z" stroke="black" stroke-miterlimit="10"/>
</svg>
