<svg width="31" height="32" viewBox="0 0 31 32" fill="none" xmlns="http://www.w3.org/2000/svg">
<path d="M6.01506 25.5701C6.14639 25.3425 6.34777 24.9923 6.58417 24.572C7.99381 22.0329 8.81683 20.1942 9.5523 18.4606C10.0864 17.1911 10.9007 15.3962 12.0651 13.2686C12.1352 12.8921 12.2227 12.3405 12.2928 11.6663C12.3803 10.8171 12.3979 10.1254 12.4066 9.55626C12.4154 8.23417 12.3716 5.14346 12.2315 1.04587C12.179 0.713158 12.3103 0.380448 12.573 0.187826C12.9319 -0.0748403 13.3347 0.0564919 13.3697 0.074003C16.224 0.0564919 19.0871 0.0389813 21.9414 0.0214702C21.9939 0.0127147 22.5018 -0.0923514 22.887 0.25787C23.1321 0.476759 23.1934 0.756935 23.2109 0.853246C23.2109 3.3836 23.2285 5.92271 23.2285 8.45306C23.2285 8.69821 23.2285 9.10972 23.3773 9.59128C23.5524 10.1516 23.8326 10.5369 23.9989 10.747C24.5593 11.4825 25.9952 13.1898 27.9565 15.3962C28.1141 15.6326 28.6394 16.5082 28.4905 17.6902C28.3242 19.0823 27.3523 19.8615 27.1597 20.0016L9.93754 31.7603C9.87625 31.8216 9.77994 31.8917 9.64861 31.9442C9.64861 31.9442 9.53479 31.988 9.3947 31.9967C9.16706 32.0055 6.48786 31.9967 2.82804 31.9704C2.5216 31.9442 1.97875 31.8479 1.42715 31.4889C0.735465 31.0336 0.437776 30.412 0.315198 30.1493C0.0875543 29.6677 0.0262666 29.23 0 28.9498V26.8922C0 26.8222 -8.61087e-07 26.4895 0.25391 26.2093C0.507821 25.9291 0.840531 25.9029 0.910576 25.8941L4.71048 25.8766C4.97315 25.8766 5.24457 25.8766 5.50724 25.8766C5.57728 25.8591 5.67359 25.8328 5.77866 25.7628C5.88373 25.7015 5.95377 25.6227 5.99755 25.5701H6.01506Z" fill="#F4C9DA"/>
<path d="M19.5859 9.6875C20.3739 9.89763 20.9518 10.5455 21.0394 11.316C21.1444 12.2003 20.5753 13.0759 19.6647 13.3736" stroke="#AA8795" stroke-width="0.75" stroke-miterlimit="10" stroke-linecap="round"/>
<path d="M25.0589 3.30469C24.7437 4.32909 24.4285 5.36224 24.1133 6.38664" stroke="#CB1B5B" stroke-width="0.75" stroke-miterlimit="10" stroke-linecap="round"/>
<path d="M26.2852 8.60199C27.2483 8.12919 28.2201 7.65639 29.1832 7.18359" stroke="#CB1B5B" stroke-width="0.75" stroke-miterlimit="10" stroke-linecap="round"/>
<path d="M26.793 11.5781C27.8174 11.9021 28.8418 12.226 29.8662 12.55" stroke="#CB1B5B" stroke-width="0.75" stroke-miterlimit="10" stroke-linecap="round"/>
</svg>
