<svg width="81" height="85" viewBox="0 0 81 85" fill="none" xmlns="http://www.w3.org/2000/svg">
<path d="M80.2554 81.375H1.42969V84.3897H80.2554V81.375Z" stroke="black" stroke-miterlimit="10"/>
<path d="M16.7221 41.0977H5.42969V80.6127H16.7221V41.0977Z" stroke="black" stroke-miterlimit="10"/>
<path d="M16.6179 41.0977H5.54688V44.7937H16.6179V41.0977Z" stroke="black" stroke-miterlimit="10"/>
<path d="M5.61719 40.6876C5.9919 39.3591 6.53693 38.4223 6.94571 37.7921C8.00171 36.2252 8.49566 36.5318 9.84122 34.6752C10.3011 34.028 10.6077 33.5 11.0675 33.5C11.5274 33.5 11.7829 34.0621 12.1917 34.7093C13.3499 36.5147 13.9971 36.3444 15.0361 37.9284C15.4448 38.5586 15.9729 39.5465 16.2794 40.9431" stroke="black" stroke-miterlimit="10" stroke-linecap="round"/>
<path d="M76.2338 41.7773H64.9414V81.2924H76.2338V41.7773Z" stroke="black" stroke-miterlimit="10"/>
<path d="M76.1335 41.7773H65.0625V45.4734H76.1335V41.7773Z" stroke="black" stroke-miterlimit="10"/>
<path d="M65.1289 41.3673C65.5036 40.0388 66.0487 39.102 66.4574 38.4718C67.5134 36.9049 68.0074 37.2114 69.3529 35.3549C69.8128 34.7077 70.1194 34.1797 70.5793 34.1797C71.0391 34.1797 71.2946 34.7418 71.7034 35.389C72.8616 37.1944 73.5088 37.0241 74.5478 38.6081C74.9566 39.2383 75.4846 40.2262 75.7911 41.6228" stroke="black" stroke-miterlimit="10" stroke-linecap="round"/>
<path d="M64.5509 54.7891H17.1328V57.7527H64.5509V54.7891Z" stroke="black" stroke-miterlimit="10" stroke-linecap="round"/>
<path d="M64.5509 49.5762H17.1328V54.3793H64.5509V49.5762Z" stroke="black" stroke-miterlimit="10" stroke-linecap="round"/>
<path d="M22.2084 44.7908H34.608C34.625 44.7908 34.625 44.7908 34.625 44.8078V48.6912C34.625 48.7082 34.625 48.7082 34.608 48.7082H22.2084C22.1914 48.7082 22.1914 48.7082 22.1914 48.6912V44.8078C22.1914 44.7908 22.1914 44.7908 22.2084 44.7908Z" stroke="black" stroke-miterlimit="10" stroke-linecap="round"/>
<path d="M47.0951 44.791H59.4947C59.5117 44.791 59.5117 44.791 59.5117 44.808V48.6914C59.5117 48.7085 59.5117 48.7085 59.4947 48.7085H47.0951C47.0781 48.7085 47.0781 48.7085 47.0781 48.6914V44.808C47.0781 44.791 47.0781 44.791 47.0951 44.791Z" stroke="black" stroke-miterlimit="10" stroke-linecap="round"/>
<path d="M25.4272 39.1367H32.9214C33.1599 39.1367 33.3643 39.3411 33.3643 39.5796V43.5992C33.3643 43.8376 33.1599 44.042 32.9214 44.042H25.4272C25.1888 44.042 24.9844 43.8376 24.9844 43.5992V39.5796C24.9844 39.3411 25.1888 39.1367 25.4272 39.1367Z" stroke="black" stroke-miterlimit="10" stroke-linecap="round"/>
<path d="M48.7788 39.1367H56.273C56.5115 39.1367 56.7158 39.3411 56.7158 39.5796V43.5992C56.7158 43.8376 56.5115 44.042 56.273 44.042H48.7788C48.5403 44.042 48.3359 43.8376 48.3359 43.5992V39.5796C48.3359 39.3411 48.5403 39.1367 48.7788 39.1367Z" stroke="black" stroke-miterlimit="10" stroke-linecap="round"/>
<path d="M32.5473 33.5156H25.7344V38.1314H32.5473V33.5156Z" stroke="black" stroke-miterlimit="10" stroke-linecap="round"/>
<path d="M55.934 33.5156H49.1211V38.1314H55.934V33.5156Z" stroke="black" stroke-miterlimit="10" stroke-linecap="round"/>
<path d="M24.387 29.6328H57.1573C57.1913 29.6328 57.2084 29.6498 57.2084 29.6839V33.4651C57.2084 33.4992 57.1913 33.5162 57.1573 33.5162H24.387C24.353 33.5162 24.3359 33.4992 24.3359 33.4651V29.6839C24.3359 29.6498 24.353 29.6328 24.387 29.6328Z" stroke="black" stroke-miterlimit="10" stroke-linecap="round"/>
<path d="M25.7855 25.0508H55.5751C55.6091 25.0508 55.6261 25.0678 55.6261 25.1019V28.832C55.6261 28.866 55.6091 28.8831 55.5751 28.8831H25.7855C25.7514 28.8831 25.7344 28.866 25.7344 28.832V25.1019C25.7344 25.0678 25.7514 25.0508 25.7855 25.0508Z" stroke="black" stroke-miterlimit="10" stroke-linecap="round"/>
<path d="M31.5062 19.4648H50.0033C50.6676 19.4648 51.2126 20.0099 51.2126 20.6741V23.8422C51.2126 24.5064 50.6676 25.0515 50.0033 25.0515H31.5062C30.8419 25.0515 30.2969 24.5064 30.2969 23.8422V20.6741C30.2969 20.0099 30.8419 19.4648 31.5062 19.4648Z" stroke="black" stroke-miterlimit="10" stroke-linecap="round"/>
<path d="M37.4339 5.63281H44.4853C44.7408 5.63281 44.9622 5.8372 44.9622 6.10972V10.0783C44.9622 10.3337 44.7578 10.5552 44.4853 10.5552H37.4339C37.1784 10.5552 36.957 10.3508 36.957 10.0783V6.10972C36.957 5.85423 37.1614 5.63281 37.4339 5.63281Z" stroke="black" stroke-miterlimit="10" stroke-linecap="round"/>
<path d="M30.2983 19.6335C30.2983 18.8671 30.3664 17.5386 31.0477 16.1419C31.6438 14.8985 32.4444 14.1832 33.3811 13.3145C34.1135 12.6503 35.2377 11.7305 36.8046 10.8959C39.5298 10.8959 42.255 10.8959 44.9631 10.8789C45.7466 11.3558 46.8537 12.0882 48.046 13.1442C48.8465 13.8425 49.4256 14.3705 49.9536 15.137C50.4135 15.8183 51.2481 17.266 51.2821 19.6335H30.2812H30.2983Z" stroke="black" stroke-miterlimit="10" stroke-linecap="round"/>
<path d="M22.2266 59.2695V81.3775" stroke="black" stroke-miterlimit="10" stroke-linecap="round"/>
<path d="M29.1719 59.2695V81.3775" stroke="black" stroke-miterlimit="10" stroke-linecap="round"/>
<path d="M34.625 58.8945V81.0025" stroke="black" stroke-miterlimit="10" stroke-linecap="round"/>
<path d="M47.0781 58.502V80.6099" stroke="black" stroke-miterlimit="10" stroke-linecap="round"/>
<path d="M52.5273 58.502V80.6099" stroke="black" stroke-miterlimit="10" stroke-linecap="round"/>
<path d="M59.5078 58.8945V81.0025" stroke="black" stroke-miterlimit="10" stroke-linecap="round"/>
<path d="M38.5259 5.27546C38.5259 4.66229 38.5089 4.20242 38.5089 3.91287C38.5089 3.02719 38.4918 2.83983 38.594 2.56732C38.7984 1.98822 39.2072 1.64757 39.3775 1.52834C39.5479 1.39208 40.0248 1.03441 40.7231 1.00034C40.8593 1.00034 41.6769 0.966275 42.3752 1.57944C42.4945 1.68163 42.8692 2.03931 43.0395 2.60138C43.1076 2.83983 43.1076 2.99312 43.1246 3.72552C43.1246 3.9299 43.1246 4.71339 43.1246 4.96888" stroke="black" stroke-miterlimit="10" stroke-linecap="round"/>
</svg>
