<svg width="63" height="88" viewBox="0 0 63 88" fill="none" xmlns="http://www.w3.org/2000/svg">
<path d="M60.3513 75.469H3.33204C2.28816 75.469 1.46094 76.3159 1.46094 77.3598V86.735C1.46094 86.735 1.46094 86.7547 1.48063 86.7547H28.4245C28.4245 86.7547 28.4441 86.7547 28.4441 86.735V81.0626C28.4245 79.8415 30.0001 80.0975 30.2365 79.1521C30.5516 77.8916 31.4576 77.7537 31.8318 77.7537C32.2454 77.7537 33.0924 77.8522 33.4469 79.0733C33.7226 80.0581 35.2983 79.9202 35.2392 81.0626V86.735C35.2392 86.735 35.2392 86.7547 35.2589 86.7547H62.2027C62.2027 86.7547 62.2224 86.7547 62.2224 86.735V77.3598C62.2224 76.3159 61.3755 75.469 60.3513 75.469Z" stroke="black" stroke-width="1.23309" stroke-miterlimit="10"/>
<path d="M59.1545 68.2793H5.20782C4.38059 68.2793 3.71094 68.949 3.71094 69.7762V75.4683H60.6514V69.7762C60.6514 68.949 59.9818 68.2793 59.1545 68.2793ZM33.6485 74.1683H30.7138V69.9928H33.6485V74.1683Z" stroke="black" stroke-width="1.23309" stroke-miterlimit="10"/>
<path d="M58.5581 62.2538C58.5581 61.6236 58.046 61.0918 57.3961 61.0918H6.93549C6.30522 61.0918 5.77344 61.6039 5.77344 62.2538V68.2808H58.5384V62.2538H58.5581ZM33.446 66.7445H30.9249V62.569H33.446V66.7445Z" stroke="black" stroke-width="1.23309" stroke-miterlimit="10"/>
<path d="M56.7075 55.5175C56.7075 54.8873 56.1954 54.3555 55.5455 54.3555H8.70893C8.07866 54.3555 7.54688 54.8676 7.54688 55.5175V61.5444H56.7075V55.5175ZM33.3483 60.1066H30.9258V55.9311H33.3483V60.1066Z" stroke="black" stroke-width="1.23309" stroke-miterlimit="10"/>
<path d="M55.2888 48.8398C55.2888 48.2095 54.7767 47.6777 54.1268 47.6777H10.1855C9.55522 47.6777 9.02344 48.1898 9.02344 48.8398V54.8667H55.2691L55.2888 48.8398ZM33.2492 53.3501H31.063V49.1746H33.2492V53.3501Z" stroke="black" stroke-width="1.23309" stroke-miterlimit="10"/>
<path d="M53.5774 41.3945C53.5774 40.7642 53.0653 40.2324 52.4154 40.2324H11.8027C11.1724 40.2324 10.6406 40.7445 10.6406 41.3945V47.4214H53.5577L53.5774 41.3945ZM33.1332 45.6685H31.0848V41.6308H33.1332V45.6685Z" stroke="black" stroke-width="1.23309" stroke-miterlimit="10"/>
<path d="M50.3874 33.2617H13.123C12.4927 33.2617 11.9609 33.7738 11.9609 34.4238V40.4507H51.7267V34.6207C51.7267 33.8723 51.1161 33.2617 50.3874 33.2617ZM32.7991 38.875H30.9083V34.8374H32.7991V38.875Z" stroke="black" stroke-width="1.23309" stroke-miterlimit="10"/>
<path d="M50.7181 27.2148C50.7181 26.5845 50.206 26.0527 49.556 26.0527H14.0839C13.4537 26.0527 12.9219 26.5648 12.9219 27.2148V33.2417H50.6984L50.7181 27.2148ZM32.6964 31.6857H30.9435V27.6481H32.6964V31.6857Z" stroke="black" stroke-width="1.23309" stroke-miterlimit="10"/>
<path d="M49.558 20.0253C49.558 19.3951 49.0459 18.8633 48.396 18.8633H15.248C14.6177 18.8633 14.0859 19.3754 14.0859 20.0253V26.0522H49.5383L49.558 20.0253ZM32.6984 24.4175H30.9455V20.3799H32.6984V24.4175Z" stroke="black" stroke-width="1.23309" stroke-miterlimit="10"/>
<path d="M47.2177 11.6738H16.4726C15.9605 11.6738 15.5469 12.0874 15.5469 12.5995V18.8628H48.1434V12.5995C48.1434 12.0874 47.7298 11.6738 47.2177 11.6738ZM32.564 17.2871H31.0278V13.3874H32.564V17.2871Z" stroke="black" stroke-width="1.23309" stroke-miterlimit="10"/>
<path d="M17.5703 1H17.8854C18.6733 1 19.3232 1.61057 19.3232 2.33931V6.02242H44.9474V2.33931C44.9474 1.59087 45.5777 1 46.3852 1H46.7004V11.6751H17.59V1H17.5703Z" stroke="black" stroke-width="1.23309" stroke-miterlimit="10"/>
<path d="M24.5488 5.37246C24.5488 5.09672 24.5685 4.82098 24.5685 4.52554C24.5685 2.57566 24.1943 1 23.7413 1C23.2883 1 22.9141 2.57566 22.9141 4.52554C22.9141 4.82098 22.9141 5.09672 22.9338 5.37246H24.5488Z" stroke="black" stroke-width="1.23309" stroke-miterlimit="10"/>
<path d="M30.1582 5.3723C30.1582 5.09656 30.1779 4.82082 30.1779 4.52538C30.1779 2.5755 29.8037 1.01953 29.3507 1.01953C28.8977 1.01953 28.5234 2.59519 28.5234 4.52538C28.5234 4.82082 28.5234 5.09656 28.5431 5.3723H30.1582Z" stroke="black" stroke-width="1.23309" stroke-miterlimit="10"/>
<path d="M35.791 5.3723C35.791 5.09656 35.8107 4.82082 35.8107 4.52538C35.8107 2.5755 35.4365 1.01953 34.9835 1.01953C34.5305 1.01953 34.1562 2.59519 34.1562 4.52538C34.1562 4.82082 34.1563 5.09656 34.1759 5.3723H35.791Z" stroke="black" stroke-width="1.23309" stroke-miterlimit="10"/>
<path d="M41.4004 5.3723C41.4004 5.09656 41.4201 4.82082 41.4201 4.52538C41.4201 2.5755 41.0459 1.01953 40.5928 1.01953C40.1398 1.01953 39.7656 2.59519 39.7656 4.52538C39.7656 4.82082 39.7656 5.09656 39.7853 5.3723H41.4004Z" stroke="black" stroke-width="1.23309" stroke-miterlimit="10"/>
</svg>
