<svg width="39" height="83" viewBox="0 0 39 83" fill="none" xmlns="http://www.w3.org/2000/svg">
<path d="M34.7864 32.7734H3.39062V59.0739H34.7864V32.7734Z" stroke="black" stroke-width="0.824467" stroke-miterlimit="10" stroke-linecap="round"/>
<path d="M32.8558 82.4882H5.64844V59.0898H32.8558V82.4882Z" stroke="black" stroke-width="0.824467" stroke-miterlimit="10" stroke-linecap="round"/>
<path d="M32.8519 25.5352H5.64453V32.774H32.8519V25.5352Z" stroke="black" stroke-width="0.824467" stroke-miterlimit="10" stroke-linecap="round"/>
<path d="M37.1586 25.5354H1.34375C4.27885 22.6332 7.2304 19.7146 10.1655 16.8125H28.1224C31.14 19.7146 34.1411 22.6332 37.1586 25.5354Z" stroke="black" stroke-width="0.824467" stroke-miterlimit="10" stroke-linecap="round"/>
<path d="M27.9076 10.9922H10.5938V16.8129H27.9076V10.9922Z" stroke="black" stroke-width="0.824467" stroke-miterlimit="10" stroke-linecap="round"/>
<path d="M11.8828 10.6298C14.2738 7.41435 16.6647 4.21542 19.0721 1L26.4099 10.6298H11.8993H11.8828Z" stroke="black" stroke-width="0.824467" stroke-miterlimit="10" stroke-linecap="round"/>
<path d="M27.9101 45.3735C27.9101 50.1719 24.0187 54.0634 19.2203 54.0634C14.4219 54.0634 10.5469 50.1719 10.5469 45.3735C10.5469 40.5751 14.4384 36.6836 19.2203 36.6836C24.0022 36.6836 27.9101 40.5751 27.9101 45.3735Z" stroke="black" stroke-width="0.824467" stroke-miterlimit="10" stroke-linecap="round"/>
<path d="M19.3359 41.5469V45.3889H22.1721" stroke="black" stroke-width="0.824467" stroke-miterlimit="10" stroke-linecap="round"/>
<path d="M12.8047 59.6855V65.9845" stroke="black" stroke-width="0.824467" stroke-miterlimit="10" stroke-linecap="round"/>
<path d="M19.2188 59.6855V65.9845" stroke="black" stroke-width="0.824467" stroke-miterlimit="10" stroke-linecap="round"/>
<path d="M25.7109 59.6855V65.9845" stroke="black" stroke-width="0.824467" stroke-miterlimit="10" stroke-linecap="round"/>
<path d="M12.8047 71.9531V78.2521" stroke="black" stroke-width="0.824467" stroke-miterlimit="10" stroke-linecap="round"/>
<path d="M19.3359 71.9531V78.2521" stroke="black" stroke-width="0.824467" stroke-miterlimit="10" stroke-linecap="round"/>
<path d="M25.3008 71.9531V78.2521" stroke="black" stroke-width="0.824467" stroke-miterlimit="10" stroke-linecap="round"/>
</svg>
