<svg width="33" height="34" viewBox="0 0 33 34" fill="none" xmlns="http://www.w3.org/2000/svg">
<path d="M1.05223 30.5482C0.948878 30.2554 1.0264 30.0056 1.05223 29.928C2.66287 27.2149 4.2735 24.5019 5.88413 21.7802C6.13391 21.3151 6.43536 20.5916 6.44397 19.7044C6.4612 18.8087 6.16836 18.6192 6.10807 17.5684C6.065 16.9138 6.00471 15.8113 6.66791 14.8122C6.82295 14.5883 7.37418 13.7701 8.40774 13.5203C9.48436 13.2619 10.5265 13.7529 11.1036 14.3041C11.6635 14.8467 12.163 15.8113 12.1716 15.8199C12.1027 15.6994 12.2836 16.087 12.3956 16.1645C12.5334 16.2592 12.6884 16.1903 12.9812 16.1472C13.2138 16.1128 13.4463 16.1214 13.6875 16.1042C14.1957 16.0697 14.833 16.2937 15.2637 16.5693C16.504 17.3531 16.6245 18.8862 16.6332 18.9465C16.7107 20.1265 16.0647 20.9447 15.8924 21.16C15.367 21.806 14.7297 22.0816 14.4196 22.2108C13.5066 22.5898 13.1104 22.3659 12.3783 22.6329C11.8615 22.8223 11.1811 23.2444 10.5438 24.321C8.92452 27.0772 7.29666 29.8419 5.67741 32.5981C5.59129 32.7101 5.41902 32.9082 5.15202 32.9771C4.90224 33.0374 4.67831 32.9598 4.52327 32.8909C4.02372 32.6756 2.84374 31.9693 1.34508 30.953C1.27617 30.8927 1.13836 30.7635 1.06085 30.5396L1.05223 30.5482Z" fill="#F4C9DA" stroke="#AA8795" stroke-width="0.5" stroke-miterlimit="10" stroke-linecap="round"/>
<path d="M32.6687 5.11526C32.6256 5.41672 32.4448 5.60621 32.3845 5.65789C29.6972 7.31158 27.0014 8.95667 24.3141 10.6104C23.8748 10.9118 23.2719 11.4028 22.8499 12.1866C22.4192 12.979 22.5829 13.2718 22.1522 14.2278C21.8766 14.8307 21.4201 15.8385 20.3693 16.3983C20.1282 16.5275 19.2583 16.9926 18.2247 16.7256C17.1567 16.45 16.459 15.5284 16.2093 14.7705C15.9681 14.0297 15.9767 12.9359 15.9767 12.9273C15.9767 13.0651 16.0026 12.6431 15.9423 12.5225C15.8647 12.3761 15.7011 12.3588 15.4083 12.2641C15.1843 12.1866 14.9776 12.0746 14.7709 11.9712C14.3058 11.7559 13.8493 11.2649 13.5995 10.8257C12.8674 9.55096 13.4703 8.13843 13.4962 8.07814C13.9785 7.00151 14.9259 6.57087 15.1843 6.46751C15.9509 6.14022 16.6485 6.19192 16.9758 6.22637C17.9577 6.3125 18.2075 6.70007 18.9826 6.80343C19.5253 6.88095 20.3263 6.82066 21.3857 6.16608C24.1074 4.47793 26.8291 2.7984 29.5508 1.11025C29.68 1.04996 29.9212 0.955183 30.1968 1.02409C30.4466 1.08438 30.6102 1.25663 30.7136 1.39444C31.0581 1.82509 31.7643 2.99648 32.6256 4.58988C32.6601 4.67601 32.7204 4.8569 32.6859 5.08945L32.6687 5.11526Z" fill="#F4C9DA" stroke="#AA8795" stroke-width="0.5" stroke-miterlimit="10" stroke-linecap="round"/>
<path d="M3.98047 11.7892C5.03987 11.8151 6.09065 11.8496 7.15005 11.8754" stroke="#CB1B5B" stroke-width="0.75" stroke-miterlimit="10" stroke-linecap="round"/>
<path d="M8.68361 9.24057C7.98595 8.44817 7.2883 7.65577 6.58203 6.86337" stroke="#CB1B5B" stroke-width="0.75" stroke-miterlimit="10" stroke-linecap="round"/>
<path d="M11.3711 7.98409C11.4142 6.92469 11.4486 5.87391 11.4917 4.81451" stroke="#CB1B5B" stroke-width="0.75" stroke-miterlimit="10" stroke-linecap="round"/>
<path d="M17.6055 25.1325C17.6485 24.0731 17.683 23.0223 17.7261 21.9629" stroke="#CB1B5B" stroke-width="0.75" stroke-miterlimit="10" stroke-linecap="round"/>
<path d="M20.4648 20.6094C21.2056 21.3587 21.9549 22.108 22.6956 22.8574" stroke="#CB1B5B" stroke-width="0.75" stroke-miterlimit="10" stroke-linecap="round"/>
<path d="M21.8984 18.0098C22.9578 18.0442 24.0086 18.07 25.068 18.1045" stroke="#CB1B5B" stroke-width="0.75" stroke-miterlimit="10" stroke-linecap="round"/>
</svg>
