<svg width="72" height="82" viewBox="0 0 72 82" fill="none" xmlns="http://www.w3.org/2000/svg">
<path d="M0.539062 80.9178H70.6719C70.5485 57.311 70.4427 33.7042 70.3193 10.0974C67.1283 10.0974 60.4112 10.5205 53.1828 14.4697C46.0073 18.3836 42.0405 23.7432 40.3128 26.423V80.9178" stroke="black" stroke-miterlimit="10" stroke-linecap="round"/>
<path d="M39.9395 34.2315C33.3634 34.1257 26.7698 34.0023 20.1937 33.8789C20.1585 49.5521 20.1232 65.2254 20.0703 80.8986" stroke="black" stroke-miterlimit="10" stroke-linecap="round"/>
<path d="M0.769531 80.1066V1H26.6506C26.7564 11.966 26.8798 22.9319 26.9856 33.8803" stroke="black" stroke-miterlimit="10" stroke-linecap="round"/>
<path d="M42.9414 22.8791C42.9414 15.5802 42.959 8.29889 42.9766 1C50.6281 4.12054 58.2797 7.24108 65.9312 10.3616" stroke="black" stroke-miterlimit="10" stroke-linecap="round"/>
<path d="M7.00781 80.2846C7.04307 76.8115 7.06071 73.356 7.09597 69.8828H13.7601V79.8968" stroke="black" stroke-miterlimit="10" stroke-linecap="round"/>
<path d="M48.8281 79.8791V69.8828H61.5924V80.1259" stroke="black" stroke-miterlimit="10" stroke-linecap="round"/>
<path d="M7.07812 12.6172V15.3851" stroke="black" stroke-miterlimit="10" stroke-linecap="round"/>
<path d="M7.02344 19.2812V22.0492" stroke="black" stroke-miterlimit="10" stroke-linecap="round"/>
<path d="M7.02344 26V28.7679" stroke="black" stroke-miterlimit="10" stroke-linecap="round"/>
<path d="M7.02344 32.7344V35.5023" stroke="black" stroke-miterlimit="10" stroke-linecap="round"/>
<path d="M7.02344 39.4688V42.2367" stroke="black" stroke-miterlimit="10" stroke-linecap="round"/>
<path d="M7.02344 46.1855V48.9535" stroke="black" stroke-miterlimit="10" stroke-linecap="round"/>
<path d="M7.02344 52.9219V55.6898" stroke="black" stroke-miterlimit="10" stroke-linecap="round"/>
<path d="M7.02344 59.6367V62.4047" stroke="black" stroke-miterlimit="10" stroke-linecap="round"/>
<path d="M13.7617 12.6172V15.3851" stroke="black" stroke-miterlimit="10" stroke-linecap="round"/>
<path d="M13.7617 19.2812V22.0492" stroke="black" stroke-miterlimit="10" stroke-linecap="round"/>
<path d="M13.7617 25.9453V28.7133" stroke="black" stroke-miterlimit="10" stroke-linecap="round"/>
<path d="M13.7617 32.6113V35.3793" stroke="black" stroke-miterlimit="10" stroke-linecap="round"/>
<path d="M13.7617 39.2754V42.0433" stroke="black" stroke-miterlimit="10" stroke-linecap="round"/>
<path d="M13.7617 45.9395V48.7074" stroke="black" stroke-miterlimit="10" stroke-linecap="round"/>
<path d="M13.7617 52.5859V55.3539" stroke="black" stroke-miterlimit="10" stroke-linecap="round"/>
<path d="M13.7617 59.25V62.0179" stroke="black" stroke-miterlimit="10" stroke-linecap="round"/>
<path d="M20.2656 12.6172V15.3851" stroke="black" stroke-miterlimit="10" stroke-linecap="round"/>
<path d="M20.2656 19.2812V22.0492" stroke="black" stroke-miterlimit="10" stroke-linecap="round"/>
<path d="M20.2656 25.9453V28.7133" stroke="black" stroke-miterlimit="10" stroke-linecap="round"/>
<path d="M27.1602 40.8438V43.6117" stroke="black" stroke-miterlimit="10" stroke-linecap="round"/>
<path d="M27.1602 48.4062V51.1742" stroke="black" stroke-miterlimit="10" stroke-linecap="round"/>
<path d="M27.1602 55.9707V58.7386" stroke="black" stroke-miterlimit="10" stroke-linecap="round"/>
<path d="M27.1602 63.5156V66.2836" stroke="black" stroke-miterlimit="10" stroke-linecap="round"/>
<path d="M27.1602 71.0798V73.8478" stroke="black" stroke-miterlimit="10" stroke-linecap="round"/>
<path d="M33.1562 40.8438V43.6117" stroke="black" stroke-miterlimit="10" stroke-linecap="round"/>
<path d="M33.1562 48.4062V51.1742" stroke="black" stroke-miterlimit="10" stroke-linecap="round"/>
<path d="M33.1562 55.9707V58.7386" stroke="black" stroke-miterlimit="10" stroke-linecap="round"/>
<path d="M33.1562 63.5156V66.2836" stroke="black" stroke-miterlimit="10" stroke-linecap="round"/>
<path d="M33.1562 71.0801V73.848" stroke="black" stroke-miterlimit="10" stroke-linecap="round"/>
<path d="M48.4609 33.4746V36.2425" stroke="black" stroke-miterlimit="10" stroke-linecap="round"/>
<path d="M48.4609 40.332V43.1" stroke="black" stroke-miterlimit="10" stroke-linecap="round"/>
<path d="M48.4609 47.1914V49.9593" stroke="black" stroke-miterlimit="10" stroke-linecap="round"/>
<path d="M48.4609 54.0312V56.7992" stroke="black" stroke-miterlimit="10" stroke-linecap="round"/>
<path d="M48.4609 60.8906V63.6586" stroke="black" stroke-miterlimit="10" stroke-linecap="round"/>
<path d="M54.9141 33.4746V36.2425" stroke="black" stroke-miterlimit="10" stroke-linecap="round"/>
<path d="M54.9141 40.332V43.1" stroke="black" stroke-miterlimit="10" stroke-linecap="round"/>
<path d="M54.9141 47.1914V49.9593" stroke="black" stroke-miterlimit="10" stroke-linecap="round"/>
<path d="M54.9141 54.0312V56.7992" stroke="black" stroke-miterlimit="10" stroke-linecap="round"/>
<path d="M54.9141 60.8906V63.6586" stroke="black" stroke-miterlimit="10" stroke-linecap="round"/>
<path d="M61.6797 33.4746V36.2425" stroke="black" stroke-miterlimit="10" stroke-linecap="round"/>
<path d="M61.6797 40.334V43.1019" stroke="black" stroke-miterlimit="10" stroke-linecap="round"/>
<path d="M61.6797 47.1914V49.9593" stroke="black" stroke-miterlimit="10" stroke-linecap="round"/>
<path d="M61.6797 54.0312V56.7992" stroke="black" stroke-miterlimit="10" stroke-linecap="round"/>
<path d="M61.6797 60.8906V63.6586" stroke="black" stroke-miterlimit="10" stroke-linecap="round"/>
</svg>
