<svg width="64" height="91" viewBox="0 0 64 91" fill="none" xmlns="http://www.w3.org/2000/svg">
<path d="M21.759 89.7558C21.759 84.677 21.7916 79.5819 21.7916 74.503C21.6773 73.9478 21.5304 72.87 21.8733 71.6289C22.2653 70.1918 23.0654 69.2936 23.4737 68.869C24.6168 67.6442 25.7273 67.4319 27.54 66.6317C28.6831 66.1418 30.3325 65.3253 32.2595 64.0352" stroke="black" stroke-miterlimit="10" stroke-linecap="round"/>
<path d="M42.8287 89.7558C42.8287 84.677 42.796 79.5819 42.796 74.503C42.9103 73.9478 43.0573 72.87 42.7143 71.6289C42.3224 70.1918 41.5222 69.2936 41.114 68.869C39.9708 67.6442 38.8603 67.4319 37.0476 66.6317C35.9045 66.1418 34.2551 65.3253 32.3281 64.0352" stroke="black" stroke-miterlimit="10" stroke-linecap="round"/>
<path d="M23.7353 63.5136C23.9969 63.5136 24.2089 63.3015 24.2089 63.04C24.2089 62.7784 23.9969 62.5664 23.7353 62.5664C23.4738 62.5664 23.2617 62.7784 23.2617 63.04C23.2617 63.3015 23.4738 63.5136 23.7353 63.5136Z" stroke="black" stroke-miterlimit="10" stroke-linecap="round"/>
<path d="M40.6728 63.5292C40.9344 63.5292 41.1464 63.3172 41.1464 63.0556C41.1464 62.7941 40.9344 62.582 40.6728 62.582C40.4113 62.582 40.1992 62.7941 40.1992 63.0556C40.1992 63.3172 40.4113 63.5292 40.6728 63.5292Z" stroke="black" stroke-miterlimit="10" stroke-linecap="round"/>
<path d="M12.699 59.1367H51.4351C51.7291 59.1367 51.9741 59.3817 51.9741 59.6756V89.2176C51.9741 89.5116 51.7291 89.7565 51.4351 89.7565H12.699C12.4051 89.7565 12.1602 89.5116 12.1602 89.2176V59.6756C12.1602 59.3817 12.4051 59.1367 12.699 59.1367Z" stroke="black" stroke-miterlimit="10" stroke-linecap="round"/>
<path d="M19.457 60.2461V88.6776" stroke="black" stroke-miterlimit="10" stroke-linecap="round"/>
<path d="M45.5547 60.2461V88.6776" stroke="black" stroke-miterlimit="10" stroke-linecap="round"/>
<path d="M13.3984 65.0488H18.6242" stroke="black" stroke-miterlimit="10" stroke-linecap="round"/>
<path d="M13.3984 71.9727H18.6242" stroke="black" stroke-miterlimit="10" stroke-linecap="round"/>
<path d="M13.4141 79.3047H18.6399" stroke="black" stroke-miterlimit="10" stroke-linecap="round"/>
<path d="M46.2734 65.0488H51.4992" stroke="black" stroke-miterlimit="10" stroke-linecap="round"/>
<path d="M46.2734 71.9727H51.4992" stroke="black" stroke-miterlimit="10" stroke-linecap="round"/>
<path d="M46.2734 79.3047H51.4992" stroke="black" stroke-miterlimit="10" stroke-linecap="round"/>
<path d="M53.3263 60.0362H61.0997V89.6435H3.37109V59.9219H11.471" stroke="black" stroke-miterlimit="10" stroke-linecap="round"/>
<path d="M2.96361 59.3978C2.86562 59.1528 2.70234 58.8752 2.42472 58.6466C1.95113 58.2383 1.47755 58.2873 1.46122 58.173C1.42856 57.879 4.22104 56.8665 7.79744 56.8992C10.8023 56.9319 13.2355 57.6831 13.2192 57.9934C13.2192 58.0913 12.9579 58.0913 12.5986 58.4016C12.3047 58.6466 12.1251 58.9242 12.0108 59.1528" stroke="black" stroke-miterlimit="10" stroke-linecap="round"/>
<path d="M52.7879 59.5931C52.6899 59.3481 52.5266 59.0705 52.2489 58.8419C51.7754 58.4336 51.3018 58.4826 51.2854 58.3683C51.2528 58.0744 54.0453 57.0619 57.6217 57.0945C60.6265 57.1272 63.0598 57.8784 63.0435 58.1887C63.0435 58.2867 62.7822 58.2867 62.4229 58.5969C62.1289 58.8419 61.9493 59.1195 61.835 59.3481" stroke="black" stroke-miterlimit="10" stroke-linecap="round"/>
<path d="M52.7879 59.3978C52.6899 59.1528 52.5266 58.8752 52.2489 58.6466C51.7754 58.2383 51.3018 58.2873 51.2854 58.173C51.2528 57.879 54.0453 56.8665 57.6217 56.8992C60.6265 56.9319 63.0598 57.6831 63.0435 57.9934C63.0435 58.124 62.7822 58.1567 62.4229 58.4016C61.5737 58.9569 61.2471 59.9367 61.1001 60.6879" stroke="black" stroke-miterlimit="10" stroke-linecap="round"/>
<path d="M1.76953 57.9274C1.76953 56.7679 1.76953 55.5758 1.76953 54.3673C1.76953 53.5834 1.80221 52.8159 1.83487 52.0484C2.83103 51.5421 5.01935 50.5786 7.92619 50.6929C10.5881 50.7909 12.564 51.7381 13.5112 52.2933C13.4296 54.449 13.3479 56.6046 13.2663 58.7602" stroke="black" stroke-miterlimit="10" stroke-linecap="round"/>
<path d="M51.3025 58.3698C51.2209 57.2267 51.1719 55.9855 51.1719 54.6954C51.1719 53.8952 51.1882 53.1277 51.2372 52.3765C52.2334 51.8702 54.4217 50.9067 57.3285 51.0211C59.9904 51.119 61.9664 52.0662 62.9136 52.6214C62.8809 54.1402 62.8646 55.6589 62.8319 57.1777" stroke="black" stroke-miterlimit="10" stroke-linecap="round"/>
<path d="M13.4648 56.1992C25.6801 56.1992 37.8954 56.1992 50.1106 56.1992" stroke="black" stroke-miterlimit="10" stroke-linecap="round"/>
<path d="M16.0781 55.331C16.0781 54.9391 16.0781 54.5471 16.0781 54.1389C16.0781 53.8123 15.9638 53.453 16.0781 53.1264C16.1925 52.7834 16.5354 52.4405 16.7967 52.2119C17.0253 51.9996 17.2376 51.8526 17.4336 51.7383C17.6459 51.8689 17.8745 52.0159 18.1195 52.2119C18.5114 52.5385 18.8543 52.7344 18.8707 53.2734C18.9033 53.9266 18.9197 54.5798 18.936 55.2494" stroke="black" stroke-miterlimit="10" stroke-linecap="round"/>
<path d="M20.9961 55.331C20.9961 54.9391 20.9961 54.5471 20.9961 54.1389C20.9961 53.8123 20.8818 53.453 20.9961 53.1264C21.1104 52.7834 21.4534 52.4405 21.7147 52.2119C21.9433 51.9996 22.1556 51.8526 22.3515 51.7383C22.5638 51.8689 22.7925 52.0159 23.0374 52.2119C23.4294 52.5385 23.7723 52.7344 23.7886 53.2734C23.8213 53.9266 23.8376 54.5798 23.854 55.2494" stroke="black" stroke-miterlimit="10" stroke-linecap="round"/>
<path d="M26.0547 55.331C26.0547 54.9391 26.0547 54.5471 26.0547 54.1389C26.0547 53.8123 25.9404 53.453 26.0547 53.1264C26.169 52.7834 26.512 52.4405 26.7733 52.2119C27.0019 51.9996 27.2142 51.8526 27.4101 51.7383C27.6224 51.8689 27.8511 52.0159 28.096 52.2119C28.488 52.5385 28.8309 52.7344 28.8472 53.2734C28.8799 53.9266 28.8962 54.5798 28.9126 55.2494" stroke="black" stroke-miterlimit="10" stroke-linecap="round"/>
<path d="M31.0547 55.331C31.0547 54.9391 31.0547 54.5471 31.0547 54.1389C31.0547 53.8123 30.9404 53.453 31.0547 53.1264C31.169 52.7834 31.512 52.4405 31.7733 52.2119C32.0019 51.9996 32.2142 51.8526 32.4101 51.7383C32.6224 51.8689 32.8511 52.0159 33.096 52.2119C33.488 52.5385 33.8309 52.7344 33.8472 53.2734C33.8799 53.9266 33.8962 54.5798 33.9126 55.2494" stroke="black" stroke-miterlimit="10" stroke-linecap="round"/>
<path d="M35.9688 55.1513C35.9688 54.7594 35.9688 54.3675 35.9688 53.9592C35.9688 53.6326 35.8545 53.2733 35.9688 52.9467C36.0831 52.6038 36.426 52.2608 36.6873 52.0322C36.916 51.8199 37.1283 51.6729 37.3242 51.5586C37.5365 51.6892 37.7651 51.8362 38.0101 52.0322C38.402 52.3588 38.745 52.5548 38.7613 53.0937C38.794 53.7469 38.8103 54.4001 38.8266 55.0697" stroke="black" stroke-miterlimit="10" stroke-linecap="round"/>
<path d="M40.8828 55.1513C40.8828 54.7594 40.8828 54.3675 40.8828 53.9592C40.8828 53.6326 40.7685 53.2733 40.8828 52.9467C40.9972 52.6038 41.3401 52.2608 41.6014 52.0322C41.83 51.8199 42.0423 51.6729 42.2383 51.5586C42.4505 51.6892 42.6792 51.8362 42.9242 52.0322C43.3161 52.3588 43.659 52.5548 43.6754 53.0937C43.708 53.7469 43.7244 54.4001 43.7407 55.0697" stroke="black" stroke-miterlimit="10" stroke-linecap="round"/>
<path d="M45.8321 55.1513C45.8321 54.7594 45.8321 54.3675 45.8321 53.9592C45.8321 53.6326 45.7177 53.2733 45.8321 52.9467C45.9464 52.6038 46.2893 52.2608 46.5506 52.0322C46.7792 51.8199 46.9916 51.6729 47.1875 51.5586C47.3998 51.6892 47.6284 51.8362 47.8734 52.0322C48.2653 52.3588 48.6082 52.5548 48.6246 53.0937C48.6572 53.7469 48.6736 54.4001 48.6899 55.0697" stroke="black" stroke-miterlimit="10" stroke-linecap="round"/>
<path d="M2.34335 51.3303C2.31069 49.7135 2.29438 48.0805 2.26172 46.4638C3.19256 45.9902 4.85828 45.288 7.06291 45.1736C9.77378 45.043 11.8314 45.8922 12.8113 46.3821C12.8113 48.2275 12.8113 50.0728 12.8113 51.9182" stroke="black" stroke-miterlimit="10" stroke-linecap="round"/>
<path d="M52.0532 52.0013C52.0042 50.2049 51.9552 48.4086 51.9062 46.6122C52.8371 46.1386 54.5028 45.4364 56.7074 45.3221C59.4183 45.1914 61.4759 46.0406 62.4558 46.5305C62.4395 48.4739 62.4068 50.4172 62.3905 52.3606" stroke="black" stroke-miterlimit="10" stroke-linecap="round"/>
<path d="M13.0898 45.9082H51.0257" stroke="black" stroke-miterlimit="10" stroke-linecap="round"/>
<path d="M12.4023 41.9902H52.9838" stroke="black" stroke-miterlimit="10" stroke-linecap="round"/>
<path d="M12.0938 38.0703H52.6752" stroke="black" stroke-miterlimit="10" stroke-linecap="round"/>
<path d="M2.92971 46.1388C2.92971 45.9592 2.91339 44.8977 3.69725 44.2118C3.94221 43.9995 4.2035 43.8852 4.4158 43.8199C4.44846 41.256 4.46477 38.7084 4.49743 36.1445L4.10552 34.7074C4.87305 34.3482 6.34277 33.7929 8.25344 33.8256C10.0008 33.8583 11.3399 34.3645 12.0911 34.7074C11.9768 35.181 11.8789 35.671 11.7646 36.1445C11.7319 38.7738 11.7155 41.4193 11.6829 44.0485C11.8462 44.3588 12.0095 44.6854 12.1565 45.012C12.3851 45.4693 12.5974 45.9265 12.7933 46.3675" stroke="black" stroke-miterlimit="10" stroke-linecap="round"/>
<path d="M62.1137 46.1388C62.1137 45.9592 62.13 44.8977 61.3461 44.2118C61.1012 43.9995 60.8399 43.8852 60.6276 43.8199C60.5949 41.256 60.5786 38.7084 60.546 36.1445L60.9379 34.7074C60.1703 34.3482 58.7006 33.7929 56.7899 33.8256C55.0425 33.8583 53.7035 34.3645 52.9523 34.7074C53.0666 35.181 53.1645 35.671 53.2788 36.1445C53.3115 38.7738 53.3279 41.4193 53.3605 44.0485C53.1972 44.3588 53.0339 44.6854 52.8869 45.012C52.6583 45.4693 52.446 45.9265 52.25 46.3675" stroke="black" stroke-miterlimit="10" stroke-linecap="round"/>
<path d="M3.86174 35.4411C3.74742 35.1471 3.64947 34.8532 3.53516 34.5592V28.0923C4.33535 27.7004 5.95209 27.0308 8.0914 27.0472C10.2307 27.0635 11.8474 27.7494 12.6476 28.174C12.6476 29.2355 12.615 30.3296 12.566 31.4564C12.5333 32.4689 12.468 33.4488 12.4026 34.4123C12.2067 34.8695 12.0107 35.3104 11.8148 35.7677" stroke="black" stroke-miterlimit="10" stroke-linecap="round"/>
<path d="M60.8562 35.4413C60.9705 35.1474 61.0684 34.8534 61.1827 34.5595V28.0926C60.3826 27.7006 58.7659 27.0311 56.6266 27.0474C54.4873 27.0637 52.8705 27.7496 52.0703 28.1742C52.0703 29.2357 52.103 30.3299 52.1519 31.4567C52.1846 32.4692 52.2499 33.449 52.3153 34.4125C52.5112 34.8698 52.7072 35.3107 52.9032 35.7679" stroke="black" stroke-miterlimit="10" stroke-linecap="round"/>
<path d="M4.49664 27.6847C4.46398 25.6107 4.44767 23.5367 4.41501 21.4627C4.2517 20.9075 4.08838 20.3359 3.94141 19.7807C4.7906 19.4377 6.21134 18.9968 8.0077 18.9805C9.75507 18.9805 11.1595 19.3724 12.0087 19.699C11.8781 20.2053 11.7474 20.7115 11.6167 21.2178C11.5678 23.1938 11.5025 25.1534 11.4535 27.1294" stroke="black" stroke-miterlimit="10" stroke-linecap="round"/>
<path d="M60.2191 27.5694C60.2518 25.4954 60.2681 23.4215 60.3008 21.3475C60.4641 20.7922 60.6274 20.2207 60.7743 19.6654C59.9251 19.3225 58.5044 18.8816 56.708 18.8652C54.9607 18.8652 53.5562 19.2572 52.707 19.5838C52.8377 20.09 52.9684 20.5963 53.099 21.1025C53.148 23.0785 53.2133 25.0382 53.2623 27.0142" stroke="black" stroke-miterlimit="10" stroke-linecap="round"/>
<path d="M3.78085 19.2249C3.74819 17.6245 3.73188 16.0241 3.69922 14.4401C4.30345 14.0645 5.96913 13.1336 8.25541 13.2479C10.2967 13.3459 11.7339 14.1951 12.3218 14.6034C12.3544 16.2201 12.3707 17.8532 12.4034 19.4699" stroke="black" stroke-miterlimit="10" stroke-linecap="round"/>
<path d="M4.97159 13.7867C4.95526 11.876 4.92258 9.94898 4.90625 8.03831C5.55947 7.67904 7.02921 6.99315 8.97254 7.0748C10.377 7.14013 11.4548 7.56472 12.0917 7.875L11.9447 14.3419" stroke="black" stroke-miterlimit="10" stroke-linecap="round"/>
<path d="M5.25 7.85882C5.25 6.87898 5.47862 6.11145 5.80523 5.50722C6.27882 4.65803 6.67076 4.62537 7.29132 3.64553C8.07519 2.40441 8.07521 1.44091 8.38549 1.45724C8.7121 1.45724 8.56514 2.53505 9.36533 3.64553C9.96957 4.49472 10.4921 4.49472 11.129 5.40923C11.5699 6.04612 11.7659 6.68302 11.8476 7.09128" stroke="black" stroke-miterlimit="10" stroke-linecap="round"/>
<path d="M60.8882 19.4534C60.9208 17.853 60.9371 16.2527 60.9698 14.6686C60.3656 14.293 58.6999 13.3621 56.4136 13.4765C54.3723 13.5744 52.9352 14.4236 52.3473 14.8319C52.3146 16.4486 52.2983 18.0817 52.2656 19.6984" stroke="black" stroke-miterlimit="10" stroke-linecap="round"/>
<path d="M59.9425 13.1336C59.8935 11.5169 59.8282 9.88379 59.7792 8.26707C59.126 7.9078 57.6562 7.22191 55.7128 7.30356C54.3084 7.36889 53.2306 7.79348 52.5938 8.10376L52.7407 14.5707" stroke="black" stroke-miterlimit="10" stroke-linecap="round"/>
<path d="M59.3035 7.48323C59.1892 6.83001 58.928 5.9155 58.2584 5.08264C57.7358 4.42942 57.4582 4.42942 56.9846 3.80886C55.9721 2.48608 56.0865 1 55.8578 1C55.6455 1 55.9395 2.40443 55.1393 3.7272C54.6494 4.54373 54.1758 4.62539 53.5389 5.63788C53.1306 6.2911 52.9346 6.91166 52.8203 7.31993" stroke="black" stroke-miterlimit="10" stroke-linecap="round"/>
<path d="M12.8125 17.5445C13.0085 17.2342 13.3024 16.7443 13.6127 16.1074C14.3476 14.556 14.4129 13.6578 14.7395 13.6252C15.1314 13.6088 15.0825 14.8663 16.2419 16.336C16.5849 16.777 16.9605 17.1199 17.3524 17.8548C17.7117 18.4917 17.8097 18.9326 17.826 19.0469C17.973 19.7165 17.8913 20.288 17.826 20.6473V25.7588C18.022 25.8404 18.5609 26.1017 18.9365 26.7223C19.3611 27.4245 19.2794 28.1267 19.2631 28.3227C19.1488 29.5964 19.0508 30.8702 18.9365 32.1603C18.7242 32.5523 18.5119 32.9605 18.2996 33.3525C18.2669 34.6263 18.2506 35.9 18.2179 37.1902" stroke="black" stroke-miterlimit="10" stroke-linecap="round"/>
<path d="M11.8477 20.3192C12.2886 20.0576 13.2847 19.5508 14.6402 19.5508C15.8976 19.5508 16.8285 19.9595 17.2694 20.1884" stroke="black" stroke-miterlimit="10" stroke-linecap="round"/>
<path d="M12.0156 26.1669C12.6362 25.9219 13.5834 25.6443 14.7265 25.6116C16.7515 25.5626 18.2702 26.3302 18.9561 26.7384" stroke="black" stroke-miterlimit="10" stroke-linecap="round"/>
<path d="M13.3672 31.3577C13.9388 31.2434 14.837 31.1127 15.9311 31.276C17.0906 31.4394 17.9724 31.8639 18.495 32.1579" stroke="black" stroke-miterlimit="10" stroke-linecap="round"/>
<path d="M51.9051 17.5436C51.6601 17.266 51.3009 16.8414 50.9906 16.2698C50.2067 14.8491 50.2557 13.6406 49.9781 13.6406C49.7005 13.6406 49.7495 14.8654 48.835 16.3515C48.5083 16.8904 48.0185 17.511 48.0021 17.5436C47.3489 18.3928 47.0386 18.5561 46.8916 19.0624C46.6793 19.7156 46.7936 20.3198 46.8916 20.6628V25.7742C46.6956 25.8559 46.1567 26.1172 45.7811 26.7377C45.3565 27.44 45.4382 28.1422 45.4545 28.3381C45.5688 29.6119 45.6668 30.8857 45.7811 32.1758C45.9934 32.5678 46.2058 32.976 46.4181 33.3679C46.4507 34.6417 46.467 35.9155 46.4997 37.2056" stroke="black" stroke-miterlimit="10" stroke-linecap="round"/>
<path d="M52.9336 20.4497C52.558 20.1884 51.5292 19.5515 50.0758 19.5352C48.3774 19.5352 47.2179 20.3843 46.875 20.6456" stroke="black" stroke-miterlimit="10" stroke-linecap="round"/>
<path d="M53.2494 26.4112C52.5798 26.1006 51.4367 25.6755 49.9996 25.6101C48.1705 25.5284 46.7661 26.0516 46.0312 26.3785" stroke="black" stroke-miterlimit="10" stroke-linecap="round"/>
<path d="M52.1488 31.4409C51.5119 31.2612 50.3034 31 48.801 31.2776C47.3639 31.5389 46.3351 32.1758 45.8125 32.5514" stroke="black" stroke-miterlimit="10" stroke-linecap="round"/>
</svg>
