<svg width="63" height="74" viewBox="0 0 63 74" fill="none" xmlns="http://www.w3.org/2000/svg">
<path d="M3.61162 72.1536C3.65361 54.1273 3.7096 36.1009 3.75159 18.0745H6.07487V7.75977H17.8452V18.1305H20.3224V72.3916C14.7522 72.3076 9.18191 72.2376 3.59766 72.1536H3.61162Z" stroke="#050505" stroke-miterlimit="10" stroke-linecap="round"/>
<path d="M12.1055 1V6.7522" stroke="#050505" stroke-miterlimit="10" stroke-linecap="round"/>
<path d="M23.2327 72.2806C23.2747 54.2542 23.3307 36.2279 23.3727 18.2015H25.6959V7.88672H37.4663V18.2575H39.9435V72.3506C41.0911 72.2666 42.2388 72.3506 43.3864 72.2806C43.4284 54.2542 43.4843 36.2279 43.5263 18.2015H45.8497V7.88672H57.6199V18.2575H60.0972V72.5185C47.809 72.4346 35.5069 72.3646 23.2188 72.2806H23.2327Z" stroke="#050505" stroke-miterlimit="10" stroke-linecap="round"/>
<path d="M31.7148 1.14062V6.89283" stroke="#050505" stroke-miterlimit="10" stroke-linecap="round"/>
<path d="M51.8672 1.14062V6.89283" stroke="#050505" stroke-miterlimit="10" stroke-linecap="round"/>
<path d="M16.6285 23.0996H7.86719V28.0261H16.6285V23.0996Z" stroke="#050505" stroke-miterlimit="10" stroke-linecap="round"/>
<path d="M16.6285 33.2031H7.86719V38.1296H16.6285V33.2031Z" stroke="#050505" stroke-miterlimit="10" stroke-linecap="round"/>
<path d="M16.6285 43.043H7.86719V47.9694H16.6285V43.043Z" stroke="#050505" stroke-miterlimit="10" stroke-linecap="round"/>
<path d="M16.6285 52.8945H7.86719V57.821H16.6285V52.8945Z" stroke="#050505" stroke-miterlimit="10" stroke-linecap="round"/>
<path d="M16.6285 62.75H7.86719V67.6765H16.6285V62.75Z" stroke="#050505" stroke-miterlimit="10" stroke-linecap="round"/>
<path d="M36.3082 23.0996H27.5469V28.0261H36.3082V23.0996Z" stroke="#050505" stroke-miterlimit="10" stroke-linecap="round"/>
<path d="M36.3082 33.2031H27.5469V38.1296H36.3082V33.2031Z" stroke="#050505" stroke-miterlimit="10" stroke-linecap="round"/>
<path d="M36.3082 43.043H27.5469V47.9694H36.3082V43.043Z" stroke="#050505" stroke-miterlimit="10" stroke-linecap="round"/>
<path d="M36.3082 52.8945H27.5469V57.821H36.3082V52.8945Z" stroke="#050505" stroke-miterlimit="10" stroke-linecap="round"/>
<path d="M36.3082 62.75H27.5469V67.6765H36.3082V62.75Z" stroke="#050505" stroke-miterlimit="10" stroke-linecap="round"/>
<path d="M56.2496 23.0996H47.4883V28.0261H56.2496V23.0996Z" stroke="#050505" stroke-miterlimit="10" stroke-linecap="round"/>
<path d="M56.2496 33.2031H47.4883V38.1296H56.2496V33.2031Z" stroke="#050505" stroke-miterlimit="10" stroke-linecap="round"/>
<path d="M56.2496 43.043H47.4883V47.9694H56.2496V43.043Z" stroke="#050505" stroke-miterlimit="10" stroke-linecap="round"/>
<path d="M56.2496 52.8945H47.4883V57.821H56.2496V52.8945Z" stroke="#050505" stroke-miterlimit="10" stroke-linecap="round"/>
<path d="M56.2496 62.75H47.4883V67.6765H56.2496V62.75Z" stroke="#050505" stroke-miterlimit="10" stroke-linecap="round"/>
<path d="M1.34375 72.2383C21.4835 72.3364 41.6232 72.4204 61.7629 72.5185" stroke="#050505" stroke-miterlimit="10" stroke-linecap="round"/>
</svg>
