<svg width="99" height="68" viewBox="0 0 99 68" fill="none" xmlns="http://www.w3.org/2000/svg">
<path d="M66.0953 42.4141H32.9805V66.7213H66.0953V42.4141Z" stroke="black" stroke-miterlimit="10" stroke-linecap="round"/>
<path d="M57.9249 42.6875H40.1094V61.889H57.9249V42.6875Z" stroke="black" stroke-miterlimit="10" stroke-linecap="round"/>
<path d="M66.1146 62.5469H33.3828V66.7227H66.1146V62.5469Z" stroke="black" stroke-miterlimit="10" stroke-linecap="round"/>
<path d="M66.2047 38.5491H32.9805V42.4149H66.2047V38.5491Z" stroke="black" stroke-miterlimit="10" stroke-linecap="round"/>
<path d="M59.0205 33.043H39.8008V38.5317H59.0205V33.043Z" stroke="black" stroke-miterlimit="10" stroke-linecap="round"/>
<path d="M37.7592 34.0625H33.0547V38.1289H37.7592V34.0625Z" stroke="black" stroke-miterlimit="10" stroke-linecap="round"/>
<path d="M65.7125 33.7539H61.0078V37.8203H65.7125V33.7539Z" stroke="black" stroke-miterlimit="10" stroke-linecap="round"/>
<path d="M31.3946 31.7285H38.8892C39.0168 31.7285 39.108 31.8197 39.108 31.9473V33.6979C39.108 33.8255 39.0168 33.9167 38.8892 33.9167H31.3946C31.2669 33.9167 31.1758 33.8255 31.1758 33.6979V31.9473C31.1758 31.8197 31.2669 31.7285 31.3946 31.7285Z" stroke="black" stroke-miterlimit="10" stroke-linecap="round"/>
<path d="M60.2592 31.5664H67.2796C67.389 31.5664 67.4801 31.6576 67.4801 31.767V33.554C67.4801 33.6634 67.389 33.7546 67.2796 33.7546H60.2592C60.1497 33.7546 60.0586 33.6634 60.0586 33.554V31.767C60.0586 31.6576 60.1497 31.5664 60.2592 31.5664Z" stroke="black" stroke-miterlimit="10" stroke-linecap="round"/>
<path d="M32.2886 31.4204C32.2522 31.1287 32.161 30.144 32.781 29.1958C32.9269 28.9769 33.638 27.9011 34.9145 27.8099C36.2821 27.7187 37.1391 28.8493 37.285 29.0134C38.0873 30.0528 37.9415 31.2381 37.905 31.4569" stroke="black" stroke-miterlimit="10" stroke-linecap="round"/>
<path d="M60.6457 30.7809C60.6092 30.4891 60.5911 29.7233 61.0469 28.9574C61.1564 28.7751 61.8675 27.6627 63.1804 27.5716C64.5845 27.4804 65.4415 28.6292 65.5509 28.7751C66.1709 29.6321 66.1163 30.5621 66.0798 30.8174" stroke="black" stroke-miterlimit="10" stroke-linecap="round"/>
<path d="M35.1135 27.2817C35.476 27.2817 35.77 26.9878 35.77 26.6252C35.77 26.2627 35.476 25.9688 35.1135 25.9688C34.7509 25.9688 34.457 26.2627 34.457 26.6252C34.457 26.9878 34.7509 27.2817 35.1135 27.2817Z" stroke="black" stroke-miterlimit="10" stroke-linecap="round"/>
<path d="M64.1645 26.6252C64.1645 26.9899 63.8727 27.2817 63.508 27.2817C63.1433 27.2817 62.8516 26.9899 62.8516 26.6252C62.8516 26.2605 63.1433 25.9688 63.508 25.9688C63.8727 25.9688 64.1645 26.2605 64.1645 26.6252Z" stroke="black" stroke-miterlimit="10" stroke-linecap="round"/>
<path d="M42.8281 32.2201V24.0508" stroke="black" stroke-miterlimit="10" stroke-linecap="round"/>
<path d="M45.2344 32.2201V24.0508" stroke="black" stroke-miterlimit="10" stroke-linecap="round"/>
<path d="M48.082 32.2201V24.0508" stroke="black" stroke-miterlimit="10" stroke-linecap="round"/>
<path d="M51.125 32.2201V24.0508" stroke="black" stroke-miterlimit="10" stroke-linecap="round"/>
<path d="M53.8398 32.2201V24.0508" stroke="black" stroke-miterlimit="10" stroke-linecap="round"/>
<path d="M56.2891 32.4761C56.2891 29.5221 56.3072 26.568 56.3255 23.5957" stroke="black" stroke-miterlimit="10" stroke-linecap="round"/>
<path d="M39.0358 23.8711C39.0905 24.3452 39.127 25.1111 38.8535 26.0046C38.4341 27.3722 37.577 28.1928 37.1758 28.5393" stroke="black" stroke-miterlimit="10" stroke-linecap="round"/>
<path d="M60.5174 23.834C60.408 24.2534 60.2073 25.3657 60.6997 26.5875C61.0097 27.3533 61.4473 27.8639 61.7573 28.1374" stroke="black" stroke-miterlimit="10" stroke-linecap="round"/>
<path d="M37.4311 20.6621H62.3219C62.4678 20.6621 62.5771 20.7715 62.5771 20.9174V23.3427C62.5771 23.4885 62.4678 23.5979 62.3219 23.5979H37.4311C37.2852 23.5979 37.1758 23.4885 37.1758 23.3427V20.9174C37.1758 20.7715 37.2852 20.6621 37.4311 20.6621Z" stroke="black" stroke-miterlimit="10" stroke-linecap="round"/>
<path d="M39.6355 16.959H59.8217C59.9493 16.959 60.0587 17.0684 60.0587 17.196V20.4236C60.0587 20.5513 59.9493 20.6607 59.8217 20.6607H39.6355C39.5079 20.6607 39.3984 20.5513 39.3984 20.4236V17.196C39.3984 17.0684 39.5079 16.959 39.6355 16.959Z" stroke="black" stroke-miterlimit="10" stroke-linecap="round"/>
<path d="M39.9297 16.3742C40.0026 15.2254 40.2761 13.2743 41.4979 11.2866C42.0085 10.4478 43.7956 7.60316 47.3879 6.65494C49.5761 6.07142 51.4178 6.43612 52.2019 6.65494C56.323 7.74904 58.1829 11.2866 58.5294 11.9613C59.5141 13.8578 59.7329 15.6448 59.7694 16.7389" stroke="black" stroke-miterlimit="10" stroke-linecap="round"/>
<path d="M48.3165 2.95312H51.1246C51.2523 2.95312 51.3434 3.0443 51.3434 3.17194V5.98014C51.3434 6.10778 51.2523 6.19895 51.1246 6.19895H48.3165C48.1888 6.19895 48.0977 6.10778 48.0977 5.98014V3.17194C48.0977 3.0443 48.1888 2.95312 48.3165 2.95312Z" stroke="black" stroke-miterlimit="10" stroke-linecap="round"/>
<path d="M48.3516 2.38881C48.4063 1.62294 48.9898 1.03943 49.6463 1.00296C50.4122 0.948252 51.1598 1.65941 51.1233 2.57117" stroke="black" stroke-miterlimit="10" stroke-linecap="round"/>
<path d="M32.7952 41.3945H13.5391V64.0242H32.7952V41.3945Z" stroke="black" stroke-miterlimit="10" stroke-linecap="round"/>
<path d="M33.0505 42.123H13.5391V61.2516H33.0505V42.123Z" stroke="black" stroke-miterlimit="10" stroke-linecap="round"/>
<path d="M13.0703 52.3348C19.6531 52.2983 26.236 52.2618 32.8189 52.207" stroke="black" stroke-miterlimit="10" stroke-linecap="round"/>
<path d="M16.2044 46.0801H18.3015C18.3744 46.0801 18.4474 46.153 18.4474 46.226V49.8C18.4474 49.873 18.3744 49.9459 18.3015 49.9459H16.2044C16.1315 49.9459 16.0586 49.873 16.0586 49.8V46.226C16.0586 46.153 16.1315 46.0801 16.2044 46.0801Z" stroke="black" stroke-miterlimit="10" stroke-linecap="round"/>
<path d="M21.7475 46.0801H23.8444C23.9174 46.0801 23.9903 46.153 23.9903 46.226V49.8C23.9903 49.873 23.9174 49.9459 23.8444 49.9459H21.7475C21.6745 49.9459 21.6016 49.873 21.6016 49.8V46.226C21.6016 46.153 21.6745 46.0801 21.7475 46.0801Z" stroke="black" stroke-miterlimit="10" stroke-linecap="round"/>
<path d="M27.2358 46.0801H29.3327C29.4057 46.0801 29.4786 46.153 29.4786 46.226V49.8C29.4786 49.873 29.4057 49.9459 29.3327 49.9459H27.2358C27.1628 49.9459 27.0898 49.873 27.0898 49.8V46.226C27.0898 46.153 27.1628 46.0801 27.2358 46.0801Z" stroke="black" stroke-miterlimit="10" stroke-linecap="round"/>
<path d="M21.8764 54.5957H23.9733C24.0463 54.5957 24.1193 54.6686 24.1193 54.7416V58.3156C24.1193 58.3886 24.0463 58.4615 23.9733 58.4615H21.8764C21.8034 58.4615 21.7305 58.3886 21.7305 58.3156V54.7416C21.7305 54.6686 21.8034 54.5957 21.8764 54.5957Z" stroke="black" stroke-miterlimit="10" stroke-linecap="round"/>
<path d="M1.4349 35.2849H13.4518C13.5065 35.2849 13.543 35.3214 13.543 35.3761V65.245C13.543 65.2997 13.5065 65.3362 13.4518 65.3362H1.4349C1.3802 65.3362 1.34375 65.2997 1.34375 65.245V35.3761C1.34375 35.3214 1.3802 35.2849 1.4349 35.2849Z" stroke="black" stroke-miterlimit="10" stroke-linecap="round"/>
<path d="M1.70703 39.478C5.42697 39.4415 9.12865 39.4232 12.8486 39.3867" stroke="black" stroke-miterlimit="10" stroke-linecap="round"/>
<path d="M1.89062 43.7097L13.0687 43.6367" stroke="black" stroke-miterlimit="10" stroke-linecap="round"/>
<path d="M1.60156 52.3907C5.43091 52.3725 9.24199 52.3542 13.0713 52.3359" stroke="black" stroke-miterlimit="10" stroke-linecap="round"/>
<path d="M1.34375 62.3647L13.0506 62.2734" stroke="black" stroke-miterlimit="10" stroke-linecap="round"/>
<path d="M4.29967 31.2734H9.4237C9.64252 31.2734 9.82481 31.4558 9.82481 31.6746V60.0118C9.82481 60.2306 9.64252 60.413 9.4237 60.413H4.29967C4.08085 60.413 3.89844 60.2306 3.89844 60.0118V31.6746C3.89844 31.4558 4.08085 31.2734 4.29967 31.2734Z" stroke="black" stroke-miterlimit="10" stroke-linecap="round"/>
<path d="M3.23959 28.9219H10.7342C10.7889 28.9219 10.8254 28.9584 10.8254 29.0131V31.2013C10.8254 31.256 10.7889 31.2924 10.7342 31.2924H3.23959C3.18489 31.2924 3.14844 31.256 3.14844 31.2013V29.0131C3.14844 28.9584 3.18489 28.9219 3.23959 28.9219Z" stroke="black" stroke-miterlimit="10" stroke-linecap="round"/>
<path d="M3.84036 28.4289C3.78566 28.1007 3.69451 27.1707 4.20509 26.2407C4.25979 26.1496 5.20797 24.4719 7.01324 24.5084C8.85497 24.5266 9.76668 26.2954 9.82139 26.4231C10.2226 27.2436 10.1862 28.0278 10.1315 28.3925" stroke="black" stroke-miterlimit="10" stroke-linecap="round"/>
<path d="M7.05231 24.3077C7.43501 24.3077 7.74525 23.9975 7.74525 23.6148C7.74525 23.2321 7.43501 22.9219 7.05231 22.9219C6.66962 22.9219 6.35938 23.2321 6.35938 23.6148C6.35938 23.9975 6.66962 24.3077 7.05231 24.3077Z" stroke="black" stroke-miterlimit="10" stroke-linecap="round"/>
<path d="M15.4935 41.1391C15.4753 40.9568 15.3841 40.1544 15.9311 39.4068C15.9858 39.3338 16.6605 38.4403 17.8093 38.4221C19.1222 38.4039 19.8698 39.5527 19.9975 39.7532C20.2892 40.2456 20.3805 40.7197 20.3987 40.9932" stroke="black" stroke-miterlimit="10" stroke-linecap="round"/>
<path d="M17.8495 37.9843C18.0814 37.9843 18.2694 37.7963 18.2694 37.5644C18.2694 37.3325 18.0814 37.1445 17.8495 37.1445C17.6176 37.1445 17.4297 37.3325 17.4297 37.5644C17.4297 37.7963 17.6176 37.9843 17.8495 37.9843Z" stroke="black" stroke-miterlimit="10" stroke-linecap="round"/>
<path d="M84.6231 64.3132H67.0811C66.5523 64.3132 66.1328 63.8938 66.1328 63.365V42.6318C66.1328 42.103 66.5523 41.6836 67.0811 41.6836H84.6231C85.1519 41.6836 85.5714 42.103 85.5714 42.6318V63.365C85.5714 63.8938 85.1519 64.3132 84.6231 64.3132Z" stroke="black" stroke-miterlimit="10" stroke-linecap="round"/>
<path d="M84.786 61.5426H66.8427C66.405 61.5426 66.0586 61.1961 66.0586 60.7585V43.1982C66.0586 42.7605 66.405 42.4141 66.8427 42.4141H84.786C85.2236 42.4141 85.5701 42.7605 85.5701 43.1982V60.7585C85.5701 61.1961 85.2236 61.5426 84.786 61.5426Z" stroke="black" stroke-miterlimit="10" stroke-linecap="round"/>
<path d="M86.0648 52.6083C79.482 52.5717 72.8992 52.5352 66.3164 52.4805" stroke="black" stroke-miterlimit="10" stroke-linecap="round"/>
<path d="M82.9265 50.2213H80.8294C80.7565 50.2213 80.6836 50.1484 80.6836 50.0754V46.5014C80.6836 46.4284 80.7565 46.3555 80.8294 46.3555H82.9265C82.9994 46.3555 83.0724 46.4284 83.0724 46.5014V50.0754C83.0724 50.1484 82.9994 50.2213 82.9265 50.2213Z" stroke="black" stroke-miterlimit="10" stroke-linecap="round"/>
<path d="M77.3836 50.2213H75.2865C75.2136 50.2213 75.1406 50.1484 75.1406 50.0754V46.5014C75.1406 46.4284 75.2136 46.3555 75.2865 46.3555H77.3836C77.4565 46.3555 77.5294 46.4284 77.5294 46.5014V50.0754C77.5294 50.1484 77.4565 50.2213 77.3836 50.2213Z" stroke="black" stroke-miterlimit="10" stroke-linecap="round"/>
<path d="M71.8757 50.2213H69.7786C69.7057 50.2213 69.6328 50.1484 69.6328 50.0754V46.5014C69.6328 46.4284 69.7057 46.3555 69.7786 46.3555H71.8757C71.9486 46.3555 72.0216 46.4284 72.0216 46.5014V50.0754C72.0216 50.1484 71.9486 50.2213 71.8757 50.2213Z" stroke="black" stroke-miterlimit="10" stroke-linecap="round"/>
<path d="M77.2194 58.7369H75.1224C75.0494 58.7369 74.9766 58.664 74.9766 58.591V55.017C74.9766 54.944 75.0494 54.8711 75.1224 54.8711H77.2194C77.2924 54.8711 77.3653 54.944 77.3653 55.017V58.591C77.3653 58.664 77.2924 58.7369 77.2194 58.7369Z" stroke="black" stroke-miterlimit="10" stroke-linecap="round"/>
<path d="M97.6783 65.6294H85.6615C85.6068 65.6294 85.5703 65.5929 85.5703 65.5382V35.6693C85.5703 35.6146 85.6068 35.5781 85.6615 35.5781H97.6783C97.733 35.5781 97.7695 35.6146 97.7695 35.6693V65.5382C97.7695 65.5929 97.733 65.6294 97.6783 65.6294Z" stroke="black" stroke-miterlimit="10" stroke-linecap="round"/>
<path d="M97.4617 39.4062C93.8694 39.461 90.2954 39.5158 86.7031 39.5888" stroke="black" stroke-miterlimit="10" stroke-linecap="round"/>
<path d="M97.2235 43.7266C93.6494 43.7813 90.0936 43.8544 86.5195 43.9091" stroke="black" stroke-miterlimit="10" stroke-linecap="round"/>
<path d="M97.4579 52.4082C93.7926 52.4447 90.1457 52.4812 86.4805 52.5177" stroke="black" stroke-miterlimit="10" stroke-linecap="round"/>
<path d="M97.7692 62.6562C94.0492 62.6745 90.3293 62.711 86.6094 62.7293" stroke="black" stroke-miterlimit="10" stroke-linecap="round"/>
<path d="M94.8337 60.7059H89.7097C89.4909 60.7059 89.3086 60.5236 89.3086 60.3048V31.9676C89.3086 31.7488 89.4909 31.5664 89.7097 31.5664H94.8337C95.0526 31.5664 95.235 31.7488 95.235 31.9676V60.3048C95.235 60.5236 95.0526 60.7059 94.8337 60.7059Z" stroke="black" stroke-miterlimit="10" stroke-linecap="round"/>
<path d="M95.8748 31.5659H88.3802C88.3255 31.5659 88.2891 31.5294 88.2891 31.4747V29.2865C88.2891 29.2318 88.3255 29.1953 88.3802 29.1953H95.8748C95.9295 29.1953 95.966 29.2318 95.966 29.2865V31.4747C95.966 31.5294 95.9295 31.5659 95.8748 31.5659Z" stroke="black" stroke-miterlimit="10" stroke-linecap="round"/>
<path d="M95.2696 28.7024C95.3243 28.3741 95.4154 27.4441 94.9049 26.5142C94.8502 26.423 93.9019 24.7454 92.0966 24.7818C90.2549 24.8001 89.3432 26.5689 89.2885 26.6965C88.8873 27.5171 88.9238 28.3012 88.9785 28.6659" stroke="black" stroke-miterlimit="10" stroke-linecap="round"/>
<path d="M92.0836 24.5812C92.4663 24.5812 92.7765 24.2709 92.7765 23.8882C92.7765 23.5055 92.4663 23.1953 92.0836 23.1953C91.7009 23.1953 91.3906 23.5055 91.3906 23.8882C91.3906 24.2709 91.7009 24.5812 92.0836 24.5812Z" stroke="black" stroke-miterlimit="10" stroke-linecap="round"/>
<path d="M83.6396 41.4125C83.6578 41.2302 83.749 40.4279 83.202 39.6802C83.1473 39.6073 82.4725 38.7138 81.3237 38.6955C80.0108 38.6773 79.2631 39.8261 79.1355 40.0267C78.8437 40.519 78.7526 40.9931 78.7344 41.2667" stroke="black" stroke-miterlimit="10" stroke-linecap="round"/>
<path d="M81.287 38.2578C81.5189 38.2578 81.707 38.0698 81.707 37.8379C81.707 37.606 81.5189 37.418 81.287 37.418C81.0551 37.418 80.8672 37.606 80.8672 37.8379C80.8672 38.0698 81.0551 38.2578 81.287 38.2578Z" stroke="black" stroke-miterlimit="10" stroke-linecap="round"/>
<path d="M44.668 61.7071C44.6315 57.9689 44.5951 54.2307 44.5586 50.4925C44.5586 49.9455 44.6133 48.6873 45.4703 47.6843C47.0021 45.9338 50.2296 45.9338 51.9984 47.5749C53.1654 48.669 53.3296 50.1461 53.366 50.6749L53.4754 61.8347C50.5396 61.78 47.6038 61.7253 44.668 61.6888V61.7071Z" stroke="black" stroke-miterlimit="10" stroke-linecap="round"/>
</svg>
