<svg width="16" height="10" viewBox="0 0 16 10" fill="none" xmlns="http://www.w3.org/2000/svg">
<path fill-rule="evenodd" clip-rule="evenodd" d="M16 4.98779C16 5.25301 15.8946 5.50736 15.7071 5.6949C15.5196 5.88244 15.2652 5.98779 15 5.98779L1 5.98779C0.734784 5.98779 0.480429 5.88244 0.292892 5.6949C0.105356 5.50736 0 5.25301 0 4.98779C0 4.72258 0.105356 4.46822 0.292892 4.28069C0.480429 4.09315 0.734784 3.98779 1 3.98779L15 3.98779C15.2652 3.98779 15.5196 4.09315 15.7071 4.28069C15.8946 4.46822 16 4.72258 16 4.98779Z" fill="#212121"/>
<path fill-rule="evenodd" clip-rule="evenodd" d="M5.70721 9.69476C5.51969 9.88223 5.26538 9.98755 5.00021 9.98755C4.73505 9.98755 4.48074 9.88223 4.29321 9.69476L0.293213 5.69476C0.105742 5.50723 0.000427246 5.25293 0.000427246 4.98776C0.000427246 4.7226 0.105742 4.46829 0.293213 4.28076L4.29321 0.280762C4.48182 0.0986037 4.73442 -0.00219068 4.99661 8.7738e-05C5.25881 0.00236616 5.50962 0.107536 5.69503 0.292944C5.88044 0.478352 5.98561 0.729165 5.98789 0.991362C5.99017 1.25356 5.88937 1.50616 5.70721 1.69476L2.41421 4.98776L5.70721 8.28076C5.89468 8.46829 6 8.7226 6 8.98776C6 9.25293 5.89468 9.50723 5.70721 9.69476Z" fill="#212121"/>
</svg>
