<svg width="18" height="20" viewBox="0 0 18 20" fill="none" xmlns="http://www.w3.org/2000/svg">
<path d="M15.0075 2.45408C13.3471 0.871539 11.1394 0 8.79123 0C6.44303 0 4.2353 0.871539 2.57489 2.45408C0.914442 4.03667 0 6.14075 0 8.37873C0 12.9062 4.49154 16.6719 6.90458 18.6949C7.23991 18.9761 7.52948 19.2189 7.76019 19.4242C8.04924 19.6816 8.42026 19.8103 8.79119 19.8103C9.1622 19.8103 9.53314 19.6816 9.82222 19.4242C10.0529 19.2188 10.3425 18.9761 10.6778 18.6949C13.0909 16.6718 17.5824 12.9062 17.5824 8.37873C17.5824 6.14075 16.668 4.03667 15.0075 2.45408ZM9.87362 17.8237C9.53094 18.111 9.23503 18.3591 8.99105 18.5763C8.87896 18.676 8.70342 18.676 8.59129 18.5763C8.34734 18.359 8.05139 18.1109 7.70872 17.8236C5.44017 15.9217 1.2175 12.3814 1.2175 8.37877C1.2175 4.3986 4.615 1.16049 8.79115 1.16049C12.9673 1.16049 16.3648 4.3986 16.3648 8.37877C16.3648 12.3814 12.1422 15.9217 9.87362 17.8237Z" fill="#65626C"/>
<path d="M8.78581 4.37036C6.64957 4.37036 4.91162 6.02673 4.91162 8.06275C4.91162 10.0988 6.64957 11.7551 8.78581 11.7551C10.9221 11.7551 12.66 10.0988 12.66 8.06275C12.66 6.02673 10.9221 4.37036 8.78581 4.37036ZM8.78581 10.5946C7.32096 10.5946 6.1292 9.4588 6.1292 8.06271C6.1292 6.66662 7.32096 5.53078 8.78581 5.53078C10.2507 5.53078 11.4424 6.66662 11.4424 8.06271C11.4424 9.4588 10.2507 10.5946 8.78581 10.5946Z" fill="#65626C"/>
</svg>
