<svg width="67" height="66" viewBox="0 0 67 66" fill="none" xmlns="http://www.w3.org/2000/svg">
<path d="M4.40001 18.9258H19.1844C19.7271 18.9258 20.1548 19.3534 20.1548 19.8961V64.3645C20.1548 64.9072 19.7271 65.3348 19.1844 65.3348H4.40001C3.85731 65.3348 3.42969 64.9072 3.42969 64.3645V19.8961C3.42969 19.3534 3.85731 18.9258 4.40001 18.9258Z" stroke="black" stroke-miterlimit="10" stroke-linecap="round"/>
<path d="M47.1421 18.9258H61.9265C62.4692 18.9258 62.8968 19.3534 62.8968 19.8961V64.3645C62.8968 64.9072 62.4692 65.3348 61.9265 65.3348H47.1421C46.5994 65.3348 46.1719 64.9072 46.1719 64.3645V19.8961C46.1719 19.3534 46.5994 18.9258 47.1421 18.9258Z" stroke="black" stroke-miterlimit="10" stroke-linecap="round"/>
<path d="M9.83385 23.6953H13.863C14.0932 23.6953 14.2906 23.8927 14.2906 24.1229V28.152C14.2906 28.3823 14.0932 28.5796 13.863 28.5796H9.83385C9.60361 28.5796 9.40625 28.3823 9.40625 28.152V24.1229C9.40625 23.8927 9.60361 23.6953 9.83385 23.6953Z" stroke="black" stroke-miterlimit="10" stroke-linecap="round"/>
<path d="M52.5213 23.332H56.5505C56.7807 23.332 56.9781 23.5294 56.9781 23.7596V27.7887C56.9781 28.019 56.7807 28.2163 56.5505 28.2163H52.5213C52.2911 28.2163 52.0938 28.019 52.0938 27.7887V23.7596C52.0938 23.5294 52.2911 23.332 52.5213 23.332Z" stroke="black" stroke-miterlimit="10" stroke-linecap="round"/>
<path d="M8.1875 53.756V47.8028C8.56574 46.0925 10.0294 44.8426 11.7233 44.7439C13.5323 44.6453 15.1932 45.8458 15.6701 47.6383V53.6738" stroke="black" stroke-miterlimit="10" stroke-linecap="round"/>
<path d="M50.7969 53.756V47.8028C51.1751 46.0925 52.6387 44.8426 54.3326 44.7439C56.1416 44.6453 57.8026 45.8458 58.2795 47.6383V53.6738" stroke="black" stroke-miterlimit="10" stroke-linecap="round"/>
<path d="M20.5664 38.0842C20.7309 37.7882 24.7929 30.914 32.7196 30.8482C38.2124 30.7989 43.2939 34.0386 45.6785 39.1367" stroke="black" stroke-miterlimit="10" stroke-linecap="round"/>
<path d="M61.9286 18.9246H4.40257C3.38296 17.2307 2.36337 15.5533 1.34375 13.8594H65.3658C64.2146 15.5533 63.0634 17.2307 61.9286 18.9246Z" stroke="black" stroke-miterlimit="10" stroke-linecap="round"/>
<path d="M1.88648 7H64.823C65.1191 7 65.3658 7.24668 65.3658 7.5427V13.7426C65.3658 14.0386 65.1191 14.2853 64.823 14.2853H1.88648C1.59046 14.2853 1.34375 14.0386 1.34375 13.7426V7.5427C1.34375 7.24668 1.59046 7 1.88648 7Z" stroke="black" stroke-miterlimit="10" stroke-linecap="round"/>
<path d="M6.32639 1H59.6261C59.955 1 60.2181 1.26312 60.2181 1.59203V6.41054C60.2181 6.73945 59.955 7.00258 59.6261 7.00258H6.32639C5.99748 7.00258 5.73438 6.73945 5.73438 6.41054V1.59203C5.73438 1.26312 5.99748 1 6.32639 1Z" stroke="black" stroke-miterlimit="10" stroke-linecap="round"/>
<path d="M9.32031 7.60938V13.6777" stroke="black" stroke-miterlimit="10" stroke-linecap="round"/>
<path d="M19.0234 7.60938V13.6777" stroke="black" stroke-miterlimit="10" stroke-linecap="round"/>
<path d="M28.5273 7.47876V13.5471" stroke="black" stroke-miterlimit="10" stroke-linecap="round"/>
<path d="M37.8516 6.95312V13.0215" stroke="black" stroke-miterlimit="10" stroke-linecap="round"/>
<path d="M47.5703 6.95312V13.0215" stroke="black" stroke-miterlimit="10" stroke-linecap="round"/>
<path d="M56.9766 7.60938V13.6777" stroke="black" stroke-miterlimit="10" stroke-linecap="round"/>
<path d="M4.55078 33.3789H19.4667" stroke="black" stroke-miterlimit="10" stroke-linecap="round"/>
<path d="M4.55078 54.7266H19.4667" stroke="black" stroke-miterlimit="10" stroke-linecap="round"/>
<path d="M47.0781 33.3789H61.9941" stroke="black" stroke-miterlimit="10" stroke-linecap="round"/>
<path d="M47.5703 54.7266H62.4863" stroke="black" stroke-miterlimit="10" stroke-linecap="round"/>
</svg>
