<svg width="33" height="32" viewBox="0 0 33 32" fill="none" xmlns="http://www.w3.org/2000/svg">
<path d="M15.7683 6.23504C15.8473 6.44946 16.0391 6.57359 16.2535 6.57359C16.3099 6.57359 16.3663 6.57359 16.434 6.53973C16.7049 6.43816 16.8403 6.14475 16.7387 5.88519C16.4453 5.07262 16.1519 3.79735 16.4453 2.35279C16.5469 1.83366 16.7274 1.32581 16.9644 0.840531C17.0885 0.580963 16.987 0.276234 16.7274 0.152093C16.4679 0.0279514 16.1632 0.129546 16.0391 0.389115C15.7683 0.953394 15.5652 1.55153 15.441 2.14966C15.4297 2.20609 15.4185 2.26252 15.4072 2.33024C15.2153 2.21738 15.0009 2.0255 14.8881 1.74336C14.7076 1.28065 14.8768 0.851821 14.9332 0.738965C15.0574 0.479396 14.9445 0.174668 14.685 0.0505266C14.4254 -0.0736147 14.1208 0.0392424 13.9966 0.298811C13.8951 0.513237 13.5904 1.28065 13.9289 2.12707C14.2336 2.8832 14.8542 3.24436 15.2943 3.41364C15.2718 4.36163 15.4297 5.32092 15.7683 6.24633V6.23504Z" fill="#EABBCB"/>
<path d="M9.37136 8.3337C8.59274 7.97256 7.48689 7.27286 6.66314 6.04273C6.36975 5.60259 6.13278 5.11733 5.95223 4.60947C5.86195 4.33862 5.56856 4.2032 5.29774 4.29348C5.02692 4.38376 4.89151 4.67717 4.98178 4.94803C5.1849 5.54616 5.467 6.09917 5.80553 6.61831C5.83938 6.66345 5.87324 6.71988 5.90709 6.76502C5.6814 6.82145 5.41058 6.83273 5.12848 6.71987C4.67711 6.52802 4.49656 6.09916 4.45142 5.97502C4.36115 5.70417 4.05647 5.56874 3.79693 5.65903C3.52611 5.74931 3.3907 6.05404 3.48098 6.31361C3.55997 6.53932 3.88721 7.29546 4.72224 7.65659C5.01563 7.78074 5.30902 7.82587 5.56856 7.82587C5.9748 7.82587 6.33589 7.713 6.59543 7.60015C7.24992 8.28857 8.03981 8.85286 8.93127 9.27042C8.99898 9.30428 9.07797 9.31558 9.14567 9.31558C9.33751 9.31558 9.52934 9.20271 9.60833 9.02214C9.73246 8.76257 9.60833 8.45784 9.36007 8.3337H9.37136Z" fill="#EABBCB"/>
<path d="M6.23429 16.2455C6.50512 16.1439 6.64053 15.8505 6.53897 15.5909C6.43741 15.3201 6.14402 15.1846 5.88448 15.2862C5.07201 15.5796 3.7969 15.8731 2.35251 15.5797C1.83343 15.4781 1.32564 15.2975 0.84042 15.0605C0.580882 14.9364 0.276206 15.0379 0.152079 15.2975C0.0279524 15.5571 0.12951 15.8618 0.389048 15.9859C0.95326 16.2568 1.55133 16.4599 2.14939 16.5841C2.20581 16.5953 2.26224 16.6066 2.32994 16.6179C2.2171 16.8098 2.02527 17.0242 1.74316 17.1371C1.2805 17.3176 0.851704 17.1483 0.738861 17.0919C0.479323 16.9678 0.174648 17.0806 0.0505207 17.3402C-0.0736061 17.5998 0.0392378 17.9045 0.298776 18.0286C0.445471 18.0963 0.829133 18.2543 1.31436 18.2543C1.56261 18.2543 1.84472 18.2092 2.12682 18.0963C2.88287 17.7916 3.24396 17.1709 3.41323 16.7308C3.46965 16.7308 3.52607 16.7308 3.58249 16.7308C4.47395 16.7308 5.37669 16.5728 6.24558 16.2568L6.23429 16.2455Z" fill="#EABBCB"/>
<path d="M9.00986 22.3944C8.75032 22.2703 8.44565 22.3944 8.32152 22.6427C7.96043 23.4214 7.2608 24.5274 6.03082 25.3512C5.59073 25.6446 5.10551 25.8816 4.59772 26.0622C4.32689 26.1525 4.19148 26.4459 4.28176 26.7168C4.36075 26.9312 4.55258 27.0666 4.76698 27.0666C4.8234 27.0666 4.87983 27.0666 4.93625 27.0441C5.53431 26.8409 6.08724 26.5588 6.60632 26.2202C6.65145 26.1863 6.70787 26.1525 6.75301 26.1186C6.80943 26.3443 6.82072 26.6152 6.70788 26.8973C6.51604 27.3488 6.08724 27.5293 5.96311 27.5745C5.69229 27.6648 5.55688 27.9695 5.64715 28.229C5.72614 28.4435 5.91797 28.5676 6.13238 28.5676C6.1888 28.5676 6.24522 28.5676 6.30164 28.5338C6.52733 28.4548 7.28337 28.1275 7.64447 27.2923C7.97171 26.5362 7.77988 25.8478 7.58805 25.4189C8.27639 24.7644 8.8406 23.9744 9.25812 23.0828C9.38224 22.8232 9.25811 22.5185 9.00986 22.3944Z" fill="#EABBCB"/>
<path d="M16.7076 28.6028C16.7302 27.6548 16.5722 26.6955 16.2336 25.7701C16.1321 25.4992 15.8387 25.3638 15.5792 25.4654C15.3083 25.5669 15.1729 25.8603 15.2745 26.1199C15.5679 26.9325 15.8613 28.2078 15.5679 29.6523C15.4663 30.1714 15.2858 30.6793 15.0488 31.1646C14.9247 31.4241 15.0262 31.7288 15.2858 31.853C15.3535 31.8868 15.4325 31.9094 15.5115 31.9094C15.7033 31.9094 15.8838 31.8078 15.9741 31.616C16.2449 31.0517 16.448 30.4536 16.5722 29.8554C16.5835 29.799 16.5947 29.7426 16.606 29.6749C16.7979 29.7877 17.0123 29.9796 17.1251 30.2617C17.3057 30.7244 17.1364 31.1533 17.08 31.2661C16.9558 31.5257 17.0687 31.8304 17.3282 31.9546C17.3959 31.9884 17.4749 31.9997 17.5426 31.9997C17.7345 31.9997 17.915 31.8869 18.0053 31.7063C18.1068 31.4919 18.4115 30.7244 18.073 29.878C17.7683 29.1219 17.1477 28.7607 16.7076 28.5915V28.6028Z" fill="#EABBCB"/>
<path d="M30.2588 14.8902C30.7214 14.7096 31.1502 14.8789 31.2631 14.9353C31.5226 15.0595 31.8273 14.9466 31.9514 14.687C32.0755 14.4275 31.9627 14.1228 31.7032 13.9986C31.4888 13.8971 30.7214 13.5923 29.8751 13.9309C29.1191 14.2356 28.758 14.8563 28.5887 15.2965C27.6408 15.2739 26.6817 15.4319 25.7564 15.7704C25.4855 15.872 25.3501 16.1654 25.4517 16.425C25.5532 16.6959 25.8466 16.8313 26.1062 16.7297C26.9186 16.4363 28.1938 16.1429 29.6382 16.4363C30.1572 16.5379 30.665 16.7184 31.1502 16.9554C31.2179 16.9893 31.2969 17.0119 31.3759 17.0119C31.5678 17.0119 31.7483 16.9103 31.8386 16.7185C31.9627 16.4589 31.8611 16.1542 31.6016 16.03C31.0374 15.7592 30.4393 15.556 29.8413 15.4319C29.7848 15.4206 29.7284 15.4093 29.6607 15.398C29.7736 15.2062 29.9654 14.9918 30.2475 14.8789L30.2588 14.8902Z" fill="#EABBCB"/>
<path d="M27.3927 5.95252C27.6635 5.86224 27.7989 5.5688 27.7086 5.29794C27.6184 5.02709 27.325 4.89166 27.0542 4.98195C26.4561 5.18509 25.9032 5.46724 25.3841 5.80581C25.339 5.83966 25.2825 5.87352 25.2374 5.90737C25.181 5.68166 25.1697 5.4108 25.2825 5.12866C25.4744 4.67724 25.9032 4.49667 26.0273 4.45152C26.2981 4.36124 26.4335 4.05654 26.3433 3.79697C26.253 3.52612 25.9483 3.3907 25.6888 3.48098C25.4631 3.55998 24.707 3.88727 24.3459 4.7224C24.0413 5.42211 24.188 6.12182 24.4024 6.59581C23.7253 7.25037 23.1498 8.04034 22.7323 8.9319C22.6082 9.19147 22.7323 9.4962 22.9805 9.62034C23.0482 9.65419 23.1272 9.66549 23.1949 9.66549C23.3868 9.66549 23.5786 9.55262 23.6576 9.37205C24.0187 8.59335 24.7183 7.48737 25.9483 6.66352C26.3884 6.3701 26.8736 6.13309 27.3814 5.95252H27.3927Z" fill="#EABBCB"/>
<path d="M26.9392 16.4594L24.6598 19.3824C24.5808 19.484 24.5244 19.6081 24.5131 19.7435L24.0617 23.4226C24.0166 23.7612 23.757 24.0207 23.4185 24.0659L19.7398 24.5173C19.6044 24.5286 19.4803 24.585 19.3787 24.664L16.4561 26.9437C16.1853 27.1469 15.8242 27.1469 15.5534 26.9437L12.6308 24.664C12.5292 24.585 12.4051 24.5286 12.2697 24.5173L8.59099 24.0659C8.25247 24.0207 7.99293 23.7612 7.94779 23.4226L7.49642 19.7435C7.48513 19.6081 7.42872 19.484 7.34973 19.3824L5.07031 16.4594C4.86719 16.1886 4.86719 15.8274 5.07031 15.5566L7.34973 12.6336C7.42872 12.532 7.48513 12.4079 7.49642 12.2725L7.94779 8.59337C7.99293 8.2548 8.25247 7.99523 8.59099 7.95009L12.2697 7.49867C12.4051 7.48738 12.5292 7.43095 12.6308 7.35195L15.5534 5.07228C15.8242 4.86914 16.1853 4.86914 16.4561 5.07228L19.3787 7.35195C19.4803 7.43095 19.6044 7.48738 19.7398 7.49867L23.4185 7.95009C23.757 7.99523 24.0166 8.2548 24.0617 8.59337L24.5131 12.2725C24.5244 12.4079 24.5808 12.532 24.6598 12.6336L26.9392 15.5566C27.1423 15.8274 27.1423 16.1886 26.9392 16.4594Z" fill="#CB1B5B" stroke="#EABBCB" stroke-width="0.5" stroke-miterlimit="10"/>
<path d="M15.9933 19.6301C17.9939 19.6301 19.6156 18.0082 19.6156 16.0075C19.6156 14.0067 17.9939 12.3848 15.9933 12.3848C13.9928 12.3848 12.3711 14.0067 12.3711 16.0075C12.3711 18.0082 13.9928 19.6301 15.9933 19.6301Z" fill="#EABBCB"/>
<path d="M20.9994 12.0474C20.7625 12.0474 20.5481 11.8782 20.4917 11.6412C20.4578 11.4493 20.3788 11.28 20.266 11.1333C19.9839 10.7722 19.5663 10.6706 19.3971 10.648C19.115 10.6029 18.9231 10.3433 18.957 10.0612C19.0021 9.77904 19.2617 9.5872 19.5438 9.62106C19.8372 9.6662 20.5706 9.83548 21.0784 10.5013C21.2816 10.7722 21.4282 11.0769 21.496 11.4268C21.5524 11.7089 21.3718 11.9797 21.101 12.0362C21.0672 12.0362 21.0333 12.0362 20.9994 12.0362V12.0474Z" fill="#EABBCB"/>
<path d="M20.8882 19.7775C20.7866 19.7775 20.6964 19.7775 20.5948 19.755C20.3127 19.7211 20.1096 19.4615 20.1547 19.1794C20.1886 18.8973 20.4481 18.6941 20.7302 18.7392C20.9221 18.7618 21.1026 18.7393 21.2832 18.6828C21.7232 18.5361 21.9489 18.175 22.0279 18.017C22.1633 17.7687 22.468 17.6671 22.7163 17.7913C22.9645 17.9154 23.0661 18.2314 22.9419 18.4797C22.8065 18.7393 22.4116 19.3825 21.6217 19.6421C21.396 19.7211 21.1477 19.755 20.9108 19.755L20.8882 19.7775Z" fill="#EABBCB"/>
<path d="M15.8753 22.8023C15.7173 22.8023 15.5593 22.791 15.39 22.7459C15.0628 22.6669 14.7468 22.5201 14.476 22.3057C14.2503 22.1252 14.2165 21.8092 14.397 21.5835C14.5776 21.3578 14.8935 21.3239 15.1192 21.5045C15.2659 21.6286 15.4352 21.7076 15.6157 21.7414C16.0671 21.843 16.4508 21.6512 16.5862 21.5609C16.8344 21.4142 17.1504 21.4932 17.2971 21.7302C17.4438 21.9672 17.3648 22.2944 17.1278 22.4411C16.9247 22.5653 16.462 22.8023 15.8753 22.8023Z" fill="#EABBCB"/>
<path d="M9.52283 17.2625C9.37613 17.2625 9.22944 17.1948 9.12788 17.0819C8.93605 16.8562 8.50724 16.2468 8.56367 15.4117C8.58623 15.0731 8.68779 14.7458 8.86834 14.4411C9.01504 14.1928 9.31971 14.1138 9.56796 14.2492C9.81622 14.396 9.89521 14.7007 9.75979 14.9489C9.65824 15.1182 9.6131 15.2988 9.59053 15.4794C9.55668 15.9421 9.80494 16.2919 9.91778 16.4161C10.0983 16.6305 10.0758 16.9578 9.85007 17.1384C9.74851 17.2174 9.63567 17.2625 9.52283 17.2625Z" fill="#EABBCB"/>
<path d="M13.0882 11.0436C12.8173 11.0436 12.5465 10.9985 12.287 10.8969C12.0162 10.7953 11.892 10.5019 11.9823 10.2311C12.0839 9.96021 12.3772 9.83604 12.6481 9.92633C12.8286 9.99404 13.0092 10.0166 13.201 10.0053C13.6637 9.96019 13.9683 9.66675 14.0699 9.53132C14.2504 9.3169 14.5777 9.29434 14.7921 9.47491C15.0065 9.65548 15.029 9.98278 14.8485 10.1972C14.6567 10.4229 14.1263 10.942 13.2913 11.021C13.2236 11.021 13.1559 11.021 13.0882 11.021V11.0436Z" fill="#EABBCB"/>
<path fill-rule="evenodd" clip-rule="evenodd" d="M24.4468 20.4219C21.7273 20.4219 19.5156 22.679 19.5156 25.4552C19.5156 28.2315 21.7273 30.4886 24.4468 30.4886C27.1664 30.4886 29.3781 28.2315 29.3781 25.4552C29.3781 22.679 27.1664 20.4219 24.4468 20.4219Z" fill="#F7E4EB"/>
<path d="M23.521 28.5012C23.442 28.5012 23.3743 28.4786 23.3066 28.4334C23.1486 28.3206 23.1035 28.0949 23.2276 27.9256L24.7284 25.8603L23.679 25.7023C23.5097 25.6798 23.363 25.5669 23.2953 25.4089C23.2276 25.2509 23.2502 25.0704 23.3517 24.9236L25.0782 22.5537C25.1911 22.3957 25.4167 22.3618 25.586 22.4747C25.744 22.5875 25.7891 22.8132 25.665 22.9825L24.1642 25.0478L25.2136 25.2058C25.3829 25.2284 25.5296 25.3412 25.5973 25.4992C25.665 25.6572 25.6424 25.8378 25.5409 25.9845L23.8144 28.3545C23.7467 28.456 23.6338 28.5012 23.521 28.5012Z" fill="#513C45"/>
</svg>
