<svg width="82" height="82" viewBox="0 0 82 82" fill="none" xmlns="http://www.w3.org/2000/svg">
<path d="M78.6678 51.4844V71.0307H3.83594V51.4844" stroke="black" stroke-linecap="round" stroke-linejoin="round"/>
<path d="M3.83594 41.8691H78.6678" stroke="black" stroke-linecap="round" stroke-linejoin="round"/>
<path d="M3.83716 46.6702H78.669M3.83716 46.6702C2.50446 46.6702 1.42969 47.745 1.42969 49.0777C1.42969 50.4104 2.50446 51.4851 3.83716 51.4851H78.669C80.0017 51.4851 81.0765 50.4104 81.0765 49.0777C81.0765 47.745 80.0017 46.6702 78.669 46.6702M3.83716 46.6702V37.0547H78.669V46.6702" stroke="black" stroke-linecap="round" stroke-linejoin="round"/>
<path d="M34.043 71.0307V51.4844" stroke="black" stroke-linecap="round" stroke-linejoin="round"/>
<path d="M38.8594 51.4844V71.0307" stroke="black" stroke-linecap="round" stroke-linejoin="round"/>
<path d="M24.4297 71.0307V51.4844" stroke="black" stroke-linecap="round" stroke-linejoin="round"/>
<path d="M29.2422 51.4844V71.0307" stroke="black" stroke-linecap="round" stroke-linejoin="round"/>
<path d="M58.0938 51.4844V71.0307" stroke="black" stroke-linecap="round" stroke-linejoin="round"/>
<path d="M53.2773 71.0307V51.4844" stroke="black" stroke-linecap="round" stroke-linejoin="round"/>
<path d="M43.6602 71.0307V51.4844" stroke="black" stroke-linecap="round" stroke-linejoin="round"/>
<path d="M48.4766 51.4844V71.0307" stroke="black" stroke-linecap="round" stroke-linejoin="round"/>
<path d="M24.4283 63.8242H3.83594" stroke="black" stroke-linecap="round" stroke-linejoin="round"/>
<path d="M78.6705 63.8223H58.0781" stroke="black" stroke-linecap="round" stroke-linejoin="round"/>
<path d="M67.6906 80.6482H14.8125V75.8477H67.6906V80.6482Z" stroke="black" stroke-linecap="round" stroke-linejoin="round"/>
<path d="M62.8906 71.0312V75.8318" stroke="black" stroke-linecap="round" stroke-linejoin="round"/>
<path d="M19.6289 75.8318V71.0312" stroke="black" stroke-linecap="round" stroke-linejoin="round"/>
<path d="M8.65234 63.8226V51.4844" stroke="black" stroke-linecap="round" stroke-linejoin="round"/>
<path d="M19.6289 51.4844V63.8226" stroke="black" stroke-linecap="round" stroke-linejoin="round"/>
<path d="M73.8672 63.8226V51.4844" stroke="black" stroke-linecap="round" stroke-linejoin="round"/>
<path d="M62.8906 51.4844V63.8226" stroke="black" stroke-linecap="round" stroke-linejoin="round"/>
<path d="M38.8594 58.6934H43.66" stroke="black" stroke-linecap="round" stroke-linejoin="round"/>
<path d="M53.2764 37.0537V25.0308C53.2764 18.3959 47.9026 13.0078 41.2534 13.0078C34.6043 13.0078 29.2305 18.3816 29.2305 25.0308V37.0537" stroke="black" stroke-linecap="round" stroke-linejoin="round"/>
<path d="M62.8915 29.8477H19.6289" stroke="black" stroke-linecap="round" stroke-linejoin="round"/>
<path d="M53.2738 25.0469H29.2422" stroke="black" stroke-linecap="round" stroke-linejoin="round"/>
<path d="M29.2457 29.8475C29.2457 27.1964 27.0962 25.0469 24.4451 25.0469C21.7941 25.0469 19.6445 27.1964 19.6445 29.8475V37.0555" stroke="black" stroke-linecap="round" stroke-linejoin="round"/>
<path d="M62.8941 37.0555V29.8475C62.8941 27.1964 60.7446 25.0469 58.0936 25.0469C55.4425 25.0469 53.293 27.1964 53.293 29.8475" stroke="black" stroke-linecap="round" stroke-linejoin="round"/>
<path d="M41.2539 13.023V1H50.8694V5.80059H41.2539" stroke="black" stroke-linecap="round" stroke-linejoin="round"/>
</svg>
