<svg width="67" height="67" viewBox="0 0 67 67" fill="none" xmlns="http://www.w3.org/2000/svg">
<path d="M1.09224 65.9865C0.984626 59.5969 0.971176 53.1132 1.05189 46.5622C1.05189 45.6475 1.07879 44.7328 1.09224 43.8315C1.98005 43.1321 2.89479 42.446 3.8095 41.76C8.34272 38.3702 12.849 35.3166 17.2746 32.5859C17.6109 41.9483 17.732 51.5259 17.5975 61.3053C17.5706 62.9464 17.5437 64.574 17.5168 66.2017C15.4856 66.0941 13.4678 65.973 11.4366 65.8654C7.9795 65.9192 4.5359 65.9596 1.07882 66.0134L1.09224 65.9865Z" stroke="#050505" stroke-width="1.23309" stroke-miterlimit="10"/>
<path d="M7.26562 65.6495V47.2207" stroke="#050505" stroke-width="1.23309" stroke-miterlimit="10" stroke-linecap="round"/>
<path d="M12.7812 65.6495V47.2207" stroke="#050505" stroke-width="1.23309" stroke-miterlimit="10" stroke-linecap="round"/>
<path d="M46.21 20.6523H23.8398V66.3343H46.21V20.6523Z" stroke="#050505" stroke-width="1.23309" stroke-miterlimit="10" stroke-linecap="round"/>
<path d="M24.2578 66.3336L45.3366 53.9042C38.557 50.4471 31.7908 46.9901 25.0111 43.533C31.7504 39.6185 38.5032 35.7041 45.2424 31.8031C38.3148 28.346 31.3872 24.9024 24.4462 21.4453" stroke="#050505" stroke-width="1.23309" stroke-miterlimit="10" stroke-linecap="round"/>
<path d="M23.8398 20.653C27.4987 16.9672 31.1441 13.2815 34.803 9.5957C38.3946 13.2815 41.9862 16.9672 45.5643 20.653" stroke="#050505" stroke-width="1.23309" stroke-miterlimit="10" stroke-linecap="round"/>
<path d="M34.8047 1V9.59562" stroke="#050505" stroke-width="1.23309" stroke-miterlimit="10" stroke-linecap="round"/>
<path d="M66.304 37.6699H52.1797V66.3355H66.304V37.6699Z" stroke="#050505" stroke-width="1.23309" stroke-miterlimit="10" stroke-linecap="round"/>
<path d="M52.7734 42.9414C56.9973 42.9414 61.2076 42.9414 65.4315 42.9414" stroke="#050505" stroke-width="1.23309" stroke-miterlimit="10" stroke-linecap="round"/>
<path d="M52.1797 48.3775C56.5918 48.3505 61.0175 48.3101 65.4296 48.2832" stroke="#050505" stroke-width="1.23309" stroke-miterlimit="10" stroke-linecap="round"/>
<path d="M53.0977 54.2559H65.2983" stroke="#050505" stroke-width="1.23309" stroke-miterlimit="10" stroke-linecap="round"/>
<path d="M52.7734 60.2266C57.0914 60.2266 61.4094 60.2266 65.7274 60.2266" stroke="#050505" stroke-width="1.23309" stroke-miterlimit="10" stroke-linecap="round"/>
<path d="M52.6797 37.669L58.6388 30.2168C60.8852 32.7054 63.1451 35.1805 65.3915 37.669" stroke="#050505" stroke-width="1.23309" stroke-miterlimit="10" stroke-linecap="round"/>
</svg>
