<svg width="36" height="20" viewBox="0 0 36 20" fill="none" xmlns="http://www.w3.org/2000/svg">
<path d="M20.6608 7.40063L24.2508 6.56064L26.2808 5.39062C25.5008 5.71062 24.6408 5.70063 23.8908 5.39062L23.3508 5.57065L18.5008 5.91064C17.9008 5.95064 17.4508 6.47065 17.4908 7.07065C17.4908 7.21065 17.5308 7.33062 17.5908 7.45062L18.3508 7.07065C19.1408 6.68065 20.0608 6.84064 20.6708 7.41064L20.6608 7.40063Z" fill="#CB1B5B"/>
<path d="M26.7299 14.9696L30.4398 12.7996L27.1898 15.4796C26.7798 15.8196 26.5798 16.3596 26.7098 16.8796C26.8598 17.4896 27.4099 17.8996 28.0299 17.8996H34.5099C35.2599 17.8996 35.8699 17.2496 35.8599 16.4996C35.8599 15.7496 35.2398 15.1496 34.4898 15.1596H31.8498C34.0898 13.3096 33.9798 13.4196 34.0299 13.3696C34.4499 12.9796 34.5599 12.3496 34.3199 11.8296L30.9299 4.36962C30.6199 3.69962 29.9099 3.32961 29.2199 3.41961C29.0599 3.43961 27.8799 3.95962 27.8799 3.95962L24.2798 7.31963L20.1499 8.28961C19.5799 8.41961 19.1899 8.96961 19.2999 9.54961C19.4099 10.1696 20.0098 10.5596 20.6198 10.4196L25.0498 9.37963C25.2298 9.33963 25.3898 9.24963 25.5298 9.12963L28.1799 6.76962L26.3099 9.28961L27.2798 11.3896L23.8899 13.9996C22.8599 14.7896 23.4199 16.4396 24.7199 16.4396H25.7699C25.8399 15.8196 26.1999 15.2896 26.7199 14.9796L26.7299 14.9696Z" fill="#CB1B5B"/>
<path d="M27.3018 1.41998C26.8918 0.529983 26.0018 0 25.0818 0C24.7418 0 24.3918 0.0699805 24.0518 0.22998C22.8218 0.79998 22.2918 2.24998 22.8618 3.47998C23.4318 4.70998 24.8918 5.23998 26.1118 4.66998C27.3418 4.09998 27.8718 2.64998 27.3018 1.41998Z" fill="#CB1B5B"/>
<path d="M2.93297 6.60031C4.391 6.60031 5.57297 5.41833 5.57297 3.9603C5.57297 2.50226 4.391 1.32031 2.93297 1.32031C1.47494 1.32031 0.292969 2.50226 0.292969 3.9603C0.292969 5.41833 1.47494 6.60031 2.93297 6.60031Z" fill="#CB1B5B"/>
<path d="M9.78151 15.1197C9.78151 15.1197 7.38151 8.72966 6.96151 7.59966C6.68151 6.81966 5.82151 6.40966 5.03151 6.68966L1.97151 7.78964C1.19151 8.06964 0.78151 8.92966 1.06151 9.71966L1.31151 10.3997L1.45151 10.1996L0.111511 13.0897C0.0315107 13.2597 -0.00848986 13.4496 0.00151014 13.6396L0.191511 18.6696C0.211511 19.3196 0.75151 19.8197 1.39151 19.8197C1.41151 19.8197 1.42151 19.8197 1.44151 19.8197C2.10151 19.7897 2.62151 19.2396 2.59151 18.5796L2.41151 13.8397L3.63151 11.2097L3.01151 13.6797L3.07151 15.2896L3.33151 15.9997C3.72151 17.0797 4.74151 17.7996 5.89151 17.7996C8.88151 17.7996 21.2215 17.8097 21.5815 17.8097C22.3215 17.8097 22.9215 17.2097 22.9215 16.4697C22.9215 15.7297 22.3215 15.1297 21.5815 15.1297C19.4715 15.1297 9.80151 15.1297 9.80151 15.1297L9.78151 15.1197Z" fill="#CB1B5B"/>
<path d="M19.7233 7.64027C19.3833 7.52027 19.0033 7.52027 18.6533 7.70027L12.6333 10.7103C12.5733 10.7403 12.5233 10.7703 12.4733 10.8003L9.61328 12.7603L10.2733 14.4603H11.8833L13.9233 13.0603L18.9833 10.5303C18.7933 10.3103 18.6633 10.0503 18.5933 9.76027C18.3833 8.86027 18.8833 7.9503 19.7233 7.6303V7.64027Z" fill="#CB1B5B"/>
</svg>
