<svg width="242" height="43" viewBox="0 0 242 43" fill="none" xmlns="http://www.w3.org/2000/svg">
<g clip-path="url(#clip0_29_767)">
<path d="M21.2747 30.6175L32.231 37.2303L29.3235 24.767L39.0034 16.3813L26.2564 15.2998L21.2747 3.54565L16.2929 15.2998L3.5459 16.3813L13.2258 24.767L10.3183 37.2303L21.2747 30.6175Z" fill="#F8A401"/>
</g>
<g clip-path="url(#clip1_29_767)">
<path d="M70.9153 30.6175L81.8717 37.2303L78.9641 24.767L88.644 16.3813L75.8971 15.2998L70.9153 3.54565L65.9335 15.2998L53.1865 16.3813L62.8664 24.767L59.9589 37.2303L70.9153 30.6175Z" fill="#F8A401"/>
</g>
<g clip-path="url(#clip2_29_767)">
<path d="M120.556 30.6175L131.512 37.2303L128.605 24.767L138.285 16.3813L125.538 15.2998L120.556 3.54565L115.574 15.2998L102.827 16.3813L112.507 24.767L109.6 37.2303L120.556 30.6175Z" fill="#F8A401"/>
</g>
<g clip-path="url(#clip3_29_767)">
<path d="M187.925 16.3813L175.178 15.2821L170.196 3.54565L165.214 15.2998L152.467 16.3813L162.147 24.767L159.24 37.2303L170.196 30.6175L181.152 37.2303L178.263 24.767L187.925 16.3813ZM170.196 27.3022V10.8144L173.228 17.9769L180.993 18.6506L175.107 23.7564L176.88 31.3443L170.196 27.3022Z" fill="#F8A401"/>
</g>
<g clip-path="url(#clip4_29_767)">
<path d="M237.565 16.3813L224.818 15.2821L219.837 3.54565L214.855 15.2998L202.108 16.3813L211.788 24.767L208.88 37.2303L219.837 30.6175L230.793 37.2303L227.903 24.767L237.565 16.3813ZM219.837 27.3022L213.171 31.3266L214.944 23.7387L209.058 18.6328L216.823 17.9591L219.837 10.8144L222.868 17.9769L230.633 18.6506L224.748 23.7564L226.52 31.3443L219.837 27.3022Z" fill="#F8A401"/>
</g>
<defs>
<clipPath id="clip0_29_767">
<rect width="42.549" height="42.549" fill="white"/>
</clipPath>
<clipPath id="clip1_29_767">
<rect width="42.549" height="42.549" fill="white" transform="translate(49.6406)"/>
</clipPath>
<clipPath id="clip2_29_767">
<rect width="42.549" height="42.549" fill="white" transform="translate(99.2812)"/>
</clipPath>
<clipPath id="clip3_29_767">
<rect width="42.549" height="42.549" fill="white" transform="translate(148.921)"/>
</clipPath>
<clipPath id="clip4_29_767">
<rect width="42.549" height="42.549" fill="white" transform="translate(198.562)"/>
</clipPath>
</defs>
</svg>
