<svg width="27" height="32" viewBox="0 0 27 32" fill="none" xmlns="http://www.w3.org/2000/svg">
<path d="M5.43172 8.6798C5.25172 9.7398 5.11172 10.9598 5.09172 12.3198C5.08172 13.1998 5.11172 14.0098 5.18172 14.7598C5.23172 15.2998 5.46172 16.9498 6.81172 18.3598C7.73172 19.3198 8.75172 19.7298 9.29172 19.8998C9.29172 20.2398 9.25172 21.2898 8.49172 22.2698C7.88172 23.0698 7.11172 23.3998 6.78172 23.5298C6.84172 24.1498 7.07172 25.5198 8.14172 26.5398C9.53172 27.8798 11.4317 27.7598 13.2417 27.6398C14.8417 27.5398 16.7817 27.3998 18.0417 25.8998C18.6717 25.1498 18.8917 24.2998 18.9817 23.7198C18.5717 23.7198 17.5617 23.6498 16.6217 22.9498C15.9117 22.4198 15.5717 21.7798 15.4217 21.4898C15.1117 20.8998 15.0017 20.3498 14.9517 19.9898C15.6017 19.6798 16.9117 18.9498 17.9117 17.4598C18.0717 17.2198 18.8117 16.0798 19.0717 14.4198C19.2017 13.5698 19.1517 12.9198 19.0717 11.9798C19.0117 11.1998 18.8217 9.4798 18.5617 8.8998C17.7517 7.0698 12.2617 7.02981 5.45172 8.68981L5.43172 8.6798Z" fill="#F7E4EB"/>
<path d="M0.0400009 31.6391C0.0300009 30.2391 0.01 28.8391 0 27.4391C0.15 26.9391 0.44 26.2292 1.07 25.5992C1.75 24.9192 2.51 24.6491 3.08 24.4391C3.74 24.2091 3.95 24.2391 5.22 23.9291C5.88 23.7691 6.41 23.6091 6.76 23.4991C6.87 23.6491 9.04 26.6091 12.67 26.3291C15.77 26.0891 17.44 23.6791 17.64 23.3691C18.88 23.4791 19.92 23.6292 20.68 23.7592C23.23 24.1892 23.76 24.5392 24.11 24.9192C24.71 25.5692 24.85 26.3891 24.88 26.9291L24.92 31.6391H0.0300026H0.0400009Z" fill="#CB1B5B"/>
<path d="M6.62188 9.01999C6.69188 9.43999 6.68187 9.97 6.41187 10.56C6.41187 10.56 6.41187 10.58 6.40187 10.59C6.28187 10.83 5.69187 11.97 4.83187 11.84C4.23187 11.75 3.70187 11.08 3.67188 10.21C3.68187 8.81999 3.70188 7.43999 3.71188 6.04999C3.71188 5.89999 3.68187 4.97001 4.40187 4.29001C4.82187 3.89001 5.29188 3.77001 5.51188 3.73001C5.63188 3.51001 5.79187 3.21 6.02187 2.87C6.33187 2.41 6.63187 2.04999 6.75187 1.92999C6.88187 1.78999 7.56187 1.09001 9.49187 0.820007C10.5919 0.660007 10.5619 0.859985 12.8319 0.859985C14.8419 0.859985 15.6619 0.709998 16.2619 0.559998C16.9419 0.389998 17.4819 0.17 17.8519 0C17.8919 0.27 17.9419 0.810004 17.7219 1.41C17.5919 1.78 17.4019 2.05 17.2519 2.22C17.4319 2.27 17.9719 2.41999 18.5819 2.17999C19.4819 1.81999 19.7519 0.919998 19.7819 0.809998C19.9519 1.06 20.2419 1.56999 20.2919 2.26999C20.3819 3.50999 19.6319 4.37001 19.4819 4.54001C19.8519 5.10001 20.4019 6.10001 20.5519 7.45001C20.5519 7.45001 20.7119 8.88001 20.2119 10.32C20.0819 10.7 19.9119 11 19.6519 11.26C19.4019 11.51 19.1419 11.65 18.9619 11.73C18.8719 11.51 18.6919 11.16 18.3619 10.83C18.2419 10.7 17.8219 10.3 17.1619 10.1C16.6819 9.95001 16.4019 10.01 15.5319 10.06C15.5319 10.06 14.5719 10.11 13.2619 10.1C12.3019 10.1 11.5319 10.04 11.0819 10C10.7419 9.97 10.2119 9.94001 9.79187 9.88C9.05187 9.79 7.97188 9.57001 6.62188 8.98001V9.01999Z" fill="#513C45"/>
<path d="M10.0808 12.9401C10.3508 12.9101 10.5808 13.1401 10.5708 13.3801C10.5708 13.6201 10.3208 13.8301 10.0508 13.7801" stroke="#523C45" stroke-width="0.75" stroke-miterlimit="10" stroke-linecap="round"/>
<path d="M14.1784 12.939C13.9384 12.919 13.7284 13.099 13.7084 13.319C13.6884 13.559 13.8884 13.789 14.1484 13.789" stroke="#523C45" stroke-width="0.75" stroke-miterlimit="10" stroke-linecap="round"/>
<path d="M10.6289 17.1006C10.6989 17.0106 11.1989 16.4006 12.0689 16.3506C12.9689 16.3006 13.5389 16.9105 13.6089 16.9905" stroke="#523C45" stroke-miterlimit="10" stroke-linecap="round"/>
<path opacity="0.46" d="M22.4986 27.8897C24.5365 27.8897 26.1886 26.2377 26.1886 24.1998C26.1886 22.1618 24.5365 20.5098 22.4986 20.5098C20.4607 20.5098 18.8086 22.1618 18.8086 24.1998C18.8086 26.2377 20.4607 27.8897 22.4986 27.8897Z" fill="white"/>
</svg>
