<svg width="92" height="75" viewBox="0 0 92 75" fill="none" xmlns="http://www.w3.org/2000/svg">
<path d="M1.18238 71.0605H90.8472C90.9486 71.0605 91.0296 71.1416 91.0296 71.243V73.8176C91.0296 73.919 90.9486 74 90.8472 74H1.18238C1.08102 74 1 73.919 1 73.8176V71.243C1 71.1416 1.08102 71.0605 1.18238 71.0605Z" stroke="#050505" stroke-width="1.01362" stroke-miterlimit="10"/>
<path d="M87.4632 53.6055H4.16406V57.8424H87.4632V53.6055Z" stroke="#050505" stroke-width="1.01362" stroke-miterlimit="10"/>
<path d="M10.9148 69.8655H4.16406V27.5368C4.63033 26.0366 6.04942 25.023 7.61039 25.0433C9.11055 25.0635 10.4485 26.0772 10.9148 27.5368V69.8655Z" stroke="#050505" stroke-width="1.01362" stroke-miterlimit="10"/>
<path d="M4.16406 35.3399C4.89387 34.1236 6.25208 33.3938 7.67115 33.4749C9.04967 33.556 10.2864 34.3871 10.9148 35.6237" stroke="#050505" stroke-width="1.01362" stroke-miterlimit="10" stroke-linecap="round"/>
<path d="M7.53125 39.0703V41.5841" stroke="#050505" stroke-width="1.01362" stroke-miterlimit="10" stroke-linecap="round"/>
<path d="M15.3125 23.6445V26.1583" stroke="#050505" stroke-width="1.01362" stroke-miterlimit="10" stroke-linecap="round"/>
<path d="M29.8906 13.0625V15.5763" stroke="#050505" stroke-width="1.01362" stroke-miterlimit="10" stroke-linecap="round"/>
<path d="M46 10.082V12.5958" stroke="#050505" stroke-width="1.01362" stroke-miterlimit="10" stroke-linecap="round"/>
<path d="M45.6602 21.4961V24.0099" stroke="#050505" stroke-width="1.01362" stroke-miterlimit="10" stroke-linecap="round"/>
<path d="M45.6602 33.6367V36.1505" stroke="#050505" stroke-width="1.01362" stroke-miterlimit="10" stroke-linecap="round"/>
<path d="M45.8203 47.5039V50.0177" stroke="#050505" stroke-width="1.01362" stroke-miterlimit="10" stroke-linecap="round"/>
<path d="M61.6328 12.8789V15.3927" stroke="#050505" stroke-width="1.01362" stroke-miterlimit="10" stroke-linecap="round"/>
<path d="M61.6328 24.1523V26.6661" stroke="#050505" stroke-width="1.01362" stroke-miterlimit="10" stroke-linecap="round"/>
<path d="M61.6328 35.6445V38.1583" stroke="#050505" stroke-width="1.01362" stroke-miterlimit="10" stroke-linecap="round"/>
<path d="M76.2734 15.5742V18.088" stroke="#050505" stroke-width="1.01362" stroke-miterlimit="10" stroke-linecap="round"/>
<path d="M83.9766 38.6055V41.1192" stroke="#050505" stroke-width="1.01362" stroke-miterlimit="10" stroke-linecap="round"/>
<path d="M83.9336 47.5234V50.0372" stroke="#050505" stroke-width="1.01362" stroke-miterlimit="10" stroke-linecap="round"/>
<path d="M61.7148 47.5039V50.0177" stroke="#050505" stroke-width="1.01362" stroke-miterlimit="10" stroke-linecap="round"/>
<path d="M76.2734 24.0078V26.5216" stroke="#050505" stroke-width="1.01362" stroke-miterlimit="10" stroke-linecap="round"/>
<path d="M61.7148 4.16211V6.67589" stroke="#050505" stroke-width="1.01362" stroke-miterlimit="10" stroke-linecap="round"/>
<path d="M45.8203 1V3.51378" stroke="#050505" stroke-width="1.01362" stroke-miterlimit="10" stroke-linecap="round"/>
<path d="M29.8281 4.52734V7.04112" stroke="#050505" stroke-width="1.01362" stroke-miterlimit="10" stroke-linecap="round"/>
<path d="M15.2695 15.4941V18.0079" stroke="#050505" stroke-width="1.01362" stroke-miterlimit="10" stroke-linecap="round"/>
<path d="M76.2734 36.0312V38.545" stroke="#050505" stroke-width="1.01362" stroke-miterlimit="10" stroke-linecap="round"/>
<path d="M76.2734 46.8555V49.3692" stroke="#050505" stroke-width="1.01362" stroke-miterlimit="10" stroke-linecap="round"/>
<path d="M29.8906 24.1719V26.6857" stroke="#050505" stroke-width="1.01362" stroke-miterlimit="10" stroke-linecap="round"/>
<path d="M29.8906 35.1797V37.6935" stroke="#050505" stroke-width="1.01362" stroke-miterlimit="10" stroke-linecap="round"/>
<path d="M29.8281 47.5039V50.0177" stroke="#050505" stroke-width="1.01362" stroke-miterlimit="10" stroke-linecap="round"/>
<path d="M15.3125 35.9688V38.4825" stroke="#050505" stroke-width="1.01362" stroke-miterlimit="10" stroke-linecap="round"/>
<path d="M15.4961 47.0781V49.5919" stroke="#050505" stroke-width="1.01362" stroke-miterlimit="10" stroke-linecap="round"/>
<path d="M7.53125 47.4648V50.1205" stroke="#050505" stroke-width="1.01362" stroke-miterlimit="10" stroke-linecap="round"/>
<path d="M19.5095 69.865H10.9141V21.2518C11.5831 19.4881 13.2656 18.3123 15.1509 18.2717C17.0768 18.2515 18.8203 19.4273 19.5095 21.2518V69.865Z" stroke="#050505" stroke-width="1.01362" stroke-miterlimit="10" stroke-linecap="round"/>
<path d="M10.9141 34.1436C11.4614 32.1569 13.2453 30.7784 15.2523 30.7581C17.097 30.7378 18.8 31.8731 19.5095 33.6368" stroke="#050505" stroke-width="1.01362" stroke-miterlimit="10" stroke-linecap="round"/>
<path d="M11.1953 44.7676C11.9454 43.2674 13.3848 42.2741 14.9661 42.193C16.9528 42.0916 18.8381 43.4093 19.5071 45.4568" stroke="#050505" stroke-width="1.01362" stroke-miterlimit="10" stroke-linecap="round"/>
<path d="M11.1953 64.6548C11.8846 63.1546 13.3443 62.141 14.9661 62.0802C16.8109 61.9991 18.534 63.1546 19.2232 64.9589" stroke="#050505" stroke-width="1.01362" stroke-miterlimit="10" stroke-linecap="round"/>
<path d="M25.0859 22.1243C25.2887 21.8608 26.8496 19.793 29.5863 19.6916C31.6947 19.6106 33.7017 20.7255 34.837 22.5906" stroke="#050505" stroke-width="1.01362" stroke-miterlimit="10" stroke-linecap="round"/>
<path d="M25.0625 31.9752C25.2855 31.6914 26.8668 29.6844 29.6441 29.5628C32.8471 29.4412 34.7122 31.9955 34.8541 32.1779" stroke="#050505" stroke-width="1.01362" stroke-miterlimit="10" stroke-linecap="round"/>
<path d="M25.0625 44.1991C25.2044 43.9761 26.745 41.6853 29.5629 41.584C31.6915 41.5029 33.7187 42.6989 34.7526 44.6654" stroke="#050505" stroke-width="1.01362" stroke-miterlimit="10" stroke-linecap="round"/>
<path d="M40.6953 19.731C40.8169 19.5282 42.3779 16.9942 45.439 16.8523C47.5676 16.7509 49.6151 17.8254 50.7503 19.6904" stroke="#050505" stroke-width="1.01362" stroke-miterlimit="10" stroke-linecap="round"/>
<path d="M56.6484 22.2047C56.8309 21.9411 58.4527 19.772 61.3111 19.6706C64.656 19.5692 66.5007 22.4276 66.5818 22.5493" stroke="#050505" stroke-width="1.01362" stroke-miterlimit="10" stroke-linecap="round"/>
<path d="M56.6484 32.1172C56.8512 31.8537 58.4932 29.7656 61.3111 29.7048C64.656 29.6237 66.5007 32.4619 66.5818 32.6038" stroke="#050505" stroke-width="1.01362" stroke-miterlimit="10" stroke-linecap="round"/>
<path d="M56.8711 43.9967C57.0535 43.7534 58.6753 41.6248 61.4931 41.5843C63.5812 41.564 65.5274 42.679 66.6018 44.5238" stroke="#050505" stroke-width="1.01362" stroke-miterlimit="10" stroke-linecap="round"/>
<path d="M56.7891 64.3707C56.931 64.1477 58.4311 61.7961 61.3098 61.6339C63.4384 61.5122 65.4858 62.6475 66.5805 64.5734" stroke="#050505" stroke-width="1.01362" stroke-miterlimit="10" stroke-linecap="round"/>
<path d="M72.1953 64.6554C72.2764 64.5135 73.4927 62.2836 75.9659 62.0809C77.9526 61.9187 79.8786 63.135 80.7097 65.0812" stroke="#050505" stroke-width="1.01362" stroke-miterlimit="10" stroke-linecap="round"/>
<path d="M72.1953 44.1596C72.2764 44.0177 73.4927 41.7877 75.9659 41.585C77.9324 41.4228 79.8786 42.6189 80.7097 44.565" stroke="#050505" stroke-width="1.01362" stroke-miterlimit="10" stroke-linecap="round"/>
<path d="M72.1172 33.0701C72.178 32.9485 73.5363 30.6577 76.1717 30.5766C78.0773 30.5158 79.8815 31.6308 80.7127 33.4147" stroke="#050505" stroke-width="1.01362" stroke-miterlimit="10" stroke-linecap="round"/>
<path d="M80.9336 35.0365C80.9336 35.0365 82.3729 33.3539 84.4813 33.6377C86.468 33.9013 87.36 35.6041 87.4411 35.7461" stroke="#050505" stroke-width="1.01362" stroke-miterlimit="10" stroke-linecap="round"/>
<path d="M40.6953 30.0909C40.8372 29.8476 42.4386 27.4758 45.4187 27.3541C47.5473 27.2528 49.5948 28.3475 50.7503 30.1923" stroke="#050505" stroke-width="1.01362" stroke-miterlimit="10" stroke-linecap="round"/>
<path d="M40.7344 42.5775C40.8155 42.4356 42.336 39.6989 45.4985 39.5569C47.6473 39.4556 49.6948 40.6111 50.7489 42.537" stroke="#050505" stroke-width="1.01362" stroke-miterlimit="10" stroke-linecap="round"/>
<path d="M40.7344 64.8989C40.856 64.7164 42.417 62.2027 45.4173 62.1013C47.627 62.0202 49.7353 63.2974 50.7489 65.3449" stroke="#050505" stroke-width="1.01362" stroke-miterlimit="10" stroke-linecap="round"/>
<path d="M25.1641 64.7962C25.2857 64.5934 26.7453 62.2621 29.5631 62.0797C31.6106 61.958 33.5974 63.0325 34.6718 64.8367" stroke="#050505" stroke-width="1.01362" stroke-miterlimit="10" stroke-linecap="round"/>
<path d="M34.977 71.0611H24.9219V9.83847C25.1449 9.55465 26.9288 7.36523 29.9494 7.36523C32.97 7.36523 34.754 9.55465 34.977 9.83847V71.0611Z" stroke="#050505" stroke-width="1.01362" stroke-miterlimit="10" stroke-linecap="round"/>
<path d="M80.7109 69.8655H87.4616V27.5368C86.9953 26.0366 85.5763 25.023 84.0153 25.0433C82.5152 25.0635 81.1772 26.0772 80.7109 27.5368V69.8655Z" stroke="#050505" stroke-width="1.01362" stroke-miterlimit="10"/>
<path d="M72.1172 69.865H80.7127V21.2518C80.0437 19.4881 78.361 18.3123 76.4757 18.2717C74.5498 18.2515 72.8064 19.4273 72.1172 21.2518V69.865Z" stroke="#050505" stroke-width="1.01362" stroke-miterlimit="10" stroke-linecap="round"/>
<path d="M56.6484 71.0611H66.7035V9.83847C66.4805 9.55465 64.6965 7.36523 61.676 7.36523C58.6554 7.36523 56.8714 9.55465 56.6484 9.83847V71.0611Z" stroke="#050505" stroke-width="1.01362" stroke-miterlimit="10" stroke-linecap="round"/>
<path d="M50.7248 70.5333H40.4062V7.04022C41.5415 5.15489 43.589 4.01963 45.7582 4.08045C48.9612 4.18181 50.6032 6.83749 50.7248 7.04022V70.5333Z" stroke="#050505" stroke-width="1.01362" stroke-miterlimit="10" stroke-linecap="round"/>
<path d="M19.8766 16.2031H24.5595C24.7622 16.2031 24.9244 16.3653 24.9244 16.568V70.1682C24.9244 70.3709 24.7622 70.5331 24.5595 70.5331H19.8766C19.6739 70.5331 19.5117 70.3709 19.5117 70.1682V16.568C19.5117 16.3653 19.6739 16.2031 19.8766 16.2031Z" stroke="#050505" stroke-width="1.01362" stroke-miterlimit="10" stroke-linecap="round"/>
<path d="M66.943 15.7773H71.6259C71.8287 15.7773 71.9909 15.9395 71.9909 16.1422V69.7424C71.9909 69.9452 71.8287 70.1073 71.6259 70.1073H66.943C66.7403 70.1073 66.5781 69.9452 66.5781 69.7424V16.1422C66.5781 15.9395 66.7403 15.7773 66.943 15.7773Z" stroke="#050505" stroke-width="1.01362" stroke-miterlimit="10" stroke-linecap="round"/>
<path d="M40.4298 10.082H34.9766V70.5343H40.4298V10.082Z" stroke="#050505" stroke-width="1.01362" stroke-miterlimit="10" stroke-linecap="round"/>
<path d="M56.5469 10.082H51.0938V70.5343H56.5469V10.082Z" stroke="#050505" stroke-width="1.01362" stroke-miterlimit="10" stroke-linecap="round"/>
<path d="M1.18238 71.0605H90.8472C90.9486 71.0605 91.0296 71.1416 91.0296 71.243V73.8176C91.0296 73.919 90.9486 74 90.8472 74H1.18238C1.08102 74 1 73.919 1 73.8176V71.243C1 71.1416 1.08102 71.0605 1.18238 71.0605Z" stroke="#050505" stroke-width="1.01362" stroke-miterlimit="10"/>
<path d="M87.4632 53.6055H4.16406V57.8424H87.4632V53.6055Z" stroke="#050505" stroke-width="1.01362" stroke-miterlimit="10"/>
<path d="M10.9148 69.8655H4.16406V27.5368C4.63033 26.0366 6.04942 25.023 7.61039 25.0433C9.11055 25.0635 10.4485 26.0772 10.9148 27.5368V69.8655Z" stroke="#050505" stroke-width="1.01362" stroke-miterlimit="10"/>
<path d="M4.16406 35.3399C4.89387 34.1236 6.25208 33.3938 7.67115 33.4749C9.04967 33.556 10.2864 34.3871 10.9148 35.6237" stroke="#050505" stroke-width="1.01362" stroke-miterlimit="10" stroke-linecap="round"/>
<path d="M7.53125 39.0703V41.5841" stroke="#050505" stroke-width="1.01362" stroke-miterlimit="10" stroke-linecap="round"/>
<path d="M15.3125 23.6445V26.1583" stroke="#050505" stroke-width="1.01362" stroke-miterlimit="10" stroke-linecap="round"/>
<path d="M29.8906 13.0625V15.5763" stroke="#050505" stroke-width="1.01362" stroke-miterlimit="10" stroke-linecap="round"/>
<path d="M46 10.082V12.5958" stroke="#050505" stroke-width="1.01362" stroke-miterlimit="10" stroke-linecap="round"/>
<path d="M45.6602 21.4961V24.0099" stroke="#050505" stroke-width="1.01362" stroke-miterlimit="10" stroke-linecap="round"/>
<path d="M45.6602 33.6367V36.1505" stroke="#050505" stroke-width="1.01362" stroke-miterlimit="10" stroke-linecap="round"/>
<path d="M45.8203 47.5039V50.0177" stroke="#050505" stroke-width="1.01362" stroke-miterlimit="10" stroke-linecap="round"/>
<path d="M61.6328 12.8789V15.3927" stroke="#050505" stroke-width="1.01362" stroke-miterlimit="10" stroke-linecap="round"/>
<path d="M61.6328 24.1523V26.6661" stroke="#050505" stroke-width="1.01362" stroke-miterlimit="10" stroke-linecap="round"/>
<path d="M61.6328 35.6445V38.1583" stroke="#050505" stroke-width="1.01362" stroke-miterlimit="10" stroke-linecap="round"/>
<path d="M76.2734 15.5742V18.088" stroke="#050505" stroke-width="1.01362" stroke-miterlimit="10" stroke-linecap="round"/>
<path d="M83.9766 38.6055V41.1192" stroke="#050505" stroke-width="1.01362" stroke-miterlimit="10" stroke-linecap="round"/>
<path d="M83.9336 47.5234V50.0372" stroke="#050505" stroke-width="1.01362" stroke-miterlimit="10" stroke-linecap="round"/>
<path d="M61.7148 47.5039V50.0177" stroke="#050505" stroke-width="1.01362" stroke-miterlimit="10" stroke-linecap="round"/>
<path d="M76.2734 24.0078V26.5216" stroke="#050505" stroke-width="1.01362" stroke-miterlimit="10" stroke-linecap="round"/>
<path d="M61.7148 4.16211V6.67589" stroke="#050505" stroke-width="1.01362" stroke-miterlimit="10" stroke-linecap="round"/>
<path d="M45.8203 1V3.51378" stroke="#050505" stroke-width="1.01362" stroke-miterlimit="10" stroke-linecap="round"/>
<path d="M29.8281 4.52734V7.04112" stroke="#050505" stroke-width="1.01362" stroke-miterlimit="10" stroke-linecap="round"/>
<path d="M15.2695 15.4941V18.0079" stroke="#050505" stroke-width="1.01362" stroke-miterlimit="10" stroke-linecap="round"/>
<path d="M76.2734 36.0312V38.545" stroke="#050505" stroke-width="1.01362" stroke-miterlimit="10" stroke-linecap="round"/>
<path d="M76.2734 46.8555V49.3692" stroke="#050505" stroke-width="1.01362" stroke-miterlimit="10" stroke-linecap="round"/>
<path d="M29.8906 24.1719V26.6857" stroke="#050505" stroke-width="1.01362" stroke-miterlimit="10" stroke-linecap="round"/>
<path d="M29.8906 35.1797V37.6935" stroke="#050505" stroke-width="1.01362" stroke-miterlimit="10" stroke-linecap="round"/>
<path d="M29.8281 47.5039V50.0177" stroke="#050505" stroke-width="1.01362" stroke-miterlimit="10" stroke-linecap="round"/>
<path d="M15.3125 35.9688V38.4825" stroke="#050505" stroke-width="1.01362" stroke-miterlimit="10" stroke-linecap="round"/>
<path d="M15.4961 47.0781V49.5919" stroke="#050505" stroke-width="1.01362" stroke-miterlimit="10" stroke-linecap="round"/>
<path d="M7.53125 47.4648V50.1205" stroke="#050505" stroke-width="1.01362" stroke-miterlimit="10" stroke-linecap="round"/>
<path d="M19.5095 69.865H10.9141V21.2518C11.5831 19.4881 13.2656 18.3123 15.1509 18.2717C17.0768 18.2515 18.8203 19.4273 19.5095 21.2518V69.865Z" stroke="#050505" stroke-width="1.01362" stroke-miterlimit="10" stroke-linecap="round"/>
<path d="M10.9141 34.1436C11.4614 32.1569 13.2453 30.7784 15.2523 30.7581C17.097 30.7378 18.8 31.8731 19.5095 33.6368" stroke="#050505" stroke-width="1.01362" stroke-miterlimit="10" stroke-linecap="round"/>
<path d="M11.1953 44.7676C11.9454 43.2674 13.3848 42.2741 14.9661 42.193C16.9528 42.0916 18.8381 43.4093 19.5071 45.4568" stroke="#050505" stroke-width="1.01362" stroke-miterlimit="10" stroke-linecap="round"/>
<path d="M11.1953 64.6548C11.8846 63.1546 13.3443 62.141 14.9661 62.0802C16.8109 61.9991 18.534 63.1546 19.2232 64.9589" stroke="#050505" stroke-width="1.01362" stroke-miterlimit="10" stroke-linecap="round"/>
<path d="M25.0859 22.1243C25.2887 21.8608 26.8496 19.793 29.5863 19.6916C31.6947 19.6106 33.7017 20.7255 34.837 22.5906" stroke="#050505" stroke-width="1.01362" stroke-miterlimit="10" stroke-linecap="round"/>
<path d="M25.0625 31.9752C25.2855 31.6914 26.8668 29.6844 29.6441 29.5628C32.8471 29.4412 34.7122 31.9955 34.8541 32.1779" stroke="#050505" stroke-width="1.01362" stroke-miterlimit="10" stroke-linecap="round"/>
<path d="M25.0625 44.1991C25.2044 43.9761 26.745 41.6853 29.5629 41.584C31.6915 41.5029 33.7187 42.6989 34.7526 44.6654" stroke="#050505" stroke-width="1.01362" stroke-miterlimit="10" stroke-linecap="round"/>
<path d="M40.6953 19.731C40.8169 19.5282 42.3779 16.9942 45.439 16.8523C47.5676 16.7509 49.6151 17.8254 50.7503 19.6904" stroke="#050505" stroke-width="1.01362" stroke-miterlimit="10" stroke-linecap="round"/>
<path d="M56.6484 22.2047C56.8309 21.9411 58.4527 19.772 61.3111 19.6706C64.656 19.5692 66.5007 22.4276 66.5818 22.5493" stroke="#050505" stroke-width="1.01362" stroke-miterlimit="10" stroke-linecap="round"/>
<path d="M56.6484 32.1172C56.8512 31.8537 58.4932 29.7656 61.3111 29.7048C64.656 29.6237 66.5007 32.4619 66.5818 32.6038" stroke="#050505" stroke-width="1.01362" stroke-miterlimit="10" stroke-linecap="round"/>
<path d="M56.8711 43.9967C57.0535 43.7534 58.6753 41.6248 61.4931 41.5843C63.5812 41.564 65.5274 42.679 66.6018 44.5238" stroke="#050505" stroke-width="1.01362" stroke-miterlimit="10" stroke-linecap="round"/>
<path d="M56.7891 64.3707C56.931 64.1477 58.4311 61.7961 61.3098 61.6339C63.4384 61.5122 65.4858 62.6475 66.5805 64.5734" stroke="#050505" stroke-width="1.01362" stroke-miterlimit="10" stroke-linecap="round"/>
<path d="M72.1953 64.6554C72.2764 64.5135 73.4927 62.2836 75.9659 62.0809C77.9526 61.9187 79.8786 63.135 80.7097 65.0812" stroke="#050505" stroke-width="1.01362" stroke-miterlimit="10" stroke-linecap="round"/>
<path d="M72.1953 44.1596C72.2764 44.0177 73.4927 41.7877 75.9659 41.585C77.9324 41.4228 79.8786 42.6189 80.7097 44.565" stroke="#050505" stroke-width="1.01362" stroke-miterlimit="10" stroke-linecap="round"/>
<path d="M72.1172 33.0701C72.178 32.9485 73.5363 30.6577 76.1717 30.5766C78.0773 30.5158 79.8815 31.6308 80.7127 33.4147" stroke="#050505" stroke-width="1.01362" stroke-miterlimit="10" stroke-linecap="round"/>
<path d="M80.9336 35.0365C80.9336 35.0365 82.3729 33.3539 84.4813 33.6377C86.468 33.9013 87.36 35.6041 87.4411 35.7461" stroke="#050505" stroke-width="1.01362" stroke-miterlimit="10" stroke-linecap="round"/>
<path d="M40.6953 30.0909C40.8372 29.8476 42.4386 27.4758 45.4187 27.3541C47.5473 27.2528 49.5948 28.3475 50.7503 30.1923" stroke="#050505" stroke-width="1.01362" stroke-miterlimit="10" stroke-linecap="round"/>
<path d="M40.7344 42.5775C40.8155 42.4356 42.336 39.6989 45.4985 39.5569C47.6473 39.4556 49.6948 40.6111 50.7489 42.537" stroke="#050505" stroke-width="1.01362" stroke-miterlimit="10" stroke-linecap="round"/>
<path d="M40.7344 64.8989C40.856 64.7164 42.417 62.2027 45.4173 62.1013C47.627 62.0202 49.7353 63.2974 50.7489 65.3449" stroke="#050505" stroke-width="1.01362" stroke-miterlimit="10" stroke-linecap="round"/>
<path d="M25.1641 64.7962C25.2857 64.5934 26.7453 62.2621 29.5631 62.0797C31.6106 61.958 33.5974 63.0325 34.6718 64.8367" stroke="#050505" stroke-width="1.01362" stroke-miterlimit="10" stroke-linecap="round"/>
<path d="M34.977 71.0611H24.9219V9.83847C25.1449 9.55465 26.9288 7.36523 29.9494 7.36523C32.97 7.36523 34.754 9.55465 34.977 9.83847V71.0611Z" stroke="#050505" stroke-width="1.01362" stroke-miterlimit="10" stroke-linecap="round"/>
<path d="M80.7109 69.8655H87.4616V27.5368C86.9953 26.0366 85.5763 25.023 84.0153 25.0433C82.5152 25.0635 81.1772 26.0772 80.7109 27.5368V69.8655Z" stroke="#050505" stroke-width="1.01362" stroke-miterlimit="10"/>
<path d="M72.1172 69.865H80.7127V21.2518C80.0437 19.4881 78.361 18.3123 76.4757 18.2717C74.5498 18.2515 72.8064 19.4273 72.1172 21.2518V69.865Z" stroke="#050505" stroke-width="1.01362" stroke-miterlimit="10" stroke-linecap="round"/>
<path d="M56.6484 71.0611H66.7035V9.83847C66.4805 9.55465 64.6965 7.36523 61.676 7.36523C58.6554 7.36523 56.8714 9.55465 56.6484 9.83847V71.0611Z" stroke="#050505" stroke-width="1.01362" stroke-miterlimit="10" stroke-linecap="round"/>
<path d="M50.7248 70.5333H40.4062V7.04022C41.5415 5.15489 43.589 4.01963 45.7582 4.08045C48.9612 4.18181 50.6032 6.83749 50.7248 7.04022V70.5333Z" stroke="#050505" stroke-width="1.01362" stroke-miterlimit="10" stroke-linecap="round"/>
<path d="M19.8766 16.2031H24.5595C24.7622 16.2031 24.9244 16.3653 24.9244 16.568V70.1682C24.9244 70.3709 24.7622 70.5331 24.5595 70.5331H19.8766C19.6739 70.5331 19.5117 70.3709 19.5117 70.1682V16.568C19.5117 16.3653 19.6739 16.2031 19.8766 16.2031Z" stroke="#050505" stroke-width="1.01362" stroke-miterlimit="10" stroke-linecap="round"/>
<path d="M66.943 15.7773H71.6259C71.8287 15.7773 71.9909 15.9395 71.9909 16.1422V69.7424C71.9909 69.9452 71.8287 70.1073 71.6259 70.1073H66.943C66.7403 70.1073 66.5781 69.9452 66.5781 69.7424V16.1422C66.5781 15.9395 66.7403 15.7773 66.943 15.7773Z" stroke="#050505" stroke-width="1.01362" stroke-miterlimit="10" stroke-linecap="round"/>
<path d="M40.4298 10.082H34.9766V70.5343H40.4298V10.082Z" stroke="#050505" stroke-width="1.01362" stroke-miterlimit="10" stroke-linecap="round"/>
<path d="M56.5469 10.082H51.0938V70.5343H56.5469V10.082Z" stroke="#050505" stroke-width="1.01362" stroke-miterlimit="10" stroke-linecap="round"/>
</svg>
