<svg width="30" height="31" viewBox="0 0 30 31" fill="none" xmlns="http://www.w3.org/2000/svg">
<path d="M25.4198 13.869V6.21954C25.4198 4.4015 23.9325 2.89989 22.116 2.89989H21.7046V2.38134C21.7046 1.0842 20.654 0.0326211 19.3581 0.0326211C18.0622 0.0326211 17.0117 1.0842 17.0117 2.38134V2.89989H8.40808V2.38134C8.40808 1.06619 7.34292 0 6.02905 0C4.71517 0 3.65002 1.06619 3.65002 2.38134V2.89989H3.29447C1.47813 2.89989 0 4.4015 0 6.21954V23.7843C0 25.6024 1.47813 27.1048 3.29447 27.1048H13.6315C15.3357 29.1453 17.8547 30.3261 20.5118 30.33C25.4458 30.33 29.4651 26.3061 29.4651 21.3671C29.4652 18.2367 27.8314 15.471 25.4198 13.869ZM18.3153 2.38134C18.3052 1.81308 18.7572 1.34425 19.325 1.3342C19.3341 1.33407 19.3432 1.33401 19.3523 1.33407C19.9254 1.32801 20.3949 1.78809 20.401 2.36177C20.4011 2.36829 20.4011 2.37482 20.401 2.38134V4.9224H18.3153V2.38134ZM4.9536 2.38134C4.95979 1.79671 5.43833 1.32781 6.0224 1.33401C6.02344 1.33401 6.02442 1.33401 6.0254 1.33407C6.61162 1.33407 7.1045 1.79462 7.1045 2.38134V4.9224H4.9536V2.38134ZM1.30358 6.21954C1.30358 5.12093 2.19692 4.20473 3.29447 4.20473H3.65002V5.60196C3.65002 5.96223 3.95062 6.22724 4.31061 6.22724H7.74032C8.10024 6.22724 8.40808 5.96223 8.40808 5.60196V4.20473H17.0117V5.60196C17.002 5.93763 17.2661 6.21758 17.6014 6.22724C17.6134 6.22757 17.6254 6.22757 17.6374 6.22724H21.0671C21.4077 6.23859 21.693 5.97143 21.7043 5.63053C21.7046 5.62101 21.7047 5.61148 21.7046 5.60196V4.20473H22.116C23.221 4.21589 24.112 5.11349 24.1162 6.21954V8.31499H1.30358V6.21954ZM3.29447 25.7999C2.19692 25.7999 1.30358 24.8829 1.30358 23.7843V9.61984H24.1162V13.1595C22.9816 12.6608 21.7559 12.4037 20.5168 12.4041C15.5827 12.4041 11.5659 16.4339 11.5659 21.3729C11.5635 22.9246 11.9641 24.4501 12.7287 25.7999H3.29447ZM20.5118 29.0135C16.2896 29.0135 12.8669 25.5875 12.8669 21.3612C12.8669 17.135 16.2896 13.7089 20.5118 13.7089C24.734 13.7089 28.1567 17.135 28.1567 21.3612V21.3613C28.1519 25.5855 24.732 29.0088 20.5118 29.0135Z" fill="#CB1B5B"/>
<path d="M23.5758 21.3627H20.7203V17.4371C20.7203 17.0768 20.4285 16.7847 20.0685 16.7847C19.7086 16.7847 19.4167 17.0768 19.4167 17.4371V22.0145C19.4225 22.3773 19.7183 22.6682 20.0808 22.6676H23.5758C23.9358 22.6676 24.2276 22.3755 24.2276 22.0151C24.2276 21.6548 23.9358 21.3627 23.5758 21.3627Z" fill="#CB1B5B"/>
</svg>
