<svg width="30" height="30" viewBox="0 0 30 30" fill="none" xmlns="http://www.w3.org/2000/svg">
<mask id="mask0_1210_1003" style="mask-type:luminance" maskUnits="userSpaceOnUse" x="0" y="0" width="30" height="30">
<path d="M29.9709 0H0V30H29.9709V0Z" fill="white"/>
<path d="M16.4425 15C16.4425 15.8089 15.7873 16.4648 14.979 16.4648C14.1708 16.4648 13.5156 15.8089 13.5156 15C13.5156 14.191 14.1708 13.5351 14.979 13.5351C15.7873 13.5351 16.4425 14.191 16.4425 15Z" fill="white"/>
<path d="M22.2999 15C22.2999 15.8089 21.6447 16.4648 20.8365 16.4648C20.0282 16.4648 19.373 15.8089 19.373 15C19.373 14.191 20.0282 13.5351 20.8365 13.5351C21.6447 13.5351 22.2999 14.191 22.2999 15Z" fill="white"/>
<path d="M10.5919 15C10.5919 15.8089 9.93667 16.4648 9.12846 16.4648C8.32024 16.4648 7.66504 15.8089 7.66504 15C7.66504 14.191 8.32024 13.5351 9.12846 13.5351C9.93667 13.5351 10.5919 14.191 10.5919 15Z" fill="white"/>
</mask>
<g mask="url(#mask0_1210_1003)">
<mask id="mask1_1210_1003" style="mask-type:luminance" maskUnits="userSpaceOnUse" x="0" y="0" width="30" height="31">
<path d="M0 0.000427246H29.9709V30.0004H0V0.000427246Z" fill="white"/>
</mask>
<g mask="url(#mask1_1210_1003)">
<path d="M14.981 1.17118C7.35132 1.17118 1.16626 7.36226 1.16626 14.9993C1.16626 17.6879 1.93362 20.1967 3.25989 22.3199L1.16626 28.8275L7.66754 26.7318C9.78862 28.0593 12.295 28.8275 14.981 28.8275C22.6106 28.8275 28.7956 22.6364 28.7956 14.9993C28.7956 7.36226 22.6106 1.17118 14.981 1.17118Z" stroke="#CB1B5B" stroke-width="1.5" stroke-miterlimit="10" stroke-linecap="round" stroke-linejoin="round"/>
<path d="M16.4449 14.9996C16.4449 15.8086 15.7897 16.4645 14.9815 16.4645C14.1733 16.4645 13.5181 15.8086 13.5181 14.9996C13.5181 14.1906 14.1733 13.5348 14.9815 13.5348C15.7897 13.5348 16.4449 14.1906 16.4449 14.9996Z" fill="#CB1B5B"/>
<path d="M22.3004 14.9996C22.3004 15.8086 21.6452 16.4645 20.837 16.4645C20.0287 16.4645 19.3735 15.8086 19.3735 14.9996C19.3735 14.1906 20.0287 13.5348 20.837 13.5348C21.6452 13.5348 22.3004 14.1906 22.3004 14.9996Z" fill="#CB1B5B"/>
<path d="M10.5914 14.9996C10.5914 15.8086 9.93619 16.4645 9.12797 16.4645C8.31975 16.4645 7.66455 15.8086 7.66455 14.9996C7.66455 14.1906 8.31975 13.5348 9.12797 13.5348C9.93619 13.5348 10.5914 14.1906 10.5914 14.9996Z" fill="#CB1B5B"/>
</g>
</g>
</svg>
