<svg width="31" height="30" viewBox="0 0 31 30" fill="none" xmlns="http://www.w3.org/2000/svg">
<path fill-rule="evenodd" clip-rule="evenodd" d="M20.75 16.6259V12.2871C20.75 11.6037 20.4791 10.9474 19.9953 10.4637C19.5116 9.98086 18.8562 9.70898 18.1719 9.70898C15.9847 9.70898 12.3903 9.70898 10.2031 9.70898C9.51969 9.70898 8.86344 9.98086 8.37969 10.4637C7.89687 10.9474 7.625 11.6037 7.625 12.2871V16.6259C7.625 17.3093 7.89687 17.9646 8.37969 18.4484C8.86344 18.9321 9.51969 19.204 10.2031 19.204H18.1719C18.8562 19.204 19.5116 18.9321 19.9953 18.4484C20.4791 17.9646 20.75 17.3093 20.75 16.6259ZM19.3437 12.2871V16.6259C19.3437 16.9362 19.2209 17.2343 19.0006 17.4537C18.7812 17.674 18.4831 17.7977 18.1719 17.7977H10.2031C9.89188 17.7977 9.59375 17.674 9.37438 17.4537C9.155 17.2343 9.03125 16.9362 9.03125 16.6259V12.2871C9.03125 11.9759 9.155 11.6777 9.37438 11.4584C9.59375 11.239 9.89188 11.1152 10.2031 11.1152H18.1719C18.4831 11.1152 18.7812 11.239 19.0006 11.4584C19.2209 11.6777 19.3437 11.9759 19.3437 12.2871Z" fill="#797979"/>
<path fill-rule="evenodd" clip-rule="evenodd" d="M24.4578 16.2474V12.6427C24.4578 12.1421 24.2291 11.6686 23.8362 11.3574C23.4444 11.0461 22.9306 10.9308 22.4431 11.0452L19.8875 11.6424C19.5687 11.7174 19.3438 12.0005 19.3438 12.3277V16.5624C19.3438 16.8886 19.5687 17.1727 19.8875 17.2468L22.4431 17.8449C22.9306 17.9583 23.4444 17.844 23.8362 17.5327C24.2291 17.2215 24.4578 16.748 24.4578 16.2474ZM23.0516 12.6427V16.2474C23.0516 16.3186 23.0188 16.3861 22.9625 16.4302C22.9063 16.4752 22.8331 16.4911 22.7638 16.4752L20.75 16.0046V12.8855L22.7638 12.4149C22.8331 12.398 22.9063 12.4149 22.9625 12.459C23.0188 12.504 23.0516 12.5715 23.0516 12.6427Z" fill="#797979"/>
<path fill-rule="evenodd" clip-rule="evenodd" d="M3.34158 20.2059L1.75627 25.8806C1.53502 26.6719 1.75721 27.5212 2.33846 28.1025C2.91971 28.6838 3.76908 28.9059 4.56033 28.6847C4.56033 28.6847 8.17721 27.6741 10.1638 27.1425C10.1666 27.1416 10.1694 27.1416 10.1713 27.1406C10.8322 26.9559 11.5325 26.9672 12.1869 27.1725C12.1888 27.1734 12.1916 27.1744 12.1935 27.1744C13.4122 27.5438 14.705 27.7416 16.0428 27.7416C23.375 27.7416 29.3281 21.7894 29.3281 14.4572C29.3281 7.125 23.375 1.17188 16.0428 1.17188C8.71065 1.17188 2.75846 7.125 2.75846 14.4572C2.75846 15.7612 2.9469 17.0212 3.31815 18.2062C3.5169 18.8569 3.5244 19.5506 3.34158 20.2059ZM3.11002 26.2584L4.69627 20.5837C4.95127 19.6706 4.94002 18.7022 4.66252 17.7956C4.66252 17.7938 4.66158 17.7919 4.66158 17.79C4.33065 16.7362 4.16471 15.6159 4.16471 14.4572C4.16471 7.90125 9.4869 2.57812 16.0428 2.57812C22.5988 2.57812 27.9219 7.90125 27.9219 14.4572C27.9219 21.0131 22.5988 26.3353 16.0428 26.3353C14.8466 26.3353 13.6906 26.1591 12.6013 25.8291C11.691 25.5441 10.7178 25.5291 9.79908 25.7841C7.8069 26.3175 4.18252 27.3309 4.18252 27.3309C3.87971 27.4153 3.55533 27.33 3.33315 27.1078C3.11096 26.8856 3.02565 26.5613 3.11002 26.2584Z" fill="#797979"/>
</svg>
