<svg width="25" height="32" viewBox="0 0 25 32" fill="none" xmlns="http://www.w3.org/2000/svg">
<path d="M4.89795 8.65771C7.01486 10.7395 9.09463 12.8213 11.2115 14.9031" stroke="#CB1B5B" stroke-width="1.3" stroke-miterlimit="10" stroke-linecap="round"/>
<path d="M21.7234 31H2.96835C1.89133 31 1 30.1078 1 29.0297V2.97026C1 1.89219 1.89133 1 2.96835 1H21.7234C22.8004 1 23.6917 1.89219 23.6917 2.97026V29.0297C23.6917 30.1078 22.8004 31 21.7234 31Z" stroke="#CB1B5B" stroke-width="1.3" stroke-miterlimit="10" stroke-linecap="round"/>
<path d="M5.0127 19.8091C9.91501 19.8091 14.8545 19.8091 19.7568 19.8091" stroke="#CB1B5B" stroke-width="1.3" stroke-miterlimit="10" stroke-linecap="round"/>
<path d="M5.0127 23.8621C8.24377 23.8621 11.4748 23.8621 14.6688 23.8621" stroke="#CB1B5B" stroke-width="1.3" stroke-miterlimit="10" stroke-linecap="round"/>
<path d="M4.9014 12.9338C4.9014 10.3316 4.9014 7.76654 4.9014 5.16431C5.79272 5.16431 6.68404 5.16431 7.57537 5.16431C8.50383 5.20148 9.28374 5.98215 9.28374 6.87435C9.28374 7.72937 8.68952 8.47286 7.7982 8.62156C6.8326 8.62156 5.867 8.62156 4.86426 8.62156" stroke="#CB1B5B" stroke-width="1.3" stroke-miterlimit="10" stroke-linecap="round"/>
<path d="M11.2522 10.9998C9.9895 12.2265 8.72679 13.4905 7.50122 14.7544" stroke="#CB1B5B" stroke-width="1.3" stroke-miterlimit="10" stroke-linecap="round"/>
</svg>
