<svg width="30" height="30" viewBox="0 0 30 30" fill="none" xmlns="http://www.w3.org/2000/svg">
<mask id="mask0_17_8549" style="mask-type:luminance" maskUnits="userSpaceOnUse" x="0" y="0" width="30" height="30">
<path d="M29.9709 0H0V30H29.9709V0Z" fill="white"/>
<path d="M16.4425 14.9999C16.4425 15.8089 15.7873 16.4647 14.979 16.4647C14.1708 16.4647 13.5156 15.8089 13.5156 14.9999C13.5156 14.1909 14.1708 13.5351 14.979 13.5351C15.7873 13.5351 16.4425 14.1909 16.4425 14.9999Z" fill="white"/>
<path d="M22.2999 14.9999C22.2999 15.8089 21.6447 16.4647 20.8365 16.4647C20.0282 16.4647 19.373 15.8089 19.373 14.9999C19.373 14.1909 20.0282 13.5351 20.8365 13.5351C21.6447 13.5351 22.2999 14.1909 22.2999 14.9999Z" fill="white"/>
<path d="M10.5919 14.9999C10.5919 15.8089 9.93667 16.4647 9.12846 16.4647C8.32024 16.4647 7.66504 15.8089 7.66504 14.9999C7.66504 14.1909 8.32024 13.5351 9.12846 13.5351C9.93667 13.5351 10.5919 14.1909 10.5919 14.9999Z" fill="white"/>
</mask>
<g mask="url(#mask0_17_8549)">
<mask id="mask1_17_8549" style="mask-type:luminance" maskUnits="userSpaceOnUse" x="0" y="0" width="30" height="31">
<path d="M0 0.000488281H29.9709V30.0005H0V0.000488281Z" fill="white"/>
</mask>
<g mask="url(#mask1_17_8549)">
<path d="M14.981 1.17125C7.35132 1.17125 1.16626 7.36232 1.16626 14.9994C1.16626 17.688 1.93362 20.1968 3.25989 22.3199L1.16626 28.8275L7.66754 26.7318C9.78862 28.0594 12.295 28.8275 14.981 28.8275C22.6106 28.8275 28.7956 22.6364 28.7956 14.9994C28.7956 7.36232 22.6106 1.17125 14.981 1.17125Z" stroke="#797979" stroke-width="1.5" stroke-miterlimit="10" stroke-linecap="round" stroke-linejoin="round"/>
<path d="M16.4449 14.9998C16.4449 15.8088 15.7897 16.4646 14.9815 16.4646C14.1733 16.4646 13.5181 15.8088 13.5181 14.9998C13.5181 14.1908 14.1733 13.5349 14.9815 13.5349C15.7897 13.5349 16.4449 14.1908 16.4449 14.9998Z" fill="#797979"/>
<path d="M22.3004 14.9998C22.3004 15.8088 21.6452 16.4646 20.837 16.4646C20.0287 16.4646 19.3735 15.8088 19.3735 14.9998C19.3735 14.1908 20.0287 13.5349 20.837 13.5349C21.6452 13.5349 22.3004 14.1908 22.3004 14.9998Z" fill="#797979"/>
<path d="M10.5914 14.9998C10.5914 15.8088 9.93619 16.4646 9.12797 16.4646C8.31975 16.4646 7.66455 15.8088 7.66455 14.9998C7.66455 14.1908 8.31975 13.5349 9.12797 13.5349C9.93619 13.5349 10.5914 14.1908 10.5914 14.9998Z" fill="#797979"/>
</g>
</g>
</svg>
