<svg width="25" height="32" viewBox="0 0 25 32" fill="none" xmlns="http://www.w3.org/2000/svg">
<g id="Group 1000001738">
<path id="Vector" d="M4.89807 8.65784C7.01498 10.7396 9.09476 12.8214 11.2117 14.9032" stroke="#777474" stroke-width="1.3" stroke-miterlimit="10" stroke-linecap="round"/>
<g id="Group 1000001737">
<path id="Vector_2" d="M21.7234 31H2.96835C1.89133 31 1 30.1078 1 29.0297V2.97026C1 1.89219 1.89133 1 2.96835 1H21.7234C22.8004 1 23.6917 1.89219 23.6917 2.97026V29.0297C23.6917 30.1078 22.8004 31 21.7234 31Z" stroke="#777474" stroke-width="1.3" stroke-miterlimit="10" stroke-linecap="round"/>
<path id="Vector_3" d="M5.0127 19.809C9.91501 19.809 14.8545 19.809 19.7568 19.809" stroke="#777474" stroke-width="1.3" stroke-miterlimit="10" stroke-linecap="round"/>
<path id="Vector_4" d="M5.0127 23.8622C8.24377 23.8622 11.4748 23.8622 14.6688 23.8622" stroke="#777474" stroke-width="1.3" stroke-miterlimit="10" stroke-linecap="round"/>
<path id="Vector_5" d="M4.9014 12.934C4.9014 10.3317 4.9014 7.76667 4.9014 5.16443C5.79272 5.16443 6.68404 5.16443 7.57537 5.16443C8.50383 5.2016 9.28374 5.98227 9.28374 6.87447C9.28374 7.72949 8.68952 8.47299 7.7982 8.62169C6.8326 8.62169 5.867 8.62169 4.86426 8.62169" stroke="#777474" stroke-width="1.3" stroke-miterlimit="10" stroke-linecap="round"/>
<path id="Vector_6" d="M11.2522 10.9996C9.9895 12.2264 8.72679 13.4903 7.50122 14.7543" stroke="#777474" stroke-width="1.3" stroke-miterlimit="10" stroke-linecap="round"/>
</g>
</g>
</svg>
