<svg width="30" height="30" viewBox="0 0 30 30" fill="none" xmlns="http://www.w3.org/2000/svg">
<path fill-rule="evenodd" clip-rule="evenodd" d="M20.25 16.6259V12.2871C20.25 11.6037 19.9791 10.9474 19.4953 10.4637C19.0116 9.98086 18.3562 9.70898 17.6719 9.70898C15.4847 9.70898 11.8903 9.70898 9.70312 9.70898C9.01969 9.70898 8.36344 9.98086 7.87969 10.4637C7.39687 10.9474 7.125 11.6037 7.125 12.2871V16.6259C7.125 17.3093 7.39687 17.9646 7.87969 18.4484C8.36344 18.9321 9.01969 19.204 9.70312 19.204H17.6719C18.3562 19.204 19.0116 18.9321 19.4953 18.4484C19.9791 17.9646 20.25 17.3093 20.25 16.6259ZM18.8437 12.2871V16.6259C18.8437 16.9362 18.7209 17.2343 18.5006 17.4537C18.2812 17.674 17.9831 17.7977 17.6719 17.7977H9.70312C9.39188 17.7977 9.09375 17.674 8.87438 17.4537C8.655 17.2343 8.53125 16.9362 8.53125 16.6259V12.2871C8.53125 11.9759 8.655 11.6777 8.87438 11.4584C9.09375 11.239 9.39188 11.1152 9.70312 11.1152H17.6719C17.9831 11.1152 18.2812 11.239 18.5006 11.4584C18.7209 11.6777 18.8437 11.9759 18.8437 12.2871Z" fill="#CB1B5B"/>
<path fill-rule="evenodd" clip-rule="evenodd" d="M23.9578 16.2474V12.6427C23.9578 12.1421 23.7291 11.6686 23.3362 11.3574C22.9444 11.0461 22.4306 10.9308 21.9431 11.0452L19.3875 11.6424C19.0687 11.7174 18.8438 12.0005 18.8438 12.3277V16.5624C18.8438 16.8886 19.0687 17.1727 19.3875 17.2468L21.9431 17.8449C22.4306 17.9583 22.9444 17.844 23.3362 17.5327C23.7291 17.2215 23.9578 16.748 23.9578 16.2474ZM22.5516 12.6427V16.2474C22.5516 16.3186 22.5188 16.3861 22.4625 16.4302C22.4063 16.4752 22.3331 16.4911 22.2638 16.4752L20.25 16.0046V12.8855L22.2638 12.4149C22.3331 12.398 22.4063 12.4149 22.4625 12.459C22.5188 12.504 22.5516 12.5715 22.5516 12.6427Z" fill="#CB1B5B"/>
<path fill-rule="evenodd" clip-rule="evenodd" d="M2.84158 20.2059L1.25627 25.8806C1.03502 26.6719 1.25721 27.5212 1.83846 28.1025C2.41971 28.6837 3.26908 28.9059 4.06033 28.6847C4.06033 28.6847 7.67721 27.6741 9.66377 27.1425C9.66658 27.1416 9.6694 27.1416 9.67127 27.1406C10.3322 26.9559 11.0325 26.9672 11.6869 27.1725C11.6888 27.1734 11.6916 27.1744 11.6935 27.1744C12.9122 27.5438 14.205 27.7416 15.5428 27.7416C22.875 27.7416 28.8281 21.7894 28.8281 14.4572C28.8281 7.125 22.875 1.17188 15.5428 1.17188C8.21065 1.17188 2.25846 7.125 2.25846 14.4572C2.25846 15.7612 2.4469 17.0213 2.81815 18.2063C3.0169 18.8569 3.0244 19.5506 2.84158 20.2059ZM2.61002 26.2584L4.19627 20.5837C4.45127 19.6706 4.44002 18.7022 4.16252 17.7956C4.16252 17.7938 4.16158 17.7919 4.16158 17.79C3.83065 16.7362 3.66471 15.6159 3.66471 14.4572C3.66471 7.90125 8.9869 2.57812 15.5428 2.57812C22.0988 2.57812 27.4219 7.90125 27.4219 14.4572C27.4219 21.0131 22.0988 26.3353 15.5428 26.3353C14.3466 26.3353 13.1906 26.1591 12.1013 25.8291C11.191 25.5441 10.2178 25.5291 9.29908 25.7841C7.3069 26.3175 3.68252 27.3309 3.68252 27.3309C3.37971 27.4153 3.05533 27.33 2.83315 27.1078C2.61096 26.8856 2.52565 26.5613 2.61002 26.2584Z" fill="#CB1B5B"/>
</svg>
