<svg width="36" height="37" viewBox="0 0 36 37" fill="none" xmlns="http://www.w3.org/2000/svg">
<g clip-path="url(#clip0_11219_95739)">
<path d="M33.7092 18.2859C29.359 9.59387 29.4926 9.85862 29.4649 9.80952C29.2729 9.4701 28.9149 9.2739 28.5471 9.2739C28.3943 9.2739 7.44024 9.27123 7.35791 9.27868C7.00192 9.31001 6.68481 9.52201 6.51817 9.84057C6.51542 9.84591 6.51226 9.85097 6.50959 9.85631L2.29077 18.2859C2.28739 18.2925 2.28458 18.2994 2.28142 18.3062C2.27888 18.3114 2.27607 18.3164 2.27368 18.3217C2.27192 18.3255 2.27066 18.3294 2.26897 18.3332C2.2689 18.3333 2.26883 18.3335 2.26883 18.3336C2.10943 18.6961 2.16406 19.1253 2.43062 19.4389C2.43392 19.4429 2.43695 19.4471 2.44039 19.451L17.2062 36.3101C17.208 36.312 17.21 36.3137 17.2117 36.3157C17.6261 36.7816 18.3636 36.793 18.7882 36.3157C18.7899 36.3137 18.7919 36.312 18.7937 36.3101L33.5595 19.451C33.5603 19.4501 33.561 19.4492 33.5617 19.4483C33.8311 19.1387 33.9059 18.6791 33.7092 18.2859ZM26.8405 11.3813L24.148 16.761L20.1094 11.3813H26.8405ZM22.2188 17.7035H13.7812L18 12.0838L22.2188 17.7035ZM15.8906 11.3813L11.8519 16.7609L9.15952 11.3813H15.8906ZM7.45297 12.6837L9.96531 17.7035H4.9407L7.45297 12.6837ZM5.55847 19.8108H10.9408L14.9776 30.5653L5.55847 19.8108ZM18 32.6153L13.1937 19.8108H22.8063L18 32.6153ZM21.0224 30.5654L25.0591 19.8109H30.4415L21.0224 30.5654ZM26.0348 17.7035L28.5471 12.6837L31.0594 17.7035H26.0348Z" fill="#CB1B5B"/>
<path d="M18 0.703125C17.4175 0.703125 16.9453 1.17489 16.9453 1.7568V4.9179C16.9453 5.49981 17.4175 5.97158 18 5.97158C18.5825 5.97158 19.0547 5.49981 19.0547 4.9179V1.7568C19.0547 1.17489 18.5825 0.703125 18 0.703125Z" fill="#CB1B5B"/>
<path d="M14.527 5.22647L12.4176 3.11912C12.0058 2.70769 11.338 2.70769 10.9261 3.11912C10.5142 3.53061 10.5142 4.19773 10.9261 4.60923L13.0355 6.71658C13.4474 7.12808 14.1151 7.12808 14.527 6.71658C14.9389 6.30508 14.9389 5.63797 14.527 5.22647Z" fill="#CB1B5B"/>
<path d="M25.0739 3.11912C24.6621 2.70769 23.9942 2.70769 23.5824 3.11912L21.473 5.22647C21.0611 5.63797 21.0611 6.30508 21.473 6.71658C21.8849 7.12808 22.5527 7.12801 22.9645 6.71658L25.0739 4.60923C25.4858 4.19773 25.4858 3.53061 25.0739 3.11912Z" fill="#CB1B5B"/>
</g>
<defs>
<clipPath id="clip0_11219_95739">
<rect width="36" height="35.9655" fill="white" transform="translate(0 0.703125)"/>
</clipPath>
</defs>
</svg>
