<svg width="36" height="36" viewBox="0 0 36 36" fill="none" xmlns="http://www.w3.org/2000/svg">
<g clip-path="url(#clip0_11219_95756)">
<mask id="mask0_11219_95756" style="mask-type:luminance" maskUnits="userSpaceOnUse" x="0" y="0" width="36" height="36">
<path d="M0 0.00323868H36V35.9688H0V0.00323868Z" fill="white"/>
</mask>
<g mask="url(#mask0_11219_95756)">
<path d="M18.0712 5.58144C17.3372 5.46926 16.5856 5.4111 15.8203 5.4111C7.66554 5.4111 1.05469 12.0155 1.05469 20.1626C1.05469 28.3096 7.66554 34.9141 15.8203 34.9141C23.9752 34.9141 30.5859 28.3096 30.5859 20.1626C30.5859 17.7511 30.0066 15.4748 28.9796 13.4649" stroke="#CB1B5B" stroke-width="2.10937" stroke-miterlimit="10" stroke-linecap="round" stroke-linejoin="round"/>
<path d="M19.7647 9.19719L18.3416 10.6189C18.0779 10.8824 17.9297 11.2397 17.9297 11.6123V15.4793C17.9297 15.7832 17.831 16.079 17.6484 16.3222L16.2422 18.1954C15.9684 18.5602 15.8203 19.0038 15.8203 19.4598C15.8203 20.6237 16.7647 21.5671 17.9297 21.5671H19.8731C20.4057 21.5671 20.8927 21.8678 21.1309 22.3438L21.7597 23.6004C21.998 24.0763 22.485 24.377 23.0176 24.377H29.9664" stroke="#CB1B5B" stroke-width="2.10937" stroke-miterlimit="10" stroke-linecap="round" stroke-linejoin="round"/>
<path d="M21.447 33.7969L19.2956 28.2085C18.8954 27.169 17.8957 26.4831 16.7809 26.4831C15.7603 26.4831 14.8273 27.0591 14.371 27.971C13.9656 28.7812 13.1368 29.2929 12.2301 29.2929H10.97C10.0634 29.2929 9.23461 29.8046 8.82912 30.6148L7.85156 32.5681" stroke="#CB1B5B" stroke-width="2.10937" stroke-miterlimit="10" stroke-linecap="round" stroke-linejoin="round"/>
<path d="M1.79297 24.75L7.00123 23.9495C8.03025 23.7914 8.78991 22.9068 8.78991 21.8666V21.0352C8.78991 20.4763 9.01216 19.9403 9.40774 19.5451L10.6822 18.2719C11.2714 17.6832 11.6024 16.8848 11.6024 16.0523C11.6024 14.7257 10.7677 13.5425 9.51715 13.0963L4.13121 11.1746" stroke="#CB1B5B" stroke-width="2.10937" stroke-miterlimit="10" stroke-linecap="round" stroke-linejoin="round"/>
<path d="M26.5078 3.03386L25.8623 2.38894C24.0798 0.608154 21.1897 0.608154 19.4072 2.38894C17.6247 4.16979 17.6247 7.05701 19.4072 8.83786L26.5078 15.9316L33.6084 8.83786C35.391 7.05701 35.391 4.16979 33.6084 2.38894C31.8259 0.608154 28.9358 0.608154 27.1534 2.38894L26.5078 3.03386Z" stroke="#CB1B5B" stroke-width="2.10937" stroke-miterlimit="10" stroke-linecap="round" stroke-linejoin="round"/>
</g>
</g>
<defs>
<clipPath id="clip0_11219_95756">
<rect width="36" height="35.9655" fill="white"/>
</clipPath>
</defs>
</svg>
