<svg width="36" height="37" viewBox="0 0 36 37" fill="none" xmlns="http://www.w3.org/2000/svg">
<path d="M17.9981 34.7938C17.4209 34.7946 16.8492 34.6816 16.3159 34.4612C15.7825 34.2408 15.298 33.9174 14.8901 33.5095L13.2536 31.8731C13.0549 31.6735 12.8185 31.5152 12.5582 31.4074C12.2979 31.2997 12.0188 31.2445 11.7371 31.2452H9.82005C8.65479 31.244 7.5376 30.781 6.71363 29.9578C5.88967 29.1347 5.42624 28.0185 5.42505 26.8544V24.9407C5.42592 24.6593 5.37096 24.3806 5.26334 24.1205C5.15572 23.8605 4.99758 23.6243 4.79805 23.4257L3.16005 21.7908C2.33713 20.9665 1.875 19.8499 1.875 18.6857C1.875 17.5216 2.33713 16.4049 3.16005 15.5807L4.79805 13.9458C4.99785 13.7473 5.15627 13.5112 5.26415 13.2511C5.37203 12.9911 5.42723 12.7122 5.42655 12.4307V10.5156C5.42774 9.35142 5.89117 8.2353 6.71513 7.41212C7.5391 6.58895 8.65629 6.12597 9.82155 6.12478H11.7371C12.0187 6.12565 12.2978 6.07074 12.5581 5.96322C12.8184 5.8557 13.0547 5.69771 13.2536 5.49838L14.8901 3.86195C15.7151 3.03982 16.8328 2.57813 17.9981 2.57812C19.1633 2.57813 20.281 3.03982 21.1061 3.86195L22.7426 5.49838C22.9412 5.69798 23.1776 5.85625 23.4379 5.96403C23.6982 6.0718 23.9773 6.12695 24.2591 6.12627H26.1761C27.3413 6.12746 28.4585 6.59045 29.2825 7.41362C30.1064 8.2368 30.5699 9.35292 30.5711 10.5171V12.4307C30.5702 12.7121 30.6251 12.9909 30.7328 13.251C30.8404 13.511 30.9985 13.7472 31.1981 13.9458L32.8346 15.5807C33.6575 16.4049 34.1196 17.5216 34.1196 18.6857C34.1196 19.8499 33.6575 20.9665 32.8346 21.7908L31.1981 23.4257C30.9983 23.6242 30.8398 23.8603 30.732 24.1203C30.6241 24.3804 30.5689 24.6592 30.5696 24.9407V26.8559C30.5684 28.02 30.1049 29.1362 29.281 29.9593C28.457 30.7825 27.3398 31.2455 26.1746 31.2467H24.2591C23.9773 31.246 23.6982 31.3012 23.4379 31.4089C23.1776 31.5167 22.9412 31.675 22.7426 31.8746L21.1061 33.5095C20.6981 33.9174 20.2136 34.2408 19.6802 34.4612C19.1469 34.6816 18.5752 34.7946 17.9981 34.7938ZM9.82005 8.37262C9.25128 8.37302 8.70593 8.59892 8.30375 9.00071C7.90157 9.40251 7.67545 9.94734 7.67505 10.5156V12.4307C7.67713 13.0082 7.5643 13.5804 7.3431 14.114C7.1219 14.6475 6.79675 15.1318 6.38655 15.5387L4.75155 17.1722C4.34962 17.5747 4.1239 18.1201 4.1239 18.6887C4.1239 19.2573 4.34962 19.8027 4.75155 20.2053L6.38655 21.8387C6.79639 22.2453 7.12133 22.7291 7.34252 23.2621C7.5637 23.7951 7.67674 24.3667 7.67505 24.9437V26.8589C7.67545 27.4271 7.90157 27.972 8.30375 28.3737C8.70593 28.7755 9.25128 29.0014 9.82005 29.0018H11.7371C12.3146 29.0005 12.8866 29.1136 13.4201 29.3345C13.9536 29.5555 14.4379 29.8799 14.8451 30.2891L16.4801 31.9225C16.883 32.3241 17.4289 32.5496 17.9981 32.5496C18.5672 32.5496 19.1131 32.3241 19.5161 31.9225L21.1511 30.2891C21.5582 29.8799 22.0425 29.5555 22.576 29.3345C23.1095 29.1136 23.6815 29.0005 24.2591 29.0018H26.1761C26.7448 29.0014 27.2902 28.7755 27.6924 28.3737C28.0945 27.972 28.3207 27.4271 28.3211 26.8589V24.9407C28.3194 24.3637 28.4324 23.7921 28.6536 23.2591C28.8748 22.7261 29.1997 22.2423 29.6096 21.8357L31.2446 20.2023C31.6465 19.7997 31.8722 19.2543 31.8722 18.6857C31.8722 18.1171 31.6465 17.5718 31.2446 17.1692L29.6096 15.5387C29.2 15.132 28.8752 14.6481 28.6541 14.1152C28.4329 13.5822 28.3197 13.0107 28.3211 12.4337V10.5156C28.3207 9.94734 28.0945 9.40251 27.6924 9.00071C27.2902 8.59892 26.7448 8.37302 26.1761 8.37262H24.2591C23.681 8.3747 23.1083 8.26197 22.5742 8.04098C22.0401 7.82 21.5554 7.49516 21.1481 7.08535L19.5131 5.45192C19.1101 5.05037 18.5642 4.82487 17.9951 4.82487C17.4259 4.82487 16.88 5.05037 16.4771 5.45192L14.8481 7.08535C14.4411 7.4948 13.9568 7.81943 13.4233 8.0404C12.8898 8.26138 12.3176 8.3743 11.7401 8.37262H9.82005Z" fill="#CB1B5B"/>
<path d="M16.4993 22.8078C16.3515 22.8082 16.2052 22.7792 16.0687 22.7226C15.9322 22.666 15.8084 22.5829 15.7043 22.4781L12.7043 19.481C12.5056 19.2679 12.3974 18.9861 12.4025 18.695C12.4077 18.4038 12.5257 18.126 12.7318 17.9201C12.938 17.7141 13.216 17.5962 13.5075 17.5911C13.799 17.5859 14.081 17.694 14.2943 17.8925L16.4993 20.0939L21.7043 14.8954C21.9175 14.6969 22.1996 14.5888 22.4911 14.5939C22.7825 14.5991 23.0606 14.717 23.2667 14.9229C23.4728 15.1289 23.5909 15.4067 23.596 15.6978C23.6012 15.989 23.493 16.2708 23.2943 16.4839L17.2943 22.4781C17.1902 22.5829 17.0664 22.666 16.9299 22.7226C16.7934 22.7792 16.647 22.8082 16.4993 22.8078Z" fill="#CB1B5B"/>
</svg>
