<svg width="36" height="40" viewBox="0 0 36 40" fill="none" xmlns="http://www.w3.org/2000/svg">
<path d="M35.5496 39.3908C31.8823 37.3146 28.3688 34.9209 24.9638 32.3647C21.5588 29.8084 18.3757 26.9691 15.3247 23.9857C12.2712 20.9812 9.29166 17.8824 6.81857 14.3808C4.32699 10.9027 2.10714 7.19967 0.393033 3.26464C-0.0498333 2.25059 0.407095 1.08506 1.42114 0.642196C2.29298 0.259228 3.29086 0.565619 3.84796 1.28829L11.0959 11.2588C13.541 14.529 15.8515 17.9222 18.4598 21.1299C21.0657 24.3165 23.8297 27.3987 26.7098 30.3814C29.5924 33.3852 32.6651 36.1951 35.838 38.9502C35.9559 39.0427 35.9552 39.2136 35.8627 39.3316C35.7887 39.4259 35.6414 39.4437 35.5496 39.3908Z" fill="#CB1B5B"/>
</svg>
