<svg width="10" height="21" viewBox="0 0 10 21" fill="none" xmlns="http://www.w3.org/2000/svg">
<path d="M9.61863 20.865C9.00844 19.1554 8.383 17.4907 7.65077 15.856C6.91855 14.2363 6.15582 12.6466 5.31681 11.1169C4.4778 9.57218 3.47099 8.14745 2.63198 6.64773C1.79298 5.13302 0.908201 3.6633 0.145466 2.05861C-0.205392 1.32375 0.0997035 0.468911 0.831929 0.138973C1.3811 -0.115978 2.02179 -0.0109982 2.43367 0.378927C3.85236 1.65368 4.96595 3.18339 5.94225 4.78809C6.91855 6.39278 7.54399 8.17744 8.12367 9.9471C8.71861 11.7168 9.1915 13.5164 9.48134 15.3311C9.77118 17.1607 9.98475 18.9754 10 20.805C10 20.91 9.90847 21 9.80169 21C9.71016 20.985 9.64914 20.94 9.61863 20.865Z" fill="#DFB2C2"/>
</svg>
