<svg width="50" height="34" viewBox="0 0 50 34" fill="none" xmlns="http://www.w3.org/2000/svg">
<path d="M49.1628 33.8738C44.6086 32.6058 40.1358 30.9505 35.7372 29.0889C31.3385 27.2273 27.105 24.9975 22.9762 22.575C18.839 20.1304 14.7567 17.563 11.1169 14.42C7.46326 11.3077 4.04461 7.87691 1.11376 4.05675C0.357248 3.0726 0.539326 1.68009 1.52347 0.923573C2.36899 0.270746 3.53826 0.3343 4.3403 0.970311L14.9287 9.86384C18.4755 12.7624 21.909 15.8313 25.6166 18.6177C29.3157 21.3819 33.1588 23.9895 37.1013 26.4574C41.0523 28.9475 45.1579 31.1752 49.3575 33.3161C49.511 33.3849 49.5564 33.5712 49.4877 33.7246C49.4326 33.8474 49.2771 33.9066 49.1628 33.8738Z" fill="#CB1B5B"/>
</svg>
