<svg width="10" height="21" viewBox="0 0 10 21" fill="none" xmlns="http://www.w3.org/2000/svg">
<path d="M0.381368 20.865C0.991555 19.1554 1.617 17.4907 2.34923 15.856C3.08145 14.2363 3.84418 12.6466 4.68319 11.1169C5.5222 9.57218 6.52901 8.14745 7.36802 6.64773C8.20702 5.13302 9.0918 3.6633 9.85453 2.05861C10.2054 1.32375 9.9003 0.468911 9.16807 0.138973C8.6189 -0.115978 7.97821 -0.0109982 7.56633 0.378927C6.14764 1.65368 5.03405 3.18339 4.05775 4.78809C3.08145 6.39278 2.45601 8.17744 1.87633 9.9471C1.28139 11.7168 0.808499 13.5164 0.518661 15.3311C0.228821 17.1607 0.015255 18.9754 0 20.805C0 20.91 0.0915298 21 0.198313 21C0.289842 20.985 0.350859 20.94 0.381368 20.865Z" fill="#E780A5"/>
</svg>
