<svg width="34" height="42" viewBox="0 0 34 42" fill="none" xmlns="http://www.w3.org/2000/svg">
<path opacity="0.55" d="M0.293032 40.9964C1.78952 37.0568 3.62316 33.2212 5.63393 29.4681C7.6447 25.7151 9.96889 22.1385 12.4555 18.6707C14.9625 15.1971 17.5741 11.7824 20.6605 8.8073C23.7209 5.81745 27.0448 3.06211 30.6746 0.771509C31.6099 0.180095 32.8312 0.455132 33.4226 1.39036C33.9333 2.19409 33.7816 3.22688 33.1517 3.88706L24.3946 12.5621C21.5327 15.4745 18.5288 18.2725 15.7534 21.3368C12.9984 24.3955 10.3707 27.5946 7.85885 30.8934C5.3266 34.1979 3.01472 37.661 0.772179 41.2147C0.698618 41.3453 0.529583 41.3705 0.398987 41.2969C0.294509 41.2381 0.254599 41.0952 0.293032 40.9964Z" fill="#CB1B5B"/>
</svg>
