<svg width="18" height="21" viewBox="0 0 18 21" fill="none" xmlns="http://www.w3.org/2000/svg">
<path d="M1.22644 20.6237C3.01095 19.5954 4.69023 18.3879 6.32606 17.1021C7.96188 15.8164 9.48773 14.3928 10.9287 12.8864C12.3697 11.3801 13.8063 9.82083 14.9215 8.04788C16.0366 6.27494 17.0164 4.40318 17.656 2.38898C17.8979 1.6509 17.484 0.871652 16.7462 0.632789C16.1601 0.442158 15.5473 0.667668 15.2005 1.13219C13.9869 2.75803 12.9389 4.40221 11.8404 6.03031C10.7418 7.65841 9.77869 9.38533 8.63873 11.0088C7.50793 12.6439 6.28991 14.2168 5.02132 15.7737C3.76189 17.3421 2.39691 18.8254 0.978987 20.3134C0.907395 20.3893 0.904699 20.5042 0.980389 20.5755C1.06524 20.6582 1.16876 20.6697 1.22644 20.6237Z" fill="#CD698D"/>
</svg>
