<svg width="278" height="442" viewBox="0 0 278 442" fill="none" xmlns="http://www.w3.org/2000/svg">
<path d="M215.8 441.16H62.2C28.321 441.16 0.76001 413.599 0.76001 379.72V62.28C0.76001 28.4009 28.321 0.839966 62.2 0.839966H215.8C249.679 0.839966 277.24 28.4009 277.24 62.28V379.72C277.24 413.599 249.679 441.16 215.8 441.16ZM62.2 21.32C39.6157 21.32 21.24 39.6956 21.24 62.28V379.72C21.24 402.304 39.6157 420.68 62.2 420.68H215.8C238.384 420.68 256.76 402.304 256.76 379.72V62.28C256.76 39.6956 238.384 21.32 215.8 21.32H62.2Z" fill="black"/>
<path d="M180.626 72.52H97.3744C87.8051 72.52 78.8093 68.7875 72.0304 62.024C65.2618 55.2502 61.5344 46.2492 61.5344 36.68V11.08C61.5344 5.42749 66.1219 0.839966 71.7744 0.839966H206.226C211.878 0.839966 216.466 5.42749 216.466 11.08V36.68C216.466 46.2544 212.738 55.2553 205.97 62.0188C199.298 68.6953 190.062 72.52 180.626 72.52ZM82.0144 21.32V36.68C82.0144 40.7811 83.6119 44.6416 86.5098 47.5395C89.4128 50.4425 93.2733 52.04 97.3744 52.04H180.626C184.67 52.04 188.628 50.4016 191.49 47.5395C194.388 44.6416 195.986 40.7862 195.986 36.68V21.32H82.0144Z" fill="black"/>
<path d="M164.6 405.32H113.4C107.748 405.32 103.16 400.732 103.16 395.08C103.16 389.427 107.748 384.84 113.4 384.84H164.6C170.253 384.84 174.84 389.427 174.84 395.08C174.84 400.732 170.253 405.32 164.6 405.32Z" fill="black"/>
<g clip-path="url(#clip0_6539_166)">
<path d="M69.0517 187.606H68.5598C62.2549 187.606 57.1142 192.763 57.1142 199.052V248.884C57.1142 255.198 62.2549 260.338 68.5598 260.338H69.06C75.3649 260.338 80.5056 255.181 80.5056 248.884V199.052C80.4973 192.763 75.3486 187.606 69.0517 187.606Z" fill="#010002"/>
<path d="M85.9823 268.119C85.9823 273.907 90.7129 278.621 96.5013 278.621H107.742V305.538C107.742 311.859 112.899 317 119.188 317H119.679C125.993 317 131.141 311.851 131.141 305.538V278.621H146.85V305.538C146.85 311.859 152.024 317 158.312 317H158.796C165.109 317 170.25 311.851 170.25 305.538V278.621H181.499C187.279 278.621 192.01 273.907 192.01 268.119V189.435H85.9823V268.119Z" fill="#010002"/>
<path d="M165.404 141.717L174.333 127.935C174.907 127.066 174.652 125.878 173.775 125.312C172.906 124.738 171.717 124.976 171.151 125.869L161.895 140.127C154.951 137.282 147.195 135.684 139.004 135.684C130.805 135.684 123.065 137.282 116.105 140.127L106.865 125.869C106.299 124.976 105.102 124.738 104.225 125.312C103.347 125.877 103.093 127.066 103.667 127.935L112.604 141.717C96.4929 149.613 85.6296 164.494 85.6296 181.564C85.6296 182.613 85.6953 183.646 85.7854 184.671H192.23C192.321 183.646 192.378 182.613 192.378 181.564C192.378 164.494 181.507 149.613 165.404 141.717ZM114.326 166.396C111.497 166.396 109.201 164.116 109.201 161.28C109.201 158.443 111.497 156.172 114.326 156.172C117.17 156.172 119.45 158.443 119.45 161.28C119.45 164.117 117.154 166.396 114.326 166.396ZM163.674 166.396C160.846 166.396 158.55 164.116 158.55 161.28C158.55 158.443 160.846 156.172 163.674 156.172C166.511 156.172 168.79 158.443 168.79 161.28C168.79 164.116 166.511 166.396 163.674 166.396Z" fill="#010002"/>
<path d="M209.432 187.606H208.956C202.651 187.606 197.494 192.763 197.494 199.052V248.884C197.494 255.198 202.66 260.338 208.956 260.338H209.44C215.753 260.338 220.886 255.181 220.886 248.884V199.052C220.886 192.763 215.737 187.606 209.432 187.606Z" fill="#010002"/>
</g>
<defs>
<clipPath id="clip0_6539_166">
<rect width="192" height="192" fill="white" transform="translate(43 125)"/>
</clipPath>
</defs>
</svg>
