<svg width="160" height="29" viewBox="0 0 160 29" fill="none" xmlns="http://www.w3.org/2000/svg">
<path d="M0 28.3577V0H2.49387V28.3577H0Z" fill="#CB1B5B"/>
<path d="M9.53586 28.3577V12.7107C9.53586 11.9867 9.50904 11.2492 9.45541 10.4984C9.40178 9.74756 9.32133 8.9833 9.21407 8.20564H11.6275L11.9895 12.8314H11.5068C12.0968 11.2224 13.0487 9.9889 14.3627 9.13079C15.6767 8.27269 17.2052 7.84363 18.9482 7.84363C21.3348 7.84363 23.1315 8.4738 24.3382 9.73415C25.5717 10.9945 26.1885 12.9655 26.1885 15.647V28.3577H23.7348V15.8482C23.7348 13.7833 23.3192 12.2951 22.4879 11.3833C21.6566 10.4448 20.3695 9.97549 18.6264 9.97549C16.5884 9.97549 14.9661 10.5923 13.7593 11.8258C12.5795 13.0593 11.9895 14.7219 11.9895 16.8135V28.3577H9.53586Z" fill="#CB1B5B"/>
<path d="M39.3065 28.6795C37.7511 28.6795 36.2897 28.4516 34.9221 27.9957C33.5813 27.5399 32.4684 26.9097 31.5835 26.1052L32.5489 24.2951C33.5411 25.0996 34.6137 25.703 35.7668 26.1052C36.9198 26.4806 38.1266 26.6683 39.3869 26.6683C41.1031 26.6683 42.4037 26.3466 43.2886 25.703C44.1735 25.0594 44.616 24.1879 44.616 23.0884C44.616 22.2303 44.3344 21.5331 43.7713 20.9968C43.2082 20.4605 42.2696 20.0582 40.9556 19.7901L37.3355 19.0258C35.6193 18.6236 34.3321 17.98 33.474 17.0951C32.6427 16.2102 32.2271 15.0973 32.2271 13.7565C32.2271 12.6034 32.5221 11.5844 33.112 10.6995C33.7288 9.8146 34.6003 9.11738 35.7265 8.60788C36.8528 8.09838 38.1802 7.84363 39.7087 7.84363C41.1567 7.84363 42.4841 8.08498 43.6908 8.56766C44.9244 9.02353 45.93 9.68052 46.7076 10.5386L45.6618 12.3085C44.8573 11.504 43.9456 10.9006 42.9266 10.4984C41.9344 10.0962 40.8752 9.89505 39.7489 9.89505C38.0863 9.89505 36.826 10.2437 35.9679 10.9409C35.1098 11.6113 34.6807 12.5096 34.6807 13.6359C34.6807 14.494 34.9489 15.2046 35.4852 15.7677C36.0215 16.304 36.8662 16.7063 38.0193 16.9744L41.6394 17.7789C43.4629 18.1811 44.8171 18.7979 45.702 19.6292C46.587 20.4605 47.0294 21.5599 47.0294 22.9275C47.0294 24.1074 46.7076 25.1398 46.064 26.0248C45.4205 26.8829 44.5221 27.5399 43.3691 27.9957C42.216 28.4516 40.8618 28.6795 39.3065 28.6795Z" fill="#CB1B5B"/>
<path d="M58.9862 28.6795C57.1896 28.6795 55.8086 28.1432 54.8432 27.0706C53.9046 25.998 53.4354 24.3488 53.4354 22.1231V10.1766H49.413V8.20564H53.4354V2.57432L55.889 1.76985V8.20564H61.8421V10.1766H55.889V21.7611C55.889 23.4504 56.1572 24.6706 56.6935 25.4214C57.2298 26.1723 58.0879 26.5477 59.2678 26.5477C59.8041 26.5477 60.2734 26.494 60.6756 26.3868C61.1047 26.2795 61.4667 26.1588 61.7617 26.0248V28.1969C61.4399 28.3309 61.0242 28.4382 60.5147 28.5186C60.0052 28.6259 59.4957 28.6795 58.9862 28.6795Z" fill="#CB1B5B"/>
<path d="M73.6645 28.6795C71.841 28.6795 70.2588 28.2639 68.9181 27.4326C67.5773 26.6013 66.5449 25.408 65.8208 23.8527C65.0968 22.2974 64.7348 20.4337 64.7348 18.2616C64.7348 16.0895 65.0968 14.2392 65.8208 12.7107C66.5717 11.1554 67.6175 9.96208 68.9583 9.13079C70.2991 8.27269 71.8678 7.84363 73.6645 7.84363C75.5147 7.84363 77.1103 8.32632 78.4511 9.29169C79.8187 10.2571 80.717 11.571 81.1461 13.2336H80.6634L81.0656 8.20564H83.4388C83.3584 8.9833 83.2779 9.74756 83.1975 10.4984C83.1439 11.2492 83.117 11.9867 83.117 12.7107V28.3577H80.6634V23.3298H81.1059C80.6768 24.9924 79.7785 26.3063 78.4109 27.2717C77.0701 28.2103 75.4879 28.6795 73.6645 28.6795ZM73.9862 26.5879C76.0511 26.5879 77.6868 25.8773 78.8935 24.456C80.1003 23.0348 80.7036 20.97 80.7036 18.2616C80.7036 15.5532 80.1003 13.4884 78.8935 12.0671C77.6868 10.6459 76.0511 9.93527 73.9862 9.93527C71.9214 9.93527 70.2722 10.6459 69.0387 12.0671C67.832 13.4884 67.2287 15.5532 67.2287 18.2616C67.2287 20.97 67.832 23.0348 69.0387 24.456C70.2722 25.8773 71.9214 26.5879 73.9862 26.5879Z" fill="#CB1B5B"/>
<path d="M89.5859 28.3577V0H99.8832C103.128 0 105.863 0.563133 108.089 1.6894C110.341 2.78885 112.044 4.3978 113.197 6.51625C114.35 8.60788 114.927 11.1554 114.927 14.1588C114.927 17.1353 114.35 19.6828 113.197 21.8013C112.044 23.9197 110.341 25.5421 108.089 26.6683C105.863 27.7946 103.128 28.3577 99.8832 28.3577H89.5859ZM94.7748 24.0538H99.5614C102.994 24.0538 105.541 23.2359 107.204 21.6002C108.867 19.9644 109.698 17.4839 109.698 14.1588C109.698 10.8068 108.867 8.32632 107.204 6.71737C105.541 5.0816 102.994 4.26372 99.5614 4.26372H94.7748V24.0538Z" fill="#CB1B5B"/>
<path fill-rule="evenodd" clip-rule="evenodd" d="M128.991 28.76C126.9 28.76 125.09 28.331 123.561 27.4729C122.033 26.6148 120.839 25.3947 119.981 23.8125C119.272 22.4622 118.865 20.897 118.761 19.1169C118.812 19.1424 118.869 19.1568 118.93 19.1568H123.892C124.054 19.1568 124.197 19.0534 124.248 18.9001L126.346 12.5887L128.618 24.1217C128.651 24.2917 128.797 24.4166 128.97 24.4239C129.143 24.4311 129.299 24.3188 129.346 24.1522L131.942 15.0653L133.739 18.9395C133.8 19.072 133.933 19.1568 134.079 19.1568H139.042C139.124 19.1568 139.201 19.1299 139.263 19.0845C139.159 20.878 138.738 22.454 138.002 23.8125C137.17 25.3947 135.977 26.6148 134.422 27.4729C132.893 28.331 131.083 28.76 128.991 28.76ZM139.286 18.4971C139.22 18.4408 139.135 18.4068 139.042 18.4068H134.318L132.199 13.8355C132.133 13.6934 131.986 13.6072 131.83 13.6194C131.673 13.6316 131.541 13.7396 131.498 13.8902L129.053 22.4494L126.807 11.0476C126.774 10.8806 126.633 10.7566 126.463 10.7459C126.293 10.7351 126.137 10.8402 126.083 11.0018L123.622 18.4068H118.93C118.859 18.4068 118.793 18.4263 118.737 18.4602C118.735 18.3677 118.734 18.2747 118.734 18.1812C118.734 16.0091 119.15 14.1454 119.981 12.5901C120.839 11.008 122.033 9.78785 123.561 8.92974C125.09 8.07163 126.9 7.64258 128.991 7.64258C131.083 7.64258 132.893 8.07163 134.422 8.92974C135.977 9.78785 137.17 11.008 138.002 12.5901C138.86 14.1454 139.289 16.0091 139.289 18.1812C139.289 18.2872 139.288 18.3925 139.286 18.4971Z" fill="#CB1B5B"/>
<path d="M152.961 28.76C150.869 28.76 149.032 28.331 147.45 27.4729C145.895 26.6148 144.688 25.3947 143.83 23.8125C142.972 22.2036 142.543 20.2997 142.543 18.1008C142.543 15.9019 142.972 14.0247 143.83 12.4694C144.715 10.9141 145.935 9.72081 147.49 8.88951C149.046 8.05822 150.869 7.64258 152.961 7.64258C154.302 7.64258 155.602 7.85711 156.863 8.28616C158.15 8.6884 159.196 9.27834 160 10.056L158.472 13.5555C157.748 12.8851 156.93 12.389 156.018 12.0672C155.133 11.7186 154.261 11.5443 153.403 11.5443C151.607 11.5443 150.199 12.1074 149.18 13.2337C148.188 14.3599 147.692 15.9957 147.692 18.141C147.692 20.2862 148.188 21.9354 149.18 23.0885C150.199 24.2416 151.607 24.8181 153.403 24.8181C154.235 24.8181 155.093 24.6572 155.978 24.3354C156.889 24.0136 157.721 23.5176 158.472 22.8472L160 26.3064C159.169 27.0841 158.11 27.6874 156.822 28.1165C155.562 28.5455 154.275 28.76 152.961 28.76Z" fill="#CB1B5B"/>
</svg>
