<svg width="719" height="251" viewBox="0 0 719 251" fill="none" xmlns="http://www.w3.org/2000/svg">
<mask id="mask0_8483_142274" style="mask-type:luminance" maskUnits="userSpaceOnUse" x="65" y="40" width="156" height="211">
<path d="M220.038 40.2598H65.5273V250.043H220.038V40.2598Z" fill="white"/>
</mask>
<g mask="url(#mask0_8483_142274)">
<path d="M210.699 212.145H190.04V252.558H151.048V212.145H75.1281L73.1914 187.484L150.789 64.5664H181.648H190.04V180.77H210.699V212.145ZM151.048 180.77V117.374L148.465 121.893L111.409 180.77H151.048Z" fill="#FAE8EF"/>
</g>
<mask id="mask1_8483_142274" style="mask-type:luminance" maskUnits="userSpaceOnUse" x="472" y="40" width="156" height="211">
<path d="M627.042 40.2598H472.531V250.043H627.042V40.2598Z" fill="white"/>
</mask>
<g mask="url(#mask1_8483_142274)">
<path d="M617.703 212.145H597.044V252.558H558.052V212.145H482.132L480.195 187.484L557.793 64.5664H588.652H597.044V180.77H617.703V212.145ZM558.052 180.77V117.374L555.469 121.893L518.413 180.77H558.052Z" fill="#FAE8EF"/>
</g>
<path fill-rule="evenodd" clip-rule="evenodd" d="M563.117 86.4307C563.117 86.4307 563.117 86.4308 563.43 86.4203C563.744 86.4099 563.744 86.41 563.744 86.4102L563.744 86.4108L563.744 86.4126L563.745 86.4191L563.745 86.4429C563.746 86.4636 563.746 86.4937 563.747 86.5325C563.747 86.6102 563.747 86.7231 563.745 86.8659C563.74 87.1514 563.724 87.5573 563.682 88.0419C563.598 89.0092 563.407 90.2994 562.979 91.5751C562.552 92.8485 561.881 94.1303 560.821 95.0547C559.751 95.9873 558.307 96.5359 556.387 96.372L556.44 95.7461C558.199 95.8963 559.472 95.397 560.408 94.5813C561.353 93.7573 561.977 92.5902 562.384 91.3754C562.791 90.1628 562.974 88.9256 563.056 87.9875C563.097 87.5194 563.112 87.1281 563.117 86.8546C563.119 86.7179 563.119 86.6108 563.118 86.5385C563.118 86.5023 563.118 86.4748 563.117 86.4566L563.117 86.4365L563.117 86.4318L563.117 86.4308L563.117 86.4307Z" fill="#FF2576"/>
<path fill-rule="evenodd" clip-rule="evenodd" d="M563.12 86.4102C563.12 86.41 563.12 86.4099 563.434 86.4203C563.748 86.4308 563.748 86.4307 563.748 86.4307L563.748 86.4318L563.747 86.4365L563.747 86.4566C563.747 86.4748 563.746 86.5023 563.746 86.5385C563.745 86.6108 563.745 86.7179 563.747 86.8546C563.752 87.1281 563.767 87.5194 563.808 87.9875C563.89 88.9256 564.074 90.1628 564.48 91.3754C564.888 92.5902 565.511 93.7573 566.456 94.5813C567.392 95.397 568.665 95.8963 570.424 95.7461L570.477 96.372C568.557 96.5359 567.113 95.9873 566.043 95.0547C564.983 94.1303 564.312 92.8485 563.885 91.5751C563.457 90.2994 563.267 89.0092 563.182 88.0419C563.14 87.5573 563.125 87.1514 563.119 86.8659C563.117 86.7231 563.117 86.6102 563.118 86.5325C563.118 86.4937 563.119 86.4636 563.119 86.4429L563.12 86.4191L563.12 86.4126L563.12 86.4102Z" fill="#FF2576"/>
<path fill-rule="evenodd" clip-rule="evenodd" d="M563.589 105.763C563.744 105.768 563.744 105.768 563.744 105.768L563.744 105.765L563.744 105.761L563.749 105.761C563.751 105.598 563.751 105.438 563.75 105.28C563.755 105.01 563.771 104.634 563.809 104.19C563.891 103.252 564.075 102.014 564.482 100.802C564.889 99.5866 565.512 98.4193 566.457 97.5952C567.393 96.7793 568.667 96.2799 570.425 96.43L570.479 95.8042C568.558 95.6403 567.114 96.1889 566.045 97.1218C564.984 98.0463 564.313 99.3284 563.886 100.602C563.708 101.134 563.571 101.669 563.465 102.181C563.104 100.284 562.431 98.9355 561.629 97.9825C561.388 97.6725 561.12 97.3829 560.821 97.1218C559.822 96.2514 558.499 95.7155 556.766 95.7807C556.747 95.7811 556.728 95.7816 556.71 95.7821C556.606 95.7853 556.524 95.7909 556.466 95.7959C556.437 95.7984 556.414 95.8007 556.398 95.8026L556.379 95.8048L556.374 95.8055L556.372 95.8058L556.371 95.8059C556.371 95.8059 556.371 95.8059 556.413 96.1171L556.371 95.8059L556.44 96.43C556.556 96.4201 556.671 96.413 556.783 96.4086C556.962 96.4053 557.205 96.411 557.492 96.443C558.127 96.514 558.969 96.7135 559.805 97.2252C560.26 97.5038 560.721 97.8797 561.149 98.388C561.695 99.0976 562.094 99.9376 562.384 100.802C562.79 102.014 562.974 103.252 563.056 104.19C563.096 104.658 563.111 105.05 563.116 105.323C563.119 105.46 563.119 105.567 563.118 105.64C563.118 105.676 563.117 105.703 563.117 105.721L563.116 105.742L563.116 105.746L563.116 105.747C563.116 105.747 563.116 105.747 563.121 105.747L563.121 105.759L563.121 105.765L563.121 105.767C563.121 105.767 563.121 105.768 563.433 105.758L563.121 105.768L563.589 105.763ZM556.455 96.4284C556.455 96.4284 556.455 96.4284 556.455 96.4284V96.4284Z" fill="#FF2576"/>
<path fill-rule="evenodd" clip-rule="evenodd" d="M80.1088 183.786C80.1088 183.786 80.1088 183.786 80.4227 183.776C80.7365 183.765 80.7365 183.765 80.7366 183.766L80.7366 183.766L80.7366 183.768L80.7368 183.775L80.7374 183.798C80.7378 183.819 80.7384 183.849 80.7387 183.888C80.7395 183.966 80.7396 184.079 80.737 184.221C80.7319 184.507 80.7162 184.913 80.674 185.397C80.5899 186.365 80.3994 187.655 79.9717 188.931C79.5447 190.204 78.8735 191.486 77.8131 192.41C76.7433 193.343 75.2997 193.891 73.3789 193.727L73.4323 193.102C75.1913 193.252 76.4646 192.752 77.4004 191.937C78.3456 191.113 78.9688 189.946 79.3762 188.731C79.7827 187.518 79.9667 186.281 80.0483 185.343C80.089 184.875 80.1041 184.484 80.109 184.21C80.1115 184.073 80.1114 183.966 80.1107 183.894C80.1103 183.858 80.1098 183.83 80.1095 183.812L80.109 183.792L80.1088 183.787L80.1088 183.786L80.1088 183.786Z" fill="#CB1B5B"/>
<path fill-rule="evenodd" clip-rule="evenodd" d="M80.112 183.766C80.112 183.765 80.112 183.765 80.4259 183.776C80.7398 183.786 80.7398 183.786 80.7398 183.786L80.7397 183.787L80.7396 183.792L80.7391 183.812C80.7387 183.83 80.7382 183.858 80.7379 183.894C80.7372 183.966 80.7371 184.073 80.7396 184.21C80.7445 184.484 80.7595 184.875 80.8003 185.343C80.8819 186.281 81.0658 187.518 81.4724 188.731C81.8798 189.946 82.5029 191.113 83.4482 191.937C84.3839 192.752 85.6573 193.252 87.4163 193.102L87.4697 193.727C85.5489 193.891 84.1053 193.343 83.0354 192.41C81.975 191.486 81.3039 190.204 80.8769 188.931C80.4492 187.655 80.2587 186.365 80.1745 185.397C80.1324 184.913 80.1167 184.507 80.1116 184.221C80.109 184.079 80.1091 183.966 80.1098 183.888C80.1102 183.849 80.1107 183.819 80.1112 183.798L80.1118 183.775L80.1119 183.768L80.112 183.766Z" fill="#CB1B5B"/>
<path fill-rule="evenodd" clip-rule="evenodd" d="M80.5816 203.118C80.7361 203.124 80.7361 203.123 80.7361 203.123L80.7362 203.121L80.7363 203.117L80.7413 203.117C80.7431 202.954 80.7433 202.794 80.7418 202.636C80.7474 202.365 80.763 201.99 80.8016 201.546C80.8833 200.607 81.0672 199.37 81.4738 198.157C81.8811 196.942 82.5043 195.775 83.4496 194.951C84.3853 194.135 85.6587 193.635 87.4176 193.785L87.471 193.16C85.5503 192.996 84.1067 193.544 83.0368 194.477C81.9764 195.402 81.3053 196.684 80.8783 197.958C80.6999 198.49 80.5628 199.024 80.4575 199.537C80.0963 197.639 79.4236 196.291 78.6213 195.338C78.3807 195.028 78.1122 194.738 77.8127 194.477C76.8145 193.607 75.491 193.071 73.7582 193.136C73.7389 193.137 73.7203 193.137 73.7024 193.138C73.5985 193.141 73.5159 193.146 73.4582 193.151C73.4294 193.154 73.4067 193.156 73.3906 193.158L73.3716 193.16L73.3659 193.161L73.364 193.161L73.3633 193.161C73.363 193.161 73.3628 193.161 73.4052 193.473L73.3633 193.161L73.4319 193.785C73.5485 193.776 73.663 193.768 73.7754 193.764C73.9543 193.761 74.1974 193.766 74.4843 193.798C75.1192 193.869 75.9609 194.069 76.7971 194.581C77.2522 194.859 77.7132 195.235 78.1409 195.744C78.6872 196.453 79.086 197.293 79.3757 198.157C79.7823 199.37 79.9662 200.607 80.0479 201.546C80.0886 202.014 80.1037 202.405 80.1086 202.679C80.111 202.816 80.1109 202.923 80.1103 202.995C80.1099 203.031 80.1094 203.059 80.109 203.077L80.1085 203.097L80.1084 203.102L80.1084 203.103C80.1084 203.103 80.1084 203.103 80.1128 203.103L80.1131 203.114L80.1133 203.121L80.1134 203.123C80.1134 203.123 80.1134 203.124 80.4248 203.113L80.1134 203.124L80.5816 203.118ZM73.447 193.784C73.4469 193.784 73.4469 193.784 73.447 193.784V193.784Z" fill="#CB1B5B"/>
<path d="M126.256 73C126.256 73 125.186 96.4076 110 94.6607C110 94.6607 126.646 94.5636 126.256 117C126.256 117 125.671 93.9796 143 95.0003C143 95.0003 128.107 94.7578 126.256 73Z" fill="#CB1B5B"/>
<path d="M632.764 172C632.764 172 631.725 194.876 617 193.168C617 193.168 633.142 193.074 632.764 215C632.764 215 632.196 192.503 649 193.5C649 193.5 634.558 193.263 632.764 172Z" fill="#CB1B5B"/>
<path fill-rule="evenodd" clip-rule="evenodd" d="M91.5977 34.6949C91.5977 34.5215 91.7383 34.3809 91.9117 34.3809H108.699C108.873 34.3809 109.013 34.5215 109.013 34.6949C109.013 34.8683 108.873 35.009 108.699 35.009H91.9117C91.7383 35.009 91.5977 34.8683 91.5977 34.6949Z" fill="#CB1B5B"/>
<path fill-rule="evenodd" clip-rule="evenodd" d="M108.383 37.9039C108.383 37.7304 108.523 37.5898 108.697 37.5898H134.495C134.669 37.5898 134.809 37.7304 134.809 37.9039C134.809 38.0773 134.669 38.2179 134.495 38.2179H108.697C108.523 38.2179 108.383 38.0773 108.383 37.9039Z" fill="#CB1B5B"/>
<path fill-rule="evenodd" clip-rule="evenodd" d="M143.836 34.6949C143.836 34.5215 143.977 34.3809 144.15 34.3809H160.938C161.111 34.3809 161.252 34.5215 161.252 34.6949C161.252 34.8683 161.111 35.009 160.938 35.009H144.15C143.977 35.009 143.836 34.8683 143.836 34.6949Z" fill="#CB1B5B"/>
<path fill-rule="evenodd" clip-rule="evenodd" d="M126.876 20.8178C125.676 20.6917 124.411 20.9712 123.132 21.6235C121.987 22.2074 120.97 23.0122 120.138 23.9916C120.03 24.118 119.489 24.8602 119.021 25.6122C118.787 25.9875 118.581 26.3512 118.457 26.6327C118.395 26.7749 118.362 26.8779 118.351 26.9424C118.417 27.0494 118.415 27.1907 118.335 27.2974C118.231 27.4359 118.034 27.4636 117.895 27.3592C117.895 27.3592 117.895 27.3592 117.895 27.3592C116.804 26.5371 115.523 25.7405 114.178 25.2675C112.837 24.7958 111.45 24.6523 110.126 25.104C108.808 25.6159 107.7 26.5547 106.979 27.7705C106.244 29.0185 105.664 30.3514 105.251 31.7396C105.212 31.8728 105.089 31.9642 104.95 31.9642H94.9351C94.7617 31.9642 94.6211 31.8236 94.6211 31.6501C94.6211 31.4767 94.7617 31.3361 94.9351 31.3361H104.717C105.14 29.9796 105.717 28.6761 106.438 27.4515L106.439 27.4507C107.233 26.1118 108.453 25.0783 109.905 24.5161C109.909 24.5146 109.913 24.5132 109.916 24.5118C111.417 23.9981 112.956 24.1721 114.387 24.675C115.628 25.1115 116.802 25.8007 117.822 26.5267C117.84 26.4781 117.861 26.4291 117.882 26.3802C118.024 26.0567 118.25 25.6625 118.488 25.2802C118.962 24.5175 119.522 23.7462 119.659 23.585C120.545 22.5424 121.628 21.6856 122.846 21.064C124.209 20.369 125.596 20.0518 126.942 20.1931C128.29 20.3348 129.574 20.9346 130.728 22.0319C130.731 22.0349 130.734 22.038 130.737 22.0412C131.872 23.2139 132.863 24.516 133.692 25.9203C135.727 24.7431 138.449 23.8119 140.835 24.7294C142.277 25.2859 143.238 26.4071 143.882 27.6968C144.48 28.8965 144.815 30.2599 145.012 31.5006H151.119C151.293 31.5006 151.433 31.6412 151.433 31.8147C151.433 31.9881 151.293 32.1287 151.119 32.1287H144.742C144.586 32.1287 144.453 32.0142 144.431 31.8599C144.245 30.5799 143.919 29.1789 143.32 27.9773C142.721 26.7785 141.861 25.7986 140.609 25.3156M126.876 20.8178C128.072 20.9434 129.227 21.4737 130.29 22.4826L126.876 20.8178ZM130.29 22.4826C131.46 23.6929 132.474 25.0451 133.307 26.5076C133.349 26.5813 133.419 26.6349 133.501 26.6562C133.583 26.6774 133.67 26.6646 133.743 26.6206C135.765 25.3922 138.4 24.4665 140.609 25.3156" fill="#CB1B5B"/>
<path fill-rule="evenodd" clip-rule="evenodd" d="M649.344 142.097C649.344 141.924 649.484 141.783 649.658 141.783H666.445C666.619 141.783 666.76 141.924 666.76 142.097C666.76 142.271 666.619 142.411 666.445 142.411H649.658C649.484 142.411 649.344 142.271 649.344 142.097Z" fill="#CB1B5B"/>
<path fill-rule="evenodd" clip-rule="evenodd" d="M666.129 145.306C666.129 145.133 666.27 144.992 666.443 144.992H692.241C692.415 144.992 692.555 145.133 692.555 145.306C692.555 145.48 692.415 145.62 692.241 145.62H666.443C666.27 145.62 666.129 145.48 666.129 145.306Z" fill="#CB1B5B"/>
<path fill-rule="evenodd" clip-rule="evenodd" d="M701.582 142.097C701.582 141.924 701.723 141.783 701.896 141.783H718.684C718.857 141.783 718.998 141.924 718.998 142.097C718.998 142.271 718.857 142.411 718.684 142.411H701.896C701.723 142.411 701.582 142.271 701.582 142.097Z" fill="#CB1B5B"/>
<path fill-rule="evenodd" clip-rule="evenodd" d="M684.622 128.22C683.422 128.094 682.157 128.374 680.878 129.026C679.733 129.61 678.716 130.415 677.884 131.394C677.777 131.52 677.235 132.263 676.767 133.015C676.533 133.39 676.327 133.754 676.203 134.035C676.141 134.177 676.108 134.28 676.097 134.345C676.164 134.452 676.161 134.593 676.081 134.7C675.977 134.838 675.78 134.866 675.641 134.762C675.641 134.762 675.641 134.762 675.641 134.762C674.55 133.939 673.269 133.143 671.924 132.67C670.583 132.198 669.196 132.055 667.872 132.506C666.554 133.018 665.446 133.957 664.725 135.173C663.99 136.421 663.41 137.754 662.997 139.142C662.958 139.275 662.835 139.367 662.696 139.367H652.681C652.508 139.367 652.367 139.226 652.367 139.052C652.367 138.879 652.508 138.738 652.681 138.738H662.463C662.886 137.382 663.463 136.078 664.184 134.854L664.185 134.853C664.979 133.514 666.199 132.481 667.651 131.918C667.655 131.917 667.659 131.916 667.663 131.914C669.163 131.4 670.702 131.574 672.133 132.077C673.374 132.514 674.548 133.203 675.568 133.929C675.586 133.88 675.607 133.831 675.628 133.783C675.77 133.459 675.996 133.065 676.234 132.683C676.709 131.92 677.268 131.149 677.405 130.987C678.291 129.945 679.374 129.088 680.592 128.466C681.955 127.771 683.342 127.454 684.688 127.595C686.036 127.737 687.32 128.337 688.474 129.434C688.477 129.437 688.48 129.44 688.483 129.444C689.618 130.616 690.609 131.918 691.439 133.323C693.473 132.145 696.195 131.214 698.581 132.132C700.023 132.688 700.984 133.809 701.628 135.099C702.227 136.299 702.561 137.662 702.758 138.903H708.865C709.039 138.903 709.179 139.044 709.179 139.217C709.179 139.39 709.039 139.531 708.865 139.531H702.488C702.332 139.531 702.199 139.417 702.177 139.262C701.991 137.982 701.666 136.581 701.066 135.38C700.467 134.181 699.607 133.201 698.355 132.718M684.622 128.22C685.818 128.346 686.973 128.876 688.037 129.885L684.622 128.22ZM688.037 129.885C689.206 131.095 690.22 132.447 691.053 133.91C691.095 133.984 691.165 134.037 691.247 134.059C691.329 134.08 691.416 134.067 691.489 134.023C693.511 132.795 696.146 131.869 698.355 132.718" fill="#CB1B5B"/>
<path fill-rule="evenodd" clip-rule="evenodd" d="M585.383 38.2066C585.383 38.0332 585.523 37.8926 585.697 37.8926H596.302C596.475 37.8926 596.616 38.0332 596.616 38.2066C596.616 38.3801 596.475 38.5207 596.302 38.5207H585.697C585.523 38.5207 585.383 38.3801 585.383 38.2066Z" fill="#CB1B5B"/>
<path fill-rule="evenodd" clip-rule="evenodd" d="M595.988 40.234C595.988 40.0605 596.129 39.9199 596.302 39.9199H612.599C612.773 39.9199 612.914 40.0605 612.914 40.234C612.914 40.4074 612.773 40.548 612.599 40.548H596.302C596.129 40.548 595.988 40.4074 595.988 40.234Z" fill="#CB1B5B"/>
<path fill-rule="evenodd" clip-rule="evenodd" d="M618.383 38.2066C618.383 38.0332 618.523 37.8926 618.697 37.8926H629.302C629.475 37.8926 629.616 38.0332 629.616 38.2066C629.616 38.3801 629.475 38.5207 629.302 38.5207H618.697C618.523 38.5207 618.383 38.3801 618.383 38.2066Z" fill="#CB1B5B"/>
<path fill-rule="evenodd" clip-rule="evenodd" d="M623.941 36.3883C623.941 36.2148 624.082 36.0742 624.255 36.0742H628.31C628.484 36.0742 628.624 36.2148 628.624 36.3883C628.624 36.5617 628.484 36.7023 628.31 36.7023H624.255C624.082 36.7023 623.941 36.5617 623.941 36.3883Z" fill="#CB1B5B"/>
<path fill-rule="evenodd" clip-rule="evenodd" d="M607.771 29.5566C606.979 29.4603 606.178 29.6316 605.495 30.0433C605.488 30.0471 605.482 30.0507 605.475 30.0541C604.766 30.4161 604.136 30.915 603.621 31.5219C603.558 31.5959 603.219 32.0595 602.925 32.5323C602.778 32.7681 602.651 32.9922 602.576 33.1623C602.55 33.2219 602.534 33.2664 602.525 33.297C602.566 33.3961 602.555 33.5134 602.486 33.605C602.381 33.7435 602.184 33.7712 602.046 33.6669C602.046 33.6669 602.046 33.6668 602.046 33.6668C601.362 33.1515 600.563 32.6559 599.729 32.3625C598.897 32.0702 598.05 31.985 597.247 32.2584C596.44 32.5725 595.762 33.1475 595.32 33.892C594.86 34.6718 594.497 35.5049 594.239 36.3728C594.199 36.506 594.077 36.5973 593.938 36.5973H587.611C587.437 36.5973 587.297 36.4567 587.297 36.2833C587.297 36.1098 587.437 35.9692 587.611 35.9692H593.706C593.973 35.1329 594.333 34.329 594.779 33.5724L594.779 33.5717C595.294 32.7044 596.085 32.0349 597.026 31.6704C597.03 31.6689 597.033 31.6675 597.037 31.6662C598.017 31.3308 599.017 31.4466 599.937 31.7699C600.687 32.0336 601.396 32.4397 602.018 32.8718C602.112 32.6676 602.25 32.4287 602.392 32.2003C602.693 31.716 603.05 31.2233 603.142 31.1158L603.142 31.1156C603.708 30.4481 604.401 29.899 605.18 29.4997C605.981 29.0197 606.919 28.8203 607.847 28.9331C608.777 29.0464 609.644 29.468 610.307 30.1306L610.311 30.1345L610.311 30.1346C611.007 30.8548 611.62 31.6514 612.136 32.509C613.42 31.7853 615.13 31.2188 616.648 31.8047L616.535 32.0977L616.648 31.8047C617.594 32.1697 618.219 32.9041 618.634 33.7356C619.003 34.4764 619.215 35.3107 619.343 36.0741H623.103C623.277 36.0741 623.417 36.2147 623.417 36.3882C623.417 36.5616 623.277 36.7022 623.103 36.7022H619.075C618.919 36.7022 618.787 36.588 618.764 36.4339C618.646 35.6308 618.443 34.7594 618.072 34.0159C617.702 33.2751 617.178 32.6821 616.422 32.3907L616.422 32.3907C615.08 31.8727 613.458 32.4338 612.187 33.207C612.114 33.2511 612.027 33.264 611.945 33.2427C611.863 33.2215 611.793 33.1679 611.751 33.0942C611.229 32.1782 610.594 31.3313 609.862 30.5731C609.297 30.0107 608.561 29.6529 607.771 29.5566ZM602.517 33.3364C602.517 33.3363 602.517 33.3359 602.517 33.335L602.517 33.3364Z" fill="#CB1B5B"/>
<path fill-rule="evenodd" clip-rule="evenodd" d="M0 155.031C0 154.857 0.140603 154.717 0.314047 154.717H10.9188C11.0922 154.717 11.2328 154.857 11.2328 155.031C11.2328 155.204 11.0922 155.345 10.9188 155.345H0.314047C0.140603 155.345 0 155.204 0 155.031Z" fill="#CB1B5B"/>
<path fill-rule="evenodd" clip-rule="evenodd" d="M10.6055 157.058C10.6055 156.885 10.7461 156.744 10.9195 156.744H27.2167C27.3901 156.744 27.5307 156.885 27.5307 157.058C27.5307 157.232 27.3901 157.372 27.2167 157.372H10.9195C10.7461 157.372 10.6055 157.232 10.6055 157.058Z" fill="#CB1B5B"/>
<path fill-rule="evenodd" clip-rule="evenodd" d="M33 155.031C33 154.857 33.1406 154.717 33.314 154.717H43.9188C44.0922 154.717 44.2328 154.857 44.2328 155.031C44.2328 155.204 44.0922 155.345 43.9188 155.345H33.314C33.1406 155.345 33 155.204 33 155.031Z" fill="#CB1B5B"/>
<path fill-rule="evenodd" clip-rule="evenodd" d="M38.5586 153.212C38.5586 153.039 38.6992 152.898 38.8726 152.898H42.9276C43.1011 152.898 43.2417 153.039 43.2417 153.212C43.2417 153.386 43.1011 153.527 42.9276 153.527H38.8726C38.6992 153.527 38.5586 153.386 38.5586 153.212Z" fill="#CB1B5B"/>
<path fill-rule="evenodd" clip-rule="evenodd" d="M22.3879 146.381C21.5961 146.284 20.7949 146.456 20.1119 146.868C20.1056 146.871 20.0991 146.875 20.0926 146.878C19.3835 147.24 18.7531 147.739 18.2378 148.346C18.1751 148.42 17.8366 148.884 17.5422 149.356C17.3954 149.592 17.2684 149.816 17.1937 149.987C17.1675 150.046 17.1515 150.091 17.1427 150.121C17.1831 150.22 17.1719 150.338 17.1028 150.429C16.9984 150.568 16.8016 150.595 16.663 150.491C16.663 150.491 16.663 150.491 16.663 150.491C15.979 149.976 15.1803 149.48 14.3458 149.187C13.5146 148.894 12.6674 148.809 11.8639 149.083C11.0572 149.397 10.3788 149.972 9.93684 150.716C9.47691 151.496 9.1139 152.329 8.85592 153.197C8.81632 153.33 8.69387 153.422 8.55489 153.422H2.22811C2.05467 153.422 1.91406 153.281 1.91406 153.108C1.91406 152.934 2.05467 152.793 2.22811 152.793H8.32307C8.59 151.957 8.94989 151.153 9.39613 150.397L9.39658 150.396C9.9114 149.529 10.7024 148.859 11.6428 148.495C11.6467 148.493 11.6506 148.492 11.6545 148.49C12.6337 148.155 13.6345 148.271 14.5541 148.594C15.3041 148.858 16.0132 149.264 16.6356 149.696C16.729 149.492 16.8668 149.253 17.009 149.024C17.3105 148.54 17.6676 148.048 17.7587 147.94L17.7589 147.94C18.3255 147.272 19.0181 146.723 19.7972 146.324C20.5982 145.844 21.5365 145.644 22.4638 145.757C23.3947 145.871 24.2609 146.292 24.9245 146.955L24.9284 146.959L24.9283 146.959C25.6246 147.679 26.2367 148.476 26.7531 149.333C28.0375 148.61 29.7471 148.043 31.2655 148.629L31.1524 148.922L31.2655 148.629C32.2116 148.994 32.8363 149.728 33.251 150.56C33.6205 151.301 33.8321 152.135 33.9603 152.898H37.7204C37.8938 152.898 38.0345 153.039 38.0345 153.212C38.0345 153.386 37.8938 153.526 37.7204 153.526H33.6918C33.536 153.526 33.4038 153.412 33.3811 153.258C33.263 152.455 33.0598 151.584 32.6889 150.84C32.3195 150.099 31.7948 149.506 31.0394 149.215L31.0394 149.215C29.697 148.697 28.0749 149.258 26.8041 150.031C26.7316 150.075 26.6443 150.088 26.5622 150.067C26.4801 150.046 26.41 149.992 26.368 149.918C25.846 149.002 25.2113 148.155 24.4787 147.397C23.9146 146.835 23.1787 146.477 22.3879 146.381ZM17.1339 150.161C17.1339 150.161 17.1339 150.16 17.134 150.159L17.1339 150.161Z" fill="#CB1B5B"/>
<g opacity="0.5">
<path d="M346.394 246.901C405.018 246.901 452.542 199.377 452.542 140.753C452.542 82.1294 405.018 34.6055 346.394 34.6055C287.77 34.6055 240.246 82.1294 240.246 140.753C240.246 199.377 287.77 246.901 346.394 246.901Z" fill="#FFDCE9"/>
<path d="M346.396 226.803C393.92 226.803 432.445 188.277 432.445 140.754C432.445 93.2304 393.92 54.7051 346.396 54.7051C298.873 54.7051 260.348 93.2304 260.348 140.754C260.348 188.277 298.873 226.803 346.396 226.803Z" fill="#FFCADE"/>
<path d="M346.395 206.702C382.818 206.702 412.345 177.176 412.345 140.753C412.345 104.329 382.818 74.8027 346.395 74.8027C309.972 74.8027 280.445 104.329 280.445 140.753C280.445 177.176 309.972 206.702 346.395 206.702Z" fill="#FFB8D2"/>
<path d="M346.394 189.117C373.105 189.117 394.758 167.464 394.758 140.754C394.758 114.044 373.105 92.3906 346.394 92.3906C319.684 92.3906 298.031 114.044 298.031 140.754C298.031 167.464 319.684 189.117 346.394 189.117Z" fill="#FF94BB"/>
</g>
<path d="M395.646 126.21C394.776 126.21 393.942 125.865 393.328 125.25C392.713 124.636 392.367 123.802 392.367 122.933C392.367 122.789 392.332 108.515 389.707 98.4239C388.577 94.0737 385.181 88.586 383.968 86.8381C383.472 86.1234 383.28 85.2411 383.435 84.3853C383.59 83.5294 384.078 82.7701 384.793 82.2743C385.508 81.7786 386.39 81.587 387.246 81.7418C388.102 81.8966 388.861 82.385 389.357 83.0996C389.561 83.3961 394.398 90.415 396.052 96.7745C398.891 107.686 398.924 122.314 398.924 122.931C398.924 123.801 398.579 124.635 397.964 125.25C397.349 125.865 396.515 126.21 395.645 126.21" fill="#181423"/>
<path d="M385.705 226.472C385.705 226.472 404.402 220.396 405.448 222.537C406.495 224.678 386.963 240.133 384.702 239.125C382.384 238.09 380.266 229.567 380.266 229.567L385.705 226.472Z" fill="#181423"/>
<path d="M386.663 235.963C386.193 235.963 385.729 235.862 385.302 235.667C384.874 235.472 384.494 235.187 384.186 234.832L351.627 197.324C351.345 196.999 351.129 196.621 350.993 196.213C350.857 195.804 350.802 195.373 350.832 194.944C350.863 194.514 350.977 194.095 351.17 193.71C351.362 193.325 351.628 192.981 351.953 192.699C352.61 192.129 353.466 191.843 354.333 191.905C354.763 191.935 355.182 192.05 355.567 192.242C355.952 192.434 356.296 192.701 356.578 193.026L389.139 230.53C389.551 231.005 389.818 231.589 389.908 232.211C389.998 232.833 389.908 233.469 389.647 234.041C389.386 234.613 388.966 235.098 388.437 235.438C387.908 235.779 387.293 235.96 386.664 235.96" fill="#181423"/>
<path d="M311.917 232.602C311.917 232.602 325.855 246.468 324.429 248.373C323.004 250.279 300.336 239.957 300.201 237.485C300.063 234.949 306.68 229.176 306.68 229.176L311.917 232.602Z" fill="#181423"/>
<path d="M306.827 239.564C306.291 239.563 305.763 239.431 305.29 239.18C304.817 238.928 304.412 238.564 304.112 238.119C303.812 237.675 303.626 237.164 303.569 236.631C303.512 236.098 303.587 235.559 303.787 235.062L322.297 188.973C322.455 188.57 322.691 188.202 322.991 187.89C323.292 187.579 323.651 187.33 324.049 187.158C324.446 186.986 324.874 186.895 325.307 186.889C325.74 186.883 326.169 186.963 326.571 187.125C326.973 187.286 327.339 187.525 327.648 187.829C327.956 188.132 328.202 188.494 328.37 188.893C328.539 189.292 328.626 189.72 328.628 190.153C328.63 190.586 328.546 191.015 328.381 191.416L309.871 237.506C309.627 238.113 309.207 238.634 308.664 239.001C308.122 239.368 307.482 239.564 306.827 239.564Z" fill="#181423"/>
<path d="M294.68 154.613C293.875 154.611 293.099 154.314 292.499 153.778C291.899 153.242 291.518 152.504 291.427 151.704C291.295 150.543 288.234 123.098 291.463 106.125C294.767 88.7634 307.976 73.6037 308.537 72.9675C309.112 72.3148 309.922 71.9172 310.79 71.8621C311.658 71.8069 312.512 72.0988 313.165 72.6735C313.818 73.2482 314.215 74.0587 314.27 74.9266C314.325 75.7944 314.034 76.6487 313.459 77.3013C313.291 77.4935 300.863 91.8103 297.906 107.352C294.862 123.341 297.911 150.69 297.942 150.965C297.991 151.393 297.955 151.826 297.836 152.24C297.717 152.654 297.517 153.04 297.249 153.377C296.981 153.714 296.649 153.994 296.272 154.203C295.895 154.411 295.481 154.544 295.053 154.592C294.928 154.606 294.802 154.613 294.676 154.613" fill="#181423"/>
<path d="M376.945 212.228C381.063 212.208 385.005 210.555 387.905 207.631C390.805 204.706 392.425 200.751 392.41 196.632L391.946 54.4396C391.939 52.1963 391.446 49.9813 390.501 47.9466C389.556 45.912 388.182 44.106 386.473 42.6528L365.638 24.9286C362.808 22.5197 359.208 21.2049 355.492 21.2228L333.419 21.2542C329.706 21.2542 326.116 22.5827 323.297 24.9996L302.5 42.8462C300.8 44.3052 299.434 46.1147 298.499 48.1507C297.563 50.1867 297.078 52.401 297.078 54.6418V196.821C297.078 198.862 297.48 200.883 298.261 202.769C299.042 204.654 300.187 206.368 301.63 207.811C303.073 209.254 304.787 210.399 306.672 211.18C308.558 211.961 310.579 212.363 312.62 212.363L376.945 212.228Z" fill="#CB1B5B"/>
<path d="M391.946 54.2462C391.938 52.0028 391.446 49.7876 390.501 47.7527C389.557 45.7178 388.184 43.9114 386.475 42.4575L365.634 24.7352C362.804 22.326 359.204 21.0112 355.487 21.0295H354.401L373.943 37.6551C375.652 39.1086 377.026 40.9149 377.97 42.95C378.915 44.985 379.407 47.2004 379.414 49.4438L379.88 191.637C379.893 195.754 378.271 199.709 375.371 202.632C372.471 205.556 368.53 207.209 364.412 207.229L301.383 207.359C302.832 208.881 304.575 210.091 306.507 210.918C308.438 211.745 310.518 212.17 312.619 212.168L376.944 212.035C381.062 212.015 385.003 210.362 387.904 207.438C390.804 204.515 392.425 200.56 392.412 196.442L391.946 54.2462Z" fill="#E0769D"/>
<path d="M366.993 26.0822H321.824V15.0906C321.824 6.75451 331.933 0 344.409 0C356.884 0 366.993 6.75452 366.993 15.0868V26.0822Z" fill="#181423"/>
<path d="M335.375 9.43593C335.432 9.65119 335.56 9.8407 335.739 9.97295C335.956 10.0834 336.199 10.1302 336.441 10.108C341.168 10.1113 345.897 10.1159 350.629 10.1218C351.498 10.1891 352.37 10.0528 353.177 9.72359C353.579 9.54283 353.899 9.21662 354.071 8.81035C354.161 8.45164 354.132 8.07331 353.989 7.73218C353.846 7.39105 353.597 7.10554 353.277 6.91853C352.629 6.56034 351.906 6.36041 351.166 6.33503C348.917 6.09949 333.898 4.79683 335.375 9.43593Z" fill="#4C5478"/>
<path d="M327.867 26.082H366.055L373.45 35.435L327.867 26.082Z" fill="#FF0361"/>
<path d="M332.313 83.0964C332.313 84.6678 331.846 86.2039 330.973 87.5104C330.1 88.8169 328.859 89.8352 327.408 90.4365C325.956 91.0378 324.358 91.195 322.817 90.8885C321.276 90.5819 319.86 89.8251 318.749 88.714C317.638 87.6029 316.881 86.1872 316.575 84.646C316.268 83.1048 316.425 81.5073 317.027 80.0555C317.628 78.6037 318.646 77.3628 319.953 76.4897C321.259 75.6166 322.795 75.1505 324.367 75.1504C325.41 75.1503 326.443 75.3558 327.408 75.7551C328.372 76.1544 329.248 76.7397 329.985 77.4775C330.723 78.2154 331.309 79.0914 331.708 80.0555C332.107 81.0196 332.313 82.0529 332.313 83.0964Z" fill="white"/>
<path d="M326.363 82.3923C326.363 83.2926 326.096 84.1728 325.595 84.9215C325.095 85.6701 324.384 86.2536 323.552 86.5982C322.721 86.9427 321.805 87.0329 320.922 86.8572C320.039 86.6816 319.228 86.248 318.591 85.6113C317.955 84.9746 317.521 84.1635 317.345 83.2804C317.17 82.3973 317.26 81.482 317.604 80.6501C317.949 79.8183 318.532 79.1073 319.281 78.6071C320.03 78.1068 320.91 77.8398 321.81 77.8398C323.018 77.8402 324.175 78.3199 325.029 79.1736C325.883 80.0273 326.362 81.185 326.363 82.3923Z" fill="#231F20"/>
<path d="M321.588 79.8726C321.807 80.1407 321.942 80.4679 321.976 80.8127C322.009 81.1576 321.94 81.5046 321.776 81.8099C321.612 82.1152 321.362 82.3651 321.056 82.528C320.75 82.6909 320.403 82.7595 320.058 82.725C319.713 82.6906 319.387 82.5547 319.119 82.3346C318.852 82.1144 318.655 81.8199 318.555 81.4882C318.455 81.1566 318.456 80.8027 318.557 80.4713C318.658 80.1399 318.855 79.8459 319.123 79.6264C319.482 79.3323 319.944 79.193 320.406 79.2391C320.869 79.2853 321.294 79.5132 321.588 79.8726Z" fill="white"/>
<path d="M374.604 83.7612C374.604 85.3325 374.138 86.8685 373.265 88.175C372.393 89.4815 371.152 90.4998 369.7 91.1011C368.248 91.7024 366.651 91.8598 365.11 91.5533C363.569 91.2468 362.153 90.4902 361.042 89.3792C359.931 88.2681 359.174 86.8526 358.868 85.3115C358.561 83.7704 358.718 82.173 359.319 80.7213C359.921 79.2695 360.939 78.0287 362.245 77.1556C363.552 76.2826 365.088 75.8165 366.659 75.8164C368.766 75.8164 370.787 76.6534 372.277 78.1433C373.767 79.6332 374.604 81.654 374.604 83.7612Z" fill="white"/>
<path d="M368.66 83.0544C368.66 83.9548 368.393 84.8349 367.892 85.5836C367.392 86.3322 366.681 86.9157 365.849 87.2603C365.017 87.6048 364.102 87.695 363.219 87.5193C362.336 87.3437 361.525 86.9101 360.888 86.2734C360.251 85.6368 359.818 84.8256 359.642 83.9425C359.467 83.0594 359.557 82.1441 359.901 81.3122C360.246 80.4804 360.829 79.7694 361.578 79.2692C362.327 78.7689 363.207 78.502 364.107 78.502C365.314 78.5023 366.472 78.982 367.326 79.8357C368.179 80.6894 368.659 81.8471 368.66 83.0544Z" fill="#231F20"/>
<path d="M363.885 80.5357C364.104 80.8039 364.238 81.131 364.272 81.4757C364.305 81.8204 364.235 82.1671 364.071 82.4722C363.907 82.7772 363.657 83.0268 363.351 83.1894C363.045 83.3521 362.698 83.4204 362.354 83.3858C362.009 83.3512 361.682 83.2153 361.415 82.9951C361.148 82.775 360.952 82.4806 360.852 82.149C360.752 81.8175 360.753 81.4638 360.854 81.1326C360.955 80.8014 361.151 80.5076 361.419 80.2883C361.598 80.1426 361.803 80.0335 362.023 79.9671C362.243 79.9007 362.474 79.8784 362.703 79.9013C362.932 79.9243 363.154 79.9922 363.357 80.101C363.56 80.2099 363.739 80.3576 363.885 80.5357Z" fill="white"/>
<path d="M318.017 59.0556C318.655 58.8899 319.266 58.6331 319.831 58.2931C321.556 57.2832 323.508 56.7253 325.506 56.6713C326.263 56.79 327.037 56.7137 327.757 56.4496C328.053 56.3014 328.288 56.0527 328.418 55.7477C328.549 55.4428 328.567 55.1015 328.469 54.7845C328.164 54.0208 327.159 53.7168 326.248 53.6068C323.71 53.3038 321.139 53.7135 318.821 54.7902C318.045 55.114 317.35 55.6054 316.786 56.2291C315.808 57.4282 315.918 59.467 318.017 59.0556Z" fill="#181423"/>
<path d="M372.226 61.1392C371.638 60.8333 371.104 60.4329 370.645 59.954C369.171 58.6099 367.452 57.4215 365.485 57.0924C364.724 56.9668 363.878 56.9435 363.316 56.4184C363.06 56.1672 362.897 55.8361 362.855 55.4798C362.812 55.1236 362.893 54.7636 363.083 54.4594C363.602 53.6781 364.684 53.543 365.618 53.5933C368.186 53.7344 370.644 54.6859 372.639 56.311C373.326 56.8262 373.879 57.5009 374.248 58.277C374.876 59.7756 374.189 61.9877 372.226 61.1386" fill="#181423"/>
<path d="M348.622 119.029C348.622 122.433 346.886 125.192 344.744 125.192C342.603 125.192 340.867 122.432 340.867 119.029C340.867 115.625 342.603 112.863 344.744 112.863C346.886 112.863 348.622 115.623 348.622 119.029Z" fill="#181423"/>
<path d="M299.283 146.084C300.168 147.236 301.256 148.239 301.979 149.5C302.702 150.762 302.994 152.414 302.206 153.634C301.418 154.854 299.297 155.105 298.582 153.842C298.937 155.921 299.293 158 299.649 160.08C299.88 161.426 300.102 162.864 299.565 164.12C299.028 165.376 297.42 166.273 296.253 165.564C296.362 165.89 296.401 166.235 296.368 166.577C296.334 166.919 296.23 167.25 296.06 167.549C295.891 167.848 295.661 168.107 295.384 168.311C295.108 168.515 294.792 168.659 294.456 168.733C294.121 168.807 293.774 168.809 293.437 168.74C293.101 168.671 292.782 168.532 292.503 168.332C292.224 168.132 291.99 167.876 291.816 167.579C291.642 167.283 291.533 166.953 291.495 166.612C291.163 166.805 290.772 166.874 290.394 166.805C290.015 166.736 289.674 166.534 289.432 166.235C288.961 165.623 288.658 164.9 288.552 164.136C287.187 157.949 286.856 151.405 288.263 145.196C288.931 142.159 290.078 139.248 291.66 136.571C292.41 135.322 293.226 133.593 294.907 133.955C296.057 134.202 296.464 135.081 296.653 136.108C297.336 139.805 296.774 142.821 299.285 146.085" fill="#181423"/>
<path d="M360.971 158.537C360.165 158.537 359.388 158.239 358.787 157.702C358.187 157.164 357.805 156.424 357.716 155.623C357.626 154.822 357.835 154.016 358.302 153.359C358.768 152.702 359.461 152.241 360.247 152.062C360.48 152.006 374.572 148.7 382.128 141.196C393.523 129.886 392.428 121.744 392.416 121.662L392.428 121.725L398.867 120.484C398.956 120.942 400.859 131.842 386.745 145.852C377.816 154.717 362.35 158.306 361.697 158.455C361.458 158.509 361.213 158.536 360.968 158.537" fill="#181423"/>
<path d="M363.986 147.09C362.837 146.2 361.838 145.109 360.58 144.383C359.323 143.657 357.67 143.357 356.447 144.14C355.224 144.924 354.966 147.044 356.227 147.764L349.991 146.675C348.645 146.439 347.211 146.212 345.95 146.744C344.688 147.275 343.79 148.879 344.496 150.051C344.171 149.942 343.827 149.903 343.486 149.935C343.145 149.968 342.814 150.072 342.516 150.24C342.217 150.408 341.957 150.638 341.753 150.913C341.549 151.188 341.404 151.503 341.329 151.837C341.254 152.171 341.25 152.518 341.317 152.854C341.384 153.19 341.521 153.508 341.719 153.788C341.917 154.068 342.171 154.303 342.466 154.478C342.76 154.654 343.088 154.765 343.428 154.806C343.234 155.138 343.164 155.528 343.232 155.907C343.299 156.285 343.5 156.627 343.797 156.871C344.409 157.342 345.131 157.646 345.895 157.756C352.074 159.144 358.617 159.5 364.833 158.113C367.872 157.456 370.788 156.32 373.47 154.747C374.721 154.002 376.453 153.191 376.098 151.511C375.856 150.361 374.978 149.948 373.95 149.756C370.257 149.065 367.239 149.612 363.984 147.09" fill="#181423"/>
<path d="M310.521 40.2483C309.145 41.1006 307.562 42.5214 308.168 44.0213C308.608 45.1003 309.932 45.4502 311.077 45.6543C313.239 46.0387 315.547 46.3816 317.567 45.5193C318.771 44.9198 319.863 44.1163 320.794 43.1444C322.834 41.2388 324.877 39.3336 326.921 37.4288C328.161 36.2731 329.517 34.6778 328.923 33.0893C328.288 31.3935 325.932 31.1856 324.196 31.7075C319.534 33.1176 314.703 37.653 310.521 40.2464" fill="#FFCADE"/>
<path fill-rule="evenodd" clip-rule="evenodd" d="M329.077 71.7212C327.582 71.1025 325.981 70.7843 324.364 70.7847C321.929 70.7852 319.55 71.5077 317.526 72.8606C315.502 74.2135 313.924 76.1362 312.993 78.3856C312.061 80.6349 311.818 83.1099 312.293 85.4977C312.768 87.8855 313.94 90.0787 315.662 91.8002C317.383 93.5217 319.577 94.6941 321.964 95.1692C324.352 95.6443 326.827 95.4008 329.077 94.4694C331.326 93.538 333.249 91.9606 334.601 89.9365C335.954 87.9125 336.677 85.5328 336.677 83.0982C336.678 81.4811 336.36 79.8797 335.741 78.3856C335.122 76.8915 334.215 75.5339 333.072 74.3904C331.928 73.2469 330.571 72.3399 329.077 71.7212ZM324.363 68.9004C326.228 68.8999 328.075 69.2669 329.797 69.9803C331.52 70.6936 333.086 71.7395 334.404 73.058C335.723 74.3765 336.768 75.9419 337.482 77.6647C338.195 79.3875 338.562 81.234 338.562 83.0987C338.561 85.9059 337.728 88.6498 336.168 90.9837C334.608 93.3175 332.391 95.1364 329.797 96.2103C327.204 97.2843 324.35 97.5651 321.597 97.0173C318.843 96.4695 316.314 95.1176 314.329 93.1326C312.344 91.1476 310.993 88.6186 310.445 85.8654C309.897 83.1122 310.178 80.2583 311.252 77.6647C312.326 75.0711 314.145 72.8541 316.478 71.2941C318.812 69.7341 321.556 68.9011 324.363 68.9004Z" fill="#181423"/>
<path fill-rule="evenodd" clip-rule="evenodd" d="M371.787 71.7212C370.293 71.1025 368.692 70.7843 367.075 70.7847C364.64 70.7852 362.261 71.5077 360.236 72.8606C358.212 74.2135 356.635 76.1362 355.704 78.3856C354.772 80.6349 354.529 83.1099 355.004 85.4977C355.479 87.8855 356.651 90.0787 358.373 91.8002C360.094 93.5217 362.288 94.6941 364.675 95.1692C367.063 95.6443 369.538 95.4008 371.787 94.4694C374.037 93.538 375.959 91.9606 377.312 89.9365C378.665 87.9125 379.388 85.5328 379.388 83.0982C379.389 81.4811 379.07 79.8797 378.452 78.3856C377.833 76.8915 376.926 75.5339 375.783 74.3904C374.639 73.2469 373.282 72.3399 371.787 71.7212ZM367.074 68.9004C368.939 68.8999 370.786 69.2669 372.508 69.9803C374.231 70.6936 375.797 71.7395 377.115 73.058C378.434 74.3765 379.479 75.9419 380.193 77.6647C380.906 79.3875 381.273 81.234 381.273 83.0987C381.272 85.9059 380.439 88.6498 378.879 90.9837C377.319 93.3175 375.102 95.1364 372.508 96.2103C369.915 97.2843 367.061 97.5651 364.308 97.0173C361.554 96.4695 359.025 95.1176 357.04 93.1326C355.055 91.1476 353.704 88.6186 353.156 85.8654C352.608 83.1122 352.889 80.2583 353.963 77.6647C355.037 75.0711 356.856 72.8541 359.189 71.2941C361.523 69.7341 364.267 68.9011 367.074 68.9004Z" fill="#181423"/>
<path fill-rule="evenodd" clip-rule="evenodd" d="M338.215 82.4551H353.823V84.3394H338.215V82.4551Z" fill="#181423"/>
</svg>
