<svg width="70" height="70" viewBox="0 0 70 70" fill="none" xmlns="http://www.w3.org/2000/svg">
<path d="M65.3333 15.3533C65.3301 12.4334 64.1688 9.63398 62.1041 7.56928C60.0393 5.50457 57.2399 4.34321 54.32 4.34H52.3334V2.33333C52.3334 1.71449 52.0876 1.121 51.65 0.683417C51.2124 0.245833 50.6189 0 50.0001 0C49.3812 0 48.7877 0.245833 48.3501 0.683417C47.9126 1.121 47.6667 1.71449 47.6667 2.33333V4.34H17.6685V2.33333C17.6685 1.71449 17.4226 1.121 16.985 0.683417C16.5475 0.245833 15.954 0 15.3351 0C14.7163 0 14.1228 0.245833 13.6852 0.683417C13.2476 1.121 13.0018 1.71449 13.0018 2.33333V4.34H11.0133C8.0934 4.34321 5.29398 5.50457 3.22928 7.56928C1.16457 9.63398 0.00321157 12.4334 0 15.3533V54.32C0.00321157 57.2399 1.16457 60.0393 3.22928 62.1041C5.29398 64.1688 8.0934 65.3301 11.0133 65.3333H35.9637C39.6482 68.3328 44.249 69.9798 49 70C54.5676 69.9938 59.9055 67.7793 63.8424 63.8424C67.7793 59.9055 69.9938 54.5676 70 49C69.9798 44.249 68.3328 39.6482 65.3333 35.9637V15.3533ZM11.0133 9.00667H12.9999V10.9979C12.9999 11.6168 13.2458 12.2103 13.6834 12.6478C14.1209 13.0854 14.7144 13.3313 15.3333 13.3313C15.9521 13.3313 16.5456 13.0854 16.9832 12.6478C17.4208 12.2103 17.6666 11.6168 17.6666 10.9979V9.00667H47.663V10.9979C47.663 11.6168 47.9088 12.2103 48.3464 12.6478C48.784 13.0854 49.3775 13.3313 49.9963 13.3313C50.6152 13.3313 51.2087 13.0854 51.6462 12.6478C52.0838 12.2103 52.3297 11.6168 52.3297 10.9979V9.00667H54.32C56.0026 9.00864 57.6158 9.67794 58.8056 10.8677C59.9954 12.0575 60.6647 13.6707 60.6667 15.3533V17.3339H4.66667V15.3533C4.66864 13.6707 5.33794 12.0575 6.52774 10.8677C7.71755 9.67794 9.3307 9.00864 11.0133 9.00667ZM4.66667 54.32V22.0005H60.6667V31.5551C56.6301 28.8481 51.779 27.6265 46.9418 28.0988C42.1046 28.5712 37.5815 30.7082 34.1448 34.1448C30.7082 37.5815 28.5712 42.1046 28.0988 46.9418C27.6265 51.779 28.8481 56.6301 31.5551 60.6667H11.0133C9.33074 60.6646 7.71766 59.9952 6.52788 58.8055C5.3381 57.6157 4.66877 56.0026 4.66667 54.32ZM49 65.3333C45.7696 65.3333 42.6117 64.3754 39.9257 62.5807C37.2397 60.7859 35.1462 58.235 33.91 55.2505C32.6737 52.266 32.3503 48.9819 32.9805 45.8135C33.6107 42.6452 35.1663 39.7348 37.4506 37.4506C39.7348 35.1663 42.6452 33.6107 45.8135 32.9805C48.9819 32.3503 52.266 32.6737 55.2505 33.91C58.235 35.1462 60.7859 37.2397 62.5807 39.9257C64.3754 42.6117 65.3333 45.7696 65.3333 49C65.3281 53.3303 63.6057 57.4817 60.5437 60.5437C57.4817 63.6057 53.3303 65.3281 49 65.3333Z" fill="#CB1B5B"/>
<path d="M51.3307 48.0347V39.6673C51.3307 39.0485 51.0849 38.455 50.6473 38.0174C50.2097 37.5798 49.6162 37.334 48.9974 37.334C48.3786 37.334 47.7851 37.5798 47.3475 38.0174C46.9099 38.455 46.6641 39.0485 46.6641 39.6673V49.0007C46.664 49.3071 46.7243 49.6105 46.8416 49.8936C46.9589 50.1767 47.1309 50.4338 47.3477 50.6503L52.0144 55.317C52.4545 55.742 53.0439 55.9772 53.6557 55.9719C54.2675 55.9666 54.8527 55.7212 55.2853 55.2886C55.7179 54.8559 55.9633 54.2707 55.9686 53.6589C55.974 53.0471 55.7388 52.4577 55.3137 52.0176L51.3307 48.0347Z" fill="#CB1B5B"/>
</svg>
