<svg width="16" height="16" viewBox="0 0 16 16" fill="none" xmlns="http://www.w3.org/2000/svg">
<g clip-path="url(#clip0_58_1727)">
<path d="M12.3669 8.5003C12.3894 10.9216 14.491 11.7274 14.5143 11.7376C14.4965 11.7944 14.1785 12.8859 13.4071 14.0133C12.7402 14.988 12.0481 15.9591 10.9578 15.9792C9.88643 15.9989 9.54193 15.3439 8.3171 15.3439C7.09263 15.3439 6.70988 15.9591 5.69575 15.9989C4.64333 16.0388 3.84189 14.945 3.1695 13.9738C1.7955 11.9874 0.745483 8.36062 2.15539 5.91249C2.85581 4.69673 4.1075 3.92687 5.4661 3.90713C6.49955 3.88741 7.47498 4.6024 8.10677 4.6024C8.73816 4.6024 9.92351 3.74257 11.1697 3.86884C11.6913 3.89056 13.1557 4.07957 14.096 5.45595C14.0203 5.50291 12.3487 6.476 12.3669 8.5003ZM10.3535 2.55464C10.9122 1.87831 11.2883 0.936799 11.1857 0C10.3803 0.0323694 9.4064 0.536681 8.82872 1.21264C8.31101 1.81123 7.85761 2.76931 7.97995 3.68757C8.87763 3.75702 9.79469 3.2314 10.3535 2.55464Z" fill="#CB1B5B"/>
</g>
<defs>
<clipPath id="clip0_58_1727">
<rect width="16" height="16" fill="white"/>
</clipPath>
</defs>
</svg>
