<svg width="54" height="64" viewBox="0 0 54 64" fill="none" xmlns="http://www.w3.org/2000/svg">
<path d="M53.6579 46.457C52.5595 49.8541 50.974 53.0742 48.9509 56.0167C45.6595 61.0125 42.3811 63.5104 39.1157 63.5104C37.2768 63.3841 35.469 62.9714 33.7577 62.2874C31.918 61.5444 29.9619 61.1304 27.9787 61.0643C26.1034 61.1353 24.2589 61.5636 22.5446 62.3262C20.9583 63.0757 19.2438 63.5165 17.4926 63.6253C13.6104 63.6253 9.77067 60.3262 5.97341 53.728C2.46198 47.9099 0.523622 41.2802 0.348271 34.4884C0.132384 29.3706 1.65677 24.3305 4.67326 20.1886C5.91356 18.471 7.54737 17.0749 9.43812 16.1171C11.3289 15.1594 13.4216 14.6677 15.5414 14.6833C17.8407 14.7581 20.1191 15.144 22.3146 15.8303C24.0278 16.405 25.7991 16.7897 27.5966 16.9773C29.4763 16.8158 31.3217 16.3774 33.0731 15.6766C35.1983 14.8992 37.4326 14.4603 39.6941 14.3758C42.6025 14.3376 45.4505 15.2062 47.8417 16.8607C49.3412 17.9409 50.6815 19.2259 51.8236 20.6782C50.1841 21.9916 48.7183 23.5077 47.4614 25.1903C45.8288 27.5058 44.9594 30.2723 44.9743 33.1046C44.9394 36.1532 45.8632 39.1359 47.6153 41.6321C49.0221 43.8797 51.1553 45.5796 53.6615 46.45L53.6579 46.457ZM39.2643 1.60654C39.2166 3.393 38.8407 5.15549 38.1552 6.80613C37.3421 8.7897 36.1309 10.5858 34.5961 12.0835C33.4499 13.3084 32.0348 14.251 30.4622 14.8371C29.159 15.1787 27.8264 15.3964 26.4822 15.4874C26.467 11.9845 27.5088 8.55821 29.4716 5.65558C31.835 2.63453 35.2516 0.614994 39.0396 0C39.08 0.138143 39.1119 0.278615 39.1352 0.420634C39.1584 0.562653 39.1903 0.703124 39.2307 0.841267C39.2307 0.943775 39.2372 1.07103 39.2501 1.22302C39.2631 1.37501 39.2678 1.50226 39.2643 1.60477V1.60654Z" fill="#4D4D4D"/>
</svg>
