<svg width="40" height="40" viewBox="0 0 40 40" fill="none" xmlns="http://www.w3.org/2000/svg">
<mask id="mask0_303_725" style="mask-type:alpha" maskUnits="userSpaceOnUse" x="0" y="0" width="40" height="40">
<rect width="40" height="40" fill="#D9D9D9"/>
</mask>
<g mask="url(#mask0_303_725)">
<path d="M29.4227 36.9991H8.53385C6.9783 36.9991 5.86719 35.888 5.86719 34.3325V19.888C10.3116 16.1102 14.5339 12.3325 18.9783 8.55469C23.4227 12.3325 27.645 16.1102 32.0894 19.888C32.0894 24.7769 32.0894 29.4436 32.0894 34.3325C32.0894 35.6658 30.9783 36.9991 29.4227 36.9991Z" fill="#CB1B5B"/>
<path d="M3.64352 18.7782C3.19907 18.7782 2.75463 18.556 2.53241 18.1115C2.08796 17.4449 2.08796 16.556 2.75463 15.8893L18.088 2.55599C18.7546 2.11155 19.4213 2.11155 20.088 2.55599L35.6435 15.8893C36.3102 16.3338 36.3102 17.4449 35.8657 18.1115C35.4213 18.7782 34.3102 18.7782 33.6435 18.3338L18.9769 5.88932L4.53241 18.3338C4.31018 18.556 3.86574 18.7782 3.64352 18.7782Z" fill="#CB1B5B"/>
<path d="M25.4284 24.7786V26.5564C25.4284 27.0009 25.2062 27.2231 24.7617 27.2231H21.4284C20.9839 27.2231 20.7617 27.4453 20.7617 27.8898V31.2231C20.7617 31.4453 20.5395 31.8898 20.0951 31.8898H18.0951C17.8728 31.8898 17.4284 31.6675 17.4284 31.2231V27.8898C17.4284 27.4453 17.2062 27.2231 16.7617 27.2231H13.4284C12.9839 27.2231 12.7617 27.0009 12.7617 26.5564V24.7786C12.7617 24.3342 12.9839 24.112 13.4284 24.112H16.7617C17.2062 24.112 17.4284 23.8898 17.4284 23.4453V20.112C17.4284 19.6675 17.6506 19.4453 18.0951 19.4453H19.8728C20.3173 19.4453 20.5395 19.6675 20.5395 20.112V23.4453C20.5395 23.8898 20.7617 24.112 21.2062 24.112H24.5395C24.9839 24.3342 25.4284 24.5564 25.4284 24.7786Z" fill="white"/>
</g>
</svg>
