<svg width="49" height="48" viewBox="0 0 49 48" fill="none" xmlns="http://www.w3.org/2000/svg">
<circle cx="24.0859" cy="24" r="24" fill="white" fill-opacity="0.15"/>
<path d="M24.3811 14.1024C24.4489 13.9894 24.5166 13.8765 24.5844 13.7636C25.149 12.8602 26.1879 12.5666 27.0687 13.0635C27.9269 13.5603 28.2205 14.6218 27.701 15.5478C27.0687 16.6996 26.3911 17.8288 25.7362 18.9581C24.4263 21.2391 23.1164 23.4976 21.8065 25.7786C21.7387 25.8915 21.6935 26.0045 21.6032 26.1625C22.7324 26.1625 23.7939 26.1851 24.8554 26.14C25.3071 26.1174 25.5555 26.2529 25.7588 26.6594C26.3008 27.6757 26.9106 28.6694 27.4978 29.7083C27.4074 29.7309 27.3397 29.7309 27.2719 29.7309C22.8228 29.7309 18.351 29.7309 13.9018 29.7309C12.9307 29.7309 12.2306 29.0534 12.0951 28.0822C12.0047 27.224 12.5919 26.3884 13.4953 26.1851C13.6534 26.14 13.8341 26.14 13.9922 26.14C15.0085 26.14 16.0474 26.14 17.0637 26.14C17.2895 26.14 17.425 26.0948 17.538 25.8689C19.0511 23.2491 20.5643 20.6067 22.0775 17.9869C22.1904 17.7837 22.1678 17.6482 22.0775 17.4675C21.6709 16.7899 21.2644 16.1124 20.9031 15.4123C20.4965 14.6218 20.6772 13.741 21.3096 13.199C21.9194 12.657 22.8454 12.5892 23.5003 13.0861C23.8617 13.4022 24.0875 13.7636 24.3811 14.1024Z" fill="white"/>
<path d="M33.3477 29.7529C33.7316 30.4079 34.093 31.0177 34.4092 31.6275C34.5672 31.9436 34.7028 32.305 34.7253 32.6664C34.7705 33.4794 34.2511 34.1569 33.4606 34.4054C32.7379 34.6312 31.9023 34.3602 31.4732 33.7052C30.9763 32.9148 30.5246 32.0792 30.0503 31.2661C28.4694 28.556 26.9111 25.8232 25.3301 23.1131C25.1946 22.8872 25.1946 22.7291 25.3301 22.5033C25.9173 21.5096 26.482 20.5158 27.0466 19.5221C27.0917 19.4318 27.1595 19.3414 27.2273 19.2285C27.3176 19.3866 27.3853 19.4995 27.4757 19.6125C28.6727 21.6902 29.8922 23.7906 31.0892 25.8684C31.2021 26.0716 31.3377 26.162 31.5861 26.162C32.625 26.1394 33.6639 26.162 34.7028 26.162C35.7642 26.162 36.5773 26.975 36.5773 27.9688C36.5547 28.9625 35.7642 29.7304 34.7253 29.7529C34.2736 29.7529 33.8445 29.7529 33.3477 29.7529Z" fill="white"/>
<path d="M18.7146 31.1992C18.1726 32.1026 17.6983 32.9834 17.1337 33.7964C16.6368 34.5417 15.6205 34.6998 14.83 34.2481C14.0848 33.819 13.746 32.8479 14.0848 32.0348C14.4235 31.1992 14.4235 31.1992 15.3269 31.1992C16.411 31.1992 17.5176 31.1992 18.7146 31.1992Z" fill="white"/>
</svg>
