<svg width="64" height="59" viewBox="0 0 64 59" fill="none" xmlns="http://www.w3.org/2000/svg">
<path d="M39.261 50.7997H5.86096C2.86096 50.7997 0.460938 48.3997 0.460938 45.3997V10.5997C0.460938 7.5997 2.86096 5.19971 5.86096 5.19971H47.261C50.261 5.19971 52.6609 7.5997 52.6609 10.5997V32.7997L51.361 32.5997C50.661 32.4997 49.961 32.3997 49.261 32.3997C42.661 32.3997 37.361 37.6997 37.361 44.2997C37.361 45.9997 37.7609 47.6997 38.4609 49.2997L39.261 50.7997ZM5.86096 7.3997C4.06096 7.3997 2.66095 8.7997 2.66095 10.5997V45.3997C2.66095 47.1997 4.06096 48.5997 5.86096 48.5997H35.861C35.461 47.1997 35.1609 45.7997 35.1609 44.2997C35.1609 36.4997 41.461 30.0997 49.361 30.0997C49.761 30.0997 50.0609 30.0997 50.4609 30.0997V10.4997C50.4609 8.69969 49.061 7.2997 47.261 7.2997H5.86096V7.3997Z" fill="white"/>
<path d="M11.4609 10.6997C10.6609 10.6997 9.96094 9.99971 9.96094 9.19971V2.19971C9.96094 1.39971 10.6609 0.699707 11.4609 0.699707C12.2609 0.699707 12.9609 1.39971 12.9609 2.19971V9.19971C13.0609 9.99971 12.3609 10.6997 11.4609 10.6997Z" fill="white"/>
<path d="M41.5605 10.6997C40.7605 10.6997 40.0605 9.99971 40.0605 9.19971V2.19971C40.0605 1.39971 40.7605 0.699707 41.5605 0.699707C42.3605 0.699707 43.0605 1.39971 43.0605 2.19971V9.19971C43.0605 9.99971 42.3605 10.6997 41.5605 10.6997Z" fill="white"/>
<path d="M47.8605 16.9998H5.16052C4.56052 16.9998 4.06055 16.4998 4.06055 15.8998C4.06055 15.2998 4.56052 14.7998 5.16052 14.7998H47.8605C48.4605 14.7998 48.9605 15.2998 48.9605 15.8998C48.9605 16.4998 48.4605 16.9998 47.8605 16.9998Z" fill="white"/>
<path d="M13.761 29.8996H9.86096C8.86096 29.8996 7.96094 29.0996 7.96094 27.9996C7.96094 26.9996 8.76096 26.0996 9.86096 26.0996H13.761C14.761 26.0996 15.6609 26.8996 15.6609 27.9996C15.6609 28.9996 14.861 29.8996 13.761 29.8996Z" fill="white"/>
<path d="M28.1613 29.8996H24.2614C23.2614 29.8996 22.3613 29.0996 22.3613 27.9996C22.3613 26.9996 23.1614 26.0996 24.2614 26.0996H28.1613C29.1613 26.0996 30.0613 26.8996 30.0613 27.9996C29.9613 28.9996 29.1613 29.8996 28.1613 29.8996Z" fill="white"/>
<path d="M43.1613 29.8996H39.2614C38.2614 29.8996 37.3613 29.0996 37.3613 27.9996C37.3613 26.9996 38.1614 26.0996 39.2614 26.0996H43.1613C44.1613 26.0996 45.0613 26.8996 45.0613 27.9996C45.0613 28.9996 44.1613 29.8996 43.1613 29.8996Z" fill="white"/>
<path d="M13.761 40.2995H9.86096C8.86096 40.2995 7.96094 39.4995 7.96094 38.3995C7.96094 37.3995 8.76096 36.4995 9.86096 36.4995H13.761C14.761 36.4995 15.6609 37.2995 15.6609 38.3995C15.6609 39.3995 14.861 40.2995 13.761 40.2995Z" fill="white"/>
<path d="M28.1613 40.2995H24.2614C23.2614 40.2995 22.3613 39.4995 22.3613 38.3995C22.3613 37.3995 23.1614 36.4995 24.2614 36.4995H28.1613C29.1613 36.4995 30.0613 37.2995 30.0613 38.3995C29.9613 39.3995 29.1613 40.2995 28.1613 40.2995Z" fill="white"/>
<path d="M49.2606 58.3996C43.7606 58.3996 38.6605 55.1996 36.3605 50.1996C35.4605 48.3996 35.0605 46.3996 35.0605 44.2996C35.0605 36.4996 41.3606 30.0996 49.2606 30.0996C50.0606 30.0996 50.8606 30.1996 51.7606 30.2996C58.5606 31.4996 63.4605 37.2996 63.4605 44.1996C63.4605 52.0996 57.0606 58.3996 49.2606 58.3996ZM49.2606 32.3996C42.6606 32.3996 37.3605 37.6996 37.3605 44.2996C37.3605 45.9996 37.7605 47.6996 38.4605 49.2996C40.3605 53.4996 44.6606 56.1996 49.2606 56.1996C55.8606 56.1996 61.1605 50.8996 61.1605 44.2996C61.1605 38.4996 57.0605 33.5996 51.3605 32.5996C50.6605 32.3996 49.9606 32.3996 49.2606 32.3996Z" fill="white"/>
<path d="M46.7602 51.1999C46.4602 51.1999 46.1602 51.0999 45.9602 50.8999L41.9602 46.8999C41.5602 46.4999 41.5602 45.6999 41.9602 45.2999C42.3602 44.8999 43.1602 44.8999 43.5602 45.2999L46.7602 48.4999L55.0602 40.1999C55.4602 39.7999 56.2602 39.7999 56.6602 40.1999C57.0602 40.5999 57.0602 41.3999 56.6602 41.7999L47.5602 50.8999C47.3602 51.0999 47.0602 51.1999 46.7602 51.1999Z" fill="white"/>
</svg>
