<svg width="375" height="280" viewBox="0 0 375 280" fill="none" xmlns="http://www.w3.org/2000/svg">
<path d="M187.5 279.999C267.811 279.999 332.917 276.191 332.917 271.493C332.917 266.795 267.811 262.986 187.5 262.986C107.188 262.986 42.082 266.795 42.082 271.493C42.082 276.191 107.188 279.999 187.5 279.999Z" fill="#F5F5F5"/>
<path d="M298.664 255.938C298.664 255.938 295.102 248.153 299.174 240.473C303.247 232.793 304.424 230.99 301.829 229.412C299.234 227.834 298.042 235.551 298.042 235.551C298.042 235.551 295.852 230.246 297.659 224.693C299.467 219.139 300.599 210.092 298.132 209.122C295.664 208.153 297.659 220.409 295.522 224.587C295.522 224.587 293.722 219.936 293.429 215.472C293.137 211.009 293.594 203.885 291.644 202.059C289.694 200.233 288.449 201.495 290.362 211.339C292.274 221.183 292.259 229.186 292.259 229.186C292.259 229.186 288.029 216.269 285.194 215.893C282.359 215.517 282.359 219.695 284.789 223.325C287.219 226.954 291.899 233.455 292.672 236.799C292.672 236.799 288.029 227.082 283.859 230.058C279.682 233.034 287.489 238.91 290.969 241.029C294.449 243.148 296.864 256.449 296.864 256.449L298.657 255.938H298.664Z" fill="#599E85"/>
<path opacity="0.2" d="M298.664 255.938C298.664 255.938 295.102 248.153 299.174 240.473C303.247 232.793 304.424 230.99 301.829 229.412C299.234 227.834 298.042 235.551 298.042 235.551C298.042 235.551 295.852 230.246 297.659 224.693C299.467 219.139 300.599 210.092 298.132 209.122C295.664 208.153 297.659 220.409 295.522 224.587C295.522 224.587 293.722 219.936 293.429 215.472C293.137 211.009 293.594 203.885 291.644 202.059C289.694 200.233 288.449 201.495 290.362 211.339C292.274 221.183 292.259 229.186 292.259 229.186C292.259 229.186 288.029 216.269 285.194 215.893C282.359 215.517 282.359 219.695 284.789 223.325C287.219 226.954 291.899 233.455 292.672 236.799C292.672 236.799 288.029 227.082 283.859 230.058C279.682 233.034 287.489 238.91 290.969 241.029C294.449 243.148 296.864 256.449 296.864 256.449L298.657 255.938H298.664Z" fill="black"/>
<path d="M295.853 259.132C295.853 259.132 299.326 251.294 295.163 243.674C291.001 236.055 289.801 234.266 292.373 232.658C294.946 231.05 296.228 238.745 296.228 238.745C296.228 238.745 298.351 233.402 296.476 227.879C294.601 222.348 293.363 213.323 295.816 212.316C298.268 211.309 296.423 223.596 298.613 227.736C298.613 227.736 300.353 223.062 300.601 218.591C300.848 214.12 300.293 207.011 302.221 205.155C304.148 203.299 305.408 204.546 303.616 214.42C301.823 224.294 301.928 232.297 301.928 232.297C301.928 232.297 306.001 219.32 308.836 218.899C311.671 218.478 311.716 222.664 309.331 226.323C306.946 229.99 302.341 236.558 301.613 239.91C301.613 239.91 306.136 230.126 310.343 233.041C314.551 235.957 306.818 241.946 303.361 244.118C299.903 246.289 297.653 259.62 297.653 259.62L295.853 259.132Z" fill="#599E85"/>
<path d="M311.856 253.541H283.191L285.516 274.086H309.531L311.856 253.541Z" fill="#263238"/>
<path d="M178.951 127.561L180.631 126.058C181.261 125.494 182.131 125.269 182.956 125.457L186.818 126.336C188.363 126.689 189.638 127.764 190.246 129.229L190.621 130.138C188.003 132.821 183.203 133.783 183.203 133.783L181.868 134.211C180.676 134.594 179.461 134.001 179.078 132.851L178.201 130.206C177.901 129.289 178.201 128.244 178.958 127.568L178.951 127.561Z" fill="#EBB376"/>
<path d="M217.583 104.874C217.118 108.774 216.563 112.666 215.963 116.551C215.4 120.444 214.74 124.314 214.08 128.191L214.05 128.357C214.02 128.537 213.968 128.725 213.908 128.883C213.443 130.093 212.595 131.047 211.8 131.618C210.998 132.212 210.233 132.55 209.528 132.798C208.11 133.279 206.843 133.452 205.628 133.564C203.198 133.767 200.94 133.625 198.713 133.414C196.493 133.181 194.318 132.843 192.165 132.415C190.013 131.971 187.913 131.498 185.775 130.874C184.785 130.589 184.223 129.544 184.508 128.56C184.763 127.696 185.58 127.154 186.443 127.222H186.488C188.55 127.387 190.673 127.553 192.765 127.635C194.858 127.733 196.935 127.801 198.983 127.771C201.023 127.756 203.048 127.628 204.863 127.327C205.763 127.177 206.61 126.952 207.195 126.681C207.48 126.553 207.683 126.403 207.728 126.343C207.795 126.268 207.63 126.358 207.548 126.568L207.375 127.267C207.758 123.36 208.148 119.46 208.628 115.567C209.078 111.674 209.565 107.782 210.15 103.904V103.882C210.465 101.83 212.378 100.418 214.425 100.726C216.435 101.026 217.823 102.882 217.59 104.881L217.583 104.874Z" fill="#E9B376"/>
<path d="M217.155 92.9785C210.96 93.6398 208.133 98.2237 205.508 108.579C207.818 111.983 216.75 114.305 216.75 114.305C216.75 114.305 222.083 98.9451 217.155 92.9785Z" fill="#CB1B5B"/>
<path opacity="0.6" d="M219.248 101.117C219.143 107.452 216.758 114.313 216.758 114.313C216.758 114.313 215.821 114.072 214.471 113.621C211.666 112.697 207.076 110.886 205.516 108.587C208.141 98.2315 210.968 93.6476 217.163 92.9863C218.798 94.9627 219.301 97.976 219.248 101.117Z" fill="white"/>
<path opacity="0.1" d="M219.249 101.117C219.144 107.452 216.759 114.313 216.759 114.313C216.759 114.313 215.821 114.072 214.471 113.621C212.641 106.25 217.644 102.199 219.249 101.117Z" fill="black"/>
<path d="M241.796 169.852C242.786 172.474 243.693 175.134 244.511 177.742C248.681 190.952 250.811 206.65 250.811 206.65C261.956 229.217 269.778 263.137 269.778 263.137L265.653 264.52L238.556 204.156L230.516 183.385L241.796 169.852Z" fill="#EBB376"/>
<path d="M269.949 259.989C269.701 259.501 263.844 262.83 263.844 262.83C263.844 262.83 261.961 268.421 258.766 271.028C255.571 273.636 258.639 274.823 262.674 272.862C266.709 270.9 269.784 269.405 272.649 268.007C275.514 266.61 272.536 265.039 269.941 259.989H269.949Z" fill="#263238"/>
<path d="M261.422 265.918C261.204 266.023 260.994 266.075 260.822 266.03C260.657 265.993 260.447 265.857 260.364 265.459C260.327 265.264 260.364 265.076 260.492 264.896C260.724 264.557 261.242 264.287 261.774 264.092C261.159 264.069 260.574 263.956 260.402 263.648C260.289 263.445 260.342 263.212 260.552 262.949C260.754 262.701 261.009 262.566 261.324 262.551C262.307 262.491 263.492 263.648 263.552 263.708C263.567 263.723 263.582 263.746 263.589 263.768C263.589 263.768 263.604 263.806 263.604 263.829C263.604 263.829 263.604 263.866 263.604 263.889C263.604 263.889 263.589 263.934 263.574 263.949C263.327 264.257 262.284 265.519 261.444 265.933L261.422 265.918ZM261.422 264.61C261.129 264.753 260.897 264.911 260.777 265.091C260.709 265.189 260.687 265.286 260.709 265.384C260.762 265.647 260.867 265.677 260.904 265.685C261.302 265.782 262.247 264.911 262.952 264.099C262.487 264.212 261.887 264.385 261.422 264.61ZM261.062 262.957C260.972 263.002 260.889 263.07 260.814 263.16C260.747 263.235 260.649 263.385 260.694 263.468C260.844 263.731 261.932 263.783 262.989 263.686C262.599 263.363 261.894 262.859 261.324 262.889C261.227 262.889 261.137 262.919 261.054 262.957H261.062Z" fill="#CB1B5B"/>
<path d="M223.751 169.702C225.274 179.193 227.636 186.437 230.209 192.449C233.569 200.271 237.281 206.027 239.981 211.964C244.751 222.469 257.089 247.44 257.089 247.44L265.346 241.195C265.346 241.195 252.169 209.386 251.276 203.142C250.699 199.099 250.144 177.359 249.821 162.541C249.649 154.462 249.544 148.443 249.544 148.443L225.956 129.574C225.956 129.574 220.256 147.857 223.751 169.702Z" fill="#CB1B5B"/>
<path opacity="0.5" d="M223.751 169.702C225.274 179.193 227.636 186.437 230.209 192.449C233.569 200.271 237.281 206.027 239.981 211.964C244.751 222.469 257.089 247.44 257.089 247.44L265.346 241.195C265.346 241.195 252.169 209.386 251.276 203.142C250.699 199.099 250.144 177.359 249.821 162.541C249.649 154.462 249.544 148.443 249.544 148.443L225.956 129.574C225.956 129.574 220.256 147.857 223.751 169.702Z" fill="white"/>
<path opacity="0.2" d="M230.203 192.449C233.563 200.271 237.276 206.027 239.976 211.964C244.746 222.469 257.083 247.44 257.083 247.44L265.341 241.195C265.341 241.195 252.163 209.386 251.271 203.142C250.693 199.099 250.138 177.359 249.816 162.541L242.833 147.85L233.781 151.494L236.736 162.886L230.203 192.449Z" fill="black"/>
<path d="M238.839 216.518C232.622 240.241 220.937 268.383 220.937 268.383L216.887 266.805L228.752 216.518H238.839Z" fill="#EBB376"/>
<path d="M223.081 266.077C223.201 265.543 216.579 264.363 216.579 264.363C216.579 264.363 211.569 267.467 207.451 267.429C203.334 267.392 204.939 270.27 209.289 271.337C213.646 272.404 216.969 273.223 220.059 273.982C223.156 274.741 221.866 271.622 223.081 266.084V266.077Z" fill="#263238"/>
<path d="M212.737 265.19C212.497 265.129 212.31 265.039 212.197 264.889C212.1 264.754 212.017 264.521 212.212 264.153C212.302 263.98 212.46 263.86 212.67 263.799C213.067 263.687 213.63 263.807 214.17 263.995C213.712 263.581 213.33 263.123 213.39 262.777C213.435 262.552 213.622 262.402 213.952 262.334C214.26 262.274 214.552 262.334 214.8 262.514C215.587 263.101 215.767 264.746 215.775 264.829C215.775 264.851 215.775 264.874 215.775 264.904C215.775 264.904 215.76 264.942 215.752 264.957C215.752 264.957 215.73 264.987 215.707 264.994C215.707 264.994 215.67 265.017 215.64 265.024C215.257 265.107 213.645 265.415 212.737 265.19ZM213.57 264.19C213.255 264.115 212.97 264.085 212.767 264.145C212.655 264.175 212.572 264.235 212.527 264.325C212.4 264.566 212.467 264.656 212.482 264.679C212.73 265.009 214.012 264.942 215.07 264.769C214.642 264.558 214.072 264.31 213.57 264.19ZM214.342 262.687C214.245 262.665 214.14 262.665 214.027 262.687C213.93 262.71 213.757 262.755 213.742 262.845C213.69 263.146 214.492 263.882 215.37 264.483C215.272 263.987 215.055 263.146 214.597 262.807C214.515 262.747 214.432 262.71 214.35 262.687H214.342Z" fill="#CB1B5B"/>
<path d="M250.905 127.041C250.905 127.041 260.047 146.361 256.815 164.599C253.582 182.829 243.817 206.237 241.185 211.91C238.552 217.584 228.72 251.204 228.72 251.204L220.215 248.431C220.215 248.431 227.812 215.067 230.205 203.442C231.33 197.948 240.99 158.85 240.99 158.85C240.99 158.85 224.445 146.534 225.615 127.259L250.897 127.041H250.905Z" fill="#CB1B5B"/>
<path opacity="0.5" d="M250.905 127.041C250.905 127.041 260.047 146.361 256.815 164.599C253.582 182.829 243.817 206.237 241.185 211.91C238.552 217.584 228.72 251.204 228.72 251.204L220.215 248.431C220.215 248.431 227.812 215.067 230.205 203.442C231.33 197.948 240.99 158.85 240.99 158.85C240.99 158.85 224.445 146.534 225.615 127.259L250.897 127.041H250.905Z" fill="white"/>
<path d="M233.084 73.5838C234.022 73.0202 235.147 72.7422 236.369 72.9751C239.579 73.5838 240.344 76.7549 239.917 79.0694C239.624 80.6475 238.304 82.6614 236.279 83.1724C233.752 83.8036 231.524 81.4666 230.872 79.7006C230.062 77.5214 230.804 74.959 233.092 73.5838H233.084Z" fill="#263238"/>
<path d="M222.715 141.838L233.087 145.347L235.007 139.035L237.108 144.859L255.925 140.47C254.312 128.89 247.87 119.663 246.858 116.161C245.463 111.321 244.375 102.064 245.32 96.0744V96.0293C245.717 93.4744 243.88 91.1073 241.307 90.9044C239.485 90.7616 237.662 90.694 235.825 90.6865C232.202 90.6414 228.572 90.8593 224.972 91.3252C220.352 92.0541 215.125 93.4593 215.125 93.4593C215.125 93.4593 214.405 93.7674 214.735 98.7496C215.042 103.101 215.875 116.619 224.747 128.064L222.7 141.838H222.715Z" fill="#CB1B5B"/>
<path opacity="0.6" d="M255.926 140.47L237.108 144.859L235.008 139.035L233.088 145.347L222.716 141.838L224.763 128.064C215.883 116.619 215.051 103.101 214.751 98.7421C214.421 93.7674 215.141 93.4593 215.141 93.4593C215.141 93.4593 220.361 92.0541 224.981 91.3252C228.581 90.8593 232.211 90.6414 235.833 90.6865C237.663 90.6865 239.493 90.7616 241.316 90.9044C243.881 91.0998 245.718 93.4744 245.328 96.0293C245.328 96.0444 245.328 96.0519 245.321 96.0669C244.938 98.5166 244.886 101.507 245.066 104.521C245.321 108.887 246.033 113.298 246.858 116.161C247.061 116.852 247.473 117.769 248.013 118.889C250.233 123.405 254.636 131.182 255.926 140.47Z" fill="white"/>
<path d="M233.265 99.9144C233.265 99.9144 229.125 103.514 227.918 112.764L223.245 99.8318L220.035 100.809C220.035 100.809 222.503 89.086 230.565 88.8605C238.628 88.6351 237.99 100.809 237.99 100.809L233.265 99.9069V99.9144Z" fill="#CB1B5B"/>
<path opacity="0.5" d="M233.265 99.9144C233.265 99.9144 229.125 103.514 227.918 112.764L223.245 99.8318L220.035 100.809C220.035 100.809 222.503 89.086 230.565 88.8605C238.628 88.6351 237.99 100.809 237.99 100.809L233.265 99.9069V99.9144Z" fill="white"/>
<path d="M221.625 86.7186C221.625 86.7186 224.565 88.6273 225.075 89.8822C225.105 89.9498 225.128 90.0325 225.15 90.1302C225.338 90.8591 225.45 92.3019 225.45 92.3019C223.163 97.1488 227.513 105.49 227.513 105.49C230.085 97.8627 234.885 91.7383 234.885 91.7383C230.167 89.8822 229.268 80.8271 229.268 80.8271L226.98 82.5931L221.625 86.7186Z" fill="#EBB376"/>
<path opacity="0.2" d="M221.625 86.7187C221.625 86.7187 224.565 88.6274 225.075 89.8823C225.105 89.95 225.128 90.0326 225.15 90.1303C229.433 86.8465 228.893 81.9395 228.893 81.9395L226.98 82.5932L221.625 86.7187Z" fill="black"/>
<path d="M218.355 65.482C218.355 65.482 212.408 63.8138 209.528 68.6231C206.648 73.4324 208.95 77.077 210.953 78.8129" stroke="#263238" stroke-width="0.49" stroke-linecap="round" stroke-linejoin="round"/>
<path d="M215.986 65.2195C215.986 65.2195 211.141 65.3698 209.798 69.4727C208.456 73.5757 209.453 78.1821 216.646 83.1417C220.163 85.5689 228.901 80.8272 228.901 80.8272L229.598 82.9463C230.881 82.022 231.953 80.955 232.763 80.0081C235.591 76.6867 234.863 65.6779 227.011 63.5287C218.813 61.2818 215.986 65.2195 215.986 65.2195Z" fill="#263238"/>
<path d="M220.613 66.5873C214.456 67.429 212.918 70.9984 213.338 77.4233C213.856 85.4489 216.383 90.8519 223.853 88.1015C234.001 84.3668 230.843 65.1896 220.621 66.5873H220.613Z" fill="#EBB376"/>
<path d="M217.268 76.5368C217.268 76.5368 216.63 78.2652 215.82 79.3397C215.82 79.3397 216.465 80.1062 217.538 79.8132L217.26 76.5293L217.268 76.5368Z" fill="#D58745"/>
<path d="M220.963 75.514C221.023 76.025 221.338 76.4008 221.675 76.3632C222.013 76.3256 222.245 75.8823 222.185 75.3713C222.125 74.8603 221.81 74.4845 221.473 74.5221C221.135 74.5597 220.903 75.0031 220.963 75.514Z" fill="#263238"/>
<path d="M221.616 74.5376L220.461 74.2295C220.461 74.2295 221.113 75.1012 221.616 74.5376Z" fill="#263238"/>
<path d="M214.642 76.1224C214.702 76.6334 215.017 77.0092 215.355 76.9716C215.692 76.934 215.925 76.4907 215.865 75.9797C215.805 75.4687 215.49 75.0929 215.152 75.1305C214.815 75.1681 214.582 75.6114 214.642 76.1224Z" fill="#263238"/>
<path d="M215.296 75.1382L214.141 74.8301C214.141 74.8301 214.793 75.7018 215.296 75.1382Z" fill="#263238"/>
<path d="M220.445 71.2462C220.445 71.2462 222.148 70.7879 223.243 71.8173" stroke="#263238" stroke-width="0.71" stroke-linecap="round" stroke-linejoin="round"/>
<path d="M215.94 71.6C215.94 71.6 214.8 71.3445 213.555 72.4416" stroke="#263238" stroke-width="0.71" stroke-linecap="round" stroke-linejoin="round"/>
<path d="M228.757 76.0708C228.757 76.0708 225.187 71.3968 225.089 67.4216C225.089 67.4216 212.204 64.0926 213.292 76.5893C213.292 76.5893 210.599 65.7308 221.152 64.04C231.689 62.3492 234.142 76.9125 229.297 82.2854C229.297 82.2854 230.962 79.0015 228.749 76.0783L228.757 76.0708Z" fill="#263238"/>
<path d="M227.926 77.5059C227.828 76.5064 228.623 74.6879 230.498 74.6353C232.433 74.5827 233.881 78.3851 229.261 79.9782C228.601 80.2036 228.121 79.5949 227.926 77.5059Z" fill="#EBB376"/>
<path d="M217.867 81.6611C218.19 82.4501 218.49 83.9154 218.49 83.9154C218.625 83.9154 218.767 83.9155 218.902 83.9004C220.762 83.8178 221.595 83.1565 221.955 82.4576C222.15 82.0744 222.202 81.6686 222.202 81.3455C222.202 80.9697 222.12 80.6992 222.12 80.6992C221.16 81.338 219.435 81.5484 218.505 81.6235C218.115 81.6611 217.875 81.6611 217.875 81.6611H217.867Z" fill="#263238"/>
<path d="M218.504 81.6157L218.706 82.277C220.454 82.1943 221.676 81.8937 222.201 81.3377C222.201 80.9619 222.119 80.6914 222.119 80.6914C221.159 81.3301 219.434 81.5406 218.504 81.6157Z" fill="white"/>
<path d="M218.902 83.893C220.762 83.8103 221.595 83.149 221.955 82.4502C221.325 82.5028 220.567 82.6381 219.907 82.9537C219.405 83.1941 219.097 83.5398 218.895 83.893H218.902Z" fill="#DE5753"/>
<path d="M234.269 72.4409L233.819 62.8373L235.507 60.1847C235.507 60.1847 228.944 57.5095 221.842 59.1928L215.984 65.2194C215.984 65.2194 227.294 62.4015 234.269 72.4409Z" fill="#CB1B5B"/>
<path opacity="0.6" d="M215.992 65.2194C215.992 65.2194 222.382 63.6264 228.517 67.1056C230.55 68.2478 232.545 69.9461 234.277 72.4409L233.827 62.8373L235.515 60.1847C235.515 60.1847 228.952 57.5095 221.85 59.1928L215.992 65.2194Z" fill="white"/>
<path opacity="0.1" d="M228.516 67.1055C230.548 68.2477 232.543 69.946 234.276 72.4408L233.826 62.8372L235.513 60.1846L228.516 67.1055Z" fill="black"/>
<path d="M216.307 115.003L224.542 114.447L223.957 109.841L215.715 110.397L216.307 115.003Z" fill="#CB1B5B"/>
<path opacity="0.5" d="M216.745 114.642L223.832 114.161L223.33 110.201L216.242 110.682L216.745 114.642Z" fill="white"/>
<path d="M219.595 108.586L220.383 110.818H219.062V108.586H219.595Z" fill="#263238"/>
<path opacity="0.1" d="M248.01 118.888C239.242 118.039 240.03 106.279 240.03 106.279C241.785 105.505 243.465 104.926 245.062 104.521C245.317 108.886 246.03 113.298 246.855 116.161C247.057 116.852 247.47 117.769 248.01 118.888Z" fill="black"/>
<path d="M216.474 127.561L218.154 126.058C218.784 125.494 219.654 125.269 220.479 125.457L224.342 126.336C225.887 126.689 227.162 127.764 227.769 129.229L228.144 130.138C225.527 132.821 220.727 133.783 220.727 133.783L219.392 134.211C218.199 134.594 216.984 134.001 216.602 132.851L215.724 130.206C215.424 129.289 215.724 128.244 216.482 127.568L216.474 127.561Z" fill="#EBB376"/>
<path d="M249.684 102.627C250.006 103.754 250.254 104.731 250.479 105.783C250.711 106.82 250.914 107.857 251.109 108.894C251.484 110.975 251.739 113.087 251.941 115.206C252.151 117.325 252.219 119.474 252.189 121.638C252.159 123.803 251.949 125.997 251.604 128.191L251.589 128.304C251.559 128.499 251.499 128.71 251.431 128.89C250.966 130.1 250.119 131.054 249.324 131.625C248.521 132.219 247.756 132.557 247.051 132.805C245.634 133.286 244.366 133.459 243.151 133.572C240.721 133.774 238.464 133.632 236.236 133.421C234.016 133.188 231.841 132.85 229.689 132.422C227.536 131.978 225.436 131.505 223.299 130.881C222.309 130.596 221.746 129.551 222.031 128.567C222.286 127.703 223.104 127.162 223.966 127.229H224.011C226.074 127.395 228.196 127.56 230.289 127.643C232.381 127.74 234.459 127.808 236.506 127.778C238.546 127.763 240.571 127.635 242.386 127.334C243.286 127.184 244.134 126.959 244.719 126.688C245.004 126.56 245.206 126.41 245.251 126.35C245.319 126.275 245.154 126.365 245.071 126.575L244.899 127.274C245.049 125.448 245.094 123.585 245.034 121.698C244.944 119.805 244.801 117.904 244.576 115.995C244.344 114.086 244.029 112.178 243.676 110.276C243.504 109.322 243.316 108.375 243.106 107.428C242.904 106.504 242.679 105.512 242.469 104.678L242.446 104.573C241.951 102.559 243.174 100.522 245.184 100.019C247.149 99.5306 249.136 100.703 249.691 102.634L249.684 102.627Z" fill="#E9B376"/>
<path d="M241.18 91.1973C247.375 91.8585 250.202 96.4424 252.827 106.797C250.517 110.202 241.585 112.524 241.585 112.524C241.585 112.524 236.252 97.1638 241.18 91.1973Z" fill="#CB1B5B"/>
<path opacity="0.6" d="M241.18 91.1973C247.375 91.8585 250.202 96.4424 252.827 106.797C250.517 110.202 241.585 112.524 241.585 112.524C241.585 112.524 236.252 97.1638 241.18 91.1973Z" fill="white"/>
<path d="M104.153 261.477C101.326 261.477 99.0156 264.302 99.0156 267.781C99.0156 271.261 101.318 274.086 104.153 274.086C106.988 274.086 109.291 271.261 109.291 267.781C109.291 264.302 106.988 261.477 104.153 261.477Z" fill="#2E353A"/>
<path d="M104.153 271.832C102.593 271.832 101.266 269.976 101.266 267.782C101.266 265.588 102.586 263.731 104.153 263.731C105.721 263.731 107.041 265.588 107.041 267.782C107.041 269.976 105.721 271.832 104.153 271.832Z" fill="#407BFF"/>
<path d="M103.445 268.09V260.966H108.538L105.868 268.51C105.688 269.006 105.223 269.345 104.69 269.345C104 269.345 103.445 268.788 103.445 268.097V268.09Z" fill="#2E353A"/>
<path opacity="0.3" d="M103.445 268.09V260.966H108.538L105.868 268.51C105.688 269.006 105.223 269.345 104.69 269.345C104 269.345 103.445 268.788 103.445 268.097V268.09Z" fill="white"/>
<path d="M120.766 190.66V179.696C120.766 177.72 122.363 176.119 124.336 176.119H177.698" stroke="#263238" stroke-width="4" stroke-miterlimit="10"/>
<path d="M151.39 274.086C135.355 274.086 122.312 258.072 122.312 238.384C122.312 218.696 135.355 202.683 151.39 202.683C167.425 202.683 180.467 218.696 180.467 238.384C180.467 258.072 167.425 274.086 151.39 274.086ZM151.39 206.447C137.425 206.447 126.062 220.778 126.062 238.392C126.062 256.006 137.425 270.336 151.39 270.336C165.355 270.336 176.717 256.006 176.717 238.392C176.717 220.778 165.355 206.447 151.39 206.447Z" fill="#2E353A"/>
<path d="M151.39 206.071C137.215 206.071 125.688 220.567 125.688 238.391C125.688 256.216 137.215 270.712 151.39 270.712C165.565 270.712 177.092 256.216 177.092 238.391C177.092 220.567 165.565 206.071 151.39 206.071ZM156.685 232.816L166.998 219.597C168.603 221.882 169.915 224.52 170.86 227.413L157.465 234.379C157.247 233.823 156.985 233.297 156.685 232.816ZM152.14 229.599V210.603C154.6 210.715 156.955 211.384 159.137 212.504L153.393 229.922C152.988 229.765 152.575 229.652 152.147 229.592L152.14 229.599ZM150.64 229.599C150.243 229.652 149.86 229.757 149.493 229.9L143.942 212.361C146.042 211.324 148.292 210.715 150.647 210.61V229.607L150.64 229.599ZM145.353 234.266L132.04 227.052C132.978 224.302 134.245 221.792 135.775 219.605L146.087 232.823C145.81 233.274 145.562 233.755 145.353 234.266ZM144.88 235.716C144.73 236.332 144.632 236.971 144.587 237.632H130.195C130.262 234.424 130.742 231.35 131.567 228.502L144.873 235.716H144.88ZM144.587 239.135C144.625 239.759 144.715 240.36 144.85 240.931L131.462 247.897C130.697 245.155 130.262 242.201 130.195 239.135H144.587ZM145.308 242.389C145.525 242.945 145.787 243.471 146.087 243.952L135.775 257.17C134.17 254.886 132.858 252.248 131.913 249.355L145.308 242.389ZM150.632 247.168V266.165C148.172 266.053 145.817 265.384 143.635 264.264L149.38 246.845C149.785 247.003 150.197 247.116 150.632 247.176V247.168ZM152.132 247.168C152.53 247.116 152.912 247.011 153.28 246.868L158.83 264.407C156.73 265.444 154.48 266.052 152.125 266.158V247.161L152.132 247.168ZM157.42 242.502L170.732 249.716C169.795 252.466 168.527 254.976 166.99 257.163L156.677 243.945C156.955 243.494 157.203 243.013 157.413 242.502H157.42ZM157.893 241.052C158.043 240.435 158.14 239.797 158.185 239.135H172.578C172.51 242.344 172.03 245.418 171.205 248.266L157.9 241.052H157.893ZM158.185 237.632C158.148 237.009 158.057 236.408 157.922 235.829L171.31 228.863C172.075 231.606 172.51 234.559 172.578 237.625H158.185V237.632ZM166.067 218.35L155.748 231.583C155.433 231.245 155.088 230.937 154.728 230.674L160.473 213.263C162.55 214.555 164.432 216.284 166.075 218.35H166.067ZM142.6 213.09L148.143 230.606C147.745 230.884 147.377 231.207 147.032 231.583L136.712 218.35C138.422 216.193 140.41 214.405 142.6 213.09ZM136.712 258.418L147.032 245.185C147.347 245.523 147.692 245.831 148.052 246.094L142.308 263.505C140.23 262.213 138.348 260.484 136.705 258.418H136.712ZM160.18 263.678L154.637 246.161C155.035 245.883 155.403 245.56 155.748 245.185L166.067 258.418C164.357 260.574 162.37 262.363 160.18 263.678Z" fill="#407BFF"/>
<g opacity="0.2">
<path d="M151.39 206.071C137.215 206.071 125.688 220.567 125.688 238.391C125.688 256.216 137.215 270.712 151.39 270.712C165.565 270.712 177.092 256.216 177.092 238.391C177.092 220.567 165.565 206.071 151.39 206.071ZM156.685 232.816L166.998 219.597C168.603 221.882 169.915 224.52 170.86 227.413L157.465 234.379C157.247 233.823 156.985 233.297 156.685 232.816ZM152.14 229.599V210.603C154.6 210.715 156.955 211.384 159.137 212.504L153.393 229.922C152.988 229.765 152.575 229.652 152.147 229.592L152.14 229.599ZM150.64 229.599C150.243 229.652 149.86 229.757 149.493 229.9L143.942 212.361C146.042 211.324 148.292 210.715 150.647 210.61V229.607L150.64 229.599ZM145.353 234.266L132.04 227.052C132.978 224.302 134.245 221.792 135.775 219.605L146.087 232.823C145.81 233.274 145.562 233.755 145.353 234.266ZM144.88 235.716C144.73 236.332 144.632 236.971 144.587 237.632H130.195C130.262 234.424 130.742 231.35 131.567 228.502L144.873 235.716H144.88ZM144.587 239.135C144.625 239.759 144.715 240.36 144.85 240.931L131.462 247.897C130.697 245.155 130.262 242.201 130.195 239.135H144.587ZM145.308 242.389C145.525 242.945 145.787 243.471 146.087 243.952L135.775 257.17C134.17 254.886 132.858 252.248 131.913 249.355L145.308 242.389ZM150.632 247.168V266.165C148.172 266.053 145.817 265.384 143.635 264.264L149.38 246.845C149.785 247.003 150.197 247.116 150.632 247.176V247.168ZM152.132 247.168C152.53 247.116 152.912 247.011 153.28 246.868L158.83 264.407C156.73 265.444 154.48 266.052 152.125 266.158V247.161L152.132 247.168ZM157.42 242.502L170.732 249.716C169.795 252.466 168.527 254.976 166.99 257.163L156.677 243.945C156.955 243.494 157.203 243.013 157.413 242.502H157.42ZM157.893 241.052C158.043 240.435 158.14 239.797 158.185 239.135H172.578C172.51 242.344 172.03 245.418 171.205 248.266L157.9 241.052H157.893ZM158.185 237.632C158.148 237.009 158.057 236.408 157.922 235.829L171.31 228.863C172.075 231.606 172.51 234.559 172.578 237.625H158.185V237.632ZM166.067 218.35L155.748 231.583C155.433 231.245 155.088 230.937 154.728 230.674L160.473 213.263C162.55 214.555 164.432 216.284 166.075 218.35H166.067ZM142.6 213.09L148.143 230.606C147.745 230.884 147.377 231.207 147.032 231.583L136.712 218.35C138.422 216.193 140.41 214.405 142.6 213.09ZM136.712 258.418L147.032 245.185C147.347 245.523 147.692 245.831 148.052 246.094L142.308 263.505C140.23 262.213 138.348 260.484 136.705 258.418H136.712ZM160.18 263.678L154.637 246.161C155.035 245.883 155.403 245.56 155.748 245.185L166.067 258.418C164.357 260.574 162.37 262.363 160.18 263.678Z" fill="black"/>
</g>
<path d="M170.933 203.156H119.251C115.831 203.156 113.056 205.944 113.056 209.363V257.885C113.056 259.418 111.811 260.665 110.281 260.665H98.9258C98.1008 260.665 97.4258 261.341 97.4258 262.168C97.4258 262.995 98.1008 263.671 98.9258 263.671H110.281C113.461 263.671 116.056 261.078 116.056 257.885V239.887H170.933C171.758 239.887 172.433 239.211 172.433 238.385V204.659C172.433 203.833 171.758 203.156 170.933 203.156ZM169.433 236.882H116.056V209.363C116.056 207.597 117.488 206.162 119.251 206.162H169.433V236.882Z" fill="#2E353A"/>
<path opacity="0.3" d="M170.933 203.156H119.251C115.831 203.156 113.056 205.944 113.056 209.363V257.885C113.056 259.418 111.811 260.665 110.281 260.665H98.9258C98.1008 260.665 97.4258 261.341 97.4258 262.168C97.4258 262.995 98.1008 263.671 98.9258 263.671H110.281C113.461 263.671 116.056 261.078 116.056 257.885V239.887H170.933C171.758 239.887 172.433 239.211 172.433 238.385V204.659C172.433 203.833 171.758 203.156 170.933 203.156ZM169.433 236.882H116.056V209.363C116.056 207.597 117.488 206.162 119.251 206.162H169.433V236.882Z" fill="white"/>
<path d="M174.399 137.96V186.369H116.679C113.567 186.369 111.039 188.901 111.039 192.02V217.133H171.384C175.149 217.133 178.202 214.075 178.202 210.303V137.967H174.392L174.399 137.96Z" fill="#2E353A"/>
<path opacity="0.3" d="M174.399 137.96V186.369H116.679C113.567 186.369 111.039 188.901 111.039 192.02V217.133H171.384C175.149 217.133 178.202 214.075 178.202 210.303V137.967H174.392L174.399 137.96Z" fill="white"/>
<path d="M116.013 204.569H195.768V215.571H110.32V210.273C110.32 207.124 112.87 204.569 116.013 204.569Z" fill="#263238"/>
<path d="M201.413 214.008H110.22C109.358 214.008 108.66 214.707 108.66 215.571C108.66 216.435 109.358 217.134 110.22 217.134H201.413C202.238 217.134 202.92 216.488 202.973 215.661C203.025 214.767 202.313 214.008 201.413 214.008Z" fill="#2E353A"/>
<path opacity="0.3" d="M201.413 214.008H110.22C109.358 214.008 108.66 214.707 108.66 215.571C108.66 216.435 109.358 217.134 110.22 217.134H201.413C202.238 217.134 202.92 216.488 202.973 215.661C203.025 214.767 202.313 214.008 201.413 214.008Z" fill="white"/>
<path d="M175.742 139.395H207.722V204.087C207.722 209.565 203.282 214.007 197.822 214.007H175.75V139.395H175.742Z" fill="#263238"/>
<path d="M109.823 258.133H83.8209C82.7937 258.133 81.9609 258.967 81.9609 259.996V261.048C81.9609 262.078 82.7937 262.912 83.8209 262.912H109.823C110.851 262.912 111.683 262.078 111.683 261.048V259.996C111.683 258.967 110.851 258.133 109.823 258.133Z" fill="#2E353A"/>
<path opacity="0.2" d="M109.823 258.133H83.8209C82.7937 258.133 81.9609 258.967 81.9609 259.996V261.048C81.9609 262.078 82.7937 262.912 83.8209 262.912H109.823C110.851 262.912 111.683 262.078 111.683 261.048V259.996C111.683 258.967 110.851 258.133 109.823 258.133Z" fill="white"/>
<path d="M201.272 237.325L172.239 226.978L201.272 216.63C201.857 216.42 202.164 215.774 201.954 215.188C201.744 214.601 201.099 214.293 200.514 214.504L168.879 225.783L137.244 214.504C136.659 214.293 136.014 214.601 135.804 215.188C135.594 215.774 135.902 216.42 136.487 216.63L165.519 226.978L136.487 237.325C135.902 237.536 135.594 238.182 135.804 238.768C135.969 239.227 136.404 239.52 136.862 239.52C136.989 239.52 137.117 239.497 137.237 239.452L168.872 228.173L200.507 239.452C200.634 239.497 200.762 239.52 200.882 239.52C201.347 239.52 201.774 239.234 201.939 238.768C202.149 238.182 201.842 237.536 201.257 237.325H201.272Z" fill="#2E353A"/>
<path opacity="0.3" d="M201.272 237.325L172.239 226.978L201.272 216.63C201.857 216.42 202.164 215.774 201.954 215.188C201.744 214.601 201.099 214.293 200.514 214.504L168.879 225.783L137.244 214.504C136.659 214.293 136.014 214.601 135.804 215.188C135.594 215.774 135.902 216.42 136.487 216.63L165.519 226.978L136.487 237.325C135.902 237.536 135.594 238.182 135.804 238.768C135.969 239.227 136.404 239.52 136.862 239.52C136.989 239.52 137.117 239.497 137.237 239.452L168.872 228.173L200.507 239.452C200.634 239.497 200.762 239.52 200.882 239.52C201.347 239.52 201.774 239.234 201.939 238.768C202.149 238.182 201.842 237.536 201.257 237.325H201.272Z" fill="white"/>
<path d="M176.211 145.106C175.588 145.106 175.086 144.603 175.086 143.979V135.345C175.086 131.903 177.771 129.085 181.198 128.92L188.458 128.566C189.081 128.529 189.606 129.017 189.636 129.641C189.666 130.265 189.186 130.791 188.563 130.821L181.303 131.174C179.076 131.279 177.328 133.113 177.328 135.352V143.986C177.328 144.61 176.826 145.114 176.203 145.114L176.211 145.106Z" fill="#263238"/>
<path d="M132.669 261.477C129.841 261.477 127.531 264.302 127.531 267.781C127.531 271.261 129.834 274.086 132.669 274.086C135.504 274.086 137.806 271.261 137.806 267.781C137.806 264.302 135.504 261.477 132.669 261.477Z" fill="#2E353A"/>
<path d="M132.669 271.832C131.101 271.832 129.781 269.976 129.781 267.782C129.781 265.588 131.101 263.731 132.669 263.731C134.236 263.731 135.556 265.588 135.556 267.782C135.556 269.976 134.236 271.832 132.669 271.832Z" fill="#407BFF"/>
<path d="M131.969 268.09V260.966H137.061L134.391 268.51C134.211 269.006 133.746 269.345 133.214 269.345C132.524 269.345 131.969 268.788 131.969 268.097V268.09Z" fill="#2E353A"/>
<path opacity="0.6" d="M131.969 268.09V260.966H137.061L134.391 268.51C134.211 269.006 133.746 269.345 133.214 269.345C132.524 269.345 131.969 268.788 131.969 268.097V268.09Z" fill="white"/>
<path d="M151.377 173.647L148.94 177.96C148.94 177.96 113.038 178.005 105.995 185.144C98.9525 192.275 89.75 214.443 89.75 214.443L103.445 219.598L118.73 197.648L166.4 200.804L171.058 172.94L151.377 173.654V173.647Z" fill="#263238"/>
<path opacity="0.2" d="M171.065 172.933L166.408 200.797L138.965 198.986L118.738 197.648L112.325 206.853L103.453 219.598L89.75 214.443C89.75 214.443 98.9525 192.275 105.995 185.144C113.038 178.012 148.94 177.96 148.94 177.96L151.378 173.646L171.065 172.933Z" fill="#CB1B5B"/>
<path opacity="0.2" d="M138.966 198.985L118.739 197.648L112.326 206.853C111.374 201.661 110.346 189.885 113.061 185.933C116.594 180.808 139.671 179.523 150.471 180.252C156.839 180.68 149.984 190.795 138.966 198.985Z" fill="black"/>
<path d="M158.372 131.46C157.697 136.029 156.917 140.537 156.047 145.061C155.154 149.585 154.217 154.079 153.009 158.677L152.514 160.436L152.229 161.36L152.087 161.819L152.049 161.931L151.937 162.247L151.802 162.57L151.667 162.833C150.924 164.186 150.279 164.719 149.679 165.29C149.079 165.831 148.509 166.23 147.954 166.62C145.742 168.116 143.612 169.168 141.452 170.175C137.132 172.151 132.797 173.729 128.297 175.052C127.074 175.412 125.792 174.714 125.432 173.481C125.124 172.444 125.582 171.37 126.467 170.836L126.512 170.813C130.382 168.506 134.312 166.207 138.024 163.84C138.954 163.246 139.854 162.645 140.724 162.029C141.594 161.428 142.434 160.804 143.147 160.195C143.499 159.895 143.822 159.587 144.047 159.331C144.272 159.113 144.414 158.805 144.197 159.136L144.159 159.211L144.099 159.331L144.054 159.451L144.077 159.361L144.167 158.993L144.339 158.264L144.669 156.694C145.509 152.388 146.237 147.887 146.972 143.423C147.714 138.952 148.449 134.451 149.237 129.994V129.972C149.679 127.447 152.087 125.756 154.607 126.2C157.082 126.635 158.754 128.972 158.387 131.452L158.372 131.46Z" fill="#F3ACA1"/>
<path d="M155.234 121.863C149.946 122.615 147.059 126.8 144.906 144.61L158.556 147.849C158.556 147.849 162.561 137.043 162.411 131.91C162.261 126.778 155.234 121.863 155.234 121.863Z" fill="#407BFF"/>
<path opacity="0.2" d="M158.549 147.849L156.846 147.443L148.941 145.572L144.906 144.618C147.059 126.801 149.946 122.615 155.234 121.871C155.234 121.871 162.261 126.778 162.411 131.911C162.561 137.051 158.549 147.849 158.549 147.849Z" fill="#CB1B5B"/>
<path opacity="0.2" d="M156.846 147.443L148.941 145.572C149.646 142.356 151.716 134.661 155.639 133.413C159.494 132.188 163.034 144.535 156.846 147.443Z" fill="black"/>
<path d="M129.864 254.977L137.199 253.181L136.734 246.012L136.284 239.437L127.344 240.616L128.671 248.221L129.864 254.977Z" fill="#F3ACA1"/>
<path opacity="0.2" d="M128.709 248.371L136.764 246.147L136.299 239.504L127.352 240.646L128.709 248.371Z" fill="black"/>
<path d="M137.474 251.242C137.437 250.686 128.669 251.437 128.669 251.437C128.669 251.437 123.419 255.939 118.207 257.096C112.994 258.253 116.017 260.613 121.882 260.402C127.747 260.192 132.224 260.034 136.387 259.884C140.557 259.734 137.849 257.043 137.467 251.25L137.474 251.242Z" fill="#2E353A"/>
<path d="M186.755 173.361C186.755 173.361 190.063 196.28 182.36 204.569C174.658 212.858 135.485 200.947 134.293 201.541C133.108 202.134 137.195 243.517 137.195 243.517L125.683 245.193C125.683 245.193 113.195 202.946 113.465 190.652C113.735 178.366 155.488 179.756 155.488 179.756L157.895 173.354H186.755V173.361Z" fill="#2E353A"/>
<path opacity="0.2" d="M186.755 173.361C186.755 173.361 190.063 196.28 182.36 204.569C174.658 212.858 135.485 200.947 134.293 201.541C133.108 202.134 137.195 243.517 137.195 243.517L125.683 245.193C125.683 245.193 113.195 202.946 113.465 190.652C113.735 178.366 155.488 179.756 155.488 179.756L157.895 173.354H186.755V173.361Z" fill="#CB1B5B"/>
<path d="M186.905 173.647C187.842 153.44 193.775 124.847 193.775 124.847C177.32 120.872 155.225 121.864 155.225 121.864C150.92 137.291 151.002 162.187 151.37 173.647H186.897H186.905Z" fill="#407BFF"/>
<path opacity="0.2" d="M186.897 173.647C187.197 167.132 188.022 159.745 188.997 152.726C189.552 148.729 190.16 144.851 190.745 141.319C192.327 131.821 193.775 124.847 193.775 124.847C177.32 120.872 155.232 121.872 155.232 121.872C150.927 137.299 151.01 162.195 151.377 173.654H186.897V173.647Z" fill="#CB1B5B"/>
<path opacity="0.2" d="M190.743 141.319C190.158 144.85 189.55 148.728 188.995 152.726C185.178 145.805 188.313 139.034 188.313 139.034L190.743 141.319Z" fill="black"/>
<path d="M180.717 122.615C177.672 125.388 170.21 124.359 170.21 124.359C170.21 124.359 165.552 123.081 166.535 121.623C169.28 121.173 170.607 119.888 171.155 118.249C171.47 117.295 171.522 116.221 171.432 115.108C171.395 114.53 171.305 113.936 171.2 113.357L180.425 106.512C179.217 111.028 177.74 119.339 180.717 122.615Z" fill="#E4897B"/>
<path opacity="0.2" d="M178.296 110.862C177.929 116.408 173.384 117.934 171.156 118.249C171.471 117.295 171.524 116.22 171.434 115.108L178.296 110.862Z" fill="black"/>
<path d="M164.182 92.3164C164.182 92.3164 161.639 100.951 165.854 104.986C170.062 109.014 172.304 92.602 172.304 92.602L164.189 92.3239L164.182 92.3164Z" fill="#263238"/>
<path d="M178.463 113.846C175.748 116.799 171.938 117.152 168.871 115.694C166.898 114.763 165.233 113.072 164.356 110.855C164.236 110.562 164.138 110.261 164.048 109.953C162.481 104.25 163.036 94.7213 169.208 91.9634C173.596 89.9645 178.778 91.9108 180.766 96.3143C181.343 97.5618 181.598 98.9294 181.546 100.312C181.388 106.707 181.591 110.479 178.471 113.846H178.463Z" fill="#F3ACA1"/>
<path d="M171.915 102.423C171.967 102.942 171.675 103.37 171.33 103.385C170.985 103.393 170.7 102.979 170.685 102.461C170.662 101.942 170.932 101.507 171.27 101.499C171.607 101.492 171.9 101.897 171.915 102.423Z" fill="#263238"/>
<path d="M166.044 102.619C166.096 103.137 165.796 103.573 165.459 103.581C165.121 103.588 164.829 103.175 164.814 102.656C164.791 102.138 165.061 101.702 165.399 101.694C165.736 101.687 166.029 102.123 166.044 102.619Z" fill="#263238"/>
<path d="M167.918 102.814C167.356 104.43 166.568 105.956 165.586 107.353C166.328 107.849 167.243 107.984 168.098 107.736L167.918 102.814Z" fill="#F3ACA1"/>
<path d="M163.776 100.177C163.881 100.229 164.001 100.222 164.091 100.161C164.729 99.7106 165.531 99.5904 166.274 99.8309C166.431 99.8985 166.604 99.8308 166.671 99.673C166.739 99.5152 166.671 99.3424 166.514 99.2748C165.591 98.9441 164.564 99.0869 163.761 99.658C163.619 99.7482 163.574 99.936 163.664 100.079C163.694 100.124 163.731 100.154 163.776 100.184V100.177Z" fill="#263238"/>
<path d="M172.996 100.034C173.056 100.034 173.116 100.004 173.161 99.9663C173.266 99.8385 173.251 99.6432 173.116 99.538C172.359 98.8992 171.346 98.6738 170.394 98.9293C170.236 98.9819 170.146 99.1547 170.199 99.3125C170.259 99.4703 170.424 99.553 170.581 99.5079C171.339 99.3275 172.134 99.5154 172.734 100.019C172.816 100.064 172.906 100.064 172.996 100.034Z" fill="#263238"/>
<path d="M176.597 92.4893L176.215 95.3072C177.13 95.8107 177.67 96.8627 177.235 97.9674C176.29 100.327 177.58 104.024 179.38 105.52C179.38 105.52 179.447 104.49 180.31 104.746C181.172 105.001 180.857 110.351 179.132 112.876C179.132 112.876 181.72 110.607 183.242 105.009C184.652 99.831 184.877 95.5026 183.842 93.4812L176.605 92.4893H176.597Z" fill="#263238"/>
<path d="M184.508 105.46C183.848 106.933 182.633 108.082 181.133 108.653C179.138 109.397 177.961 107.654 178.358 105.67C178.726 103.912 180.203 101.342 182.281 101.469C184.366 101.597 185.296 103.649 184.508 105.46Z" fill="#F3ACA1"/>
<path d="M176.213 95.3073C176.213 95.3073 161.565 98.2229 164.445 88.98C164.445 88.98 172.598 85.5308 179.018 87.6575C185.445 89.7916 184.013 96.5622 184.013 96.5622L176.213 95.3073Z" fill="#263238"/>
<path d="M168.676 110.539C168.676 110.539 169.831 108.668 173.093 108.548" stroke="#263238" stroke-width="0.75" stroke-linecap="round" stroke-linejoin="round"/>
<path d="M164.802 111.817C164.802 111.817 167.09 114.928 170.187 115.003C173.285 115.078 178.535 109.345 181.55 109.54L182.39 110.532C182.39 110.532 181.497 117.656 182.39 119.339C183.282 121.022 186.245 122.908 186.245 122.908V123.397C186.245 123.397 178.527 130.603 169.235 128.74C159.942 126.876 160.895 121.759 160.895 121.759L161.817 121.127C161.817 121.127 164.555 119.827 165.162 117.949C165.77 116.07 164.067 112.418 164.067 112.418L164.81 111.817H164.802Z" fill="#E799B6"/>
<path opacity="0.6" d="M164.802 111.817C164.802 111.817 167.09 114.928 170.187 115.003C173.285 115.078 178.535 109.345 181.55 109.54L182.39 110.532C182.39 110.532 181.497 117.656 182.39 119.339C183.282 121.022 186.245 122.908 186.245 122.908V123.397C186.245 123.397 178.527 130.603 169.235 128.74C159.942 126.876 160.895 121.759 160.895 121.759L161.817 121.127C161.817 121.127 164.555 119.827 165.162 117.949C165.77 116.07 164.067 112.418 164.067 112.418L164.81 111.817H164.802Z" fill="white"/>
<path opacity="0.1" d="M180.004 109.833L180.716 111.148C180.716 111.148 180.386 117.31 180.716 119.294C181.046 121.278 184.061 123.908 184.061 123.908V125.088L183.664 124.058C183.664 124.058 180.296 122.322 180.004 118.46C179.711 114.597 180.334 111.441 180.334 111.441L180.004 109.841V109.833Z" fill="black"/>
<path d="M178.57 114.56L181.525 113.5V114.98L178.57 116.078V114.56Z" fill="white"/>
<path d="M183.119 121.127L183.014 121.187L180.344 122.652L181.199 124.05L184.064 122.164" fill="white"/>
<path d="M126.934 170.43L120.672 171.151L124.857 177.959C124.857 177.959 130.039 176.156 129.372 173.285L126.942 170.43H126.934Z" fill="#F3ACA1"/>
<path d="M116.984 174.781L120.704 180.251L124.852 177.96L120.674 171.151L116.984 174.781Z" fill="#F3ACA1"/>
<path d="M197.181 130.528C197.504 131.677 197.759 132.699 197.999 133.789C198.239 134.864 198.456 135.938 198.666 137.02C199.071 139.192 199.386 141.386 199.581 143.641C199.769 145.903 199.874 148.202 199.664 150.674C199.559 151.914 199.386 153.192 199.011 154.589C198.614 155.965 198.066 157.528 196.686 159.128C196.334 159.519 195.936 159.902 195.471 160.248L195.119 160.496C194.999 160.578 194.931 160.609 194.826 160.669L194.271 160.977C193.544 161.36 192.839 161.631 192.156 161.848C190.791 162.269 189.524 162.457 188.301 162.577C185.856 162.825 183.584 162.698 181.349 162.502C176.894 162.044 172.701 161.112 168.501 159.782C167.286 159.399 166.611 158.099 167.001 156.881C167.324 155.859 168.291 155.221 169.319 155.273H169.424C171.426 155.378 173.511 155.491 175.536 155.514C177.569 155.551 179.594 155.551 181.566 155.454C183.531 155.371 185.466 155.168 187.176 154.815C188.031 154.634 188.826 154.401 189.449 154.123C189.749 153.988 190.019 153.845 190.206 153.718L190.334 153.627C190.334 153.627 190.394 153.59 190.379 153.597C190.364 153.597 190.356 153.605 190.341 153.612C190.296 153.635 190.266 153.65 190.259 153.643C190.244 153.62 190.454 153.162 190.566 152.508C190.694 151.862 190.769 151.042 190.784 150.186C190.806 148.457 190.664 146.549 190.424 144.625C190.184 142.694 189.846 140.74 189.479 138.771C189.126 136.825 188.654 134.796 188.226 132.955L188.196 132.842C187.619 130.347 189.171 127.853 191.669 127.274C194.091 126.71 196.506 128.176 197.174 130.55L197.181 130.528Z" fill="#DD8A7D"/>
<path d="M193.776 124.847C198.411 126.38 200.323 131.881 201.741 146.572L188.931 147.699C188.931 147.699 185.158 137.216 185.856 131.595C186.546 125.982 193.783 124.84 193.783 124.84L193.776 124.847Z" fill="#407BFF"/>
<path opacity="0.2" d="M193.776 124.847C198.411 126.38 200.323 131.881 201.741 146.572L188.931 147.699C188.931 147.699 185.158 137.216 185.856 131.595C186.546 125.982 193.783 124.84 193.783 124.84L193.776 124.847Z" fill="#CB1B5B"/>
<path d="M159.541 150.855C156.578 151.02 155.386 156.461 155.686 160.692C155.986 164.922 164.288 164.329 164.288 164.329C164.288 164.329 183.278 168.589 193.171 166.215C203.063 163.84 201.676 149.961 201.676 149.961C201.676 149.961 200.191 149.179 194.453 148.826C188.716 148.473 188.221 149.465 188.221 149.465C188.221 149.465 188.956 151.922 187.111 152.726C185.258 153.53 166.666 150.457 159.548 150.855H159.541Z" fill="#407BFF"/>
<path opacity="0.6" d="M159.541 150.855C156.578 151.02 155.386 156.461 155.686 160.692C155.986 164.922 164.288 164.329 164.288 164.329C164.288 164.329 183.278 168.589 193.171 166.215C203.063 163.84 201.676 149.961 201.676 149.961C201.676 149.961 200.191 149.179 194.453 148.826C188.716 148.473 188.221 149.465 188.221 149.465C188.221 149.465 188.956 151.922 187.111 152.726C185.258 153.53 166.666 150.457 159.548 150.855H159.541Z" fill="white"/>
<path d="M160.2 121.473C160.2 121.473 161.775 129.551 167.002 140.387C172.672 152.125 184.065 158.986 184.065 158.986L181.545 160.692C181.545 160.692 170.88 152.726 164.58 141.079C159.42 131.543 158.055 121.721 158.055 121.721L160.2 121.466V121.473Z" fill="#263238"/>
<path d="M182.122 161.406L184.957 159.55C184.957 159.55 189.39 161.015 192.472 160.692C195.562 160.369 197.782 160.294 199.717 162.15C199.717 162.15 196.23 167.801 188.52 167.65C180.802 167.5 178.305 166.937 178.305 166.937C178.305 166.937 178.14 165.719 178.882 164.9C179.625 164.081 182.13 161.406 182.13 161.406H182.122Z" fill="#407BFF"/>
<path d="M181.273 160.368L183.718 158.678C183.92 158.535 184.19 158.557 184.37 158.73L184.918 159.249C185.165 159.482 185.135 159.873 184.858 160.068L182.33 161.804C182.105 161.954 181.805 161.916 181.633 161.706L181.168 161.15C180.973 160.91 181.018 160.556 181.273 160.384V160.368Z" stroke="white" stroke-linecap="round" stroke-linejoin="round"/>
<path d="M94.0038 200.008L113.054 209.371C113.054 209.371 91.2363 248.281 87.6738 250.363C84.1113 252.444 60.2014 244.404 60.0889 241.428C59.9839 238.452 62.7513 233.072 62.7513 233.072L76.5963 234.267L94.0038 200.008Z" fill="#407BFF"/>
<path opacity="0.6" d="M94.0038 200.008L113.054 209.371C113.054 209.371 91.2363 248.281 87.6738 250.363C84.1113 252.444 60.2014 244.404 60.0889 241.428C59.9839 238.452 62.7513 233.072 62.7513 233.072L76.5963 234.267L94.0038 200.008Z" fill="white"/>
<path d="M152.281 190.659H149.281V179.695C149.281 176.892 151.554 174.615 154.351 174.615H207.714V177.621H154.351C153.211 177.621 152.281 178.553 152.281 179.695V190.659Z" fill="#263238"/>
<g opacity="0.4">
<path d="M152.281 190.659H149.281V179.695C149.281 176.892 151.554 174.615 154.351 174.615H207.714V177.621H154.351C153.211 177.621 152.281 178.553 152.281 179.695V190.659Z" fill="white"/>
</g>
<path d="M207.715 145.106C207.092 145.106 206.59 144.603 206.59 143.979V135.345C206.59 131.903 209.275 129.085 212.702 128.92L219.962 128.566C220.585 128.529 221.11 129.017 221.14 129.641C221.17 130.265 220.69 130.791 220.067 130.821L212.807 131.174C210.58 131.279 208.832 133.113 208.832 135.352V143.986C208.832 144.61 208.33 145.114 207.707 145.114L207.715 145.106Z" fill="#263238"/>
<path d="M205.899 139.868V186.368H148.179C145.067 186.368 142.539 188.9 142.539 192.019V217.133H202.884C206.649 217.133 209.702 214.074 209.702 210.302V139.875C209.702 138.823 208.847 137.967 207.797 137.967C206.747 137.967 205.892 138.823 205.892 139.875L205.899 139.868Z" fill="#2E353A"/>
<path opacity="0.4" d="M205.899 139.868V186.368H148.179C145.067 186.368 142.539 188.9 142.539 192.019V217.133H202.884C206.649 217.133 209.702 214.074 209.702 210.302V139.875C209.702 138.823 208.847 137.967 207.797 137.967C206.747 137.967 205.892 138.823 205.892 139.875L205.899 139.868Z" fill="white"/>
<path d="M200.934 203.156H149.251C145.831 203.156 143.056 205.944 143.056 209.363V257.885C143.056 259.418 141.811 260.665 140.281 260.665H125.934C125.109 260.665 124.434 261.341 124.434 262.168C124.434 262.995 125.109 263.671 125.934 263.671H140.281C143.461 263.671 146.056 261.078 146.056 257.885V239.887H200.934C201.759 239.887 202.434 239.211 202.434 238.385V204.659C202.434 203.833 201.759 203.156 200.934 203.156ZM199.434 236.882H146.056V209.363C146.056 207.597 147.489 206.162 149.251 206.162H199.434V236.882Z" fill="#2E353A"/>
<path opacity="0.6" d="M200.934 203.156H149.251C145.831 203.156 143.056 205.944 143.056 209.363V257.885C143.056 259.418 141.811 260.665 140.281 260.665H125.934C125.109 260.665 124.434 261.341 124.434 262.168C124.434 262.995 125.109 263.671 125.934 263.671H140.281C143.461 263.671 146.056 261.078 146.056 257.885V239.887H200.934C201.759 239.887 202.434 239.211 202.434 238.385V204.659C202.434 203.833 201.759 203.156 200.934 203.156ZM199.434 236.882H146.056V209.363C146.056 207.597 147.489 206.162 149.251 206.162H199.434V236.882Z" fill="white"/>
<path d="M139.082 258.132H115.337C114.309 258.132 113.477 258.966 113.477 259.995V261.047C113.477 262.077 114.309 262.911 115.337 262.911H139.082C140.109 262.911 140.942 262.077 140.942 261.047V259.995C140.942 258.966 140.109 258.132 139.082 258.132Z" fill="#2E353A"/>
<path opacity="0.4" d="M139.082 258.132H115.337C114.309 258.132 113.477 258.966 113.477 259.995V261.047C113.477 262.077 114.309 262.911 115.337 262.911H139.082C140.109 262.911 140.942 262.077 140.942 261.047V259.995C140.942 258.966 140.109 258.132 139.082 258.132Z" fill="white"/>
<path d="M200.89 274.086C184.855 274.086 171.812 258.072 171.812 238.384C171.812 218.696 184.855 202.683 200.89 202.683C216.925 202.683 229.967 218.696 229.967 238.384C229.967 258.072 216.925 274.086 200.89 274.086ZM200.89 206.447C186.925 206.447 175.562 220.778 175.562 238.392C175.562 256.006 186.925 270.336 200.89 270.336C214.855 270.336 226.217 256.006 226.217 238.392C226.217 220.778 214.855 206.447 200.89 206.447Z" fill="#2E353A"/>
<path d="M200.89 270.705C186.715 270.705 175.188 256.209 175.188 238.385C175.188 220.56 186.715 206.064 200.89 206.064C215.065 206.064 226.592 220.56 226.592 238.385C226.592 256.209 215.065 270.705 200.89 270.705ZM200.89 210.581C189.198 210.581 179.688 223.055 179.688 238.392C179.688 253.729 189.198 266.203 200.89 266.203C212.583 266.203 222.092 253.729 222.092 238.392C222.092 223.055 212.583 210.581 200.89 210.581Z" fill="#407BFF"/>
<path d="M200.888 247.236C204.657 247.236 207.713 243.276 207.713 238.392C207.713 233.507 204.657 229.547 200.888 229.547C197.118 229.547 194.062 233.507 194.062 238.392C194.062 243.276 197.118 247.236 200.888 247.236Z" fill="#407BFF"/>
<path d="M201.641 208.326H200.141V268.45H201.641V208.326Z" fill="#407BFF"/>
<path d="M224.35 237.641H177.445V239.144H224.35V237.641Z" fill="#407BFF"/>
<path d="M184.901 216.678L183.719 217.604L216.884 260.12L218.066 259.195L184.901 216.678Z" fill="#407BFF"/>
<path d="M216.888 216.662L183.715 259.173L184.897 260.099L218.069 217.587L216.888 216.662Z" fill="#407BFF"/>
<path d="M209.32 210.475L191.07 265.862L192.495 266.333L210.745 210.946L209.32 210.475Z" fill="#407BFF"/>
<path d="M179.651 226.025L178.938 227.347L222.14 250.761L222.853 249.439L179.651 226.025Z" fill="#407BFF"/>
<path d="M192.781 210.323L191.352 210.777L208.981 266.493L210.41 266.039L192.781 210.323Z" fill="#407BFF"/>
<path d="M222.275 226.432L178.816 249.041L179.508 250.375L222.966 227.766L222.275 226.432Z" fill="#407BFF"/>
</svg>
