<svg width="50" height="50" viewBox="0 0 50 50" fill="none" xmlns="http://www.w3.org/2000/svg">
<path d="M46.3207 22.3961C45.4582 22.3961 44.7582 21.6961 44.7582 20.8336C44.7582 14.8503 42.4293 9.22739 38.2 4.99612C37.5896 4.38577 37.5896 3.39624 38.2 2.78589C38.8103 2.17554 39.7998 2.17554 40.4106 2.78589C45.2293 7.60652 47.8832 14.0171 47.8832 20.8336C47.8832 21.6961 47.1832 22.3961 46.3207 22.3961Z" fill="#CB1B5B"/>
<path d="M3.60938 22.3961C2.74687 22.3961 2.04688 21.6962 2.04688 20.8336C2.04688 14.0172 4.70114 7.60657 9.52177 2.78784C10.1321 2.17749 11.122 2.17749 11.7324 2.78784C12.3427 3.39819 12.3427 4.38811 11.7324 4.99846C7.50113 9.22743 5.17188 14.8503 5.17188 20.8336C5.17188 21.6962 4.47188 22.3961 3.60938 22.3961Z" fill="#CB1B5B"/>
<path d="M24.9688 50C20.6604 50 17.1562 46.4958 17.1562 42.1875C17.1562 41.325 17.8562 40.625 18.7188 40.625C19.5813 40.625 20.2812 41.325 20.2812 42.1875C20.2812 44.7731 22.3831 46.875 24.9688 46.875C27.554 46.875 29.6562 44.7731 29.6562 42.1875C29.6562 41.325 30.3562 40.625 31.2188 40.625C32.0813 40.625 32.7812 41.325 32.7812 42.1875C32.7812 46.4958 29.2771 50 24.9688 50Z" fill="#CB1B5B"/>
<path d="M42.1539 43.75H7.7789C5.76817 43.75 4.13281 42.1146 4.13281 40.1043C4.13281 39.0373 4.59744 38.0272 5.40807 37.3333C8.57655 34.6561 10.3828 30.7648 10.3828 26.6418V20.8332C10.3828 12.7918 16.9246 6.25 24.9664 6.25C33.0078 6.25 39.5496 12.7918 39.5496 20.8332V26.6418C39.5496 30.7648 41.3559 34.6561 44.5038 37.3188C45.335 38.0272 45.7996 39.0373 45.7996 40.1043C45.7996 42.1146 44.1642 43.75 42.1539 43.75ZM24.9664 9.375C18.6474 9.375 13.5078 14.5145 13.5078 20.8332V26.6418C13.5078 31.6853 11.2976 36.4479 7.4455 39.7041C7.37263 39.7667 7.25781 39.896 7.25781 40.1043C7.25781 40.3873 7.49547 40.625 7.7789 40.625H42.1539C42.437 40.625 42.6746 40.3873 42.6746 40.1043C42.6746 39.896 42.5602 39.7667 42.4911 39.7083C38.6348 36.4479 36.4246 31.6853 36.4246 26.6418V20.8332C36.4246 14.5145 31.2851 9.375 24.9664 9.375Z" fill="#CB1B5B"/>
<path d="M24.9688 9.375C24.1062 9.375 23.4062 8.675 23.4062 7.8125V1.5625C23.4062 0.699997 24.1062 0 24.9688 0C25.8313 0 26.5312 0.699997 26.5312 1.5625V7.8125C26.5312 8.675 25.8313 9.375 24.9688 9.375Z" fill="#CB1B5B"/>
</svg>
