<svg width="1440" height="129" viewBox="0 0 1440 129" fill="none" xmlns="http://www.w3.org/2000/svg">
<path d="M0.101563 34.3987C0.101563 34.3987 188.711 -7.34427 325.247 2.50387C461.782 12.352 408.522 73.794 546.244 73.794C683.967 73.794 733.297 -0.56445 876.122 2.50387C1018.95 5.57218 976.574 84.5625 1117.54 86.0718C1258.51 87.5811 1440 8.5423 1440 8.5423" stroke="white"/>
<path d="M0.101562 41.5588C0.101562 41.5588 188.711 -0.18411 325.247 9.66402C461.782 19.5122 408.522 80.9541 546.244 80.9541C683.967 80.9541 733.297 6.59571 876.122 9.66402C1018.95 12.7323 976.574 91.7227 1117.54 93.232C1258.51 94.7413 1440 15.7025 1440 15.7025" stroke="white"/>
<path d="M0.101562 48.719C0.101562 48.719 188.711 6.97605 325.247 16.8242C461.782 26.6723 408.522 88.1143 546.244 88.1143C683.967 88.1143 733.297 13.7559 876.122 16.8242C1018.95 19.8925 976.574 98.8828 1117.54 100.392C1258.51 101.901 1440 22.8626 1440 22.8626" stroke="white"/>
<path d="M0.101562 55.8791C0.101562 55.8791 188.711 14.1362 325.247 23.9843C461.782 33.8325 408.522 95.2744 546.244 95.2744C683.967 95.2744 733.297 20.916 876.122 23.9843C1018.95 27.0527 976.574 106.043 1117.54 107.552C1258.51 109.062 1440 30.0228 1440 30.0228" stroke="white"/>
<path d="M0.101562 63.0393C0.101562 63.0393 188.711 21.2964 325.247 31.1445C461.782 40.9926 408.522 102.435 546.244 102.435C683.967 102.435 733.297 28.0762 876.122 31.1445C1018.95 34.2128 976.574 113.203 1117.54 114.712C1258.51 116.222 1440 37.1829 1440 37.1829" stroke="white"/>
<path d="M0.0976562 70.1995C0.0976562 70.1995 188.707 28.4565 325.243 38.3046C461.778 48.1528 408.518 109.595 546.241 109.595C683.963 109.595 733.293 35.2363 876.118 38.3046C1018.94 41.373 976.57 120.363 1117.54 121.873C1258.51 123.382 1440 44.3431 1440 44.3431" stroke="white"/>
<path d="M0 77.3059C0 77.3059 188.609 35.563 325.145 45.4111C461.681 55.2592 408.42 116.701 546.143 116.701C683.866 116.701 733.195 42.3428 876.02 45.4111C1018.85 48.4794 976.473 127.47 1117.44 128.979C1258.41 130.488 1439.9 51.4495 1439.9 51.4495" stroke="white"/>
</svg>
