<svg width="43" height="37" viewBox="0 0 43 37" fill="none" xmlns="http://www.w3.org/2000/svg">
<path d="M6 5.5H9V31H3.5V8.25C3.5 6.75 4.75 5.5 6 5.5Z" stroke="#CB1B5B" stroke-width="1.5" stroke-miterlimit="10"/>
<path d="M39 8.1699V30.5H33.25V5.5H36.25C37.75 5.5 39 6.71359 39 8.1699Z" stroke="#CB1B5B" stroke-width="1.5" stroke-miterlimit="10"/>
<path d="M39.25 35.5H3.25C2 35.5 1 34.5 1 33.25V32.25C1 31.5 1.5 31 2.25 31H40.5C41.25 31 41.75 31.5 41.75 32.25V33.25C41.5 34.5 40.5 35.5 39.25 35.5Z" stroke="#CB1B5B" stroke-width="1.5" stroke-miterlimit="10"/>
<path d="M14.25 19.5C19 19.5 23.75 19.5 28.25 19.5" stroke="#CB1B5B" stroke-width="2" stroke-miterlimit="10" stroke-linecap="round"/>
<path d="M14.25 22.75C19 22.75 23.75 22.75 28.25 22.75" stroke="#CB1B5B" stroke-width="2" stroke-miterlimit="10" stroke-linecap="round"/>
<path d="M21.25 6.25C24 6.25 26 8.5 26 11.25C26 14 23.75 16 21.25 16C18.5 15.75 16.25 13.75 16.25 11C16.25 8.25 18.5 6.25 21.25 6.25ZM24.25 13.5C25.5 12 25.5 9.5 24 8C22.25 6.75 19.75 6.75 18.25 8.25C16.75 9.75 17 12.25 18.25 13.5C18.5 12.75 19 12 19.75 11.75C19 10.75 19.25 10.5 19.25 9.75C19.25 8.5 20.5 7.5 22 8C23.25 8.25 23.5 9.75 23 11C23 11.25 22.75 11.5 22.5 11.75C23.5 12 24 12.75 24.25 13.5ZM21.25 12.25C20 12.25 19.25 13 19 14V14.25C20.25 15.25 22.25 15.25 23.5 14.25V14C23 12.75 22.25 12.25 21.25 12.25ZM22.25 10C22.25 9.25 22 8.75 21.5 8.75C20.75 8.5 20.25 9 20 9.5C19.75 10.5 20.25 11.25 21 11.25C21.75 11.5 22.5 10.75 22.25 10Z" fill="#CB1B5B"/>
<path d="M33.25 3V31H9.25V3C9.25 1.75 10.25 1 11.25 1H31.25C32.25 1 33.25 2 33.25 3Z" stroke="#CB1B5B" stroke-width="1.5" stroke-miterlimit="10"/>
</svg>
