<svg width="294" height="394" viewBox="0 0 294 394" fill="none" xmlns="http://www.w3.org/2000/svg">
<path d="M23.6913 153.038C22.2913 152.138 21.3913 150.438 21.1913 148.838C20.8913 147.138 21.0913 145.438 21.4913 143.838C23.0913 144.238 24.7913 144.538 26.3913 144.938C26.5913 144.938 26.6913 145.038 26.7913 145.238C26.7913 145.338 26.7913 145.438 26.7913 145.538C25.9913 147.838 25.5913 150.338 25.5913 152.838C25.5913 153.038 25.5913 153.338 25.3913 153.438C25.2913 153.538 25.1913 153.538 25.0913 153.538C24.5913 153.338 24.0913 153.238 23.6913 153.038Z" fill="#E98870"/>
<path d="M18.3928 127.738C16.6928 131.238 28.5928 142.538 28.5928 142.538C28.5928 142.538 32.0928 123.338 31.3928 123.438C30.6928 123.538 20.0928 124.338 18.3928 127.738Z" fill="#E98870"/>
<path d="M65.9918 181.538C65.5918 177.538 65.3918 173.638 65.1918 169.638C65.0918 165.938 67.3918 162.838 69.8918 160.138C70.4918 159.438 71.1918 158.738 71.6918 157.938C72.3918 156.738 72.5918 155.338 72.6918 153.938C72.8918 150.138 71.8918 146.438 71.6918 142.638C71.4918 139.438 71.8918 136.138 72.1918 132.938C72.2918 132.238 72.2918 131.538 71.9918 130.938C71.6918 130.538 71.2918 130.238 70.7918 129.938C68.4918 128.938 65.6918 129.838 63.8918 131.638C62.0918 133.438 61.1918 135.838 60.5918 138.338C59.8918 140.838 59.4918 143.338 59.1918 145.838C58.9918 148.138 56.8918 149.838 54.7918 150.838C52.6918 151.738 50.2918 151.938 47.9918 152.038C41.0918 152.338 28.6918 150.038 21.8918 149.238C18.8918 151.438 18.4918 163.238 22.5918 166.838C26.3918 170.138 29.7918 173.838 33.5918 177.138C37.3918 180.438 40.8918 184.838 40.7918 189.838C49.0918 186.538 57.5918 183.938 65.9918 181.538Z" fill="#F7A87E"/>
<path d="M40.793 197.238V186.438C40.793 186.438 67.493 179.038 67.493 179.338C67.493 179.638 68.193 187.838 68.193 187.838L40.793 197.238Z" fill="#CB1B5B"/>
<path d="M293.992 335.638C292.892 314.938 288.392 294.538 280.792 275.338C280.792 275.338 248.492 202.338 239.192 193.738C233.392 188.438 190.792 178.538 190.792 178.538L173.392 182.838L155.992 178.538C155.992 178.538 112.992 188.138 107.592 193.738C102.292 199.238 77.2917 237.638 77.2917 237.638L70.9917 183.738C70.9917 183.738 41.0917 192.038 40.4917 192.938C40.4917 192.938 38.7917 298.638 61.4917 302.538C80.0917 305.738 91.8917 290.738 95.4917 285.238L103.992 272.438C103.992 272.438 95.6918 367.038 95.1918 392.838H164.492H182.292H251.592C251.592 376.438 244.092 290.338 244.092 290.338C244.092 290.338 257.992 334.338 258.292 392.838C279.592 394.238 292.792 391.538 292.792 391.538L293.992 335.638Z" fill="#E4EAEC"/>
<path d="M215.892 185.238L218.992 189.438C220.392 191.338 220.492 193.838 219.192 195.838L208.792 212.038L220.192 220.438C222.292 222.038 222.892 224.938 221.592 227.238C212.592 243.238 179.592 301.338 173.492 305.338L201.892 211.638L215.892 185.238Z" fill="#BFCFD7"/>
<path d="M131.392 184.538L128.292 188.738C126.892 190.638 126.792 193.138 128.092 195.138L138.492 211.338L127.092 219.738C124.992 221.338 124.392 224.238 125.692 226.538C134.692 242.538 167.692 300.638 173.792 304.638L145.392 210.938L131.392 184.538Z" fill="#BFCFD7"/>
<path d="M220.092 219.238L208.892 211.338L217.992 193.338C218.892 191.638 218.792 189.538 217.792 187.838L215.992 185.238L201.092 181.338L174.992 182.838H172.192L145.992 180.638L131.392 184.438L129.392 187.838C128.392 189.538 128.392 191.538 129.192 193.338L138.292 211.338L127.092 219.238C125.892 220.138 125.492 221.838 126.192 223.138L169.792 298.138L173.492 304.638L177.192 298.138L220.792 223.138C221.692 221.838 221.392 220.138 220.092 219.238Z" fill="#E4EAEC"/>
<path d="M187.991 227.938L176.491 218.738L162.791 227.038C161.191 228.038 159.091 227.538 157.991 226.038L157.691 225.638L174.491 290.538L192.091 228.138C190.691 228.938 189.091 228.838 187.991 227.938Z" fill="#CB1B5B"/>
<path d="M146.492 182.238L157.692 225.638L157.992 226.038C159.092 227.538 161.192 228.038 162.792 227.038L176.492 218.738L187.992 227.938C189.092 228.838 190.692 228.938 191.992 228.238L204.892 182.238H146.492Z" fill="#911D52"/>
<path d="M154.893 157.738V170.738C158.593 174.038 162.893 176.638 167.393 178.638C169.193 179.438 170.993 180.038 172.893 180.438C177.593 181.338 182.493 180.338 186.893 178.438C190.293 176.938 193.493 174.938 196.393 172.638V155.038L154.893 157.738Z" fill="#E98870"/>
<path d="M172.392 227.838L164.492 252.038L174.392 290.638L185.992 249.438L180.492 227.838H172.392Z" fill="#244054"/>
<path d="M93.593 213.038C86.193 223.938 78.493 235.638 77.293 237.638L83.693 272.938C83.693 272.938 95.193 229.238 93.593 213.038Z" fill="#D7E1E5"/>
<path d="M57.693 163.738H30.393C27.293 163.738 24.793 161.238 24.793 158.138V93.8383C24.793 90.7383 27.293 88.2383 30.393 88.2383H57.693C60.793 88.2383 63.293 90.7383 63.293 93.8383V158.138C63.293 161.238 60.793 163.738 57.693 163.738Z" fill="#3B464F"/>
<path d="M60.2922 97.2383H27.4922V155.038H60.2922V97.2383Z" fill="white"/>
<path d="M60.293 155.238H27.493C27.393 155.238 27.293 155.138 27.293 155.038V97.2381C27.293 97.1381 27.393 97.0381 27.493 97.0381H60.293C60.393 97.0381 60.493 97.1381 60.493 97.2381V120.638C60.493 120.638 60.493 123.138 60.493 125.638C60.493 126.838 60.493 128.138 60.493 129.038C60.493 129.538 60.493 129.938 60.493 130.138C60.493 130.238 60.493 130.338 60.493 130.438V130.538V155.038C60.393 155.138 60.393 155.238 60.293 155.238ZM27.593 154.938H60.093V130.638C60.093 130.438 60.093 120.838 60.093 120.738V97.5381H27.593V154.938Z" fill="#1B242B"/>
<path d="M45.8926 94.2383H41.8926C41.5926 94.2383 41.3926 94.0383 41.3926 93.7383C41.3926 93.4383 41.5926 93.2383 41.8926 93.2383H45.8926C46.1926 93.2383 46.3926 93.4383 46.3926 93.7383C46.3926 94.0383 46.1926 94.2383 45.8926 94.2383Z" fill="#1A2329"/>
<path d="M38.893 94.1385C39.2243 94.1385 39.493 93.8699 39.493 93.5385C39.493 93.2071 39.2243 92.9385 38.893 92.9385C38.5616 92.9385 38.293 93.2071 38.293 93.5385C38.293 93.8699 38.5616 94.1385 38.893 94.1385Z" fill="#1A2329"/>
<path d="M44.0933 91.3381C44.3142 91.3381 44.4933 91.159 44.4933 90.9381C44.4933 90.7172 44.3142 90.5381 44.0933 90.5381C43.8724 90.5381 43.6934 90.7172 43.6934 90.9381C43.6934 91.159 43.8724 91.3381 44.0933 91.3381Z" fill="#1A2329"/>
<path d="M43.8934 161.839C45.3845 161.839 46.5933 160.63 46.5933 159.138C46.5933 157.647 45.3845 156.438 43.8934 156.438C42.4022 156.438 41.1934 157.647 41.1934 159.138C41.1934 160.63 42.4022 161.839 43.8934 161.839Z" fill="#1A2329"/>
<path d="M206.191 138.838C211.191 139.138 216.291 137.738 220.191 134.738C224.191 131.738 226.791 126.938 227.091 121.938C227.191 119.238 226.491 116.238 224.291 114.538C222.591 113.338 220.391 113.038 218.291 113.238C215.391 113.538 212.391 114.638 210.791 117.138L206.191 138.838Z" fill="#F59D7A"/>
<path d="M217.093 121.238C217.293 121.338 217.593 121.538 217.793 121.738C218.693 122.638 219.193 123.838 219.293 125.038C219.293 126.238 218.893 127.538 217.993 128.438C217.893 128.538 217.793 128.638 217.593 128.538C217.493 128.538 217.393 128.538 217.293 128.438C217.093 128.238 217.093 127.938 217.293 127.738C217.993 127.038 218.393 126.038 218.293 125.038C218.293 124.038 217.793 123.038 217.093 122.338C216.793 122.038 216.393 121.738 215.993 121.738C214.293 122.838 212.893 124.438 212.093 126.338C211.993 126.538 211.793 126.638 211.693 126.638C211.593 126.638 211.593 126.638 211.493 126.638C211.293 126.538 211.093 126.238 211.193 126.038C212.093 123.738 213.793 121.838 215.893 120.738C217.993 119.638 220.593 119.238 222.993 119.738C223.293 119.838 223.393 120.038 223.393 120.338C223.293 120.638 223.093 120.738 222.793 120.738C220.993 120.238 218.893 120.538 217.093 121.238Z" fill="#E4876D"/>
<path d="M209.192 131.138C209.292 130.938 209.592 130.838 209.792 130.938C212.292 132.338 215.492 131.538 217.592 130.238C218.992 129.438 220.692 127.938 221.592 125.738C221.692 125.538 221.992 125.338 222.192 125.438C222.392 125.538 222.592 125.838 222.492 126.038C221.592 128.438 219.592 130.038 218.192 130.938C216.692 131.838 214.692 132.538 212.692 132.538C211.592 132.538 210.492 132.238 209.492 131.638C209.092 131.638 208.992 131.338 209.192 131.138Z" fill="#E4876D"/>
<path d="M144.591 138.838C139.591 139.138 134.491 137.738 130.591 134.738C126.591 131.738 123.991 126.938 123.691 121.938C123.591 119.238 124.291 116.238 126.491 114.538C128.191 113.338 130.391 113.038 132.491 113.238C135.391 113.538 138.391 114.638 139.991 117.138L144.591 138.838Z" fill="#F59D7A"/>
<path d="M133.691 121.238C133.491 121.338 133.191 121.538 132.991 121.738C132.091 122.638 131.591 123.838 131.491 125.038C131.491 126.238 131.891 127.538 132.791 128.438C132.891 128.538 132.991 128.638 133.191 128.538C133.291 128.538 133.391 128.538 133.491 128.438C133.691 128.238 133.691 127.938 133.491 127.738C132.791 127.038 132.391 126.038 132.491 125.038C132.491 124.038 132.991 123.038 133.691 122.338C133.991 122.038 134.391 121.738 134.791 121.738C136.491 122.838 137.891 124.438 138.691 126.338C138.791 126.538 138.991 126.638 139.091 126.638C139.191 126.638 139.191 126.638 139.291 126.638C139.491 126.538 139.691 126.238 139.591 126.038C138.691 123.738 136.991 121.838 134.891 120.738C132.791 119.638 130.191 119.238 127.791 119.738C127.491 119.838 127.391 120.038 127.391 120.338C127.491 120.638 127.691 120.738 127.991 120.738C129.791 120.238 131.891 120.538 133.691 121.238Z" fill="#E4876D"/>
<path d="M141.59 131.138C141.49 130.938 141.19 130.838 140.99 130.938C138.49 132.338 135.29 131.538 133.19 130.238C131.79 129.438 130.09 127.938 129.19 125.738C129.09 125.538 128.79 125.338 128.59 125.438C128.39 125.538 128.19 125.838 128.29 126.038C129.19 128.438 131.19 130.038 132.59 130.938C134.09 131.838 136.09 132.538 138.09 132.538C139.19 132.538 140.29 132.238 141.29 131.638C141.69 131.638 141.79 131.338 141.59 131.138Z" fill="#E4876D"/>
<path d="M212.192 121.438C215.692 108.538 223.692 96.0383 224.292 82.6383C224.392 80.2383 224.292 77.7383 223.292 75.4383C222.292 73.1383 220.592 71.1383 218.792 69.4383C208.792 59.7383 195.492 53.4383 181.592 51.9383C183.492 51.1383 182.992 48.0383 181.192 47.0383C179.392 46.0383 177.192 46.4383 175.292 47.0383C167.492 49.3383 159.992 53.4383 153.992 58.8383C149.792 58.7383 145.692 59.4383 141.792 60.8383C139.192 61.7383 136.592 63.0383 134.392 64.7383C127.392 70.2383 124.992 79.4383 122.892 88.0383C122.592 89.3383 122.592 91.0383 123.892 91.3383C124.492 91.4383 124.992 91.1383 125.592 91.2383C126.592 91.4383 126.892 92.7383 126.992 93.7383C128.292 106.538 137.692 122.538 142.592 123.438C164.492 127.838 190.092 118.038 212.192 121.438Z" fill="#2D3442"/>
<path d="M215.092 85.8383L175.392 74.7383L135.692 85.8383C135.192 89.0383 135.492 92.3383 135.892 95.6383C137.392 110.138 138.992 124.638 140.492 139.038C141.192 145.338 141.992 152.138 145.892 157.038C147.492 159.038 149.592 160.638 151.692 162.138C158.692 166.938 169.592 172.938 175.492 172.738C181.392 172.538 192.192 166.938 199.292 162.138C201.392 160.738 203.492 159.138 205.092 157.038C208.992 152.138 209.792 145.438 210.492 139.038C211.992 124.538 213.592 110.038 215.092 95.6383C215.292 92.3383 215.592 89.0383 215.092 85.8383Z" fill="#F7A87E"/>
<path d="M168.592 129.438C169.292 132.638 172.092 135.038 175.492 134.938C178.892 134.838 181.592 132.338 182.192 129.138L168.592 129.438Z" fill="#F38E77"/>
<path opacity="0.47" d="M154.492 141.038C158.855 141.038 162.392 137.501 162.392 133.138C162.392 128.775 158.855 125.238 154.492 125.238C150.129 125.238 146.592 128.775 146.592 133.138C146.592 137.501 150.129 141.038 154.492 141.038Z" fill="#F38E77"/>
<path opacity="0.47" d="M196.191 140.238C200.554 140.238 204.091 136.702 204.091 132.339C204.091 127.975 200.554 124.438 196.191 124.438C191.828 124.438 188.291 127.975 188.291 132.339C188.291 136.702 191.828 140.238 196.191 140.238Z" fill="#F38E77"/>
<path d="M216.992 101.638C202.592 101.838 188.092 97.2384 176.492 88.6384C176.592 89.5384 176.592 90.4384 176.692 91.4384C176.692 91.8384 176.692 92.1384 176.492 92.4384C176.092 92.8384 175.492 92.6384 174.992 92.4384C168.592 89.4384 162.492 84.9384 157.692 79.7384C154.092 91.6384 145.092 101.738 133.692 106.738C132.492 97.7384 132.092 88.5384 132.492 79.4384C132.592 78.1384 132.692 76.7384 133.692 75.8384C134.292 75.3384 135.092 75.1384 135.792 74.9384C142.692 73.3384 149.592 72.1384 156.692 71.2384C163.892 70.3384 171.492 69.8384 178.792 69.9384C189.292 70.1384 200.392 71.7384 208.792 78.0384C210.392 79.2384 215.192 79.2384 216.392 80.8384C220.492 86.7384 217.292 94.4384 216.992 101.638Z" fill="#2D3442"/>
<path d="M201.191 58.9385C196.591 60.3385 191.591 58.7385 186.791 59.6385C187.991 60.4385 189.091 61.1385 190.291 61.9385C190.591 62.1385 190.891 62.4385 190.791 62.7385C190.691 62.9385 190.491 62.9385 190.291 63.0385C185.691 64.1385 180.791 64.0385 175.991 63.9385C175.291 63.9385 174.391 64.0385 174.091 64.7385C173.491 66.1385 176.491 67.2385 175.791 68.6385C170.291 69.3385 164.691 69.2385 159.191 68.4385C165.791 73.0385 174.191 75.8385 182.191 77.0385C183.291 77.2385 184.691 77.1385 185.191 76.1385C185.491 75.4385 185.191 74.7385 184.991 74.0385C184.791 73.3385 184.791 72.4385 185.491 72.0385C185.791 71.8385 186.191 71.8385 186.491 71.9385C190.291 72.1385 194.091 72.5385 197.791 73.2385C198.191 73.3385 198.691 73.3385 198.991 73.1385C199.791 72.5385 198.891 71.2385 198.791 70.2385C198.791 69.3385 199.591 68.6385 200.391 68.3385C201.191 68.0385 202.191 68.1385 203.091 68.2385C205.691 68.3385 208.291 68.1385 210.891 67.4385C211.291 67.3385 211.791 67.1385 211.991 66.7385C212.191 66.1385 211.591 65.5385 210.991 65.2385C207.491 62.9385 204.591 60.9385 201.191 58.9385Z" fill="#3A4252"/>
<path d="M143.191 66.7384C147.591 67.7384 152.091 68.2384 156.691 68.3384C154.391 70.6384 151.891 72.9384 148.891 74.2384C148.491 74.4384 147.891 74.5384 147.491 74.2384C147.291 74.0384 147.191 73.7384 146.991 73.4384C146.591 72.8384 145.791 72.6384 145.191 72.7384C144.491 72.8384 143.891 73.2384 143.291 73.5384C140.791 75.0384 138.291 76.5384 135.791 77.9384C135.391 78.1384 134.891 78.3384 134.591 78.0384C134.291 77.7384 134.391 77.2384 134.191 76.8384C133.791 76.0384 132.591 76.3384 131.791 76.7384C130.091 77.6384 128.491 78.4384 126.791 79.3384C127.191 79.1384 127.791 77.3384 128.091 76.8384C128.591 75.9384 129.091 75.0384 129.691 74.2384C130.791 72.5384 132.091 70.8384 133.491 69.3384C134.791 67.9384 136.291 66.1384 137.891 65.1384C139.391 64.5384 141.591 66.3384 143.191 66.7384Z" fill="#3A4252"/>
<path d="M150.392 101.138C152.492 99.9385 154.992 99.4385 157.492 99.4385C158.592 99.4385 159.692 99.5385 160.692 99.9385C161.692 100.438 162.492 101.338 162.592 102.438C162.592 102.838 162.492 103.338 162.192 103.538C161.992 103.638 161.892 103.738 161.692 103.738C159.092 104.538 156.492 105.239 153.792 105.839C151.692 106.339 147.992 107.738 146.092 106.938C146.392 104.538 148.292 102.338 150.392 101.138Z" fill="#2D3442"/>
<path d="M197.891 100.838C195.791 99.6382 193.291 99.1382 190.791 99.1382C189.691 99.1382 188.591 99.2382 187.591 99.6382C186.591 100.038 185.791 101.038 185.691 102.138C185.691 102.538 185.791 103.038 186.091 103.238C186.291 103.338 186.391 103.438 186.591 103.438C189.191 104.238 191.791 104.938 194.491 105.538C196.591 106.038 200.291 107.438 202.191 106.638C201.891 104.238 199.991 102.038 197.891 100.838Z" fill="#2D3442"/>
<path d="M157.191 121.938C159.621 121.938 161.591 119.789 161.591 117.138C161.591 114.487 159.621 112.338 157.191 112.338C154.761 112.338 152.791 114.487 152.791 117.138C152.791 119.789 154.761 121.938 157.191 121.938Z" fill="#2D3442"/>
<path d="M193.992 121.938C196.422 121.938 198.392 119.789 198.392 117.138C198.392 114.487 196.422 112.338 193.992 112.338C191.562 112.338 189.592 114.487 189.592 117.138C189.592 119.789 191.562 121.938 193.992 121.938Z" fill="#2D3442"/>
<path d="M188.391 151.738C189.691 149.838 190.391 147.639 190.791 145.339C191.091 143.939 190.491 142.639 189.391 141.839C187.691 143.539 185.791 145.038 183.591 146.138C179.591 148.138 174.891 148.539 170.591 147.339C167.091 146.339 163.991 144.238 161.691 141.438C160.391 142.138 159.491 143.638 159.891 145.238C160.791 149.338 162.991 153.039 166.491 155.339C166.491 155.339 166.591 155.338 166.591 155.438C169.691 154.038 173.291 153.539 176.691 153.839C179.391 154.039 182.091 154.638 184.691 155.438C186.191 154.438 187.491 153.238 188.391 151.738Z" fill="#BB5365"/>
<path d="M170.691 147.339C174.991 148.539 179.691 148.139 183.691 146.139C185.891 145.039 187.791 143.539 189.491 141.839C188.791 141.339 187.891 141.039 186.891 141.239C179.391 142.539 171.591 142.539 164.091 141.039C163.291 140.839 162.491 141.039 161.891 141.339C164.091 144.239 167.191 146.339 170.691 147.339Z" fill="white"/>
<path d="M166.691 155.438C171.591 158.638 178.191 159.038 183.291 156.338C183.791 156.038 184.291 155.738 184.791 155.438C182.191 154.638 179.491 154.038 176.791 153.838C173.291 153.538 169.791 154.038 166.691 155.438Z" fill="#F28487"/>
<path d="M172.893 180.538C170.993 180.138 169.193 179.538 167.393 178.738C162.893 176.738 158.593 174.038 154.893 170.838V184.238L176.793 213.038L196.393 179.538V172.638C193.493 174.938 190.293 176.938 186.893 178.438C182.493 180.438 177.593 181.438 172.893 180.538Z" fill="#F7A87E"/>
<path d="M186.392 207.438L175.592 208.638L166.492 207.338L164.492 211.538L169.892 222.638L176.392 218.738L182.492 223.638L188.392 211.538L186.392 207.438Z" fill="#1C3749"/>
<path d="M169.893 222.638L172.393 227.838H180.493L182.493 223.538L176.393 218.738L169.893 222.638Z" fill="#244054"/>
<path d="M154.892 175.838L176.392 209.038L158.792 216.938C157.192 217.638 155.292 216.738 154.892 215.038L145.992 180.738L154.892 175.838Z" fill="#CB1B5B"/>
<path d="M196.492 175.838L174.992 209.038L191.192 216.338C193.192 217.238 195.492 216.138 196.092 214.038L204.992 182.238L196.492 175.838Z" fill="#CB1B5B"/>
<path d="M172.393 227.838H180.493L183.893 241.338L170.893 232.338L172.393 227.838Z" fill="#1C3749"/>
<path d="M155.691 293.038L149.091 292.838C144.991 292.738 141.491 290.038 140.191 286.238L129.691 254.138L131.491 253.538L141.991 285.638C142.991 288.738 145.891 290.838 149.091 290.938L155.691 291.138V293.038Z" fill="#B9B6AE"/>
<path d="M155.393 290.338L155.293 294.038C155.293 294.738 155.893 295.338 156.593 295.338L160.093 295.238C161.193 295.238 162.193 294.238 162.193 293.138V292.238C162.193 291.238 161.493 290.338 160.493 290.038L156.893 289.138C156.193 288.938 155.493 289.538 155.393 290.338Z" fill="#244054"/>
<path d="M148.692 235.238C146.792 233.338 144.492 231.738 142.092 230.638C139.692 229.538 136.792 230.038 134.892 231.938C132.992 233.838 131.392 236.038 130.292 238.538C128.092 243.338 127.692 248.638 128.992 253.738C129.092 254.138 129.492 254.338 129.892 254.238L131.692 253.738C132.092 253.638 132.292 253.238 132.192 252.938C131.092 248.638 131.492 244.038 133.292 239.938C133.792 238.938 134.292 237.938 134.892 237.038C136.892 234.038 140.992 233.338 143.992 235.438C144.892 236.038 145.692 236.738 146.492 237.538C149.692 240.738 151.592 244.838 152.092 249.238C152.092 249.638 152.492 249.838 152.792 249.838L154.692 249.738C155.092 249.738 155.392 249.338 155.292 249.038C154.692 243.738 152.392 238.938 148.692 235.238Z" fill="#244054"/>
<path d="M143.891 295.238L149.991 292.738C153.791 291.238 156.191 287.538 155.991 283.438L154.591 249.738L152.691 249.838L154.091 283.538C154.191 286.738 152.291 289.738 149.291 290.938L143.191 293.438L143.891 295.238Z" fill="#B9B6AE"/>
<path d="M143.191 292.538L144.591 295.938C144.891 296.638 144.491 297.438 143.791 297.638L140.391 298.738C139.291 299.138 138.091 298.538 137.691 297.438L137.391 296.638C136.991 295.738 137.391 294.638 138.191 294.038L141.291 291.938C141.991 291.538 142.891 291.838 143.191 292.538Z" fill="#244054"/>
<path d="M144.092 181.938C140.792 186.238 138.392 191.738 136.992 198.038C135.892 203.038 135.392 208.638 135.592 214.638C135.892 224.838 137.892 232.638 137.892 232.938L140.992 232.138C140.992 232.038 138.992 224.338 138.792 214.438C138.692 208.738 139.092 203.438 140.092 198.638C141.392 192.838 143.592 187.838 146.592 183.838C148.792 180.938 151.592 178.538 154.692 176.638V172.938C150.592 175.138 146.992 178.138 144.092 181.938Z" fill="#244054"/>
<path d="M219.293 205.338C217.593 196.438 214.393 189.038 209.893 183.238C206.293 178.538 201.693 175.038 196.393 172.538V176.138C200.693 178.338 204.393 181.338 207.393 185.238C211.593 190.538 214.493 197.538 216.093 205.938C217.393 212.738 217.893 220.438 217.493 228.938C216.793 243.438 213.793 255.138 213.793 255.238L216.893 256.038C216.993 255.538 219.993 243.938 220.693 229.138C221.193 220.338 220.693 212.438 219.293 205.338Z" fill="#244054"/>
<path d="M213.693 273.238C218.829 273.238 222.993 269.074 222.993 263.938C222.993 258.802 218.829 254.638 213.693 254.638C208.556 254.638 204.393 258.802 204.393 263.938C204.393 269.074 208.556 273.238 213.693 273.238Z" fill="#B9B6AE"/>
<path d="M213.692 269.038C216.508 269.038 218.792 266.755 218.792 263.938C218.792 261.122 216.508 258.838 213.692 258.838C210.875 258.838 208.592 261.122 208.592 263.938C208.592 266.755 210.875 269.038 213.692 269.038Z" fill="#9D9B95"/>
<path d="M228.493 364.238H202.393C195.193 364.238 189.293 358.338 189.293 351.138H241.593C241.593 358.438 235.793 364.238 228.493 364.238Z" fill="#D7E1E5"/>
<path d="M144.493 364.238H118.393C111.193 364.238 105.293 358.338 105.293 351.138H157.593C157.693 358.438 151.793 364.238 144.493 364.238Z" fill="#D7E1E5"/>
<path d="M248.092 338.938C246.292 316.338 244.392 294.638 244.092 290.438L234.492 261.538C234.492 261.538 236.492 308.138 248.092 338.938Z" fill="#D7E1E5"/>
<path d="M22.0918 149.238C21.3918 150.538 21.5918 152.238 22.2918 153.538C22.9918 154.838 24.2918 155.838 25.4918 156.638C29.9918 159.638 35.3918 161.038 40.6918 160.738C41.4918 160.638 42.3918 160.538 43.0918 160.238C43.7918 159.938 44.4918 159.238 44.6918 158.438C44.8918 157.638 44.4918 156.738 43.9918 156.038C43.3918 155.438 42.6918 154.938 41.9918 154.538C38.5918 152.638 35.0918 150.938 31.3918 149.738C29.5918 149.138 27.7918 148.738 25.9918 148.138C24.4918 147.638 22.9918 147.638 22.0918 149.238Z" fill="#F7A87E"/>
<path d="M33.4921 146.538C29.8921 147.638 25.9921 147.538 22.3921 146.538C21.8921 146.438 21.4922 146.238 21.0922 145.938C20.3922 145.438 20.0921 144.538 19.9921 143.638C19.8921 141.838 21.0922 140.138 22.6922 139.438C27.4922 137.438 32.1921 136.438 37.3921 136.338C39.0921 136.238 40.8921 136.338 42.2921 137.338C43.6921 138.438 42.4921 143.738 33.4921 146.538Z" fill="#F7A87E"/>
<path d="M21.5922 121.538C19.4922 122.838 17.4922 124.938 17.4922 127.438C17.4922 128.038 17.5922 128.738 17.9922 129.138C18.6922 130.038 19.9922 130.038 21.0922 130.038C23.7922 129.838 26.4922 129.038 28.9922 127.738C30.0922 127.138 31.1922 126.438 31.9922 125.438C32.7922 124.438 33.2922 123.138 33.0922 121.938C32.2922 116.638 24.2922 119.838 21.5922 121.538Z" fill="#F7A87E"/>
<path d="M47.2922 72.2381C48.1922 71.1381 48.4922 70.0381 48.4922 70.0381H35.9922C35.9922 70.0381 36.3922 71.0381 37.2922 72.1381C40.5922 71.6381 43.9922 71.6381 47.2922 72.2381Z" fill="#071A38"/>
<path d="M61.5914 30.438C59.1914 17.038 45.2914 16.038 42.4914 15.938C42.4914 15.938 42.3915 15.938 42.1915 15.938C41.9915 15.938 41.8915 15.938 41.8915 15.938C38.9915 16.038 25.1914 17.038 22.7914 30.438C20.5914 42.738 27.4915 47.138 30.1915 49.338C32.7915 51.638 35.1915 60.438 35.1915 60.438H41.9914H42.4914H49.2914C49.2914 60.438 51.6914 51.638 54.2914 49.338C56.7914 47.038 63.7914 42.738 61.5914 30.438Z" fill="#F6B747"/>
<path d="M48.9918 63.838H35.2918C34.2918 63.838 33.5918 63.038 33.5918 62.138C33.5918 61.138 34.3918 60.438 35.2918 60.438H48.9918C49.9918 60.438 50.6918 61.238 50.6918 62.138C50.6918 63.138 49.9918 63.838 48.9918 63.838Z" fill="#152646"/>
<path d="M48.9918 67.338H35.2918C34.2918 67.338 33.5918 66.538 33.5918 65.638C33.5918 64.638 34.3918 63.938 35.2918 63.938H48.9918C49.9918 63.938 50.6918 64.738 50.6918 65.638C50.6918 66.538 49.9918 67.338 48.9918 67.338Z" fill="#152646"/>
<path d="M48.9918 70.838H35.2918C34.2918 70.838 33.5918 70.038 33.5918 69.138C33.5918 68.138 34.3918 67.438 35.2918 67.438H48.9918C49.9918 67.438 50.6918 68.238 50.6918 69.138C50.6918 70.038 49.9918 70.838 48.9918 70.838Z" fill="#152646"/>
<path d="M39.1923 61.7379C39.0923 55.9379 38.1923 50.2379 36.9923 44.5379C36.4923 42.0379 36.0923 39.1379 35.0923 36.7379C34.3923 35.1379 33.0923 33.8379 31.2923 33.8379C29.8923 33.8379 28.7923 34.8379 28.5923 36.2379C28.2923 38.0379 29.2923 39.5379 30.7923 40.4379C33.8923 42.4379 39.3923 43.2379 42.0923 40.1379C43.6923 38.2379 44.9923 32.3379 40.8923 32.3379C36.9923 32.4379 38.4923 38.8379 39.8923 40.6379C42.3923 43.7379 47.1923 44.2379 50.4923 42.4379C53.0923 41.0379 56.1923 36.4379 52.5923 34.3379C50.9923 33.3379 48.9923 33.8379 47.6923 35.1379C45.8923 36.8379 45.5923 39.4379 45.3923 41.8379C44.8923 48.7379 45.2923 55.6379 44.3923 62.5379C44.2923 63.3379 45.4923 63.3379 45.5923 62.5379C46.3923 55.8379 46.0923 49.1379 46.4923 42.5379C46.5923 40.8379 46.6923 39.1379 47.3923 37.5379C48.1923 35.8379 49.9923 34.2379 51.8923 35.4379C53.7923 36.6379 52.5923 39.1379 51.3923 40.3379C50.1923 41.5379 48.5923 42.1379 46.8923 42.3379C43.8923 42.6379 40.5923 41.1379 39.6923 38.0379C39.4923 37.3379 39.3923 36.5379 39.4923 35.8379C39.6923 34.3379 41.5923 33.0379 42.2923 34.9379C42.7923 36.4379 41.9923 38.5379 40.9923 39.6379C38.6923 42.0379 34.1923 41.2379 31.5923 39.7379C30.7923 39.2379 29.9923 38.5379 29.7923 37.6379C29.4923 36.4379 30.1923 35.0379 31.6923 35.2379C33.5923 35.5379 34.2923 37.7379 34.6923 39.3379C36.4923 46.7379 37.8923 54.2379 38.0923 61.8379C37.9923 62.5379 39.1923 62.5379 39.1923 61.7379Z" fill="#152646"/>
<path d="M35.293 63.838C35.293 63.838 40.293 62.438 48.993 63.838C48.993 63.838 39.193 64.338 35.293 63.838Z" fill="#071A38"/>
<path d="M35.293 67.2379C35.293 67.2379 40.293 65.8379 48.993 67.2379C48.993 67.2379 39.193 67.7379 35.293 67.2379Z" fill="#071A38"/>
<path d="M37.293 72.1383C38.293 73.3383 39.993 74.7383 42.393 74.7383C44.793 74.7383 46.293 73.4383 47.293 72.2383C43.993 71.6383 40.593 71.6383 37.293 72.1383Z" fill="#152646"/>
<path d="M54.0922 21.4382C55.1922 22.1382 56.2922 22.8382 57.0922 23.8382C57.8922 24.8382 58.4922 26.1382 58.2922 27.4382C58.2922 27.7382 58.1922 28.0382 57.9922 28.2382C57.4922 28.8382 56.5922 28.6382 55.8922 28.4382C52.7922 27.3382 50.0922 25.1382 48.7922 22.1382C48.5922 21.7382 48.4922 21.3382 48.4922 20.9382C48.7922 18.4382 53.0922 20.8382 54.0922 21.4382Z" fill="#F9CD47"/>
<path d="M57.393 34.4382C57.393 35.1382 57.593 35.8382 57.993 36.3382C58.293 36.6382 58.693 36.9382 59.193 37.0382C59.393 37.1382 59.5929 37.1382 59.7929 37.1382C60.0929 37.0382 60.3929 36.8382 60.5929 36.5382C60.8929 36.0382 60.893 35.4382 60.993 34.9382C61.093 33.7382 60.8929 32.6382 60.5929 31.5382C60.4929 31.1382 60.293 30.8382 59.993 30.6382C59.393 30.2382 58.193 30.5382 57.893 31.1382C57.193 31.7382 57.293 33.4382 57.393 34.4382Z" fill="#F9CD47"/>
<path d="M23.7914 29.5382C23.6914 29.7382 23.6914 29.9382 23.6914 30.2382C23.6914 30.4382 23.8914 30.6382 24.0914 30.7382C24.2914 30.7382 24.4914 30.6382 24.5914 30.5382C26.2914 29.1382 27.2914 27.1382 27.9914 25.0382C28.0914 24.6382 28.6914 22.6382 27.9914 22.5382C27.4914 22.4382 26.3914 24.2382 26.0914 24.6382C25.0914 26.0382 24.2914 27.7382 23.7914 29.5382Z" fill="#F9CD47"/>
<path d="M12.5929 62.1381C14.3929 59.6381 16.4929 57.4381 18.7929 55.4381C19.4929 54.8381 18.4929 53.9381 17.7929 54.4381C15.3929 56.5381 13.2929 58.9381 11.3929 61.4381C10.8929 62.2381 12.0929 62.8381 12.5929 62.1381Z" fill="#B7C3CE"/>
<path d="M63.6923 53.6379C66.6923 55.2379 69.4923 57.3379 71.9923 59.7379C72.5923 60.3379 73.5923 59.3379 72.9923 58.7379C70.3923 56.2379 67.5923 54.1379 64.3923 52.4379C63.6923 52.0379 62.9923 53.1379 63.6923 53.6379Z" fill="#B7C3CE"/>
<path d="M71.7921 39.7379C75.0921 40.2379 78.4921 40.8379 81.7921 41.3379C82.6921 41.4379 82.9921 40.1378 82.1921 40.0378C78.8921 39.5378 75.4921 38.9378 72.1921 38.4378C71.2921 38.2378 70.9921 39.5379 71.7921 39.7379Z" fill="#B7C3CE"/>
<path d="M0.79237 45.7382C3.69237 44.5382 6.69239 43.3382 9.59239 42.2382C10.3924 41.9382 10.0924 40.6382 9.19239 40.9382C6.29239 42.1382 3.29238 43.3382 0.392376 44.4382C-0.307624 44.7382 -0.00763005 46.0382 0.79237 45.7382Z" fill="#B7C3CE"/>
<path d="M0.792116 21.1381C3.89212 22.1381 6.99213 23.2381 10.0921 24.2381C10.8921 24.5381 11.2921 23.2381 10.4921 22.9381C7.39213 21.9381 4.29214 20.8381 1.19214 19.8381C0.292141 19.5381 -0.00788361 20.8381 0.792116 21.1381Z" fill="#B7C3CE"/>
<path d="M69.1916 25.7382C71.8916 24.9382 74.5915 24.0382 77.2915 23.2382C78.0915 22.9382 77.7916 21.6382 76.8916 21.9382C74.1916 22.7382 71.4915 23.6382 68.7915 24.4382C67.9915 24.7382 68.3916 26.0382 69.1916 25.7382Z" fill="#B7C3CE"/>
<path d="M67.5933 4.43789C65.8933 6.63789 64.2933 8.93788 62.7933 11.3379C62.2933 12.0379 63.4933 12.7379 63.9933 12.0379C65.4933 9.63788 67.0933 7.43788 68.7933 5.13788C69.2933 4.33788 68.0933 3.73789 67.5933 4.43789Z" fill="#B7C3CE"/>
<path d="M16.1927 6.43794C17.9927 8.53794 19.9927 10.4379 21.9927 12.2379C22.6927 12.8379 23.5927 11.8379 22.9927 11.2379C20.9927 9.43794 18.9927 7.43794 17.1927 5.43794C16.4927 4.83794 15.5927 5.83794 16.1927 6.43794Z" fill="#B7C3CE"/>
<path d="M38.9922 0.63805C39.0922 2.43805 39.0922 4.13805 39.1922 5.93805C39.1922 6.83805 40.5922 6.83805 40.5922 5.93805C40.4922 4.13805 40.4922 2.43805 40.3922 0.63805C40.2922 -0.16195 38.9922 -0.261949 38.9922 0.63805Z" fill="#B7C3CE"/>
</svg>
