<svg width="21" height="21" viewBox="0 0 21 21" fill="none" xmlns="http://www.w3.org/2000/svg">
<path d="M19.6742 8.9375C19.8086 9.17496 20.5174 10.4997 20.053 12.112C19.4909 14.0492 17.7067 14.7241 17.5234 14.7865" stroke="#CB1B5B" stroke-miterlimit="10" stroke-linecap="round" stroke-linejoin="round"/>
<path d="M20.3354 15.262C19.2967 15.2245 18.2458 15.187 17.207 15.1495C17.317 14.1372 17.4148 13.1248 17.5248 12.125" stroke="#CB1B5B" stroke-miterlimit="10" stroke-linecap="round" stroke-linejoin="round"/>
<path d="M15.498 9.27365C17.732 9.27365 19.5429 7.42153 19.5429 5.13683C19.5429 2.85212 17.732 1 15.498 1C13.2641 1 11.4531 2.85212 11.4531 5.13683C11.4531 7.42153 13.2641 9.27365 15.498 9.27365Z" stroke="#CB1B5B" stroke-miterlimit="10"/>
<path d="M14.7386 18.6083L14.3231 19.0333C13.0644 20.3205 11.0114 20.3205 9.75274 19.0333L1.94401 11.0471C0.685329 9.75977 0.685329 7.66011 1.94401 6.37282L2.3595 5.94789C3.61818 4.6606 5.67118 4.6606 6.92987 5.94789L14.7386 13.9341C16.0095 15.2214 16.0095 17.3085 14.7386 18.6083Z" stroke="#CB1B5B" stroke-miterlimit="10"/>
<path d="M13.1641 2.02344C14.8749 4.0981 16.5857 6.16026 18.2966 8.23493" stroke="#CB1B5B" stroke-miterlimit="10"/>
<path d="M10.6192 9.71094C8.945 11.4107 7.28305 13.1104 5.62109 14.8226" stroke="#CB1B5B" stroke-miterlimit="10"/>
<path d="M3.92459 10.2723C3.41134 9.95981 3.10583 9.4099 3.13027 8.84749C3.15471 8.31008 3.47244 7.94764 3.5702 7.84766" stroke="#CB1B5B" stroke-miterlimit="10" stroke-linecap="round"/>
</svg>
