<svg width="42" height="43" viewBox="0 0 42 43" fill="none" xmlns="http://www.w3.org/2000/svg">
<path d="M9.24957 23.5001C8.99957 23.7501 8.74957 23.7501 8.49957 23.5001L2.24957 13.0001C0.999566 10.5001 1.24957 7.50015 2.74957 5.00015C4.24957 2.50015 6.99957 1.25015 9.74957 1.50015C9.99957 1.50015 12.7496 1.75015 14.7496 4.00015C16.7496 6.25015 17.2496 10.0001 15.9996 13.2501L9.24957 23.5001Z" stroke="#CB1B5B" stroke-width="1.5" stroke-miterlimit="10"/>
<path d="M9.00038 23.75C12.0004 23.75 15.2504 23.75 18.2504 23.75C20.2504 24 21.5004 25.75 21.5004 27.75C21.5004 29.75 19.5004 31.5 17.5004 31.25C13.7504 31.25 10.0004 31.25 6.25038 31.25C4.00038 31.25 2.25038 33.25 2.50038 35.25C2.75038 37.25 4.50038 38.75 6.50038 38.5C12.7504 38.5 19.2504 38.5 25.5004 38.5" stroke="#CB1B5B" stroke-width="1.5" stroke-miterlimit="10"/>
<path d="M28.7499 35C30.4999 35 31.9999 36.5 31.9999 38.25C31.9999 40 30.7499 41.25 28.9999 41.5C27.2499 41.75 25.4999 40.25 25.4999 38.25C25.2499 36.5 26.7499 35 28.7499 35Z" stroke="#CB1B5B" stroke-width="1.5" stroke-miterlimit="10"/>
<path d="M9 6C10.75 6 12.25 7.5 12.25 9.25C12.25 11 11 12.25 9.25 12.5C7.5 12.75 5.75 11.25 5.75 9.5C5.75 7.75 7.25 6 9 6Z" stroke="#CB1B5B" stroke-width="1.5" stroke-miterlimit="10"/>
<path d="M28.75 35V16.25C28.75 16 29.25 15.75 29.5 15.75L40.75 20.75C41.25 21 41.25 21.5 40.75 21.75L28.75 27.75" stroke="#CB1B5B" stroke-width="1.5" stroke-miterlimit="10"/>
</svg>
