<svg width="48" height="48" viewBox="0 0 48 48" fill="none" xmlns="http://www.w3.org/2000/svg">
<path d="M41.3332 27.4676C39.4666 36.0009 31.7332 42.6676 22.6666 42.6676C11.9999 42.6676 3.46655 34.1342 3.46655 23.4676C3.46655 12.8009 11.9999 4.26758 22.6666 4.26758C31.7332 4.26758 39.4666 10.6676 41.3332 19.2009L35.9999 15.2009C35.1999 14.4009 33.8665 15.2009 33.8665 16.2676V19.4676H19.9999C18.9332 19.4676 17.8666 20.5342 17.8666 21.6009V25.0676C17.8666 26.4009 18.9332 27.2009 19.9999 27.2009H33.5999V30.4009C33.5999 31.4676 34.9332 32.2676 35.7332 31.4676L41.3332 27.4676Z" stroke="#CB1B5B" stroke-width="1.5" stroke-miterlimit="10"/>
<path d="M17.8667 21.6001V25.0668C17.8667 26.4001 18.9334 27.2001 20 27.2001H33.6V28.2668C32.8 30.1335 31.4667 31.7335 29.8667 33.0668L30.4 34.1335C30.6667 34.9335 30.4 36.0001 29.3334 36.2668L26.6667 37.6001C25.8667 37.8668 24.8 37.6001 24.5334 36.8001L24 35.7335C23.4667 35.7335 22.9334 35.7335 22.6667 35.7335C22.4 35.7335 21.6 35.7335 21.3334 35.7335L20.8 36.8001C20.5334 37.6001 19.4667 38.1335 18.6667 37.8668L15.4667 36.5335C14.6667 36.2668 14.1334 35.2001 14.6667 34.4001L15.2 33.3335C14.4 32.8001 13.8667 32.0001 13.0667 31.2001L12 31.7335C11.2 32.0001 10.1334 31.7335 9.86669 30.9335L8.53335 28.0001C8.00002 27.2001 8.53335 26.1335 9.33335 25.6001L10.4 25.0668C10.4 24.5335 10.4 24.0001 10.4 23.7335C10.4 23.2001 10.4 22.6668 10.4 22.4001L9.06669 21.6001C8.26669 21.0668 7.73335 20.2668 8.26668 19.2001L9.60002 16.0001C9.86668 15.4668 10.6667 14.9335 11.7334 15.2001L12.8 15.7335C13.3334 14.9335 14.1334 14.1335 14.6667 13.6001L14.4 12.5335C13.8667 11.7335 14.4 10.6668 15.2 10.4001L18.1334 9.0668C18.9334 8.80013 20 9.0668 20.2667 9.8668L20.8 10.9335C21.3334 10.9335 21.8667 10.9335 22.1334 10.9335C22.4 10.9335 23.2 10.9335 23.4667 10.9335L24 9.8668C24.5334 9.0668 25.6 8.80013 26.6667 9.0668L29.6 10.4001C30.4 10.6668 30.9334 11.7335 30.6667 12.5335L30.1334 13.6001C31.7334 14.9335 33.0667 16.5335 33.8667 18.4001V19.4668H20C18.9334 19.4668 17.8667 20.5335 17.8667 21.6001Z" stroke="#CB1B5B" stroke-width="1.5" stroke-miterlimit="10" stroke-linecap="round" stroke-linejoin="round"/>
<path d="M45.3334 24.2667L41.3334 27.4667L36 31.7333C35.2 32.5333 33.8667 31.7333 33.8667 30.6667V27.4667H20C18.9334 27.4667 17.8667 26.6667 17.8667 25.3333V21.6C17.8667 20.5333 18.9334 19.4667 20 19.4667H33.6V16.2667C33.6 15.2 34.9334 14.4 35.7334 15.2L41.0667 19.2L45.3334 22.1333C46.1334 22.6667 46.1334 23.7333 45.3334 24.2667Z" stroke="#CB1B5B" stroke-width="1.5" stroke-miterlimit="10" stroke-linecap="round" stroke-linejoin="round"/>
</svg>
