<svg width="14" height="14" viewBox="0 0 14 14" fill="none" xmlns="http://www.w3.org/2000/svg">
<path d="M1.61539 13.4615C1.318 13.7589 0.835848 13.7589 0.538463 13.4615C0.241078 13.1642 0.241078 12.682 0.538463 12.3846L5.21597 7.70711C5.6065 7.31658 5.6065 6.68342 5.21597 6.29289L0.538463 1.61539C0.241078 1.318 0.241079 0.835845 0.538464 0.53846C0.835849 0.241077 1.318 0.241077 1.61539 0.538462L6.29289 5.21597C6.68341 5.60649 7.31658 5.60649 7.7071 5.21597L12.3846 0.538461C12.682 0.241077 13.1642 0.241077 13.4615 0.53846C13.7589 0.835845 13.7589 1.318 13.4615 1.61539L8.78403 6.29289C8.39351 6.68342 8.39351 7.31658 8.78403 7.70711L13.4615 12.3846C13.7589 12.682 13.7589 13.1642 13.4615 13.4615C13.1642 13.7589 12.682 13.7589 12.3846 13.4615L7.7071 8.78403C7.31658 8.39351 6.68341 8.39351 6.29289 8.78403L1.61539 13.4615Z" fill="white"/>
</svg>
