<svg width="497" height="201" viewBox="0 0 497 201" fill="none" xmlns="http://www.w3.org/2000/svg">
<path d="M127.344 66.5791H115.442V54.707H105.023V66.5791H93.0781V77.0161H105.023V88.8881H115.442V77.0161H127.344V66.5791Z" fill="#CB1B5B"/>
<path d="M123.945 156.165L119.716 163.514C118.975 163.253 118.103 163.514 117.711 164.253L116.359 166.602L119.237 168.254L120.588 165.906C120.98 165.21 120.806 164.297 120.196 163.818L125.384 154.816L123.945 156.208V156.165Z" fill="#CB1B5B" fill-opacity="0.3"/>
<path d="M109.252 169.518L98.2656 188.478L95.6063 186.956C95.3448 186.782 94.996 186.913 94.8216 187.173C94.6472 187.434 94.778 187.782 95.0396 187.956L111.257 197.306C111.518 197.48 111.867 197.393 112.042 197.089C112.216 196.828 112.129 196.48 111.824 196.306L109.164 194.784L120.15 175.823C121.545 173.388 120.717 170.257 118.276 168.865L116.183 167.648C113.742 166.256 110.603 167.082 109.208 169.518H109.252ZM117.752 169.822C119.627 170.909 120.281 173.344 119.191 175.214L108.205 194.175L99.2247 189L100.402 187L105.197 189.739C105.197 189.739 105.502 189.739 105.589 189.652C105.677 189.522 105.59 189.348 105.459 189.261L100.663 186.521L101.535 185.043L103.802 186.347C103.802 186.347 104.107 186.347 104.194 186.26C104.282 186.13 104.194 185.956 104.107 185.869L101.797 184.564L102.669 183.042L104.936 184.347C104.936 184.347 105.241 184.347 105.328 184.26C105.415 184.129 105.328 183.955 105.241 183.868L102.93 182.564L103.802 181.042L108.598 183.781C108.598 183.781 108.903 183.781 108.99 183.695C109.077 183.564 108.99 183.39 108.903 183.303L104.107 180.563L104.979 179.085L107.29 180.389C107.29 180.389 107.595 180.389 107.682 180.302C107.769 180.172 107.682 179.998 107.595 179.911L105.284 178.606L106.156 177.128L108.423 178.433C108.423 178.433 108.728 178.433 108.816 178.346C108.903 178.215 108.816 178.041 108.728 177.954L106.461 176.65L107.333 175.127L112.129 177.867C112.129 177.867 112.434 177.867 112.521 177.78C112.608 177.65 112.521 177.476 112.434 177.389L107.638 174.649L108.51 173.127L110.821 174.432C110.821 174.432 111.126 174.432 111.213 174.345C111.3 174.214 111.213 174.04 111.126 173.953L108.859 172.649L109.731 171.17L111.998 172.475C111.998 172.475 112.303 172.475 112.39 172.388C112.477 172.257 112.39 172.083 112.303 171.996L110.036 170.692L110.341 170.126C110.516 169.822 110.777 169.518 111.039 169.257L115.66 171.909C115.66 171.909 115.965 171.909 116.052 171.822C116.139 171.692 116.052 171.518 115.965 171.431L111.518 168.865C112.739 167.996 114.396 167.865 115.791 168.648L117.883 169.866L117.752 169.822Z" fill="#CB1B5B" fill-opacity="0.3"/>
<path d="M97.1297 194.739C96.8681 194.565 96.5194 194.695 96.345 194.956C96.1706 195.217 96.3014 195.565 96.563 195.739L103.8 199.914C104.061 200.088 104.41 200.001 104.584 199.697C104.759 199.436 104.628 199.088 104.366 198.914L102.535 197.87L104.497 194.478L100.879 192.391L98.9171 195.783L97.0861 194.739H97.1297Z" fill="#CB1B5B" fill-opacity="0.3"/>
<path d="M290.433 74.6669C290.433 74.6669 290.825 74.7538 290.912 74.9278L292.482 77.1022L293.005 75.1017L294.923 67.9263C295.01 67.6654 295.228 67.4914 295.533 67.4914C295.838 67.4914 296.056 67.6654 296.144 67.9263L299.37 80.0593L300.678 75.1017L301.549 71.8402C301.593 71.6227 301.811 71.4488 302.029 71.4053C302.247 71.4053 302.508 71.4488 302.639 71.6662L304.775 74.6669H313.146C314.846 70.9704 314.148 66.4912 311.097 63.4471C307.173 59.5333 300.852 59.5333 296.928 63.4471C293.005 59.5333 286.64 59.5333 282.76 63.4471C279.708 66.4912 279.054 70.9704 280.711 74.6669H290.389H290.433Z" fill="#CB1B5B"/>
<path d="M304.47 75.8846C304.47 75.8846 304.078 75.7976 303.947 75.6237L302.377 73.4493L301.854 75.4497L299.936 82.6252C299.849 82.8861 299.631 83.06 299.369 83.06C299.108 83.06 298.846 82.8861 298.759 82.6252L295.489 70.4922L294.182 75.4497L293.31 78.7113C293.266 78.9287 293.048 79.1027 292.83 79.1462C292.612 79.1462 292.35 79.1027 292.22 78.8853L290.084 75.8846H281.408C281.801 76.4935 282.236 77.0588 282.76 77.5807L296.928 91.7141L311.096 77.5807C311.619 77.0588 312.099 76.4935 312.448 75.8846H304.426H304.47Z" fill="#CB1B5B"/>
<path d="M24.197 138.812H9.67997C9.3748 138.812 9.11328 138.551 9.11328 138.247C9.11328 137.943 9.3748 137.682 9.67997 137.682H24.197C24.5022 137.682 24.7638 137.943 24.7638 138.247C24.7638 138.551 24.5022 138.812 24.197 138.812Z" fill="#CB1B5B" fill-opacity="0.3"/>
<path d="M18.7053 131.635H15.1742C14.8254 131.635 14.6074 131.374 14.6074 131.069C14.6074 130.765 14.869 130.504 15.1742 130.504H18.7053C19.0105 130.504 19.272 130.765 19.272 131.069C19.272 131.374 19.0105 131.635 18.7053 131.635Z" fill="#CB1B5B" fill-opacity="0.3"/>
<path d="M22.2357 135.244H11.555C11.2499 135.244 10.9883 134.983 10.9883 134.679C10.9883 134.374 11.2499 134.113 11.555 134.113H22.2357C22.5409 134.113 22.8025 134.374 22.8025 134.679C22.8025 134.983 22.5409 135.244 22.2357 135.244Z" fill="#CB1B5B" fill-opacity="0.3"/>
<path d="M24.197 113.502H9.67997C9.3748 113.502 9.11328 113.241 9.11328 112.936C9.11328 112.632 9.3748 112.371 9.67997 112.371H24.197C24.5022 112.371 24.7638 112.632 24.7638 112.936C24.7638 113.241 24.5022 113.502 24.197 113.502Z" fill="#CB1B5B" fill-opacity="0.3"/>
<path d="M18.7053 120.676H15.1742C14.8254 120.676 14.6074 120.415 14.6074 120.11C14.6074 119.806 14.869 119.545 15.1742 119.545H18.7053C19.0105 119.545 19.272 119.806 19.272 120.11C19.272 120.415 19.0105 120.676 18.7053 120.676Z" fill="#CB1B5B" fill-opacity="0.3"/>
<path d="M22.2357 117.07H11.555C11.2499 117.07 10.9883 116.809 10.9883 116.505C10.9883 116.2 11.2499 115.939 11.555 115.939H22.2357C22.5409 115.939 22.8025 116.2 22.8025 116.505C22.8025 116.809 22.5409 117.07 22.2357 117.07Z" fill="#CB1B5B" fill-opacity="0.3"/>
<path d="M18.5683 123.199C19.1786 123.634 19.8325 124.069 20.4865 124.504C25.3691 120.938 29.7285 116.807 29.7285 109.631C29.7285 108.979 29.2054 108.457 28.5514 108.457C27.8975 108.457 27.3744 108.979 27.3744 109.631C27.3744 116.024 23.2765 119.677 18.4375 123.069L18.5683 123.156V123.199Z" fill="#CB1B5B" fill-opacity="0.3"/>
<path d="M15.2599 127.982C14.6495 127.547 13.9957 127.113 13.3417 126.678C8.45913 130.244 4.09961 134.375 4.09961 141.55C4.09961 142.203 4.62277 142.725 5.27669 142.725C5.93061 142.725 6.45376 142.203 6.45376 141.55C6.45376 135.158 10.5516 131.505 15.3906 128.113C15.347 128.113 15.3035 128.069 15.2599 128.026V127.982Z" fill="#CB1B5B" fill-opacity="0.3"/>
<path d="M28.5127 142.638C27.8588 142.638 27.3356 142.116 27.3356 141.464C27.3356 134.115 21.9299 130.418 16.219 126.504C10.2465 122.416 4.09961 118.198 4.09961 109.631C4.09961 108.979 4.62277 108.457 5.27669 108.457C5.93061 108.457 6.45376 108.979 6.45376 109.631C6.45376 116.981 11.8595 120.677 17.5704 124.591C23.4993 128.679 29.6898 132.897 29.6898 141.464C29.6898 142.116 29.1666 142.638 28.5127 142.638Z" fill="#CB1B5B" fill-opacity="0.3"/>
<path d="M22.7109 28.9625C22.7109 30.528 23.9752 31.8326 25.5882 31.8326H28.0295C29.5989 31.8326 30.9068 30.5715 30.9068 28.9625V17.6992H22.7545V28.9625H22.7109Z" fill="#CB1B5B" fill-opacity="0.3"/>
<path d="M33.6995 2.21875H19.9671C19.6619 2.21875 19.4004 2.47966 19.4004 2.78407C19.4004 3.08849 19.6619 3.34943 19.9671 3.34943H20.4903V28.92C20.4903 31.7467 22.8008 34.0515 25.6344 34.0515H28.0757C30.9094 34.0515 33.2199 31.7467 33.2199 28.92V3.34943H33.743C34.0482 3.34943 34.3098 3.08849 34.3098 2.78407C34.3098 2.47966 34.0482 2.21875 33.743 2.21875H33.6995ZM28.0321 32.9208H25.5908C23.3675 32.9208 21.5801 31.1379 21.5801 28.92V3.34943H31.9993V7.52422H26.4191C26.4191 7.52422 26.2447 7.6112 26.2447 7.69817C26.2447 7.78515 26.332 7.87212 26.4191 7.87212H31.9993V9.82904H29.34C29.34 9.82904 29.1656 9.91602 29.1656 10.003C29.1656 10.09 29.2528 10.177 29.34 10.177H31.9993V12.1339H29.34C29.34 12.1339 29.1656 12.2208 29.1656 12.3078C29.1656 12.3948 29.2528 12.4818 29.34 12.4818H31.9993V14.4387H26.4191C26.4191 14.4387 26.2447 14.5257 26.2447 14.6127C26.2447 14.6996 26.332 14.7866 26.4191 14.7866H31.9993V28.8765C31.9993 31.0944 30.2118 32.8774 27.9885 32.8774L28.0321 32.9208Z" fill="#CB1B5B" fill-opacity="0.3"/>
<path d="M14.2991 2.21875H0.566753C0.26159 2.21875 0 2.47966 0 2.78407C0 3.08849 0.26159 3.34943 0.566753 3.34943H1.08987V28.92C1.08987 31.7467 3.40043 34.0515 6.23409 34.0515H8.67538C11.509 34.0515 13.8195 31.7467 13.8195 28.92V3.34943H14.3427C14.6479 3.34943 14.9094 3.08849 14.9094 2.78407C14.9094 2.47966 14.6479 2.21875 14.3427 2.21875H14.2991ZM8.63181 32.9208H6.19045C3.96712 32.9208 2.17974 31.1379 2.17974 28.92V3.34943H12.5989V7.52422H7.0624C7.0624 7.52422 6.88798 7.6112 6.88798 7.69817C6.88798 7.78515 6.97521 7.87212 7.0624 7.87212H12.5989V9.82904H9.9396C9.9396 9.82904 9.76525 9.91602 9.76525 10.003C9.76525 10.09 9.85241 10.177 9.9396 10.177H12.5989V12.1339H9.9396C9.9396 12.1339 9.76525 12.2208 9.76525 12.3078C9.76525 12.3948 9.85241 12.4818 9.9396 12.4818H12.5989V14.4387H7.0624C7.0624 14.4387 6.88798 14.5257 6.88798 14.6127C6.88798 14.6996 6.97521 14.7866 7.0624 14.7866H12.5989V16.7435H9.9396C9.9396 16.7435 9.76525 16.8305 9.76525 16.9175C9.76525 17.0045 9.85241 17.0914 9.9396 17.0914H12.5989V19.0484H9.9396C9.9396 19.0484 9.76525 19.1354 9.76525 19.2223C9.76525 19.3093 9.85241 19.3963 9.9396 19.3963H12.5989V21.3532H7.0624C7.0624 21.3532 6.88798 21.4402 6.88798 21.5272C6.88798 21.6141 6.97521 21.7011 7.0624 21.7011H12.5989V23.658H9.9396C9.9396 23.658 9.76525 23.745 9.76525 23.832C9.76525 23.919 9.85241 24.0059 9.9396 24.0059H12.5989V25.9629H9.9396C9.9396 25.9629 9.76525 26.0498 9.76525 26.1368C9.76525 26.2238 9.85241 26.3108 9.9396 26.3108H12.5989V28.2677H7.0624C7.0624 28.2677 6.88798 28.3547 6.88798 28.4416C6.88798 28.5286 6.97521 28.6156 7.0624 28.6156H12.5989V28.7896C12.5989 31.0074 10.8115 32.7904 8.58817 32.7904L8.63181 32.9208Z" fill="#CB1B5B" fill-opacity="0.3"/>
<path d="M302.507 177.386H298.671V173.516H295.271V177.386H291.391V180.778H295.271V184.648H298.671V180.778H302.507V177.386Z" fill="#CB1B5B" fill-opacity="0.3"/>
<path d="M296.966 170.428C292.171 170.428 288.291 174.298 288.291 179.082C288.291 183.865 292.215 187.736 296.966 187.736C301.718 187.736 305.642 183.865 305.642 179.082C305.642 174.298 301.762 170.428 296.966 170.428ZM296.966 186.822C292.694 186.822 289.25 183.387 289.25 179.082C289.25 174.776 292.694 171.384 296.966 171.384C301.239 171.384 304.683 174.82 304.683 179.082C304.683 183.343 301.239 186.822 296.966 186.822Z" fill="#CB1B5B" fill-opacity="0.3"/>
<path d="M309.916 167.947H284.021C281.711 167.947 279.836 169.817 279.836 172.122V185.995C279.836 188.299 281.711 190.169 284.021 190.169H309.916C312.227 190.169 314.101 188.299 314.101 185.995V172.122C314.101 169.817 312.227 167.947 309.916 167.947ZM296.969 188.734C291.607 188.734 287.291 184.385 287.291 179.08C287.291 173.775 291.65 169.426 296.969 169.426C302.287 169.426 306.647 173.775 306.647 179.08C306.647 184.385 302.287 188.734 296.969 188.734Z" fill="#CB1B5B" fill-opacity="0.3"/>
<path d="M289.732 167.427V167.253C289.732 165.47 291.214 163.991 293.002 163.991H300.892C302.68 163.991 304.162 165.47 304.162 167.253V167.427H306.036V167.253C306.036 164.426 303.726 162.121 300.892 162.121H293.002C290.168 162.121 287.857 164.426 287.857 167.253V167.427H289.732Z" fill="#CB1B5B" fill-opacity="0.3"/>
<path d="M488.386 73.1899H484.899V69.7109H481.847V73.1899H478.359V76.234H481.847V79.7131H484.899V76.234H488.386V73.1899Z" fill="#CB1B5B" fill-opacity="0.3"/>
<path d="M483.376 66.752C478.973 66.752 475.398 70.3179 475.398 74.7102C475.398 79.1024 478.973 82.6684 483.376 82.6684C487.779 82.6684 491.354 79.1024 491.354 74.7102C491.354 70.3179 487.779 66.752 483.376 66.752ZM483.376 81.7116C479.496 81.7116 476.314 78.5806 476.314 74.6667C476.314 70.7528 479.453 67.6652 483.376 67.6652C487.3 67.6652 490.439 70.7963 490.439 74.6667C490.439 78.5371 487.3 81.7116 483.376 81.7116Z" fill="#CB1B5B" fill-opacity="0.3"/>
<path d="M488.256 61.8374H488.125V60.4023H478.621V61.8374H478.491C475.047 61.8374 472.213 64.6206 472.213 68.0561V81.3198C472.213 84.7553 475.003 87.582 478.491 87.582H488.256C491.7 87.582 494.49 84.7988 494.49 81.3198V68.0561C494.49 64.6206 491.7 61.8374 488.256 61.8374ZM483.373 83.6681C478.403 83.6681 474.393 79.6673 474.393 74.7097C474.393 69.7521 478.403 65.7513 483.373 65.7513C488.343 65.7513 492.354 69.7521 492.354 74.7097C492.354 79.6673 488.343 83.6681 483.373 83.6681Z" fill="#CB1B5B" fill-opacity="0.3"/>
<path d="M478.927 53.4023H487.82C488.518 53.4023 489.085 53.9677 489.085 54.6635V58.3599C489.085 59.0557 488.518 59.621 487.82 59.621H478.883C478.186 59.621 477.619 59.0557 477.619 58.3599V54.6635C477.619 53.9677 478.186 53.4023 478.883 53.4023H478.927Z" fill="#CB1B5B" fill-opacity="0.3"/>
<path d="M400.417 22.7891C400.417 28.3989 395.839 32.9216 390.259 32.9216C384.679 32.9216 380.102 28.3554 380.102 22.7891H400.46H400.417Z" fill="#CB1B5B" fill-opacity="0.3"/>
<path d="M394.835 11.0458V1.04369C395.097 1.04369 395.358 0.826256 395.358 0.521844C395.358 0.217432 395.14 0 394.835 0H385.724C385.462 0 385.201 0.217432 385.201 0.521844C385.201 0.826256 385.419 1.04369 385.724 1.04369V11.0458C380.885 12.9157 377.615 17.6124 377.615 22.8309C377.615 29.7888 383.283 35.4422 390.258 35.4422C397.233 35.4422 402.9 29.7888 402.9 22.8309C402.9 17.6124 399.674 12.9592 394.792 11.0458H394.835ZM390.258 34.3985C383.849 34.3985 378.661 29.18 378.661 22.8309C378.661 17.9603 381.757 13.5681 386.421 11.9156L386.77 11.7851V1.04369H393.789V11.7851L394.138 11.9156C398.759 13.5681 401.898 17.9168 401.898 22.8309C401.898 29.2235 396.666 34.3985 390.301 34.3985H390.258Z" fill="#CB1B5B" fill-opacity="0.3"/>
<path d="M388.554 19.2638C388.337 19.2638 388.118 19.4378 388.075 19.6552H387.072C387.029 19.3508 386.767 19.1334 386.462 19.1334C386.375 19.1334 386.288 19.1334 386.2 19.1769L385.634 18.2201C385.634 18.2201 385.764 18.0462 385.764 17.9592C385.764 17.7418 385.59 17.6113 385.416 17.6113C385.241 17.6113 385.067 17.7853 385.067 17.9592C385.067 18.1332 385.241 18.3071 385.416 18.3071C385.459 18.3071 385.503 18.3071 385.546 18.3071L386.113 19.2638C386.113 19.2638 385.852 19.5683 385.852 19.7422C385.852 19.9162 385.939 20.0901 386.07 20.2206L385.721 20.8294C385.721 20.8294 385.546 20.7859 385.416 20.7859C384.98 20.7859 384.631 21.1338 384.631 21.5687C384.631 22.0035 384.98 22.3514 385.416 22.3514C385.852 22.3514 386.2 22.0035 386.2 21.5687C386.2 21.3077 386.07 21.0903 385.895 20.9598L386.244 20.351C386.244 20.351 386.375 20.351 386.418 20.351C386.723 20.351 386.985 20.1336 387.029 19.8292H388.031C388.031 20.0466 388.249 20.2206 388.511 20.2206C388.772 20.2206 388.99 20.0031 388.99 19.7422C388.99 19.4813 388.772 19.2638 388.511 19.2638H388.554Z" fill="#CB1B5B" fill-opacity="0.3"/>
<path d="M391.437 19.9178C391.437 19.7003 391.263 19.4829 391.045 19.4394V18.4392C391.35 18.4392 391.568 18.1348 391.568 17.8304C391.568 17.7434 391.568 17.6564 391.524 17.5695L392.483 17.0041C392.483 17.0041 392.658 17.1346 392.745 17.1346C392.963 17.1346 393.094 16.9606 393.094 16.7867C393.094 16.6127 392.919 16.4388 392.745 16.4388C392.571 16.4388 392.396 16.6127 392.396 16.7867C392.396 16.8302 392.396 16.8737 392.396 16.9171L391.437 17.4825C391.437 17.4825 391.132 17.2215 390.958 17.2215C390.783 17.2215 390.609 17.3085 390.478 17.439L389.868 17.0911C389.868 17.0911 389.911 16.9171 389.911 16.7867C389.911 16.3518 389.562 16.0039 389.126 16.0039C388.691 16.0039 388.342 16.3518 388.342 16.7867C388.342 17.2216 388.691 17.5695 389.126 17.5695C389.388 17.5695 389.606 17.439 389.737 17.265L390.347 17.613C390.347 17.613 390.347 17.7434 390.347 17.8304C390.347 18.1348 390.565 18.3957 390.87 18.4392V19.4394C390.652 19.4829 390.478 19.6569 390.478 19.9178C390.478 20.1787 390.696 20.3961 390.958 20.3961C391.219 20.3961 391.437 20.1787 391.437 19.9178Z" fill="#CB1B5B" fill-opacity="0.3"/>
<path d="M389.606 15.0888C389.606 15.0888 389.781 14.6539 389.65 14.4799L390.347 13.7842C390.565 13.9581 390.914 13.9581 391.132 13.7407C391.176 13.6972 391.219 13.6102 391.263 13.5232L392.353 13.8276C392.353 13.8276 392.353 14.0451 392.44 14.132C392.571 14.2625 392.832 14.2625 392.963 14.132C393.094 14.0016 393.094 13.7407 392.963 13.6102C392.832 13.4797 392.571 13.4797 392.44 13.6102C392.44 13.6102 392.396 13.6972 392.353 13.6972L391.263 13.3928C391.263 13.3928 391.263 13.0014 391.089 12.8709C390.958 12.7404 390.783 12.697 390.609 12.697L390.435 12.0447C390.435 12.0447 390.609 11.9577 390.653 11.8707C390.958 11.5663 390.958 11.0444 390.653 10.74C390.347 10.4356 389.868 10.4356 389.563 10.74C389.258 11.0444 389.258 11.5663 389.563 11.8707C389.737 12.0447 389.955 12.1316 390.217 12.0881L390.391 12.7404C390.391 12.7404 390.26 12.8274 390.217 12.8709C389.999 13.0883 389.999 13.4362 390.173 13.6537L389.476 14.3495C389.476 14.3495 389.04 14.219 388.865 14.393C388.691 14.5669 388.691 14.8713 388.865 15.0888C389.04 15.2627 389.388 15.2627 389.563 15.0888H389.606Z" fill="#CB1B5B" fill-opacity="0.3"/>
<path d="M392.656 18.8307C392.656 18.8307 393.092 19.0046 393.267 18.8742L393.964 19.57C393.79 19.8309 393.79 20.1353 394.008 20.3527C394.051 20.3962 394.138 20.4397 394.226 20.4832L393.92 21.5704C393.92 21.5704 393.702 21.5704 393.615 21.6574C393.484 21.7878 393.484 22.0487 393.615 22.1792C393.746 22.3097 394.008 22.3097 394.139 22.1792C394.269 22.0487 394.269 21.7878 394.139 21.6574C394.139 21.6574 394.051 21.6139 394.051 21.5704L394.356 20.5267C394.356 20.5267 394.749 20.5267 394.88 20.3527C395.01 20.2223 395.054 20.0483 395.054 19.8744L395.708 19.7004C395.708 19.7004 395.795 19.8744 395.882 19.9179C396.187 20.2223 396.667 20.2223 397.016 19.9179C397.321 19.6135 397.321 19.0916 397.016 18.7872C396.71 18.4828 396.187 18.4828 395.882 18.7872C395.708 18.9611 395.621 19.2221 395.664 19.4395L395.01 19.6135C395.01 19.6135 394.923 19.483 394.88 19.4395C394.662 19.2221 394.313 19.2221 394.095 19.396L393.397 18.7002C393.397 18.7002 393.484 18.2653 393.354 18.0914C393.179 17.9175 392.874 17.9175 392.656 18.0914C392.482 18.2653 392.482 18.5697 392.656 18.7872V18.8307Z" fill="#CB1B5B" fill-opacity="0.3"/>
<path d="M397.153 133.2H386.908C386.908 133.2 386.646 133.07 386.646 132.939C386.646 132.765 386.777 132.635 386.908 132.635H397.153C397.153 132.635 397.414 132.765 397.414 132.939C397.414 133.113 397.283 133.2 397.153 133.2Z" fill="#CB1B5B" fill-opacity="0.3"/>
<path d="M397.153 127.026H386.908C386.908 127.026 386.646 126.896 386.646 126.765C386.646 126.635 386.777 126.461 386.908 126.461H397.153C397.153 126.461 397.414 126.591 397.414 126.765C397.414 126.939 397.283 127.026 397.153 127.026Z" fill="#CB1B5B" fill-opacity="0.3"/>
<path d="M397.153 120.852H386.908C386.908 120.852 386.646 120.721 386.646 120.591C386.646 120.461 386.777 120.33 386.908 120.33H397.153C397.153 120.33 397.414 120.461 397.414 120.591C397.414 120.721 397.283 120.852 397.153 120.852Z" fill="#CB1B5B" fill-opacity="0.3"/>
<path d="M385.335 132.939C385.335 133.548 384.812 134.07 384.202 134.07C383.592 134.07 383.068 133.548 383.068 132.939C383.068 132.33 383.592 131.809 384.202 131.809C384.812 131.809 385.335 132.33 385.335 132.939Z" fill="#CB1B5B" fill-opacity="0.3"/>
<path d="M384.202 127.894C384.828 127.894 385.335 127.388 385.335 126.763C385.335 126.139 384.828 125.633 384.202 125.633C383.576 125.633 383.068 126.139 383.068 126.763C383.068 127.388 383.576 127.894 384.202 127.894Z" fill="#CB1B5B" fill-opacity="0.3"/>
<path d="M385.335 120.59C385.335 121.198 384.812 121.72 384.202 121.72C383.592 121.72 383.068 121.198 383.068 120.59C383.068 119.981 383.592 119.459 384.202 119.459C384.812 119.459 385.335 119.981 385.335 120.59Z" fill="#CB1B5B" fill-opacity="0.3"/>
<path d="M398.156 111.588H395.541V113.849H398.156C399.421 113.849 400.423 114.849 400.423 116.111V137.463C400.423 138.724 399.421 139.724 398.156 139.724H382.375C381.111 139.724 380.108 138.724 380.108 137.463V116.111C380.108 114.849 381.111 113.849 382.375 113.849H384.991V111.588H382.375C379.89 111.588 377.885 113.588 377.885 116.067V137.419C377.885 139.898 379.89 141.899 382.375 141.899H398.156C400.641 141.899 402.647 139.898 402.647 137.419V116.067C402.647 113.588 400.641 111.588 398.156 111.588Z" fill="#CB1B5B" fill-opacity="0.3"/>
<path d="M393.794 110.458H393.009C393.009 108.979 391.789 107.762 390.306 107.762C388.824 107.762 387.604 108.979 387.604 110.458H386.819C386.514 110.458 386.252 110.719 386.252 111.023V114.459C386.252 114.763 386.514 115.024 386.819 115.024H393.838C394.143 115.024 394.404 114.763 394.404 114.459V111.023C394.404 110.719 394.143 110.458 393.838 110.458H393.794ZM390.263 108.849C391.135 108.849 391.876 109.545 391.876 110.458H388.693C388.693 109.588 389.391 108.849 390.306 108.849H390.263Z" fill="#CB1B5B" fill-opacity="0.3"/>
<path d="M477.489 193.082C477.489 193.082 477.183 193.039 477.053 193.169L476.442 192.821C476.442 192.821 476.442 192.387 476.268 192.3C476.224 192.3 476.137 192.256 476.094 192.256V191.473C476.094 191.473 476.224 191.43 476.268 191.343C476.355 191.212 476.268 191.082 476.181 190.995C476.05 190.908 475.876 190.995 475.832 191.082C475.745 191.212 475.832 191.343 475.919 191.43C475.919 191.43 475.963 191.43 476.006 191.43V192.213C476.006 192.213 475.745 192.3 475.658 192.43C475.614 192.561 475.57 192.648 475.658 192.778L475.222 193.039C475.222 193.039 475.135 192.952 475.047 192.908C474.786 192.734 474.437 192.865 474.306 193.126C474.175 193.387 474.263 193.735 474.524 193.865C474.786 194.039 475.134 193.909 475.265 193.648C475.352 193.474 475.352 193.343 475.265 193.169L475.701 192.908C475.701 192.908 475.745 192.995 475.788 192.995C475.963 193.126 476.224 193.039 476.355 192.908L476.966 193.256C476.966 193.256 476.966 193.561 477.096 193.648C477.271 193.735 477.445 193.648 477.576 193.517C477.663 193.343 477.576 193.169 477.445 193.039L477.489 193.082Z" fill="#CB1B5B"/>
<path d="M474.132 191.039C474.132 191.039 474.175 190.735 474.044 190.604L474.393 189.996C474.393 189.996 474.829 189.995 474.916 189.822C474.916 189.778 474.916 189.691 474.96 189.648H475.745C475.745 189.648 475.788 189.778 475.876 189.822C476.006 189.909 476.137 189.822 476.224 189.735C476.311 189.604 476.224 189.474 476.137 189.387C476.006 189.3 475.832 189.387 475.788 189.474C475.788 189.474 475.788 189.517 475.788 189.561H475.004C475.004 189.561 474.916 189.3 474.786 189.213C474.655 189.169 474.524 189.126 474.437 189.213L474.175 188.778C474.175 188.778 474.262 188.691 474.306 188.604C474.48 188.343 474.35 187.995 474.088 187.865C473.827 187.734 473.478 187.821 473.347 188.082C473.173 188.343 473.303 188.691 473.565 188.821C473.739 188.908 473.914 188.908 474.044 188.821L474.306 189.256C474.306 189.256 474.263 189.343 474.219 189.343C474.132 189.517 474.175 189.778 474.306 189.909L473.957 190.517C473.957 190.517 473.652 190.517 473.565 190.648C473.478 190.822 473.565 191.039 473.696 191.126C473.87 191.213 474.088 191.126 474.175 190.996L474.132 191.039Z" fill="#CB1B5B"/>
<path d="M476.4 188.604C476.4 188.604 476.705 188.648 476.836 188.517L477.446 188.865C477.446 188.865 477.446 189.3 477.62 189.387C477.664 189.387 477.751 189.43 477.795 189.43V190.213C477.795 190.213 477.664 190.257 477.62 190.344C477.533 190.474 477.62 190.605 477.707 190.692C477.838 190.779 477.969 190.692 478.056 190.605C478.143 190.474 478.056 190.344 477.969 190.257C477.969 190.257 477.925 190.257 477.882 190.257V189.474C477.882 189.474 478.143 189.387 478.187 189.256C478.274 189.17 478.274 189.039 478.187 188.909L478.623 188.648C478.623 188.648 478.71 188.735 478.797 188.778C479.059 188.952 479.408 188.822 479.538 188.561C479.713 188.3 479.582 187.952 479.32 187.821C479.059 187.647 478.71 187.778 478.579 188.039C478.492 188.169 478.492 188.343 478.579 188.517L478.143 188.778C478.143 188.778 478.056 188.691 478.013 188.691C477.838 188.561 477.577 188.648 477.446 188.778L476.836 188.43C476.836 188.43 476.836 188.126 476.661 188.039C476.487 187.952 476.312 188.039 476.182 188.169C476.094 188.343 476.182 188.517 476.312 188.648L476.4 188.604Z" fill="#CB1B5B"/>
<path d="M478.846 190.778C478.846 190.778 479.02 191.039 479.194 191.039L479.369 191.691C479.369 191.691 479.064 191.996 479.107 192.213C479.107 192.257 479.107 192.343 479.194 192.387L478.671 192.952C478.671 192.952 478.541 192.909 478.453 192.952C478.323 192.952 478.235 193.126 478.279 193.257C478.279 193.387 478.453 193.474 478.584 193.431C478.715 193.431 478.802 193.257 478.758 193.126C478.758 193.126 478.758 193.083 478.758 193.039L479.325 192.474C479.325 192.474 479.587 192.604 479.717 192.561C479.848 192.561 479.935 192.43 479.979 192.343L480.459 192.474C480.459 192.474 480.459 192.604 480.459 192.691C480.546 192.996 480.851 193.17 481.156 193.083C481.461 192.996 481.636 192.691 481.549 192.387C481.461 192.083 481.156 191.909 480.851 191.996C480.677 192.039 480.546 192.17 480.502 192.3L480.023 192.17C480.023 192.17 480.023 192.083 480.023 192.039C479.979 191.822 479.761 191.691 479.543 191.735L479.369 191.039C479.369 191.039 479.587 190.821 479.543 190.647C479.5 190.474 479.282 190.343 479.107 190.43C478.933 190.474 478.802 190.647 478.846 190.865V190.778Z" fill="#CB1B5B"/>
<path d="M477.837 177.037L471.952 187.213C470.208 190.257 471.255 194.084 474.263 195.824C477.271 197.563 481.151 196.519 482.894 193.519L488.78 183.343L477.837 177.037ZM481.848 192.954C481.151 194.128 480.061 194.997 478.709 195.345C477.401 195.693 476.006 195.519 474.829 194.823C472.388 193.388 471.516 190.257 472.955 187.822L478.23 178.646L487.123 183.778L481.848 192.91V192.954Z" fill="#CB1B5B"/>
<path d="M493.05 163.339C490.042 161.599 486.162 162.643 484.419 165.643L478.533 175.819L489.476 182.125L495.361 171.949C497.105 168.948 496.058 165.078 493.05 163.339ZM493.137 171.34C492.876 171.166 492.789 170.862 492.919 170.558C493.399 169.731 493.53 168.775 493.268 167.905C493.007 166.992 492.44 166.252 491.612 165.774C491.35 165.6 491.263 165.296 491.394 164.991C491.568 164.73 491.873 164.643 492.135 164.774C493.225 165.383 494.009 166.383 494.314 167.6C494.62 168.818 494.489 170.036 493.835 171.123C493.661 171.384 493.355 171.471 493.05 171.34H493.137Z" fill="#CB1B5B"/>
<path d="M212.487 135.55H229.053C229.053 130.548 225.958 128.374 221.555 127.635C220.421 128.722 218.895 129.374 217.239 129.374C215.582 129.374 214.056 128.722 212.923 127.635C211.005 127.983 209.348 128.548 208.084 129.548C210.395 130.94 211.877 132.94 212.487 135.55Z" fill="#CB1B5B" fill-opacity="0.3"/>
<path d="M211.176 119.809C211.089 120.243 211.002 120.722 211.002 121.2C211.002 124.636 213.792 127.419 217.192 127.419C220.593 127.419 223.383 124.636 223.383 121.2C223.383 120.722 223.339 120.243 223.208 119.809H211.089H211.176Z" fill="#CB1B5B" fill-opacity="0.3"/>
<path d="M220.6 112.414H213.843C212.012 112.414 210.486 113.936 210.486 115.763L211.184 119.111H223.26L223.957 115.763C223.957 113.936 222.475 112.414 220.6 112.414ZM217.244 118.415C215.805 118.415 214.584 117.241 214.584 115.763C214.584 114.284 215.761 113.11 217.244 113.11C218.726 113.11 219.903 114.284 219.903 115.763C219.903 117.241 218.726 118.415 217.244 118.415Z" fill="#CB1B5B" fill-opacity="0.3"/>
<path d="M218.944 115.109H217.854V114.066C217.854 114.066 217.723 113.805 217.592 113.805H216.808C216.808 113.805 216.546 113.935 216.546 114.066V115.109H215.5C215.5 115.109 215.238 115.24 215.238 115.37V116.153C215.238 116.153 215.369 116.414 215.5 116.414H216.546V117.458C216.546 117.458 216.677 117.719 216.808 117.719H217.592C217.592 117.719 217.854 117.588 217.854 117.458V116.414H218.944C218.944 116.414 219.205 116.283 219.205 116.153V115.37C219.205 115.37 219.075 115.109 218.944 115.109Z" fill="#CB1B5B" fill-opacity="0.3"/>
<path d="M202.193 128.59C200.755 129.981 198.837 130.808 196.7 130.808C194.564 130.808 192.602 129.938 191.207 128.59C185.627 129.547 181.66 132.373 181.66 138.722H211.784C211.784 132.373 207.817 129.547 202.237 128.59H202.193Z" fill="#CB1B5B" fill-opacity="0.3"/>
<path d="M188.986 118.676C188.855 119.241 188.768 119.85 188.768 120.459C188.768 124.808 192.299 128.373 196.702 128.373C201.105 128.373 204.636 124.851 204.636 120.459C204.636 119.85 204.549 119.241 204.418 118.676H188.986Z" fill="#CB1B5B" fill-opacity="0.3"/>
<path d="M201.019 109.195H192.388C190.033 109.195 188.115 111.109 188.115 113.457L188.987 117.762H204.42L205.292 113.457C205.292 111.109 203.373 109.195 201.019 109.195ZM196.703 116.849C194.829 116.849 193.347 115.327 193.347 113.501C193.347 111.674 194.829 110.152 196.703 110.152C198.578 110.152 200.06 111.674 200.06 113.501C200.06 115.327 198.578 116.849 196.703 116.849Z" fill="#CB1B5B" fill-opacity="0.3"/>
<path d="M198.885 112.676H197.533V111.328C197.533 111.328 197.402 110.98 197.184 110.98H196.182C196.182 110.98 195.833 111.111 195.833 111.328V112.676H194.482C194.482 112.676 194.133 112.807 194.133 112.981V113.981C194.133 113.981 194.264 114.329 194.482 114.329H195.833V115.677C195.833 115.677 195.964 116.025 196.182 116.025H197.184C197.184 116.025 197.533 115.895 197.533 115.677V114.329H198.885C198.885 114.329 199.233 114.155 199.233 113.981V112.981C199.233 112.981 199.103 112.676 198.885 112.676Z" fill="#CB1B5B" fill-opacity="0.3"/>
</svg>
