<svg width="32" height="32" viewBox="0 0 32 32" fill="none" xmlns="http://www.w3.org/2000/svg">
<path d="M21.3486 23.7159C18.7386 27.8242 13.5831 27.792 13.3092 27.792H4.19031C4.04531 27.792 3.94865 27.6147 4.0292 27.4859L5.84976 24.5375C5.88198 24.4892 5.88198 24.4086 5.84976 24.3442C3.33642 19.9297 4.51254 14.4359 8.26642 11.7292C10.1675 10.3597 12.6164 9.79586 14.9686 10.1503C16.5798 10.3759 18.1425 11.0203 19.4475 12.1481C20.8975 13.3886 21.8964 15.032 22.3314 16.8042C22.9436 19.1242 22.6536 21.6536 21.3486 23.7159Z" stroke="#98969D" stroke-miterlimit="10"/>
<path d="M29.1465 16.8043H22.3315C21.8965 15.0321 20.8976 13.3888 19.4476 12.1482C18.1426 11.0204 16.5799 10.376 14.9688 10.1504C14.9688 8.15266 15.8226 6.13877 17.4337 4.78543C19.931 2.67488 23.556 2.69099 26.021 4.46321C28.9049 6.54154 29.8232 10.7627 27.8899 14.1621C27.8576 14.2104 27.8576 14.2749 27.8899 14.3071L29.2754 16.5627C29.3399 16.6754 29.2754 16.8043 29.1465 16.8043Z" stroke="#98969D" stroke-miterlimit="10"/>
<path d="M19.9491 10.328C20.305 10.328 20.5936 10.0394 20.5936 9.68351C20.5936 9.32759 20.305 9.03906 19.9491 9.03906C19.5932 9.03906 19.3047 9.32759 19.3047 9.68351C19.3047 10.0394 19.5932 10.328 19.9491 10.328Z" fill="#98969D"/>
<path d="M22.3319 10.328C22.6879 10.328 22.9764 10.0394 22.9764 9.68351C22.9764 9.32759 22.6879 9.03906 22.3319 9.03906C21.976 9.03906 21.6875 9.32759 21.6875 9.68351C21.6875 10.0394 21.976 10.328 22.3319 10.328Z" fill="#98969D"/>
<path d="M24.8944 10.328C25.2504 10.328 25.5389 10.0394 25.5389 9.68351C25.5389 9.32759 25.2504 9.03906 24.8944 9.03906C24.5385 9.03906 24.25 9.32759 24.25 9.68351C24.25 10.0394 24.5385 10.328 24.8944 10.328Z" fill="#98969D"/>
<path d="M10.8945 16.45V21.1061C10.8945 21.38 11.2006 21.5572 11.4423 21.4284L15.5184 19.0922C15.7601 18.9472 15.7601 18.6089 15.5184 18.4639L11.4262 16.1278C11.1845 15.9828 10.8945 16.16 10.8945 16.45Z" stroke="#98969D" stroke-miterlimit="10"/>
</svg>
