<svg width="40" height="40" viewBox="0 0 40 40" fill="none" xmlns="http://www.w3.org/2000/svg">
<path d="M20.668 22.222V32.6664C20.668 33.3331 21.3346 33.9998 22.0013 33.9998H30.8902L34.4457 36.8887C34.668 37.1109 34.8902 36.8887 34.8902 36.6664V33.9998H37.1124C37.7791 33.9998 38.4457 33.3331 38.4457 32.6664V22.222C38.4457 21.5553 37.7791 20.8887 37.1124 20.8887H22.0013C21.3346 20.8887 20.668 21.3331 20.668 22.222Z" fill="#CB1B5B"/>
<path d="M34.4444 5.77745V19.333H22C20.4444 19.333 19.3333 20.4441 19.3333 21.9997V27.333H15.7778L9.33333 32.8886C8.88889 33.1108 8.44445 32.8886 8.44445 32.4441V27.333H4.44444C3.11111 27.333 2 26.2219 2 24.8886V5.77745C2 4.44412 3.11111 3.33301 4.44444 3.33301H32C33.3333 3.33301 34.4444 4.44412 34.4444 5.77745Z" fill="#CB1B5B"/>
<path d="M23.1098 12.6666V13.9999C23.1098 14.4443 22.6654 14.6666 22.4431 14.6666H19.5543V17.3332C19.5543 17.7777 19.1098 17.9999 18.8876 17.9999H17.5543C17.1098 17.9999 16.8876 17.7777 16.8876 17.3332V14.6666H13.9987C13.7765 14.6666 13.332 14.4443 13.332 13.9999V12.6666C13.332 12.2221 13.7765 11.9999 13.9987 11.9999H16.6654V9.111C16.6654 8.66656 17.1098 8.44434 17.332 8.44434H18.6654C19.1098 8.44434 19.332 8.88878 19.332 9.111V11.7777H21.9987C22.8876 11.9999 23.1098 12.2221 23.1098 12.6666Z" fill="white"/>
</svg>
