<svg width="24" height="24" viewBox="0 0 24 24" fill="none" xmlns="http://www.w3.org/2000/svg">
<path d="M15.8669 21.5997H5.86693C5.33359 21.5997 4.93359 21.1997 4.93359 20.6664V5.99974C4.93359 5.46641 5.33359 5.06641 5.86693 5.06641H15.8669C16.4003 5.06641 16.8003 5.46641 16.8003 5.99974V20.6664C16.8003 21.0664 16.4003 21.5997 15.8669 21.5997Z" stroke="#CB1B5B" stroke-miterlimit="10"/>
<path d="M19.3334 1.19922H9.3334C8.40006 1.19922 7.7334 1.86589 7.7334 2.79922V3.33255C7.7334 3.73255 8.00007 3.99922 8.40007 3.99922C8.80007 3.99922 9.06673 3.73255 9.06673 3.33255C9.06673 3.19922 9.06673 2.93255 9.06673 2.79922C9.06673 2.66589 9.06673 2.53255 9.3334 2.53255H19.3334C19.4667 2.53255 19.6001 2.66589 19.6001 2.79922V17.3326C19.6001 17.4659 19.4667 17.5992 19.3334 17.5992H18.8001C18.4001 17.5992 18.1334 17.8659 18.1334 18.2659C18.1334 18.6659 18.4001 18.9326 18.8001 18.9326C18.9334 18.9326 19.2001 18.9326 19.3334 18.9326C20.2667 18.9326 20.9334 18.2659 20.9334 17.3326V2.79922C20.9334 1.86589 20.1334 1.19922 19.3334 1.19922Z" fill="#CB1B5B"/>
</svg>
