<svg width="81" height="70" viewBox="0 0 81 70" fill="#fff" xmlns="http://www.w3.org/2000/svg">
<path fill-rule="evenodd" clip-rule="evenodd" d="M0 8.24999C0 3.72883 3.59779 0 8.11363 0H65.3863C69.9024 0 73.5 3.72883 73.5 8.24999V26.25C73.5 27.2164 72.7164 28 71.75 28C70.7836 28 70 27.2164 70 26.25V8.24999C70 5.5915 67.8997 3.5 65.3863 3.5H8.11363C5.60039 3.5 3.5 5.5915 3.5 8.24999V40.7502C3.5 43.4084 5.60039 45.5 8.11363 45.5H33.25C34.2164 45.5 35 46.2837 35 47.25C35 48.2164 34.2164 49 33.25 49H8.11363C3.59779 49 0 45.2711 0 40.7502V8.24999Z"/>
<path fill-rule="evenodd" clip-rule="evenodd" d="M0 12.25C0 11.2835 0.783503 10.5 1.75 10.5H71.75C72.7164 10.5 73.5 11.2835 73.5 12.25C73.5 13.2165 72.7164 14 71.75 14H1.75C0.783503 14 0 13.2165 0 12.25Z"/>
<path fill-rule="evenodd" clip-rule="evenodd" d="M7 29.75C7 28.7837 7.78351 28 8.75 28H15.75C16.7165 28 17.5 28.7837 17.5 29.75C17.5 30.7164 16.7165 31.5 15.75 31.5H8.75C7.78351 31.5 7 30.7164 7 29.75Z"/>
<path fill-rule="evenodd" clip-rule="evenodd" d="M7 38.5C7 37.5337 7.78351 36.75 8.75 36.75H22.75C23.7165 36.75 24.5 37.5337 24.5 38.5C24.5 39.4664 23.7165 40.25 22.75 40.25H8.75C7.78351 40.25 7 39.4664 7 38.5Z"/>
<path fill-rule="evenodd" clip-rule="evenodd" d="M61.25 35C52.5514 35 45.5 42.0514 45.5 50.75C45.5 59.4486 52.5514 66.5 61.25 66.5C69.9486 66.5 77 59.4486 77 50.75C77 42.0514 69.9486 35 61.25 35ZM42 50.75C42 40.1184 50.6184 31.5 61.25 31.5C71.8816 31.5 80.5 40.1184 80.5 50.75C80.5 61.3816 71.8816 70 61.25 70C50.6184 70 42 61.3816 42 50.75Z"/>
<path fill-rule="evenodd" clip-rule="evenodd" d="M67.0124 47.7624C67.696 47.0792 68.804 47.0792 69.4876 47.7624C70.1708 48.4459 70.1708 49.554 69.4876 50.2376L62.4876 57.2376C61.804 57.9208 60.696 57.9208 60.0124 57.2376L54.7624 51.9876C54.0792 51.304 54.0792 50.1959 54.7624 49.5124C55.446 48.8292 56.554 48.8292 57.2376 49.5124L61.25 53.5251L67.0124 47.7624Z"/>
</svg>
