<svg width="32" height="32" viewBox="0 0 32 32" fill="none" xmlns="http://www.w3.org/2000/svg">
<path d="M7 2.96324C7 11.3192 7.01801 19.6752 7.01801 28.0311C7.01801 28.1752 7 28.8956 7.55826 29.5078C8.20657 30.1922 9.07098 30.1562 9.17903 30.1562C13.411 30.1562 17.6611 30.1562 21.8931 30.1562C22.0551 30.1381 22.8475 30.0481 23.4418 29.3638C24.1081 28.6074 24.0001 27.707 23.9821 27.5629C23.9821 19.405 23.9821 11.2652 23.9821 3.10731C23.9821 2.98125 24.0001 2.08082 23.2797 1.46853C22.7575 1.01832 22.1452 1.00031 21.9831 1.00031C17.7151 1.00031 13.4651 1.00031 9.19704 1.00031C9.07098 1.00031 8.18856 0.964294 7.54026 1.66663C7.05403 2.17087 7.01801 2.78316 7 2.96324Z" stroke="#98969D" stroke-miterlimit="10"/>
<path d="M13.9141 2.87305C15.0306 2.87305 16.1651 2.87305 17.2817 2.87305" stroke="#98969D" stroke-width="0.5" stroke-miterlimit="10" stroke-linecap="round"/>
<path d="M7.01953 25.7617C12.6742 25.7797 18.3289 25.7977 24.0016 25.7977" stroke="#98969D" stroke-miterlimit="10" stroke-linecap="round"/>
<path d="M20.0566 22.5016H10.9623C10.44 22.5016 10.0078 22.0694 10.0078 21.5472V8.9232C10.0078 8.40095 10.44 7.96875 10.9623 7.96875H20.0566C20.5788 7.96875 21.011 8.40095 21.011 8.9232V21.5472C21.011 22.0694 20.5788 22.5016 20.0566 22.5016Z" stroke="#98969D" stroke-miterlimit="10" stroke-linecap="round"/>
<path d="M11.9531 17.082C14.3303 17.082 16.7254 17.082 19.1025 17.082" stroke="#98969D" stroke-width="0.5714" stroke-miterlimit="10" stroke-linecap="round"/>
<path d="M11.9531 19.0449C13.5199 19.0449 15.0866 19.0449 16.6353 19.0449" stroke="#98969D" stroke-width="0.5714" stroke-miterlimit="10" stroke-linecap="round"/>
<path d="M11.8969 13.7501C11.8969 12.4895 11.8969 11.2469 11.8969 9.98633C12.3291 9.98633 12.7613 9.98633 13.1935 9.98633C13.6437 10.0043 14.0219 10.3825 14.0219 10.8147C14.0219 11.2289 13.7338 11.5891 13.3016 11.6611C12.8334 11.6611 12.3651 11.6611 11.8789 11.6611" stroke="#98969D" stroke-width="0.5714" stroke-miterlimit="10" stroke-linecap="round"/>
<path d="M11.8984 11.6797C12.9249 12.6882 13.9334 13.6966 14.9599 14.7051" stroke="#98969D" stroke-width="0.5714" stroke-miterlimit="10" stroke-linecap="round"/>
<path d="M14.979 12.8145C14.3667 13.4087 13.7544 14.021 13.1602 14.6333" stroke="#98969D" stroke-width="0.5714" stroke-miterlimit="10" stroke-linecap="round"/>
<path d="M14.9766 28.0312C15.3367 28.0312 15.6789 28.0312 16.0391 28.0312" stroke="#98969D" stroke-width="0.856" stroke-miterlimit="10" stroke-linecap="round"/>
</svg>
