<svg width="48" height="48" viewBox="0 0 48 48" fill="none" xmlns="http://www.w3.org/2000/svg">
<path d="M33.5992 10.9332V19.7332C32.5326 19.7332 28.7992 19.7332 25.3326 22.3999C21.0659 25.8665 20.7992 30.6665 20.7992 31.4665C17.0659 31.4665 13.3326 31.4665 9.59922 31.4665C8.26588 31.4665 7.19922 30.3999 7.19922 29.0665V10.9332C7.19922 9.59987 8.26588 8.5332 9.59922 8.5332H31.4659C32.5326 8.5332 33.5992 9.59987 33.5992 10.9332Z" stroke="#CB1B5B" stroke-width="1.5" stroke-miterlimit="10" stroke-linecap="round"/>
<path d="M12.5312 8.53411C12.5312 7.20078 12.5312 6.13411 12.5312 4.80078" stroke="#CB1B5B" stroke-width="1.5" stroke-miterlimit="10" stroke-linecap="round"/>
<path d="M28.2656 8.53411C28.2656 7.20078 28.2656 6.13411 28.2656 4.80078" stroke="#CB1B5B" stroke-width="1.5" stroke-miterlimit="10" stroke-linecap="round"/>
<path d="M10 14C16.9205 14 24.0795 14 31 14" stroke="#CB1B5B" stroke-width="1.04" stroke-miterlimit="10" stroke-linecap="round"/>
<path d="M11.7344 20C12.5344 20 13.0677 20 13.8677 20" stroke="#CB1B5B" stroke-width="1.04" stroke-miterlimit="10" stroke-linecap="round"/>
<path d="M19.1992 20C19.9992 20 20.5326 20 21.3326 20" stroke="#CB1B5B" stroke-width="1.04" stroke-miterlimit="10" stroke-linecap="round"/>
<path d="M27.1992 20C27.9992 20 28.5326 20 29.3326 20" stroke="#CB1B5B" stroke-width="1.04" stroke-miterlimit="10" stroke-linecap="round"/>
<path d="M11.7344 25.5996C12.5344 25.5996 13.0677 25.5996 13.8677 25.5996" stroke="#CB1B5B" stroke-width="1.04" stroke-miterlimit="10" stroke-linecap="round"/>
<path d="M19.1992 25.5996C19.9992 25.5996 20.5326 25.5996 21.3326 25.5996" stroke="#CB1B5B" stroke-width="1.04" stroke-miterlimit="10" stroke-linecap="round"/>
<path d="M37.8669 30.9331C39.487 30.9331 40.8003 29.6198 40.8003 27.9997C40.8003 26.3797 39.487 25.0664 37.8669 25.0664C36.2469 25.0664 34.9336 26.3797 34.9336 27.9997C34.9336 29.6198 36.2469 30.9331 37.8669 30.9331Z" stroke="#CB1B5B" stroke-width="0.75" stroke-miterlimit="10"/>
<path d="M28.7969 35.4659C28.7969 36.2659 28.7969 37.3326 28.7969 38.1326C28.7969 38.9326 29.3302 39.4659 29.8635 39.4659H37.3302C37.8635 39.4659 38.3969 38.9326 38.3969 38.1326C38.3969 35.7326 38.3969 33.3326 38.3969 31.1992" stroke="#CB1B5B" stroke-width="0.75" stroke-miterlimit="10"/>
<path d="M26.3987 29.332C26.132 29.332 25.5987 29.332 25.332 29.332V32.532C25.332 34.132 26.6654 35.4654 28.2654 35.4654H29.5987C31.1987 35.4654 32.532 34.132 32.532 32.532V29.332C32.2654 29.332 31.732 29.332 31.4654 29.332" stroke="#CB1B5B" stroke-width="0.75" stroke-miterlimit="10" stroke-linejoin="round"/>
<path d="M27.1974 29.8655C27.4919 29.8655 27.7307 29.6267 27.7307 29.3322C27.7307 29.0376 27.4919 28.7988 27.1974 28.7988C26.9028 28.7988 26.6641 29.0376 26.6641 29.3322C26.6641 29.6267 26.9028 29.8655 27.1974 29.8655Z" stroke="#CB1B5B" stroke-width="0.75" stroke-miterlimit="10"/>
<path d="M30.6661 29.8655C30.9607 29.8655 31.1995 29.6267 31.1995 29.3322C31.1995 29.0376 30.9607 28.7988 30.6661 28.7988C30.3716 28.7988 30.1328 29.0376 30.1328 29.3322C30.1328 29.6267 30.3716 29.8655 30.6661 29.8655Z" stroke="#CB1B5B" stroke-width="0.75" stroke-miterlimit="10"/>
<path d="M45.6018 31.9991C45.6018 38.9324 40.0018 44.5324 33.0685 44.5324C26.1352 44.5324 20.5352 38.9324 20.5352 31.9991C20.5352 31.7324 20.5352 31.4658 20.5352 31.4658C20.8018 24.7991 26.4018 19.7324 32.8018 19.7324C33.0685 19.7324 33.0685 19.7324 33.3352 19.7324C40.2685 19.9991 45.6018 25.3324 45.6018 31.9991Z" stroke="#CB1B5B" stroke-width="1.5" stroke-miterlimit="10"/>
</svg>
