<svg width="32" height="32" viewBox="0 0 32 32" fill="none" xmlns="http://www.w3.org/2000/svg">
<path fill-rule="evenodd" clip-rule="evenodd" d="M16 30C23.732 30 30 23.732 30 16C30 8.26801 23.732 2 16 2C8.26801 2 2 8.26801 2 16C2 23.732 8.26801 30 16 30ZM16 32C24.8366 32 32 24.8366 32 16C32 7.16344 24.8366 0 16 0C7.16344 0 0 7.16344 0 16C0 24.8366 7.16344 32 16 32Z" fill="#CB1B5B"/>
<path d="M18.6454 22.3194C18.2706 22.3194 17.9211 22.1302 17.7163 21.8163L15.4642 18.3647C15.3141 18.1175 15.1525 17.9174 14.9793 17.7644C14.8177 17.6114 14.6329 17.5055 14.4251 17.4466C14.2288 17.376 13.9921 17.3407 13.7151 17.3407H12.0327C11.6037 17.3407 11.2559 16.9929 11.2559 16.5639V16.5639C11.2559 16.1348 11.6037 15.787 12.0327 15.787H14.6502C15.47 15.787 16.0877 15.6164 16.5033 15.275C16.897 14.9406 17.1404 14.4742 17.2338 13.8758C17.2412 13.8282 17.2944 13.8022 17.3358 13.827V13.827C17.3938 13.8618 17.3691 13.9509 17.3015 13.9509H11.9091C11.5483 13.9509 11.2559 13.6584 11.2559 13.2977V13.2977C11.2559 12.9369 11.5483 12.6444 11.9091 12.6444H17.2745C17.3569 12.6444 17.3902 12.7506 17.3226 12.7977V12.7977C17.2719 12.8331 17.2014 12.8035 17.188 12.743C17.08 12.2544 16.8402 11.8802 16.4687 11.6204C16.0646 11.3262 15.4873 11.179 14.7368 11.179H11.9091C11.5483 11.179 11.2559 10.8866 11.2559 10.5258V10.5258C11.2559 10.165 11.5483 9.87256 11.9091 9.87256H20.2835C20.6443 9.87256 20.9368 10.165 20.9368 10.5258V10.5258C20.9368 10.8866 20.6443 11.179 20.2835 11.179H18.1281C18.0261 11.179 17.9781 11.053 18.0542 10.9851V10.9851C18.0898 10.9533 18.142 10.9477 18.1827 10.9727C18.5194 11.1796 18.7851 11.4484 18.9798 11.7793C19.1499 12.0586 19.2658 12.3774 19.3276 12.7355C19.3429 12.824 19.2409 12.8788 19.1721 12.821V12.821C19.1008 12.7609 19.1433 12.6444 19.2366 12.6444H20.4089C20.7004 12.6444 20.9368 12.8808 20.9368 13.1723V13.3701C20.9368 13.6908 20.6767 13.9509 20.3559 13.9509H19.2834C19.1814 13.9509 19.1287 13.8291 19.1985 13.7548V13.7548C19.2701 13.6784 19.396 13.7281 19.3912 13.8327C19.3622 14.4657 19.202 15.0231 18.9105 15.5046C18.5757 16.0578 18.0966 16.4874 17.4731 16.7934C16.8821 17.0776 16.1726 17.2245 15.3447 17.2342C15.2959 17.2348 15.2564 17.1952 15.2564 17.1465V17.1465C15.2564 17.0977 15.2959 17.0582 15.3447 17.0582H15.7413C16.2608 17.0582 16.7053 17.1641 17.0748 17.376C17.4558 17.5761 17.8137 17.9351 18.1485 18.453L19.57 20.5972C20.0588 21.3346 19.5301 22.3194 18.6454 22.3194V22.3194Z" fill="#CB1B5B"/>
</svg>
