<svg width="101" height="126" viewBox="0 0 101 126" fill="none" xmlns="http://www.w3.org/2000/svg">
<g opacity="0.5" clip-path="url(#clip0_1670_1929)">
<circle cx="13.4149" cy="47.0209" r="3.79487" transform="rotate(-1.23624 13.4149 47.0209)" fill="#FFDEEA"/>
<circle cx="54.1923" cy="46.1409" r="3.79487" transform="rotate(-1.23624 54.1923 46.1409)" fill="#FFDEEA"/>
<circle cx="94.9579" cy="45.2613" r="3.79487" transform="rotate(-1.23624 94.9579 45.2613)" fill="#FFDEEA"/>
<circle cx="14.2938" cy="87.7922" r="3.79487" transform="rotate(-1.23624 14.2938 87.7922)" fill="#FFDEEA"/>
<circle cx="55.0712" cy="86.9122" r="3.79487" transform="rotate(-1.23624 55.0712 86.9122)" fill="#FFDEEA"/>
<circle cx="95.8407" cy="86.0325" r="3.79487" transform="rotate(-1.23624 95.8407 86.0325)" fill="#FFDEEA"/>
<circle cx="12.536" cy="6.24968" r="3.79487" transform="rotate(-1.23624 12.536 6.24968)" fill="#FFDEEA"/>
<circle cx="53.3134" cy="5.36968" r="3.79487" transform="rotate(-1.23624 53.3134 5.36968)" fill="#FFDEEA"/>
<circle cx="94.079" cy="4.49004" r="3.79487" transform="rotate(-1.23624 94.079 4.49004)" fill="#FFDEEA"/>
<circle cx="15.1727" cy="128.563" r="3.79487" transform="rotate(-1.23624 15.1727 128.563)" fill="#FFDEEA"/>
<circle cx="55.9501" cy="127.683" r="3.79487" transform="rotate(-1.23624 55.9501 127.683)" fill="#FFDEEA"/>
<circle cx="96.7196" cy="126.804" r="3.79487" transform="rotate(-1.23624 96.7196 126.804)" fill="#FFDEEA"/>
</g>
<defs>
<clipPath id="clip0_1670_1929">
<rect width="148" height="122.713" fill="white" transform="translate(-49.7109 3.19308) rotate(-1.23624)"/>
</clipPath>
</defs>
</svg>
