<svg width="150" height="150" viewBox="0 0 150 150" fill="none" xmlns="http://www.w3.org/2000/svg">
<circle cx="75" cy="75" r="75" fill="white"/>
<path d="M101 58.16C100.997 55.6572 100.002 53.2577 98.232 51.488C96.4623 49.7182 94.0628 48.7228 91.56 48.72H89.8572V47C89.8572 46.4696 89.6465 45.9609 89.2714 45.5858C88.8963 45.2107 88.3876 45 87.8572 45C87.3268 45 86.8181 45.2107 86.443 45.5858C86.0679 45.9609 85.8572 46.4696 85.8572 47V48.72H60.1444V47C60.1444 46.4696 59.9337 45.9609 59.5586 45.5858C59.1835 45.2107 58.6748 45 58.1444 45C57.614 45 57.1053 45.2107 56.7302 45.5858C56.3551 45.9609 56.1444 46.4696 56.1444 47V48.72H54.44C51.9372 48.7228 49.5377 49.7182 47.768 51.488C45.9982 53.2577 45.0028 55.6572 45 58.16V91.56C45.0028 94.0628 45.9982 96.4623 47.768 98.232C49.5377 100.002 51.9372 100.997 54.44 101H75.826C78.9842 103.571 82.9277 104.983 87 105C91.7723 104.995 96.3476 103.097 99.7221 99.7221C103.097 96.3476 104.995 91.7723 105 87C104.983 82.9277 103.571 78.9842 101 75.826V58.16ZM54.44 52.72H56.1428V54.4268C56.1428 54.9572 56.3535 55.4659 56.7286 55.841C57.1037 56.2161 57.6124 56.4268 58.1428 56.4268C58.6732 56.4268 59.1819 56.2161 59.557 55.841C59.9321 55.4659 60.1428 54.9572 60.1428 54.4268V52.72H85.854V54.4268C85.854 54.9572 86.0647 55.4659 86.4398 55.841C86.8149 56.2161 87.3236 56.4268 87.854 56.4268C88.3844 56.4268 88.8931 56.2161 89.2682 55.841C89.6433 55.4659 89.854 54.9572 89.854 54.4268V52.72H91.56C93.0023 52.7217 94.385 53.2954 95.4048 54.3152C96.4246 55.335 96.9983 56.7177 97 58.16V59.8576H49V58.16C49.0017 56.7177 49.5754 55.335 50.5952 54.3152C51.615 53.2954 52.9977 52.7217 54.44 52.72ZM49 91.56V63.8576H97V72.0472C93.5401 69.727 89.382 68.6799 85.2358 69.0847C81.0897 69.4896 77.2127 71.3213 74.267 74.267C71.3213 77.2127 69.4896 81.0897 69.0847 85.2358C68.6799 89.382 69.727 93.5401 72.0472 97H54.44C52.9978 96.9982 51.6151 96.4245 50.5953 95.4047C49.5755 94.3849 49.0018 93.0022 49 91.56ZM87 101C84.2311 101 81.5243 100.179 79.222 98.6406C76.9197 97.1022 75.1253 94.9157 74.0657 92.3576C73.0061 89.7994 72.7288 86.9845 73.269 84.2687C73.8092 81.553 75.1426 79.0584 77.1005 77.1005C79.0584 75.1426 81.553 73.8092 84.2687 73.269C86.9845 72.7288 89.7994 73.0061 92.3576 74.0657C94.9157 75.1253 97.1022 76.9197 98.6406 79.222C100.179 81.5243 101 84.2311 101 87C100.996 90.7117 99.5191 94.27 96.8946 96.8946C94.27 99.5191 90.7117 100.996 87 101Z" fill="#CB1B5B"/>
<path d="M89 86.172V79C89 78.4696 88.7893 77.9609 88.4142 77.5858C88.0391 77.2107 87.5304 77 87 77C86.4696 77 85.9609 77.2107 85.5858 77.5858C85.2107 77.9609 85 78.4696 85 79V87C84.9999 87.2626 85.0516 87.5227 85.1522 87.7654C85.2527 88.008 85.4001 88.2284 85.586 88.414L89.586 92.414C89.9632 92.7783 90.4684 92.9799 90.9928 92.9753C91.5172 92.9708 92.0188 92.7605 92.3896 92.3896C92.7605 92.0188 92.9708 91.5172 92.9753 90.9928C92.9799 90.4684 92.7783 89.9632 92.414 89.586L89 86.172Z" fill="#CB1B5B"/>
</svg>
