<svg width="18" height="25" viewBox="0 0 18 25" fill="none" xmlns="http://www.w3.org/2000/svg">
<path d="M2.03516 14.922C2.03516 16.2464 2.03516 17.5709 2.03516 18.9097C2.06395 19.5 2.22231 20.9252 3.27322 22.2208C4.30974 23.5021 5.5766 24.0059 6.44037 24.1931C8.81572 24.6969 10.6728 24.4378 11.7237 24.1931C12.9042 23.9196 14.0415 23.646 15.0636 22.6815C16.2441 21.5586 16.604 20.1766 16.7192 19.5431C16.7624 17.686 16.8056 15.8146 16.8488 13.9575C16.8631 13.0937 16.2729 12.4027 15.5531 12.3307C15.0348 12.2731 14.5022 12.5466 14.1855 13.0361C14.1855 12.6618 14.1855 12.2875 14.1855 11.9132C13.9983 11.251 13.4225 10.7759 12.7459 10.7039C12.0548 10.6319 11.3926 10.9919 11.0759 11.5965C11.0759 11.2222 11.0759 10.8623 11.0759 10.488C10.9176 9.88335 10.4425 9.40828 9.85224 9.26432C9.16123 9.10596 8.42703 9.40828 8.03833 10.0417C8.03833 8.76046 8.03833 7.4792 8.03833 6.18355C7.98075 5.2766 7.21776 4.62877 6.42597 4.67196C5.77814 4.71515 5.1879 5.23341 5.04394 5.93882C5.04394 8.91881 5.04394 11.8988 5.04394 14.8788C4.77042 14.015 3.93544 13.5256 3.18684 13.6839C2.6254 13.8135 2.17912 14.303 2.03516 14.922Z" stroke="#CB1B5B" stroke-miterlimit="10" stroke-linejoin="round"/>
<path d="M5.04297 14.8945C5.04297 16.3197 5.04297 17.7594 5.04297 19.1846" stroke="#CB1B5B" stroke-miterlimit="10" stroke-linecap="round" stroke-linejoin="round"/>
<path d="M8.05078 10.2715C8.05078 11.6967 8.05078 13.1363 8.05078 14.5615" stroke="#CB1B5B" stroke-miterlimit="10" stroke-linecap="round" stroke-linejoin="round"/>
<path d="M11.0742 10.8633C11.0742 12.1157 11.0742 13.3682 11.0742 14.6207" stroke="#CB1B5B" stroke-miterlimit="10" stroke-linecap="round"/>
<path d="M14.1992 12.2305C14.1992 13.0223 14.1992 13.814 14.1992 14.6058" stroke="#CB1B5B" stroke-miterlimit="10" stroke-linecap="round"/>
<path d="M5.04261 11.5105C2.22097 10.6899 0.536628 7.85391 1.11247 5.17624C1.64513 2.7145 3.94851 0.94378 6.46783 1.00136C9.43343 1.07335 11.5928 3.66465 11.7224 6.16957C11.8088 7.88271 10.945 9.17836 10.5851 9.66782" stroke="#CB1B5B" stroke-miterlimit="10" stroke-linecap="round"/>
</svg>
