<svg width="24" height="21" viewBox="0 0 24 21" fill="none" xmlns="http://www.w3.org/2000/svg">
<path d="M16.8581 20.0014C20.1798 20.0014 22.8725 17.3087 22.8725 13.987C22.8725 10.6654 20.1798 7.97266 16.8581 7.97266C13.5365 7.97266 10.8438 10.6654 10.8438 13.987C10.8438 17.3087 13.5365 20.0014 16.8581 20.0014Z" stroke="#CB1B5B" stroke-miterlimit="10" stroke-linecap="round"/>
<path d="M14.5312 16.7196C15.7615 16.7196 17.1284 16.7196 18.3586 16.7196C19.5888 16.4463 20.4089 15.4894 20.4089 14.3959C20.4089 13.1657 19.042 12.0722 17.6751 12.2089C16.9917 12.2089 16.1715 12.2089 15.4881 12.2089" stroke="#CB1B5B" stroke-miterlimit="10" stroke-linecap="round"/>
<path d="M16.1714 10.4316C15.3512 11.1151 14.5311 11.7985 13.7109 12.3453C14.3944 12.8921 15.2145 13.5755 15.898 14.1223" stroke="#CB1B5B" stroke-miterlimit="10" stroke-linecap="round" stroke-linejoin="round"/>
<path d="M10.9786 15.2166C6.74115 15.3533 3.73395 15.3533 3.0505 15.2166C2.50374 15.2166 2.23036 14.9432 2.09367 14.8065C1.82028 14.5331 1.68359 14.2598 1.68359 13.8497V4.69141H16.1728C16.1728 5.78493 16.1728 6.87846 16.1728 7.97198C15.7627 7.97198 13.439 8.24536 11.9354 10.4324C10.4318 12.4828 10.9786 14.9432 10.9786 15.2166Z" stroke="#CB1B5B" stroke-miterlimit="10" stroke-linecap="round"/>
<path d="M16.9928 4.69065H1V1.68345C1 1.41007 1.27338 1 1.68345 1H16.446C16.7194 1 17.1295 1.27338 17.1295 1.68345V4.69065H16.9928Z" stroke="#CB1B5B" stroke-miterlimit="10" stroke-linecap="round"/>
</svg>
