<svg width="48" height="48" viewBox="0 0 48 48" fill="none" xmlns="http://www.w3.org/2000/svg">
<path d="M25.6539 4.64062C21.3605 4.64062 17.8672 8.13396 17.8672 12.4273C17.8672 16.7206 21.3605 20.214 25.6539 20.214C29.9472 20.214 33.4405 16.7206 33.4405 12.4273C33.4405 8.13396 29.9472 4.64062 25.6539 4.64062Z" fill="#FD9191"/>
<path d="M46.2932 36.5201C46.2932 37.2401 45.7065 37.8535 44.9598 37.8535H36.4798C36.3465 37.8535 36.2398 37.8268 36.1332 37.8001C36.0265 37.7735 35.9198 37.7201 35.8398 37.6668C35.8131 37.6668 35.7598 37.6401 35.7331 37.6135C35.6531 37.5601 35.5731 37.5068 35.5198 37.4268C35.4665 37.4001 35.4398 37.3735 35.4398 37.3201C35.3598 37.2401 35.3065 37.1335 35.2532 37.0268C35.2532 37.0001 35.2532 37.0001 35.2532 36.9735C35.1732 36.8401 35.1465 36.6801 35.1465 36.5201C35.1465 36.4935 35.1465 36.4935 35.1465 36.4668L35.3332 28.0668C35.3598 27.3468 36.0265 26.7601 36.7198 26.7601C37.4398 26.7868 38.0265 27.4001 37.9998 28.1468L37.8665 33.9868C40.9598 31.5068 42.6665 27.6935 42.3198 23.7468C41.7332 17.5068 36.1065 14.5201 35.8665 14.3868C35.1998 14.0401 34.9598 13.2401 35.3065 12.6001C35.6265 11.9335 36.4531 11.6935 37.0931 12.0135C37.8398 12.4135 44.2665 15.9601 44.9598 23.5068C45.3598 27.8801 43.6798 32.1468 40.5331 35.1868H44.9598C45.7065 35.1868 46.2932 35.7735 46.2932 36.5201Z" fill="black"/>
<path d="M35.7329 36.6134C35.6529 36.5601 35.5729 36.5068 35.5195 36.4534V36.4268C35.5729 36.5068 35.6529 36.5601 35.7329 36.6134Z" fill="black"/>
<path d="M15.3345 10.9869C15.1745 10.9069 14.9878 10.8802 14.8278 10.8802H14.5078C14.7745 10.8269 15.0945 10.8536 15.3345 10.9869Z" fill="black"/>
<path d="M16.0538 11.6803C16.0004 11.5203 15.8938 11.3869 15.7871 11.2803C15.8671 11.3603 15.9471 11.4669 16.0004 11.5736C16.0271 11.6003 16.0271 11.6536 16.0538 11.6803Z" fill="black"/>
<path d="M13.2803 21.5865L13.4403 15.7199C10.347 18.1999 8.64034 22.0132 8.987 25.9599C9.57367 32.1732 15.2003 35.2132 15.4403 35.3199C16.107 35.6665 16.347 36.4665 16.0003 37.1332C15.7603 37.5865 15.307 37.8532 14.827 37.8532C14.6137 37.8532 14.4003 37.7999 14.2137 37.6932C13.467 37.2932 7.04034 33.7199 6.34701 26.1999C5.94701 21.8265 7.60034 17.5865 10.7203 14.5465H6.34701C5.60034 14.5465 5.01367 13.9332 5.01367 13.2132C5.01367 12.4665 5.60034 11.8799 6.34701 11.8799H14.827C14.987 11.8799 15.1737 11.9065 15.3337 11.9865C15.4937 12.0399 15.6537 12.1465 15.787 12.2799C15.8937 12.3865 16.0003 12.5199 16.0537 12.6799C16.0537 12.7065 16.0537 12.7065 16.0537 12.7332C16.1337 12.8665 16.1603 13.0266 16.1603 13.1866C16.1603 13.2132 16.1603 13.2132 16.1603 13.2399L15.947 21.6399C15.947 22.3599 15.3603 22.9465 14.6137 22.9465C14.6137 22.9465 14.6137 22.9465 14.587 22.9465C13.867 22.9199 13.2803 22.3065 13.2803 21.5865Z" fill="black"/>
<path d="M25.7064 20.8804C22.7731 20.8804 19.9464 19.3604 18.3998 16.7204C16.3731 13.2538 17.0664 8.82709 20.0531 6.13376C23.0664 3.44042 27.5998 3.28042 30.8264 5.73376C31.1198 5.94709 31.1731 6.37376 30.9598 6.66709C30.7464 6.96042 30.3198 7.01376 30.0264 6.80042C27.3064 4.72042 23.4931 4.88042 20.9598 7.14709C18.4264 9.38709 17.8398 13.1471 19.5464 16.0538C21.3064 19.0671 25.0931 20.3471 28.3198 19.0404C31.6798 17.6804 33.4931 14.0004 32.5331 10.4804C32.4264 10.1338 32.6398 9.76042 33.0131 9.65376C33.3598 9.54709 33.7331 9.76042 33.8398 10.1338C34.9864 14.3204 32.8264 18.6671 28.8531 20.2938C27.8131 20.6938 26.7464 20.8804 25.7064 20.8804Z" fill="black"/>
<path d="M25.6539 27.707C21.3339 27.707 17.8672 31.2004 17.8672 35.4937C17.8672 39.787 21.3339 43.2804 25.6539 43.2804C29.9739 43.2804 33.4405 39.787 33.4405 35.4937C33.4405 31.2004 29.9472 27.707 25.6539 27.707Z" fill="#F7DC86"/>
<path d="M25.7064 43.9742C22.7731 43.9742 19.9464 42.4542 18.3998 39.8142C16.3731 36.3475 17.0664 31.9208 20.0531 29.2275C23.0664 26.5342 27.5998 26.3742 30.8264 28.8275C31.1198 29.0408 31.1731 29.4675 30.9598 29.7608C30.7464 30.0542 30.3198 30.1075 30.0264 29.8942C27.3064 27.8142 23.4931 27.9742 20.9598 30.2408C18.4264 32.4808 17.8398 36.2408 19.5464 39.1475C21.3064 42.1608 25.0931 43.4408 28.3464 42.1342C31.7064 40.7742 33.5198 37.0942 32.5598 33.5742C32.4531 33.2275 32.6664 32.8542 33.0398 32.7475C33.3864 32.6408 33.7598 32.8542 33.8664 33.2275C35.0131 37.4142 32.8531 41.7608 28.8798 43.3608C27.8131 43.7608 26.7464 43.9742 25.7064 43.9742Z" fill="black"/>
<path d="M25.4405 10.9605C25.5738 11.0939 25.8138 11.0939 25.9471 10.9605L28.4805 8.45385C28.8005 8.16052 29.3071 8.16052 29.6271 8.45385C29.9472 8.74719 30.0005 9.25385 29.7338 9.62719L27.1738 12.1872C27.0405 12.3205 27.0405 12.5605 27.1738 12.6939L29.6805 15.2005C29.9738 15.5472 29.9738 16.0539 29.6805 16.3739C29.3605 16.7205 28.8272 16.7472 28.4538 16.4539L25.9471 13.9205C25.8138 13.7872 25.5738 13.7872 25.4405 13.9205L22.9072 16.4539C22.5338 16.7739 21.9738 16.7205 21.6805 16.3739C21.3872 16.0539 21.3872 15.5739 21.6538 15.2272L24.2138 12.6672C24.3472 12.5339 24.3472 12.2939 24.2138 12.1605L21.7072 9.70719C21.3872 9.33385 21.4138 8.80052 21.7338 8.48052C22.0538 8.16052 22.5605 8.16052 22.9072 8.42719L25.4405 10.9605Z" fill="#E55C5C"/>
<path d="M22.3205 17.0136C22.0005 17.0136 21.6538 16.8802 21.4405 16.6402C21.0405 16.1869 21.0138 15.5202 21.3872 15.0402L23.9738 12.4536L21.4672 9.92022C21.0138 9.44022 21.0405 8.69355 21.4938 8.24022C21.9472 7.81355 22.6405 7.78689 23.1205 8.18689L25.6805 10.7202H25.7072L28.2405 8.21355C28.7205 7.78689 29.3872 7.78689 29.8672 8.21355C30.3205 8.61355 30.4005 9.33356 30.0272 9.84022L27.4405 12.4536L29.9472 15.0136C30.3738 15.4936 30.3738 16.1869 29.9738 16.6402C29.5472 17.1202 28.8005 17.1736 28.2938 16.7469L25.7072 14.1602L23.1472 16.6936C22.9072 16.9069 22.6138 17.0136 22.3205 17.0136ZM22.3472 8.56022C22.2138 8.56022 22.0805 8.61355 21.9738 8.72022C21.7605 8.90689 21.7605 9.25355 21.9472 9.46689L24.4538 11.9469C24.5872 12.0802 24.6672 12.2402 24.6672 12.4269C24.6672 12.6136 24.5872 12.7736 24.4538 12.9069L21.8938 15.4669C21.7338 15.6536 21.7338 15.9736 21.9205 16.1602C22.1072 16.3736 22.4538 16.4002 22.6938 16.1869L25.2005 13.6802C25.4672 13.4136 25.9205 13.4136 26.1872 13.6802L28.7205 16.2136C28.9338 16.3736 29.2805 16.3469 29.4672 16.1336C29.6538 15.9202 29.6538 15.6002 29.4672 15.4136L26.9338 12.9336C26.6672 12.6669 26.6672 12.2136 26.9338 11.9469L29.4938 9.38689C29.6272 9.20022 29.6005 8.88022 29.3872 8.69355C29.1738 8.50689 28.8805 8.50689 28.6672 8.69355L26.1872 11.2002C25.9205 11.4669 25.4672 11.4669 25.2005 11.2002L22.6672 8.66689C22.5872 8.61355 22.4805 8.56022 22.3472 8.56022Z" fill="black"/>
<path d="M31.1988 36.5063C31.1188 38.1063 29.8388 39.413 28.2121 39.5463H21.6521C21.1721 39.5463 20.7988 39.1463 20.7988 38.6663C20.7988 38.1863 21.1721 37.7863 21.6521 37.7863H28.1321C28.8255 37.733 29.4121 37.1463 29.4388 36.4263C29.4921 35.653 28.8788 34.9596 28.0521 34.8796H23.0921L23.3055 35.093C23.6521 35.4396 23.6521 35.9996 23.3055 36.3463C23.1455 36.5063 22.9321 36.5863 22.6921 36.5863C22.4788 36.5863 22.2388 36.5063 22.0788 36.3463L20.3455 34.613C20.1855 34.453 20.1055 34.213 20.1055 33.9996C20.1055 33.7596 20.1855 33.5463 20.3455 33.3863L22.0255 31.7063C22.3721 31.3596 22.9055 31.3596 23.2521 31.7063C23.5988 32.053 23.5988 32.613 23.2521 32.933L23.0655 33.1196H28.1321C29.9455 33.2796 31.2788 34.7996 31.1988 36.5063Z" fill="#EAA136"/>
<path d="M21.6531 39.8934C20.9864 39.8934 20.4798 39.3601 20.4798 38.6667C20.4798 37.9734 21.0131 37.4401 21.6531 37.4401H28.1331C28.6398 37.3867 29.0931 36.9334 29.1198 36.4001C29.1731 35.7867 28.6664 35.2534 28.0264 35.2001H23.7864C23.9998 35.6534 23.9198 36.2134 23.5464 36.5601C23.1198 36.9867 22.2931 36.9867 21.8398 36.5601L20.1064 34.8267C19.8931 34.6134 19.7598 34.2934 19.7598 33.9734C19.7598 33.6534 19.8664 33.3334 20.1064 33.1201L21.7864 31.4401C22.2664 30.9601 23.0131 30.9601 23.4931 31.4401C23.7331 31.6801 23.8664 32.0001 23.8398 32.3201C23.8398 32.4801 23.8131 32.6134 23.7598 32.7467H28.1331C30.1331 32.9334 31.6264 34.5601 31.5464 36.4801C31.4664 38.2401 30.0531 39.7067 28.2398 39.8401H21.6531V39.8934ZM22.2664 34.5601H28.0264C29.0664 34.6667 29.8131 35.5201 29.7331 36.4534C29.7064 37.3067 28.9864 38.0534 28.1064 38.1334H21.6531C21.3598 38.1334 21.1464 38.3734 21.1464 38.6934C21.1464 39.0134 21.3864 39.2534 21.6531 39.2534H28.2131C29.6531 39.1467 30.7998 37.9734 30.8798 36.5334C30.9598 34.9601 29.7331 33.6267 28.1064 33.4934H22.2664L23.0131 32.7467C23.1198 32.6401 23.1731 32.5334 23.1731 32.4001C23.1731 32.2667 23.1198 32.1067 23.0131 32.0001C22.7998 31.7867 22.4531 31.7867 22.2664 32.0001L20.5864 33.6801C20.4798 33.7867 20.4531 33.8934 20.4531 34.0534C20.4531 34.1867 20.5064 34.3467 20.5864 34.4267L22.3198 36.1601C22.5064 36.3467 22.9064 36.3467 23.0664 36.1601C23.1731 36.0534 23.2264 35.9201 23.2264 35.7601C23.2264 35.6001 23.1731 35.4667 23.0664 35.3601L22.2664 34.5601Z" fill="black"/>
</svg>
