<svg width="23" height="20" viewBox="0 0 23 20" fill="none" xmlns="http://www.w3.org/2000/svg">
<path d="M16.1392 19.001C19.2989 19.001 21.8604 16.4396 21.8604 13.2798C21.8604 10.1201 19.2989 7.55859 16.1392 7.55859C12.9794 7.55859 10.418 10.1201 10.418 13.2798C10.418 16.4396 12.9794 19.001 16.1392 19.001Z" stroke="#CB1B5B" stroke-miterlimit="10" stroke-linecap="round"/>
<path d="M10.5475 14.5189C6.5244 14.5973 3.57235 14.5842 2.90619 14.5189C2.35758 14.4536 2.10939 14.2185 2.04408 14.1662C1.82203 13.9442 1.69141 13.6437 1.69141 13.3041V4.42188H15.5765C15.5765 5.47991 15.5765 6.53794 15.5765 7.59597C15.2368 7.63516 13.0032 7.88334 11.5141 9.89491C10.012 11.9457 10.4822 14.1924 10.5475 14.5189Z" stroke="#CB1B5B" stroke-miterlimit="10" stroke-linecap="round"/>
<path d="M16.2696 4.42228H1V1.5878C1 1.26124 1.26124 1 1.5878 1H15.6688C15.9953 1 16.2566 1.26124 16.2566 1.5878V4.42228H16.2696Z" stroke="#CB1B5B" stroke-miterlimit="10" stroke-linecap="round"/>
<path d="M18.6317 10.666C16.9598 12.338 15.3009 13.9969 13.6289 15.6688" stroke="#CB1B5B" stroke-miterlimit="10" stroke-linecap="round"/>
<path d="M18.6434 15.6688C16.9715 13.9969 15.3126 12.338 13.6406 10.666" stroke="#CB1B5B" stroke-miterlimit="10" stroke-linecap="round"/>
</svg>
