<svg width="11" height="19" viewBox="0 0 11 19" fill="none" xmlns="http://www.w3.org/2000/svg">
<path fill-rule="evenodd" clip-rule="evenodd" d="M8.17338 3.49619C8.72551 3.47347 9.28891 3.49619 9.84105 3.49619C9.90866 3.49619 9.97626 3.49619 10.0664 3.49619V0.576104C9.77344 0.542017 9.45793 0.50793 9.14243 0.485206C8.56776 0.462481 7.99309 0.428395 7.42969 0.439757C6.55078 0.462481 5.72822 0.678364 5.00706 1.18966C4.1845 1.79186 3.72251 2.63267 3.55349 3.63254C3.48588 4.04158 3.46334 4.47335 3.45207 4.88239C3.44081 5.54139 3.45207 6.18904 3.45207 6.84805V7.09802H0.691406V10.359H3.45207V18.5625H6.82121V10.3703H9.57061C9.7171 9.27957 9.85231 8.21152 9.9988 7.08666C9.77344 7.08666 9.58188 7.08666 9.37906 7.08666C8.60156 7.08666 6.79868 7.08666 6.79868 7.08666C6.79868 7.08666 6.80995 5.47322 6.82121 4.76876C6.84375 3.81434 7.41842 3.53028 8.17338 3.49619Z" fill="white"/>
</svg>
