<svg width="50" height="40" viewBox="0 0 50 40" fill="none" xmlns="http://www.w3.org/2000/svg">
<path d="M45.8292 20.4251L42.7959 18.9092L40.6221 12.3867C39.9923 10.499 38.2333 9.23077 36.2441 9.23077H31.581L31.979 5.05333C32.1036 3.76205 31.6738 2.47128 30.801 1.51128C29.9277 0.550769 28.6826 0 27.3856 0H4.61538C3.76513 0 3.07692 0.688718 3.07692 1.53846C3.07692 2.38821 3.76513 3.07692 4.61538 3.07692H27.3856C27.8241 3.07692 28.2287 3.2559 28.5231 3.58C28.819 3.90513 28.9574 4.32359 28.9169 4.76103L26.2933 32.3077H19.9492C19.7923 31.2867 19.3928 30.338 18.7138 29.5569C17.6697 28.3544 16.1703 27.6923 14.4954 27.6923C11.6164 27.6923 9.01128 29.6374 8.04667 32.3077H1.53846C0.688205 32.3077 0 32.9964 0 33.8462C0 34.6959 0.688205 35.3846 1.53846 35.3846H7.74308C7.9 36.4056 8.29949 37.3544 8.97846 38.1354C10.0226 39.338 11.5221 40 13.1969 40C16.0759 40 18.681 38.0549 19.6456 35.3846H30.82C30.9769 36.4056 31.3764 37.3544 32.0554 38.1354C33.0995 39.338 34.599 40 36.2738 40C39.1528 40 41.758 38.0549 42.7226 35.3846H46.1538C46.8872 35.3846 47.518 34.8672 47.6621 34.1482L49.2005 26.4559C49.22 26.3559 49.2308 26.2554 49.2308 26.1538V25.9292C49.2308 23.5831 47.9267 21.4744 45.8292 20.4251ZM16.9379 33.6323C16.6872 35.4164 14.9744 36.9231 13.1969 36.9231C12.4246 36.9231 11.7518 36.6369 11.2995 36.1169C10.8369 35.5841 10.6431 34.8533 10.7544 34.06C11.0051 32.2759 12.7179 30.7692 14.4954 30.7692C15.2677 30.7692 15.9405 31.0554 16.3928 31.5754C16.8554 32.1077 17.0492 32.839 16.9379 33.6323ZM36.2441 12.3077C36.9067 12.3077 37.4944 12.7308 37.7046 13.36L39.4046 18.4615H30.7021L31.2882 12.3077H36.2441ZM40.0149 33.6323C39.7641 35.4164 38.0513 36.9231 36.2738 36.9231C35.5015 36.9231 34.8287 36.6369 34.3764 36.1169C33.9138 35.5841 33.72 34.8533 33.8313 34.06C34.0821 32.2759 35.7949 30.7692 37.5723 30.7692C38.3446 30.7692 39.0174 31.0554 39.4697 31.5754C39.9323 32.1077 40.1262 32.839 40.0149 33.6323ZM44.8933 32.3077H43.0262C42.8692 31.2867 42.4697 30.338 41.7908 29.5569C40.7467 28.3544 39.2472 27.6923 37.5723 27.6923C34.6933 27.6923 32.0882 29.6374 31.1236 32.3077H29.3836L30.4092 21.5385H41.1749L44.4533 23.1774C45.5021 23.7021 46.1538 24.7564 46.1538 25.9292L44.8933 32.3077ZM13.8462 10.7692H1.53846C0.688205 10.7692 0 10.0805 0 9.23077C0 8.38103 0.688205 7.69231 1.53846 7.69231H13.8462C14.6964 7.69231 15.3846 8.38103 15.3846 9.23077C15.3846 10.0805 14.6964 10.7692 13.8462 10.7692ZM10.7692 26.1538H1.53846C0.688205 26.1538 0 25.4651 0 24.6154C0 23.7656 0.688205 23.0769 1.53846 23.0769H10.7692C11.6195 23.0769 12.3077 23.7656 12.3077 24.6154C12.3077 25.4651 11.6195 26.1538 10.7692 26.1538ZM7.69231 18.4615H4.61538C3.76513 18.4615 3.07692 17.7728 3.07692 16.9231C3.07692 16.0733 3.76513 15.3846 4.61538 15.3846H7.69231C8.54256 15.3846 9.23077 16.0733 9.23077 16.9231C9.23077 17.7728 8.54256 18.4615 7.69231 18.4615ZM20 18.4615H13.8462C12.9959 18.4615 12.3077 17.7728 12.3077 16.9231C12.3077 16.0733 12.9959 15.3846 13.8462 15.3846H20C20.8503 15.3846 21.5385 16.0733 21.5385 16.9231C21.5385 17.7728 20.8503 18.4615 20 18.4615Z" fill="#CB1B5B"/>
</svg>
