<svg width="61" height="61" viewBox="0 0 61 61" fill="none" xmlns="http://www.w3.org/2000/svg">
<path d="M60.4605 31.8998C59.5605 33.8998 57.8606 35.3999 56.5606 36.9999C54.2606 39.7999 51.9605 42.4999 49.6605 45.2999C47.5605 47.8999 44.7605 49.0999 41.4605 49.0999C36.3605 49.0999 31.3605 49.1999 26.2605 49.0999C24.5605 49.0999 23.4605 50.0999 22.3605 51.1999C22.2605 51.2999 22.2605 51.4999 22.2605 51.5999C22.5605 52.9999 22.1605 54.0999 21.1605 55.0999C19.3605 56.7999 17.6605 58.5999 15.8605 60.2999C15.1605 60.9999 14.5605 60.9999 13.7605 60.2999C9.46053 55.9999 5.26055 51.6998 0.960547 47.3998C0.260547 46.6998 0.260547 46.0998 0.960547 45.3998C2.76055 43.5998 4.46054 41.8999 6.26053 40.0999C7.06053 39.2999 8.06054 38.8998 9.16054 38.8998C9.36054 38.8998 9.66054 38.7999 9.66054 38.5999C13.5605 31.7999 22.0605 30.0999 28.1605 32.4999C28.4605 32.5999 28.7605 32.6999 29.1605 32.6999C33.1605 32.6999 37.1605 32.6999 41.1605 32.6999C42.7605 32.6999 44.1605 33.0999 45.4605 34.5999C45.5605 34.3999 45.5605 34.1999 45.7605 33.9999C47.9605 31.7999 50.1605 29.4999 52.2605 27.2999C54.8605 24.5999 58.8605 25.3998 60.2605 28.8998C60.2605 28.9998 60.3605 28.9999 60.3605 28.9999C60.4605 30.0999 60.4605 30.9998 60.4605 31.8998ZM20.8605 49.3998C20.9605 49.2998 21.0605 49.1999 21.2605 49.0999C22.7605 47.4999 24.5605 46.7998 26.7605 46.8998C31.5605 46.9998 36.4605 46.8998 41.2605 46.8998C43.5605 46.8998 45.7605 46.2999 47.2605 44.4999C50.7605 40.3999 54.2605 36.1999 57.7605 31.9999C58.5605 30.9999 58.4606 29.5999 57.5606 28.6999C56.6606 27.8999 55.2605 27.8998 54.2605 28.8998C51.7605 31.4998 49.2605 33.9999 46.7605 36.5999C46.6605 36.6999 46.5606 36.9999 46.5606 37.0999C46.5606 40.1999 44.5606 42.0999 41.5606 42.1999C38.6606 42.1999 35.6605 42.1999 32.7605 42.1999C32.4605 42.1999 32.2605 42.1999 31.9605 42.0999C31.4605 41.9999 31.1605 41.4998 31.1605 40.8998C31.1605 40.3998 31.5606 39.8999 32.0606 39.7999C32.2606 39.7999 32.5605 39.7999 32.8605 39.7999C35.7605 39.7999 38.6606 39.7999 41.5606 39.7999C41.8606 39.7999 42.1605 39.7999 42.4605 39.6999C43.6605 39.4999 44.4605 38.2999 44.2605 36.9999C44.0605 35.6999 43.0605 34.9999 41.6605 34.9999C37.4605 34.9999 33.2605 34.9999 29.1605 34.9999C28.7605 34.9999 28.2605 34.8999 27.9605 34.7999C24.3605 33.3999 20.7605 33.4999 17.2605 35.0999C14.9605 36.0999 13.1605 37.8999 12.0605 40.0999C14.7605 43.2999 17.8605 46.3998 20.8605 49.3998ZM15.1605 58.1999C16.5605 56.6999 18.0605 55.1999 19.5605 53.5999C20.2605 52.7999 20.2605 52.2999 19.5605 51.4999C16.3605 48.2999 13.1605 45.0998 9.96055 41.8998C9.26055 41.1998 8.66054 41.1998 7.86054 41.8998C6.46054 43.2998 5.06054 44.6999 3.66054 46.0999C3.56054 46.1999 3.46053 46.2999 3.26053 46.4999C7.26053 50.3999 11.0605 54.1999 15.1605 58.1999Z" fill="white"/>
<path d="M36.6613 0.899902C37.3613 0.999902 38.1614 1.1999 38.8614 1.3999C44.8614 2.9999 48.6614 8.39992 48.3614 14.6999C48.0614 20.4999 43.5613 25.4999 37.6613 26.5999C30.4613 27.8999 23.5614 22.7999 22.6614 15.4999C21.7614 8.39991 26.7614 1.89991 33.8614 0.999908C33.9614 0.999908 34.1613 0.899902 34.2613 0.899902C35.1613 0.899902 35.8613 0.899902 36.6613 0.899902ZM35.4614 24.3999C41.2614 24.3999 46.0614 19.6999 46.0614 13.8999C46.0614 8.0999 41.3614 3.29993 35.5614 3.29993C29.6614 3.29993 24.9614 7.99993 24.9614 13.7999C24.9614 19.5999 29.6614 24.2999 35.4614 24.3999Z" fill="white"/>
<path d="M28.4605 40.8999C28.4605 41.4999 27.9605 41.9999 27.2605 41.9999C26.6605 41.9999 26.0605 41.4 26.0605 40.8C26.0605 40.2 26.6605 39.5999 27.2605 39.6999C28.0605 39.6999 28.4605 40.1999 28.4605 40.8999Z" fill="white"/>
</svg>
