<svg width="32" height="32" viewBox="0 0 32 32" fill="none" xmlns="http://www.w3.org/2000/svg">
<path d="M11.9945 18.5643C14.097 18.5643 15.8015 16.8212 15.8015 14.6708C15.8015 12.5205 14.097 10.7773 11.9945 10.7773C9.89194 10.7773 8.1875 12.5205 8.1875 14.6708C8.1875 16.8212 9.89194 18.5643 11.9945 18.5643Z" stroke="#98969D" stroke-miterlimit="10"/>
<path d="M17.854 20.661C17.4148 20.8107 16.6827 21.26 15.9505 22.0087C15.072 23.057 14.9256 24.4047 14.7792 24.854H5.84741C5.55456 24.854 5.26172 24.5545 5.26172 24.255V23.3565C5.26172 20.661 7.31163 18.5645 9.94723 18.5645H13.9006C15.6577 18.5645 16.9755 19.463 17.854 20.661Z" stroke="#98969D" stroke-miterlimit="10"/>
<path d="M21.3656 20.5097C23.4681 20.5097 25.1726 18.7665 25.1726 16.6162C25.1726 14.4658 23.4681 12.7227 21.3656 12.7227C19.263 12.7227 17.5586 14.4658 17.5586 16.6162C17.5586 18.7665 19.263 20.5097 21.3656 20.5097Z" stroke="#98969D" stroke-miterlimit="10"/>
<path d="M27.3697 26.6508H15.5095C15.0702 26.6508 14.7773 26.3513 14.7773 25.9021V25.1533C14.7773 22.4578 16.8273 20.3613 19.4629 20.3613H23.4163C26.0519 20.3613 28.1018 22.4578 28.1018 25.1533V25.9021C28.1018 26.3513 27.6625 26.6508 27.3697 26.6508Z" stroke="#98969D" stroke-miterlimit="10"/>
<path d="M25.4665 3.28977V9.27977C25.4665 9.72902 25.1737 10.0285 24.7344 10.0285H19.7561L17.8526 11.6758C17.7062 11.8255 17.5597 11.6758 17.5597 11.526V10.0285H16.3884C15.9491 10.0285 15.6562 9.72902 15.6562 9.27977V3.28977C15.6562 2.84052 15.9491 2.54102 16.3884 2.54102H24.7344C25.1737 2.54102 25.4665 2.84052 25.4665 3.28977Z" stroke="#98969D" stroke-miterlimit="10" stroke-linejoin="round"/>
<path d="M17.5586 4.93555C19.1692 4.93555 20.7799 4.93555 22.537 4.93555" stroke="#98969D" stroke-miterlimit="10" stroke-linecap="round" stroke-linejoin="round"/>
<path d="M17.5586 7.33203C18.5835 7.33203 19.4621 7.33203 20.487 7.33203" stroke="#98969D" stroke-miterlimit="10" stroke-linecap="round" stroke-linejoin="round"/>
</svg>
