<svg width="229" height="64" viewBox="0 0 229 64" fill="none" xmlns="http://www.w3.org/2000/svg">
<path d="M74.6664 17.1156V27.5954H61.3519V17.1156H56.5781V42.5298H61.3519V31.6334H74.6664V42.5298H79.4726V17.1156H74.6664ZM104.381 32.9474C104.381 26.8903 100.191 22.9163 94.4758 22.9163C88.6304 22.9163 84.3113 27.0505 84.3113 32.8512C84.3113 38.6199 88.5654 42.7861 95.1578 42.7861C98.5351 42.7861 101.295 41.6965 103.082 39.6134L100.613 36.8252C99.2171 38.2353 97.4634 38.9404 95.2877 38.9404C91.8454 38.9404 89.4747 37.1136 88.9227 34.2934H104.316C104.348 33.8447 104.381 33.2999 104.381 32.9474ZM94.4758 26.5698C97.4634 26.5698 99.6392 28.4927 100.029 31.2809H88.8577C89.3124 28.4286 91.4881 26.5698 94.4758 26.5698ZM115.747 22.9163C112.597 22.9163 109.544 23.7175 107.433 25.3199L109.252 28.6209C110.713 27.4351 112.986 26.698 115.194 26.698C118.474 26.698 120.098 28.2684 120.098 30.9284V31.2168H115.032C109.057 31.2168 106.849 33.7486 106.849 36.9854C106.849 40.3505 109.674 42.7861 114.188 42.7861C117.11 42.7861 119.254 41.8247 120.358 40.1582V42.5298H124.709V31.1527C124.709 25.5763 121.43 22.9163 115.747 22.9163ZM115.13 39.4852C112.791 39.4852 111.395 38.4276 111.395 36.7932C111.395 35.383 112.239 34.2293 115.357 34.2293H120.098V36.4727C119.319 38.4597 117.37 39.4852 115.13 39.4852ZM130.587 42.5298H135.166V15.6094H130.587V42.5298ZM152.67 38.2353C151.988 38.7801 151.046 39.0365 150.105 39.0365C148.351 39.0365 147.377 38.011 147.377 36.1522V26.9223H152.638V23.3009H147.377V18.8783H142.798V23.3009H139.55V26.9223H142.798V36.2483C142.798 40.5428 145.266 42.7861 149.552 42.7861C151.209 42.7861 152.865 42.3375 153.969 41.4722L152.67 38.2353ZM168.907 22.9163C166.179 22.9163 163.874 23.8137 162.347 25.384V15.6094H157.768V42.5298H162.347V32.723C162.347 28.8452 164.556 26.8903 167.836 26.8903C170.758 26.8903 172.512 28.5568 172.512 31.9859V42.5298H177.091V31.4091C177.091 25.5763 173.616 22.9163 168.907 22.9163ZM191.38 42.8823C198.426 42.8823 201.771 39.4211 201.771 35.3189C201.771 26.025 186.508 29.5503 186.508 24.1342C186.508 22.2113 188.132 20.673 192.094 20.673C194.335 20.673 196.9 21.346 199.206 22.66L200.7 19.0065C198.459 17.5643 195.244 16.7631 192.126 16.7631C185.079 16.7631 181.767 20.2563 181.767 24.3585C181.767 33.7806 197.063 30.1912 197.063 35.6715C197.063 37.5623 195.374 38.9724 191.38 38.9724C188.197 38.9724 184.917 37.8187 182.871 36.1842L181.215 39.8377C183.358 41.6645 187.353 42.8823 191.38 42.8823ZM219.697 23.1407L213.462 37.4662L207.292 23.1407H202.518L211.092 42.5939L210.734 43.363C209.857 45.2859 208.916 46.055 207.292 46.055C206.058 46.055 204.791 45.5423 203.915 44.709L202.064 48.042C203.33 49.1637 205.376 49.8367 207.324 49.8367C210.604 49.8367 213.105 48.4907 214.891 44.1001L224.114 23.1407H219.697Z" fill="white"/>
<path d="M46.0921 26.1516C45.7348 25.7991 45.4101 25.4786 45.0854 25.2543C44.7606 24.9979 44.4359 24.7736 44.0787 24.6133C43.7539 24.4531 43.3967 24.2928 42.9745 24.1967C42.7472 24.1326 42.5199 24.1326 42.325 24.0685C42.0652 24.0044 41.8379 23.9724 41.5781 23.9083L41.5456 23.8762C41.4158 23.8442 41.3508 23.716 41.3833 23.5878C41.3833 23.5237 41.4482 23.4596 41.4807 23.4275C41.708 23.2993 41.9678 23.1712 42.2276 23.075C42.4874 23.0109 42.7472 22.9148 43.0395 22.9148C43.624 22.8507 44.241 22.9789 44.7606 23.2353C45.3127 23.4596 45.7998 23.9083 46.0921 24.389C46.4168 24.8697 46.5792 25.4145 46.5467 26.0234C46.5467 26.1516 46.4168 26.2478 46.2869 26.2478C46.222 26.2478 46.157 26.2157 46.1245 26.1837L46.0921 26.1516Z" fill="white"/>
<path fill-rule="evenodd" clip-rule="evenodd" d="M34.6901 9.06956C32.5792 9.1657 30.9555 10.9604 31.0854 13.0115L32.6767 43.2328C32.8066 45.2839 34.5926 46.8863 36.7035 46.7901C38.7818 46.694 40.4056 44.8993 40.3081 42.8162L38.7169 12.6269C38.587 10.5758 36.8009 8.94137 34.6901 9.06956Z" fill="white"/>
<path fill-rule="evenodd" clip-rule="evenodd" d="M15.8257 18.1682C13.7149 18.072 11.8963 19.6744 11.7989 21.7576L10.6948 42.8452C10.5649 44.8963 12.1886 46.691 14.2994 46.7871C16.3778 46.9153 18.1964 45.3129 18.2938 43.2298L19.4304 22.1421C19.5278 20.059 17.9041 18.2964 15.8257 18.1682Z" fill="white"/>
<path d="M32.0938 32.0781C33.4902 31.5012 34.8866 30.8282 36.1855 30.0591C37.3546 29.354 38.4587 28.5528 39.4979 27.6875L39.7252 31.7897C39.3031 32.2063 38.8484 32.6229 38.3938 33.0075C36.5752 34.5137 34.5293 35.7316 32.3211 36.5969L32.0938 32.0781Z" fill="white"/>
<path d="M11.2808 31.7578C12.6122 32.3347 14.0086 32.8154 15.405 33.1679C16.5416 33.4564 17.6782 33.6486 18.8149 33.7768L18.5875 37.9431C17.0937 37.6547 15.5999 37.206 14.2035 36.6291C13.1318 36.1804 12.0926 35.6356 11.0859 35.0267L11.2808 31.7578Z" fill="white"/>
<path d="M5.36751 29.5465C8.48506 31.9822 11.8949 33.5846 15.4021 34.4499C18.9418 35.3472 22.579 35.4754 26.1187 34.9626C29.6584 34.4178 33.1007 33.232 36.1858 31.3412C39.3033 29.4824 42.0312 26.9506 44.3044 23.7137C44.4018 23.5856 44.5642 23.5535 44.6941 23.6497C44.7915 23.7137 44.8564 23.8419 44.824 23.9381C44.077 27.912 41.609 31.5976 38.394 34.2896C35.1141 37.0137 31.0223 38.7763 26.8006 39.4173C22.579 40.0583 18.13 39.5775 14.2006 37.9431C10.3036 36.3086 6.86134 33.4884 4.94535 29.9311C4.84792 29.7708 4.91287 29.6106 5.04277 29.5145C5.17267 29.4824 5.27009 29.4824 5.36751 29.5465Z" fill="white"/>
</svg>
