<svg width="48" height="48" viewBox="0 0 48 48" fill="none" xmlns="http://www.w3.org/2000/svg">
<path d="M24.0345 0.552518C24.0345 0.828777 24.3108 0.552518 24.587 0.552518C25.6921 0.828777 26.7971 1.3813 27.3496 2.48633C28.4547 3.86763 29.2835 4.14388 30.941 3.59137C33.9799 1.93381 37.295 4.14388 37.8475 7.45899C37.8475 7.73525 37.8475 8.01151 37.8475 8.28777C38.1237 9.11655 38.6763 9.94532 39.505 9.94532C40.3338 9.94532 40.8863 10.2216 41.4389 10.4978C43.9252 11.6029 45.0302 14.3655 44.2014 16.5755C44.2014 16.8518 43.9252 17.1281 43.9252 17.6806C43.6489 18.5094 43.9252 19.3381 44.4777 19.8906C44.754 20.1669 45.0302 20.1669 45.3065 20.4432C47.7928 22.377 47.7928 26.2446 45.3065 28.1784C45.0302 28.4547 44.754 28.4547 44.754 28.7309C43.9252 29.2835 43.6489 30.3885 44.2014 31.2173C44.4777 31.7698 44.754 32.5986 44.754 33.1511C45.0302 35.9137 43.0964 38.4 40.6101 38.6763C40.3338 38.6763 40.0576 38.6763 39.7813 38.6763C38.9525 38.6763 38.1237 39.505 38.1237 40.3338C38.1237 40.8863 38.1237 41.4388 37.8475 41.9914C37.0187 44.4777 33.9799 45.859 31.4935 45.0302C31.2173 45.0302 30.941 44.754 30.3885 44.754C29.5597 44.4777 28.7309 44.754 28.1784 45.3065C27.9022 45.5827 27.9022 45.859 27.6259 46.1353C25.6921 48.6216 21.8245 48.6216 19.8906 46.1353C19.6144 45.859 19.6144 45.5827 19.3381 45.5827C18.7856 44.754 17.6806 44.4777 16.8518 45.0302C16.2993 45.3065 15.7468 45.5827 14.918 45.5827C12.1554 45.859 9.66907 43.9252 9.39281 41.4389C9.39281 41.1626 9.39281 40.8863 9.39281 40.6101C9.39281 39.7813 8.56403 38.9525 7.73525 38.9525C7.18273 38.9525 6.63022 38.9525 6.0777 38.6763C3.59137 37.8475 2.21007 34.8086 3.03885 32.3223C3.03885 32.046 3.31511 31.7698 3.31511 31.4935C3.59137 30.6647 3.31511 29.836 2.76259 29.0072C2.48633 28.7309 2.21007 28.7309 2.21007 28.4547C1.38129 27.6259 0.552518 26.7971 0.276259 25.6921C0.276259 25.6921 0.276259 25.4158 0 25.4158C0 24.8633 0 24.3108 0 23.7583C0.276259 23.7583 0 23.482 0 23.482C0.276259 22.377 0.828777 21.5482 1.93381 20.7194C2.21007 20.7194 2.21007 20.4432 2.48633 20.4432C3.31511 19.8906 3.59137 18.7856 3.03885 17.9568C3.03885 17.6806 2.76259 17.4043 2.76259 17.1281C1.65755 14.3655 3.31511 11.3266 6.0777 10.7741C6.63022 10.7741 7.18273 10.4978 7.45899 10.4978C8.28777 10.4978 9.11655 9.66906 9.11655 8.84029C9.11655 8.56403 9.11655 8.28777 9.11655 8.01151C9.39281 5.52518 10.4978 4.14389 12.4317 3.31511C13.813 2.76259 14.918 2.76259 16.2993 3.31511C16.8518 3.59137 17.1281 3.59137 17.6806 3.59137C18.5094 3.59137 19.0619 3.03885 19.3381 2.48633C19.8906 1.3813 20.9957 0.828777 22.1007 0.276259C22.377 0.276259 22.6532 0.276259 22.9295 0C23.2058 0.552518 23.7583 0.552518 24.0345 0.552518ZM42.8201 14.6417C42.8201 13.2604 41.9914 12.1554 40.6101 11.8791C40.3338 11.8791 39.7813 11.6029 39.505 11.6029C37.8475 11.3266 36.4662 10.2216 36.1899 8.56403C36.1899 8.28777 36.1899 7.73525 35.9137 7.45899C35.6374 5.80144 33.9799 4.6964 32.3223 4.97266C31.7698 4.97266 31.2173 5.24892 30.941 5.52518C29.2835 6.0777 27.6259 5.80144 26.5209 4.42014C26.2446 3.86763 25.9683 3.59137 25.6921 3.31511C24.5871 1.93381 22.377 1.93381 21.2719 3.31511C20.9957 3.59137 20.7194 4.14388 20.4432 4.42014C19.6144 5.24892 18.5094 5.80144 17.1281 5.52518C16.5755 5.52518 15.7468 5.24892 15.1942 4.97266C13.5367 4.42014 11.6029 5.24892 11.0504 7.18273C11.0504 7.45899 11.0504 7.73525 11.0504 8.01151C10.7741 9.94532 9.66907 11.0504 8.01151 11.6029C7.73525 11.6029 7.18273 11.6029 6.90648 11.8791C4.97266 11.8791 3.86763 13.5367 4.14388 15.1942C4.14388 15.7468 4.42014 16.2993 4.6964 16.5755C5.52518 18.2331 4.97266 20.1669 3.59137 21.2719C3.31511 21.2719 3.03885 21.5482 2.76259 21.8245C1.38129 22.9295 1.38129 25.1396 2.76259 26.5209C3.03885 26.7971 3.31511 27.0734 3.59137 27.0734C4.42014 27.6259 4.97266 28.7309 4.97266 29.5597C4.97266 30.3885 4.6964 31.4935 4.42014 32.3223C3.59137 33.9799 4.6964 35.9137 6.63022 36.4662C6.90648 36.4662 7.18273 36.4662 7.45899 36.4662C9.11655 36.7424 10.4978 37.8475 10.7741 39.505C10.7741 39.7813 10.7741 40.3338 11.0504 40.6101C11.3266 42.2676 12.9842 43.6489 14.6417 43.0964C15.1942 43.0964 15.4705 42.8201 16.023 42.5439C17.6806 41.9914 19.6144 42.2676 20.7194 43.9252C20.9957 44.2014 20.9957 44.2014 21.2719 44.4777C22.6532 46.1353 24.8633 46.1353 26.2446 44.4777C26.5209 44.2014 26.5209 43.9252 26.7971 43.6489C27.6259 42.5439 28.7309 42.2676 30.1122 42.2676C30.941 42.2676 31.4935 42.5439 32.046 42.8201C33.7036 43.3727 35.6374 42.5439 36.1899 40.6101C36.1899 40.3338 36.1899 40.0576 36.1899 39.7813C36.4662 38.6763 37.0187 37.5712 37.8475 37.0187C38.6763 36.4662 39.505 36.4662 40.3338 36.4662C41.7151 36.1899 42.5439 35.3611 42.8201 34.2561C43.0964 33.4273 42.8201 32.5986 42.5439 31.7698C41.7151 29.5597 41.9914 27.9022 43.9252 26.5209C44.2014 26.2446 44.4777 25.9683 44.754 25.6921C45.5827 24.5871 45.5827 22.6532 43.9252 21.5482C41.9914 20.1669 41.4388 18.5094 42.5439 16.2993C42.5439 15.7468 42.8201 15.1942 42.8201 14.6417Z" fill="black"/>
<path d="M42.824 14.6419C42.824 15.1944 42.5477 15.7469 42.5477 16.0232C41.719 18.2333 41.9952 19.8908 43.929 21.2721C45.5866 22.6534 45.5866 24.5872 44.7578 25.9685C44.4816 26.2448 44.2053 26.521 43.929 26.7973C41.9952 28.1786 41.719 29.8361 42.5477 32.0462C42.824 32.875 43.1003 33.7038 42.824 34.5325C42.5477 35.6376 41.4427 36.4664 40.3377 36.7426C39.5089 36.7426 38.6801 37.0189 37.8513 37.2951C36.7463 37.8476 36.1938 38.9527 36.1938 40.0577C36.1938 40.334 36.1938 40.6102 36.1938 40.8865C35.9175 42.8203 33.9837 43.6491 32.0499 43.0966C31.4974 42.8203 30.6686 42.5441 30.1161 42.5441C28.7348 42.5441 27.6298 42.8203 26.801 43.9254C26.5247 44.2016 26.5247 44.4779 26.2485 44.7541C24.8672 46.4117 22.6571 46.4117 21.2758 44.7541C20.9995 44.4779 20.7233 44.2016 20.7233 44.2016C19.6182 42.8203 17.9607 42.2678 16.0269 42.8203C15.4744 43.0966 15.1981 43.3728 14.6456 43.3728C12.988 43.6491 11.3305 42.5441 11.0542 40.8865C11.0542 40.6102 11.0542 40.0577 10.778 39.7815C10.5017 38.1239 9.1204 37.0189 7.46284 36.7426C7.18658 36.7426 6.91033 36.7426 6.63407 36.7426C4.70025 36.4664 3.59522 34.5325 4.42399 32.5987C4.70025 31.77 5.25277 30.9412 4.97651 29.8361C4.97651 28.7311 4.42399 27.9023 3.59522 27.3498C3.31896 26.7973 3.0427 26.521 2.76644 26.521C1.38514 25.1397 1.38514 22.9297 2.76644 21.8246C3.0427 21.5484 3.31896 21.2721 3.59522 21.2721C4.97651 20.1671 5.52903 18.5095 4.70025 16.852C4.70025 16.2994 4.42399 15.7469 4.14774 15.1944C3.87148 13.5369 4.97651 11.8793 6.91033 11.603C7.18658 11.603 7.7391 11.603 8.01536 11.3268C9.67292 11.0505 10.778 9.66923 11.0542 8.01167C11.0542 7.73541 11.0542 7.45915 11.0542 7.1829C11.3305 5.24908 13.2643 4.4203 15.1981 4.97282C15.7506 5.24908 16.5794 5.52534 17.1319 5.52534C18.5132 5.52534 19.6182 5.24908 20.447 4.14405C20.7233 4.14405 20.9995 3.59153 21.2758 3.31527C22.3808 1.93397 24.5909 1.93397 25.6959 3.31527C25.9722 3.59153 25.9722 3.86779 26.2485 4.14405C27.3535 5.52534 29.011 6.07786 30.6686 5.24908C31.2211 4.97282 31.4974 4.69656 32.0499 4.69656C33.9837 4.69656 35.6413 5.8016 35.9175 7.45915C35.9175 7.73541 35.9175 8.28793 36.1938 8.56419C36.47 10.2217 37.8513 11.3268 39.5089 11.603C39.7851 11.603 40.3377 11.603 40.6139 11.8793C41.9952 12.1556 42.824 13.2606 42.824 14.6419ZM10.5017 12.7081C9.67292 12.4318 9.39666 12.4318 8.84414 12.9843C5.52903 17.6807 4.42399 22.6534 5.52903 28.1786C7.7391 37.5714 17.1319 43.9253 26.5247 41.9915C36.7463 40.0577 43.3765 30.1124 41.1664 19.8908C38.6801 8.84045 26.2485 2.48649 15.7506 7.45915C14.9218 7.73541 14.9218 8.28793 15.1981 8.84045C14.3693 9.11671 13.8168 9.66923 13.2643 9.94549C12.988 9.66923 12.4355 9.66923 12.1592 9.94549C11.6067 10.2217 11.6067 10.498 11.883 11.0505C11.3305 11.603 10.778 12.1556 10.5017 12.7081Z" fill="#EAA136"/>
<path d="M13.2602 9.94573C13.8127 9.66947 14.3652 9.11695 15.194 8.84069C15.7465 9.39321 16.0228 9.39321 16.5753 9.11695C19.6142 7.73565 22.9293 7.4594 26.2444 8.01191C35.6372 9.66947 41.7149 19.0623 39.2285 28.1788C37.0185 36.4666 29.007 41.7155 20.4429 40.3342C12.9839 38.9529 7.18251 32.3227 6.90625 24.5875C6.90625 20.7198 8.01129 17.1285 10.2214 14.0896C10.7739 13.5371 10.7739 13.2608 10.2214 12.7083C10.7739 12.1558 11.3264 11.6033 11.6027 11.327L11.8789 11.6033C12.1552 11.8795 12.7077 11.6033 12.9839 11.327C13.5365 10.7745 13.5365 10.4982 13.2602 9.94573ZM20.7192 24.0349C20.7192 23.7587 20.7192 23.2062 20.7192 22.9299C20.7192 22.6536 20.7192 22.3774 20.7192 22.1011C20.7192 20.1673 19.6142 18.786 17.4041 18.786C15.7465 18.786 14.6415 19.8911 14.6415 21.5486C14.6415 22.9299 14.6415 24.5875 14.6415 25.9688C14.6415 27.0738 15.194 27.9026 16.0228 28.4551C16.5753 28.7313 17.1278 29.0076 17.9566 29.0076C19.6142 29.0076 20.7192 27.9026 20.7192 26.245C20.7192 25.4162 20.7192 24.5875 20.7192 24.0349ZM21.548 23.7587C21.548 24.5875 21.548 25.14 21.548 25.9688C21.548 26.245 21.548 26.5213 21.548 26.7975C21.8242 28.1788 23.2055 29.0076 24.8631 28.7313C26.2444 28.4551 27.3494 27.35 27.3494 25.9688C27.3494 24.3112 27.3494 22.9299 27.3494 21.2723C27.3494 20.9961 27.3494 20.7198 27.3494 20.4436C27.0732 19.0623 25.9681 18.5098 24.3106 18.5098C22.653 18.5098 21.548 19.6148 21.548 21.2723C21.548 22.3774 21.548 23.2062 21.548 23.7587ZM22.9293 10.222C21.548 10.222 19.8904 10.7745 17.9566 11.327C16.8516 11.8795 15.7465 12.7083 14.6415 13.5371C14.089 14.0896 14.089 14.6421 14.3652 14.9184C14.6415 15.1946 15.194 15.4709 15.7465 14.9184C15.7465 14.9184 15.7465 14.9184 16.0228 14.6421C20.1667 11.327 26.2444 11.0508 30.3883 14.3659C30.6645 14.3659 30.6645 14.6421 30.9408 14.6421C31.217 14.9184 31.7696 14.6421 32.0458 14.3659C32.3221 14.0896 32.3221 13.8134 32.3221 13.2608C32.0458 13.2608 31.7696 13.2608 31.7696 12.9846C29.2832 11.327 26.5206 10.222 22.9293 10.222ZM23.4818 37.5716C24.0343 37.5716 24.8631 37.5716 25.4156 37.2954C26.7969 37.0191 28.1782 36.7429 29.5595 35.9141C29.8357 35.6378 30.112 35.3616 30.112 34.809C30.112 34.5328 29.8357 34.2565 29.2832 33.9803C29.007 33.9803 28.7307 33.9803 28.4545 34.2565C27.3494 34.809 25.9681 35.0853 24.5868 35.3616C21.548 35.6378 18.7854 34.809 16.2991 32.8752C15.7465 32.599 15.194 32.599 14.9178 32.8752C14.6415 33.4277 14.6415 33.9803 15.194 34.2565C17.6804 36.4666 20.1667 37.5716 23.4818 37.5716ZM11.0501 20.9961C11.0501 22.9299 11.0501 24.5875 11.0501 26.5213C11.0501 27.0738 11.0501 27.0738 10.4976 27.0738C9.9451 27.0738 9.39258 27.35 9.39258 27.9026C9.39258 28.4551 9.66884 28.7313 10.4976 28.7313C11.6027 28.7313 12.4314 28.7313 13.5365 28.7313C14.089 28.7313 14.6415 28.4551 14.6415 27.9026C14.6415 27.35 14.3652 27.0738 13.5365 27.0738C12.9839 27.0738 12.9839 27.0738 12.9839 26.5213C12.9839 24.3112 12.9839 22.3774 12.9839 20.1673C12.9839 19.6148 12.7077 19.3385 12.4314 19.0623C11.8789 18.786 11.0501 19.0623 10.4976 19.0623C10.4976 19.0623 10.2214 19.0623 10.2214 19.3385C9.66884 19.6148 9.39258 19.8911 9.11632 20.4436C8.84006 20.7198 9.11632 21.2723 9.39258 21.5486C9.66884 21.8249 10.2214 21.8249 10.7739 21.5486C10.7739 21.2723 10.7739 21.2723 11.0501 20.9961ZM37.571 19.6148C37.571 19.3385 37.2947 18.786 37.0185 18.786C36.466 18.5098 36.1897 18.786 35.9134 19.0623C33.9796 21.8249 32.0458 24.3112 30.112 27.0738C29.8357 27.6263 29.8357 28.1788 30.3883 28.4551C30.9408 28.7313 31.4933 28.7313 31.7696 28.1788C33.7034 25.6925 35.6372 22.9299 37.571 20.1673C37.2947 19.8911 37.2947 19.8911 37.571 19.6148ZM38.3998 26.5213C38.3998 25.4162 37.2947 24.3112 36.1897 24.3112C35.0847 24.3112 33.9796 25.4162 33.9796 26.5213C33.9796 27.6263 35.0847 28.7313 36.1897 28.7313C37.2947 28.4551 38.3998 27.6263 38.3998 26.5213ZM28.7307 20.7198C28.7307 21.8249 29.5595 22.9299 30.9408 22.9299C32.0458 22.9299 33.1509 21.8249 33.1509 20.7198C33.1509 19.6148 32.0458 18.5098 30.9408 18.5098C29.8357 18.5098 28.7307 19.6148 28.7307 20.7198ZM31.7696 32.599C31.217 32.599 30.9408 32.8752 30.9408 33.4277C30.9408 33.9803 31.217 34.2565 31.7696 34.2565C32.3221 34.2565 32.5983 33.704 32.5983 33.4277C32.5983 32.8752 32.3221 32.599 31.7696 32.599Z" fill="#F7DC86"/>
<path d="M10.4977 12.7079C11.0502 13.2605 11.0502 13.5367 10.4977 14.0892C8.01133 17.4043 6.90629 20.7195 6.90629 24.5871C7.18255 32.3223 12.984 38.9525 20.7192 40.3338C29.2833 41.7151 37.2948 36.4662 39.5049 28.1784C41.9912 19.0619 35.9135 9.66909 26.5207 8.01154C22.9293 7.45902 19.6142 7.73528 16.5754 9.11658C15.7466 9.39283 15.4703 9.39283 15.1941 8.84032C14.9178 8.2878 14.9178 7.73528 15.7466 7.45902C26.2444 2.48636 38.9523 8.56406 41.4387 19.8907C43.6487 30.1123 37.0185 40.0576 26.7969 41.9914C17.1279 43.6489 7.73507 37.5713 5.80125 28.1784C4.41996 22.6533 5.80125 17.6806 9.11636 12.9842C9.39262 12.4317 9.66888 12.4317 10.4977 12.7079Z" fill="#020302"/>
<path d="M13.2577 9.94548C13.534 10.498 13.534 10.7743 13.2577 11.0505C12.9814 11.603 12.7052 11.603 12.4289 11.3268C12.1527 11.3268 12.1527 11.0505 12.1527 11.0505C11.6002 10.498 11.6002 10.2217 12.1527 9.94548C12.4289 9.66922 12.9814 9.66922 13.2577 9.94548Z" fill="#030302"/>
<path d="M20.7222 24.0351C20.7222 24.8638 20.7222 25.4163 20.7222 26.2451C20.7222 27.9027 19.6172 29.0077 17.9596 29.0077C17.4071 29.0077 16.5783 29.0077 16.0258 28.4552C15.197 27.9027 14.6445 27.0739 14.6445 25.9689C14.6445 24.5876 14.6445 22.93 14.6445 21.5487C14.6445 19.8912 15.7496 18.7861 17.4071 18.7861C19.6172 18.7861 20.7222 20.1674 20.7222 22.1012C20.7222 22.3775 20.7222 22.6538 20.7222 22.93C20.7222 23.2063 20.7222 23.4825 20.7222 24.0351ZM18.7884 24.0351C18.7884 23.2063 18.7884 22.6538 18.7884 21.825C18.7884 20.9962 18.5122 20.7199 17.6834 20.7199C16.8546 20.7199 16.5783 20.9962 16.5783 21.825C16.5783 23.2063 16.5783 24.5876 16.5783 26.2451C16.5783 27.0739 16.8546 27.3502 17.6834 27.3502C18.5122 27.3502 18.7884 27.0739 18.7884 26.2451C18.7884 25.4163 18.7884 24.5876 18.7884 24.0351Z" fill="#FF5A72"/>
<path d="M21.5508 23.7588C21.5508 22.93 21.5508 22.3775 21.5508 21.5487C21.5508 19.8912 22.6558 18.7861 24.3134 18.7861C25.9709 18.7861 26.7997 19.3387 27.3522 20.7199C27.3522 20.9962 27.3522 21.2725 27.3522 21.5487C27.3522 23.2063 27.3522 24.5876 27.3522 26.2451C27.3522 27.6264 26.2472 28.7315 24.8659 29.0077C23.4846 29.0077 22.1033 28.1789 21.5508 26.7976C21.5508 26.5214 21.5508 26.2451 21.5508 25.9689C21.5508 25.4163 21.5508 24.5876 21.5508 23.7588ZM23.4846 24.0351C23.4846 24.8638 23.4846 25.4163 23.4846 26.2451C23.4846 26.7976 23.7609 27.3502 24.5896 27.3502C25.4184 27.3502 25.6947 27.0739 25.6947 26.2451C25.6947 24.8638 25.6947 23.2063 25.6947 21.825C25.6947 21.2725 25.4184 20.9962 24.5896 20.9962C23.7609 20.7199 23.4846 20.9962 23.4846 21.825C23.4846 22.3775 23.4846 23.2063 23.4846 24.0351Z" fill="#FF5A72"/>
<path d="M22.9291 10.2207C26.5205 10.2207 29.283 11.0495 31.4931 12.9833C31.7694 13.2596 31.7694 13.2596 32.0456 13.5358C32.0456 13.8121 32.0456 14.3646 31.7694 14.6408C31.4931 14.9171 31.2169 14.9171 30.6643 14.9171C30.3881 14.9171 30.3881 14.6408 30.1118 14.6408C26.2442 11.3257 20.1665 11.3257 16.0226 14.9171C16.0226 14.9171 16.0226 14.9171 15.7464 15.1934C15.1938 15.4696 14.6413 15.4696 14.3651 15.1934C14.0888 14.6408 14.0888 14.0883 14.6413 13.5358C15.7464 12.707 16.8514 11.8783 17.9564 11.3257C19.8902 10.7732 21.5478 10.2207 22.9291 10.2207Z" fill="#000303"/>
<path d="M23.4838 37.571C20.4449 37.571 17.6823 36.7422 15.196 34.8084C14.6435 34.5321 14.6435 33.9796 14.9197 33.4271C15.196 32.8746 15.7485 32.8746 16.301 33.4271C18.7874 35.3609 21.55 36.1897 24.5888 35.9134C25.9701 35.9134 27.3514 35.3609 28.4564 34.8084C28.7327 34.8084 29.009 34.5321 29.2852 34.5321C29.5615 34.5321 29.8377 34.8084 30.114 35.3609C30.114 35.9134 30.114 36.1897 29.5615 36.4659C28.1802 37.0185 27.0751 37.571 25.4176 37.8472C24.5888 37.2947 24.0363 37.571 23.4838 37.571Z" fill="#000303"/>
<path d="M11.0521 20.9951C10.7759 21.2713 10.7759 21.2713 10.7759 21.5476C10.4996 21.8238 9.94711 22.1001 9.3946 21.5476C9.11834 21.2713 8.84208 20.7188 9.11834 20.4426C9.3946 19.89 9.67085 19.6138 9.94711 19.3375L10.2234 19.0613C10.7759 19.0613 11.6047 18.785 12.1572 19.0613C12.7097 19.0613 12.7097 19.6138 12.7097 20.1663C12.7097 22.3764 12.7097 24.3102 12.7097 26.5203C12.7097 27.0728 12.7097 27.0728 13.2622 27.0728C13.8147 27.0728 14.3673 27.349 14.3673 27.9015C14.3673 28.4541 14.091 28.7303 13.2622 28.7303C12.1572 28.7303 11.3284 28.7303 10.2234 28.7303C9.67085 28.7303 9.11834 28.4541 9.11834 27.9015C9.11834 27.349 9.67085 27.0728 10.2234 27.0728C10.7759 27.0728 10.7759 26.7965 10.7759 26.5203C11.0522 24.5864 11.0521 22.9289 11.0521 20.9951Z" fill="#FF5A72"/>
<path d="M37.573 19.6131C37.573 19.8894 37.573 20.1656 37.2967 20.1656C35.3629 22.9282 33.4291 25.4146 31.4953 28.1772C31.219 28.7297 30.6665 28.7297 30.114 28.4534C29.5615 28.1772 29.5615 27.6246 29.8377 27.0721C31.7715 24.3095 33.7053 21.8232 35.6391 19.0606C35.9154 18.7844 36.1917 18.5081 36.7442 18.7844C37.2967 18.7844 37.2967 19.0606 37.573 19.6131Z" fill="#FF5A72"/>
<path d="M38.4006 26.5206C38.4006 27.6257 37.5718 28.7307 36.1905 28.7307C35.0855 28.7307 33.9805 27.6257 33.9805 26.5206C33.9805 25.4156 35.0855 24.3105 36.1905 24.3105C37.2956 24.3105 38.4006 25.1393 38.4006 26.5206ZM36.1905 26.7969C36.4668 26.7969 36.4668 26.7969 36.4668 26.5206C36.4668 26.2444 36.4668 26.2444 36.1905 26.2444C35.9143 26.2444 35.9143 26.2444 35.9143 26.5206C35.9143 26.5206 35.9143 26.7969 36.1905 26.7969Z" fill="#FF5A72"/>
<path d="M28.7344 20.7189C28.7344 19.6138 29.8394 18.5088 30.9444 18.5088C32.0495 18.5088 33.1545 19.6138 33.1545 20.7189C33.1545 21.8239 32.0495 22.9289 30.9444 22.9289C29.8394 22.9289 28.7344 22.1002 28.7344 20.7189ZM30.9444 20.9951C31.2207 20.9951 31.2207 20.7189 31.2207 20.7189C31.2207 20.4426 30.9444 20.4426 30.9444 20.4426C30.6682 20.4426 30.6682 20.4426 30.6682 20.7189C30.6682 20.9951 30.9444 20.9951 30.9444 20.9951Z" fill="#FF5A72"/>
<path d="M31.7702 32.5986C32.3227 32.5986 32.599 32.8749 32.599 33.4274C32.599 33.9799 32.0464 34.2562 31.7702 34.2562C31.2177 34.2562 30.9414 33.7037 30.9414 33.4274C30.9414 32.8749 31.2177 32.5986 31.7702 32.5986Z" fill="#000303"/>
<path d="M18.7843 24.0348C18.7843 24.8636 18.7843 25.4161 18.7843 26.2449C18.7843 27.0737 18.508 27.3499 17.6793 27.3499C16.8505 27.3499 16.5742 27.0737 16.5742 26.2449C16.5742 24.8636 16.5742 23.4823 16.5742 21.8248C16.5742 20.996 16.8505 20.7197 17.6793 20.7197C18.508 20.7197 18.7843 20.996 18.7843 21.8248C18.7843 22.3773 18.7843 23.2061 18.7843 24.0348Z" fill="#F7DC86"/>
<path d="M23.4844 24.0348C23.4844 23.2061 23.4844 22.6535 23.4844 21.8248C23.4844 21.2722 23.7606 20.7197 24.5894 20.7197C25.4182 20.7197 25.6944 20.996 25.6944 21.5485C25.6944 22.9298 25.6944 24.5874 25.6944 25.9686C25.6944 26.5212 25.1419 27.0737 24.5894 27.0737C23.7606 27.0737 23.4844 26.7974 23.4844 25.9686C23.4844 25.4161 23.4844 24.5874 23.4844 24.0348Z" fill="#F7DC86"/>
<path d="M36.1903 26.7976C35.9141 26.7976 35.9141 26.7976 35.9141 26.5214C35.9141 26.2451 36.1903 26.2451 36.1903 26.2451C36.4666 26.2451 36.4666 26.2451 36.4666 26.5214L36.1903 26.7976Z" fill="#F7DC86"/>
<path d="M30.9403 20.9959C30.6641 20.9959 30.6641 20.9959 30.6641 20.7196C30.6641 20.4434 30.6641 20.4434 30.9403 20.4434C31.2166 20.4434 31.2166 20.4434 31.2166 20.7196C31.2166 20.9959 31.2166 20.9959 30.9403 20.9959Z" fill="#F7DC86"/>
</svg>
