<svg width="62" height="64" viewBox="0 0 62 64" fill="none" xmlns="http://www.w3.org/2000/svg">
<path d="M0.672226 3.91121V60.0501C0.667988 60.1738 0.702223 60.2959 0.770374 60.4C0.838525 60.5042 0.937362 60.5855 1.05373 60.6331C1.17011 60.6807 1.2985 60.6925 1.42182 60.6667C1.54514 60.6409 1.65756 60.5789 1.7441 60.4889L31.5165 31.9817L1.7441 3.47239C1.65756 3.38236 1.54514 3.32035 1.42182 3.29459C1.2985 3.26883 1.17011 3.28055 1.05373 3.3282C0.937362 3.37584 0.838525 3.45714 0.770374 3.56129C0.702223 3.66544 0.667988 3.78749 0.672226 3.91121Z" fill="#4D4D4D"/>
<path d="M44.0019 20.2773L6.67048 0.0954762L6.64772 0.0832865C6.51037 0.00558697 6.34839 -0.018886 6.19359 0.0146738C6.0388 0.0482337 5.90238 0.137401 5.81113 0.264664C5.71987 0.391927 5.68038 0.548089 5.7004 0.702479C5.72043 0.856869 5.79852 0.99833 5.91934 1.09908L35.1828 28.5519L44.0019 20.2773Z" fill="#4D4D4D"/>
<path d="M5.92716 62.9046C5.80633 63.0053 5.72824 63.1468 5.70821 63.3012C5.68819 63.4556 5.72769 63.6117 5.81894 63.739C5.91019 63.8663 6.04661 63.9554 6.20141 63.989C6.3562 64.0225 6.51818 63.9981 6.65553 63.9204L6.6783 63.9082L44.0056 43.7162L35.1864 35.4375L5.92716 62.9046Z" fill="#4D4D4D"/>
<path d="M59.0691 28.4287L48.6442 22.791L38.8359 32.0002L48.638 41.2033L59.0691 35.5717C59.7141 35.2148 60.2508 34.696 60.6243 34.0684C60.9978 33.4409 61.1946 32.7271 61.1946 32.0002C61.1946 31.2733 60.9978 30.5596 60.6243 29.932C60.2508 29.3044 59.7141 28.7856 59.0691 28.4287Z" fill="#4D4D4D"/>
</svg>
