<svg width="214" height="236" viewBox="0 0 214 236" fill="none" xmlns="http://www.w3.org/2000/svg">
<path d="M47.8715 19.9707H165.259C173.038 19.9707 179.353 26.2861 179.353 34.0653V224.99H33.7734V34.0653C33.7734 26.2861 40.0888 19.9707 47.8681 19.9707H47.8715Z" fill="#00A79D"/>
<path d="M125.909 48.0581H107.719V53.7164H125.909V48.0581Z" fill="#F1F2F2"/>
<path d="M112.706 48.0581H107.719V53.7164H112.706V48.0581Z" fill="#99DCD8"/>
<path d="M112.711 48.0581H111.68V53.7164H112.711V48.0581Z" fill="#73A5A2"/>
<path d="M125.251 51.8813H118.156V53.1717H125.251V51.8813Z" fill="#99DCD8"/>
<path d="M125.909 53.7847H107.719V59.4429H125.909V53.7847Z" fill="#F1F2F2"/>
<path d="M112.706 53.7847H107.719V59.4429H112.706V53.7847Z" fill="#99DCD8"/>
<path d="M112.711 53.7847H111.68V59.4429H112.711V53.7847Z" fill="#73A5A2"/>
<path d="M125.251 57.6216H118.156V58.9119H125.251V57.6216Z" fill="#99DCD8"/>
<path d="M125.909 59.5073H107.719V65.1656H125.909V59.5073Z" fill="#F1F2F2"/>
<path d="M112.706 59.5073H107.719V65.1656H112.706V59.5073Z" fill="#99DCD8"/>
<path d="M112.711 59.5073H111.68V65.1656H112.711V59.5073Z" fill="#73A5A2"/>
<path d="M125.251 63.3608H118.156V64.6511H125.251V63.3608Z" fill="#99DCD8"/>
<path d="M125.909 65.2305H107.719V70.8887H125.909V65.2305Z" fill="#F1F2F2"/>
<path d="M112.706 65.2305H107.719V70.8887H112.706V65.2305Z" fill="#99DCD8"/>
<path d="M112.711 65.2305H111.68V70.8887H112.711V65.2305Z" fill="#73A5A2"/>
<path d="M125.251 69.1016H118.156V70.3919H125.251V69.1016Z" fill="#99DCD8"/>
<path d="M65.577 59.6636H47.3867V70.8882H65.577V59.6636Z" fill="#F1F2F2"/>
<path d="M54.7488 70.8882H48.4062V59.6636H58.1533L54.7488 70.8882Z" fill="#73A5A2"/>
<path d="M64.5872 68.6821H57.4922V69.9724H64.5872V68.6821Z" fill="#99DCD8"/>
<path d="M53.7293 70.8882H47.3867V59.6636H57.1338L53.7293 70.8882Z" fill="#99DCD8"/>
<path d="M65.577 48.3945H47.3867V59.6192H65.577V48.3945Z" fill="#F1F2F2"/>
<path d="M54.7488 59.6192H48.4062V48.3945H58.1533L54.7488 59.6192Z" fill="#73A5A2"/>
<path d="M64.5872 57.4165H57.4922V58.7068H64.5872V57.4165Z" fill="#99DCD8"/>
<path d="M53.7293 59.6192H47.3867V48.3945H57.1338L53.7293 59.6192Z" fill="#99DCD8"/>
<path d="M84.5848 59.6636H66.3945V70.8882H84.5848V59.6636Z" fill="#F1F2F2"/>
<path d="M73.7601 70.8882H67.4141V59.6636H77.1646L73.7601 70.8882Z" fill="#73A5A2"/>
<path d="M83.595 68.6821H76.5V69.9724H83.595V68.6821Z" fill="#99DCD8"/>
<path d="M72.7405 70.8882H66.3945V59.6636H76.145L72.7405 70.8882Z" fill="#99DCD8"/>
<path d="M84.5848 48.3945H66.3945V59.6192H84.5848V48.3945Z" fill="#F1F2F2"/>
<path d="M73.7601 59.6192H67.4141V48.3945H77.1646L73.7601 59.6192Z" fill="#73A5A2"/>
<path d="M83.595 57.4165H76.5V58.7068H83.595V57.4165Z" fill="#99DCD8"/>
<path d="M72.7405 59.6192H66.3945V48.3945H76.145L72.7405 59.6192Z" fill="#99DCD8"/>
<path d="M105.268 48.0581H87.0781V53.7164H105.268V48.0581Z" fill="#F1F2F2"/>
<path d="M92.0657 48.0581H87.0781V53.7164H92.0657V48.0581Z" fill="#99DCD8"/>
<path d="M92.0667 48.0581H91.0352V53.7164H92.0667V48.0581Z" fill="#73A5A2"/>
<path d="M104.611 51.8813H97.5156V53.1717H104.611V51.8813Z" fill="#99DCD8"/>
<path d="M105.268 53.7847H87.0781V59.4429H105.268V53.7847Z" fill="#F1F2F2"/>
<path d="M92.0657 53.7847H87.0781V59.4429H92.0657V53.7847Z" fill="#99DCD8"/>
<path d="M92.0667 53.7847H91.0352V59.4429H92.0667V53.7847Z" fill="#73A5A2"/>
<path d="M104.611 57.6216H97.5156V58.9119H104.611V57.6216Z" fill="#99DCD8"/>
<path d="M105.268 59.5073H87.0781V65.1656H105.268V59.5073Z" fill="#F1F2F2"/>
<path d="M92.0657 59.5073H87.0781V65.1656H92.0657V59.5073Z" fill="#99DCD8"/>
<path d="M92.0667 59.5073H91.0352V65.1656H92.0667V59.5073Z" fill="#73A5A2"/>
<path d="M104.611 63.3608H97.5156V64.6511H104.611V63.3608Z" fill="#99DCD8"/>
<path d="M105.268 65.2305H87.0781V70.8887H105.268V65.2305Z" fill="#F1F2F2"/>
<path d="M92.0657 65.2305H87.0781V70.8887H92.0657V65.2305Z" fill="#99DCD8"/>
<path d="M92.0667 65.2305H91.0352V70.8887H92.0667V65.2305Z" fill="#73A5A2"/>
<path d="M104.611 69.1016H97.5156V70.3919H104.611V69.1016Z" fill="#99DCD8"/>
<path d="M209.775 236H3.35343C1.50138 236 0 234.498 0 232.646C0 230.794 1.50138 229.293 3.35343 229.293H209.775C211.627 229.293 213.129 230.794 213.129 232.646C213.129 234.498 211.627 236 209.775 236Z" fill="#007D76"/>
<path d="M45.0557 116.944H54.2411C54.6322 116.944 54.9492 116.627 54.9492 116.236V101.035C54.9492 100.644 54.6322 100.326 54.2411 100.326H45.0557C44.6646 100.326 44.3476 100.644 44.3476 101.035V116.236C44.3476 116.627 44.6646 116.944 45.0557 116.944Z" fill="white"/>
<path d="M44.3476 114.748H54.9492V104.323H44.3476V114.748Z" fill="#D1D3D4"/>
<path d="M54.9492 102.131H44.3476V101.039C44.3476 100.647 44.6642 100.33 45.0557 100.33H54.2377C54.6292 100.33 54.9458 100.647 54.9458 101.039V102.131H54.9492Z" fill="#E6E7E8"/>
<path d="M57.9542 116.944H67.1395C67.5306 116.944 67.8477 116.627 67.8477 116.236V101.035C67.8477 100.644 67.5306 100.326 67.1395 100.326H57.9542C57.5631 100.326 57.246 100.644 57.246 101.035V116.236C57.246 116.627 57.5631 116.944 57.9542 116.944Z" fill="white"/>
<path d="M57.246 114.748H67.8477V104.323H57.246V114.748Z" fill="#D1D3D4"/>
<path d="M67.8477 102.131H57.246V101.039C57.246 100.647 57.5627 100.33 57.9542 100.33H67.1361C67.5276 100.33 67.8443 100.647 67.8443 101.039V102.131H67.8477Z" fill="#E6E7E8"/>
<path d="M70.8526 116.944H80.038C80.429 116.944 80.7461 116.627 80.7461 116.236V101.035C80.7461 100.644 80.429 100.326 80.038 100.326H70.8526C70.4615 100.326 70.1445 100.644 70.1445 101.035V116.236C70.1445 116.627 70.4615 116.944 70.8526 116.944Z" fill="white"/>
<path d="M70.1445 114.748H80.7461V104.323H70.1445V114.748Z" fill="#D1D3D4"/>
<path d="M80.7461 102.131H70.1445V101.039C70.1445 100.647 70.4611 100.33 70.8526 100.33H80.0346C80.4261 100.33 80.7427 100.647 80.7427 101.039V102.131H80.7461Z" fill="#E6E7E8"/>
<path d="M91.3157 102.754H85.2931C84.2252 102.754 83.3594 103.62 83.3594 104.688V115.011C83.3594 116.079 84.2252 116.944 85.2931 116.944H91.3157C92.3837 116.944 93.2495 116.079 93.2495 115.011V104.688C93.2495 103.62 92.3837 102.754 91.3157 102.754Z" fill="#FD9D86"/>
<path d="M85.2523 116.941C86.0319 114.698 85.7425 112.192 85.6983 109.737C85.6608 107.681 86.369 104.501 84.9289 102.789C84.0335 102.959 83.3594 103.745 83.3594 104.688V115.011C83.3594 116.066 84.2037 116.921 85.2523 116.944V116.941Z" fill="#F7B7AC"/>
<path d="M91.3143 102.754H88.6758C89.2614 104.726 89.0809 107.03 89.0945 109.189C89.1116 111.943 89.2682 114.52 88.7098 116.948H91.3143C92.3833 116.948 93.248 116.08 93.248 115.014V104.692C93.248 103.623 92.3833 102.758 91.3143 102.758V102.754Z" fill="#F28774"/>
<path d="M93.2495 106.152H83.3594V113.247H93.2495V106.152Z" fill="#D1D3D4"/>
<path d="M92.1853 100.647H84.4265C84.2535 100.647 84.1133 100.787 84.1133 100.96V102.485C84.1133 102.658 84.2535 102.799 84.4265 102.799H92.1853C92.3583 102.799 92.4986 102.658 92.4986 102.485V100.96C92.4986 100.787 92.3583 100.647 92.1853 100.647Z" fill="white"/>
<path d="M102.667 102.754H96.6447C95.5767 102.754 94.7109 103.62 94.7109 104.688V115.011C94.7109 116.079 95.5767 116.944 96.6447 116.944H102.667C103.735 116.944 104.601 116.079 104.601 115.011V104.688C104.601 103.62 103.735 102.754 102.667 102.754Z" fill="#FD9D86"/>
<path d="M96.6077 116.941C97.3874 114.698 97.098 112.192 97.0537 109.737C97.0163 107.681 97.7244 104.501 96.2843 102.789C95.3889 102.959 94.7148 103.745 94.7148 104.688V115.011C94.7148 116.066 95.5592 116.921 96.6077 116.944V116.941Z" fill="#F7B7AC"/>
<path d="M102.666 102.754H100.027C100.613 104.726 100.432 107.03 100.446 109.189C100.463 111.943 100.62 114.52 100.061 116.948H102.666C103.735 116.948 104.6 116.08 104.6 115.014V104.692C104.6 103.623 103.735 102.758 102.666 102.758V102.754Z" fill="#F28774"/>
<path d="M104.601 106.152H94.7109V113.247H104.601V106.152Z" fill="#E6E7E8"/>
<path d="M103.537 100.647H95.7781C95.6051 100.647 95.4648 100.787 95.4648 100.96V102.485C95.4648 102.658 95.6051 102.799 95.7781 102.799H103.537C103.71 102.799 103.85 102.658 103.85 102.485V100.96C103.85 100.787 103.71 100.647 103.537 100.647Z" fill="white"/>
<path d="M114.019 102.755H107.996C106.928 102.755 106.062 103.621 106.062 104.689V115.011C106.062 116.079 106.928 116.945 107.996 116.945H114.019C115.087 116.945 115.953 116.079 115.953 115.011V104.689C115.953 103.621 115.087 102.755 114.019 102.755Z" fill="#FD9D86"/>
<path d="M107.955 116.941C108.735 114.698 108.446 112.192 108.401 109.737C108.364 107.681 109.072 104.501 107.632 102.789C106.737 102.959 106.062 103.745 106.062 104.688V115.011C106.062 116.066 106.907 116.921 107.955 116.944V116.941Z" fill="#F7B7AC"/>
<path d="M114.017 102.755H111.379C111.964 104.726 111.784 107.031 111.798 109.189C111.815 111.944 111.971 114.521 111.413 116.948H114.017C115.086 116.948 115.951 116.08 115.951 115.014V104.692C115.951 103.623 115.086 102.758 114.017 102.758V102.755Z" fill="#F28774"/>
<path d="M115.953 106.152H106.062V113.247H115.953V106.152Z" fill="#E6E7E8"/>
<path d="M114.888 100.647H107.13C106.957 100.647 106.816 100.788 106.816 100.961V102.486C106.816 102.659 106.957 102.799 107.13 102.799H114.888C115.061 102.799 115.202 102.659 115.202 102.486V100.961C115.202 100.788 115.061 100.647 114.888 100.647Z" fill="white"/>
<path d="M169.777 71.0591H43.3438V77.7694H169.777V71.0591Z" fill="#007D76"/>
<path d="M169.777 116.989H43.3438V123.699H169.777V116.989Z" fill="#007D76"/>
<path d="M155.672 70.8888V47.8472H144.825V70.8888H155.672Z" fill="#F1F2F2"/>
<path d="M144.828 70.8889V56.5117L150.115 59.9605L155.671 56.5117V70.8889H144.828Z" fill="#99DCD8"/>
<path d="M154.502 49.8931H146.004V55.6126H154.502V49.8931Z" fill="#99DCD8"/>
<path d="M142.645 70.8849V47.8433H131.798V70.8849H142.645Z" fill="#F1F2F2"/>
<path d="M131.801 70.8884V56.5112L137.088 59.96L142.644 56.5112V70.8884H131.801Z" fill="#99DCD8"/>
<path d="M141.47 49.8931H132.973V55.6126H141.47V49.8931Z" fill="#99DCD8"/>
<path d="M168.02 70.8849V47.8433H157.173V70.8849H168.02Z" fill="#F1F2F2"/>
<path d="M157.176 70.8884V56.5112L162.463 59.96L168.019 56.5112V70.8884H157.176Z" fill="#99DCD8"/>
<path d="M166.845 49.8931H158.348V55.6126H166.845V49.8931Z" fill="#99DCD8"/>
<path d="M72.7952 48.1972C72.0156 51.7412 70.6776 55.1628 68.846 58.2949C68.2264 59.3537 67.5352 60.4227 67.3684 61.6381C67.0007 64.297 69.2171 66.8368 68.7643 69.4821C68.4647 71.2422 67.0552 72.5836 66.262 74.1837C65.2815 76.1617 65.2781 78.4598 65.2917 80.6693C65.3053 82.9707 65.3632 85.4186 66.616 87.3489C67.2901 88.3907 68.2638 89.1976 69.2409 89.9636C71.4164 91.6726 73.7008 93.2796 76.2337 94.3962C78.7667 95.5129 81.572 96.1257 84.316 95.7785C87.2609 95.4074 90.0458 93.9094 91.9796 91.659C93.0247 90.4436 93.8418 89.0035 95.1321 88.0502C95.8096 87.5498 96.6267 87.1685 97.042 86.4365C97.6719 85.33 97.1101 83.9206 96.3509 82.8992C95.1253 81.2515 93.4094 80.0054 92.2349 78.3202C89.6781 74.6467 90.1684 69.7613 89.7122 65.3082C89.1164 59.5035 86.689 53.8997 82.8589 49.4943C81.9533 48.4525 80.8809 47.4277 79.5225 47.1826L72.802 48.1972H72.7952Z" fill="#754C29"/>
<path d="M73.128 122.174C68.0996 137.075 73.0191 180.714 73.0191 180.714C69.3286 197.291 73.1655 212.485 69.9414 223.226C69.9414 223.226 76.7164 229.392 90.0484 227.591C91.989 227.329 76.9989 218.576 76.9989 218.576C76.9989 218.576 84.2573 148.617 88.1317 143.142C88.707 142.332 100.347 175.26 100.347 175.26C91.8868 192.994 95.8258 194.043 89.582 214.405C89.582 214.405 103.309 228.582 106.468 224.425C106.118 223.645 99.1759 215.6 96.871 212.482C95.8633 211.12 108.334 181.429 108.266 175.451C108.198 169.473 101.181 136.977 101.181 136.977L98.3622 122.177H73.1212L73.128 122.174Z" fill="#FAB57A"/>
<path d="M88.1352 143.142C86.5317 145.406 84.3528 158.694 82.3441 173.5C81.4862 173.548 80.6283 173.653 79.7703 173.728C78.1566 173.868 76.5293 173.8 74.9121 173.708C74.044 173.657 73.1792 173.592 72.3145 173.514C71.1672 160.485 69.3696 133.307 73.1248 122.174H98.3657L101.185 136.973C101.185 136.973 106.138 159.916 107.759 170.79C104.933 171.311 102.111 171.89 99.2611 172.203C96.3571 164.056 88.5982 142.482 88.1318 143.142H88.1352Z" fill="#E68052"/>
<path d="M72.1388 171.427C71.0017 157.768 69.565 132.745 73.1295 122.177H98.3705L101.189 136.977C101.189 136.977 105.762 158.163 107.559 169.469C104.359 171.481 75.431 173.058 72.1388 171.427Z" fill="#191616"/>
<path d="M96.8423 211.845C93.9281 212.189 91.3406 213.138 88.6681 214.49L87.7148 217.547C87.7148 217.547 103.321 228.581 106.48 224.424C106.13 223.645 99.188 215.6 96.8832 212.481C96.8219 212.396 96.8117 212.178 96.8457 211.848L96.8423 211.845Z" fill="#6592BF"/>
<path d="M77.4118 218.817C74.3273 219.906 72.1007 221.428 69.4486 223.273C69.2478 224.526 69.0367 225.299 68.8086 225.503C68.8086 225.503 76.7207 229.398 90.0561 227.597C91.806 227.359 79.7915 220.22 77.4118 218.82V218.817Z" fill="#6592BF"/>
<path d="M66.042 79.6961C66.042 79.6961 75.1116 74.6234 76.9091 73.728C79.2787 71.6445 76.8002 64.2227 76.8002 64.2227L85.4136 64.5291L87.8716 72.9995C87.8716 72.9995 88.2938 73.2174 88.9474 73.5544C91.3885 74.8073 97.1999 77.7964 98.0715 78.2492C98.0715 78.2492 98.1941 78.4024 98.0102 82.7806C97.8877 85.6472 99.8078 92.5004 99.8827 96.6744C99.961 100.848 96.8493 102.942 96.8493 102.942C97.3055 107.712 97.4246 108.416 98.3609 122.174C94.2789 124.836 79.3399 124.52 73.1199 122.174C75.2069 110.432 75.2035 109.86 75.3601 108.965C75.9048 105.884 66.0352 79.6961 66.0352 79.6961H66.042Z" fill="#FAB57A"/>
<path d="M66.042 79.696C66.042 79.696 69.1162 77.9768 72.0373 76.363C73.1506 77.7214 75.0843 82.2903 78.0701 84.1934C81.0592 86.0965 90.0777 85.688 91.8208 84.0129C93.5674 82.3379 94.2857 76.2983 94.2857 76.2983C96.0765 77.2176 97.6493 78.0312 98.0715 78.2491C98.0715 78.2491 98.1941 78.4023 98.0102 82.7805C97.8877 85.6471 99.8078 92.5004 99.8827 96.6743C99.961 100.848 96.8493 102.942 96.8493 102.942C97.3055 107.712 97.4246 108.416 98.3609 122.174C94.2789 124.836 79.3399 124.52 73.1199 122.174C75.2069 110.432 75.2035 109.86 75.3601 108.965C75.9048 105.883 66.0352 79.696 66.0352 79.696H66.042Z" fill="#6592BF"/>
<path d="M92.4698 103.143C88.7248 102.762 85.0309 103.242 81.4358 104.314C79.2603 104.961 77.1597 105.792 75.1034 106.735C75.3349 107.79 75.4371 108.57 75.369 108.968C75.2634 109.571 75.226 110.03 74.5859 113.816C76.7342 113.251 78.6441 111.906 80.503 110.67C82.8657 109.097 85.5348 107.143 88.5274 107.586C90.2296 107.838 91.6221 108.767 93.0996 109.577C94.5636 110.381 96.0922 111.055 97.6276 111.709C97.3655 108.226 97.2123 106.656 97.008 104.546C95.527 103.895 94.155 103.316 92.4698 103.146V103.143Z" fill="#4C6E8F"/>
<path d="M66.043 79.6964C66.043 79.6964 73.7439 75.2944 76.6684 73.6841C77.7817 75.0425 86.4495 96.736 87.2871 102.428C88.1518 108.304 84.5703 165.16 84.5396 165.667C75.7458 165.68 71.1701 164.949 68.0244 163.764C70.1079 152.022 72.5285 110.255 72.6886 109.36C73.2333 106.279 66.0464 79.6998 66.0464 79.6998L66.043 79.6964Z" fill="white"/>
<path d="M76.3208 85.9233L77.7779 82.6005L74.1044 82.369C74.1044 82.369 73.1512 77.1873 73.1682 75.6451C74.5368 74.8723 75.8101 74.1573 76.668 73.6841C77.4408 74.6237 81.8327 85.3139 84.7401 93.6923L76.3208 85.9267V85.9233Z" fill="#F1F2F2"/>
<path d="M96.3137 165.429C96.3749 164.533 90.8086 105.274 89.954 99.5753C89.2391 94.7988 88.9531 73.5547 88.9531 73.5547C90.7439 74.4739 97.655 78.0316 98.0772 78.2495C98.0772 78.2495 98.1997 78.4027 98.0159 82.7809C97.8933 85.6475 99.8135 92.5007 99.8884 96.6746C99.9667 100.849 96.855 102.942 96.855 102.942C97.3112 107.712 107.034 149.843 107.971 163.604C106.194 164.761 103.735 165.289 96.3137 165.429Z" fill="white"/>
<path d="M86.0057 102.745C82.911 102.936 79.7686 103.392 76.6977 103.838C75.1691 104.059 73.6337 104.325 72.1289 104.699C72.5681 106.99 72.7996 108.703 72.6838 109.356C72.6532 109.523 72.5477 111.1 72.3774 113.633C76.9122 112.621 80.841 109.581 85.1307 107.787C85.9444 107.447 86.6934 107.293 87.4117 107.266C87.4321 105.148 87.4049 103.565 87.3164 102.694C86.8806 102.704 86.4414 102.721 86.0022 102.745H86.0057Z" fill="#D1D3D4"/>
<path d="M90.3393 102.772C90.4925 104.168 90.6798 105.918 90.8875 107.937C91.5309 108.168 92.188 108.43 92.8893 108.686C94.629 109.322 96.3994 109.881 98.2003 110.292C97.6114 107.385 97.1756 105.124 96.9679 103.8C94.7856 103.286 92.5727 102.925 90.3359 102.769L90.3393 102.772Z" fill="#D1D3D4"/>
<path d="M94.6415 81.8821L90.9102 82.1919L93.9402 85.6883C93.9402 85.6883 90.1646 91.7824 89.4565 92.7322C89.099 84.7657 88.9492 73.5513 88.9492 73.5513C89.8276 74.0041 91.935 75.0867 93.9062 76.1012C94.1002 77.2179 94.6381 81.8787 94.6381 81.8787L94.6415 81.8821Z" fill="#F1F2F2"/>
<path d="M85.8407 72.2709C84.6355 73.0607 83.0763 73.0743 81.7077 72.7884C80.3527 72.5058 79.1032 71.9202 77.9083 71.2291C78.1602 68.274 76.8086 64.2192 76.8086 64.2192L85.422 64.5256L87.3115 71.0419C86.8383 71.4708 86.3786 71.9168 85.8441 72.2675L85.8407 72.2709Z" fill="#E68052"/>
<path d="M97.0241 92.0098H91.0901C90.9152 92.0098 90.7734 92.1515 90.7734 92.3264V96.1632C90.7734 96.3381 90.9152 96.4799 91.0901 96.4799H97.0241C97.199 96.4799 97.3407 96.3381 97.3407 96.1632V92.3264C97.3407 92.1515 97.199 92.0098 97.0241 92.0098Z" fill="#D1D3D4"/>
<path d="M94.334 91.1416H93.7791C93.6098 91.1416 93.4727 91.2788 93.4727 91.448V91.9519C93.4727 92.1211 93.6098 92.2583 93.7791 92.2583H94.334C94.5032 92.2583 94.6404 92.1211 94.6404 91.9519V91.448C94.6404 91.2788 94.5032 91.1416 94.334 91.1416Z" fill="#D1D3D4"/>
<path d="M93.0481 92.6226H91.2539V94.8151H93.0481V92.6226Z" fill="#F1F2F2"/>
<path d="M96.8615 93.2183H93.5625V93.46H96.8615V93.2183Z" fill="#F1F2F2"/>
<path d="M96.8615 94.1748H93.5625V94.4165H96.8615V94.1748Z" fill="#F1F2F2"/>
<path d="M96.8615 95.1313H93.5625V95.3731H96.8615V95.1313Z" fill="#F1F2F2"/>
<path d="M87.5782 70.8134C88.5758 69.0737 92.7054 63.0137 92.7054 63.0137L93.1003 63.6673C94.2681 65.6522 95.7661 68.7741 94.806 70.4389C93.3319 73.0025 91.8271 72.8288 93.3931 75.7499C94.9592 78.671 98.9969 80.5366 96.5116 85.2723C94.0264 90.0114 89.7537 91.0974 89.7537 91.0974C89.7537 91.0974 90.9964 89.0785 90.5299 85.9702C90.3495 84.7684 89.2873 82.7564 88.2421 80.4583L87.7961 79.454C87.7961 79.454 86.5739 72.5497 87.5714 70.81L87.5782 70.8134Z" fill="#754C29"/>
<path d="M92.7086 63.014C92.7733 64.3587 92.2456 65.775 91.4455 67.0279C90.2573 68.8799 88.4257 70.2621 87.9321 72.5057C87.6495 73.796 87.7312 75.2157 87.7312 76.5264C87.7312 77.5035 87.755 78.4772 87.8061 79.4543C86.3388 76.043 85.1744 72.1891 86.989 69.4212C86.989 69.4212 90.0939 67.0177 90.802 65.5878C91.3672 64.4439 91.9357 61.853 91.9357 61.853C91.9357 61.853 92.2626 62.3058 92.7052 63.0174L92.7086 63.014Z" fill="#57301F"/>
<path d="M90.8314 58.1655C90.3241 59.8745 90.7837 61.5189 91.8629 61.8389C92.9387 62.1589 94.2257 61.032 94.7329 59.323C95.2402 57.6139 94.7806 55.9696 93.7014 55.6495C92.6255 55.3295 91.3386 56.4564 90.8314 58.1655Z" fill="#E78052"/>
<path d="M71.7383 58.9825C72.1265 60.7222 73.3282 61.9376 74.4245 61.6925C75.5207 61.4474 76.0961 59.8405 75.708 58.0974C75.3199 56.3577 74.1181 55.1423 73.0218 55.3874C71.9256 55.6325 71.3502 57.2394 71.7383 58.9825Z" fill="#E78052"/>
<path d="M83.3991 45.1024C92.1997 45.1977 92.6389 53.457 92.6628 54.4545C92.6628 54.5158 92.6628 54.5737 92.6594 54.6316C92.5981 55.5508 91.9921 64.045 91.1273 65.6588C90.409 66.9967 85.1694 71.3204 83.0655 71.3204C80.9615 71.3204 75.9228 66.8401 75.2351 65.4885C74.4044 63.8544 73.9823 55.3499 73.9414 54.4307C73.9414 54.3694 73.9414 54.3116 73.9414 54.2537C73.9857 53.2596 74.6053 45.0071 83.4025 45.1024H83.3991Z" fill="#FBBE7D"/>
<path d="M73.9642 54.9924C76.0852 52.3437 76.7491 49.2491 76.7491 49.2491L91.2829 49.3818C91.2829 49.3818 87.7559 45.1466 83.3947 45.099C74.5941 45.0036 73.9744 53.2527 73.9336 54.2503C73.9336 54.3115 73.9336 54.3694 73.9336 54.4273C73.937 54.526 73.9472 54.7303 73.9608 54.9924H73.9642Z" fill="#E78052"/>
<path d="M79.3372 57.0762C79.9535 57.0149 80.488 57.6788 80.5288 58.5606C80.5697 59.4423 80.1033 60.2083 79.487 60.2696C78.8708 60.3309 78.3363 59.667 78.2955 58.7852C78.2546 57.9035 78.721 57.1375 79.3372 57.0762Z" fill="#231F20"/>
<path d="M87.3919 57.1616C88.0081 57.1004 88.5426 57.7642 88.5835 58.646C88.6244 59.5278 88.1579 60.2938 87.5417 60.3551C86.9255 60.4163 86.391 59.7525 86.3501 58.8707C86.3093 57.9889 86.7757 57.2229 87.3919 57.1616Z" fill="#231F20"/>
<path d="M83.4452 62.4994C83.595 62.7445 83.5848 62.7037 83.4826 62.8875C83.4111 63.0169 83.2443 63.136 83.1456 63.2416C82.9277 63.4731 83.8775 63.422 84.0444 63.2416C84.1839 63.0952 84.521 62.8535 84.5925 62.656C84.6742 62.4211 84.5074 62.3292 84.3406 62.1862C83.8605 61.7742 83.5507 61.2602 83.3975 60.6542C83.3362 60.4124 82.9413 61.6551 83.4486 62.496L83.4452 62.4994Z" fill="#E78052"/>
<path d="M86.1731 64.8896C84.1848 64.5696 82.1456 64.573 80.0586 64.8896C80.0586 64.8896 81.6213 67.5213 83.092 67.5213C84.5627 67.5213 86.1697 64.8896 86.1697 64.8896H86.1731Z" fill="white"/>
<path d="M84.2192 40.9629C75.3675 38.5321 74.564 45.6169 74.564 45.6169C74.564 45.6169 73.1171 46.148 72.4839 47.2136C71.8507 48.2792 72.1537 53.9545 73.89 56.0653C75.2177 54.1826 76.2561 48.6537 76.2561 48.6537C79.7865 47.4213 90.3473 48.6231 90.3473 48.6231C90.3473 48.6231 90.8205 54.438 92.6726 55.81C94.7391 49.2801 92.2334 43.1656 84.2192 40.9663V40.9629Z" fill="#754C29"/>
<path d="M75.6289 42.9444C76.8035 41.2456 79.2343 39.5978 84.2185 40.9664C88.8248 42.2295 91.6096 44.7897 92.7536 47.9763C91.4905 45.971 89.8155 44.2552 87.7081 43.1044C86.4042 42.3929 84.9845 41.9163 83.5239 41.6677C83.1563 41.603 79.1253 40.9324 75.6323 42.9444H75.6289Z" fill="#8A603D"/>
<path d="M81.6107 53.9583C81.5528 53.9515 81.4949 53.9379 81.4404 53.9243C78.0121 53.1821 76.269 54.9899 76.3133 54.9082C76.1498 55.0478 75.9217 55.1533 75.789 55.1431C75.6562 55.1329 75.663 55.0035 75.8196 54.8503C75.823 54.9354 76.9942 52.1676 81.0932 52.9234C81.3724 52.9881 81.8183 53.989 81.6107 53.9583Z" fill="#231F20"/>
<path d="M85.1897 54.7789C85.2407 54.7721 85.2918 54.7585 85.3428 54.7449C88.4035 53.955 90.2896 55.5756 90.2351 55.5177C90.4053 55.6471 90.6403 55.739 90.773 55.722C90.9058 55.7049 90.8888 55.5722 90.7186 55.4326C90.7356 55.487 89.1967 52.9303 85.4961 53.7848C85.2475 53.8529 85.0058 54.8095 85.1897 54.7789Z" fill="#231F20"/>
<path d="M98.2197 78.2285C100.773 79.5052 110.793 104.426 108.066 105.979C105.499 107.439 100.787 99.1662 101.621 98.6555C102.455 98.1448 97.2494 93.0347 97.3652 90.1204C97.6614 82.7463 98.2197 78.2285 98.2197 78.2285Z" fill="#F1F2F2"/>
<path d="M101.63 98.6416C101.63 98.6416 101.62 98.6519 101.613 98.6553C100.779 99.1693 85.1929 98.7914 85.1929 98.7914L81.8633 102.186C95.5664 108.654 105.491 107.439 108.058 105.978C108.963 105.461 108.248 102.158 107.257 98.2808C107.121 97.8246 102.985 98.1684 101.626 98.6416H101.63Z" fill="#F1F2F2"/>
<path d="M97.6738 100.324C100.67 100.273 103.152 99.2377 103.771 98.3594C103.461 98.407 101.803 98.5807 101.63 98.6385C101.623 98.642 101.62 98.6488 101.613 98.6522C100.779 99.1662 85.1929 98.7883 85.1929 98.7883L81.8633 102.183C84.1205 103.248 86.3062 104.099 88.3965 104.784C91.2189 102.598 94.1808 100.385 97.6704 100.324H97.6738Z" fill="#D1D3D4"/>
<path d="M85.1988 98.7916C85.1988 98.7916 77.7736 97.1234 74.8662 97.6647C71.9587 98.206 77.2697 102.237 77.2697 102.237L81.8692 102.182L85.1988 98.7882V98.7916Z" fill="#FAB57A"/>
<path d="M95.3508 95.3875C90.496 96.2011 78.856 98.8328 76.7248 99.9904C76.7248 99.9904 67.999 78.6543 66.0449 79.6961C59.2597 83.3117 67.5769 106.193 70.6001 108.982C72.8198 111.031 81.9643 105.839 91.0237 101.737C93.6111 100.566 95.7049 99.8542 97.3629 99.4252C96.9135 97.9647 96.287 96.579 95.3508 95.3875Z" fill="#F1F2F2"/>
<path d="M95.3516 95.3875C95.3516 95.3875 98.4769 94.138 99.5732 94.5057C100.673 94.8734 103.825 98.3119 103.825 98.3119C103.825 98.3119 102.889 99.8644 97.3636 99.4286L95.3516 95.3909V95.3875Z" fill="#FAB57A"/>
<path d="M82.0428 93.0519H80.218L79.9831 91.2271H78.0391L78.274 93.0519H76.4492L76.6978 94.9958H78.526L78.7609 96.8207H80.7048L80.4699 94.9958H82.2948L82.0428 93.0519Z" fill="#00A79D"/>
<path d="M148.163 68.7468C148.163 68.7468 143.046 66.9663 135.747 69.2098L134.266 73.6255L148.959 73.8025C148.959 73.8025 149.365 69.632 148.163 68.7502V68.7468Z" fill="#D1D3D4"/>
<path d="M118.195 227.274H140.808L139.78 213.193C136.532 212.635 133.475 212.526 130.761 213.193C130.761 213.193 131.316 217.544 126.805 218.967C122.298 220.391 118.195 219.945 118.195 227.274Z" fill="#151A21"/>
<path d="M130.775 213.932C133.506 214.133 136.829 214.228 137.925 217.033C138.555 218.65 138.306 220.601 138.211 222.286C138.115 223.951 138.146 225.616 138.102 227.277H140.808L139.78 213.196C136.532 212.638 133.475 212.529 130.762 213.196C130.762 213.196 130.796 213.486 130.775 213.932Z" fill="#0B0D11"/>
<path d="M122.632 220.557C118.952 220.557 118.172 223.155 118.288 227.274H131.222C127.984 220.319 125.931 220.557 122.632 220.557Z" fill="#151A21"/>
<path d="M118.302 225.416C118.214 225.974 118.176 226.59 118.197 227.274H140.81L140.673 225.416H118.302Z" fill="#0B0D11"/>
<path d="M136.89 225.416C136.877 225.974 136.866 226.59 136.873 227.274H140.812L140.788 225.416H136.894H136.89Z" fill="#050608"/>
<path d="M151.166 214.623C151.659 211.304 159.483 212.032 159.483 214.654C159.483 221.333 160.981 220.485 160.981 225.51C160.981 227.022 161.121 225.694 155.541 225.694C149.961 225.694 148.023 227.431 148.023 225.582C148.023 220.591 150.059 222.637 150.553 219.318L151.162 214.623H151.166Z" fill="#151A21"/>
<path d="M153.021 216.155C152.163 217.864 152.494 219.982 151.908 221.776C151.373 223.41 150.066 225.102 148.592 226.399C148.214 226.338 148.023 226.127 148.023 225.585C148.023 220.594 150.059 222.641 150.553 219.321L151.162 214.626C151.605 211.651 157.917 211.933 159.228 213.908C156.851 213.799 154.216 213.765 153.018 216.155H153.021Z" fill="#0B0D11"/>
<path d="M149.535 221.445C153.014 220.294 157.025 220.523 160.525 221.697C160.78 222.62 160.981 223.672 160.981 225.514C160.981 227.025 161.121 225.697 155.541 225.697C149.961 225.697 148.023 227.434 148.023 225.585C148.023 222.467 148.817 222.095 149.535 221.445Z" fill="#151A21"/>
<path d="M161.105 225.415C161.156 225.973 161.18 226.59 161.17 227.274H147.742L147.824 225.415H161.108H161.105Z" fill="#0B0D11"/>
<path d="M125.298 119.951C125.298 119.951 123.895 145.828 129.179 173.112C129.509 174.814 131.398 209.169 130.278 215.481C133.458 216.472 136.761 216.407 140.168 215.481C140.168 215.481 144.455 189.011 140.662 172.315L139.205 153.121L137.547 140.551C137.547 140.551 143.464 170.48 145.772 175.57C148.081 180.66 150.477 215.852 150.477 215.852C153.926 216.846 157.085 216.867 159.945 215.883C159.945 215.883 162.417 192.875 156.65 170.276C156.65 170.276 153.552 128.459 151.904 120.519L125.301 119.944L125.298 119.951Z" fill="#191616"/>
<path d="M131.953 138.257C134.894 138.944 137.928 139.081 140.93 138.805C145.312 138.406 149.551 137.242 153.779 136.064C153.105 129.068 152.427 123.062 151.9 120.523L125.297 119.947C125.297 119.947 124.943 126.504 125.263 136.493C127.517 136.99 129.706 137.729 131.953 138.257Z" fill="#0D0D0D"/>
<path d="M140.66 172.319L139.809 161.111C139.523 163.682 138.883 166.208 138.164 168.703C139.128 172.074 139.482 175.58 139.601 179.08C139.717 182.515 139.638 185.957 139.638 189.396V201.216C139.638 205.002 139.193 208.659 138.406 212.363C138.185 213.408 137.974 214.957 137.742 215.995L140.163 215.488C140.163 215.488 144.449 189.018 140.656 172.322L140.66 172.319Z" fill="#0D0D0D"/>
<path d="M156.695 170.477C157.049 174.164 157.26 177.868 157.271 181.572C157.271 182.342 157.264 183.115 157.25 183.884C158.013 186.199 158.629 188.483 158.782 190.965C159.109 196.341 159.429 201.744 159.147 207.13C158.99 210.109 158.292 213.626 157.601 216.502L159.943 215.886C159.943 215.886 162.401 193.011 156.695 170.474V170.477Z" fill="#0D0D0D"/>
<g opacity="0.5">
<path d="M134.39 157.107C135.03 163.075 133.981 167.91 132.044 167.91C130.107 167.91 128.02 163.072 127.38 157.107C126.74 151.143 126.931 139.043 128.868 139.043C130.805 139.043 133.75 151.143 134.39 157.107Z" fill="#454545"/>
</g>
<g opacity="0.5">
<path d="M152.45 157.993C153.573 163.961 152.916 168.795 150.982 168.795C149.048 168.795 146.567 163.958 145.443 157.993C144.32 152.025 144.568 137.804 146.505 137.804C148.442 137.804 151.329 152.028 152.453 157.993H152.45Z" fill="#454545"/>
</g>
<path d="M146.445 62.8984C146.445 62.8984 146.445 71.4165 148.147 74.947C149.853 78.4774 137.914 85.3852 137.914 85.3852C137.914 85.3852 131.472 78.8417 133.787 75.5564C136.099 72.271 136.586 65.6969 136.586 65.6969L146.445 62.8984Z" fill="#FD9D86"/>
<path d="M144.49 71.3552C142.948 72.0974 141.004 72.3323 139.322 72.0429C138.049 71.825 136.878 71.328 135.758 70.7118C136.408 68.0903 136.585 65.6969 136.585 65.6969L146.445 62.8984C146.445 62.8984 146.445 65.9693 146.816 69.19C146.029 69.8879 145.488 70.8786 144.494 71.3552H144.49Z" fill="#F28774"/>
<path d="M121.239 77.5067C121.848 76.945 134.274 71.171 134.274 71.171C134.274 71.171 131.21 80.7921 138.438 80.7921C145.666 80.7921 148.512 70.4424 148.512 70.4424C148.512 70.4424 160.847 77.8506 161.592 78.5962C162.069 79.0694 158.324 89.1127 155.583 96.3404C154.024 100.46 154.17 99.4011 152.768 103.667C151.368 107.936 154.834 133.334 154.834 133.334C143.524 137.024 132.78 137.6 122.798 133.97L124.224 112.794L122.706 86.2631C122.706 86.2631 120.626 78.0685 121.232 77.5067H121.239Z" fill="#FF4850"/>
<path d="M150.505 107.01C146.048 106.217 141.408 105.404 136.867 105.843C132.335 106.278 128.097 107.875 124.062 109.904L124.229 112.801L123.98 116.489C124.985 116.509 125.979 116.451 127.031 116.148C128.737 115.658 130.429 115.137 132.134 114.65C135.426 113.71 138.674 112.226 142.167 112.287C145.831 112.349 149.385 113.935 152.823 115.072C152.595 112.209 152.442 109.503 152.442 107.388C151.802 107.252 151.159 107.13 150.508 107.014L150.505 107.01Z" fill="#BF363C"/>
<path d="M134.132 166.429C135.885 166.429 133.744 113.04 133.434 108.723C133.128 104.491 132.981 100.252 132.974 96.0069C132.961 87.8668 132.631 79.7062 133.376 71.5898C130.39 72.6623 121.678 76.9077 121.236 77.5069C120.742 78.1741 122.71 86.2632 122.71 86.2632C122.71 86.2632 121.842 163.862 122.226 165.483C122.611 167.103 132.382 166.429 134.135 166.429H134.132Z" fill="white"/>
<path d="M130.561 72.543C130.105 73.5541 127.586 78.8038 127.586 78.8038L132.356 79.369L129.996 80.8568C129.996 80.8568 131.797 92.6363 132.968 95.0705C132.934 87.2436 135.025 77.0131 135.743 69.21C134.895 69.6049 132.563 70.902 130.561 72.5464V72.543Z" fill="#F1F2F2"/>
<path d="M158.044 96.344C160.781 89.1163 162.064 79.073 161.588 78.5998C160.876 77.8882 149.648 71.1337 148.593 70.4971C147.68 72.2708 147.081 74.1875 146.465 76.077C145.787 78.1572 145.011 80.1999 144.323 82.2766C141.624 90.4168 140.858 99.0336 140.463 107.562C140.245 112.246 142.696 166.432 145.362 166.432C148.028 166.432 161.213 166.712 161.734 165.214C162.255 163.716 156.484 100.463 158.044 96.344Z" fill="white"/>
<path d="M124.843 116.155C126.648 116.165 128.139 115.583 129.851 115.106C131.108 114.756 132.391 114.347 133.692 113.956C133.576 111.273 133.481 109.4 133.433 108.726C133.399 108.246 133.372 107.766 133.341 107.29C132.711 107.371 132.078 107.45 131.452 107.524C128.452 107.885 125.46 108.287 122.474 108.719C122.45 111.099 122.426 113.584 122.402 116.124C123.216 116.131 124.026 116.151 124.843 116.155Z" fill="#D1D3D4"/>
<path d="M150.88 114.936C153.393 115.716 155.908 116.414 158.486 116.781C158.37 114.871 158.261 113.029 158.169 111.286C153.733 109.237 149.178 107.453 144.33 106.833C143.056 106.67 141.78 106.622 140.506 106.643C140.493 106.949 140.476 107.252 140.462 107.558C140.432 108.239 140.455 109.976 140.53 112.437C143.982 112.175 147.656 113.935 150.883 114.936H150.88Z" fill="#D1D3D4"/>
<path d="M149.596 81.3675L146.994 79.4508L152.622 79.0831C152.622 79.0831 152.537 73.9934 152.367 72.2673C152.128 71.3447 148.55 68.9786 148.159 68.7437C147.246 70.5174 147.086 74.184 146.47 76.0735C145.793 78.1537 145.016 80.1964 144.329 82.2731C142.97 86.3722 142.102 90.5903 141.523 94.8562C144.775 85.9806 149.599 81.3641 149.599 81.3641L149.596 81.3675Z" fill="#F1F2F2"/>
<path d="M148.083 56.4397C147.702 58.2237 148.304 59.8646 149.428 60.103C150.551 60.3447 151.77 59.0918 152.155 57.3113C152.536 55.5273 151.934 53.8863 150.81 53.648C149.687 53.4063 148.468 54.6592 148.087 56.4397H148.083Z" fill="#F28774"/>
<path d="M128.597 57.3014C128.968 59.0853 130.184 60.3416 131.307 60.1067C132.43 59.8718 133.04 58.2342 132.669 56.4502C132.298 54.6663 131.082 53.41 129.959 53.6449C128.835 53.8799 128.226 55.5174 128.597 57.3014Z" fill="#F28774"/>
<path d="M140.377 43.0259C149.375 43.0259 149.917 51.469 149.951 52.487C149.951 52.5483 149.951 52.6096 149.951 52.6708C149.896 53.6105 149.372 62.3022 148.504 63.9636C147.785 65.339 142.355 69.8397 141.848 69.8397H138.91C138.403 69.8397 132.973 65.339 132.254 63.9636C131.386 62.3022 130.862 53.6105 130.807 52.6708C130.804 52.6096 130.804 52.5483 130.807 52.487C130.841 51.469 131.383 43.0259 140.381 43.0259H140.377Z" fill="#FD9D86"/>
<path d="M148.337 50.5026C147.782 49.9783 147.489 49.3587 147.054 48.7561C146.556 48.0684 145.869 47.6156 145.011 47.5714C144.112 47.5271 143.247 47.8539 142.393 48.082C140.942 48.4667 139.424 48.6029 137.929 48.6778C137.177 48.7153 136.421 48.7357 135.665 48.7561C135.189 48.7697 134.654 48.7289 134.188 48.8515C133.691 48.9842 133.408 49.4745 133.133 49.8762C132.962 50.1281 133.007 50.2677 132.629 50.5265C132.52 50.6014 132.414 50.6082 132.309 50.7035C132.04 50.9418 131.839 51.4423 131.696 51.7555C131.345 52.5249 131.103 53.342 130.903 54.1659C130.851 53.4135 130.817 52.8654 130.807 52.6679C130.804 52.6066 130.804 52.5453 130.807 52.4841C130.841 51.4661 131.383 43.0229 140.381 43.0229C148.014 43.0229 149.563 49.1 149.876 51.5614C149.318 51.2789 148.8 50.9316 148.344 50.4992L148.337 50.5026Z" fill="#F28774"/>
<path d="M144.591 54.3118C143.961 54.2403 143.41 54.9144 143.355 55.8166C143.304 56.7188 143.771 57.5053 144.401 57.5768C145.03 57.6483 145.582 56.9742 145.636 56.072C145.687 55.1698 145.221 54.3833 144.591 54.3118Z" fill="#231F20"/>
<path d="M136.349 54.3118C135.719 54.2403 135.168 54.9144 135.113 55.8166C135.062 56.7188 135.529 57.5053 136.158 57.5768C136.788 57.6483 137.34 56.9742 137.394 56.072C137.445 55.1698 136.979 54.3833 136.349 54.3118Z" fill="#231F20"/>
<path d="M132.852 52.0139C133.005 51.9425 135.494 50.516 138.837 51.3909C139.069 51.4522 139.303 52.6846 139.12 52.6983C139.069 52.7017 139.011 52.6983 138.956 52.6846C135.851 51.9254 133.373 52.7493 133.318 52.7732C133.063 52.8685 132.74 52.7732 132.607 52.5621C132.474 52.351 132.586 52.1059 132.849 52.0139H132.852Z" fill="#3C2415"/>
<path d="M147.9 51.7757C147.747 51.7042 145.258 50.2777 141.915 51.1526C141.683 51.2139 141.449 52.4464 141.632 52.46C141.687 52.4634 141.741 52.46 141.796 52.4464C144.901 51.6872 147.379 52.511 147.434 52.5349C147.689 52.6302 148.012 52.5349 148.145 52.3238C148.278 52.1127 148.166 51.8676 147.903 51.7757H147.9Z" fill="#3C2415"/>
<path d="M140.678 59.201C140.835 59.5686 140.824 59.504 140.712 59.7865C140.634 59.984 140.453 60.1746 140.344 60.3381C140.106 60.6955 141.127 60.5764 141.311 60.304C141.465 60.0759 141.832 59.6946 141.911 59.3916C142.002 59.0307 141.825 58.9014 141.645 58.6937C141.134 58.0911 140.811 57.3285 140.654 56.4229C140.593 56.062 140.144 57.9549 140.678 59.2044V59.201Z" fill="#AD603E"/>
<path d="M136.93 62.7115C136.93 62.7115 138.829 65.7585 140.573 65.7585C142.316 65.7585 144.164 62.7115 144.164 62.7115C141.696 62.3472 139.282 62.3438 136.93 62.7115Z" fill="#F28774"/>
<path d="M143.523 63.6171C143.911 63.1098 144.156 62.7115 144.156 62.7115C141.688 62.3472 139.274 62.3438 136.922 62.7115C136.922 62.7115 137.15 63.0758 137.518 63.549C139.509 63.8418 141.528 63.8588 143.523 63.6171Z" fill="white"/>
<path d="M145.598 45.8615C145.598 45.8615 148.471 47.5025 148.059 49.3511L149.189 50.4814L149.806 53.7634C149.806 53.7634 152.577 47.1961 152.063 45.6573C151.549 44.1184 147.674 41.4697 147.674 41.4697L145.601 45.8615H145.598Z" fill="#58352C"/>
<path d="M134.986 46.1716C134.986 46.1716 132.112 47.8126 132.524 49.6612L131.394 50.7915L130.778 54.0734C130.778 54.0734 128.007 47.5062 128.521 45.9673C129.035 44.4285 132.909 41.7798 132.909 41.7798L134.982 46.175L134.986 46.1716Z" fill="#69402E"/>
<path d="M129.422 38.4638C129.909 38.566 130.518 38.7498 131.134 38.9541C129.905 36.8535 129.953 35.124 129.953 35.124C130.688 35.6041 134.484 35.587 137.923 35.7573C141.44 35.9309 148.184 37.2961 148.988 41.9024C150.36 49.7634 131.325 47.2849 131.325 47.2849C129.967 44.9766 129.776 43.0701 130.355 41.5517C129.742 39.9652 129.422 38.4604 129.422 38.4604V38.4638Z" fill="#58352C"/>
<path d="M147.674 41.47C146.526 39.7099 144.194 38.8996 142.247 38.4707C138.995 37.7523 135.686 37.3846 132.493 36.3769C131.533 36.0739 130.688 35.6926 129.953 35.2057C129.953 35.1547 129.953 35.1274 129.953 35.1274C130.688 35.6075 134.485 35.5905 137.923 35.7607C141.44 35.9343 148.184 37.2995 148.988 41.9058C149.294 43.6693 148.576 44.9086 147.279 45.7767C148.16 44.4762 148.63 42.934 147.677 41.4734L147.674 41.47Z" fill="#69402E"/>
<path d="M131.377 40.0098C131.095 42.4338 131.476 44.8612 133.904 45.7702C137.226 47.0162 141.159 47.0094 144.982 46.7983C139.729 48.2929 131.323 47.2852 131.323 47.2852C129.444 44.0952 129.839 41.6916 131.374 40.0098H131.377Z" fill="#69402E"/>
<path d="M121.237 77.5068C118.084 79.0831 109.542 108.988 112.909 110.902C116.079 112.703 123.415 102.492 122.387 101.859C121.359 101.226 123.184 95.4247 123.038 91.8262C122.67 82.7225 121.237 77.5068 121.237 77.5068Z" fill="#F1F2F2"/>
<path d="M122.369 101.846C122.369 101.846 122.382 101.856 122.389 101.863C123.417 102.496 142.663 102.029 142.663 102.029L146.776 106.22C129.855 114.207 116.081 112.706 112.911 110.905C111.791 110.268 112.176 106.5 112.945 101.665C113.115 101.103 120.694 101.26 122.372 101.846H122.369Z" fill="#F1F2F2"/>
<path d="M127.257 103.922C123.557 103.857 120.493 102.581 119.727 101.498C120.108 101.559 122.157 101.77 122.368 101.845C122.375 101.849 122.382 101.856 122.389 101.862C123.417 102.496 142.663 102.029 142.663 102.029L146.775 106.22C143.99 107.534 141.291 108.586 138.71 109.431C135.224 106.734 131.571 104 127.257 103.925V103.922Z" fill="#D1D3D4"/>
<path d="M142.667 102.029C142.667 102.029 151.836 99.9697 155.428 100.637C159.019 101.308 152.459 106.285 152.459 106.285L146.777 106.22L142.664 102.029H142.667Z" fill="#FAB57A"/>
<path d="M130.125 97.825C136.121 98.826 150.495 102.077 153.123 103.507C153.123 103.507 158.985 77.1733 161.399 78.4602C169.778 82.9269 164.419 111.164 160.684 114.609C157.944 117.139 146.651 110.731 135.464 105.662C132.27 104.215 129.683 103.337 127.637 102.809C128.192 101.008 128.964 99.2958 130.122 97.8216L130.125 97.825Z" fill="#F1F2F2"/>
<path d="M130.126 97.8255C130.126 97.8255 126.269 96.2833 124.914 96.7361C123.559 97.1889 119.664 101.434 119.664 101.434C119.664 101.434 120.822 103.351 127.641 102.813L130.126 97.8255Z" fill="#FAB57A"/>
<path d="M151.79 93.2998H144.031C143.857 93.2998 143.715 93.4416 143.715 93.6164V98.6959C143.715 98.8708 143.857 99.0126 144.031 99.0126H151.79C151.965 99.0126 152.107 98.8708 152.107 98.6959V93.6164C152.107 93.4416 151.965 93.2998 151.79 93.2998Z" fill="#D1D3D4"/>
<path d="M148.356 92.1904H147.474C147.305 92.1904 147.168 92.3276 147.168 92.4968V93.3105C147.168 93.4797 147.305 93.6169 147.474 93.6169H148.356C148.525 93.6169 148.663 93.4797 148.663 93.3105V92.4968C148.663 92.3276 148.525 92.1904 148.356 92.1904Z" fill="#D1D3D4"/>
<path d="M146.619 94.0801H144.328V96.882H146.619V94.0801Z" fill="#F1F2F2"/>
<path d="M151.5 94.8428H147.285V95.1526H151.5V94.8428Z" fill="#F1F2F2"/>
<path d="M151.5 96.0684H147.285V96.3782H151.5V96.0684Z" fill="#F1F2F2"/>
<path d="M151.5 97.291H147.285V97.6008H151.5V97.291Z" fill="#F1F2F2"/>
<path d="M131.443 91.7916H129.618L129.826 89.9668H127.886L127.675 91.7916H125.846L125.625 93.7356H127.45L127.239 95.5604H129.183L129.394 93.7356H131.219L131.443 91.7916Z" fill="#00A79D"/>
<path d="M205.758 156.688H7.37109V232.064H205.758V156.688Z" fill="#00A79D"/>
<path d="M9.47848 149.27H203.651C204.815 149.27 205.758 150.216 205.758 151.377V156.688H7.37109V151.377C7.37109 150.213 8.31754 149.27 9.47848 149.27Z" fill="#E6E7E8"/>
<path d="M185.129 49.9304C198.917 49.9304 210.094 38.7531 210.094 24.9652C210.094 11.1773 198.917 0 185.129 0C171.341 0 160.164 11.1773 160.164 24.9652C160.164 38.7531 171.341 49.9304 185.129 49.9304Z" fill="#00A79D"/>
<path d="M185.131 46.5262C173.242 46.5262 163.57 36.854 163.57 24.9655C163.57 13.077 173.242 3.40479 185.131 3.40479C197.02 3.40479 206.692 13.077 206.692 24.9655C206.692 36.854 197.02 46.5262 185.131 46.5262Z" fill="#00A79D"/>
<path d="M185.131 47.3774C172.772 47.3774 162.719 37.3239 162.719 24.9655C162.719 12.6072 172.772 2.55371 185.131 2.55371C197.489 2.55371 207.542 12.6072 207.542 24.9655C207.542 37.3239 197.489 47.3774 185.131 47.3774ZM185.131 4.25937C173.712 4.25937 164.421 13.5502 164.421 24.9689C164.421 36.3876 173.712 45.6785 185.131 45.6785C196.549 45.6785 205.84 36.3876 205.84 24.9689C205.84 13.5502 196.549 4.25937 185.131 4.25937Z" fill="white"/>
<path d="M199.258 19.55H190.549V10.8413H179.713V19.55H171.004V30.3865H179.713V39.0953H190.549V30.3865H199.258V19.55Z" fill="white"/>
<path d="M115.751 203.769H110.085V198.103H103.034V203.769H97.3672V210.82H103.034V216.487H110.085V210.82H115.751V203.769Z" fill="white"/>
<path d="M43.1133 188.177V172.285H48.2609C50.2117 172.285 51.485 172.363 52.0773 172.523C52.9863 172.762 53.7489 173.279 54.3652 174.079C54.978 174.879 55.2878 175.911 55.2878 177.174C55.2878 178.151 55.1107 178.968 54.7567 179.635C54.4026 180.299 53.9532 180.824 53.4085 181.202C52.8638 181.579 52.3088 181.831 51.7437 181.954C50.9777 182.107 49.8678 182.182 48.4175 182.182H46.3237V188.177H43.1167H43.1133ZM46.3203 174.975V179.486H48.077C49.3401 179.486 50.1878 179.404 50.6134 179.237C51.039 179.07 51.3726 178.812 51.6177 178.458C51.8594 178.103 51.982 177.692 51.982 177.222C51.982 176.643 51.8118 176.166 51.4713 175.792C51.1309 175.417 50.7019 175.182 50.181 175.087C49.7963 175.016 49.0269 174.978 47.8728 174.978H46.3237L46.3203 174.975Z" fill="white"/>
<path d="M46.5345 188.391H42.8984V172.07H48.2605C50.2488 172.07 51.5152 172.152 52.1315 172.315C53.0847 172.564 53.8916 173.115 54.5316 173.946C55.1717 174.78 55.4985 175.863 55.4985 177.17C55.4985 178.178 55.3112 179.039 54.9436 179.73C54.5759 180.422 54.0992 180.973 53.5273 181.371C52.9621 181.766 52.3766 182.028 51.7876 182.158C51.008 182.311 49.8743 182.389 48.4137 182.389H46.5345V188.385V188.391ZM43.3274 187.963H46.1089V181.967H48.4137C49.847 181.967 50.9501 181.892 51.6991 181.743C52.2268 181.627 52.7613 181.385 53.2822 181.024C53.7962 180.667 54.2286 180.163 54.5657 179.533C54.9027 178.903 55.0729 178.11 55.0729 177.174C55.0729 175.965 54.7767 174.968 54.1946 174.208C53.6124 173.453 52.8804 172.955 52.0225 172.731C51.4506 172.578 50.1841 172.499 48.2605 172.499H43.3274V187.963ZM48.0767 179.696H46.1055V174.76H47.869C49.0504 174.76 49.8164 174.797 50.2181 174.872C50.7833 174.974 51.2565 175.233 51.6276 175.645C52.0021 176.06 52.1927 176.588 52.1927 177.221C52.1927 177.732 52.0566 178.188 51.791 178.576C51.5255 178.964 51.1544 179.254 50.6879 179.434C50.2317 179.611 49.3772 179.7 48.0733 179.7L48.0767 179.696ZM46.5345 179.267H48.0767C49.3091 179.267 50.1364 179.189 50.5347 179.033C50.9229 178.883 51.219 178.651 51.4369 178.331C51.6514 178.015 51.7638 177.64 51.7638 177.218C51.7638 176.69 51.614 176.268 51.311 175.931C51.0012 175.587 50.6199 175.379 50.1432 175.294C49.7721 175.223 49.0095 175.189 47.8724 175.189H46.5378V179.271L46.5345 179.267Z" fill="white"/>
<path d="M57.9297 188.177V172.285H61.1367V178.539H67.4248V172.285H70.6319V188.177H67.4248V181.228H61.1367V188.177H57.9297Z" fill="white"/>
<path d="M70.8499 188.391H67.2139V181.443H61.3548V188.391H57.7188V172.07H61.3548V178.324H67.2139V172.07H70.8499V188.391ZM67.6429 187.963H70.4243V172.499H67.6429V178.753H60.9258V172.499H58.1443V187.963H60.9258V181.014H67.6429V187.963Z" fill="white"/>
<path d="M88.2865 188.177H84.7969L83.4079 184.568H77.0551L75.7443 188.177H72.3398L78.5292 172.285H81.9235L88.2865 188.177ZM82.3797 181.889L80.1906 175.992L78.0458 181.889H82.3831H82.3797Z" fill="white"/>
<path d="M88.6 188.391H84.6473L83.2583 184.783H77.2017L75.8909 188.391H72.0234L78.3796 172.07H82.0633L88.5965 188.391H88.6ZM84.9401 187.963H87.9667L81.7739 172.499H78.6724L72.6499 187.963H75.5914L76.9021 184.354H83.5511L84.9401 187.963ZM82.6829 182.103H77.7328L80.184 175.373L82.6829 182.103ZM78.3456 181.674H82.0667L80.1874 176.612L78.3456 181.674Z" fill="white"/>
<path d="M89.9961 188.177V172.285H96.7506C98.4495 172.285 99.6819 172.428 100.451 172.714C101.221 173 101.837 173.507 102.3 174.235C102.763 174.964 102.994 175.802 102.994 176.741C102.994 177.933 102.644 178.917 101.942 179.696C101.241 180.472 100.193 180.963 98.8001 181.164C99.4946 181.569 100.067 182.011 100.519 182.498C100.972 182.982 101.578 183.843 102.344 185.079L104.285 188.18H100.448L98.1294 184.721C97.3056 183.485 96.7404 182.706 96.4374 182.386C96.1344 182.066 95.811 181.845 95.4739 181.725C95.1335 181.606 94.5956 181.545 93.8602 181.545H93.2099V188.18H90.0029L89.9961 188.177ZM93.2031 179.005H95.5761C97.1149 179.005 98.075 178.94 98.4597 178.811C98.841 178.682 99.144 178.457 99.3585 178.14C99.5764 177.824 99.6819 177.425 99.6819 176.949C99.6819 176.414 99.5389 175.982 99.2529 175.655C98.967 175.325 98.5652 175.117 98.0443 175.032C97.7856 174.995 97.0025 174.978 95.702 174.978H93.1963V179.009L93.2031 179.005Z" fill="white"/>
<path d="M104.67 188.391H100.332L97.9492 184.837C97.1355 183.618 96.5737 182.839 96.281 182.529C96.0018 182.233 95.7056 182.028 95.4026 181.923C95.086 181.811 94.5685 181.756 93.8569 181.756H93.4212V188.391H89.7852V172.07H96.7542C98.4939 172.07 99.7297 172.213 100.53 172.513C101.34 172.813 101.997 173.354 102.484 174.123C102.967 174.886 103.213 175.764 103.213 176.741C103.213 177.984 102.841 179.026 102.106 179.839C101.473 180.544 100.56 181.024 99.3893 181.276C99.8897 181.61 100.322 181.971 100.68 182.352C101.139 182.846 101.762 183.724 102.532 184.967L104.676 188.395L104.67 188.391ZM100.56 187.963H103.897L102.161 185.191C101.405 183.972 100.799 183.115 100.36 182.645C99.9238 182.178 99.362 181.743 98.6913 181.351L98.1602 181.041L98.7662 180.953C100.104 180.759 101.119 180.289 101.783 179.553C102.443 178.821 102.78 177.875 102.78 176.745C102.78 175.853 102.559 175.046 102.12 174.355C101.684 173.67 101.098 173.187 100.377 172.918C99.6344 172.642 98.4156 172.503 96.7508 172.503H90.2107V187.966H92.9922V181.331H93.8569C94.6264 181.331 95.1779 181.392 95.5422 181.521C95.9133 181.651 96.2639 181.892 96.5908 182.236C96.904 182.57 97.4657 183.343 98.3032 184.599L100.56 187.963ZM95.5796 179.22H92.9922V174.76H95.709C97.0333 174.76 97.8096 174.777 98.0785 174.818C98.6505 174.913 99.0999 175.148 99.4199 175.512C99.7399 175.88 99.8999 176.363 99.8999 176.949C99.8999 177.466 99.7774 177.909 99.5391 178.263C99.2973 178.617 98.9569 178.873 98.5313 179.019C98.1228 179.158 97.1559 179.227 95.5796 179.227V179.22ZM93.4212 178.791H95.5796C97.4589 178.791 98.1466 178.692 98.3951 178.607C98.7356 178.491 98.9943 178.297 99.1884 178.018C99.379 177.739 99.4778 177.378 99.4778 176.946C99.4778 176.459 99.3552 176.081 99.1033 175.791C98.8514 175.502 98.4871 175.318 98.0206 175.24C97.7789 175.206 96.9993 175.189 95.7158 175.189H93.4246V178.794L93.4212 178.791Z" fill="white"/>
<path d="M105.973 188.177V172.285H110.776L113.66 183.125L116.51 172.285H121.324V188.177H118.341V175.669L115.185 188.177H112.097L108.955 175.669V188.177H105.973Z" fill="white"/>
<path d="M121.538 188.391H118.13V177.395L115.356 188.391H111.931L109.17 177.398V188.391H105.762V172.07H110.943L113.66 182.287L116.346 172.07H121.538V188.391ZM118.556 187.963H121.109V172.499H116.677L113.66 183.962L110.61 172.499H106.187V187.963H108.741V173.936L112.264 187.963H115.019L118.556 173.943V187.963Z" fill="white"/>
<path d="M138.841 188.177H135.352L133.963 184.568H127.61L126.299 188.177H122.895L129.084 172.285H132.478L138.841 188.177ZM132.934 181.889L130.745 175.992L128.6 181.889H132.938H132.934Z" fill="white"/>
<path d="M139.155 188.391H135.202L133.813 184.783H127.756L126.446 188.391H122.578L128.934 172.07H132.618L139.151 188.391H139.155ZM135.495 187.963H138.521L132.329 172.499H129.227L123.205 187.963H126.146L127.457 184.354H134.106L135.495 187.963ZM133.238 182.103H128.287L130.739 175.373L133.238 182.103ZM128.9 181.674H132.621L130.742 176.612L128.9 181.674Z" fill="white"/>
<path d="M150.711 182.335L153.823 183.322C153.347 185.055 152.553 186.346 151.443 187.187C150.334 188.027 148.927 188.45 147.222 188.45C145.111 188.45 143.378 187.728 142.02 186.288C140.661 184.844 139.98 182.876 139.98 180.374C139.98 177.729 140.665 175.676 142.03 174.212C143.395 172.748 145.193 172.016 147.419 172.016C149.363 172.016 150.943 172.591 152.155 173.739C152.877 174.42 153.418 175.393 153.782 176.667L150.606 177.426C150.419 176.602 150.027 175.952 149.431 175.475C148.836 174.998 148.11 174.76 147.259 174.76C146.081 174.76 145.125 175.182 144.393 176.03C143.661 176.874 143.293 178.246 143.293 180.139C143.293 182.148 143.654 183.578 144.376 184.432C145.097 185.287 146.037 185.712 147.195 185.712C148.046 185.712 148.781 185.44 149.394 184.899C150.007 184.357 150.449 183.503 150.715 182.342L150.711 182.335Z" fill="white"/>
<path d="M147.221 188.664C145.06 188.664 143.255 187.915 141.863 186.434C140.47 184.957 139.766 182.921 139.766 180.374C139.766 177.685 140.474 175.564 141.873 174.066C143.276 172.564 145.141 171.802 147.419 171.802C149.411 171.802 151.055 172.401 152.304 173.582C153.05 174.284 153.619 175.302 153.99 176.606L154.051 176.82L150.446 177.681L150.398 177.47C150.221 176.697 149.85 176.081 149.298 175.639C148.743 175.196 148.059 174.971 147.259 174.971C146.135 174.971 145.25 175.363 144.552 176.166C143.858 176.966 143.504 178.304 143.504 180.136C143.504 182.083 143.851 183.483 144.535 184.289C145.22 185.1 146.091 185.491 147.191 185.491C147.987 185.491 148.679 185.236 149.251 184.732C149.829 184.221 150.251 183.401 150.507 182.288L150.558 182.06L154.088 183.18L154.034 183.377C153.547 185.151 152.72 186.489 151.576 187.357C150.432 188.225 148.968 188.664 147.225 188.664H147.221ZM147.416 172.231C145.26 172.231 143.5 172.946 142.186 174.359C140.865 175.775 140.195 177.797 140.195 180.374C140.195 182.805 140.862 184.746 142.173 186.142C143.483 187.531 145.182 188.235 147.221 188.235C148.873 188.235 150.248 187.827 151.314 187.016C152.338 186.24 153.091 185.045 153.561 183.466L150.868 182.611C150.585 183.7 150.139 184.524 149.533 185.055C148.883 185.631 148.093 185.924 147.191 185.924C145.975 185.924 144.971 185.467 144.208 184.569C143.456 183.68 143.075 182.189 143.075 180.136C143.075 178.199 143.463 176.769 144.229 175.887C145.002 174.995 146.02 174.546 147.259 174.546C148.158 174.546 148.934 174.801 149.567 175.308C150.146 175.771 150.551 176.398 150.766 177.171L153.516 176.514C153.169 175.39 152.662 174.508 152.015 173.899C150.847 172.792 149.302 172.234 147.426 172.234L147.416 172.231Z" fill="white"/>
<path d="M160.755 188.177V181.487L154.934 172.285H158.696L162.437 178.573L166.1 172.285H169.798L163.956 181.511V188.177H160.759H160.755Z" fill="white"/>
<path d="M164.168 188.392H160.542V181.552L154.547 172.074H158.82L162.435 178.154L165.979 172.074H170.187L164.168 181.576V188.395V188.392ZM160.971 187.963H163.739V181.446L169.408 172.499H166.224L162.439 178.995L158.574 172.499H155.323L160.971 181.426V187.963Z" fill="white"/>
<path d="M191.865 111.041C191.637 110.751 191.307 110.581 190.905 110.581H164.254C163.277 110.581 162.242 111.582 161.943 112.818L157.102 132.748C156.914 133.521 157.057 134.205 157.432 134.607C157.656 134.848 158.886 135.866 159.195 136.105C159.4 136.261 159.652 136.35 159.938 136.35H186.588C187.565 136.35 188.6 135.349 188.9 134.113L193.741 114.183C193.966 113.257 193.714 112.46 193.162 112.12C192.978 112.008 192.049 111.276 191.862 111.041H191.865Z" fill="#414042"/>
<path d="M186.591 136.35H159.94C158.963 136.35 158.415 135.349 158.715 134.113L163.556 114.183C163.855 112.947 164.89 111.946 165.868 111.946H192.518C193.495 111.946 194.043 112.947 193.744 114.183L188.902 134.113C188.603 135.349 187.568 136.35 186.591 136.35Z" fill="#191616"/>
<path d="M180.913 147.7C185.485 147.7 188.934 143.543 188.089 139.05L184.899 122.068H170.26L173.45 139.05C174.294 143.543 170.846 147.7 166.273 147.7H180.913Z" fill="#414042"/>
<path d="M186.968 149.141H157.035C157.035 148.143 157.845 147.333 158.843 147.333H185.163C186.161 147.333 186.971 148.143 186.971 149.141H186.968Z" fill="#191616"/>
</svg>
