<svg width="48" height="48" viewBox="0 0 48 48" fill="none" xmlns="http://www.w3.org/2000/svg">
<path d="M14.9531 40.4505H9.45312V27.0793C9.45312 26.5416 9.90313 26.1016 10.4531 26.1016H13.9781C14.5281 26.1016 14.9781 26.5416 14.9781 27.0793V40.4505H14.9531Z" stroke="#CB1B5B" stroke-width="1.5" stroke-miterlimit="10" stroke-linecap="round"/>
<path d="M27.25 40.4502H21.75V21.5302C21.75 20.6991 22.425 20.0391 23.275 20.0391H25.725C26.575 20.0391 27.25 20.6991 27.25 21.5302V40.4502Z" stroke="#CB1B5B" stroke-width="1.5" stroke-miterlimit="10" stroke-linecap="round"/>
<path d="M39.5508 40.452H34.0508V16.1542C34.0508 15.2987 34.7508 14.6387 35.6008 14.6387H37.9758C38.8508 14.6387 39.5258 15.3231 39.5258 16.1542V40.452H39.5508Z" stroke="#CB1B5B" stroke-width="1.5" stroke-miterlimit="10" stroke-linecap="round"/>
<path d="M5.72656 40.4512C18.2516 40.4512 30.7516 40.4512 43.2766 40.4512" stroke="#CB1B5B" stroke-width="1.5" stroke-miterlimit="10" stroke-linecap="round"/>
<path d="M6.35156 18.8174C9.42656 16.9352 12.5016 15.0774 15.5516 13.2196C16.2516 14.1485 16.9766 15.0774 17.6766 16.0063C22.3016 13.2685 26.9266 10.5307 31.5266 7.79297" stroke="#CB1B5B" stroke-width="1.5" stroke-miterlimit="10" stroke-linecap="round" stroke-linejoin="round"/>
<path d="M24.2773 7.01172C26.7023 7.28061 29.1023 7.5495 31.5273 7.81839C31.0023 9.82283 30.5023 11.8028 29.9773 13.8073" stroke="#CB1B5B" stroke-width="1.5" stroke-miterlimit="10" stroke-linecap="round" stroke-linejoin="round"/>
</svg>
