<svg width="48" height="48" viewBox="0 0 48 48" fill="none" xmlns="http://www.w3.org/2000/svg">
<path d="M40.378 22.25C40.378 24.25 40.1336 31 35.2447 37C31.3336 41.75 26.6891 43.5 24.4891 44.25C24.2447 44.25 24.2447 44.25 24.0002 44.25C21.8002 43.5 17.1558 41.75 13.2447 37C8.35577 31 8.11133 24.25 8.11133 22.25C8.11133 18.75 8.11133 15.25 8.11133 12C8.11133 11.5 8.60022 11 9.08911 11C10.8002 11 13.2447 10.5 15.6891 9.5C19.6002 7.75 22.2891 5.25 23.5113 3.5C24.0002 3 24.7335 3 24.978 3.5C26.4447 5.25 28.8891 8 32.8002 9.5C35.2447 10.5 37.6891 11 39.4002 11C39.8891 11 40.378 11.5 40.378 12C40.1335 15.25 40.378 18.75 40.378 22.25Z" stroke="#CB1B5B" stroke-width="1.5" stroke-miterlimit="10"/>
<path d="M22.288 29.5C22.0436 29.75 21.5547 29.75 21.3102 29.5L16.4214 24.5C15.9325 24 15.9325 23 16.4214 22.5C16.9102 22 17.888 22 18.3769 22.5L21.3102 25.5C21.5547 26 22.0436 26 22.288 25.5L29.6214 18C30.1102 17.5 31.088 17.5 31.5769 18C32.0658 18.5 32.0658 19.5 31.5769 20L22.288 29.5Z" fill="#CB1B5B"/>
</svg>
