<svg width="42" height="42" viewBox="0 0 42 42" fill="none" xmlns="http://www.w3.org/2000/svg">
<path d="M33.9928 10.9349C33.9928 12.4232 33.9928 13.9116 33.9928 15.1023C33.9928 15.4 33.9928 15.4 33.9928 15.6977C33.7008 16.5907 33.1169 17.186 32.241 17.186C31.365 17.186 30.4891 16.5907 30.4891 15.6977C30.4891 15.1023 30.4891 14.507 30.4891 14.2093C30.4891 13.3163 30.4891 12.1256 30.4891 11.2325H30.1972C29.0293 11.2325 27.5694 11.2325 26.4015 11.2325C25.5256 11.2325 24.9417 10.6372 24.6497 10.0419C24.3577 9.4465 24.6497 8.55348 25.2336 7.95813C25.5256 7.66046 26.1096 7.66046 26.4015 7.66046C27.8614 7.66046 29.3212 7.66046 30.7811 7.66046C30.7811 7.36278 30.7811 7.36278 30.7811 7.06511C30.7811 5.57674 30.7811 4.38604 30.7811 2.89767C30.7811 2.00465 31.365 1.4093 32.241 1.11163C33.1169 0.813954 33.7008 1.11163 34.2848 2.00465C34.5767 2.30232 34.5767 2.6 34.5767 3.19535C34.5767 4.68372 34.5767 6.17209 34.5767 7.66046C34.8687 7.66046 34.8687 7.66046 35.1607 7.66046C36.3286 7.66046 37.7884 7.66046 38.9563 7.66046C40.1242 7.66046 40.7081 8.55348 41.0001 9.4465C41.0001 10.3395 40.1242 11.2325 39.2483 11.2325C36.9125 10.9349 35.4526 10.9349 33.9928 10.9349Z" fill="#CB1B5B"/>
<path d="M12.6789 17.1857H5.37957C3.0438 17.1857 1 15.102 1 12.7206V5.57644C1 2.89737 3.0438 1.11133 5.37957 1.11133H12.6789C15.3066 1.11133 17.0584 3.19505 17.0584 5.57644V12.7206C17.3504 15.102 15.3066 17.1857 12.6789 17.1857Z" stroke="#CB1B5B" stroke-width="1.5" stroke-miterlimit="10" stroke-linecap="round"/>
<path d="M12.6789 41.0002H5.37957C2.75183 41.0002 1 38.9165 1 36.5351V29.3909C1 26.7118 3.0438 24.9258 5.37957 24.9258H12.6789C15.3066 24.9258 17.0584 27.0095 17.0584 29.3909V36.5351C17.3504 38.9165 15.3066 41.0002 12.6789 41.0002Z" stroke="#CB1B5B" stroke-width="1.5" stroke-miterlimit="10" stroke-linecap="round"/>
<path d="M36.0363 41.0002H28.737C26.1093 41.0002 24.3574 38.9165 24.3574 36.5351V29.3909C24.3574 26.7118 26.4012 24.9258 28.737 24.9258H36.0363C38.664 24.9258 40.4159 27.0095 40.4159 29.3909V36.5351C40.4159 38.9165 38.3721 41.0002 36.0363 41.0002Z" stroke="#CB1B5B" stroke-width="1.5" stroke-miterlimit="10" stroke-linecap="round"/>
</svg>
