<svg width="16" height="16" viewBox="0 0 16 16" fill="none" xmlns="http://www.w3.org/2000/svg">
<path d="M1.95417 9.33333C1.95417 8.26667 1.95417 7.11111 1.95417 6.04444C1.95417 5.6 2.13194 5.33333 2.4875 5.15556C4.17639 4.17778 5.77639 3.2 7.46528 2.13333C7.82083 1.95556 8.17639 1.95556 8.53194 2.13333C10.2208 3.11111 11.9097 4.17778 13.5097 5.15556C13.8653 5.33333 13.9542 5.6 13.9542 6.04444C13.9542 8.17778 13.9542 10.4 13.9542 12.5333C13.9542 13.3333 13.4208 13.9556 12.5319 13.9556C11.8208 13.9556 11.1097 13.9556 10.3986 13.9556C9.86528 13.9556 9.42083 13.6 9.42083 12.9778C9.42083 12.1778 9.42083 11.4667 9.42083 10.6667C9.42083 10.3111 9.24306 10.1333 8.8875 10.1333C8.17639 10.1333 7.46528 10.1333 6.75417 10.1333C6.39861 10.1333 6.22083 10.3111 6.22083 10.6667C6.22083 11.4667 6.22083 12.1778 6.22083 12.9778C6.22083 13.6 5.86528 13.9556 5.24306 13.9556C4.53194 13.9556 3.82083 13.9556 3.10972 13.9556C2.30972 13.9556 1.6875 13.4222 1.6875 12.5333C1.95417 11.5556 1.95417 10.4889 1.95417 9.33333Z" fill="#ffffff"/>
</svg>
