<svg width="40" height="40" viewBox="0 0 40 40" fill="none" xmlns="http://www.w3.org/2000/svg">
<path d="M24.6658 7.55512C23.3325 6.44401 21.7769 5.77734 19.9991 5.77734C16.4436 5.77734 13.5547 8.66623 13.5547 12.2218V12.6662C13.5547 13.1107 13.9991 13.5551 14.4436 13.5551H25.3325C25.7769 13.5551 26.2214 13.1107 26.2214 12.6662V12.2218C26.4436 10.444 25.7769 8.66623 24.6658 7.55512ZM17.5547 10.444C17.1102 10.444 16.6658 9.99957 16.6658 9.55512C16.6658 9.11068 17.1102 8.88845 17.5547 8.88845C17.9991 8.88845 18.4436 9.3329 18.4436 9.77734C18.4436 9.99957 17.9991 10.444 17.5547 10.444ZM22.4436 10.444C21.9991 10.444 21.5547 9.99957 21.5547 9.55512C21.5547 9.11068 21.9991 8.88845 22.4436 8.88845C22.888 8.88845 23.3325 9.3329 23.3325 9.77734C23.3325 9.99957 22.888 10.444 22.4436 10.444Z" fill="#CB1B5B"/>
<path d="M25.1102 14.2217H14.888C13.9991 14.2217 13.5547 14.6661 13.5547 15.555V23.9995C13.5547 24.6661 14.2214 25.3328 14.888 25.3328H25.1102C25.7769 25.3328 26.4436 24.6661 26.4436 23.9995V15.555C26.4436 14.6661 25.9991 14.2217 25.1102 14.2217ZM22.4436 20.2217C22.4436 20.4439 22.4436 20.4439 22.2214 20.4439H20.6658V21.7772C20.6658 21.9995 20.6658 21.9995 20.4436 21.9995H19.5547C19.3325 21.9995 19.3325 21.9995 19.3325 21.7772V20.4439H17.7769C17.5547 20.4439 17.5547 20.4439 17.5547 20.2217V19.3328C17.5547 19.1106 17.5547 19.1106 17.7769 19.1106H19.1102V17.555C19.1102 17.3328 19.1102 17.3328 19.3325 17.3328H20.2214C20.4436 17.3328 20.4436 17.555 20.4436 17.555V18.8883H22.2214C22.4436 18.8883 22.4436 18.8883 22.4436 19.1106V20.2217Z" fill="#CB1B5B"/>
<path d="M31.7747 25.5547C31.7747 25.7769 31.5525 25.9991 31.3303 25.9991C31.1081 25.9991 30.8859 25.7769 30.8859 25.5547C30.8859 25.1102 30.4414 24.6658 29.7747 24.6658C29.3303 24.6658 28.6636 25.1102 28.4414 25.7769C28.4414 25.9991 28.2192 26.2214 27.997 26.2214C27.7747 26.2214 27.5525 25.9991 27.5525 25.7769C27.7747 24.888 28.4414 24.2214 29.1081 23.9991V17.3325H27.997V17.7769C27.997 17.9991 27.7747 18.2214 27.5525 18.2214H26.8859C26.6636 18.2214 26.4414 17.9991 26.4414 17.7769V15.9991C26.4414 15.7769 26.6636 15.5547 26.8859 15.5547H27.5525C27.7747 15.5547 27.997 15.7769 27.997 15.9991V16.2214H29.7747C29.997 16.2214 30.2192 16.4436 30.2192 16.6658V23.7769C31.1081 24.2214 31.7747 24.888 31.7747 25.5547Z" fill="#CB1B5B"/>
<path d="M13.1077 15.9991V17.7769C13.1077 17.9991 12.8855 18.2214 12.6633 18.2214H12.2188C11.7744 18.2214 11.7744 17.9991 11.7744 17.7769V17.3325H10.6633V23.7769C10.8855 23.7769 11.1077 23.7769 11.3299 23.7769C11.5522 23.7769 11.7744 24.2214 11.5522 24.4436C11.5522 24.6658 11.3299 24.888 11.1077 24.6658C10.4411 24.4436 9.77439 24.6658 9.55217 25.3325C9.32994 25.7769 9.55217 26.4436 9.99661 26.6658C10.2188 26.888 10.2188 27.1102 9.99661 27.3325C9.99661 27.5547 9.77439 27.5547 9.55217 27.5547H9.32994C8.66328 26.888 8.21883 25.9991 8.66328 25.1102C8.8855 24.6658 9.10772 24.4436 9.55217 24.2214V16.888C9.55217 16.6658 9.77439 16.4436 9.99661 16.4436H11.7744V15.9991C11.7744 15.7769 11.7744 15.5547 12.2188 15.5547H12.8855C12.8855 15.5547 13.1077 15.7769 13.1077 15.9991Z" fill="#CB1B5B"/>
<path d="M14.2205 27.7769H12.6649V26.6658C12.6649 26.2214 12.2205 25.5547 11.5538 25.5547H9.77604C9.77604 25.7769 9.77604 25.9991 9.99826 26.2214C9.99826 26.4436 10.2205 26.4436 10.2205 26.6658C10.6649 26.6658 11.1094 26.6658 11.5538 26.6658V27.7769H8.44271V27.5547V26.6658C8.22049 26.2214 8.22049 25.9991 8.22049 25.5547C7.77604 25.5547 7.3316 25.9991 7.3316 26.4436V27.5547H5.77604C5.3316 27.5547 5.10938 27.7769 5.10938 28.2214V33.5547C5.10938 33.9991 5.3316 34.2214 5.77604 34.2214H14.2205C14.6649 34.2214 14.8872 33.9991 14.8872 33.5547V28.2214C14.8872 27.9991 14.6649 27.7769 14.2205 27.7769ZM11.5538 31.3325C11.5538 31.3325 11.3316 31.5547 11.5538 31.3325L10.4427 31.5547V32.4436C10.4427 32.4436 10.4427 32.6658 10.2205 32.6658H9.77604C9.77604 32.6658 9.55382 32.6658 9.55382 32.4436V31.5547H8.66493C8.66493 31.5547 8.44271 31.5547 8.44271 31.3325V30.6658C8.44271 30.6658 8.44271 30.4436 8.66493 30.4436H9.55382V29.5547C9.55382 29.5547 9.55382 29.3325 9.77604 29.3325H10.2205C10.2205 29.3325 10.4427 29.3325 10.4427 29.5547V30.4436H11.3316C11.3316 30.4436 11.5538 30.4436 11.5538 30.6658V31.3325Z" fill="#CB1B5B"/>
<path d="M18.2222 27.1107V32.8885C18.8889 33.1107 19.3333 33.5551 19.3333 34.2218H16C16 33.5551 16.4444 32.8885 17.1111 32.8885V27.1107H16.6667C16.2222 27.1107 16 26.8885 16 26.6662V25.7773H19.3333V26.6662C19.3333 26.8885 19.1111 27.1107 18.8889 27.1107H18.2222Z" fill="#CB1B5B"/>
<path d="M22.8863 27.1107V32.8885C23.553 33.1107 23.9974 33.5551 23.9974 34.2218H20.6641C20.6641 33.5551 21.1085 32.8885 21.7752 32.8885V27.1107H21.3307C21.1085 27.1107 20.8863 26.8885 20.8863 26.6662V25.7773H24.2196V26.6662C24.2196 26.8885 23.9974 27.1107 23.553 27.1107H22.8863Z" fill="#CB1B5B"/>
</svg>
