<svg width="21" height="21" viewBox="0 0 21 21" fill="none" xmlns="http://www.w3.org/2000/svg">
<path d="M20.1443 5.46336C20.0067 4.13148 19.5021 2.95269 18.5084 2.00354C17.4688 1.00846 16.1998 0.564498 14.7932 0.487953C12.4082 0.365482 6.76667 0.273628 4.77914 0.595116C2.51641 0.962531 1.03342 2.29441 0.406585 4.52952C-0.0826528 6.25943 0.0243568 14.2048 0.299553 15.9041C0.68177 18.231 2.05776 19.7313 4.36635 20.3284C5.95637 20.7417 13.7995 20.6805 15.573 20.4049C17.8968 20.0222 19.3951 18.6597 20.0067 16.348C20.4806 14.5875 20.3124 7.0708 20.1443 5.46336ZM18.2943 15.5979C18.0191 17.3737 16.8572 18.4607 15.0684 18.6597C13.4325 18.8434 6.15513 18.9352 4.64155 18.5066C3.18912 18.1086 2.36353 17.0982 2.11891 15.6438C1.88958 14.2507 1.82843 7.28513 2.11891 5.41744C2.37882 3.65691 3.55604 2.56997 5.32953 2.37095C7.11831 2.17194 13.5701 2.14132 15.2825 2.41688C17.0407 2.69244 18.1415 3.87123 18.3402 5.64707C18.5084 7.30044 18.5542 13.8067 18.2943 15.5979ZM10.2066 5.32558C7.34764 5.32558 5.02376 7.65254 5.00847 10.5153C5.00847 13.3781 7.33235 15.7051 10.1913 15.7204C13.0503 15.7204 15.3742 13.3934 15.3895 10.5306C15.3895 7.65254 13.0656 5.32558 10.2066 5.32558ZM10.1608 13.868C8.31083 13.8527 6.81254 12.3371 6.84312 10.4847C6.85841 8.63232 8.37199 7.13204 10.2219 7.16266C12.0718 7.17797 13.5701 8.69355 13.5396 10.5459C13.5396 12.3983 12.0107 13.8833 10.1608 13.868ZM16.8113 5.12657C16.8113 5.80016 16.2609 6.33597 15.5882 6.33597C14.9155 6.33597 14.3804 5.78485 14.3804 5.11126C14.3804 4.43766 14.9308 3.90185 15.6035 3.90185C16.2609 3.90185 16.8113 4.45297 16.8113 5.12657Z" fill="white"/>
</svg>
