<svg width="32" height="32" viewBox="0 0 32 32" fill="none" xmlns="http://www.w3.org/2000/svg">
<g id="Mask group">
<mask id="mask0_143_9194" style="mask-type:alpha" maskUnits="userSpaceOnUse" x="0" y="0" width="32" height="32">
<rect id="Rectangle 70298" width="32" height="32" fill="#D9D9D9"/>
</mask>
<g mask="url(#mask0_143_9194)">
<g id="Group 40620">
<g id="Group">
<path id="Vector" d="M25.6166 11.2249C25.4753 9.85728 24.9572 8.64686 23.9368 7.67224C22.8693 6.65045 21.5663 6.19458 20.122 6.11598C17.6729 5.99023 11.88 5.89591 9.83918 6.22602C7.51574 6.6033 5.99296 7.97091 5.34931 10.266C4.84694 12.0423 4.95682 20.2008 5.2394 21.9457C5.63188 24.3351 7.04478 25.8757 9.41532 26.4887C11.048 26.9132 19.1015 26.8503 20.9226 26.5673C23.3088 26.1743 24.8473 24.7753 25.4753 22.4016C25.962 20.5938 25.7893 12.8755 25.6166 11.2249ZM23.717 21.6313C23.4344 23.4548 22.2413 24.5709 20.4045 24.7753C18.7248 24.9639 11.2521 25.0582 9.6979 24.6181C8.2065 24.2094 7.35876 23.1719 7.10758 21.6785C6.87209 20.248 6.8093 13.0955 7.10758 11.1777C7.37446 9.36996 8.58327 8.25387 10.4043 8.04951C12.2411 7.84515 18.8661 7.81371 20.6243 8.09667C22.4297 8.37962 23.56 9.59004 23.7641 11.4135C23.9368 13.1113 23.9839 19.7921 23.717 21.6313ZM15.4123 11.0834C12.4766 11.0834 10.0904 13.4728 10.0747 16.4124C10.0747 19.352 12.4609 21.7414 15.3966 21.7571C18.3323 21.7571 20.7185 19.3677 20.7342 16.4281C20.7342 13.4728 18.348 11.0834 15.4123 11.0834ZM15.3652 19.855C13.4656 19.8393 11.9271 18.283 11.9585 16.381C11.9742 14.4789 13.5284 12.9383 15.428 12.9698C17.3276 12.9855 18.8661 14.5418 18.8347 16.4438C18.8347 18.3459 17.2648 19.8707 15.3652 19.855ZM22.1942 10.8791C22.1942 11.5707 21.6291 12.1209 20.9383 12.1209C20.2476 12.1209 19.6981 11.555 19.6981 10.8633C19.6981 10.1717 20.2633 9.62148 20.954 9.62148C21.6291 9.62148 22.1942 10.1874 22.1942 10.8791Z" fill="url(#paint0_linear_143_9194)"/>
</g>
</g>
</g>
</g>
<defs>
<linearGradient id="paint0_linear_143_9194" x1="15.3967" y1="6" x2="15.3967" y2="26.7933" gradientUnits="userSpaceOnUse">
<stop stop-color="#514BD7"/>
<stop offset="0.213542" stop-color="#793CC7"/>
<stop offset="0.453125" stop-color="#E22372"/>
<stop offset="0.697917" stop-color="#F55244"/>
<stop offset="0.989583" stop-color="#FDC74B"/>
</linearGradient>
</defs>
</svg>
