<svg width="21" height="21" viewBox="0 0 21 21" fill="none" xmlns="http://www.w3.org/2000/svg">
<path d="M20.0779 5.08836C19.9403 3.75648 19.4357 2.57769 18.442 1.62854C17.4023 0.633458 16.1334 0.189498 14.7268 0.112953C12.3418 -0.00951831 6.70026 -0.101372 4.71273 0.220116C2.45001 0.587531 0.967015 1.91941 0.340179 4.15452C-0.149059 5.88443 -0.0420495 13.8298 0.233147 15.5291C0.615364 17.856 1.99135 19.3563 4.29994 19.9534C5.88997 20.3667 13.7331 20.3055 15.5066 20.0299C17.8304 19.6472 19.3287 18.2847 19.9403 15.973C20.4142 14.2125 20.246 6.6958 20.0779 5.08836ZM18.2279 15.2229C17.9527 16.9987 16.7908 18.0857 15.002 18.2847C13.3661 18.4684 6.08872 18.5602 4.57514 18.1316C3.12271 17.7336 2.29712 16.7232 2.0525 15.2688C1.82317 13.8757 1.76202 6.91013 2.0525 5.04244C2.31241 3.28191 3.48964 2.19497 5.26313 1.99595C7.0519 1.79694 13.5037 1.76632 15.2161 2.04188C16.9743 2.31744 18.075 3.49623 18.2738 5.27207C18.442 6.92544 18.4878 13.4317 18.2279 15.2229ZM10.1402 4.95058C7.28124 4.95058 4.95735 7.27754 4.94206 10.1403C4.94206 13.0031 7.26594 15.3301 10.1249 15.3454C12.9839 15.3454 15.3078 13.0184 15.3231 10.1556C15.3231 7.27754 12.9992 4.95058 10.1402 4.95058ZM10.0944 13.493C8.24442 13.4777 6.74614 11.9621 6.77671 10.1097C6.792 8.25732 8.30558 6.75704 10.1555 6.78766C12.0054 6.80297 13.5037 8.31855 13.4732 10.1709C13.4732 12.0233 11.9443 13.5083 10.0944 13.493ZM16.7449 4.75157C16.7449 5.42516 16.1945 5.96097 15.5218 5.96097C14.8491 5.96097 14.314 5.40985 14.314 4.73626C14.314 4.06266 14.8644 3.52685 15.5371 3.52685C16.1945 3.52685 16.7449 4.07797 16.7449 4.75157Z" fill="url(#paint0_linear_455_11111)"/>
<defs>
<linearGradient id="paint0_linear_455_11111" x1="10.125" y1="0" x2="17" y2="19" gradientUnits="userSpaceOnUse">
<stop stop-color="#7642CA"/>
<stop offset="1" stop-color="#CE3A9F"/>
</linearGradient>
</defs>
</svg>
