<svg width="16" height="14" viewBox="0 0 16 14" fill="none" xmlns="http://www.w3.org/2000/svg">
<path d="M13.4229 13.1333H2.57847C1.77847 13.1333 1.15625 12.5111 1.15625 11.7111V4.59996C1.15625 3.79996 1.77847 3.17773 2.57847 3.17773H13.4229C14.2229 3.17773 14.8451 3.79996 14.8451 4.59996V11.7111C14.8451 12.4222 14.2229 13.1333 13.4229 13.1333Z" stroke="#65626C" stroke-miterlimit="10"/>
<path d="M2.40234 6.11133L7.46901 7.71133C7.82457 7.80022 8.18012 7.80022 8.44679 7.71133L13.4246 6.20022" stroke="#65626C" stroke-miterlimit="10" stroke-linecap="round"/>
<path d="M10.7563 3.00052H5.15625V1.93385C5.15625 1.31163 5.60069 0.867188 6.22292 0.867188H9.60069C10.2229 0.867188 10.6674 1.31163 10.6674 1.93385V3.00052H10.7563Z" stroke="#65626C" stroke-miterlimit="10" stroke-linecap="round"/>
</svg>
