<svg width="15" height="14" viewBox="0 0 15 14" fill="none" xmlns="http://www.w3.org/2000/svg">
<path d="M5.49028 9.30994C5.49028 9.39883 5.49028 9.39883 5.49028 9.48772C5.49028 10.4655 5.49028 11.4433 5.49028 12.4211C5.49028 13.0433 5.04583 13.4877 4.42361 13.4877C4.06806 13.4877 3.80139 13.4877 3.44583 13.4877C2.82361 13.4877 2.37917 13.0433 2.37917 12.4211C2.37917 11.4433 2.37917 10.4655 2.37917 9.48772C2.37917 9.39883 2.37917 9.39883 2.37917 9.30994C2.29028 9.30994 2.20139 9.30994 2.1125 9.30994C1.66806 9.22105 1.3125 8.86549 1.3125 8.33216C1.3125 7.35438 1.3125 6.28772 1.3125 5.30994C1.3125 4.50994 2.02361 3.79883 2.82361 3.79883C3.53472 3.79883 4.33472 3.79883 5.04583 3.79883C5.93472 3.79883 6.55694 4.50994 6.55694 5.30994C6.55694 6.28772 6.55694 7.26549 6.55694 8.24327C6.55694 8.86549 6.20139 9.22105 5.57917 9.30994C5.57917 9.30994 5.57917 9.30994 5.49028 9.30994Z" stroke="#65626C" stroke-miterlimit="10" stroke-linejoin="round"/>
<path d="M5.49097 2.28846C5.49097 3.08846 4.77986 3.79957 3.97986 3.79957C3.17986 3.79957 2.46875 3.08846 2.46875 2.28846C2.46875 1.48845 3.17986 0.777344 3.97986 0.777344C4.86875 0.777344 5.49097 1.48845 5.49097 2.28846Z" stroke="#65626C" stroke-miterlimit="10"/>
<path d="M13.6694 3.79957C13.6694 5.48846 12.3361 6.82179 10.6472 6.82179C8.95833 6.82179 7.625 5.48846 7.625 3.79957C7.625 2.11068 8.95833 0.777344 10.6472 0.777344C12.3361 0.777344 13.6694 2.11068 13.6694 3.79957Z" stroke="#65626C" stroke-miterlimit="10"/>
<path d="M10.6445 2.02148C10.6445 2.64371 10.6445 3.26593 10.6445 3.88815C11.089 4.15482 11.5334 4.51037 11.9779 4.77704" stroke="#65626C" stroke-miterlimit="10" stroke-linecap="round" stroke-linejoin="round"/>
</svg>
