<svg width="48" height="48" viewBox="0 0 48 48" fill="none" xmlns="http://www.w3.org/2000/svg">
<path d="M27.7332 35.4659V39.9992H4.7999C3.46657 39.9992 2.3999 38.9326 2.3999 37.5992V36.5326C2.3999 35.7326 2.93324 35.1992 3.73324 35.1992H27.7332V35.4659Z" stroke="#CB1B5B" stroke-width="1.5" stroke-miterlimit="10"/>
<path d="M45.6 36.8001V37.8668C45.6 38.9335 45.0667 39.7335 44 40.0001V35.4668H44.2667C45.0667 35.4668 45.6 36.0001 45.6 36.8001Z" stroke="#CB1B5B" stroke-width="1.5" stroke-miterlimit="10"/>
<path d="M42.3998 9.30599V17.306C42.1332 17.306 42.1332 17.306 42.1332 17.306H29.8665C29.8665 17.306 28.7999 17.306 28.2665 17.8393C27.7332 18.3727 27.7332 18.906 27.7332 19.1727V34.6393H5.59985V9.30599C5.59985 8.50599 6.13319 7.97266 6.93319 7.97266H41.0665C41.8665 7.97266 42.3998 8.50599 42.3998 9.30599Z" stroke="#CB1B5B" stroke-width="1.5" stroke-miterlimit="10"/>
<path d="M43.4667 45.3337C42.9334 45.8671 42.1334 46.1337 42.1334 46.1337H29.8667C29.8667 46.1337 29.0667 46.1337 28.2667 45.6004C27.7334 45.0671 27.7334 44.2671 27.7334 44.2671V20.2671C27.7334 20.0004 27.7334 19.4671 28.2667 18.9337C28.8001 18.4004 29.6001 18.4004 29.8667 18.4004H42.1334H42.4001C42.6667 18.4004 42.9334 18.6671 43.2001 18.9337C44.0001 19.4671 44.0001 20.2671 44.0001 20.5337V44.0004C44.0001 43.7337 44.0001 44.5337 43.4667 45.3337Z" stroke="#CB1B5B" stroke-width="1.5" stroke-miterlimit="10"/>
<path d="M34.3999 20.8008C35.4666 20.8008 36.5332 20.8008 37.5999 20.8008" stroke="#CB1B5B" stroke-width="1.5" stroke-miterlimit="10" stroke-linecap="round"/>
<path d="M32.2667 28C32.2667 28.2667 32 28.2667 32 28.5333C32 30.9333 32 33.0667 32 35.4667C32 35.7333 32 35.7333 32.2667 36C33.6 34.6667 34.9333 33.3333 36.2667 32C34.9333 30.6667 33.6 29.3333 32.2667 28ZM32.8 36.2667C33.0667 36.2667 33.3333 36.2667 33.3333 36.2667C34.9333 35.4667 36.2667 34.6667 37.8667 33.8667C37.3333 33.3333 37.0667 33.0667 36.5333 32.5333C35.2 33.6 33.8667 34.9333 32.8 36.2667ZM37.0667 32C37.6 32.5333 37.8667 32.8 38.4 33.3333C38.6667 33.0667 39.2 33.0667 39.4667 32.8C39.7333 32.5333 40 32.2667 40 32C40 31.7333 39.7333 31.4667 39.4667 31.2C39.2 30.9333 38.6667 30.9333 38.4 30.6667C38.1333 30.9333 37.8667 31.2 37.6 31.4667C37.3333 31.7333 37.0667 31.7333 37.0667 32Z" fill="#CB1B5B"/>
<path d="M33.0667 27.7324C33.3334 27.7324 33.3334 27.9991 33.6 27.9991C34.9334 28.7991 36.2667 29.5991 37.8667 30.3991C37.3334 30.9324 37.0667 31.1991 36.5334 31.7324C35.2 30.3991 33.8667 29.0658 32.8 27.9991C32.8 27.7324 32.8 27.7324 33.0667 27.7324C32.8 27.7324 32.8 27.7324 33.0667 27.7324Z" fill="#CB1B5B"/>
<path d="M32.2667 28C33.6 29.3333 34.9333 30.6667 36.2667 32C34.9333 33.3333 33.6 34.6667 32.2667 36C32.2667 36 32 35.7333 32 35.4667C32 33.0667 32 30.9333 32 28.5333C32 28.5333 32 28.2667 32.2667 28Z" fill="#CB1B5B"/>
<path d="M32.8 36.2656C34.1334 34.9323 35.4667 33.599 36.8 32.2656C37.3334 32.799 37.6 33.0656 38.1334 33.599C36.5334 34.399 35.2 35.199 33.6 35.999C33.0667 36.2656 32.8 36.2656 32.8 36.2656Z" fill="#CB1B5B"/>
<path d="M37.0667 31.9993C37.3333 31.7327 37.3333 31.7327 37.6 31.466C37.8667 31.1993 38.1333 30.9327 38.4 30.666C38.6667 30.9327 39.2 30.9327 39.4667 31.1993C39.7333 31.466 40 31.7327 40 31.9993C40 32.266 39.7333 32.5327 39.4667 32.7993C39.2 33.066 38.6667 33.066 38.4 33.3327C37.8667 32.7993 37.3333 32.5327 37.0667 31.9993Z" fill="#CB1B5B"/>
</svg>
