<svg width="21" height="21" viewBox="0 0 21 21" fill="none" xmlns="http://www.w3.org/2000/svg">
<path d="M0.754712 7.23434H4.95764V20.2012H0.754712V7.23434ZM2.8638 0.794922C4.20874 0.794922 5.29388 1.83638 5.29388 3.12719C5.29388 4.41801 4.20874 5.45946 2.8638 5.45946C1.51887 5.45946 0.433751 4.41801 0.433751 3.12719C0.418468 1.83638 1.51887 0.794922 2.8638 0.794922Z" fill="white"/>
<path d="M7.60902 7.23677H11.6286V9.01164H11.6897C12.2552 7.98485 13.6154 6.91406 15.6634 6.91406C19.9122 6.91406 20.6916 9.59837 20.6916 13.0894V20.2036H16.5039V13.8962C16.5039 12.3854 16.4734 10.4638 14.3184 10.4638C12.1329 10.4638 11.7967 12.1067 11.7967 13.7935V20.2036H7.59375V7.23677H7.60902Z" fill="white"/>
</svg>
