<svg width="21" height="20" viewBox="0 0 21 20" fill="none" xmlns="http://www.w3.org/2000/svg">
<path d="M0.321119 6.43941H4.52405V19.4062H0.321119V6.43941ZM2.43021 0C3.77515 0 4.86028 1.04145 4.86028 2.33227C4.86028 3.62309 3.77515 4.66454 2.43021 4.66454C1.08527 4.66454 0.000157303 3.62309 0.000157303 2.33227C-0.0151261 1.04145 1.08527 0 2.43021 0Z" fill="#0077B5"/>
<path d="M7.17543 6.44184H11.195V8.21672H11.2561C11.8216 7.18993 13.1818 6.11914 15.2298 6.11914C19.4786 6.11914 20.258 8.80345 20.258 12.2945V19.4087H16.0703V13.1013C16.0703 11.5904 16.0398 9.66889 13.8848 9.66889C11.6993 9.66889 11.3631 11.3117 11.3631 12.9986V19.4087H7.16016V6.44184H7.17543Z" fill="#0077B5"/>
</svg>
