<svg width="14" height="16" viewBox="0 0 14 16" fill="none" xmlns="http://www.w3.org/2000/svg">
<path d="M12.5099 5.33411C12.1544 3.37856 10.5544 1.423 8.15436 0.88967C7.79881 0.88967 7.44325 0.800781 7.0877 0.800781H6.99881C6.64325 0.800781 6.2877 0.800781 5.84325 0.88967C3.53214 1.423 1.93214 3.37856 1.4877 5.33411C1.04325 7.91189 2.55436 9.77856 2.73214 10.0452C3.79881 11.3786 4.95436 12.623 6.02103 13.9563C6.37659 14.4008 6.64325 14.7563 6.99881 15.1119C7.35436 14.7563 7.62103 14.4008 7.97659 13.9563C9.04325 12.623 10.1988 11.3786 11.2655 10.0452C11.5321 9.77856 13.0433 7.91189 12.5099 5.33411ZM7.0877 9.68967C5.22103 9.68967 3.70992 8.17856 3.70992 6.31189C3.70992 4.44523 5.13214 2.93411 6.99881 2.93411H7.0877C8.95436 2.93411 10.3766 4.44523 10.3766 6.31189C10.3766 8.17856 8.86548 9.60078 7.0877 9.68967Z" stroke="#65626C" stroke-miterlimit="10" stroke-linecap="round" stroke-linejoin="round"/>
</svg>
