<svg width="274" height="78" viewBox="0 0 274 78" fill="none" xmlns="http://www.w3.org/2000/svg">
<g clip-path="url(#clip0_1057_2265)">
<path d="M166.47 62.5969C166.47 63.0243 166.587 63.3351 166.781 63.5294C166.975 63.7626 167.286 63.8791 167.714 63.8791C168.063 63.8791 168.335 63.8014 168.568 63.6848C168.802 63.5683 168.996 63.374 169.112 63.1797C169.229 62.9466 169.268 62.6746 169.268 62.3637C169.268 62.1306 169.229 61.9752 169.151 61.7809C169.074 61.6255 168.957 61.4701 168.802 61.3146C168.646 61.1592 168.452 61.0038 168.141 60.7707C167.869 60.6152 167.675 60.421 167.481 60.2655C167.325 60.0712 167.17 59.877 167.053 59.6827C166.975 59.4496 166.898 59.2164 166.898 58.9444C166.898 58.517 167.014 58.1673 167.209 57.8565C167.403 57.5068 167.714 57.2736 168.063 57.0793C168.452 56.9239 168.879 56.8462 169.384 56.8462C169.695 56.8462 170.006 56.8462 170.278 56.8851C170.55 56.9239 170.861 57.0016 171.211 57.1182L170.9 58.517H170.395C170.395 58.2062 170.356 57.973 170.278 57.7788C170.2 57.6233 170.084 57.5068 169.928 57.429C169.773 57.3513 169.579 57.3125 169.346 57.3125C169.035 57.3125 168.763 57.3513 168.568 57.4679C168.335 57.6233 168.141 57.7788 168.025 57.973C167.908 58.2062 167.869 58.4393 167.869 58.6724C167.869 58.8667 167.908 59.0221 167.947 59.1776C168.025 59.333 168.141 59.4884 168.258 59.605C168.413 59.7604 168.607 59.9158 168.879 60.1101C169.229 60.3432 169.501 60.5764 169.695 60.7707C169.89 60.9649 170.006 61.1592 170.084 61.3535C170.2 61.5866 170.239 61.8198 170.239 62.1306C170.239 62.558 170.123 62.9466 169.928 63.2574C169.695 63.6071 169.423 63.8791 169.035 64.0734C168.646 64.2288 168.219 64.3454 167.714 64.3454C167.403 64.3454 167.053 64.3065 166.665 64.2677C166.276 64.19 165.965 64.1511 165.654 64.0734L165.965 62.5969H166.47ZM173.814 57.0016L173.581 58.0507H172.609L172.881 57.0016H173.814ZM172.493 62.9077C172.454 63.102 172.415 63.2186 172.415 63.2963C172.415 63.374 172.415 63.4517 172.415 63.5294C172.415 63.6071 172.415 63.7237 172.454 63.7626C172.493 63.8403 172.532 63.8791 172.609 63.918C172.687 63.9568 172.804 63.9568 172.998 63.9957L172.959 64.2288H171.288L172.104 60.6152C172.143 60.421 172.182 60.2655 172.182 60.149C172.221 59.9935 172.221 59.9158 172.221 59.8381C172.221 59.7215 172.182 59.6438 172.182 59.5661C172.143 59.5273 172.066 59.4884 172.027 59.4496C171.949 59.4107 171.832 59.4107 171.638 59.4107L171.716 59.0999L172.998 59.061H173.309L172.493 62.9077ZM178.865 64.2288H177.156L177.855 61.5089C177.894 61.3535 177.933 61.1592 177.972 60.9261C178.01 60.7318 178.049 60.5375 178.049 60.3821C178.049 60.1101 177.972 59.9158 177.894 59.8381C177.816 59.7215 177.661 59.6438 177.505 59.6438C177.35 59.6438 177.194 59.7215 177 59.8381C176.845 59.9547 176.651 60.1101 176.456 60.3432C176.262 60.5764 176.107 60.8095 175.99 61.0426C175.835 61.2758 175.757 61.5866 175.679 61.9363L175.174 64.2288H174.241L175.057 60.5764C175.096 60.4987 175.096 60.3821 175.135 60.2267C175.174 60.0712 175.174 59.9158 175.174 59.7993C175.174 59.7215 175.174 59.6438 175.135 59.5661C175.096 59.5273 175.057 59.4884 174.98 59.4496C174.902 59.4107 174.785 59.4107 174.63 59.4107L174.669 59.0999L175.912 59.061H176.223L175.835 60.4598L175.912 60.4987C176.262 59.9935 176.612 59.605 176.923 59.3718C177.272 59.1387 177.583 59.0221 177.894 59.0221C178.244 59.0221 178.516 59.1387 178.71 59.333C178.865 59.4884 178.943 59.7993 178.943 60.149C178.943 60.3044 178.943 60.421 178.943 60.5764C178.904 60.7318 178.865 60.8872 178.865 61.0038L178.399 62.9077C178.321 63.1797 178.321 63.374 178.321 63.5294C178.321 63.6071 178.321 63.7237 178.36 63.7626C178.399 63.8403 178.438 63.8791 178.516 63.918C178.593 63.9568 178.71 63.9568 178.904 63.9957L178.865 64.2288ZM183.606 60.421C183.606 60.149 183.606 59.9158 183.567 59.7993C183.528 59.6827 183.45 59.605 183.373 59.5273C183.295 59.4884 183.178 59.4496 183.023 59.4496C182.673 59.4496 182.323 59.605 182.051 59.877C181.741 60.149 181.507 60.5764 181.352 61.1204C181.158 61.6255 181.08 62.1306 181.08 62.6357C181.08 62.7912 181.08 62.9077 181.119 63.0632C181.119 63.1797 181.158 63.2963 181.236 63.4129C181.313 63.4906 181.391 63.5683 181.507 63.6071C181.624 63.6848 181.741 63.7237 181.935 63.7237C182.246 63.7237 182.518 63.646 182.751 63.5294C183.023 63.4129 183.256 63.2186 183.528 62.9466L183.839 63.2574C183.528 63.646 183.178 63.918 182.829 64.0734C182.479 64.2677 182.129 64.3454 181.741 64.3454C181.197 64.3454 180.808 64.19 180.536 63.8791C180.264 63.5683 180.148 63.1409 180.148 62.5192C180.148 62.1695 180.225 61.7421 180.342 61.2758C180.497 60.8095 180.692 60.421 181.002 60.0712C181.274 59.7215 181.585 59.4496 181.935 59.2941C182.323 59.0999 182.712 59.0221 183.139 59.0221C183.411 59.0221 183.683 59.061 183.878 59.061C184.111 59.0999 184.305 59.1387 184.461 59.1776L184.189 60.421H183.606ZM188.774 63.1797C188.502 63.4517 188.23 63.6848 187.996 63.8791C187.763 64.0345 187.491 64.1511 187.258 64.2288C187.025 64.3065 186.753 64.3454 186.442 64.3454C186.17 64.3454 185.937 64.3065 185.743 64.19C185.51 64.1123 185.354 63.9957 185.238 63.8014C185.082 63.646 185.005 63.4906 184.927 63.2574C184.849 63.0243 184.81 62.7912 184.81 62.5192C184.81 62.1695 184.888 61.7421 185.043 61.3146C185.16 60.8484 185.393 60.4598 185.665 60.1101C185.937 59.7604 186.287 59.4884 186.675 59.2941C187.064 59.0999 187.452 59.0221 187.919 59.0221C188.346 59.0221 188.657 59.0999 188.89 59.2941C189.084 59.4496 189.201 59.7215 189.201 60.1101C189.201 60.7318 188.929 61.1592 188.346 61.4701C187.763 61.7809 186.947 61.9363 185.82 61.9363C185.782 62.1306 185.743 62.3637 185.743 62.6357C185.743 63.0243 185.82 63.2963 185.976 63.4517C186.092 63.6071 186.364 63.7237 186.675 63.7237C187.025 63.7237 187.297 63.646 187.569 63.4906C187.841 63.3351 188.113 63.1409 188.424 62.83L188.774 63.1797ZM185.898 61.4701C186.248 61.4701 186.52 61.4701 186.753 61.4312C187.025 61.3923 187.219 61.3535 187.414 61.2758C187.569 61.2369 187.724 61.1592 187.841 61.0815C187.958 61.0038 188.074 60.8872 188.152 60.8095C188.191 60.6929 188.268 60.5764 188.268 60.4987C188.307 60.3821 188.307 60.2655 188.307 60.149C188.307 59.9158 188.268 59.7604 188.152 59.6438C188.074 59.5273 187.919 59.4496 187.724 59.4496C187.452 59.4496 187.219 59.5273 186.986 59.7215C186.753 59.9158 186.52 60.149 186.326 60.4598C186.17 60.7707 186.015 61.0815 185.898 61.4701ZM191.532 59.061H191.882L191.493 60.3821L191.571 60.421C191.882 59.9547 192.232 59.605 192.543 59.3718C192.892 59.1387 193.203 59.0221 193.553 59.0221C193.825 59.0221 194.019 59.061 194.213 59.0999L193.941 60.3044H193.397C193.359 60.1101 193.32 59.9547 193.281 59.877C193.203 59.7604 193.125 59.7215 192.97 59.7215C192.853 59.7215 192.698 59.7993 192.504 59.9158C192.309 60.0712 192.115 60.2655 191.96 60.5375C191.765 60.7707 191.61 61.0038 191.532 61.2369C191.416 61.4312 191.338 61.6643 191.299 61.9363L190.794 64.2288H189.862L190.677 60.5764C190.755 60.2267 190.794 59.9935 190.794 59.7993C190.794 59.7215 190.794 59.6438 190.755 59.5661C190.716 59.5273 190.677 59.4884 190.6 59.4496C190.522 59.4107 190.405 59.4107 190.25 59.4107L190.289 59.0999L191.532 59.061ZM198.138 63.1797C197.905 63.4517 197.633 63.6848 197.4 63.8791C197.166 64.0345 196.894 64.1511 196.661 64.2288C196.428 64.3065 196.156 64.3454 195.845 64.3454C195.573 64.3454 195.34 64.3065 195.107 64.19C194.913 64.1123 194.757 63.9957 194.602 63.8014C194.485 63.646 194.369 63.4906 194.33 63.2574C194.252 63.0243 194.213 62.7912 194.213 62.5192C194.213 62.1695 194.291 61.7421 194.447 61.3146C194.563 60.8484 194.796 60.4598 195.068 60.1101C195.34 59.7604 195.651 59.4884 196.078 59.2941C196.467 59.0999 196.856 59.0221 197.322 59.0221C197.749 59.0221 198.06 59.0999 198.293 59.2941C198.488 59.4496 198.604 59.7215 198.604 60.1101C198.604 60.7318 198.332 61.1592 197.749 61.4701C197.166 61.7809 196.35 61.9363 195.224 61.9363C195.146 62.1306 195.146 62.3637 195.146 62.6357C195.146 63.0243 195.224 63.2963 195.379 63.4517C195.496 63.6071 195.768 63.7237 196.078 63.7237C196.428 63.7237 196.7 63.646 196.972 63.4906C197.244 63.3351 197.516 63.1409 197.827 62.83L198.138 63.1797ZM195.301 61.4701C195.612 61.4701 195.923 61.4701 196.156 61.4312C196.428 61.3923 196.622 61.3535 196.817 61.2758C196.972 61.2369 197.128 61.1592 197.244 61.0815C197.361 61.0038 197.477 60.8872 197.516 60.8095C197.594 60.6929 197.672 60.5764 197.672 60.4987C197.71 60.3821 197.71 60.2655 197.71 60.149C197.71 59.9158 197.672 59.7604 197.555 59.6438C197.477 59.5273 197.322 59.4496 197.128 59.4496C196.856 59.4496 196.622 59.5273 196.389 59.7215C196.117 59.9158 195.923 60.149 195.729 60.4598C195.534 60.7707 195.418 61.0815 195.301 61.4701ZM201.441 56.5742H201.751L200.353 62.9077C200.314 63.0632 200.314 63.2186 200.275 63.2963C200.275 63.374 200.275 63.4517 200.275 63.5294C200.275 63.6071 200.275 63.7237 200.314 63.7626C200.353 63.8403 200.43 63.8791 200.508 63.918C200.547 63.9568 200.702 63.9568 200.858 63.9957L200.819 64.2288H199.148L200.547 58.0896C200.547 57.9342 200.586 57.8176 200.586 57.7399C200.625 57.6622 200.625 57.5845 200.625 57.5068C200.625 57.429 200.663 57.3513 200.663 57.3125C200.663 57.1959 200.625 57.1182 200.586 57.0793C200.547 57.0016 200.508 56.9628 200.43 56.9628C200.353 56.9239 200.197 56.9239 200.042 56.8851L200.081 56.6131L201.441 56.5742ZM202.606 60.2655C202.567 59.9935 202.529 59.8381 202.49 59.7215C202.451 59.605 202.412 59.5273 202.334 59.4884C202.257 59.4107 202.14 59.3718 201.985 59.3718L202.062 59.0999H203.422L203.85 63.374C205.054 61.7421 205.676 60.5375 205.676 59.8381C205.676 59.6438 205.637 59.5273 205.559 59.4884C205.482 59.4107 205.365 59.3718 205.171 59.3718L205.248 59.0999H206.608L206.764 59.3718C206.57 59.877 206.336 60.3821 206.026 60.9261C205.754 61.4701 205.365 62.0529 204.938 62.6746C204.51 63.2963 204.044 63.9568 203.539 64.6562C203.111 65.2002 202.801 65.5888 202.529 65.8608C202.295 66.0551 202.101 66.2105 201.946 66.327C201.751 66.4048 201.596 66.4825 201.441 66.5213C201.246 66.599 201.091 66.599 200.897 66.599C200.78 66.599 200.702 66.599 200.547 66.5602C200.43 66.5602 200.353 66.5213 200.236 66.4825L200.469 65.5111H200.897C200.897 65.6276 200.935 65.7053 200.974 65.7831C201.052 65.8608 201.13 65.8996 201.207 65.8996C201.324 65.8996 201.441 65.8608 201.518 65.8608C201.596 65.8219 201.674 65.7831 201.79 65.7442C201.868 65.7053 201.985 65.5888 202.101 65.4722C202.257 65.3556 202.412 65.2002 202.567 65.0059C202.723 64.8117 202.917 64.5785 203.111 64.3065L202.606 60.2655ZM212.242 56.9239L212.165 57.1959C212.048 57.1959 211.932 57.2348 211.854 57.3125C211.776 57.3902 211.737 57.5068 211.737 57.6622C211.737 57.8565 211.776 58.1673 211.854 58.517L212.437 60.5375L213.758 58.789C213.952 58.517 214.108 58.2839 214.185 58.1673C214.263 58.0119 214.341 57.8565 214.38 57.7788C214.418 57.6622 214.418 57.5845 214.418 57.5068C214.418 57.429 214.38 57.3513 214.302 57.2736C214.263 57.2348 214.146 57.1959 214.03 57.1959L214.069 56.9239H216.089L216.05 57.1959C215.934 57.1959 215.856 57.2348 215.817 57.2736C215.74 57.2736 215.662 57.3513 215.584 57.429C215.506 57.5068 215.39 57.6233 215.273 57.7788C215.118 57.9342 214.962 58.1673 214.729 58.4393L212.631 61.1592L212.32 62.6746C212.281 62.83 212.242 62.9466 212.242 63.0243C212.242 63.102 212.242 63.1797 212.204 63.2963C212.204 63.374 212.204 63.4517 212.204 63.5294C212.204 63.646 212.204 63.7237 212.242 63.8014C212.281 63.8403 212.359 63.8791 212.398 63.918C212.476 63.9568 212.631 63.9568 212.786 63.9957L212.748 64.2288H210.455L210.533 63.9957C210.688 63.9568 210.766 63.918 210.844 63.918C210.921 63.8791 210.96 63.8014 211.038 63.7237C211.077 63.646 211.116 63.5294 211.193 63.374C211.232 63.2186 211.31 62.9854 211.349 62.6357L211.699 61.1592L210.921 58.4393C210.805 58.0507 210.688 57.7399 210.611 57.6233C210.572 57.4679 210.494 57.3513 210.416 57.3125C210.339 57.2348 210.222 57.1959 210.105 57.1959L210.144 56.9239H212.242ZM216.361 64.3454C215.817 64.3454 215.39 64.19 215.079 63.8791C214.768 63.5683 214.613 63.102 214.613 62.5192C214.613 62.3249 214.652 62.0529 214.69 61.7809C214.768 61.3923 214.885 61.0815 215.001 60.7707C215.157 60.421 215.351 60.1101 215.623 59.8381C215.856 59.5661 216.167 59.3718 216.478 59.2164C216.827 59.0999 217.177 59.0221 217.527 59.0221C217.954 59.0221 218.304 59.0999 218.537 59.2553C218.809 59.4107 219.003 59.6438 219.12 59.9158C219.237 60.1878 219.314 60.4987 219.314 60.8484C219.314 61.1592 219.275 61.5089 219.159 61.8586C219.042 62.4026 218.848 62.83 218.615 63.2186C218.343 63.5683 218.032 63.8791 217.682 64.0345C217.294 64.2288 216.866 64.3454 216.361 64.3454ZM215.584 62.7523C215.584 63.1409 215.662 63.4517 215.817 63.646C215.973 63.8014 216.206 63.918 216.556 63.918C216.905 63.918 217.216 63.7626 217.488 63.4517C217.76 63.1409 217.954 62.6746 218.11 62.1306C218.265 61.5478 218.343 61.0426 218.343 60.6152C218.343 60.2267 218.304 59.9547 218.149 59.7604C217.993 59.5661 217.76 59.4496 217.449 59.4496C217.061 59.4496 216.75 59.605 216.478 59.9158C216.167 60.2267 215.973 60.6929 215.817 61.2758C215.662 61.8586 215.584 62.3249 215.584 62.7523ZM220.558 59.0999H222.267L221.568 61.8586C221.529 62.0529 221.49 62.2472 221.451 62.4415C221.412 62.6357 221.412 62.83 221.412 62.9854C221.412 63.2574 221.451 63.4129 221.529 63.5294C221.607 63.646 221.762 63.7237 221.956 63.7237C222.073 63.7237 222.267 63.646 222.423 63.5294C222.617 63.4129 222.811 63.2186 223.006 62.9854C223.2 62.7134 223.355 62.4803 223.472 62.2472C223.588 62.014 223.705 61.7421 223.744 61.4312L224.249 59.0999H225.182L224.366 62.7912C224.327 62.8689 224.327 63.0243 224.288 63.1797C224.249 63.3351 224.249 63.4517 224.249 63.5683C224.249 63.6848 224.288 63.8014 224.366 63.8791C224.443 63.918 224.599 63.9568 224.832 63.9957L224.793 64.2288H223.239L223.588 62.9077L223.511 62.8689C223.161 63.374 222.811 63.7237 222.5 63.9957C222.19 64.2288 221.84 64.3454 221.529 64.3454C221.179 64.3454 220.907 64.2288 220.752 64.0345C220.558 63.8403 220.48 63.5683 220.48 63.1797C220.48 63.102 220.48 62.9466 220.48 62.83C220.519 62.6746 220.558 62.5192 220.597 62.3637L221.024 60.4598C221.063 60.3044 221.102 60.1878 221.102 60.0712C221.102 59.9935 221.14 59.9158 221.14 59.8381C221.14 59.6827 221.063 59.5661 220.985 59.4884C220.907 59.4496 220.752 59.4107 220.519 59.3718L220.558 59.0999ZM227.785 59.061H228.096L227.707 60.3821L227.785 60.421C228.135 59.9547 228.445 59.605 228.795 59.3718C229.106 59.1387 229.456 59.0221 229.767 59.0221C230.038 59.0221 230.272 59.061 230.427 59.0999L230.194 60.3044H229.611C229.611 60.1101 229.572 59.9547 229.495 59.877C229.417 59.7604 229.339 59.7215 229.223 59.7215C229.067 59.7215 228.912 59.7993 228.717 59.9158C228.562 60.0712 228.368 60.2655 228.173 60.5375C227.979 60.7707 227.824 61.0038 227.746 61.2369C227.629 61.4312 227.591 61.6643 227.513 61.9363L227.047 64.2288H226.114L226.93 60.5764C227.008 60.2267 227.047 59.9935 227.047 59.7993C227.047 59.7215 227.008 59.6438 226.969 59.5661C226.969 59.5273 226.891 59.4884 226.813 59.4496C226.775 59.4107 226.619 59.4107 226.464 59.4107L226.541 59.0999L227.785 59.061ZM233.652 60.3821C233.613 60.0324 233.536 59.7993 233.38 59.6438C233.225 59.5273 233.03 59.4496 232.72 59.4496C232.525 59.4496 232.409 59.4884 232.253 59.5273C232.137 59.605 232.02 59.6827 231.942 59.7993C231.865 59.9158 231.826 60.0712 231.826 60.2267C231.826 60.3821 231.826 60.4987 231.904 60.6152C231.942 60.6929 232.02 60.8095 232.176 60.9261C232.292 61.0426 232.486 61.1981 232.72 61.3535C233.03 61.5866 233.302 61.8198 233.419 62.014C233.574 62.2472 233.652 62.4803 233.652 62.7912C233.652 63.102 233.574 63.4129 233.38 63.646C233.225 63.8791 233.03 64.0345 232.758 64.1511C232.448 64.2677 232.137 64.3454 231.787 64.3454C231.476 64.3454 231.165 64.3065 230.893 64.2677C230.621 64.2288 230.388 64.1511 230.116 64.0734L230.349 62.9077H230.777C230.816 63.2574 230.893 63.4906 231.049 63.646C231.243 63.8403 231.476 63.918 231.787 63.918C232.098 63.918 232.331 63.8403 232.525 63.6848C232.72 63.5294 232.797 63.2963 232.797 63.0243C232.797 62.8689 232.758 62.7523 232.72 62.6357C232.642 62.5192 232.564 62.4026 232.448 62.286C232.331 62.1695 232.176 62.0529 231.981 61.8975C231.748 61.7421 231.554 61.5866 231.437 61.4701C231.282 61.3146 231.165 61.1592 231.088 61.0038C231.01 60.8484 230.971 60.6541 230.971 60.4598C230.971 60.1878 231.049 59.9158 231.204 59.6827C231.36 59.4884 231.554 59.333 231.826 59.2164C232.098 59.0999 232.409 59.0221 232.758 59.0221C233.38 59.0221 233.885 59.0999 234.351 59.2553L234.08 60.3821H233.652Z" fill="white"/>
<path d="M89.3419 20.7501V33.4559H73.411V20.7501H67.6992V51.5628H73.411V38.3518H89.3419V51.5628H95.0926V20.7501H89.3419ZM124.895 39.9449C124.895 32.6011 119.883 27.783 113.044 27.783C106.05 27.783 100.882 32.7954 100.882 39.8283C100.882 46.8223 105.972 51.8736 113.86 51.8736C117.901 51.8736 121.204 50.5525 123.341 48.0269L120.388 44.6464C118.717 46.3561 116.619 47.2109 114.015 47.2109C109.897 47.2109 107.06 44.9961 106.4 41.5768H124.817C124.856 41.0328 124.895 40.3723 124.895 39.9449ZM113.044 32.2125C116.619 32.2125 119.222 34.5439 119.688 37.9244H106.322C106.866 34.4662 109.469 32.2125 113.044 32.2125ZM138.495 27.783C134.726 27.783 131.073 28.7544 128.548 30.6972L130.723 34.6993C132.472 33.2616 135.192 32.368 137.834 32.368C141.759 32.368 143.701 34.2719 143.701 37.4969V37.8466H137.64C130.49 37.8466 127.848 40.9163 127.848 44.8407C127.848 48.9206 131.229 51.8736 136.63 51.8736C140.127 51.8736 142.691 50.7079 144.012 48.6874V51.5628H149.219V37.7689C149.219 31.008 145.294 27.783 138.495 27.783ZM137.756 47.8715C134.959 47.8715 133.288 46.5892 133.288 44.6076C133.288 42.8979 134.298 41.4991 138.028 41.4991H143.701V44.219C142.769 46.6281 140.437 47.8715 137.756 47.8715ZM156.252 51.5628H161.73V18.9238H156.252V51.5628ZM182.674 46.3561C181.858 47.0166 180.731 47.3275 179.604 47.3275C177.506 47.3275 176.34 46.0841 176.34 43.8304V32.64H182.635V28.2492H176.34V22.8871H170.862V28.2492H166.976V32.64H170.862V43.947C170.862 49.1537 173.815 51.8736 178.944 51.8736C180.925 51.8736 182.907 51.3296 184.228 50.2805L182.674 46.3561ZM202.102 27.783C198.838 27.783 196.079 28.8709 194.253 30.7749V18.9238H188.774V51.5628H194.253V39.6729C194.253 34.9713 196.895 32.6011 200.819 32.6011C204.316 32.6011 206.415 34.6216 206.415 38.7792V51.5628H211.893V38.0798C211.893 31.008 207.736 27.783 202.102 27.783ZM228.99 51.9902C237.422 51.9902 241.424 47.7937 241.424 42.8202C241.424 31.552 223.162 35.8261 223.162 29.2595C223.162 26.9281 225.104 25.0631 229.845 25.0631C232.526 25.0631 235.595 25.879 238.354 27.4721L240.142 23.0426C237.461 21.294 233.614 20.3226 229.884 20.3226C221.452 20.3226 217.489 24.5579 217.489 29.5315C217.489 40.9551 235.79 36.6033 235.79 43.2476C235.79 45.5401 233.769 47.2498 228.99 47.2498C225.182 47.2498 221.258 45.8509 218.81 43.8693L216.828 48.2989C219.393 50.5137 224.172 51.9902 228.99 51.9902ZM262.872 28.055L255.412 45.4235L248.029 28.055H242.318L252.575 51.6405L252.148 52.573C251.099 54.9044 249.972 55.8369 248.029 55.8369C246.553 55.8369 245.037 55.2152 243.988 54.205L241.774 58.246C243.289 59.6059 245.737 60.4219 248.068 60.4219C251.993 60.4219 254.985 58.79 257.122 53.4667L268.157 28.055H262.872Z" fill="white"/>
<path d="M55.146 31.7069C54.7185 31.2795 54.33 30.891 53.9414 30.619C53.5529 30.3081 53.1643 30.0361 52.7369 29.8419C52.3483 29.6476 51.9209 29.4533 51.4158 29.3367C51.1438 29.259 50.8718 29.259 50.6387 29.1813C50.3278 29.1036 50.0558 29.0647 49.745 28.987L49.7061 28.9482C49.5507 28.9093 49.473 28.7539 49.5119 28.5985C49.5119 28.5208 49.5896 28.443 49.6284 28.4042C49.9004 28.2488 50.2113 28.0933 50.5221 27.9768C50.833 27.8991 51.1438 27.7825 51.4935 27.7825C52.1929 27.7048 52.9312 27.8602 53.5529 28.1711C54.2134 28.443 54.7963 28.987 55.146 29.5699C55.5345 30.1527 55.7288 30.8133 55.6899 31.5515C55.6899 31.7069 55.5345 31.8235 55.3791 31.8235C55.3014 31.8235 55.2237 31.7847 55.1848 31.7458L55.146 31.7069Z" fill="white"/>
<path fill-rule="evenodd" clip-rule="evenodd" d="M41.5073 10.9968C38.9816 11.1134 37.0388 13.2893 37.1943 15.7761L39.0982 52.4172C39.2536 54.904 41.3907 56.8468 43.9163 56.7302C46.4031 56.6136 48.3459 54.4377 48.2293 51.9121L46.3254 15.3098C46.17 12.8231 44.0329 10.8414 41.5073 10.9968Z" fill="white"/>
<path fill-rule="evenodd" clip-rule="evenodd" d="M18.9351 22.0313C16.4094 21.9148 14.2335 23.8576 14.1169 26.3832L12.7958 51.9504C12.6404 54.4372 14.5832 56.6131 17.1088 56.7296C19.5956 56.8851 21.7715 54.9423 21.8881 52.4166L23.2481 26.8495C23.3646 24.3238 21.4218 22.1868 18.9351 22.0313Z" fill="white"/>
<path d="M38.4004 38.8955C40.0712 38.1961 41.742 37.3801 43.2962 36.4476C44.695 35.5928 46.0161 34.6214 47.2595 33.5723L47.5315 38.5458C47.0264 39.0509 46.4824 39.5561 45.9384 40.0223C43.7625 41.8486 41.3146 43.3251 38.6724 44.3742L38.4004 38.8955Z" fill="white"/>
<path d="M13.4949 38.5078C15.0879 39.2072 16.7587 39.7901 18.4296 40.2175C19.7895 40.5672 21.1495 40.8003 22.5094 40.9557L22.2374 46.007C20.4501 45.6573 18.6627 45.1133 16.9919 44.4139C15.7096 43.8699 14.4663 43.2094 13.2617 42.4711L13.4949 38.5078Z" fill="white"/>
<path d="M6.42258 35.8257C10.1527 38.7787 14.2326 40.7215 18.429 41.7706C22.6643 42.8586 27.0162 43.014 31.2515 42.3923C35.4868 41.7318 39.6055 40.2941 43.2968 38.0016C47.027 35.7479 50.2909 32.6783 53.0108 28.7539C53.1273 28.5985 53.3216 28.5596 53.4771 28.6762C53.5936 28.7539 53.6713 28.9093 53.6325 29.0259C52.7388 33.844 49.7857 38.3124 45.939 41.5763C42.0146 44.8791 37.1187 47.0162 32.0675 47.7933C27.0162 48.5704 21.6929 47.9875 16.9914 46.0059C12.3287 44.0242 8.20995 40.6049 5.91745 36.2919C5.80089 36.0976 5.8786 35.9034 6.03402 35.7868C6.18944 35.7479 6.30601 35.7479 6.42258 35.8257Z" fill="white"/>
</g>
<defs>
<clipPath id="clip0_1057_2265">
<rect width="274" height="77.5952" fill="white"/>
</clipPath>
</defs>
</svg>
