<svg width="40" height="40" viewBox="0 0 40 40" fill="none" xmlns="http://www.w3.org/2000/svg">
<path d="M19.7779 35.3331C18.4445 33.1109 19.1112 29.9998 21.3334 28.4442L30.0001 23.1109C32.2223 21.7775 35.3334 22.4442 36.889 24.6664C38.2223 26.8887 37.5556 29.9998 35.3334 31.5553L26.6668 36.8887C24.2223 38.4442 21.1112 37.7775 19.7779 35.3331Z" fill="#CB1B5B"/>
<path d="M26.199 25.6062L25.2539 26.1904L30.3951 34.5074L31.3402 33.9232L26.199 25.6062Z" fill="white"/>
<path d="M23.7799 7.55556H7.11328V3.77778C7.11328 2.88889 8.00217 2 8.89106 2H21.7799C22.6688 2 23.5577 2.88889 23.5577 3.77778V7.55556H23.7799Z" fill="#CB1B5B"/>
<path d="M26.4453 18.4449C26.4453 18.6671 26.4453 18.6671 26.4453 18.4449C26.4453 18.6671 26.4453 20.4449 26.4453 24.2227L20.8898 27.556C20.4453 27.7782 20.0009 28.2227 19.7786 28.4449C19.5564 28.6671 19.3342 28.8893 19.3342 29.1115C18.0009 30.8893 17.7786 33.1115 18.6675 35.3338H8.88976C8.66753 35.3338 6.22309 35.3338 5.11198 33.3338C4.66753 32.6671 4.44531 32.0004 4.44531 31.556C4.44531 22.8893 4.44531 19.1115 4.44531 18.6671C4.44531 18.4449 4.44531 18.0004 4.44531 17.7782C4.44531 17.7782 4.44531 17.7782 4.44531 17.556C4.66753 16.4449 5.55642 15.556 5.55642 15.556C5.77865 15.1115 7.3342 13.3338 8.00087 12.4449C8.44531 11.556 9.11198 10.2227 8.88976 8.22266C12.4453 8.22266 12.2231 8.22266 14.4453 8.22266H16.2231C18.4453 8.22266 18.2231 8.22266 21.7786 8.22266C21.7786 10.4449 22.2231 11.556 22.6675 12.4449C23.3342 13.3338 24.8898 15.1115 25.112 15.556C25.112 15.556 26.0009 16.4449 26.2231 17.556V17.7782C26.4453 18.0004 26.4453 18.4449 26.4453 18.4449Z" fill="#CB1B5B"/>
<path d="M19.5573 28.4453C19.3351 28.6675 19.1128 28.8898 19.1128 29.112H4.89062V28.4453H19.5573Z" fill="white"/>
<path d="M26.0017 18.8896H4.89062V19.5563H26.0017V18.8896Z" fill="white"/>
<path d="M18.6671 23.5563V24.4452C18.6671 24.6674 18.6671 24.6674 18.4449 24.6674H16.2227V27.1119C16.2227 27.3341 16.0004 27.3341 16.0004 27.3341H15.1115C14.8893 27.3341 14.8893 27.1119 14.8893 27.1119V24.6674H12.4449C12.2227 24.6674 12.2227 24.6674 12.2227 24.4452V23.7785C12.2227 23.5563 12.4449 23.5563 12.4449 23.5563H14.8893V21.1119C14.8893 20.8896 14.8893 20.8896 15.1115 20.8896H15.7782C16.0004 20.8896 16.0004 20.8896 16.0004 21.1119V23.5563H18.2227C18.4449 23.3341 18.6671 23.5563 18.6671 23.5563Z" fill="white"/>
</svg>
