<svg width="70" height="70" viewBox="0 0 70 70" fill="#fff" xmlns="http://www.w3.org/2000/svg">
<path d="M20.4193 31.3548H14.5859C7.5276 31.3548 3.64844 27.4757 3.64844 20.4173V14.584C3.64844 7.52565 7.5276 3.64648 14.5859 3.64648H20.4193C27.4776 3.64648 31.3568 7.52565 31.3568 14.584V20.4173C31.3568 27.4757 27.4776 31.3548 20.4193 31.3548ZM14.5859 8.02148C9.9776 8.02148 8.02344 9.97565 8.02344 14.584V20.4173C8.02344 25.0257 9.9776 26.9798 14.5859 26.9798H20.4193C25.0276 26.9798 26.9818 25.0257 26.9818 20.4173V14.584C26.9818 9.97565 25.0276 8.02148 20.4193 8.02148H14.5859Z"/>
<path d="M55.4193 31.3548H49.5859C42.5276 31.3548 38.6484 27.4757 38.6484 20.4173V14.584C38.6484 7.52565 42.5276 3.64648 49.5859 3.64648H55.4193C62.4776 3.64648 66.3568 7.52565 66.3568 14.584V20.4173C66.3568 27.4757 62.4776 31.3548 55.4193 31.3548ZM49.5859 8.02148C44.9776 8.02148 43.0234 9.97565 43.0234 14.584V20.4173C43.0234 25.0257 44.9776 26.9798 49.5859 26.9798H55.4193C60.0276 26.9798 61.9818 25.0257 61.9818 20.4173V14.584C61.9818 9.97565 60.0276 8.02148 55.4193 8.02148H49.5859Z"/>
<path d="M55.4193 66.3548H49.5859C42.5276 66.3548 38.6484 62.4757 38.6484 55.4173V49.584C38.6484 42.5257 42.5276 38.6465 49.5859 38.6465H55.4193C62.4776 38.6465 66.3568 42.5257 66.3568 49.584V55.4173C66.3568 62.4757 62.4776 66.3548 55.4193 66.3548ZM49.5859 43.0215C44.9776 43.0215 43.0234 44.9757 43.0234 49.584V55.4173C43.0234 60.0257 44.9776 61.9798 49.5859 61.9798H55.4193C60.0276 61.9798 61.9818 60.0257 61.9818 55.4173V49.584C61.9818 44.9757 60.0276 43.0215 55.4193 43.0215H49.5859Z"/>
<path d="M20.4193 66.3548H14.5859C7.5276 66.3548 3.64844 62.4757 3.64844 55.4173V49.584C3.64844 42.5257 7.5276 38.6465 14.5859 38.6465H20.4193C27.4776 38.6465 31.3568 42.5257 31.3568 49.584V55.4173C31.3568 62.4757 27.4776 66.3548 20.4193 66.3548ZM14.5859 43.0215C9.9776 43.0215 8.02344 44.9757 8.02344 49.584V55.4173C8.02344 60.0257 9.9776 61.9798 14.5859 61.9798H20.4193C25.0276 61.9798 26.9818 60.0257 26.9818 55.4173V49.584C26.9818 44.9757 25.0276 43.0215 20.4193 43.0215H14.5859Z"/>
</svg>
