<svg width="43" height="43" viewBox="0 0 43 43" fill="none" xmlns="http://www.w3.org/2000/svg">
<path d="M11.4108 18.8527H7.44186C2.63938 18.8527 0 16.2133 0 11.4108V7.44186C0 2.63938 2.63938 0 7.44186 0H11.4108C16.2133 0 18.8527 2.63938 18.8527 7.44186V11.4108C18.8527 16.2133 16.2133 18.8527 11.4108 18.8527ZM7.44186 2.97674C4.30636 2.97674 2.97674 4.30636 2.97674 7.44186V11.4108C2.97674 14.5464 4.30636 15.876 7.44186 15.876H11.4108C14.5464 15.876 15.876 14.5464 15.876 11.4108V7.44186C15.876 4.30636 14.5464 2.97674 11.4108 2.97674H7.44186Z" fill="#CB1B5B"/>
<path d="M35.2233 18.8527H31.2544C26.4519 18.8527 23.8125 16.2133 23.8125 11.4108V7.44186C23.8125 2.63938 26.4519 0 31.2544 0H35.2233C40.0258 0 42.6652 2.63938 42.6652 7.44186V11.4108C42.6652 16.2133 40.0258 18.8527 35.2233 18.8527ZM31.2544 2.97674C28.1189 2.97674 26.7892 4.30636 26.7892 7.44186V11.4108C26.7892 14.5464 28.1189 15.876 31.2544 15.876H35.2233C38.3589 15.876 39.6885 14.5464 39.6885 11.4108V7.44186C39.6885 4.30636 38.3589 2.97674 35.2233 2.97674H31.2544Z" fill="#CB1B5B"/>
<path d="M35.2233 42.6662H31.2544C26.4519 42.6662 23.8125 40.0268 23.8125 35.2243V31.2553C23.8125 26.4529 26.4519 23.8135 31.2544 23.8135H35.2233C40.0258 23.8135 42.6652 26.4529 42.6652 31.2553V35.2243C42.6652 40.0268 40.0258 42.6662 35.2233 42.6662ZM31.2544 26.7902C28.1189 26.7902 26.7892 28.1198 26.7892 31.2553V35.2243C26.7892 38.3598 28.1189 39.6894 31.2544 39.6894H35.2233C38.3589 39.6894 39.6885 38.3598 39.6885 35.2243V31.2553C39.6885 28.1198 38.3589 26.7902 35.2233 26.7902H31.2544Z" fill="#CB1B5B"/>
<path d="M11.4108 42.6662H7.44186C2.63938 42.6662 0 40.0268 0 35.2243V31.2553C0 26.4529 2.63938 23.8135 7.44186 23.8135H11.4108C16.2133 23.8135 18.8527 26.4529 18.8527 31.2553V35.2243C18.8527 40.0268 16.2133 42.6662 11.4108 42.6662ZM7.44186 26.7902C4.30636 26.7902 2.97674 28.1198 2.97674 31.2553V35.2243C2.97674 38.3598 4.30636 39.6894 7.44186 39.6894H11.4108C14.5464 39.6894 15.876 38.3598 15.876 35.2243V31.2553C15.876 28.1198 14.5464 26.7902 11.4108 26.7902H7.44186Z" fill="#CB1B5B"/>
</svg>
