<svg width="49" height="49" viewBox="0 0 49 49" fill="none" xmlns="http://www.w3.org/2000/svg">
<g clip-path="url(#clip0_9370_64923)">
<mask id="mask0_9370_64923" style="mask-type:luminance" maskUnits="userSpaceOnUse" x="0" y="0" width="49" height="49">
<path d="M49 0H0V49H49V0Z" fill="white"/>
<path d="M26.8945 24.5C26.8945 25.8214 25.8233 26.8926 24.502 26.8926C23.1806 26.8926 22.1094 25.8214 22.1094 24.5C22.1094 23.1786 23.1806 22.1074 24.502 22.1074C25.8233 22.1074 26.8945 23.1786 26.8945 24.5Z" fill="white"/>
<path d="M36.4648 24.5C36.4648 25.8214 35.3936 26.8926 34.0723 26.8926C32.7509 26.8926 31.6797 25.8214 31.6797 24.5C31.6797 23.1786 32.7509 22.1074 34.0723 22.1074C35.3936 22.1074 36.4648 23.1786 36.4648 24.5Z" fill="white"/>
<path d="M17.3242 24.5C17.3242 25.8214 16.253 26.8926 14.9316 26.8926C13.6103 26.8926 12.5391 25.8214 12.5391 24.5C12.5391 23.1786 13.6103 22.1074 14.9316 22.1074C16.253 22.1074 17.3242 23.1786 17.3242 24.5Z" fill="white"/>
</mask>
<g mask="url(#mask0_9370_64923)">
<mask id="mask1_9370_64923" style="mask-type:luminance" maskUnits="userSpaceOnUse" x="0" y="-1" width="49" height="50">
<path d="M0 -0.00194931H49V48.998H0V-0.00194931Z" fill="white"/>
</mask>
<g mask="url(#mask1_9370_64923)">
<path d="M24.5 1.91211C12.0261 1.91211 1.91406 12.0242 1.91406 24.498C1.91406 28.8894 3.16864 32.9871 5.33698 36.4549L1.91406 47.084L12.5431 43.6611C16.0109 45.8294 20.1087 47.084 24.5 47.084C36.9738 47.084 47.0859 36.9719 47.0859 24.498C47.0859 12.0242 36.9738 1.91211 24.5 1.91211Z" stroke="#CB1B5B" stroke-width="4.10156" stroke-miterlimit="10" stroke-linecap="round" stroke-linejoin="round"/>
<path d="M26.8945 24.498C26.8945 25.8194 25.8233 26.8906 24.502 26.8906C23.1806 26.8906 22.1094 25.8194 22.1094 24.498C22.1094 23.1767 23.1806 22.1055 24.502 22.1055C25.8233 22.1055 26.8945 23.1767 26.8945 24.498Z" fill="#CB1B5B"/>
<path d="M36.4648 24.498C36.4648 25.8194 35.3936 26.8906 34.0723 26.8906C32.7509 26.8906 31.6797 25.8194 31.6797 24.498C31.6797 23.1767 32.7509 22.1055 34.0723 22.1055C35.3936 22.1055 36.4648 23.1767 36.4648 24.498Z" fill="#CB1B5B"/>
<path d="M17.3242 24.498C17.3242 25.8194 16.253 26.8906 14.9316 26.8906C13.6103 26.8906 12.5391 25.8194 12.5391 24.498C12.5391 23.1767 13.6103 22.1055 14.9316 22.1055C16.253 22.1055 17.3242 23.1767 17.3242 24.498Z" fill="#CB1B5B"/>
</g>
</g>
</g>
<defs>
<clipPath id="clip0_9370_64923">
<rect width="49" height="49" fill="white"/>
</clipPath>
</defs>
</svg>
