<svg width="44" height="35" viewBox="0 0 44 35" fill="none" xmlns="http://www.w3.org/2000/svg">
<path d="M23.75 3.25C23.75 12.5 23.75 22 23.75 31.25C23.75 31.5 23.75 32.25 24.25 33C25 33.75 26 33.75 26 33.75C30.75 33.75 35.5 33.75 40.25 33.75C40.5 33.75 41.25 33.75 42 32.75C42.75 32 42.75 29.25 42.5 29C42.5 20 42.5 12.5 42.5 3.5C42.5 3.25 42.5 2.25 41.75 1.75C41.25 1.25 40.5 1.25 40.25 1.25C35.5 1.25 30.75 1.25 26 1.25C25.75 1.25 24.75 1.25 24.25 2C23.75 2.25 23.75 3 23.75 3.25Z" stroke="#CB1B5B" stroke-width="1.5" stroke-miterlimit="10"/>
<path d="M31.5 3C32.75 3 34 3 35.25 3" stroke="#CB1B5B" stroke-width="0.4024" stroke-miterlimit="10" stroke-linecap="round"/>
<path d="M23.75 28.75C29.7533 28.8322 35.9967 28.9178 42 29" stroke="#CB1B5B" stroke-width="1.5" stroke-miterlimit="10" stroke-linecap="round"/>
<path d="M1 3.25C1 12.5 1 22 1 31.25C1 31.5 1 32.25 1.5 33C2.25 33.75 3.25 33.75 3.25 33.75C8 33.75 12.75 33.75 17.5 33.75C17.75 33.75 18.5 33.75 19.25 32.75C20 32 20 31 19.75 30.75C19.75 21.75 19.75 12.5 19.75 3.5C19.75 3.25 19.75 2.25 19 1.75C18.5 1 18 1 17.75 1C13 1 8.25 1 3.5 1C3.25 1 2.25 1 1.75 1.75C1 2.25 1 3 1 3.25Z" stroke="#CB1B5B" stroke-width="1.5" stroke-miterlimit="10"/>
<path d="M8.75 3C10 3 11.25 3 12.5 3" stroke="#CB1B5B" stroke-width="0.4024" stroke-miterlimit="10" stroke-linecap="round"/>
<path d="M33.25 12.7504C33.5 12.2504 34 12.0004 34.5 12.2504C35 12.5004 35 13.0004 34.75 13.5004C34.5 14.0004 34.25 14.5004 33.75 15.0004C33.25 16.0004 32.5 17.0004 32 18.2504C32 18.2504 32 18.2504 32 18.5004C32.5 18.5004 33 18.5004 33.5 18.5004C33.75 18.5004 33.75 18.5004 34 18.7504C34.25 19.2504 34.5 19.7504 34.75 20.2504C32.75 20.2504 30.5 20.2504 28.5 20.2504C28 20.2504 27.75 20.0004 27.75 19.5004C27.75 19.0004 28 18.7504 28.5 18.5004H28.75C29.25 18.5004 29.75 18.5004 30.25 18.5004H30.5C31.25 17.2504 32 16.0004 32.5 14.7504V14.5004C32 14.0004 31.75 13.7504 31.75 13.5004C31.5 13.2504 31.75 12.7504 32 12.5004C32.25 12.2504 32.75 12.2504 33 12.5004C33 12.5004 33 12.7504 33.25 12.7504Z" fill="#CB1B5B"/>
<path d="M37.5 20C37.75 20.25 37.75 20.5 38 20.75C38 21 38.25 21 38.25 21.25C38.25 21.75 38 22 37.75 22C37.5 22 37 22 36.75 21.75C36.5 21.5 36.25 21 36 20.5C35.25 19.25 34.5 18 33.75 16.75V16.5C34 16 34.25 15.5 34.5 15C34.5 15 34.5 15 34.5 14.75C34.5 14.75 34.5 14.75 34.5 15C35 16 35.5 17 36.25 18C36.25 18 36.25 18.25 36.5 18.25C37 18.25 37.5 18.25 38 18.25C38.5 18.25 38.75 18.5 38.75 19C38.75 19.5 38.25 19.75 38 19.75C37.75 20 37.75 20 37.5 20Z" fill="#CB1B5B"/>
<path d="M30.4981 20.75C30.2481 21.25 29.9981 21.5 29.7481 22C29.7481 22.25 29.2481 22.25 28.7481 22.25C28.4981 22 28.2481 21.5 28.4981 21.25C28.7481 20.75 28.7481 20.75 28.9981 20.75C29.4981 20.75 29.9981 20.75 30.4981 20.75Z" fill="#CB1B5B"/>
<path d="M6.25 12.75C6 12.75 6 13 6 13.25C6 16 6 18.5 6 21.25C6 21.5 6 21.5 6.25 21.75C7.75 20.25 9.25 18.75 10.75 17.25C9.25 15.75 7.75 14.25 6.25 12.75ZM6.75 22.25C7 22.25 7.25 22.25 7.5 22.25C9.25 21.25 11 20.25 12.75 19.25C12.25 18.75 11.75 18.25 11.25 17.75C9.75 19.25 8.25 20.75 6.75 22.25ZM11.75 17.25C12.25 17.75 12.75 18.25 13.25 18.75C13.75 18.5 14.25 18.25 14.75 18.25C15 18 15.25 17.75 15.25 17.25C15.25 16.75 15 16.5 14.75 16.25C14.25 16.25 13.75 16 13.5 15.75C13.5 15.75 13.5 15.75 13.25 15.75C13 16 12.75 16.25 12.5 16.5C12.25 16.75 12 17 11.75 17.25Z" fill="#CB1B5B"/>
<path d="M7 12.25C7.25 12.25 7.5 12.5 7.75 12.5C9.5 13.5 11 14.25 12.75 15.25C12.25 15.75 11.75 16.25 11.25 16.75C9.75 15.25 8.25 13.75 6.75 12.25C7 12.25 7 12.25 7 12.25Z" fill="#CB1B5B"/>
<path d="M6.25 12.75C7.75 14.25 9.25 15.75 10.75 17.25C9.25 18.75 7.75 20.25 6.25 21.75C6.25 21.5 6 21.5 6 21.25C6 18.5 6 16 6 13.25C6 13 6 12.75 6.25 12.75Z" fill="#CB1B5B"/>
<path d="M6.75 22.25C8.25 20.75 9.75 19.25 11.25 17.75C11.75 18.25 12.25 18.75 12.75 19.25C11 20.25 9.25 21.25 7.5 22.25C7.25 22.25 7 22.25 6.75 22.25Z" fill="#CB1B5B"/>
<path d="M11.75 17.25C12 17 12.25 16.75 12.5 16.5C12.75 16.25 13 16 13.5 15.5C13.5 15.5 13.5 15.5 13.75 15.5C13.75 16 14.25 16.25 14.75 16.25C15 16.5 15.25 16.75 15.25 17.25C15.25 17.75 15 18 14.75 18.25C14.25 18.25 13.75 18.5 13.5 18.75C12.75 18.25 12.25 17.75 11.75 17.25Z" fill="#CB1B5B"/>
</svg>
