<svg width="24" height="24" viewBox="0 0 24 24" fill="none" xmlns="http://www.w3.org/2000/svg">
<mask id="mask0_95_943" style="mask-type:alpha" maskUnits="userSpaceOnUse" x="0" y="0" width="24" height="24">
<rect width="24" height="24" fill="#D9D9D9"/>
</mask>
<g mask="url(#mask0_95_943)">
<mask id="mask1_95_943" style="mask-type:luminance" maskUnits="userSpaceOnUse" x="-2" y="2" width="27" height="21">
<path d="M24.1729 2.00098H-1.0752V22.051H24.1729V2.00098Z" fill="white"/>
</mask>
<g mask="url(#mask1_95_943)">
<path d="M4.23093 12.0479C4.23093 11.2399 4.14332 10.4261 4.21981 9.61813C4.29319 8.96682 4.47412 8.3322 4.75522 7.74011C5.33003 6.54069 6.21344 5.51569 7.31491 4.7702C8.41639 4.0247 9.69629 3.58552 11.0234 3.49767C12.4517 3.43246 13.8667 3.79722 15.0854 4.54479C16.3041 5.29237 17.2706 6.38838 17.8597 7.6911C18.329 9.09323 18.5219 10.5731 18.4278 12.0486" stroke="#CB1B5B" stroke-width="2" stroke-miterlimit="10" stroke-linecap="round"/>
<path d="M5.33939 18.7687V12.0475C5.33939 11.9436 4.28046 12.2384 4.19803 12.2606C3.7018 12.3861 3.24659 12.6381 2.87694 12.9921C2.45492 13.427 2.15342 13.9644 2.00212 14.5512C1.85082 15.1381 1.85494 15.7542 2.01406 16.339C2.20737 17.1009 2.66137 17.7712 3.29726 18.2333C3.61394 18.458 3.97497 18.6125 4.35619 18.6863C4.42748 18.7026 5.33939 18.8667 5.33939 18.7687Z" stroke="#CB1B5B" stroke-width="2" stroke-miterlimit="10" stroke-linecap="round"/>
<path d="M17.2422 18.7703V12.0469C17.5502 12.0572 17.8568 12.092 18.1593 12.1508C18.8159 12.2925 19.416 12.625 19.8843 13.1066C20.2203 13.462 20.4718 13.8886 20.6202 14.3547C20.7685 14.8207 20.8099 15.3142 20.7413 15.7984C20.5898 16.6275 20.1899 17.3909 19.5947 17.9876C19.3135 18.2513 18.9832 18.4571 18.6227 18.5936C18.4972 18.6396 17.2422 18.8906 17.2422 18.7703Z" stroke="#CB1B5B" stroke-width="2" stroke-miterlimit="10" stroke-linecap="round"/>
<path d="M8.15715 15V14.6527L9.72861 13.1905C9.93395 13 10.0869 12.8189 10.1875 12.6471C10.2922 12.4715 10.3446 12.2904 10.3446 12.1036C10.3446 11.8758 10.265 11.704 10.1058 11.5882C9.94652 11.4687 9.71604 11.409 9.41432 11.409C9.17965 11.409 8.96174 11.4463 8.76059 11.521C8.56363 11.592 8.37296 11.7059 8.18858 11.8627L8 11.4986C8.16762 11.3492 8.38134 11.2297 8.64116 11.1401C8.90097 11.0467 9.17546 11 9.46461 11C9.913 11 10.2587 11.0934 10.5018 11.2801C10.7448 11.4631 10.8664 11.7246 10.8664 12.0644C10.8664 12.3147 10.7972 12.5537 10.6589 12.7815C10.5248 13.0056 10.3279 13.2372 10.0681 13.4762L8.67887 14.7311V14.6022H11.0549V15H8.15715Z" fill="#CB1B5B"/>
<path d="M13.812 15V14.1429H11.6999V13.8067L13.8937 11.0504H14.3211V13.7675H15V14.1429H14.3211V15H13.812ZM13.812 13.7675V11.5994H13.9503L12.1274 13.8852V13.7675H13.812Z" fill="#CB1B5B"/>
<path d="M17.5 18.5C17.3333 19.6667 16.5 21.8 14.5 21M26 19H25" stroke="#CB1B5B" stroke-width="2" stroke-linecap="round" stroke-linejoin="round"/>
</g>
</g>
</svg>
