<svg width="21" height="23" viewBox="0 0 21 23" fill="none" xmlns="http://www.w3.org/2000/svg">
<path d="M15.8993 10.8926C13.6316 12.2791 11.377 13.6655 9.10938 15.052" stroke="#CB1B5B" stroke-miterlimit="10" stroke-linecap="round"/>
<path d="M7.87794 5.38493C6.323 11.7342 5.24751 16.412 5.07905 17.5393C5.04018 17.7985 4.98835 18.2909 5.24751 18.7444C5.62328 19.3793 6.29709 19.483 6.38779 19.5089C9.32921 20.1957 12.2836 20.8824 15.225 21.5692C15.3157 21.5951 15.9766 21.7377 16.5597 21.31C17.1039 20.9213 17.1946 20.3253 17.2075 20.2216C18.1146 16.3731 19.0216 12.5247 19.9416 8.6762C19.9805 8.50775 20.0453 8.18381 19.9546 7.78212C19.8898 7.49704 19.7602 7.28972 19.6825 7.16014C18.5811 5.38493 17.4797 3.62267 16.3653 1.84745C16.3135 1.75675 15.9377 1.14773 15.1732 1.01815C14.616 0.927447 14.1365 1.19956 13.9033 1.32914C12.9185 1.89928 10.923 3.11731 8.3185 4.80183C8.27963 4.82774 8.16301 4.89253 8.05935 5.02211C7.94272 5.16464 7.90385 5.30718 7.87794 5.38493Z" stroke="#CB1B5B" stroke-miterlimit="10"/>
<path d="M10.7818 11.462C11.4616 11.462 12.0128 10.9108 12.0128 10.231C12.0128 9.55113 11.4616 9 10.7818 9C10.1019 9 9.55078 9.55113 9.55078 10.231C9.55078 10.9108 10.1019 11.462 10.7818 11.462Z" stroke="#CB1B5B" stroke-miterlimit="10"/>
<path d="M14.2388 17.0089C14.9187 17.0089 15.4698 16.4577 15.4698 15.7779C15.4698 15.098 14.9187 14.5469 14.2388 14.5469C13.5589 14.5469 13.0078 15.098 13.0078 15.7779C13.0078 16.4577 13.5589 17.0089 14.2388 17.0089Z" stroke="#CB1B5B" stroke-miterlimit="10"/>
<path d="M14.3578 5.12567C14.3935 5.12567 14.4225 5.09666 14.4225 5.06088C14.4225 5.0251 14.3935 4.99609 14.3578 4.99609C14.322 4.99609 14.293 5.0251 14.293 5.06088C14.293 5.09666 14.322 5.12567 14.3578 5.12567Z" stroke="#CB1B5B" stroke-miterlimit="10"/>
<path d="M14.2793 1.14648C12.4134 1.65184 10.5475 2.15719 8.66863 2.6755C8.4613 2.72733 8.0337 2.86987 7.60609 3.21973C7.28215 3.49184 7.07482 3.78987 6.9582 3.97128C3.84833 9.2451 1.64551 13.1584 1.20494 14.1302C1.07537 14.4282 0.906916 14.8947 1.06241 15.3612C1.24382 15.9054 1.68438 16.1516 1.77509 16.2034C3.04495 16.8902 4.47031 17.7713 5.05341 18.0564" stroke="#CB1B5B" stroke-miterlimit="10" stroke-linecap="round"/>
</svg>
