<svg width="37" height="45" viewBox="0 0 37 45" fill="none" xmlns="http://www.w3.org/2000/svg">
<path fill-rule="evenodd" clip-rule="evenodd" d="M18.4646 11.8945C12.3529 11.8945 7.39844 16.849 7.39844 22.9607C7.39844 29.0724 12.3529 34.0269 18.4646 34.0269C24.5763 34.0269 29.5308 29.0724 29.5308 22.9607C29.5308 16.849 24.5763 11.8945 18.4646 11.8945ZM6.46094 22.9607C6.46094 16.3313 11.8352 10.957 18.4646 10.957C25.0941 10.957 30.4683 16.3313 30.4683 22.9607C30.4683 29.5902 25.0941 34.9644 18.4646 34.9644C11.8352 34.9644 6.46094 29.5902 6.46094 22.9607Z" fill="#CB1B5B"/>
<path d="M17.4348 22.7625C17.4348 23.1248 17.4348 23.4871 17.4348 23.8493C17.4348 24.755 16.8914 25.2984 15.9857 25.2984C15.6234 25.2984 15.2612 25.2984 14.8989 25.1173C14.5366 24.9362 14.3555 24.5739 14.3555 24.0305C14.3555 23.3059 14.3555 22.4002 14.3555 21.6757C14.3555 20.77 14.8989 20.2266 15.8046 20.2266C16.8914 20.2266 17.616 20.9511 17.4348 21.8568C17.4348 22.038 17.4348 22.038 17.4348 22.2191C17.4348 22.4002 17.4348 22.5814 17.4348 22.7625ZM16.5291 22.7625C16.5291 22.4002 16.5291 22.0379 16.5291 21.6757C16.5291 21.3134 16.348 21.1323 15.9857 21.1323C15.4423 21.1323 15.2612 21.3134 15.2612 21.6757C15.2612 22.4002 15.2612 23.1248 15.2612 24.0305C15.2612 24.3928 15.4423 24.5739 15.8046 24.5739C16.1669 24.5739 16.348 24.3928 16.348 24.0305C16.5291 23.4871 16.5291 23.1248 16.5291 22.7625Z" fill="#CB1B5B"/>
<path d="M17.9805 22.7625C17.9805 22.4002 17.9805 22.0379 17.9805 21.6757C17.9805 20.77 18.5239 20.2266 19.4296 20.2266C20.3353 20.2266 20.8787 20.5888 21.0598 21.3134C21.0598 21.4945 21.0598 21.4945 21.0598 21.6757C21.0598 22.4002 21.0598 23.3059 21.0598 24.0305C21.0598 24.755 20.5164 25.4796 19.7919 25.4796C18.8862 25.4796 18.1616 25.1173 17.9805 24.3928C17.9805 24.2116 17.9805 24.0305 17.9805 24.0305C17.9805 23.4871 17.9805 23.1248 17.9805 22.7625ZM18.8862 22.7625C18.8862 23.1248 18.8862 23.4871 18.8862 23.8493C18.8862 24.2116 19.0673 24.3928 19.4296 24.3928C19.7919 24.3928 20.1541 24.2116 20.1541 23.8493C20.1541 23.1248 20.1541 22.2191 20.1541 21.4945C20.1541 21.1323 19.973 20.9511 19.4296 20.9511C19.0673 21.1323 18.8862 21.3134 18.8862 21.6757C18.8862 22.0379 18.8862 22.4002 18.8862 22.7625Z" fill="#CB1B5B"/>
<path d="M12.1665 21.3106L11.9854 21.4918C11.8043 21.6729 11.6231 21.6729 11.2609 21.6729C11.0797 21.4918 11.0797 21.1295 11.2609 20.9483C11.442 20.7672 11.442 20.5861 11.6231 20.4049L11.9994 19.9673C12.3098 19.8182 12.6963 19.7106 13.0585 19.9671C13.2396 19.9671 13.2534 20.5861 13.2534 20.7672C13.2534 21.854 13.2534 22.9409 13.2534 24.2088C13.2534 24.39 13.2534 24.5711 13.6157 24.5711C13.9779 24.5711 14.1591 24.7523 14.1591 25.1145C14.1591 25.4768 13.9779 25.658 13.6157 25.658C13.0722 25.658 12.5288 25.658 12.1665 25.658C11.8043 25.658 11.6231 25.4768 11.6231 25.1145C11.6231 24.7523 11.8043 24.5711 12.1665 24.5711C12.3477 24.5711 12.3098 24.9334 12.3098 24.5711C12.1665 23.6218 12.1665 22.2163 12.1665 21.3106Z" fill="#CB1B5B"/>
<path d="M26.3123 20.4041C26.3123 20.5852 26.3123 20.5852 26.1312 20.7664C25.0443 22.2155 24.1386 23.4835 23.0518 24.9326C22.8707 25.2949 22.5084 25.2949 22.3273 25.1137C22.1461 24.9326 22.1461 24.5703 22.3273 24.3892C23.4141 22.94 24.3198 21.6721 25.4066 20.223C25.5878 20.0418 25.7689 19.8607 25.95 20.0418C26.3123 20.0418 26.3123 20.223 26.3123 20.4041Z" fill="#CB1B5B"/>
<path d="M26.8534 24.2079C26.8534 24.9324 26.3099 25.2947 25.7665 25.2947C25.042 25.2947 24.6797 24.7513 24.6797 24.2079C24.6797 23.6645 25.2231 23.121 25.7665 23.121C26.3099 22.9399 26.8534 23.4833 26.8534 24.2079ZM25.5854 24.2079C25.7665 24.2079 25.7665 24.2079 25.5854 24.2079C25.7665 24.0267 25.7665 23.8456 25.5854 23.8456C25.5854 24.0267 25.4042 24.0267 25.5854 24.2079C25.4042 24.2079 25.5854 24.2079 25.5854 24.2079Z" fill="#CB1B5B"/>
<path d="M21.7812 21.1259C21.7812 20.4013 22.3247 20.0391 22.8681 20.0391C23.4115 20.0391 23.9549 20.5825 23.9549 21.1259C23.9549 21.6693 23.4115 22.2127 22.8681 22.2127C22.3247 22.2127 21.7812 21.8505 21.7812 21.1259ZM22.8681 21.307C23.0492 21.307 23.0492 21.307 22.8681 21.307C23.0492 20.9448 22.8681 20.9448 22.8681 20.9448C22.8681 20.9448 22.6869 21.1259 22.8681 21.307C22.6869 21.307 22.8681 21.307 22.8681 21.307Z" fill="#CB1B5B"/>
<path fill-rule="evenodd" clip-rule="evenodd" d="M18.5482 1.94816C17.1382 3.92661 14.2028 6.60524 10.0167 8.47828L10.0028 8.48448L9.98877 8.49023C7.3533 9.56838 4.67974 10.1282 2.73757 10.1329C2.72376 10.14 2.70173 10.1546 2.67823 10.1786C2.6533 10.2041 2.63693 10.2298 2.62852 10.2482C2.62689 10.2518 2.62576 10.2546 2.625 10.2567V20.9926C2.625 23.0195 2.8768 29.8276 7.79572 35.8658C11.6481 40.5435 16.2053 42.3325 18.5053 43.125H18.704C21.0039 42.3325 25.5627 40.5435 29.415 35.866C34.3341 29.8277 34.5859 23.0195 34.5859 20.9926C34.5859 19.8091 34.5577 18.6013 34.5294 17.3898C34.473 14.9697 34.4162 12.5348 34.5829 10.2495C34.5827 10.2491 34.5831 10.2499 34.5829 10.2495C34.5745 10.231 34.5576 10.2041 34.5326 10.1786C34.5091 10.1546 34.4871 10.14 34.4733 10.1329C32.5335 10.1282 29.864 9.56973 27.2316 8.49413C22.9009 6.83018 20.2119 3.78952 18.6559 1.93293L18.6264 1.89769C18.6035 1.90864 18.5769 1.9247 18.5482 1.94816ZM20.1518 0.798613C19.8227 0.243491 19.2428 0 18.7016 0C18.1369 0 17.5813 0.250675 17.1661 0.675314L17.1121 0.730574L17.0678 0.793935C15.8928 2.47638 13.2166 4.9893 9.26477 6.76058C6.78963 7.77121 4.3542 8.25798 2.71283 8.25798C2.14407 8.25798 1.65921 8.53883 1.3376 8.86775C1.01469 9.198 0.75 9.68442 0.75 10.2441V20.9926C0.75 23.16 1.01081 30.5072 6.3437 37.0521L6.34675 37.0558C10.6132 42.2374 15.6813 44.1435 18.0466 44.9499L18.1937 45H19.0172L19.1643 44.9499C21.5295 44.1435 26.5976 42.2374 30.8641 37.0558L30.8672 37.0521C36.2001 30.5072 36.4609 23.16 36.4609 20.9926C36.4609 19.7085 36.4311 18.4503 36.402 17.2161C36.3456 14.8297 36.2913 12.5333 36.4582 10.3144L36.4609 10.2793V10.2441C36.4609 9.68442 36.1962 9.198 35.8733 8.86775C35.5517 8.53883 35.0668 8.25798 34.498 8.25798C32.8536 8.25798 30.412 7.76937 27.932 6.75483L27.9128 6.7472C24.0961 5.28343 21.6744 2.61034 20.1518 0.798613Z" fill="#CB1B5B"/>
</svg>
