<svg width="44" height="45" viewBox="0 0 44 45" fill="none" xmlns="http://www.w3.org/2000/svg">
<g clip-path="url(#clip0_4526_27845)">
<path d="M21.9992 1.75C17.1103 1.75 13.1992 5.75 13.1992 10.75C13.1992 15.75 17.1103 19.75 21.9992 19.75C26.8881 19.75 30.7992 15.75 30.7992 10.75C30.7992 5.75 26.8881 1.75 21.9992 1.75Z" stroke="#CB1B5B" stroke-width="2" stroke-miterlimit="10"/>
<path d="M21.9992 25C17.1103 25 13.1992 29 13.1992 34C13.1992 39 17.1103 43.25 21.9992 43.25C26.8881 43.25 30.7992 39.25 30.7992 34.25C30.7992 29.25 26.8881 25 21.9992 25Z" stroke="#CB1B5B" stroke-width="2" stroke-miterlimit="10"/>
<path d="M9.53414 33.25C5.62303 31 3.17859 26.5 3.42303 22C3.66748 15.5 8.80081 12 9.04526 11.75" stroke="#CB1B5B" stroke-width="2" stroke-miterlimit="10" stroke-linecap="round"/>
<path d="M1.95703 11.25C4.40148 11.25 7.09036 11.25 9.53481 11.25C9.53481 14 9.53481 16.5 9.53481 19.25" stroke="#CB1B5B" stroke-width="2" stroke-miterlimit="10" stroke-linecap="round" stroke-linejoin="round"/>
<path d="M34.4648 11.25C38.376 13.5 40.8204 18 40.576 22.5C40.3315 29 35.1982 32.5 34.9537 32.75" stroke="#CB1B5B" stroke-width="2" stroke-miterlimit="10" stroke-linecap="round"/>
<path d="M42.0426 33.25C39.5982 33.25 36.9093 33.25 34.4648 33.25C34.4648 30.5 34.4648 28 34.4648 25.25" stroke="#CB1B5B" stroke-width="2" stroke-miterlimit="10" stroke-linecap="round" stroke-linejoin="round"/>
<path d="M18.5781 7.25C20.7781 9.5 23.2226 12 25.4226 14.25" stroke="#CB1B5B" stroke-width="2" stroke-miterlimit="10" stroke-linecap="round"/>
<path d="M25.4226 7.25C23.2226 9.5 20.7781 12 18.5781 14.25" stroke="#CB1B5B" stroke-width="2" stroke-miterlimit="10" stroke-linecap="round"/>
<path d="M18.3343 37.75C20.2898 37.75 22.001 37.75 23.9565 37.75C25.1787 37.75 26.401 36.5 26.401 35C26.401 33.5 25.1787 32 23.7121 32C21.7565 32 20.0454 32 18.0898 32" stroke="#CB1B5B" stroke-width="2" stroke-miterlimit="10" stroke-linecap="round"/>
<path d="M20.5332 35C19.5555 34 18.3332 33.25 17.3555 32.25C18.3332 31.25 19.311 30.5 20.2888 29.5" stroke="#CB1B5B" stroke-width="2" stroke-miterlimit="10" stroke-linecap="round" stroke-linejoin="round"/>
</g>
<defs>
<clipPath id="clip0_4526_27845">
<rect width="44" height="45" fill="white"/>
</clipPath>
</defs>
</svg>
