<svg width="36" height="38" viewBox="0 0 36 38" fill="none" xmlns="http://www.w3.org/2000/svg">
<path d="M22.8536 17.2049C19.4761 15.7259 17.401 12.2821 17.71 8.68386C18.0632 4.68824 21.2641 1.64186 24.9507 1.08998C29.5203 0.405647 33.8691 3.71693 34.6417 7.88915C35.304 11.4212 33.1406 14.2689 32.7433 14.7766" stroke="#CB1B5B" stroke-width="2" stroke-miterlimit="10" stroke-linecap="round"/>
<path d="M23.4492 13.875C24.3322 14.3607 25.1932 14.8684 26.0762 15.354" stroke="#CB1B5B" stroke-width="2" stroke-miterlimit="10" stroke-linecap="round"/>
<path d="M30.0281 14.5137C29.2996 14.5137 28.5711 14.5137 27.8427 14.5137C26.9597 14.5578 26.2753 15.3305 26.2974 16.1914C26.3195 17.0082 27.0038 17.6925 27.8427 17.7587C28.5711 17.7587 29.2996 17.7587 30.0281 17.7587" stroke="#CB1B5B" stroke-width="2" stroke-miterlimit="10" stroke-linecap="round"/>
<path d="M28.6836 17.7363C29.2134 18.3765 30.1847 19.7452 30.5821 21.754C30.9794 23.6746 30.6704 25.264 30.4496 26.0587" stroke="#CB1B5B" stroke-width="2" stroke-miterlimit="10" stroke-linecap="round"/>
<path d="M27.4227 27.4938C27.6214 27.2951 28.7031 26.2576 30.3587 26.2796C32.3234 26.3017 33.4713 27.7808 33.6038 27.9574L25.7671 32.1075C25.5905 32.1958 25.4139 32.24 25.2152 32.24H3.11787C2.43354 32.24 1.90373 31.666 1.94788 31.0037C2.01411 29.8117 2.36731 28.0015 3.89051 26.5446C5.52407 24.9772 7.97442 24.2929 10.2702 25.0434C13.3608 26.0368 14.31 29.0391 14.3983 29.304" stroke="#CB1B5B" stroke-width="2" stroke-miterlimit="10" stroke-linecap="round"/>
<path d="M3.58203 32.2422C3.69241 34.7808 5.87786 36.6572 8.17368 36.4586C10.2046 36.282 11.9044 34.4718 11.9706 32.2422" stroke="#CB1B5B" stroke-width="2" stroke-miterlimit="10" stroke-linecap="round"/>
<path d="M25.5039 32.2402C26.2324 35.0879 29.058 36.7215 31.5084 36.0813C33.6717 35.5074 35.0846 33.2778 34.9963 31.1585C34.93 29.4587 33.9366 28.3108 33.5834 27.9355" stroke="#CB1B5B" stroke-width="2" stroke-miterlimit="10" stroke-linecap="round"/>
<path d="M26.0996 20.2067V20.5599C26.1216 22.9661 25.3931 25.3502 23.8037 27.1604C22.9649 28.1096 21.9053 28.8602 20.6028 28.9926C20.2717 29.0368 18.7264 29.1692 17.8213 28.1538C16.9604 27.1825 16.9825 25.4164 17.9759 23.805C18.02 23.6063 18.1525 23.0102 17.8655 22.3921C17.5344 21.6857 16.7838 21.2221 15.9229 21.2001H1.90508C1.39735 21.2001 1 20.8027 1 20.295V12.1492C1 11.6415 1.39735 11.2441 1.90508 11.2441H11.2208C11.7286 11.2441 12.1259 11.6415 12.1259 12.1492V21.0676" stroke="#CB1B5B" stroke-width="2" stroke-miterlimit="10" stroke-linecap="round"/>
<path d="M26.2109 4.09766C26.2109 5.79745 26.2109 7.47517 26.2109 9.17496C27.5796 9.17496 28.9483 9.17496 30.3169 9.17496" stroke="#CB1B5B" stroke-width="2" stroke-miterlimit="10" stroke-linecap="round" stroke-linejoin="round"/>
</svg>
