<svg width="32" height="38" viewBox="0 0 32 38" fill="none" xmlns="http://www.w3.org/2000/svg">
<path d="M26.0964 12.1502V26.8594L26.052 26.9925C26.0298 27.1034 25.9854 27.17 25.9411 27.2587C25.6748 27.8134 25.1867 28.0796 24.5212 28.0796H8.76925C8.50302 28.0796 8.21461 28.0131 7.97056 27.9243C7.46029 27.7246 7.2828 27.2587 7.17188 26.926V12.128L7.23843 11.9727C7.37155 11.5734 7.61559 11.2628 7.97056 11.1075C8.12586 10.9966 8.32554 10.9522 8.54739 10.9522C9.10204 10.93 15.4915 10.93 24.8096 10.9522C24.9871 10.9744 25.1646 11.0187 25.2977 11.0853C25.4308 11.1519 25.5195 11.2184 25.6083 11.285C25.8301 11.4846 25.9854 11.7731 26.0964 12.1502Z" stroke="#CB1B5B" stroke-width="0.9203" stroke-miterlimit="10" stroke-linecap="round"/>
<path d="M10.7422 10.3352C10.7422 9.86931 10.7422 9.38123 10.7422 8.91533C10.7422 8.38287 11.075 8.07227 11.6074 8.07227C11.6962 8.07227 11.8071 8.07227 11.8958 8.07227C12.3174 8.11664 12.6058 8.42724 12.6058 8.89314C12.6058 9.86931 12.628 10.8455 12.6058 11.8217C12.6058 12.3319 12.273 12.6204 11.7627 12.6425C11.6518 12.6425 11.5631 12.6425 11.4521 12.6425C11.0306 12.5538 10.7422 12.2432 10.7422 11.8217C10.7422 11.3114 10.7422 10.8233 10.7422 10.3352Z" fill="#CB1B5B"/>
<path d="M22.6995 10.2896C22.6995 10.7555 22.6995 11.2436 22.6995 11.7095C22.6995 12.2641 22.3889 12.5747 21.8343 12.5747C21.7456 12.5747 21.6568 12.5747 21.5681 12.5747C21.1909 12.5525 20.9025 12.2863 20.8581 11.9313C20.8359 11.7317 20.8359 11.532 20.8359 11.3545C20.8359 10.5558 20.8359 9.75714 20.8359 8.98063C20.8359 8.62566 20.9247 8.31506 21.2575 8.15976C21.6124 7.98227 21.9896 7.98227 22.3224 8.18195C22.5886 8.31506 22.6995 8.55911 22.6995 8.86971C22.6995 9.31342 22.6995 9.80151 22.6995 10.2896Z" fill="#CB1B5B"/>
<path d="M31.7761 29.6318C31.1992 30.4083 25.8081 37.3081 16.5344 37.3081H16.4013C9.3684 37.2859 4.62064 33.3147 2.35769 30.8742L2.42425 32.1166C2.44643 32.7157 1.95835 33.2481 1.35933 33.2703C1.33714 33.2703 1.31496 33.2703 1.31496 33.2703C0.715942 33.2703 0.227855 32.8044 0.205669 32.2054L0.00599713 27.8348C-0.0161887 27.4798 0.139112 27.147 0.427527 26.9252C0.693757 26.7033 1.07091 26.6146 1.4037 26.7255L5.64119 27.9013C6.2402 28.0566 6.59518 28.6557 6.41769 29.2547C6.26239 29.8537 5.64119 30.1865 5.06436 30.0312L4.44316 29.8537C6.57299 32.0057 10.6108 35.0673 16.4235 35.0895H16.5344C24.721 35.0895 29.4687 29.0106 30.0012 28.3007C30.3562 27.8126 31.0661 27.7239 31.5542 28.0788C32.0423 28.4338 32.1532 29.1437 31.7761 29.6318Z" fill="#CB1B5B"/>
<path d="M31.9955 10.1101C32.0177 10.465 31.8624 10.82 31.574 11.0419C31.3743 11.1972 31.1302 11.2859 30.8862 11.2859C30.7753 11.2859 30.6865 11.2637 30.5978 11.2415L26.3381 10.0657C25.7613 9.91038 25.4063 9.28918 25.5838 8.69016C25.7391 8.11333 26.3381 7.75836 26.9371 7.93584L27.5805 8.11333C25.4507 5.96131 21.4129 2.89967 15.578 2.8553H15.4671C7.28052 2.8553 2.51058 8.95639 2.0003 9.64415C1.64533 10.1322 0.935386 10.2432 0.447299 9.8882C-0.0407885 9.51104 -0.151718 8.82328 0.225441 8.33519C0.802272 7.5365 6.19342 0.636719 15.4671 0.636719H15.578C22.6331 0.68109 27.3809 4.65235 29.6438 7.0706L29.5772 5.85038C29.5551 5.22918 30.021 4.7189 30.6422 4.69672C31.3077 4.63016 31.7736 5.14044 31.7958 5.73945L31.9955 10.1101Z" fill="#CB1B5B"/>
<path d="M11.1591 25.8182C10.8263 25.8182 10.4935 25.8182 10.1386 25.8182C9.96109 25.8182 9.89453 25.7516 9.89453 25.5741C9.89453 24.9973 9.89453 24.4205 9.89453 23.8437C9.89453 23.6662 9.96109 23.5996 10.1386 23.5996C10.8263 23.5996 11.4919 23.5996 12.1797 23.5996C12.335 23.5996 12.4237 23.6662 12.4237 23.8437C12.4237 24.4205 12.4237 25.0195 12.4237 25.5963C12.4237 25.7738 12.3572 25.8404 12.1797 25.8404C11.8469 25.8182 11.4919 25.8182 11.1591 25.8182Z" fill="#CB1B5B"/>
<path d="M14.7568 25.8182C14.424 25.8182 14.0912 25.8182 13.7362 25.8182C13.5587 25.8182 13.4922 25.7516 13.4922 25.5741C13.4922 24.9973 13.4922 24.3983 13.4922 23.8215C13.4922 23.6662 13.5587 23.5996 13.714 23.5996C14.4018 23.5996 15.0896 23.5996 15.7995 23.5996C15.9548 23.5996 16.0214 23.6662 16.0214 23.8215C16.0214 24.3983 16.0214 24.9973 16.0214 25.5741C16.0214 25.7516 15.9326 25.8182 15.7773 25.8182C15.4224 25.8182 15.0896 25.8182 14.7568 25.8182Z" fill="#CB1B5B"/>
<path d="M18.3727 25.8182C18.0399 25.8182 17.7071 25.8182 17.3522 25.8182C17.1303 25.8182 17.0859 25.7738 17.0859 25.5741C17.0859 24.9973 17.0859 24.4205 17.0859 23.8437C17.0859 23.6662 17.1747 23.5996 17.33 23.5996C17.9956 23.5996 18.6833 23.5996 19.3489 23.5996C19.5486 23.5996 19.5929 23.644 19.5929 23.8658C19.5929 24.4427 19.5929 25.0195 19.5929 25.5963C19.5929 25.796 19.5486 25.8404 19.3267 25.8404C19.0383 25.8182 18.7055 25.8182 18.3727 25.8182Z" fill="#CB1B5B"/>
<path d="M21.9443 25.8182C21.6115 25.8182 21.2787 25.8182 20.9237 25.8182C20.7462 25.8182 20.6797 25.7516 20.6797 25.5741C20.6797 24.9973 20.6797 24.4205 20.6797 23.8437C20.6797 23.6662 20.7462 23.5996 20.9237 23.5996C21.6115 23.5996 22.2771 23.5996 22.9648 23.5996C23.1423 23.5996 23.2089 23.6662 23.2089 23.8437C23.2089 24.4205 23.2089 24.9973 23.2089 25.5741C23.2089 25.796 23.1645 25.8404 22.9426 25.8404C22.6099 25.8182 22.2771 25.8182 21.9443 25.8182Z" fill="#CB1B5B"/>
<path d="M18.3701 19.563C18.0373 19.563 17.6823 19.563 17.3495 19.563C17.172 19.563 17.1055 19.4965 17.1055 19.319C17.1055 18.7422 17.1055 18.1431 17.1055 17.5663C17.1055 17.3888 17.172 17.3223 17.3495 17.3223C18.0373 17.3223 18.7028 17.3223 19.3906 17.3223C19.5681 17.3223 19.6346 17.3888 19.6346 17.5663C19.6346 18.1431 19.6346 18.72 19.6346 19.2968C19.6346 19.4743 19.5681 19.5408 19.3906 19.5408C19.0356 19.563 18.7028 19.563 18.3701 19.563Z" fill="#CB1B5B"/>
<path d="M21.9443 19.5643C21.6115 19.5643 21.2787 19.5643 20.9237 19.5643C20.7462 19.5643 20.6797 19.4977 20.6797 19.3202C20.6797 18.7434 20.6797 18.1444 20.6797 17.5676C20.6797 17.4123 20.7462 17.3457 20.9015 17.3457C21.5893 17.3457 22.2771 17.3457 22.987 17.3457C23.1423 17.3457 23.2089 17.4123 23.2089 17.5676C23.2089 18.1444 23.2089 18.7434 23.2089 19.3202C23.2089 19.4977 23.1201 19.5643 22.9648 19.5643C22.632 19.5643 22.2992 19.5643 21.9443 19.5643Z" fill="#CB1B5B"/>
<path d="M11.1396 22.6932C10.8068 22.6932 10.474 22.6932 10.119 22.6932C9.94156 22.6932 9.875 22.6266 9.875 22.4491C9.875 21.8723 9.875 21.2733 9.875 20.6965C9.875 20.519 9.94156 20.4746 10.119 20.4746C10.8068 20.4746 11.4724 20.4746 12.1601 20.4746C12.3376 20.4746 12.4042 20.5412 12.4042 20.7187C12.4042 21.2955 12.4042 21.8723 12.4042 22.4491C12.4042 22.6266 12.3154 22.6932 12.1601 22.6932C11.8273 22.6932 11.4946 22.6932 11.1396 22.6932Z" fill="#CB1B5B"/>
<path d="M14.7541 22.6932C14.4213 22.6932 14.0885 22.6932 13.7558 22.6932C13.5339 22.6932 13.5117 22.671 13.5117 22.4491C13.5117 21.8723 13.5117 21.2955 13.5117 20.7187C13.5117 20.4968 13.5561 20.4746 13.7558 20.4746C14.4213 20.4746 15.1091 20.4746 15.7747 20.4746C15.9522 20.4746 16.0187 20.5412 16.0187 20.7187C16.0187 21.2955 16.0187 21.8723 16.0187 22.4491C16.0187 22.6266 15.9522 22.6932 15.7747 22.6932C15.4419 22.6932 15.0869 22.6932 14.7541 22.6932Z" fill="#CB1B5B"/>
<path d="M18.3505 22.6932C18.0177 22.6932 17.6628 22.6932 17.33 22.6932C17.1747 22.6932 17.0859 22.6266 17.0859 22.4713C17.0859 21.8945 17.0859 21.2955 17.0859 20.7187C17.0859 20.5412 17.1525 20.4746 17.33 20.4746C18.0177 20.4746 18.7055 20.4746 19.3933 20.4746C19.5486 20.4746 19.6151 20.5412 19.6151 20.6965C19.6151 21.2955 19.6151 21.8723 19.6151 22.4713C19.6151 22.6266 19.5486 22.6932 19.3933 22.6932C19.0383 22.6932 18.7055 22.6932 18.3505 22.6932Z" fill="#CB1B5B"/>
<path d="M21.9677 20.4734C22.3005 20.4734 22.6333 20.4734 22.9883 20.4734C23.1657 20.4734 23.2323 20.5399 23.2323 20.7174C23.2323 21.2942 23.2323 21.8711 23.2323 22.4479C23.2323 22.6254 23.1657 22.6919 22.9883 22.6919C22.3005 22.6919 21.6349 22.6919 20.9472 22.6919C20.7919 22.6919 20.7031 22.6254 20.7031 22.4479C20.7031 21.8711 20.7031 21.272 20.7031 20.6952C20.7031 20.5177 20.7697 20.4512 20.9472 20.4512C21.28 20.4734 21.6127 20.4734 21.9677 20.4734Z" fill="#CB1B5B"/>
<path d="M1.35547 8.84572C1.82137 8.24671 7.39 1.25818 16.708 1.79064C25.5602 2.30091 30.2636 9.17851 30.7516 9.93283" stroke="#CB1B5B" stroke-width="0.8" stroke-miterlimit="10" stroke-linecap="round"/>
<path d="M30.6848 5.7832C30.707 7.15872 30.7292 8.55643 30.7736 9.93195C29.4203 9.62135 28.0447 9.28856 26.6914 8.97796" stroke="#CB1B5B" stroke-width="0.1" stroke-miterlimit="10" stroke-linecap="round" stroke-linejoin="round"/>
<path d="M30.7555 29.1223C30.2896 29.7213 24.721 36.7098 15.403 36.1773C6.55085 35.6671 1.84746 28.7895 1.35938 28.0352" stroke="#CB1B5B" stroke-width="0.8" stroke-miterlimit="10" stroke-linecap="round"/>
<path d="M1.42468 32.2073C1.40249 30.8318 1.38031 29.4341 1.33594 28.0586C2.68927 28.3692 4.06479 28.702 5.41812 29.0126" stroke="#CB1B5B" stroke-width="0.8" stroke-miterlimit="10" stroke-linecap="round" stroke-linejoin="round"/>
<path d="M9.63281 15.7051C14.2918 15.7051 18.973 15.7051 23.632 15.7051" stroke="#CB1B5B" stroke-width="0.5" stroke-miterlimit="10" stroke-linecap="round"/>
</svg>
