<svg width="58" height="63" viewBox="0 0 58 63" fill="none" xmlns="http://www.w3.org/2000/svg">
<path d="M30.362 0.100098C31.362 0.400098 32.4619 0.500085 33.4619 0.900085C38.4619 2.80009 41.862 7.70011 41.562 13.3001C41.162 19.2001 37.262 23.7001 31.762 25.0001C25.062 26.5001 18.1619 21.9001 16.9619 15.1001C15.7619 8.3001 19.8619 2.00009 26.4619 0.400085C26.9619 0.300085 27.4619 0.200098 27.9619 0.100098C28.7619 0.100098 29.562 0.100098 30.362 0.100098ZM29.1619 2.1001C23.3619 2.1001 18.762 6.8001 18.762 12.7001C18.762 18.5001 23.4619 23.3001 29.1619 23.3001C34.9619 23.3001 39.562 18.6001 39.562 12.7001C39.562 6.8001 34.9619 2.1001 29.1619 2.1001Z" fill="white"/>
<path d="M14.5613 44.2001C16.5613 45.1001 17.9613 46.5001 19.0613 48.2001C21.9613 44.9001 21.9614 44.9001 24.7614 43.4001C22.1614 41.7001 20.7613 39.4001 20.8613 36.3001C20.8613 34.1001 21.8613 32.2001 23.4613 30.7001C26.8613 27.5001 32.3613 27.9001 35.3613 31.5001C38.2613 35.0001 37.8613 40.4001 33.3613 43.4001C35.8613 44.4001 37.7614 46.1001 39.2614 48.3001C40.3614 46.5001 41.8613 45.1001 43.8613 44.2001C41.6613 42.5001 40.6613 40.3001 41.0613 37.6001C41.3613 35.8001 42.2613 34.4001 43.6613 33.3001C46.6613 31.1001 50.7613 31.7001 53.0613 34.6001C55.0613 37.2001 55.1613 41.5001 51.5613 44.2001C52.2613 44.7001 53.0613 45.1001 53.6613 45.7001C56.0613 47.7001 57.2613 50.4001 57.4613 53.5001C57.5613 55.1001 57.4613 56.7001 57.4613 58.3001C57.4613 59.2001 57.0613 59.5001 56.1613 59.5001C51.4613 59.5001 46.7613 59.5001 41.9613 59.5001C41.7613 59.5001 41.4613 59.5001 41.1613 59.5001C41.1613 60.0001 41.1613 60.4001 41.1613 60.8001C41.1613 61.7001 40.8613 62.1001 39.8613 62.1001C34.7613 62.1001 29.6613 62.1001 24.5613 62.1001C22.3613 62.1001 20.1613 62.1001 17.9613 62.1001C16.9613 62.1001 16.6613 61.8001 16.6613 60.8001C16.6613 60.4001 16.6613 60.0001 16.6613 59.6001C16.3613 59.6001 16.1613 59.6001 15.9613 59.6001C11.2613 59.6001 6.56133 59.6001 1.86133 59.6001C0.761333 59.6001 0.461308 59.3001 0.461308 58.2001C0.461308 56.3001 0.36132 54.4001 0.66132 52.6001C1.16132 49.0001 3.06136 46.2001 6.26136 44.5001C6.36136 44.5001 6.46131 44.4001 6.46131 44.3001C2.76131 41.5001 2.86136 37.0001 5.26136 34.4001C7.86136 31.5001 12.2613 31.4001 15.0613 34.0001C17.8613 36.3001 18.4613 41.1001 14.5613 44.2001ZM18.9613 60.0001C25.8613 60.0001 32.6613 60.0001 39.3613 60.0001C39.3613 58.2001 39.3613 56.5001 39.3613 54.7001C39.3613 53.2001 38.8614 51.8001 38.2614 50.5001C36.4614 47.1001 33.7614 44.8001 29.7614 44.6001C25.2614 44.4001 22.1613 46.6001 20.0613 50.5001C18.5613 53.5001 18.9613 56.7001 18.9613 60.0001ZM16.8613 57.4001C16.8613 57.2001 16.8613 57.1001 16.8613 57.1001C16.7613 54.9001 16.9614 52.8001 17.7614 50.7001C17.8614 50.6001 17.7614 50.4001 17.7614 50.2001C15.6614 45.4001 9.86133 43.7001 5.86133 47.1001C2.56133 49.8001 2.46136 53.5001 2.76136 57.4001C7.46136 57.4001 12.1613 57.4001 16.8613 57.4001ZM55.6613 57.4001C55.6613 56.6001 55.6613 55.9001 55.6613 55.2001C55.6613 53.7001 55.6613 52.3001 55.0613 50.9001C53.7613 47.7001 51.5613 45.7001 47.9613 45.4001C44.9613 45.2001 42.0613 47.1001 40.6613 50.0001C40.5613 50.2001 40.4613 50.6001 40.5613 50.8001C41.1613 52.5001 41.4613 54.3001 41.4613 56.1001C41.4613 56.5001 41.4613 56.9001 41.4613 57.4001C46.1613 57.4001 50.8613 57.4001 55.6613 57.4001ZM35.2614 36.6001C35.3614 33.3001 32.6613 30.6001 29.1613 30.5001C25.7613 30.4001 22.9613 33.1001 22.8613 36.4001C22.7613 39.7001 25.4613 42.5001 28.8613 42.5001C32.3613 42.6001 35.1614 40.0001 35.2614 36.6001ZM15.3613 38.7001C15.3613 36.1001 13.2613 34.0001 10.5613 34.0001C7.96135 34.0001 5.76136 36.1001 5.76136 38.7001C5.76136 41.3001 7.96135 43.4001 10.5613 43.4001C13.1613 43.4001 15.3613 41.2001 15.3613 38.7001ZM42.9613 38.6001C42.9613 41.2001 45.0614 43.3001 47.7614 43.3001C50.3614 43.3001 52.5613 41.2001 52.5613 38.6001C52.5613 36.0001 50.3614 33.9001 47.7614 33.9001C45.1614 34.0001 42.9613 36.1001 42.9613 38.6001Z" fill="white"/>
<path d="M26.3613 9.80002C26.3613 9.10002 26.3613 8.40001 26.3613 7.70001C26.3613 7.00001 26.3613 6.30001 26.3613 5.60001C26.3613 4.90001 26.7613 4.5 27.4613 4.5C28.5613 4.5 29.7613 4.5 30.8613 4.5C31.6613 4.5 31.9613 4.90001 31.9613 5.60001C31.9613 6.70001 31.9613 7.9 31.9613 9C31.9613 9.2 31.9613 9.40001 31.9613 9.70001C32.5613 9.70001 33.0613 9.70001 33.6613 9.70001C34.4613 9.70001 35.1613 9.70001 35.9613 9.70001C36.7613 9.70001 37.1613 10.1 37.1613 10.9C37.1613 12 37.1613 13.2 37.1613 14.3C37.1613 15.1 36.7613 15.5 35.9613 15.5C34.8613 15.5 33.8614 15.5 32.7614 15.5C32.5614 15.5 32.3613 15.5 32.0613 15.5C32.0613 16.2 32.0613 16.9 32.0613 17.6C32.0613 18.3 32.0613 18.9 32.0613 19.6C32.0613 20.4 31.6613 20.7 30.9613 20.7C29.8613 20.7 28.6613 20.7 27.5613 20.7C26.7613 20.7 26.4613 20.3 26.4613 19.6C26.4613 18.5 26.4613 17.3 26.4613 16.2C26.4613 16 26.4613 15.8 26.4613 15.5C25.6613 15.5 24.8613 15.5 24.0613 15.5C23.5613 15.5 22.9613 15.5 22.4613 15.5C21.7613 15.5 21.3613 15.1 21.3613 14.4C21.3613 13.3 21.3613 12.1 21.3613 11C21.3613 10.2 21.7613 9.80002 22.5613 9.80002C23.6613 9.80002 24.7613 9.80002 25.8613 9.80002C25.8613 9.80002 26.0613 9.80002 26.3613 9.80002ZM28.3613 6.5C28.3613 7.8 28.3613 9.10002 28.3613 10.3C28.3613 11.4 28.0613 11.7 26.9613 11.7C25.7613 11.7 24.5613 11.7 23.3613 11.7C23.3613 12.3 23.3613 12.8 23.3613 13.4C23.5613 13.4 23.7613 13.4 23.9613 13.4C25.0613 13.4 26.0613 13.4 27.1613 13.4C28.0613 13.4 28.4613 13.8 28.4613 14.6C28.4613 15.7 28.4613 16.9 28.4613 18C28.4613 18.2 28.4613 18.4 28.4613 18.6C29.0613 18.6 29.5613 18.6 30.1613 18.6C30.1613 17.2 30.1613 15.9 30.1613 14.5C30.1613 13.8 30.5614 13.4 31.2614 13.4C31.6614 13.4 32.0613 13.4 32.3613 13.4C33.2613 13.4 34.2613 13.4 35.1613 13.4C35.1613 12.8 35.1613 12.2 35.1613 11.7C34.1613 11.7 33.0613 11.7 32.0613 11.7C30.1613 11.7 30.0613 11.6 30.0613 9.70001C30.0613 8.60001 30.0613 7.49999 30.0613 6.39999C29.4613 6.49999 28.9613 6.5 28.3613 6.5Z" fill="white"/>
</svg>
