<svg width="150" height="150" viewBox="0 0 150 150" fill="none" xmlns="http://www.w3.org/2000/svg">
<circle cx="75" cy="75" r="75" fill="white"/>
<g clip-path="url(#clip0_9236_66580)">
<path d="M79 45C62.4588 45 49 58.4588 49 75C49 91.5412 62.4588 105 79 105C95.5412 105 109 91.5412 109 75C109 58.4588 95.5412 45 79 45ZM79 101.25C64.5288 101.25 52.75 89.475 52.75 75C52.75 60.525 64.5288 48.75 79 48.75C93.4712 48.75 105.25 60.525 105.25 75C105.25 89.475 93.4712 101.25 79 101.25Z" fill="#CB1B5B"/>
<path d="M88.3759 67.5H86.3097C86.0284 66.105 85.4059 64.845 84.5772 63.75H88.3759C89.4109 63.75 90.2509 62.91 90.2509 61.875C90.2509 60.84 89.4109 60 88.3759 60H77.1259H69.6259C68.5909 60 67.7509 60.84 67.7509 61.875C67.7509 62.91 68.5909 63.75 69.6259 63.75H77.1259C79.5672 63.75 81.6297 65.3212 82.4059 67.5H69.6259C68.5909 67.5 67.7509 68.34 67.7509 69.375C67.7509 70.41 68.5909 71.25 69.6259 71.25H82.4059C81.6297 73.4288 79.5672 75 77.1259 75H69.6259C69.3822 75 69.1384 75.0487 68.9097 75.1425C68.4522 75.3338 68.0847 75.6975 67.8934 76.1588C67.7022 76.6163 67.7022 77.1337 67.8934 77.5912C67.9872 77.8237 68.1259 78.03 68.3022 78.2025L83.2984 93.1987C83.6659 93.5662 84.1459 93.75 84.6259 93.75C85.1059 93.75 85.5859 93.5662 85.9534 93.2025C86.6847 92.4712 86.6847 91.2825 85.9534 90.5513L74.1522 78.75H77.1259C81.6559 78.75 85.4397 75.525 86.3097 71.25H88.3759C89.4109 71.25 90.2509 70.41 90.2509 69.375C90.2509 68.34 89.4109 67.5 88.3759 67.5Z" fill="#CB1B5B"/>
</g>
<defs>
<clipPath id="clip0_9236_66580">
<rect width="60" height="60" fill="white" transform="translate(49 45)"/>
</clipPath>
</defs>
</svg>
