<svg width="21" height="18" viewBox="0 0 21 18" fill="none" xmlns="http://www.w3.org/2000/svg">
<path d="M19.775 7.46289V16.4379C19.775 16.7504 19.525 17.0004 19.2125 17.0004H1.5625C1.25 17.0004 1 16.7504 1 16.4379V7.46289C1 7.15039 1.25 6.90039 1.5625 6.90039H19.2C19.225 6.90039 19.2875 6.90039 19.3125 6.92539C19.575 6.96289 19.775 7.18789 19.775 7.46289Z" stroke="#CB1B5B" stroke-miterlimit="10" stroke-linecap="round" stroke-linejoin="round"/>
<path d="M18.7617 6.9375C18.7367 6.9125 18.6742 6.9125 18.6492 6.9125H2.01172L16.3117 1L18.7617 6.9375Z" stroke="#CB1B5B" stroke-miterlimit="10" stroke-linecap="round" stroke-linejoin="round"/>
<path d="M8.5 9.0625C10.05 9.0625 11.6125 9.0625 13.1625 9.0625" stroke="#CB1B5B" stroke-width="0.75" stroke-miterlimit="10" stroke-linecap="round"/>
<path d="M8.5 10.8008C10.05 10.8008 11.6125 10.8008 13.1625 10.8008" stroke="#CB1B5B" stroke-width="0.75" stroke-miterlimit="10" stroke-linecap="round"/>
<path d="M10.5242 9.0625C11.3492 9.2375 11.9242 9.9875 11.8992 10.8C11.8742 11.6625 11.1742 12.3875 10.2742 12.45C9.74922 12.45 9.22422 12.45 8.69922 12.4625C9.41172 13.4125 10.1117 14.375 10.8242 15.325" stroke="#CB1B5B" stroke-miterlimit="10" stroke-linecap="round" stroke-linejoin="round"/>
</svg>
