<svg width="32" height="32" viewBox="0 0 32 32" fill="none" xmlns="http://www.w3.org/2000/svg">
<mask id="mask0_95_883" style="mask-type:alpha" maskUnits="userSpaceOnUse" x="0" y="0" width="32" height="32">
<rect x="1" y="1" width="30" height="30" fill="#D9D9D9" stroke="#CB1B5B" stroke-width="2"/>
</mask>
<g mask="url(#mask0_95_883)">
<path d="M12.1442 14.2389L12.1429 14.2376C11.1256 13.2144 10.5712 11.8603 10.5771 10.4161H10.5771V10.4121C10.5771 7.43099 13.0069 4.99951 15.9925 4.99951C18.9792 4.99951 21.4093 7.4307 21.4093 10.4163C21.4093 13.4018 18.9792 15.833 15.9925 15.833H15.9565C14.5084 15.8279 13.1584 15.2626 12.1442 14.2389ZM15.9922 19.6251H15.9925L16.1477 19.6251L16.1508 19.6251L16.4992 19.6263C16.4998 19.6263 16.5003 19.6263 16.5009 19.6263C17.8517 19.6352 19.9443 19.7113 21.6754 20.2575C22.5374 20.5295 23.2316 20.8948 23.6995 21.3577C24.1411 21.7945 24.4133 22.3463 24.4133 23.1178C24.4133 23.8915 24.1476 24.4398 23.7228 24.8694C23.2726 25.3246 22.6019 25.685 21.7588 25.9539C20.0635 26.4946 17.9856 26.5708 16.545 26.5798L15.4823 26.5797C14.1314 26.5707 12.0393 26.4946 10.3084 25.9493C9.4461 25.6776 8.75173 25.3127 8.28377 24.8504C7.84221 24.4142 7.57031 23.8636 7.57031 23.0939C7.57031 22.3298 7.84114 21.7829 8.28232 21.3489C8.75011 20.8886 9.44458 20.5251 10.3073 20.2544C12.0396 19.7108 14.1334 19.6352 15.4843 19.6263C15.4848 19.6263 15.4853 19.6263 15.4857 19.6263L15.8348 19.6251L15.8373 19.6251L15.9922 19.6251Z" stroke="#CB1B5B" stroke-width="2"/>
<path d="M27.1631 18.0547C30.566 18.5645 31.2808 20.1627 31.2808 21.414C31.2808 22.178 30.9803 23.5726 28.972 24.338C28.8484 24.3844 28.722 24.4068 28.597 24.4068" stroke="#CB1B5B" stroke-width="2" stroke-linecap="round"/>
<path d="M3.38836 24.4068C3.26337 24.4068 3.13697 24.3844 3.01338 24.338C1.00367 23.5712 0.703125 22.1766 0.703125 21.414C0.703125 20.1641 1.41797 18.5645 4.82226 18.0547" stroke="#CB1B5B" stroke-width="2" stroke-linecap="round"/>
<path d="M7.41845 15.4306C4.92561 15.0809 3.0437 12.9181 3.03809 10.4C3.03809 7.89311 4.83152 5.78087 7.30047 5.375" stroke="#CB1B5B" stroke-width="2" stroke-linecap="round"/>
<path d="M24.6838 5.375C27.1528 5.78087 28.9462 7.89311 28.9462 10.3972C28.9406 12.9181 27.0573 15.0809 24.5645 15.4306" stroke="#CB1B5B" stroke-width="2" stroke-linecap="round"/>
</g>
</svg>
