<svg width="408" height="241" viewBox="0 0 408 241" fill="none" xmlns="http://www.w3.org/2000/svg">
<path d="M363.723 20.6293C363.723 20.6293 355.481 -10.7027 382.421 5.06237C383.868 9.74425 363.723 20.6293 363.723 20.6293Z" fill="#87523F"/>
<path d="M394.376 231.622L394.476 233.065C394.492 233.298 394.486 233.53 394.456 233.761L393.901 238.076C393.781 239.011 394.332 239.933 395.237 240.197C395.416 240.249 395.604 240.277 395.797 240.277L406.003 240.56C407.185 240.56 408.097 239.543 407.992 238.386C407.984 238.294 407.963 238.202 407.938 238.112L405.847 230.332C405.6 229.412 404.842 224.243 403.892 224.324L396.289 224.964C395.216 225.054 394.302 230.547 394.376 231.621V231.622Z" fill="black"/>
<path d="M363.809 225.385V234.1H371.211C371.777 234.1 372.342 234.208 372.342 233.642L372.236 225.128L363.809 225.385Z" fill="#F2E5DA"/>
<path d="M372.439 236.443C372.439 238.646 372.858 240.431 367.471 240.431C362.083 240.431 351.363 241.209 351.363 239.006C351.363 232.456 362.199 230.384 367.585 230.384C372.971 230.384 372.437 234.242 372.437 236.443H372.439Z" fill="black"/>
<path d="M362.17 113.518C361.027 113.518 360.056 114.353 359.884 115.483C358.625 123.812 354.28 169.515 358.603 229.327C358.811 232.194 367.579 231.583 371.555 231.156C372.668 231.036 373.536 230.137 373.615 229.019L380.784 115.989C380.878 114.651 379.818 113.515 378.479 113.515H362.17V113.518Z" fill="#3E3D4B"/>
<path d="M376.061 114.499L392.38 230.182C392.529 230.96 393.208 231.523 394.001 231.523H405.788C406.74 231.523 407.495 230.72 407.436 229.771L401.092 115.067C401.038 114.196 400.317 113.516 399.444 113.516L377.682 112.537C376.647 112.537 375.866 113.48 376.061 114.497V114.499Z" fill="#3E3D4B"/>
<path d="M383.747 55.8178V108.45C383.747 112.786 380.231 116.302 375.895 116.302H370.296C365.865 116.302 362.311 112.637 362.447 108.208L364.162 55.5754C364.293 51.334 367.768 47.9639 372.011 47.9639H375.897C380.233 47.9639 383.749 51.4798 383.749 55.8161L383.747 55.8178Z" fill="#E799B6"/>
<path d="M384.163 47.9651H369.553L369.789 45.8804L371.813 28.0029L371.86 27.5869H381.856L381.984 28.7103L382.96 37.3404L384.163 47.9651Z" fill="#F8AFA6"/>
<path d="M382.96 37.3404C380.592 41.3656 376.313 46.3472 369.789 45.8804L371.813 28.0029L373.415 27.5869H376.415L381.984 28.7103L382.96 37.3404Z" fill="#EC948D"/>
<path d="M383.966 47.9639C382.494 50.6381 379.649 52.4492 376.382 52.4492C373.115 52.4492 370.269 50.6381 368.797 47.9639H383.966Z" fill="#F8AFA6"/>
<path d="M383.749 40.4458L397.865 46.0496C398.157 46.1643 398.36 46.4312 398.389 46.744L406.094 139.474C406.184 140.635 405.329 141.656 404.17 141.772C404.17 141.772 382.537 149.413 378.686 144.299C375.193 139.664 378.055 75.0711 378.055 75.0711L383.749 40.4474V40.4458Z" fill="white"/>
<path d="M368.377 42.1119L359.017 47.0345C358.675 47.2147 358.449 47.5602 358.423 47.9467L351.925 142.111C351.884 142.701 352.309 143.22 352.896 143.295L365.522 144.93C366.149 144.959 366.674 144.461 366.683 143.834L367.331 91.3903L370.013 43.1616C370.061 42.2953 369.147 41.7074 368.379 42.1119H368.377Z" fill="white"/>
<path d="M362.887 60.1181L367.693 62.7661L363.529 66.2263L367.331 91.3879C367.331 91.3879 373.952 42.0473 370.123 41.0205C368.882 41.0205 367.685 42.0391 367.685 42.0391L362.888 60.1165L362.887 60.1181Z" fill="#F6F6F6"/>
<path d="M383.353 40.2833C382.496 44.4673 375.82 76.2088 377.459 91.3893C380.382 84.3623 387.537 65.4809 387.537 65.4809L383.073 62.4464L387.686 57.9611L386.96 41.6425C386.888 41.2101 386.582 40.8548 386.165 40.7189L383.885 39.9754C383.651 39.8984 383.402 40.0425 383.351 40.2833H383.353Z" fill="#F6F6F6"/>
<path d="M386.613 105.12C386.849 105.903 387.489 106.524 387.997 107.139C388.56 107.822 389.127 108.504 389.7 109.177C390.846 110.523 392.027 111.841 393.283 113.086C393.998 113.795 394.74 114.477 395.51 115.128C395.67 115.262 395.903 115.033 395.741 114.897C393.081 112.653 390.799 110.013 388.585 107.341C388.275 106.967 387.965 106.592 387.656 106.217C387.36 105.857 387.063 105.489 386.927 105.035C386.867 104.834 386.551 104.919 386.611 105.122L386.613 105.12Z" fill="#BFBFBF"/>
<path d="M385.959 71.6426C392.347 55.0571 391.756 47.7059 390.138 44.4586C389.27 42.7194 388.235 42.2069 388.189 42.1921C388.189 42.1921 389.802 42.2953 390.114 42.6064C390.181 42.6736 396.626 48.451 386.842 71.9816L385.961 71.641L385.959 71.6426Z" fill="#231F20"/>
<path d="M388.08 73.4801C387.623 74.6526 386.303 75.2339 385.131 74.7771C383.958 74.3202 383.377 73.0019 383.834 71.8277C384.291 70.6569 385.61 70.0755 386.781 70.5324C387.954 70.9893 388.535 72.3092 388.078 73.4801H388.08Z" fill="#8D8F90"/>
<path d="M387.858 73.3938C387.449 74.4451 386.266 74.9642 385.215 74.5565C384.164 74.1471 383.645 72.9647 384.054 71.9134C384.463 70.8637 385.644 70.3429 386.695 70.7507C387.747 71.1601 388.268 72.3424 387.858 73.3938Z" fill="#BCBEC0"/>
<path d="M387.279 73.1685C386.994 73.8973 386.173 74.2608 385.443 73.9759C384.714 73.6926 384.352 72.8705 384.636 72.1401C384.919 71.4114 385.743 71.0495 386.471 71.3328C387.202 71.6177 387.562 72.4382 387.279 73.1685Z" fill="#58595B"/>
<path d="M367.543 71.8578L364.293 70.2906C361.443 67.8195 359.049 58.2576 358.949 57.8515L359.352 57.6697C359.377 57.7663 361.782 67.3773 364.488 69.7617L367.669 71.2895L367.543 71.8561V71.8578Z" fill="#5E5F60"/>
<path d="M368.309 72.367C368.262 72.3686 368.214 72.3604 368.17 72.3391L367.133 71.8593C367.032 71.8118 366.945 71.7119 366.896 71.5777C366.845 71.4434 366.834 71.2911 366.865 71.1486C366.925 70.8637 367.156 70.6999 367.359 70.7949L368.396 71.2747C368.499 71.3222 368.583 71.4221 368.633 71.5564C368.684 71.6907 368.696 71.843 368.666 71.9838C368.617 72.2049 368.475 72.3588 368.311 72.367H368.309Z" fill="#BCBEC0"/>
<path d="M362.151 72.1179L361.971 71.5644L364.99 69.7368C367.453 67.0987 368.919 57.3042 368.932 57.2043L369.351 57.3468C369.289 57.7611 367.832 67.5081 365.234 70.2445L365.192 70.2789L362.149 72.1195L362.151 72.1179Z" fill="#5E5F60"/>
<path d="M361.441 72.699C361.275 72.7072 361.118 72.568 361.051 72.3518C361.008 72.2143 361.003 72.062 361.041 71.9244C361.08 71.7852 361.154 71.6771 361.251 71.6198L362.237 71.0417C362.43 70.9271 362.675 71.0696 362.764 71.348C362.808 71.4872 362.811 71.6395 362.774 71.777C362.736 71.9162 362.662 72.0227 362.566 72.08L361.58 72.658C361.537 72.6826 361.491 72.6974 361.444 72.699H361.441Z" fill="#BCBEC0"/>
<path d="M369.205 57.4406C368.969 57.4521 368.766 57.195 368.748 56.8642C368.635 54.7288 367.842 53.0224 366.516 52.0595C364.888 50.8771 362.718 50.9934 361.234 52.3411C360.389 53.1092 359.412 54.5945 359.553 57.3014C359.571 57.6338 359.394 57.9139 359.158 57.9253C359.158 57.9253 359.156 57.9253 359.155 57.9253C358.92 57.9368 358.717 57.6781 358.699 57.3489C358.565 54.7894 359.294 52.6506 360.753 51.3242C362.476 49.757 364.998 49.6211 366.887 50.9934C368.5 52.1659 369.465 54.2342 369.601 56.8151C369.617 57.1475 369.44 57.4275 369.206 57.4406H369.205Z" fill="#231F20"/>
<path d="M366.339 43.1221C366.339 43.1221 365.183 42.7225 364.617 43.8279C363.457 46.0894 363.231 50.7451 363.234 50.8073L364.178 50.7729C364.176 50.7058 363.999 45.8684 366.339 43.1237V43.1221Z" fill="#231F20"/>
<path d="M385.815 21.4652C386.165 12.2603 381.498 4.6099 375.39 4.37741C369.283 4.14491 364.047 11.4184 363.697 20.6232C363.347 29.828 368.014 37.4785 374.121 37.711C380.229 37.9435 385.464 30.67 385.815 21.4652Z" fill="#F8AFA6"/>
<path d="M369.146 19.9808C369.11 20.9143 368.781 21.6577 368.407 21.6446C368.034 21.6315 367.762 20.8635 367.798 19.9301C367.834 18.9967 368.163 18.2532 368.537 18.2663C368.91 18.2794 369.182 19.0474 369.146 19.9808Z" fill="#653E2F"/>
<path d="M378.173 20.3246C378.137 21.258 377.808 22.0015 377.435 21.9884C377.061 21.9753 376.789 21.2073 376.825 20.2738C376.861 19.3404 377.191 18.5969 377.564 18.61C377.937 18.6231 378.209 19.3912 378.173 20.3246Z" fill="#653E2F"/>
<path d="M372.14 20.3755C372.14 20.3755 369.473 25.3177 370.807 27.5006C372.142 29.6836 374.44 27.6399 374.44 27.6399C374.44 27.6399 369.35 30.6825 372.14 20.3771V20.3755Z" fill="#EC948D"/>
<path d="M370.3 17.0383C369.066 16.4733 368.126 16.4258 366.866 16.8761C366.499 17.0071 366.115 16.7271 366.129 16.3374L366.133 16.2326C366.136 16.1605 366.18 16.095 366.246 16.0655C368.003 15.286 369.08 15.2991 370.731 16.1523C370.9 16.2391 371.003 16.4176 370.995 16.6059C370.981 16.9564 370.618 17.184 370.299 17.0383H370.3Z" fill="#87523F"/>
<path d="M379.256 17.5138C377.825 16.8588 376.734 16.8047 375.273 17.3255C374.847 17.4778 374.402 17.1519 374.418 16.6999L374.423 16.5787C374.427 16.4952 374.477 16.4199 374.554 16.3855C376.591 15.4816 377.841 15.4963 379.755 16.487C379.95 16.5886 380.07 16.7933 380.062 17.0143C380.047 17.4205 379.624 17.6858 379.256 17.5155V17.5138Z" fill="#87523F"/>
<path d="M382.393 8.31416C382.393 8.31416 370.452 14.5141 364.07 11.5304C364.196 5.5974 376.46 -1.82089 382.393 8.31416Z" fill="#87523F"/>
<path d="M380.064 3.75442C380.064 3.75442 396.984 0.626617 384.987 23.8198C382.989 25.2347 385.753 11.1154 380.203 8.93248C377.984 6.96246 380.064 3.75442 380.064 3.75442Z" fill="#87523F"/>
<path d="M370.825 31.0571C371.241 31.8775 372.12 32.3573 373.019 32.4179C374.023 32.4851 374.97 32.0216 375.744 31.4239C375.926 31.2831 375.913 30.9801 375.767 30.8229C375.6 30.6411 375.348 30.6591 375.166 30.8C374.585 31.2487 373.864 31.6024 373.114 31.5713C372.486 31.5451 371.867 31.2307 371.577 30.6575C371.329 30.1695 370.579 30.5691 370.827 31.0587L370.825 31.0571Z" fill="white"/>
<path d="M375.012 12.6096C375.012 12.6096 379.802 11.8154 381.87 8.22579C380.761 7.57894 380.411 7.83277 380.411 7.83277C380.411 7.83277 380.594 10.4103 375.012 12.6096Z" fill="#87523F"/>
<path d="M367.68 6.18548C369.128 5.19473 370.872 4.74767 372.618 4.91307C372.839 4.93436 373.027 4.71001 373.027 4.50367C373.027 4.26458 372.839 4.11556 372.618 4.09427C370.744 3.91741 368.82 4.41688 367.268 5.47804C367.086 5.6025 367.004 5.83831 367.12 6.03809C367.227 6.21823 367.497 6.30993 367.68 6.18548Z" fill="#87523F"/>
<path d="M359.017 47.0334C359.017 47.0334 350.602 49.4079 349.933 52.4489C349.265 55.4899 343.779 76.5444 343.779 76.5444L356.852 75.5979C356.852 75.5979 359.544 53.9538 359.017 47.0317V47.0334Z" fill="white"/>
<path d="M376.857 73.4211L388.237 69.5547L390.466 77.0205L377.313 81.5566L376.857 73.4211Z" fill="#F8AFA6"/>
<path d="M343.78 76.546L379.339 71.7102L383.662 82.1335C383.662 82.1335 347.909 95.5273 343.78 90.9142C339.652 86.3011 343.78 76.546 343.78 76.546Z" fill="white"/>
<path d="M354.591 76.7115C355.277 78.1247 359.964 79.9703 359.964 79.9703L368.662 81.7241L368.677 74.9331C368.677 74.9331 365.368 70.8636 361.907 69.6764C359.982 69.0164 359.463 70.9111 358.685 71.0045C356.729 71.2386 353.824 75.1345 354.591 76.7131V76.7115Z" fill="#F8AFA6"/>
<path d="M397.864 46.05L386.664 73.6975L367.549 73.1587L366.098 84.3271L393.27 87.1978C395.974 87.825 398.735 86.4183 399.819 83.8636C402.755 76.9399 407.804 61.5007 407.44 57.2053C406.936 51.2624 397.864 46.0483 397.864 46.0483V46.05Z" fill="white"/>
<path d="M385.596 87.1228C387.321 87.1212 389.045 87.1195 390.77 87.1162C391.584 87.1162 392.397 87.1212 393.211 87.1113C393.858 87.1048 394.507 87.0786 395.15 86.9983C396.365 86.846 397.612 86.4858 398.509 85.6113C399.04 85.0938 399.377 84.4339 399.68 83.7674C400.032 82.9944 400.377 82.2198 400.726 81.4469C401.439 79.8683 402.149 78.2913 402.862 76.7126C402.952 76.5145 403.04 76.3147 403.13 76.1165C403.173 76.0216 403.032 75.938 402.989 76.0347C402.287 77.5936 401.583 79.1526 400.88 80.7133C400.526 81.496 400.174 82.2788 399.821 83.0616C399.508 83.7559 399.218 84.4846 398.753 85.0938C397.977 86.1058 396.757 86.5775 395.535 86.7805C394.155 87.0114 392.735 86.9525 391.341 86.9541C389.638 86.9558 387.933 86.9574 386.23 86.9607H385.598C385.493 86.9607 385.493 87.1261 385.598 87.1244L385.596 87.1228Z" fill="#BFBFBF"/>
<path d="M386.441 73.8517C386.722 74.89 386.917 75.9495 387.021 77.0205C387.03 77.1236 387.194 77.1253 387.184 77.0205C387.079 75.9348 386.885 74.8605 386.598 73.8075C386.57 73.706 386.413 73.7486 386.441 73.8517Z" fill="#BFBFBF"/>
<path d="M386.677 73.833C387.448 74.0049 388.21 74.2178 388.958 74.4749C389.5 74.6616 390.16 74.9089 390.386 75.4886C390.424 75.5852 390.583 75.5443 390.543 75.4444C390.366 74.9891 389.959 74.7091 389.526 74.5175C388.976 74.2735 388.383 74.1048 387.804 73.9444C387.445 73.8445 387.083 73.7544 386.719 73.6742C386.616 73.6512 386.574 73.8084 386.675 73.8314L386.677 73.833Z" fill="#BFBFBF"/>
<path d="M387.635 23.0555C387.286 24.8928 386.152 26.2537 384.999 26.3126C384.881 26.3192 384.761 26.3126 384.642 26.2897C384.39 26.2406 384.157 26.1292 383.949 25.9606C383.941 25.954 383.931 25.9442 383.918 25.936C383.122 25.2613 382.744 23.7809 383.048 22.1793C383.214 21.3065 383.559 20.5368 383.997 19.9702C384.151 19.7721 384.313 19.5985 384.485 19.4511C384.493 19.4446 384.501 19.438 384.509 19.4315C384.984 19.0352 385.518 18.8501 386.042 18.95C386.427 19.0221 386.762 19.2464 387.031 19.5772C387.144 19.7148 387.244 19.872 387.331 20.0472C387.719 20.8185 387.855 21.9075 387.635 23.0571V23.0555Z" fill="#F8AFA6"/>
<path d="M347.602 76.4635C349.374 76.3456 351.134 76.0771 352.86 75.6579C353.168 75.5842 353.037 75.1093 352.729 75.1846C351.045 75.5923 349.331 75.8576 347.602 75.9723C347.287 75.9936 347.286 76.4848 347.602 76.4635Z" fill="#BFBFBF"/>
<path d="M377.34 95.3911C376.798 100.995 376.601 106.625 376.583 112.252C376.565 117.885 376.723 123.518 376.881 129.148C376.96 131.932 377.035 134.721 377.322 137.494C377.461 138.846 377.658 140.192 377.903 141.53C378.028 142.208 378.162 142.883 378.296 143.559C378.408 144.118 378.557 144.602 379.063 144.922C379.552 145.231 380.139 145.439 380.687 145.618C381.246 145.801 381.817 145.937 382.397 146.032C383.592 146.227 384.807 146.255 386.014 146.173C388.53 146.002 390.988 145.393 393.431 144.802C396.169 144.139 398.907 143.476 401.647 142.812C402.331 142.647 403.016 142.482 403.7 142.315C404.273 142.175 404.892 142.069 405.4 141.75C406.278 141.198 406.491 140.161 406.406 139.193C406.361 138.699 406.26 138.211 406.134 137.731C406.054 137.425 405.58 137.554 405.661 137.862C405.89 138.743 406.152 139.858 405.708 140.716C405.453 141.209 404.989 141.463 404.472 141.614C403.846 141.797 403.201 141.93 402.567 142.084C399.924 142.724 397.281 143.364 394.638 144.003C392.214 144.589 389.786 145.244 387.306 145.554C384.95 145.849 382.502 145.821 380.263 144.941C379.773 144.75 379.109 144.542 378.91 144.003C378.815 143.744 378.778 143.459 378.724 143.191C378.658 142.86 378.593 142.531 378.529 142.2C378.27 140.862 378.044 139.521 377.887 138.167C377.577 135.496 377.479 132.805 377.401 130.118C377.242 124.653 377.085 119.189 377.075 113.722C377.065 108.274 377.204 102.822 377.653 97.3922C377.708 96.7241 377.767 96.0559 377.833 95.3878C377.864 95.0734 377.371 95.075 377.342 95.3878L377.34 95.3911Z" fill="#BFBFBF"/>
<path d="M108.563 58.5506C113.71 61.1052 125.682 62.0763 132.781 58.5506C150.894 49.552 134.884 39.0403 135.162 28.2093C135.278 23.7124 134.453 19.9804 132.945 17.0655C132.843 16.8689 132.739 16.6724 132.63 16.4841C132.005 15.3918 131.283 14.4257 130.474 13.5872C130.411 13.5184 130.343 13.4497 130.274 13.3809C129.363 12.4704 128.348 11.7187 127.249 11.1308C127.115 11.0588 126.979 10.9867 126.842 10.9212C125.119 10.0729 123.208 9.61605 121.185 9.56201H120.159C118.472 9.60623 116.857 9.93374 115.362 10.5364C115.218 10.5937 115.077 10.6526 114.936 10.7165C113.513 11.3519 112.21 12.2444 111.07 13.3825C111.001 13.4513 110.936 13.5201 110.868 13.5889C110.258 14.2177 109.698 14.9251 109.195 15.6997C109.079 15.8831 108.961 16.0649 108.851 16.2581C107.705 18.1938 106.879 20.5322 106.467 23.2588C106.467 23.2588 106.467 23.267 106.463 23.285C106.463 23.2998 106.46 23.3112 106.457 23.3276C106.295 24.415 106.2 25.5629 106.178 26.7731C106.167 27.2431 106.17 27.7245 106.182 28.2109C106.2 28.9331 106.149 29.6553 106.036 30.3709C104.48 40.4388 91.6562 50.153 108.563 58.5522V58.5506Z" fill="#87523F"/>
<path d="M124.466 38.1777H116.219V50.2648H124.466V38.1777Z" fill="#FFD4B9"/>
<path d="M116.219 38.1777V42.5534C117.53 42.876 118.942 43.0643 120.46 43.1052C121.877 43.1413 123.213 43.0414 124.467 42.8154V38.1777H116.22H116.219Z" fill="#EBA380"/>
<path d="M120.344 42.363C125.869 42.363 130.348 36.1589 130.348 28.5057C130.348 20.8526 125.869 14.6484 120.344 14.6484C114.819 14.6484 110.34 20.8526 110.34 28.5057C110.34 36.1589 114.819 42.363 120.344 42.363Z" fill="#FFD4B9"/>
<path d="M114.817 11.5762C114.894 11.5042 114.97 12.3312 115.05 12.2558C123.418 4.47073 131.576 16.001 131.583 16.0108C134.883 19.2713 134.798 25.8479 134.221 28.6268C123.904 27.0662 120.488 19.8346 119.191 16.34C118.255 19.3614 115.76 25.504 107.643 27.9931C107.402 24.4166 109.109 13.0353 114.819 11.5746L114.817 11.5762Z" fill="#87523F"/>
<path d="M115.443 27.405C115.443 28.0797 115.764 28.6266 116.161 28.6266C116.557 28.6266 116.878 28.0797 116.878 27.405C116.878 26.7303 116.557 26.1833 116.161 26.1833C115.764 26.1833 115.443 26.7303 115.443 27.405Z" fill="#653E2F"/>
<path d="M123.816 27.405C123.816 28.0797 124.137 28.6266 124.534 28.6266C124.93 28.6266 125.251 28.0797 125.251 27.405C125.251 26.7303 124.93 26.1833 124.534 26.1833C124.137 26.1833 123.816 26.7303 123.816 27.405Z" fill="#653E2F"/>
<path d="M117.53 24.9471C116.553 24.5426 115.819 24.5344 114.851 24.9225C114.57 25.0355 114.262 24.8275 114.262 24.5246V24.4427C114.262 24.387 114.294 24.3346 114.345 24.31C115.69 23.6501 116.53 23.6288 117.841 24.2445C117.976 24.3067 118.061 24.4427 118.061 24.5901C118.061 24.8635 117.784 25.0519 117.532 24.9471H117.53Z" fill="#87523F"/>
<path d="M125.903 24.9471C124.926 24.5426 124.192 24.5344 123.224 24.9225C122.943 25.0355 122.635 24.8275 122.635 24.5246V24.4427C122.635 24.387 122.668 24.3346 122.718 24.31C124.063 23.6501 124.903 23.6288 126.215 24.2445C126.349 24.3067 126.434 24.4427 126.434 24.5901C126.434 24.8635 126.157 25.0519 125.905 24.9471H125.903Z" fill="#87523F"/>
<path d="M118.976 36.5016C119.954 36.9061 120.687 36.9143 121.655 36.5261C121.937 36.4132 122.245 36.6211 122.245 36.9241V37.006C122.245 37.0616 122.212 37.114 122.161 37.1386C120.817 37.7986 119.976 37.8198 118.665 37.2041C118.53 37.1419 118.445 37.006 118.445 36.8586C118.445 36.5851 118.722 36.3968 118.974 36.5016H118.976Z" fill="#F6F6F6"/>
<path d="M120.37 27.8091C120.37 27.8091 118.592 31.4282 119.609 32.9577C120.626 34.4872 122.219 32.9577 122.219 32.9577C122.219 32.9577 118.649 35.2798 120.37 27.8091Z" fill="#EC948D"/>
<path d="M132.052 30.2019C131.772 31.6856 130.855 32.7828 129.924 32.8303C129.829 32.8352 129.733 32.8303 129.636 32.8123C129.433 32.773 129.245 32.6829 129.078 32.547C129.071 32.5421 129.063 32.5339 129.053 32.5273C128.411 31.9837 128.107 30.7882 128.352 29.4961C128.487 28.792 128.765 28.1713 129.119 27.7128C129.243 27.554 129.374 27.4131 129.513 27.2936C129.52 27.287 129.527 27.2821 129.533 27.2772C129.916 26.9579 130.347 26.8072 130.769 26.8875C131.081 26.9464 131.351 27.1265 131.567 27.3935C131.657 27.5048 131.739 27.6326 131.809 27.7718C132.122 28.394 132.232 29.2718 132.055 30.2003L132.052 30.2019Z" fill="#FFD4B9"/>
<path d="M108.633 30.2019C108.913 31.6856 109.83 32.7828 110.76 32.8303C110.855 32.8352 110.952 32.8303 111.048 32.8123C111.251 32.773 111.44 32.6829 111.607 32.547C111.613 32.5421 111.621 32.5339 111.631 32.5273C112.273 31.9837 112.578 30.7882 112.332 29.4961C112.198 28.792 111.919 28.1713 111.566 27.7128C111.441 27.554 111.31 27.4131 111.171 27.2936L111.151 27.2772C110.768 26.9579 110.337 26.8072 109.915 26.8875C109.604 26.9464 109.334 27.1265 109.117 27.3935C109.027 27.5048 108.945 27.6326 108.875 27.7718C108.562 28.394 108.453 29.2718 108.629 30.2003L108.633 30.2019Z" fill="#FFD4B9"/>
<path d="M128.463 233.13L128.546 234.33C128.56 234.523 128.555 234.716 128.53 234.908L128.068 238.496C127.968 239.274 128.425 240.04 129.179 240.26C129.328 240.302 129.483 240.327 129.645 240.327L138.133 240.563C139.116 240.563 139.875 239.716 139.787 238.753C139.78 238.676 139.762 238.601 139.743 238.525L138.004 232.055C137.797 231.291 137.167 226.992 136.377 227.057L130.053 227.59C129.161 227.665 128.401 232.232 128.463 233.126V233.13Z" fill="black"/>
<path d="M119.284 233.13L119.201 234.33C119.187 234.523 119.192 234.716 119.217 234.908L119.679 238.496C119.779 239.274 119.322 240.04 118.568 240.26C118.419 240.302 118.264 240.327 118.102 240.327L109.614 240.563C108.632 240.563 107.872 239.716 107.96 238.753C107.967 238.676 107.985 238.601 108.004 238.525L109.743 232.055C109.95 231.291 110.58 226.992 111.37 227.057L117.694 227.59C118.586 227.665 119.346 232.232 119.284 233.126V233.13Z" fill="black"/>
<path d="M140.354 119.018L139.646 172.094L138.564 230.045C138.549 230.824 137.912 231.45 137.132 231.45H129.146C128.427 231.45 127.828 230.9 127.764 230.182L122.771 174.221L121.556 160.59L121.325 174.259L120.386 229.839C120.372 230.733 119.641 231.45 118.747 231.45H109.329C108.542 231.45 107.892 230.841 107.838 230.055L104.644 173.019L102.571 120.765L102.453 119.016H140.357L140.354 119.018Z" fill="#CB1B5B"/>
<path d="M115.06 48.0461L126.001 47.9397L134.739 124.399L108.367 124.969L115.06 48.0461Z" fill="#E799B6"/>
<path d="M114.688 47.8584H125.997L120.345 58.1736L114.688 47.8584Z" fill="#FFD4B9"/>
<path d="M102.675 53.2562L98.2324 154.409C98.2324 154.409 107.965 160.514 116.798 159.022L116.22 47.7588C110.527 48.6791 102.675 53.2545 102.675 53.2545V53.2562Z" fill="white"/>
<path d="M138.959 53.2564C138.959 53.2564 130.159 48.4369 124.467 47.5166L124.829 159.022C124.829 159.022 137.003 159.726 143.836 154.736L138.958 53.2564H138.959Z" fill="white"/>
<path opacity="0.2" d="M129.494 158.956C142.729 130.003 139.639 84.7988 139.639 84.7988C139.639 84.7988 139.934 84.807 140.477 84.8234L143.838 154.735C139.718 157.744 133.657 158.684 129.494 158.956Z" fill="#EDEDED"/>
<path d="M140.259 120H127.9V130.781H140.259V120Z" fill="white"/>
<path d="M108.956 117.59L111.352 122.198V124.967H105.64V121.469L103.629 119.131L108.956 117.59Z" fill="#FFD4B9"/>
<path d="M102.676 53.2563C102.676 53.2563 87.0781 80.8891 87.5088 91.5629C87.833 99.5871 102.925 119.898 102.925 119.898L110.822 117.971L100.216 92.8566L107.365 81.8225L102.676 53.2563Z" fill="white"/>
<path d="M114.544 120H102.186V130.781H114.544V120Z" fill="white"/>
<path d="M146.922 112.055L151.039 132.228L121.378 134.988L118.432 112.086L146.922 112.055Z" fill="#424344"/>
<path d="M147.628 111.348L151.744 131.523L122.083 134.283L119.137 111.379L147.628 111.348Z" fill="#E6E7E8"/>
<path d="M148.194 111.348L152.311 131.523L122.649 134.283L119.703 111.379L148.194 111.348Z" fill="#58595B"/>
<path d="M139.03 120.108L138.063 125.167L134.945 127.115C134.945 127.115 131.308 130.875 131.529 131.294C131.685 131.593 132.54 131.44 133.095 131.309C133.55 131.201 134.226 130.001 134.448 130.045C134.782 130.112 134.281 133.595 134.281 133.595L131.52 134.044C131.52 134.044 133.024 134.483 133.445 134.701C134.583 135.29 137.543 135.126 138.561 134.349C140.358 132.976 142.726 125.411 142.726 125.411L143.836 121.033L139.028 120.106L139.03 120.108Z" fill="#FFD4B9"/>
<path opacity="0.6" d="M143.836 121.035L142.852 124.909L138.473 123.016L139.028 120.108L143.836 121.035Z" fill="#BF9F8B"/>
<path d="M138.959 53.2563C138.959 53.2563 153.802 81.8225 153.802 87.9799C153.802 95.7142 145.833 123.697 145.833 123.697L136.26 122.33L141.919 94.2125L137.676 84.7997L138.957 53.2563H138.959Z" fill="white"/>
<path d="M140.52 67.6814H127.781V74.5675H140.52V67.6814Z" fill="white"/>
<path d="M139.639 69.5889H136.055V72.661H139.639V69.5889Z" fill="#D1D3D4"/>
<path d="M135.092 69.8147H128.664V70.2634H135.092V69.8147Z" fill="#D1D3D4"/>
<path d="M135.092 70.9041H128.664V71.3511H135.092V70.9041Z" fill="#D1D3D4"/>
<path d="M135.092 71.9907H128.664V72.4394H135.092V71.9907Z" fill="#D1D3D4"/>
<path d="M134.825 66.4629H133.48V68.3101H134.825V66.4629Z" fill="white"/>
<path d="M131.71 76.4041C131.704 76.4941 131.694 76.5826 131.687 76.6726C131.666 76.9133 131.643 77.1541 131.622 77.3964C131.611 77.5242 131.599 77.6503 131.586 77.778L130.554 77.6797C130.569 77.5242 130.584 77.3686 130.598 77.2147C130.62 76.9821 130.641 76.7496 130.662 76.5203C130.669 76.4319 130.677 76.3451 130.684 76.2583C132.195 58.6116 129.765 51.249 127.258 48.1572C127.731 48.3243 128.55 48.5584 128.9 48.7206C131.188 52.5853 133.078 60.4719 131.712 76.4041H131.71Z" fill="#231F20"/>
<path d="M133.337 78.988C133.202 80.3603 131.981 81.3625 130.608 81.2282C129.238 81.0923 128.234 79.8723 128.37 78.5016C128.504 77.131 129.726 76.1288 131.096 76.263C132.469 76.3973 133.471 77.619 133.337 78.9896V78.988Z" fill="#8D8F90"/>
<path d="M133.081 78.9625C132.96 80.1924 131.866 81.0898 130.636 80.9702C129.406 80.8491 128.509 79.7551 128.63 78.5253C128.751 77.2955 129.844 76.3981 131.073 76.5193C132.303 76.6404 133.202 77.7344 133.081 78.9625Z" fill="#BCBEC0"/>
<path d="M132.396 78.8959C132.313 79.7491 131.553 80.373 130.698 80.2895C129.845 80.206 129.221 79.4445 129.304 78.5913C129.388 77.7381 130.149 77.1125 131.001 77.1977C131.856 77.2812 132.478 78.0411 132.395 78.8959H132.396Z" fill="#58595B"/>
<path d="M124.503 47.2527C123.657 51.3827 122.201 70.4099 124.628 97.1059C127.513 90.1691 130.335 72.2505 130.335 72.2505L125.928 69.2554L130.482 64.8273L128.063 48.5939C127.991 48.1681 127.69 47.816 127.277 47.6817L125.029 46.9481C124.798 46.8728 124.552 47.0136 124.503 47.2527Z" fill="#EDEDED"/>
<path d="M116.219 47.6042C117.066 51.7343 118.093 81.807 116.475 96.791C113.589 89.8541 110.47 72.476 110.47 72.476L114.876 69.4808L110.322 65.0528L112.659 48.9454C112.731 48.5197 113.032 48.1676 113.444 48.0333L115.692 47.2997C115.923 47.2243 116.168 47.3652 116.218 47.6042H116.219Z" fill="#EDEDED"/>
<path d="M113.18 81.6509L109.575 80.0248C106.387 77.3981 103.498 66.9928 103.377 66.5507L103.813 66.3411C103.842 66.4475 106.744 76.9035 109.773 79.4418L113.301 81.0254L113.18 81.6509Z" fill="#5E5F60"/>
<path d="M114.033 82.1863C113.98 82.1895 113.928 82.1814 113.879 82.1584L112.729 81.6622C112.616 81.6131 112.52 81.5067 112.461 81.3593C112.402 81.2135 112.385 81.0481 112.415 80.8909C112.474 80.5765 112.721 80.3915 112.947 80.4881L114.095 80.9859C114.21 81.035 114.303 81.1415 114.363 81.2889C114.422 81.4346 114.439 81.6 114.411 81.7556C114.365 81.9996 114.213 82.1715 114.033 82.1846V82.1863Z" fill="#BCBEC0"/>
<path d="M107.285 82.0855L107.074 81.4845L110.33 79.3998C112.955 76.4423 114.286 65.6735 114.299 65.5654L114.763 65.7079C114.707 66.1632 113.381 76.8796 110.613 79.9468L110.567 79.9861L107.287 82.0855H107.285Z" fill="#5E5F60"/>
<path d="M106.524 82.7411C106.342 82.7542 106.167 82.6068 106.087 82.371C106.036 82.222 106.026 82.055 106.064 81.9027C106.103 81.7487 106.18 81.6292 106.285 81.5637L107.348 80.9038C107.557 80.7744 107.829 80.9218 107.934 81.2231C107.986 81.3737 107.993 81.5408 107.957 81.6931C107.919 81.847 107.841 81.9649 107.737 82.032L106.673 82.692C106.627 82.7215 106.576 82.7378 106.526 82.7411H106.524Z" fill="#BCBEC0"/>
<path d="M114.602 65.8147C114.343 65.8343 114.114 65.5575 114.086 65.1956C113.904 62.8604 112.989 61.0132 111.509 59.9946C109.694 58.7468 107.32 58.9335 105.733 60.4499C104.829 61.3162 103.799 62.9685 104.03 65.9293C104.059 66.2928 103.873 66.6023 103.615 66.6253H103.612C103.357 66.6449 103.126 66.3665 103.098 66.0062C102.88 63.2076 103.619 60.8446 105.178 59.3511C107.02 57.5874 109.779 57.3679 111.885 58.8189C113.685 60.0585 114.799 62.2955 115.018 65.1203C115.046 65.4839 114.859 65.795 114.604 65.8163H114.602V65.8147Z" fill="#231F20"/>
<path d="M108.971 57.8656C108.974 58.2046 108.987 58.4076 108.989 58.4207L107.955 58.4863C107.954 58.4715 107.942 58.2766 107.939 57.9442C107.919 56.4573 108.067 52.2339 110.11 49.3534C110.589 49.1749 111.828 48.8687 112.618 48.6787C109.202 50.7568 108.958 56.1216 108.971 57.864V57.8656Z" fill="#231F20"/>
<path d="M139.759 89.9684C140.051 90.7708 140.535 91.4717 140.958 92.2086C141.418 93.0078 141.709 93.8233 141.7 94.7567C141.688 95.7589 141.439 96.7578 141.194 97.724C140.955 98.6656 140.665 99.5909 140.337 100.505C139.975 101.518 139.6 102.566 139.708 103.66C139.728 103.865 140.052 103.868 140.031 103.66C139.934 102.671 140.245 101.723 140.573 100.803C140.907 99.8643 141.217 98.9227 141.467 97.9582C141.713 97.0117 141.952 96.0389 142.011 95.0597C142.066 94.1344 141.88 93.2698 141.456 92.4477C141.01 91.5831 140.403 90.8019 140.07 89.8816C140 89.6867 139.687 89.7719 139.759 89.9667V89.9684Z" fill="#BFBFBF"/>
<path d="M102.93 88.8217C101.595 90.3102 100.174 91.9478 100.056 94.044C100.03 94.5189 100.077 95.0036 100.216 95.4588C100.36 95.9321 100.609 96.3611 100.884 96.7689C101.467 97.6352 102.044 98.4966 102.548 99.4136C104.571 103.09 105.764 107.14 107.39 110.993C108.385 113.348 109.508 115.645 110.666 117.923C110.761 118.108 111.039 117.946 110.944 117.76C109.929 115.76 108.938 113.746 108.041 111.691C107.205 109.78 106.482 107.826 105.741 105.876C105.023 103.984 104.281 102.096 103.372 100.286C102.92 99.3874 102.429 98.508 101.882 97.663C101.335 96.818 100.637 96.0271 100.439 95.0118C99.9804 92.6635 101.713 90.6623 103.161 89.0493C103.3 88.8954 103.071 88.6661 102.931 88.82L102.93 88.8217Z" fill="#BFBFBF"/>
<path d="M53.8125 122.413L54.0467 116.558L60.918 116.054C60.918 116.054 61.8138 123.775 59.978 124.974C58.5189 125.927 53.8141 122.413 53.8141 122.413H53.8125Z" fill="#F8AFA6"/>
<path d="M54.1389 49.0959C57.9365 55.4268 62.2155 88.891 61.5441 117.808C55.0445 118.192 53.42 117.808 53.42 117.808C53.42 117.808 41.0611 55.1927 53.3103 48.883C53.6706 48.698 53.931 48.7471 54.1389 49.0959Z" fill="white"/>
<path d="M48.9111 22.1037C48.9111 22.1037 51.7818 -4.71513 30.2131 6.53677C28.7655 11.2186 48.9111 22.1037 48.9111 22.1037Z" fill="#42403E"/>
<path d="M20.3868 231.623L20.2869 233.066C20.2706 233.298 20.2771 233.531 20.3066 233.762L20.8617 238.077C20.9813 239.012 20.431 239.934 19.5271 240.197C19.3486 240.25 19.1603 240.278 18.967 240.278L8.76155 240.561C7.57921 240.561 6.66707 239.544 6.77188 238.386C6.78007 238.294 6.80135 238.203 6.82592 238.113L8.91712 230.333C9.1644 229.412 9.9226 224.244 10.8724 224.324L18.4757 224.964C19.5484 225.055 20.4621 230.547 20.3885 231.621L20.3868 231.623Z" fill="black"/>
<path d="M50.9554 225.383V234.098H43.5535C42.9868 234.098 42.4219 234.206 42.4219 233.64L42.5283 225.126L50.9554 225.383Z" fill="#F2E5DA"/>
<path d="M42.3235 236.442C42.3235 238.644 41.9043 240.429 47.292 240.429C52.6797 240.429 63.3993 241.207 63.3993 239.005C63.3993 232.454 52.5634 230.383 47.1773 230.383C41.7913 230.383 42.3252 234.241 42.3252 236.442H42.3235Z" fill="black"/>
<path d="M52.589 113.518C53.732 113.518 54.7031 114.353 54.8751 115.483C56.1344 123.812 60.4789 169.515 56.1557 229.327C55.9477 232.194 47.18 231.583 43.2039 231.156C42.0904 231.036 41.2225 230.137 41.1439 229.019L33.9745 115.989C33.8811 114.651 34.9407 113.514 36.2802 113.514H52.589V113.518Z" fill="#3E3D4B"/>
<path d="M38.6982 114.499L22.3796 230.181C22.2305 230.959 21.5509 231.523 20.7584 231.523H8.97096C8.01952 231.523 7.26459 230.72 7.32355 229.77L13.6676 115.067C13.7216 114.196 14.4422 113.516 15.315 113.516L37.077 112.537C38.1119 112.537 38.893 113.48 38.6982 114.497V114.499Z" fill="#3E3D4B"/>
<path d="M28.8884 57.2921V109.924C28.8884 114.261 32.4043 117.777 36.7406 117.777H42.3395C46.7709 117.777 50.3244 114.112 50.1885 109.682L48.474 57.0498C48.343 52.8084 44.868 49.4382 40.625 49.4382H36.739C32.4026 49.4382 28.8867 52.9541 28.8867 57.2905L28.8884 57.2921Z" fill="#E799B6"/>
<path d="M28.4727 49.4405H43.0833L42.8474 47.3558L40.8234 29.4782L40.7759 29.0623H30.78L30.6523 30.1856L29.6763 38.8158L28.4727 49.4405Z" fill="#F8AFA6"/>
<path d="M29.6758 38.8158C32.0437 42.841 36.3228 47.8225 42.8469 47.3558L40.8229 29.4782L39.2213 29.0623H36.2212L30.6518 30.1856L29.6758 38.8158Z" fill="#EC948D"/>
<path d="M28.6641 49.4382C30.1363 52.1124 32.9808 53.9236 36.2478 53.9236C39.5147 53.9236 42.3609 52.1124 43.8331 49.4382H28.6641Z" fill="#F8AFA6"/>
<path d="M28.8847 41.9199L13.9875 48.6799C13.696 48.7945 13.4929 49.0615 13.4635 49.3742L6.53971 140.948C6.44965 142.109 7.30447 143.13 8.46388 143.246C8.46388 143.246 30.0965 150.887 33.9481 145.773C37.4411 141.138 34.5786 76.5452 34.5786 76.5452L28.8847 41.9216V41.9199Z" fill="white"/>
<path d="M44.2549 43.5856L53.6154 48.5082C53.9577 48.6883 54.1836 49.0338 54.2098 49.4203L60.7078 143.585C60.7487 144.175 60.323 144.694 59.7367 144.769L47.1109 146.403C46.4837 146.433 45.958 145.935 45.9498 145.308L45.3013 92.864L42.619 44.6352C42.5715 43.769 43.4853 43.1811 44.2533 43.5856H44.2549Z" fill="white"/>
<path d="M49.7447 61.5917L44.9384 64.2397L49.1028 67.7L45.3003 92.8616C45.3003 92.8616 38.6795 43.5209 42.5082 42.4941C43.7495 42.4941 44.9466 43.5127 44.9466 43.5127L49.7431 61.5901L49.7447 61.5917Z" fill="#F6F6F6"/>
<path d="M29.2803 41.7581C30.1368 45.9422 36.8133 77.6836 35.174 92.8641C32.2509 85.8372 25.0963 66.9558 25.0963 66.9558L29.5604 63.9213L24.9473 59.4359L25.6727 43.1173C25.7448 42.685 26.051 42.3296 26.4686 42.1937L28.7481 41.4503C28.9823 41.3733 29.2312 41.5174 29.282 41.7581H29.2803Z" fill="#F6F6F6"/>
<path d="M28.4031 118.132C27.6449 118.438 26.7589 118.325 25.9614 118.314C25.0755 118.3 24.1912 118.284 23.3069 118.256C21.5399 118.202 19.773 118.106 18.0158 117.902C17.0153 117.786 16.018 117.636 15.0305 117.439C14.8242 117.398 14.8602 117.072 15.0665 117.113C18.4809 117.788 21.9673 117.919 25.4374 117.978C25.9238 117.986 26.4085 117.993 26.8948 117.999C27.3616 118.006 27.8348 118.006 28.2737 117.829C28.4686 117.75 28.5996 118.05 28.4031 118.13V118.132Z" fill="#BFBFBF"/>
<path d="M57.1311 118.482C56.5973 118.715 55.9766 118.662 55.4166 118.675C54.7959 118.69 54.1737 118.703 53.553 118.708C52.3134 118.718 51.0721 118.7 49.8406 118.607C49.1381 118.553 48.4404 118.476 47.7461 118.366C47.602 118.343 47.6282 118.115 47.7739 118.138C50.1665 118.515 52.6147 118.51 55.0514 118.458C55.392 118.449 55.7343 118.441 56.0749 118.433C56.4024 118.425 56.7349 118.412 57.0444 118.278C57.1819 118.217 57.272 118.423 57.1328 118.484L57.1311 118.482Z" fill="#BFBFBF"/>
<path d="M26.6745 73.1152C20.2862 56.5297 20.8774 49.1786 22.4953 45.9312C23.3633 44.1921 24.3982 43.6795 24.4441 43.6648C24.4441 43.6648 22.8311 43.768 22.5199 44.0791C22.4528 44.1462 16.0072 49.9237 25.7918 73.4542L26.6728 73.1136L26.6745 73.1152Z" fill="#231F20"/>
<path d="M24.5527 74.953C25.0096 76.1255 26.3295 76.7068 27.502 76.25C28.6746 75.7931 29.2559 74.4748 28.799 73.3006C28.3421 72.1298 27.0222 71.5484 25.8513 72.0053C24.6788 72.4622 24.0975 73.7821 24.5544 74.953H24.5527Z" fill="#8D8F90"/>
<path d="M24.7725 74.8679C25.1819 75.9192 26.3643 76.4383 27.4156 76.0306C28.467 75.6212 28.9861 74.4388 28.5767 73.3875C28.1673 72.3378 26.9866 71.817 25.9352 72.2248C24.8839 72.6342 24.3632 73.8165 24.7725 74.8679Z" fill="#BCBEC0"/>
<path d="M25.3545 74.6414C25.6394 75.3702 26.4599 75.7337 27.1902 75.4488C27.919 75.1655 28.2809 74.3434 27.9976 73.613C27.7143 72.8843 26.8905 72.5224 26.1618 72.8057C25.4315 73.0906 25.0712 73.9111 25.3545 74.6414Z" fill="#58595B"/>
<path d="M45.0909 73.3336L48.3416 71.7664C51.191 69.2953 53.5851 59.7334 53.685 59.3273L53.2822 59.1455C53.2576 59.2421 50.852 68.8532 48.1467 71.2375L44.9648 72.7654L45.0909 73.332V73.3336Z" fill="#5E5F60"/>
<path d="M44.3281 73.8409C44.3756 73.8425 44.423 73.8343 44.4673 73.813L45.5039 73.3332C45.6054 73.2857 45.6922 73.1858 45.7413 73.0515C45.7921 72.9173 45.8035 72.765 45.7724 72.6225C45.7118 72.3376 45.4809 72.1738 45.2779 72.2688L44.2413 72.7486C44.1381 72.7961 44.0546 72.896 44.0038 73.0303C43.9531 73.1645 43.9416 73.3168 43.9711 73.4577C44.0202 73.6787 44.1627 73.8327 44.3264 73.8409H44.3281Z" fill="#BCBEC0"/>
<path d="M50.4778 73.5932L50.658 73.0397L47.6383 71.2122C45.1753 68.574 43.7097 58.7796 43.6966 58.6797L43.2773 58.8222C43.3396 59.2365 44.797 68.9834 47.3943 71.7198L47.4368 71.7542L50.4795 73.5949L50.4778 73.5932Z" fill="#5E5F60"/>
<path d="M51.1891 74.1741C51.3545 74.1823 51.5117 74.0431 51.5788 73.8269C51.6214 73.6894 51.6263 73.5371 51.5886 73.3995C51.5493 73.2603 51.4756 73.1522 51.379 73.0949L50.3932 72.5168C50.2 72.4022 49.9543 72.5447 49.8659 72.8231C49.8217 72.9623 49.8184 73.1146 49.8561 73.2521C49.8937 73.3913 49.9674 73.4978 50.064 73.5551L51.0499 74.1331C51.0925 74.1577 51.1383 74.1724 51.1858 74.1741H51.1891Z" fill="#BCBEC0"/>
<path d="M43.4286 58.916C43.6644 58.9274 43.8675 58.6703 43.8855 58.3395C43.9985 56.2041 44.7911 54.4977 46.1175 53.5348C47.7453 52.3525 49.9151 52.4688 51.3988 53.8165C52.2438 54.5845 53.2214 56.0698 53.0806 58.7768C53.0626 59.1092 53.2394 59.3892 53.4752 59.4007C53.4752 59.4007 53.4769 59.4007 53.4785 59.4007C53.7127 59.4121 53.9157 59.1534 53.9338 58.8242C54.068 56.2647 53.3393 54.126 51.8802 52.7995C50.1575 51.2324 47.6356 51.0965 45.7458 52.4688C44.1328 53.6413 43.1682 55.7095 43.0323 58.2904C43.0159 58.6228 43.1928 58.9029 43.427 58.916H43.4286Z" fill="#231F20"/>
<path d="M46.2969 44.5965C46.2969 44.5965 47.453 44.1969 48.0196 45.3023C49.179 47.5638 49.405 52.2195 49.4018 52.2817L48.4585 52.2473C48.4601 52.1802 48.637 47.3427 46.2969 44.5981V44.5965Z" fill="#231F20"/>
<path d="M38.484 39.1956C44.5916 38.9631 49.2588 31.3126 48.9084 22.1078C48.558 12.903 43.3227 5.62949 37.2151 5.86199C31.1075 6.09448 26.4403 13.7449 26.7907 22.9498C27.1411 32.1546 32.3764 39.4281 38.484 39.1956Z" fill="#F8AFA6"/>
<path d="M34.4954 22.7203C34.5314 23.6538 34.8606 24.3972 35.2339 24.3841C35.6057 24.3694 35.8791 23.603 35.8431 22.6696C35.8071 21.7362 35.4779 20.9927 35.1046 21.0058C34.7328 21.0205 34.4593 21.7869 34.4954 22.7203Z" fill="#653E2F"/>
<path d="M43.3756 22.6631C43.333 23.5949 43.5983 24.3662 43.9717 24.3826C44.3434 24.399 44.6791 23.6571 44.7233 22.7254C44.7659 21.7936 44.5006 21.0223 44.1272 21.0059C43.7555 20.9895 43.4198 21.7313 43.3756 22.6631Z" fill="#653E2F"/>
<path d="M40.4925 21.8484C40.4925 21.8484 43.1602 26.7906 41.8255 28.9736C40.4909 31.1565 38.1934 29.1128 38.1934 29.1128C38.1934 29.1128 43.283 32.1554 40.4925 21.85V21.8484Z" fill="#EC948D"/>
<path d="M42.3139 19.3041C43.5487 18.7392 44.4887 18.6917 45.748 19.142C46.1148 19.273 46.4996 18.993 46.4849 18.6032L46.4816 18.4984C46.4783 18.4264 46.4341 18.3609 46.3686 18.3314C44.6115 17.5519 43.5339 17.565 41.8832 18.4182C41.7146 18.505 41.6114 18.6835 41.6196 18.8718C41.6327 19.2222 41.9962 19.4499 42.3156 19.3041H42.3139Z" fill="#42403E"/>
<path d="M32.9955 19.4242C34.4268 18.7692 35.5174 18.7151 36.9782 19.2359C37.4039 19.3882 37.8494 19.0623 37.833 18.6103L37.8281 18.4891C37.8248 18.4056 37.774 18.3303 37.6971 18.2959C35.6599 17.392 34.4104 17.4067 32.4961 18.3974C32.3012 18.499 32.1817 18.7037 32.1898 18.9247C32.2046 19.3309 32.6271 19.5962 32.9955 19.4258V19.4242Z" fill="#42403E"/>
<path d="M32.5708 5.2283C32.5708 5.2283 19.9368 5.08746 27.6482 25.2937C29.646 26.7086 26.8818 12.5893 32.4316 10.4064C34.6505 8.43634 32.5708 5.2283 32.5708 5.2283Z" fill="#42403E"/>
<path d="M42.3622 32.5295C41.9463 33.3499 41.0669 33.8297 40.1679 33.8903C39.164 33.9575 38.2175 33.494 37.4429 32.8963C37.2611 32.7555 37.2742 32.4525 37.42 32.2953C37.587 32.1135 37.8392 32.1316 38.021 32.2724C38.6023 32.7211 39.3229 33.0748 40.0729 33.0437C40.7017 33.0175 41.3207 32.7031 41.6106 32.1299C41.8579 31.6419 42.6079 32.0415 42.3606 32.5311L42.3622 32.5295Z" fill="white"/>
<path d="M13.5871 49.1028L0.112962 81.7744C-0.448732 83.602 3.82702 85.5966 5.57269 86.3777L16.7967 91.3985L13.836 49.1339C13.8278 48.9931 13.6296 48.9685 13.5887 49.1028H13.5871Z" fill="white"/>
<path d="M23.043 110.604L52.8209 113.922L57.1491 70.4555L27.3711 67.1377L23.043 110.604Z" fill="#414042"/>
<path d="M37.6501 67.4737L37.3086 70.4575L48.6453 71.7552L48.9869 68.7713L37.6501 67.4737Z" fill="#BCBEC0"/>
<path d="M41.9955 92.4457L44.013 93.4414L47.1392 91.4665C47.1392 91.4665 52.2878 89.3425 52.6153 89.7257C52.8495 89.9975 52.3631 90.7836 52.0159 91.2814C51.731 91.6908 50.2768 91.889 50.2342 92.1248C50.1687 92.4818 54.3544 93.4021 54.3544 93.4021L55.1568 90.4659C55.1568 90.4659 56.3081 92.187 56.3588 92.6881C56.4964 94.0457 54.51 98.3853 53.3407 99.0878C51.279 100.326 40.918 98.12 40.918 98.12L41.9955 92.4457Z" fill="#F8AFA6"/>
<path d="M40.9199 98.1192C40.9199 98.1192 41.9762 98.3452 43.4828 98.6105L43.2453 93.0607L42.284 92.5874L41.778 93.6011L40.9199 98.1192Z" fill="#EC948D"/>
<path d="M0.0736033 83.123C-2.07164 72.983 43.3896 91.8776 43.3896 91.8776L41.598 102.784C41.598 102.784 3.28492 98.2953 0.0736033 83.123Z" fill="white"/>
<path d="M29.3034 14.3878C29.3034 14.3878 45.5827 18.8863 48.5222 13.289C51.7449 7.14805 43.3212 4.10867 37.7714 3.91707C33.81 3.77952 22.8283 8.79055 29.305 14.3878H29.3034Z" fill="#42403E"/>
<path d="M30.0995 20.2029L25.1523 20.6876L25.4897 21.1953L30.0995 21.4376V20.2029Z" fill="#6D6E71"/>
<path d="M42.3736 20.4103C42.3736 20.6363 42.1902 20.8213 41.9626 20.8213H37.9931C37.7671 20.8213 37.582 20.6379 37.582 20.4103C37.582 20.1843 37.7654 19.9993 37.9931 19.9993H41.9626C42.1886 19.9993 42.3736 20.1827 42.3736 20.4103Z" fill="#6D6E71"/>
<path d="M31.8381 20.8195C31.8381 21.17 31.5548 21.4533 31.2044 21.4533H30.2431C29.8927 21.4533 29.6094 21.17 29.6094 20.8195C29.6094 20.4691 29.8927 20.1858 30.2431 20.1858H31.2044C31.5548 20.1858 31.8381 20.4691 31.8381 20.8195Z" fill="#525355"/>
<path opacity="0.48" d="M38.9229 20.6724V20.6855C38.9048 20.8624 38.8819 21.0393 38.8557 21.2161C38.7394 21.9629 38.5266 22.7129 38.2187 23.4596C38.0271 23.9247 37.7995 24.3881 37.5342 24.8483C37.431 25.0284 37.2394 25.1382 37.0347 25.1382C37.0249 25.1382 37.0167 25.1382 37.0069 25.1382C36.1668 25.0989 35.3169 25.0776 34.4801 25.0776C33.7906 25.0776 33.0914 25.0907 32.4003 25.1185C32.3938 25.1185 32.3856 25.1185 32.3774 25.1185C32.2415 25.1185 32.1105 25.071 32.0057 24.9826C31.8173 24.8237 31.6356 24.6518 31.4653 24.4749C31.444 24.4536 31.4243 24.4291 31.4063 24.4029C30.7578 23.4596 30.445 22.3297 30.2125 21.2178C30.1781 21.0573 30.147 20.8968 30.1159 20.7363C30.0848 20.5742 30.1241 20.4071 30.224 20.2745C30.3239 20.1435 30.4762 20.0616 30.6416 20.0502C31.9303 19.9584 33.2339 19.9126 34.5177 19.9126C35.3529 19.9126 36.1963 19.9323 37.038 19.9716C37.4916 19.9928 37.9436 20.019 38.3939 20.0502C38.5479 20.0616 38.6903 20.1337 38.7919 20.2499C38.8917 20.3678 38.9409 20.5185 38.9278 20.6724H38.9229Z" fill="#F1F2F2"/>
<path d="M38.7818 20.2499C38.6819 20.132 38.5378 20.06 38.3838 20.0502C38.1906 20.0371 37.9974 20.024 37.8025 20.0125C37.7288 20.0076 37.6551 20.0043 37.5798 19.9994C37.4324 19.9912 37.2834 19.983 37.1344 19.9765C37.0983 19.9765 37.0639 19.9732 37.0279 19.9716C36.1862 19.9323 35.3412 19.9126 34.506 19.9126C33.2221 19.9126 31.9186 19.9584 30.6298 20.0502C30.4644 20.0616 30.3121 20.1435 30.2123 20.2745C30.1124 20.4055 30.0731 20.5725 30.1042 20.7363C30.1353 20.8952 30.1664 21.0556 30.2008 21.2178C30.2008 21.2178 36.6365 19.7194 37.7681 20.8509C38.3183 21.4012 38.582 22.4476 38.2086 23.4613C38.5165 22.7145 38.7294 21.9661 38.8456 21.2178C38.8718 21.0409 38.8948 20.864 38.9111 20.6872V20.6741C38.9242 20.5201 38.8751 20.3695 38.7752 20.2516L38.7818 20.2499Z" fill="#6D6E71"/>
<path d="M38.587 23.6673C38.5575 23.7967 38.4282 23.877 38.3004 23.8458C38.1711 23.8164 38.0908 23.687 38.1219 23.5593L38.4511 22.1378C38.4806 22.0085 38.6099 21.9282 38.7377 21.9593C38.867 21.9888 38.9473 22.1182 38.9162 22.2459L38.587 23.6673Z" fill="#E6E7E8"/>
<path d="M47.7637 20.8193C47.7637 21.1697 48.0486 21.453 48.3974 21.453H49.3587C49.7091 21.453 49.9941 21.1697 49.9941 20.8193C49.9941 20.4688 49.7091 20.1855 49.3587 20.1855H48.3974C48.047 20.1855 47.7637 20.4688 47.7637 20.8193Z" fill="#525355"/>
<path opacity="0.48" d="M40.6834 20.6724V20.6855C40.7014 20.8624 40.7227 21.0393 40.7505 21.2161C40.8668 21.9645 41.0797 22.7129 41.3876 23.4596C41.5775 23.9247 41.8068 24.3881 42.0721 24.8483C42.1753 25.0284 42.3668 25.1382 42.5732 25.1382C42.583 25.1382 42.5912 25.1382 42.601 25.1382C43.4411 25.0989 44.291 25.0776 45.1278 25.0776C45.8173 25.0776 46.5165 25.0907 47.2076 25.1185C47.2158 25.1185 47.224 25.1185 47.2305 25.1185C47.3664 25.1185 47.4991 25.071 47.6022 24.9826C47.7906 24.8237 47.9723 24.6518 48.1426 24.4749C48.1639 24.4536 48.1836 24.4291 48.2016 24.4029C48.8501 23.4596 49.1629 22.3297 49.3954 21.2178C49.4298 21.0573 49.4609 20.8968 49.492 20.7363C49.5231 20.5742 49.4838 20.4071 49.3839 20.2745C49.284 20.1435 49.1317 20.0616 48.9663 20.0502C47.6792 19.9584 46.374 19.9126 45.0902 19.9126C44.2566 19.9126 43.4116 19.9323 42.5699 19.9716C42.1179 19.9928 41.6643 20.019 41.2156 20.0502C41.0617 20.0616 40.9192 20.1337 40.8177 20.2499C40.7178 20.3678 40.6687 20.5185 40.6818 20.6724H40.6834Z" fill="#F1F2F2"/>
<path d="M40.8208 20.2499C40.9207 20.132 41.0631 20.06 41.2187 20.0502C41.4119 20.0371 41.6052 20.024 41.8 20.0125C41.8737 20.0076 41.9474 20.0043 42.0228 19.9994C42.1718 19.9912 42.3192 19.983 42.4682 19.9765C42.5042 19.9765 42.5386 19.9732 42.5746 19.9716C43.4163 19.9323 44.2613 19.9126 45.0949 19.9126C46.3787 19.9126 47.6823 19.9584 48.9711 20.0502C49.1365 20.0616 49.2888 20.1435 49.3886 20.2745C49.4885 20.4055 49.5278 20.5725 49.4967 20.7363C49.4656 20.8952 49.4345 21.0556 49.4001 21.2178C49.4001 21.2178 42.9644 19.7194 41.8328 20.8509C41.2826 21.4012 41.0173 22.4476 41.3923 23.4613C41.0844 22.7145 40.8699 21.9661 40.7553 21.2178C40.7274 21.0409 40.7061 20.864 40.6881 20.6872V20.6741C40.6734 20.5201 40.7225 20.3695 40.824 20.2516L40.8208 20.2499Z" fill="#6D6E71"/>
<path d="M41.0155 23.6676C41.045 23.797 41.1744 23.8772 41.3021 23.8461C41.4315 23.8166 41.5117 23.6872 41.4823 23.5595L41.1531 22.1381C41.122 22.0087 40.9943 21.9285 40.8649 21.9596C40.7355 21.9891 40.6553 22.1184 40.6864 22.2462L41.0155 23.6676Z" fill="#E6E7E8"/>
<path d="M24.3822 24.2881C24.731 26.1255 25.8659 27.4863 27.0188 27.5453C27.1367 27.5519 27.2562 27.5453 27.3758 27.5224C27.6279 27.4732 27.8605 27.3619 28.0685 27.1932C28.0766 27.1867 28.0865 27.1768 28.0996 27.1687C28.8954 26.494 29.2737 25.0136 28.9691 23.412C28.8037 22.5392 28.4582 21.7695 28.021 21.2029C27.867 21.0048 27.7049 20.8312 27.533 20.6838C27.5248 20.6772 27.5166 20.6707 27.5084 20.6641C27.0335 20.2678 26.4996 20.0828 25.9756 20.1827C25.5908 20.2547 25.2551 20.4791 24.9865 20.8099C24.8735 20.9474 24.7736 21.1046 24.6868 21.2799C24.2987 22.0512 24.1628 23.1402 24.3822 24.2898V24.2881Z" fill="#F8AFA6"/>
<path d="M23.4997 84.6074L16.0781 82.3574L15.7539 77.7197L15.9177 77.7083L16.2337 82.2329L23.5472 84.4502L23.4997 84.6074Z" fill="#BFBFBF"/>
<path d="M226.46 231.624L226.56 233.067C226.577 233.3 226.57 233.532 226.541 233.763L225.985 238.078C225.864 239.013 226.416 239.935 227.322 240.199C227.5 240.251 227.688 240.279 227.882 240.279L238.087 240.562C239.269 240.562 240.182 239.545 240.077 238.388C240.069 238.296 240.047 238.204 240.023 238.114L237.932 230.334C237.684 229.414 236.926 224.245 235.976 224.326L228.373 224.966C227.3 225.056 226.387 230.548 226.46 231.623V231.624Z" fill="black"/>
<path d="M195.887 225.385V234.1H203.289C203.855 234.1 204.42 234.208 204.42 233.642L204.314 225.128L195.887 225.385Z" fill="#F2E5DA"/>
<path d="M204.519 236.444C204.519 238.647 204.938 240.432 199.551 240.432C194.163 240.432 183.443 241.21 183.443 239.007C183.443 232.457 194.279 230.385 199.665 230.385C205.051 230.385 204.518 234.243 204.518 236.444H204.519Z" fill="black"/>
<path d="M194.252 113.519C193.109 113.519 192.138 114.354 191.966 115.484C190.707 123.813 186.362 169.516 190.685 229.328C190.893 232.195 199.661 231.584 203.637 231.157C204.751 231.037 205.618 230.138 205.697 229.02L212.866 115.99C212.96 114.652 211.9 113.515 210.561 113.515H194.252V113.519Z" fill="#3E3D4B"/>
<path d="M208.143 114.5L224.462 230.183C224.611 230.961 225.29 231.524 226.083 231.524H237.87C238.822 231.524 239.577 230.722 239.518 229.772L233.174 115.069C233.12 114.197 232.399 113.518 231.526 113.518L209.764 112.539C208.729 112.539 207.948 113.482 208.143 114.499V114.5Z" fill="#3E3D4B"/>
<path d="M219.109 55.2406V107.873C219.109 112.209 215.593 115.725 211.256 115.725H205.657C201.226 115.725 197.673 112.06 197.808 107.63L199.523 54.9983C199.654 50.7569 203.129 47.3867 207.372 47.3867H211.258C215.594 47.3867 219.11 50.9026 219.11 55.239L219.109 55.2406Z" fill="#E799B6"/>
<path d="M216.245 47.9666H201.635L201.871 45.8819L203.895 28.0043L203.942 27.5884H213.938L214.066 28.7118L215.042 37.3419L216.245 47.9666Z" fill="#F8AFA6"/>
<path d="M215.042 37.3419C212.674 41.3671 208.395 46.3486 201.871 45.8819L203.895 28.0043L205.497 27.5884H208.497L214.066 28.7118L215.042 37.3419Z" fill="#EC948D"/>
<path d="M216.048 47.9648C214.576 50.639 211.731 52.4502 208.464 52.4502C205.197 52.4502 202.351 50.639 200.879 47.9648H216.048Z" fill="#F8AFA6"/>
<path d="M215.83 40.447L232.519 49.3572C232.811 49.4718 233.014 49.7387 233.043 50.0515L238.175 151.145C238.265 152.306 237.411 153.326 236.251 153.443H207.164L206.273 88.5578L210.135 75.0723L215.829 40.4487L215.83 40.447Z" fill="white"/>
<path d="M207.164 153.443L184.493 152.894C183.907 152.819 183.483 152.3 183.522 151.71L185.284 125.774L186.137 113.207L190.472 47.682C190.5 47.2955 190.724 45.9887 191.066 45.8086L200.376 41.7801C201.144 41.3756 202.143 43.2572 202.096 44.1251L206.273 88.5579L207.162 153.443H207.164Z" fill="white"/>
<path d="M194.969 60.1189L199.775 62.7669L195.611 66.2271L206.273 88.5557L202.534 39.9536C202.534 39.9536 200.181 40.2107 199.746 40.7086C196.672 44.2327 194.97 60.1173 194.97 60.1173L194.969 60.1189Z" fill="#EDEDED"/>
<path d="M215.438 40.2852C214.582 44.4693 204.637 73.9754 206.276 89.1559C211.888 78.3936 219.622 65.4829 219.622 65.4829L215.158 62.4484L219.771 57.963L219.046 41.6444C218.974 41.2121 218.667 40.8567 218.25 40.7208L215.97 39.9773C215.736 39.9004 215.487 40.0445 215.437 40.2852H215.438Z" fill="#EDEDED"/>
<path d="M217.758 72.0911C224.146 55.5055 223.555 48.1544 221.937 44.907C221.069 43.1679 220.034 42.6554 219.988 42.6406C219.988 42.6406 221.601 42.7438 221.912 43.0549C221.98 43.1221 228.425 48.8995 218.64 72.4301L217.759 72.0894L217.758 72.0911Z" fill="#231F20"/>
<path d="M219.883 73.9295C219.426 75.1021 218.106 75.6834 216.933 75.2265C215.761 74.7696 215.18 73.4514 215.636 72.2772C216.093 71.1063 217.413 70.525 218.584 70.9819C219.757 71.4388 220.338 72.7587 219.881 73.9295H219.883Z" fill="#787878"/>
<path d="M219.663 73.8454C219.253 74.8967 218.071 75.4159 217.02 75.0081C215.968 74.5987 215.449 73.4164 215.859 72.365C216.268 71.3153 217.449 70.7946 218.5 71.2023C219.551 71.6117 220.072 72.7941 219.663 73.8454Z" fill="#8E8E90"/>
<path d="M219.079 73.6185C218.794 74.3472 217.974 74.7108 217.244 74.4258C216.515 74.1425 216.153 73.3205 216.436 72.5901C216.72 71.8614 217.543 71.4994 218.272 71.7828C219.002 72.0677 219.363 72.8881 219.079 73.6185Z" fill="#58595B"/>
<path d="M224.534 105.603L219.457 114.125V114.793L230.878 115.214L232.011 110.276L224.534 105.603Z" fill="#F8AFA6"/>
<path d="M187.473 111.029L188.712 114.125H197.747L193.902 106.692C193.902 106.692 187.6 109.491 187.473 111.029Z" fill="#F8AFA6"/>
<path d="M232.778 113.207H217.143V127.632H232.778V113.207Z" fill="#F2F3F5"/>
<path d="M200.919 113.207V127.632H186.389V125.773L187.181 113.207H200.919Z" fill="#F2F3F5"/>
<path d="M226.331 66.0518L227.868 79.5062L223.363 103.553L234.053 78.5613L226.331 66.0518Z" fill="#BFBFBF"/>
<path d="M232.924 49.6958L246.483 79.5065L232.013 112.268L222.23 107.141L229.883 81.6321L224.607 65.6738C224.607 65.6738 229.501 54.7904 232.924 49.6958Z" fill="white"/>
<path d="M188.813 77.791L192.61 95.1953L182.885 82.9249L188.813 77.791Z" fill="#BFBFBF"/>
<path d="M191.066 45.8081C191.066 45.8081 182.685 49.4092 182.016 52.4518C181.346 55.4928 172.375 85.0694 172.375 85.0694L189.083 83.1747C189.083 83.1747 191.592 52.7302 191.066 45.8081Z" fill="white"/>
<path d="M172.375 85.0702L183.519 112.271L196.228 107.527L189.085 83.1755C189.085 83.1755 181.092 81.9146 172.377 85.0702H172.375Z" fill="white"/>
<path d="M199.883 71.1898L196.633 69.6226C193.783 67.1515 191.389 57.5896 191.289 57.1835L191.692 57.0017C191.716 57.0983 194.122 66.7093 196.827 69.0937L200.009 70.6216L199.883 71.1882V71.1898Z" fill="#5E5F60"/>
<path d="M200.647 71.6975C200.599 71.6992 200.552 71.691 200.508 71.6697L199.469 71.1899C199.368 71.1424 199.281 71.0425 199.232 70.9082C199.181 70.7739 199.17 70.6216 199.201 70.4792C199.261 70.1942 199.492 70.0305 199.695 70.1255L200.732 70.6053C200.835 70.6528 200.919 70.7527 200.969 70.8869C201.02 71.0212 201.032 71.1735 201.002 71.3143C200.953 71.5354 200.811 71.6894 200.647 71.6975Z" fill="#BCBEC0"/>
<path d="M194.493 71.4492L194.312 70.8957L197.332 69.0681C199.795 66.43 201.261 56.6355 201.274 56.5356L201.693 56.6781C201.631 57.0924 200.173 66.8394 197.576 69.5758L197.534 69.6102L194.491 71.4508L194.493 71.4492Z" fill="#5E5F60"/>
<path d="M193.784 72.0296C193.619 72.0377 193.462 71.8985 193.395 71.6824C193.352 71.5448 193.347 71.3925 193.385 71.255C193.424 71.1158 193.498 71.0077 193.594 70.9504L194.58 70.3723C194.773 70.2577 195.019 70.4002 195.108 70.6785C195.152 70.8177 195.155 70.97 195.117 71.1076C195.08 71.2468 195.006 71.3532 194.909 71.4106L193.924 71.9886C193.881 72.0132 193.835 72.0279 193.788 72.0296H193.784Z" fill="#BCBEC0"/>
<path d="M201.546 56.7702C201.31 56.7817 201.107 56.5246 201.089 56.1938C200.976 54.0584 200.184 52.352 198.857 51.3891C197.23 50.2067 195.06 50.323 193.576 51.6707C192.731 52.4388 191.753 53.9241 191.894 56.631C191.912 56.9634 191.735 57.2435 191.5 57.2549C191.5 57.2549 191.498 57.2549 191.496 57.2549C191.262 57.2664 191.059 57.0076 191.041 56.6785C190.907 54.1189 191.636 51.9802 193.095 50.6538C194.817 49.0866 197.339 48.9507 199.229 50.323C200.842 51.4955 201.807 53.5638 201.943 56.1446C201.959 56.4771 201.782 56.7571 201.548 56.7702H201.546Z" fill="#231F20"/>
<path d="M198.681 42.4537C198.681 42.4537 197.525 42.0541 196.958 43.1595C195.799 45.421 195.573 50.0766 195.576 50.1389L196.519 50.1045C196.518 50.0373 196.341 45.1999 198.681 42.4553V42.4537Z" fill="#231F20"/>
<path d="M219.502 21.4664C219.853 12.2616 215.185 4.61112 209.078 4.37863C202.97 4.14613 197.735 11.4196 197.384 20.6245C197.034 29.8293 201.701 37.4797 207.809 37.7122C213.916 37.9447 219.152 30.6712 219.502 21.4664Z" fill="#F8AFA6"/>
<path d="M204.07 21.0778C204.034 22.0112 203.705 22.7547 203.331 22.7416C202.958 22.7285 202.686 21.9604 202.722 21.027C202.758 20.0936 203.087 19.3501 203.461 19.3632C203.834 19.3763 204.106 20.1443 204.07 21.0778Z" fill="#653E2F"/>
<path d="M213.421 21.0778C213.385 22.0112 213.056 22.7547 212.683 22.7416C212.309 22.7285 212.037 21.9604 212.074 21.027C212.11 20.0936 212.439 19.3501 212.812 19.3632C213.185 19.3763 213.457 20.1443 213.421 21.0778Z" fill="#653E2F"/>
<path d="M208.168 20.3752C208.168 20.3752 205.5 25.3175 206.835 27.5004C208.169 29.6833 210.467 27.6396 210.467 27.6396C210.467 27.6396 205.377 30.6823 208.168 20.3769V20.3752Z" fill="#EC948D"/>
<path d="M205.31 17.1508C204.075 16.5858 203.135 16.5383 201.876 16.9887C201.509 17.1197 201.124 16.8397 201.139 16.4499L201.142 16.3451C201.146 16.2731 201.19 16.2076 201.255 16.1781C203.013 15.3986 204.09 15.4117 205.741 16.2649C205.909 16.3517 206.013 16.5302 206.004 16.7185C205.991 17.0689 205.628 17.2966 205.308 17.1508H205.31Z" fill="#87523F"/>
<path d="M214.484 17.1508C213.249 16.5858 212.309 16.5383 211.05 16.9887C210.683 17.1197 210.298 16.8397 210.313 16.4499L210.316 16.3451C210.319 16.2731 210.364 16.2076 210.429 16.1781C212.186 15.3986 213.264 15.4117 214.915 16.2649C215.083 16.3517 215.186 16.5302 215.178 16.7185C215.165 17.0689 214.802 17.2966 214.482 17.1508H214.484Z" fill="#87523F"/>
<path d="M210.552 4.20095C210.552 4.20095 229.246 1.07315 218.067 24.2664C216.205 25.6813 218.781 11.5619 213.61 9.37902C211.543 7.40899 210.551 4.20095 210.551 4.20095H210.552Z" fill="#87523F"/>
<path d="M205.703 4.20095C205.703 4.20095 187.01 1.07315 198.188 24.2664C200.05 25.6813 197.474 11.5619 202.646 9.37902C204.712 7.40899 205.705 4.20095 205.705 4.20095H205.703Z" fill="#87523F"/>
<path d="M222.059 23.4705C221.71 25.3079 220.575 26.6687 219.423 26.7277C219.305 26.7342 219.185 26.7277 219.066 26.7047C218.813 26.6556 218.581 26.5443 218.373 26.3756C218.365 26.369 218.355 26.3592 218.342 26.351C217.546 25.6763 217.168 24.1959 217.472 22.5944C217.638 21.7215 217.983 20.9519 218.42 20.3853C218.574 20.1871 218.736 20.0135 218.908 19.8662C218.917 19.8596 218.925 19.8531 218.933 19.8465C219.408 19.4502 219.942 19.2652 220.466 19.3651C220.851 19.4371 221.186 19.6615 221.455 19.9923C221.568 20.1298 221.668 20.287 221.755 20.4622C222.143 21.2335 222.279 22.3225 222.059 23.4721V23.4705Z" fill="#F8AFA6"/>
<path d="M194.162 23.4705C194.51 25.3079 195.645 26.6687 196.798 26.7277C196.916 26.7342 197.036 26.7277 197.155 26.7047C197.407 26.6556 197.64 26.5443 197.848 26.3756C197.856 26.369 197.866 26.3592 197.879 26.351C198.675 25.6763 199.053 24.1959 198.748 22.5944C198.583 21.7215 198.237 20.9519 197.8 20.3853C197.646 20.1871 197.484 20.0135 197.312 19.8662C197.304 19.8596 197.296 19.8531 197.288 19.8465C196.813 19.4502 196.279 19.2652 195.755 19.3651C195.37 19.4371 195.034 19.6615 194.766 19.9923C194.653 20.1298 194.553 20.287 194.466 20.4622C194.078 21.2335 193.942 22.3225 194.162 23.4721V23.4705Z" fill="#F8AFA6"/>
<path d="M205.646 10.9061C205.646 10.9061 195.444 10.3379 200.881 0.212646C201.509 8.07309 213.642 -5.17012 216.803 7.98957C215.534 10.0349 211.153 11.6496 205.646 10.9045V10.9061Z" fill="#87523F"/>
<path d="M208.045 12.1463C208.045 12.1463 212.809 13.083 216.005 10.4481C215.195 9.45409 214.777 9.56872 214.777 9.56872C214.777 9.56872 214.045 12.0464 208.045 12.1463Z" fill="#87523F"/>
<path d="M206.59 30.8914C207.638 31.3237 208.424 31.3335 209.461 30.9176C209.764 30.7964 210.093 31.0191 210.093 31.345V31.4334C210.093 31.494 210.058 31.5497 210.004 31.5759C208.563 32.2817 207.664 32.3063 206.258 31.6463C206.113 31.5792 206.023 31.4334 206.023 31.2762C206.023 30.9847 206.32 30.7817 206.59 30.893V30.8914Z" fill="#F6F6F6"/>
<path d="M306.946 32.5918C306.946 32.5918 322.897 40.8371 314.237 59.2911C310.682 55.4722 306.565 50.9754 305.769 47.0255C304.944 42.9316 306.509 39.9069 305.168 33.7152C306.444 33.0094 306.945 32.5918 306.945 32.5918H306.946Z" fill="#494949"/>
<path d="M307.843 32.6469C308.04 33.0809 307.491 33.7523 306.618 34.147C305.745 34.5416 304.879 34.5105 304.682 34.0765C304.486 33.6426 305.035 32.9712 305.907 32.5765C306.78 32.1818 307.647 32.2129 307.843 32.6469Z" fill="#FF5249"/>
<path d="M281.977 227.305V234.903H288.43C288.925 234.903 289.418 234.998 289.418 234.504L289.324 227.081L281.977 227.303V227.305Z" fill="black"/>
<path d="M289.502 236.946C289.502 238.865 289.868 240.423 285.171 240.423C280.474 240.423 271.127 241.101 271.127 239.181C271.127 233.469 280.574 231.663 285.272 231.663C289.971 231.663 289.504 235.027 289.504 236.946H289.502Z" fill="black"/>
<path d="M300.691 233.129L300.775 234.329C300.788 234.523 300.783 234.716 300.759 234.907L300.297 238.495C300.197 239.273 300.654 240.04 301.407 240.259C301.556 240.302 301.712 240.326 301.874 240.326L310.361 240.562C311.344 240.562 312.104 239.715 312.015 238.753C312.009 238.676 311.991 238.6 311.971 238.525L310.232 232.055C310.026 231.29 309.395 226.991 308.606 227.057L302.282 227.589C301.389 227.664 300.629 232.232 300.691 233.126V233.129Z" fill="black"/>
<path d="M271.942 124.226L278.079 229.417C278.115 230.3 278.84 230.997 279.723 230.997H289.235C290.113 230.997 290.835 230.31 290.88 229.433L294.301 149.064L299.24 229.438C299.285 230.313 300.008 230.997 300.884 230.997H310.39C311.281 230.997 312.009 230.29 312.036 229.399L316.346 124.208C316.374 123.267 315.606 122.494 314.664 122.515H273.549C272.629 122.535 271.903 123.306 271.941 124.226H271.942Z" fill="#CB1B5B"/>
<path d="M273.481 71.4321L266.996 89.9942L274.899 92.77L281.263 78.1626L273.481 71.4321Z" fill="#E799B6"/>
<path d="M279.848 55.0668L269.51 75.3598L286.754 79.1279C286.754 79.1279 291.904 64.9939 283.909 55.8037C282.899 54.641 280.601 53.7256 279.848 55.0684V55.0668Z" fill="#E799B6"/>
<path d="M271.473 124.837L316.575 124.714C316.339 98.3488 311.646 96.7145 313.465 78.8205C313.95 74.0551 313.919 65.2678 316.926 59.1694C319.3 54.3565 300.705 46.1816 300.705 46.1816H292.074C292.074 46.1816 281.133 53.0153 279.995 55.0328C279.233 56.3871 277.673 64.4179 274.941 74.2303C274.07 77.3581 275.752 82.4379 276.359 83.9347C278.83 90.0118 272.894 110.19 271.473 124.838V124.837Z" fill="#0081B4"/>
<path d="M313.464 78.8192C311.646 96.7132 316.338 98.3459 316.575 124.713L271.473 124.836C272.894 110.189 278.83 90.0089 276.359 83.9318C275.752 82.435 274.07 77.3552 274.941 74.2274C277.674 64.4149 279.233 56.3842 279.995 55.0315C281.133 53.0124 292.074 46.1787 292.074 46.1787H300.705C300.705 46.1787 319.299 54.3552 316.924 59.1665C314.943 63.1851 314.281 68.3714 313.921 72.8043C313.734 75.1002 313.629 77.1931 313.464 78.8192Z" fill="#E799B6"/>
<path opacity="0.37" d="M316.575 124.713L271.473 124.836C278.269 111.117 304.49 111.085 309.404 99.5495C314.32 88.0159 308.54 70.4053 308.54 70.4053C308.54 70.4053 310.986 71.3174 313.921 72.8043C313.734 75.1003 313.629 77.1931 313.464 78.8192C311.646 96.7132 316.338 98.3459 316.575 124.713Z" fill="#E799B6"/>
<path d="M304.752 66.1277H294.941V71.4318H304.752V66.1277Z" fill="white"/>
<path d="M304.073 67.594H301.312V69.9603H304.073V67.594Z" fill="#D1D3D4"/>
<path d="M300.573 67.7688H295.623V68.1143H300.573V67.7688Z" fill="#D1D3D4"/>
<path d="M300.573 68.606H295.623V68.9515H300.573V68.606Z" fill="#D1D3D4"/>
<path d="M300.573 69.446H295.623V69.7916H300.573V69.446Z" fill="#D1D3D4"/>
<path d="M300.361 65.1875H299.326V66.6106H300.361V65.1875Z" fill="white"/>
<path d="M290.321 82.0731L286.571 80.4274C283.238 77.7417 280.133 66.9958 280.004 66.5389L280.453 66.3179C280.484 66.4276 283.603 77.2275 286.77 79.8214L290.442 81.423L290.322 82.0731H290.321Z" fill="#5E5F60"/>
<path d="M291.206 82.6174C291.152 82.6223 291.098 82.6141 291.047 82.5912L289.852 82.0901C289.734 82.0393 289.633 81.9312 289.57 81.7789C289.508 81.6299 289.488 81.458 289.516 81.2942C289.574 80.9683 289.827 80.7735 290.063 80.8717L291.259 81.3744C291.377 81.4252 291.476 81.5333 291.54 81.6856C291.603 81.8346 291.622 82.0066 291.594 82.1687C291.549 82.4209 291.393 82.601 291.208 82.6174H291.206Z" fill="#BCBEC0"/>
<path d="M284.218 82.5888L283.992 81.9698L287.343 79.7738C290.028 76.682 291.289 65.5136 291.302 65.4006L291.784 65.5431C291.731 66.0147 290.475 77.1291 287.641 80.3371L287.595 80.3781L284.22 82.5888H284.218Z" fill="#5E5F60"/>
<path d="M283.437 83.2752C283.249 83.2916 283.065 83.141 282.98 82.8986C282.926 82.7447 282.914 82.5711 282.95 82.4139C282.988 82.2534 283.068 82.1289 283.175 82.0601L284.269 81.3642C284.483 81.2282 284.768 81.3789 284.88 81.6884C284.935 81.844 284.943 82.0176 284.907 82.1748C284.87 82.3336 284.791 82.4581 284.683 82.5285L283.589 83.2228C283.542 83.2539 283.489 83.272 283.437 83.2752Z" fill="#BCBEC0"/>
<path d="M291.616 65.656C291.349 65.6789 291.108 65.3956 291.075 65.0206C290.861 62.6051 289.893 60.7023 288.347 59.6624C286.454 58.39 283.998 58.6094 282.37 60.1979C281.443 61.1051 280.393 62.8295 280.665 65.8918C280.7 66.2684 280.51 66.591 280.244 66.6172H280.243C279.976 66.6402 279.735 66.3552 279.702 65.9819C279.445 63.085 280.185 60.6302 281.785 59.0663C283.675 57.2191 286.529 56.962 288.727 58.4407C290.605 59.7033 291.783 62.0091 292.042 64.9322C292.073 65.3088 291.884 65.633 291.619 65.6576H291.617L291.616 65.656Z" fill="#231F20"/>
<path d="M285.694 57.4819C285.702 57.8324 285.717 58.042 285.718 58.0584L284.649 58.137C284.647 58.1222 284.634 57.9192 284.626 57.5769C284.59 56.0359 284.441 52.2416 286.527 49.235C287.02 49.0451 288.556 48.1329 289.372 47.9282C285.856 50.1193 285.663 55.6773 285.695 57.4819H285.694Z" fill="#231F20"/>
<path d="M305.094 76.9297C305.078 77.0214 305.06 77.1131 305.044 77.2048C304.996 77.4488 304.949 77.6961 304.901 77.945C304.875 78.0744 304.85 78.2038 304.824 78.3331L303.771 78.1251C303.802 77.9663 303.833 77.8074 303.865 77.6502C303.91 77.4128 303.956 77.1753 304.002 76.9412C304.018 76.8511 304.035 76.7627 304.051 76.6726C307.439 58.6411 305.707 50.8854 303.445 47.4399C303.917 47.661 304.742 47.9427 305.086 48.1441C307.043 52.3642 308.157 60.652 305.096 76.9297H305.094Z" fill="#231F20"/>
<path d="M306.501 79.7641C306.219 81.1642 304.858 82.0698 303.458 81.7882C302.058 81.5065 301.152 80.1456 301.434 78.7455C301.716 77.347 303.078 76.4398 304.477 76.7214C305.877 77.0031 306.783 78.3656 306.501 79.7641Z" fill="#8D8F90"/>
<path d="M306.241 79.7122C305.989 80.9682 304.767 81.7788 303.513 81.5267C302.258 81.2745 301.446 80.0545 301.698 78.8001C301.95 77.5457 303.17 76.7334 304.425 76.9856C305.679 77.2378 306.491 78.4578 306.239 79.7122H306.241Z" fill="#BCBEC0"/>
<path d="M305.545 79.5727C305.37 80.4439 304.523 81.0089 303.651 80.8336C302.781 80.6584 302.216 79.8102 302.391 78.939C302.566 78.0678 303.415 77.5044 304.286 77.6796C305.157 77.8549 305.72 78.7015 305.545 79.5743V79.5727Z" fill="#58595B"/>
<path d="M298.555 79.9445C298.555 79.9445 302.67 78.1039 305.434 79.9445C304.272 83.5915 304.113 85.609 304.113 85.609L300.23 85.2274L298.555 79.9445Z" fill="#FCAE88"/>
<path d="M277.386 82.633C277.386 82.633 272.085 79.4429 270.069 79.8916C269.193 80.1209 266.464 85.3743 267.437 86.4044C269.042 88.1091 276.667 87.9961 276.667 87.9961L277.387 82.633H277.386Z" fill="#FCAE88"/>
<path d="M319.484 69.5762C319.484 69.5762 312.483 90.4212 308.774 93.0167C304.081 96.3034 275.5 87.3982 275.5 87.3982L277.385 82.6328L302.638 85.4642L309.377 65.4167L319.482 69.5779L319.484 69.5762Z" fill="#FCAE88"/>
<path opacity="0.6" d="M275.497 87.3974C275.497 87.3974 281.935 89.4034 289.201 91.1589L300.795 85.257L281.856 83.1331L272.746 85.2996L275.497 87.3957V87.3974Z" fill="#F58D86"/>
<path d="M267.435 86.4051L298.553 79.9448L300.395 85.1458C300.395 85.1458 262.526 104.263 267.435 86.4068V86.4051Z" fill="#FCAE88"/>
<path d="M304.629 73.9121L318.571 78.8183C320.496 68.3819 319.847 57.4363 314.805 54.5295C310.693 52.1599 306.966 64.003 304.629 73.9121Z" fill="#E799B6"/>
<path d="M285.069 24.2434C285.069 24.2434 277.991 15.6068 291.493 10.6662C300.418 7.39916 304.235 11.7601 304.985 14.9894C305.734 18.2187 310.565 15.6084 309.741 26.3494C309.29 32.2283 304.276 35.2055 304.276 35.2055L285.069 24.2451V24.2434Z" fill="#616161"/>
<path d="M300.255 37.604V46.1784L291.715 57.4303V37.604H300.255Z" fill="#FCAE88"/>
<path d="M300.255 38.7505V43.4356C298.878 44.4264 297.314 44.9848 295.655 44.9848C294.256 44.9848 292.923 44.5869 291.715 43.868V38.7505H300.255Z" fill="#BD8366"/>
<path d="M295.37 42.877C301.291 42.877 306.091 36.2278 306.091 28.0256C306.091 19.8235 301.291 13.1743 295.37 13.1743C289.449 13.1743 284.648 19.8235 284.648 28.0256C284.648 36.2278 289.449 42.877 295.37 42.877Z" fill="#FCAE88"/>
<path d="M289.367 18.1252C289.367 18.1252 293.592 21.4102 297.056 21.0499C300.519 20.688 305.314 24.5184 305.702 26.2722C305.817 23.9354 301.89 17.5275 301.89 17.5275C301.89 17.5275 299.998 15.7376 297.056 15.6082C294.111 15.4772 289.367 18.1268 289.367 18.1268V18.1252Z" fill="#BD8366"/>
<path d="M290.117 26.8462C290.117 27.57 290.461 28.1563 290.887 28.1563C291.313 28.1563 291.657 27.57 291.657 26.8462C291.657 26.1224 291.313 25.5361 290.887 25.5361C290.461 25.5361 290.117 26.1224 290.117 26.8462Z" fill="#616161"/>
<path d="M299.088 26.846C299.088 27.5698 299.432 28.156 299.858 28.156C300.283 28.156 300.627 27.5698 300.627 26.846C300.627 26.1221 300.283 25.5359 299.858 25.5359C299.432 25.5359 299.088 26.1221 299.088 26.846Z" fill="#616161"/>
<path d="M292.354 24.2115C291.306 23.7792 290.52 23.7694 289.482 24.1853C289.179 24.3065 288.85 24.0838 288.85 23.7579V23.6695C288.85 23.6089 288.884 23.5532 288.938 23.527C290.379 22.8212 291.278 22.7966 292.685 23.4566C292.829 23.5237 292.919 23.6695 292.919 23.8267C292.919 24.1182 292.623 24.3212 292.352 24.2099L292.354 24.2115Z" fill="#616161"/>
<path d="M301.331 24.2115C300.283 23.7792 299.497 23.7694 298.458 24.1853C298.155 24.3065 297.826 24.0838 297.826 23.7579V23.6695C297.826 23.6089 297.861 23.5532 297.915 23.527C299.356 22.8212 300.255 22.7966 301.661 23.4566C301.806 23.5237 301.896 23.6695 301.896 23.8267C301.896 24.1182 301.599 24.3212 301.329 24.2099L301.331 24.2115Z" fill="#616161"/>
<path d="M293.901 36.5967C294.949 37.029 295.735 37.0389 296.771 36.6229C297.074 36.5017 297.403 36.7245 297.403 37.0503V37.1388C297.403 37.1993 297.369 37.255 297.315 37.2812C295.874 37.987 294.975 38.0116 293.568 37.3517C293.424 37.2845 293.334 37.1388 293.334 36.9816C293.334 36.6901 293.63 36.487 293.901 36.5984V36.5967Z" fill="#F6F6F6"/>
<path d="M295.401 27.2832C295.401 27.2832 293.495 31.161 294.584 32.8003C295.673 34.4395 297.381 32.8003 297.381 32.8003C297.381 32.8003 293.556 35.2878 295.4 27.2832H295.401Z" fill="#EC948D"/>
<path d="M286.879 15.7839C286.879 15.7839 291.292 20.7933 297.405 19.5848C303.518 18.3762 306.718 28.8536 306.718 28.8536C306.718 28.8536 309.502 19.3932 302.159 14.2037C294.816 9.01413 290.686 12.458 286.881 15.7823L286.879 15.7839Z" fill="#616161"/>
<path d="M285.061 27.3249C285.061 27.3249 279.526 20.2014 286.079 17.7122C290.648 15.978 290.489 15.6079 290.489 15.6079C290.489 15.6079 287.63 27.713 285.061 27.3249Z" fill="#616161"/>
<path d="M308.092 29.8468C307.791 31.4353 306.81 32.6127 305.813 32.6635C305.711 32.6684 305.606 32.6635 305.503 32.6438C305.286 32.6012 305.084 32.5046 304.904 32.3589C304.897 32.354 304.888 32.3441 304.878 32.3376C304.19 31.7546 303.862 30.474 304.126 29.0886C304.269 28.3337 304.568 27.6688 304.947 27.1775C305.079 27.0072 305.22 26.8566 305.369 26.7288C305.377 26.7223 305.384 26.7174 305.39 26.7108C305.801 26.3686 306.263 26.2081 306.715 26.2932C307.048 26.3555 307.339 26.5503 307.57 26.8353C307.667 26.9548 307.755 27.0907 307.829 27.2414C308.164 27.9079 308.282 28.8495 308.092 29.8435V29.8468Z" fill="#FCAE88"/>
<path d="M282.645 29.8468C282.947 31.4353 283.928 32.6127 284.925 32.6635C285.027 32.6684 285.131 32.6635 285.234 32.6438C285.452 32.6012 285.654 32.5046 285.834 32.3589C285.84 32.354 285.85 32.3441 285.86 32.3376C286.548 31.7546 286.875 30.474 286.612 29.0886C286.469 28.3337 286.17 27.6688 285.791 27.1775C285.659 27.0072 285.518 26.8566 285.369 26.7288C285.361 26.7223 285.354 26.7174 285.347 26.7108C284.936 26.3686 284.475 26.2081 284.023 26.2932C283.69 26.3555 283.399 26.5503 283.168 26.8353C283.071 26.9548 282.983 27.0907 282.909 27.2414C282.573 27.9079 282.455 28.8495 282.645 29.8435V29.8468Z" fill="#FCAE88"/>
</svg>
