<svg width="1040" height="49" viewBox="0 0 1040 49" fill="none" xmlns="http://www.w3.org/2000/svg">
<ellipse cx="24" cy="24.6448" rx="24" ry="23.8469" fill="#CB1B5B"/>
<path d="M25.4844 29.7188H23.5391V20.6328L20.7656 21.5625V19.9375L25.2422 18.3047H25.4844V29.7188Z" fill="white"/>
<ellipse cx="520" cy="24.6448" rx="24" ry="23.8469" fill="#CB1B5B"/>
<path d="M523.953 29.7188H516.289V28.3828L519.992 24.3594C520.398 23.9115 520.716 23.5234 520.945 23.1953C521.18 22.8672 521.344 22.5729 521.438 22.3125C521.531 22.0469 521.578 21.7891 521.578 21.5391C521.578 21.013 521.432 20.5833 521.141 20.25C520.854 19.9115 520.443 19.7422 519.906 19.7422C519.49 19.7422 519.138 19.8333 518.852 20.0156C518.57 20.1927 518.359 20.4375 518.219 20.75C518.078 21.0625 518.008 21.4219 518.008 21.8281H516.07C516.07 21.1615 516.221 20.5521 516.523 20C516.826 19.4479 517.266 19.0078 517.844 18.6797C518.422 18.3516 519.117 18.1875 519.93 18.1875C521.076 18.1875 521.961 18.4714 522.586 19.0391C523.211 19.6068 523.523 20.3724 523.523 21.3359C523.523 21.8151 523.422 22.2865 523.219 22.75C523.016 23.2135 522.737 23.6771 522.383 24.1406C522.029 24.599 521.622 25.0703 521.164 25.5547L518.734 28.1641H523.953V29.7188Z" fill="white"/>
<ellipse cx="1016" cy="24.6448" rx="24" ry="23.8469" fill="#CB1B5B"/>
<path d="M1015.64 23.1484C1016.07 23.1484 1016.43 23.0755 1016.71 22.9297C1016.99 22.7839 1017.2 22.5807 1017.34 22.3203C1017.48 22.0599 1017.55 21.7604 1017.55 21.4219C1017.55 21.0781 1017.49 20.7812 1017.37 20.5312C1017.24 20.276 1017.05 20.0807 1016.8 19.9453C1016.54 19.8099 1016.22 19.7422 1015.84 19.7422C1015.51 19.7422 1015.22 19.8073 1014.95 19.9375C1014.69 20.0625 1014.48 20.2422 1014.33 20.4766C1014.18 20.7057 1014.1 20.9818 1014.1 21.3047H1012.16C1012.16 20.6953 1012.32 20.1562 1012.64 19.6875C1012.96 19.2188 1013.39 18.8516 1013.94 18.5859C1014.49 18.3203 1015.11 18.1875 1015.8 18.1875C1016.54 18.1875 1017.18 18.3099 1017.73 18.5547C1018.29 18.7943 1018.72 19.1536 1019.02 19.6328C1019.34 20.112 1019.49 20.7057 1019.49 21.4141C1019.49 21.7474 1019.42 22.0807 1019.27 22.4141C1019.11 22.7422 1018.89 23.0443 1018.59 23.3203C1018.3 23.5964 1017.93 23.8177 1017.48 23.9844C1017.04 24.151 1016.53 24.2344 1015.95 24.2344H1014.52V23.1484H1015.64ZM1014.52 23.6094H1015.95C1016.61 23.6094 1017.18 23.6875 1017.65 23.8438C1018.12 23.9948 1018.51 24.2057 1018.8 24.4766C1019.1 24.7474 1019.32 25.0599 1019.45 25.4141C1019.59 25.7682 1019.66 26.1406 1019.66 26.5312C1019.66 27.2448 1019.49 27.8516 1019.16 28.3516C1018.82 28.8464 1018.36 29.224 1017.77 29.4844C1017.2 29.7448 1016.54 29.875 1015.8 29.875C1015.32 29.875 1014.85 29.8073 1014.4 29.6719C1013.95 29.5365 1013.54 29.3359 1013.19 29.0703C1012.84 28.7995 1012.56 28.4635 1012.35 28.0625C1012.15 27.6562 1012.05 27.1849 1012.05 26.6484H1013.98C1013.98 26.9714 1014.06 27.2604 1014.22 27.5156C1014.38 27.7656 1014.59 27.9635 1014.87 28.1094C1015.15 28.25 1015.47 28.3203 1015.84 28.3203C1016.43 28.3203 1016.89 28.1641 1017.22 27.8516C1017.56 27.5339 1017.73 27.0938 1017.73 26.5312C1017.73 26.099 1017.64 25.7474 1017.47 25.4766C1017.3 25.2005 1017.06 25 1016.75 24.875C1016.44 24.7448 1016.07 24.6797 1015.64 24.6797H1014.52V23.6094Z" fill="white"/>
<line x1="73.5" y1="28.1133" x2="470.5" y2="28.1132" stroke="#CB1B5B" stroke-width="3" stroke-linecap="round" stroke-dasharray="20 20"/>
<line x1="569.5" y1="28.1133" x2="966.5" y2="28.1132" stroke="#CB1B5B" stroke-width="3" stroke-linecap="round" stroke-dasharray="20 20"/>
</svg>
