<svg width="1040" height="48" viewBox="0 0 1040 48" fill="none" xmlns="http://www.w3.org/2000/svg">
<circle cx="24" cy="24" r="24" fill="#CB1B5B"/>
<path d="M25.4844 29H23.5391V19.9141L20.7656 20.8438V19.2188L25.2422 17.5859H25.4844V29Z" fill="white"/>
<circle cx="520" cy="24" r="24" fill="#CB1B5B"/>
<path d="M523.953 29H516.289V27.6641L519.992 23.6406C520.398 23.1927 520.716 22.8047 520.945 22.4766C521.18 22.1484 521.344 21.8542 521.438 21.5938C521.531 21.3281 521.578 21.0703 521.578 20.8203C521.578 20.2943 521.432 19.8646 521.141 19.5312C520.854 19.1927 520.443 19.0234 519.906 19.0234C519.49 19.0234 519.138 19.1146 518.852 19.2969C518.57 19.474 518.359 19.7188 518.219 20.0312C518.078 20.3438 518.008 20.7031 518.008 21.1094H516.07C516.07 20.4427 516.221 19.8333 516.523 19.2812C516.826 18.7292 517.266 18.2891 517.844 17.9609C518.422 17.6328 519.117 17.4688 519.93 17.4688C521.076 17.4688 521.961 17.7526 522.586 18.3203C523.211 18.888 523.523 19.6536 523.523 20.6172C523.523 21.0964 523.422 21.5677 523.219 22.0312C523.016 22.4948 522.737 22.9583 522.383 23.4219C522.029 23.8802 521.622 24.3516 521.164 24.8359L518.734 27.4453H523.953V29Z" fill="white"/>
<circle cx="1016" cy="24" r="24" fill="#98969D"/>
<path d="M1015.64 22.4297C1016.07 22.4297 1016.43 22.3568 1016.71 22.2109C1016.99 22.0651 1017.2 21.862 1017.34 21.6016C1017.48 21.3411 1017.55 21.0417 1017.55 20.7031C1017.55 20.3594 1017.49 20.0625 1017.37 19.8125C1017.24 19.5573 1017.05 19.362 1016.8 19.2266C1016.54 19.0911 1016.22 19.0234 1015.84 19.0234C1015.51 19.0234 1015.22 19.0885 1014.95 19.2188C1014.69 19.3438 1014.48 19.5234 1014.33 19.7578C1014.18 19.987 1014.1 20.263 1014.1 20.5859H1012.16C1012.16 19.9766 1012.32 19.4375 1012.64 18.9688C1012.96 18.5 1013.39 18.1328 1013.94 17.8672C1014.49 17.6016 1015.11 17.4688 1015.8 17.4688C1016.54 17.4688 1017.18 17.5911 1017.73 17.8359C1018.29 18.0755 1018.72 18.4349 1019.02 18.9141C1019.34 19.3932 1019.49 19.987 1019.49 20.6953C1019.49 21.0286 1019.42 21.362 1019.27 21.6953C1019.11 22.0234 1018.89 22.3255 1018.59 22.6016C1018.3 22.8776 1017.93 23.099 1017.48 23.2656C1017.04 23.4323 1016.53 23.5156 1015.95 23.5156H1014.52V22.4297H1015.64ZM1014.52 22.8906H1015.95C1016.61 22.8906 1017.18 22.9688 1017.65 23.125C1018.12 23.276 1018.51 23.487 1018.8 23.7578C1019.1 24.0286 1019.32 24.3411 1019.45 24.6953C1019.59 25.0495 1019.66 25.4219 1019.66 25.8125C1019.66 26.526 1019.49 27.1328 1019.16 27.6328C1018.82 28.1276 1018.36 28.5052 1017.77 28.7656C1017.2 29.026 1016.54 29.1562 1015.8 29.1562C1015.32 29.1562 1014.85 29.0885 1014.4 28.9531C1013.95 28.8177 1013.54 28.6172 1013.19 28.3516C1012.84 28.0807 1012.56 27.7448 1012.35 27.3438C1012.15 26.9375 1012.05 26.4661 1012.05 25.9297H1013.98C1013.98 26.2526 1014.06 26.5417 1014.22 26.7969C1014.38 27.0469 1014.59 27.2448 1014.87 27.3906C1015.15 27.5312 1015.47 27.6016 1015.84 27.6016C1016.43 27.6016 1016.89 27.4453 1017.22 27.1328C1017.56 26.8151 1017.73 26.375 1017.73 25.8125C1017.73 25.3802 1017.64 25.0286 1017.47 24.7578C1017.3 24.4818 1017.06 24.2812 1016.75 24.1562C1016.44 24.026 1016.07 23.9609 1015.64 23.9609H1014.52V22.8906Z" fill="white"/>
<line x1="73.5" y1="27.5" x2="470.5" y2="27.5" stroke="#CB1B5B" stroke-width="3" stroke-linecap="round" stroke-dasharray="20 20"/>
<line x1="569.5" y1="27.5" x2="966.5" y2="27.5" stroke="#98969D" stroke-width="3" stroke-linecap="round" stroke-dasharray="20 20"/>
</svg>
