<?xml version="1.0" encoding="utf-8"?>
<!-- Generator: Adobe Illustrator 27.8.0, SVG Export Plug-In . SVG Version: 6.00 Build 0)  -->
<svg version="1.1" id="Layer_1" xmlns="http://www.w3.org/2000/svg" xmlns:xlink="http://www.w3.org/1999/xlink" x="0px" y="0px"
	 viewBox="0 0 832.26 426.17" style="enable-background:new 0 0 832.26 426.17;" xml:space="preserve">
<style type="text/css">
	.st0{fill:#C9195B;}
	.st1{fill:#D4477C;}
	.st2{fill:#DF759D;}
	.st3{fill:#E9A3BD;}
	.st4{fill:#F4D1DE;}
</style>
<g>
	<g>
		<path class="st0" d="M64.31,38.54c-12.61,0-22.92,9.87-23.61,22.31l47.23,0C87.23,48.41,76.92,38.54,64.31,38.54z"/>
		<path class="st0" d="M64.31,85.84c12.61,0,22.92-9.87,23.61-22.31l-47.23,0C41.39,75.97,51.7,85.84,64.31,85.84z"/>
	</g>
	<g>
		<path class="st0" d="M164.83,38.54c-12.61,0-22.92,9.87-23.61,22.31l47.23,0C187.75,48.41,177.44,38.54,164.83,38.54z"/>
		<path class="st0" d="M164.83,85.84c12.61,0,22.92-9.87,23.61-22.31l-47.23,0C141.91,75.97,152.22,85.84,164.83,85.84z"/>
	</g>
	<g>
		<path class="st1" d="M265.35,38.54c-12.61,0-22.92,9.87-23.61,22.31l47.23,0C288.27,48.41,277.96,38.54,265.35,38.54z"/>
		<path class="st1" d="M265.35,85.84c12.61,0,22.92-9.87,23.61-22.31l-47.23,0C242.43,75.97,252.74,85.84,265.35,85.84z"/>
	</g>
	<g>
		<path class="st2" d="M365.87,38.54c-12.61,0-22.92,9.87-23.61,22.31l47.23,0C388.79,48.41,378.48,38.54,365.87,38.54z"/>
		<path class="st2" d="M365.87,85.84c12.61,0,22.92-9.87,23.61-22.31l-47.23,0C342.95,75.97,353.26,85.84,365.87,85.84z"/>
	</g>
	<g>
		<path class="st2" d="M466.39,38.54c-12.61,0-22.92,9.87-23.61,22.31l47.23,0C489.31,48.41,479,38.54,466.39,38.54z"/>
		<path class="st2" d="M466.39,85.84c12.61,0,22.92-9.87,23.61-22.31l-47.23,0C443.47,75.97,453.78,85.84,466.39,85.84z"/>
	</g>
	<g>
		<path class="st3" d="M566.91,38.54c-12.61,0-22.92,9.87-23.61,22.31l47.23,0C589.83,48.41,579.52,38.54,566.91,38.54z"/>
		<path class="st3" d="M566.91,85.84c12.61,0,22.92-9.87,23.61-22.31l-47.23,0C543.99,75.97,554.3,85.84,566.91,85.84z"/>
	</g>
	<g>
		<path class="st4" d="M667.43,38.54c-12.61,0-22.92,9.87-23.61,22.31l47.23,0C690.35,48.41,680.04,38.54,667.43,38.54z"/>
		<path class="st4" d="M667.43,85.84c12.61,0,22.92-9.87,23.61-22.31l-47.23,0C644.51,75.97,654.82,85.84,667.43,85.84z"/>
	</g>
	<g>
		<path class="st4" d="M767.95,38.54c-12.61,0-22.92,9.87-23.61,22.31l47.23,0C790.87,48.41,780.56,38.54,767.95,38.54z"/>
		<path class="st4" d="M767.95,85.84c12.61,0,22.92-9.87,23.61-22.31l-47.23,0C745.03,75.97,755.34,85.84,767.95,85.84z"/>
	</g>
	<g>
		<path class="st0" d="M767.95,139.13c12.61,0,22.92,9.87,23.61,22.31l-47.23,0C745.03,149,755.34,139.13,767.95,139.13z"/>
		<path class="st0" d="M767.95,186.44c-12.61,0-22.92-9.87-23.61-22.31l47.23,0C790.87,176.57,780.56,186.44,767.95,186.44z"/>
	</g>
	<g>
		<path class="st0" d="M667.43,139.13c12.61,0,22.92,9.87,23.61,22.31l-47.23,0C644.51,149,654.82,139.13,667.43,139.13z"/>
		<path class="st0" d="M667.43,186.44c-12.61,0-22.92-9.87-23.61-22.31l47.23,0C690.35,176.57,680.04,186.44,667.43,186.44z"/>
	</g>
	<g>
		<path class="st1" d="M566.91,139.13c12.61,0,22.92,9.87,23.61,22.31l-47.23,0C543.99,149,554.3,139.13,566.91,139.13z"/>
		<path class="st1" d="M566.91,186.44c-12.61,0-22.92-9.87-23.61-22.31l47.23,0C589.83,176.57,579.52,186.44,566.91,186.44z"/>
	</g>
	<g>
		<path class="st2" d="M466.39,139.13c12.61,0,22.92,9.87,23.61,22.31l-47.23,0C443.47,149,453.78,139.13,466.39,139.13z"/>
		<path class="st2" d="M466.39,186.44c-12.61,0-22.92-9.87-23.61-22.31l47.23,0C489.31,176.57,479,186.44,466.39,186.44z"/>
	</g>
	<g>
		<path class="st2" d="M365.87,139.13c12.61,0,22.92,9.87,23.61,22.31l-47.23,0C342.95,149,353.26,139.13,365.87,139.13z"/>
		<path class="st2" d="M365.87,186.44c-12.61,0-22.92-9.87-23.61-22.31l47.23,0C388.79,176.57,378.48,186.44,365.87,186.44z"/>
	</g>
	<g>
		<path class="st3" d="M265.35,139.13c12.61,0,22.92,9.87,23.61,22.31l-47.23,0C242.43,149,252.74,139.13,265.35,139.13z"/>
		<path class="st3" d="M265.35,186.44c-12.61,0-22.92-9.87-23.61-22.31l47.23,0C288.27,176.57,277.96,186.44,265.35,186.44z"/>
	</g>
	<g>
		<path class="st4" d="M164.83,139.13c12.61,0,22.92,9.87,23.61,22.31l-47.23,0C141.91,149,152.22,139.13,164.83,139.13z"/>
		<path class="st4" d="M164.83,186.44c-12.61,0-22.92-9.87-23.61-22.31l47.23,0C187.75,176.57,177.44,186.44,164.83,186.44z"/>
	</g>
	<g>
		<path class="st4" d="M64.31,139.13c12.61,0,22.92,9.87,23.61,22.31l-47.23,0C41.39,149,51.7,139.13,64.31,139.13z"/>
		<path class="st4" d="M64.31,186.44c-12.61,0-22.92-9.87-23.61-22.31l47.23,0C87.23,176.57,76.92,186.44,64.31,186.44z"/>
	</g>
	<g>
		<path class="st0" d="M64.31,239.73c-12.61,0-22.92,9.87-23.61,22.31l47.23,0C87.23,249.6,76.92,239.73,64.31,239.73z"/>
		<path class="st0" d="M64.31,287.04c12.61,0,22.92-9.87,23.61-22.31H40.7C41.39,277.17,51.7,287.04,64.31,287.04z"/>
	</g>
	<g>
		<path class="st0" d="M164.83,239.73c-12.61,0-22.92,9.87-23.61,22.31l47.23,0C187.75,249.6,177.44,239.73,164.83,239.73z"/>
		<path class="st0" d="M164.83,287.04c12.61,0,22.92-9.87,23.61-22.31h-47.23C141.91,277.17,152.22,287.04,164.83,287.04z"/>
	</g>
	<g>
		<path class="st1" d="M265.35,239.73c-12.61,0-22.92,9.87-23.61,22.31l47.23,0C288.27,249.6,277.96,239.73,265.35,239.73z"/>
		<path class="st1" d="M265.35,287.04c12.61,0,22.92-9.87,23.61-22.31h-47.23C242.43,277.17,252.74,287.04,265.35,287.04z"/>
	</g>
	<g>
		<path class="st2" d="M365.87,239.73c-12.61,0-22.92,9.87-23.61,22.31l47.23,0C388.79,249.6,378.48,239.73,365.87,239.73z"/>
		<path class="st2" d="M365.87,287.04c12.61,0,22.92-9.87,23.61-22.31h-47.23C342.95,277.17,353.26,287.04,365.87,287.04z"/>
	</g>
	<g>
		<path class="st2" d="M466.39,239.73c-12.61,0-22.92,9.87-23.61,22.31l47.23,0C489.31,249.6,479,239.73,466.39,239.73z"/>
		<path class="st2" d="M466.39,287.04c12.61,0,22.92-9.87,23.61-22.31h-47.23C443.47,277.17,453.78,287.04,466.39,287.04z"/>
	</g>
	<g>
		<path class="st3" d="M566.91,239.73c-12.61,0-22.92,9.87-23.61,22.31l47.23,0C589.83,249.6,579.52,239.73,566.91,239.73z"/>
		<path class="st3" d="M566.91,287.04c12.61,0,22.92-9.87,23.61-22.31H543.3C543.99,277.17,554.3,287.04,566.91,287.04z"/>
	</g>
	<g>
		<path class="st4" d="M667.43,239.73c-12.61,0-22.92,9.87-23.61,22.31l47.23,0C690.35,249.6,680.04,239.73,667.43,239.73z"/>
		<path class="st4" d="M667.43,287.04c12.61,0,22.92-9.87,23.61-22.31h-47.23C644.51,277.17,654.82,287.04,667.43,287.04z"/>
	</g>
	<g>
		<path class="st4" d="M767.95,239.73c-12.61,0-22.92,9.87-23.61,22.31l47.23,0C790.87,249.6,780.56,239.73,767.95,239.73z"/>
		<path class="st4" d="M767.95,287.04c12.61,0,22.92-9.87,23.61-22.31h-47.23C745.03,277.17,755.34,287.04,767.95,287.04z"/>
	</g>
	<g>
		<path class="st0" d="M767.95,340.33c12.61,0,22.92,9.87,23.61,22.31l-47.23,0C745.03,350.2,755.34,340.33,767.95,340.33z"/>
		<path class="st0" d="M767.95,387.64c-12.61,0-22.92-9.87-23.61-22.31h47.23C790.87,377.77,780.56,387.64,767.95,387.64z"/>
	</g>
	<g>
		<path class="st0" d="M667.43,340.33c12.61,0,22.92,9.87,23.61,22.31l-47.23,0C644.51,350.2,654.82,340.33,667.43,340.33z"/>
		<path class="st0" d="M667.43,387.64c-12.61,0-22.92-9.87-23.61-22.31h47.23C690.35,377.77,680.04,387.64,667.43,387.64z"/>
	</g>
	<g>
		<path class="st1" d="M566.91,340.33c12.61,0,22.92,9.87,23.61,22.31l-47.23,0C543.99,350.2,554.3,340.33,566.91,340.33z"/>
		<path class="st1" d="M566.91,387.64c-12.61,0-22.92-9.87-23.61-22.31h47.23C589.83,377.77,579.52,387.64,566.91,387.64z"/>
	</g>
	<g>
		<path class="st2" d="M466.39,340.33c12.61,0,22.92,9.87,23.61,22.31l-47.23,0C443.47,350.2,453.78,340.33,466.39,340.33z"/>
		<path class="st2" d="M466.39,387.64c-12.61,0-22.92-9.87-23.61-22.31h47.23C489.31,377.77,479,387.64,466.39,387.64z"/>
	</g>
	<g>
		<path class="st2" d="M365.87,340.33c12.61,0,22.92,9.87,23.61,22.31l-47.23,0C342.95,350.2,353.26,340.33,365.87,340.33z"/>
		<path class="st2" d="M365.87,387.64c-12.61,0-22.92-9.87-23.61-22.31h47.23C388.79,377.77,378.48,387.64,365.87,387.64z"/>
	</g>
	<g>
		<path class="st3" d="M265.35,340.33c12.61,0,22.92,9.87,23.61,22.31l-47.23,0C242.43,350.2,252.74,340.33,265.35,340.33z"/>
		<path class="st3" d="M265.35,387.64c-12.61,0-22.92-9.87-23.61-22.31h47.23C288.27,377.77,277.96,387.64,265.35,387.64z"/>
	</g>
	<g>
		<path class="st4" d="M164.83,340.33c12.61,0,22.92,9.87,23.61,22.31l-47.23,0C141.91,350.2,152.22,340.33,164.83,340.33z"/>
		<path class="st4" d="M164.83,387.64c-12.61,0-22.92-9.87-23.61-22.31h47.23C187.75,377.77,177.44,387.64,164.83,387.64z"/>
	</g>
	<g>
		<path class="st4" d="M64.31,340.33c12.61,0,22.92,9.87,23.61,22.31l-47.23,0C41.39,350.2,51.7,340.33,64.31,340.33z"/>
		<path class="st4" d="M64.31,387.64c-12.61,0-22.92-9.87-23.61-22.31h47.23C87.23,377.77,76.92,387.64,64.31,387.64z"/>
	</g>
</g>
</svg>
