<svg width="145" height="40" viewBox="0 0 145 40" fill="none" xmlns="http://www.w3.org/2000/svg">
<path d="M47.2736 10.6943V17.2442H38.843V10.6943H35.8203V26.5782H38.843V19.768H47.2736V26.5782H50.3168V10.6943H47.2736ZM66.0882 20.5892C66.0882 16.8035 63.4356 14.3198 59.8167 14.3198C56.1154 14.3198 53.3806 16.9037 53.3806 20.5291C53.3806 24.1345 56.0743 26.7384 60.2485 26.7384C62.387 26.7384 64.1348 26.0574 65.2657 24.7554L63.703 23.0128C62.8188 23.8941 61.7084 24.3348 60.3307 24.3348C58.1511 24.3348 56.65 23.1931 56.3005 21.4304H66.0471C66.0676 21.15 66.0882 20.8095 66.0882 20.5892ZM59.8167 16.6032C61.7084 16.6032 63.0861 17.805 63.3328 19.5476H56.2594C56.5472 17.7649 57.9249 16.6032 59.8167 16.6032ZM73.285 14.3198C71.2905 14.3198 69.3576 14.8205 68.0211 15.822L69.1726 17.8851C70.0979 17.144 71.5372 16.6833 72.9355 16.6833C75.0123 16.6833 76.0404 17.6648 76.0404 19.3273V19.5076H72.8327C69.0492 19.5076 67.6509 21.0899 67.6509 23.113C67.6509 25.2161 69.4399 26.7384 72.298 26.7384C74.1487 26.7384 75.5058 26.1375 76.2049 25.0959V26.5782H78.9603V19.4675C78.9603 15.9823 76.8835 14.3198 73.285 14.3198ZM72.8944 24.6753C71.4139 24.6753 70.5297 24.0143 70.5297 22.9928C70.5297 22.1115 71.0643 21.3904 73.0383 21.3904H76.0404V22.7925C75.5469 24.0344 74.3132 24.6753 72.8944 24.6753ZM82.6821 26.5782H85.5814V9.75293H82.6821V26.5782ZM96.6645 23.8941C96.2327 24.2347 95.6364 24.3949 95.0401 24.3949C93.9297 24.3949 93.3128 23.7539 93.3128 22.5922V16.8235H96.6439V14.5601H93.3128V11.796H90.4135V14.5601H88.3573V16.8235H90.4135V22.6523C90.4135 25.3363 91.9763 26.7384 94.6905 26.7384C95.7392 26.7384 96.7879 26.458 97.487 25.9172L96.6645 23.8941ZM106.946 14.3198C105.218 14.3198 103.759 14.8806 102.792 15.8621V9.75293H99.8928V26.5782H102.792V20.449C102.792 18.0253 104.19 16.8035 106.267 16.8035C108.118 16.8035 109.228 17.8451 109.228 19.9883V26.5782H112.127V19.6277C112.127 15.9823 109.927 14.3198 106.946 14.3198ZM121.175 26.7985C125.637 26.7985 127.755 24.6353 127.755 22.0714C127.755 16.2627 118.091 18.466 118.091 15.0809C118.091 13.8791 119.119 12.9177 121.627 12.9177C123.046 12.9177 124.671 13.3383 126.13 14.1595L127.076 11.8761C125.658 10.9748 123.622 10.474 121.648 10.474C117.186 10.474 115.088 12.6573 115.088 15.2211C115.088 21.11 124.773 18.8666 124.773 22.2917C124.773 23.4735 123.704 24.3548 121.175 24.3548C119.16 24.3548 117.083 23.6338 115.788 22.6122L114.739 24.8956C116.096 26.0374 118.625 26.7985 121.175 26.7985ZM139.105 14.46L135.157 23.4134L131.251 14.46H128.228L133.656 26.6182L133.43 27.0989C132.875 28.3008 132.279 28.7815 131.251 28.7815C130.469 28.7815 129.667 28.461 129.112 27.9402L127.94 30.0233C128.742 30.7244 130.037 31.145 131.271 31.145C133.348 31.145 134.931 30.3038 136.062 27.5596L141.902 14.46H139.105Z" fill="#CB1B5B"/>
<path d="M29.1821 16.3467C28.9559 16.1264 28.7503 15.9261 28.5447 15.7859C28.339 15.6256 28.1334 15.4854 27.9072 15.3853C27.7016 15.2851 27.4754 15.185 27.2081 15.1249C27.0642 15.0848 26.9202 15.0848 26.7969 15.0448C26.6324 15.0047 26.4884 14.9847 26.3239 14.9446L26.3034 14.9246C26.2211 14.9046 26.18 14.8244 26.2006 14.7443C26.2006 14.7043 26.2417 14.6642 26.2622 14.6442C26.4062 14.564 26.5707 14.4839 26.7352 14.4238C26.8997 14.3838 27.0642 14.3237 27.2492 14.3237C27.6194 14.2836 28.01 14.3637 28.339 14.524C28.6886 14.6642 28.997 14.9446 29.1821 15.2451C29.3877 15.5455 29.4905 15.886 29.47 16.2666C29.47 16.3467 29.3877 16.4068 29.3055 16.4068C29.2644 16.4068 29.2232 16.3868 29.2027 16.3668L29.1821 16.3467Z" fill="#CB1B5B"/>
<path fill-rule="evenodd" clip-rule="evenodd" d="M21.9628 5.66945C20.6263 5.72954 19.5981 6.85122 19.6804 8.13315L20.688 27.0215C20.7702 28.3034 21.9011 29.3049 23.2377 29.2448C24.5537 29.1847 25.5818 28.063 25.5201 26.7611L24.5126 7.89279C24.4303 6.61086 23.2994 5.58933 21.9628 5.66945Z" fill="#CB1B5B"/>
<path fill-rule="evenodd" clip-rule="evenodd" d="M10.0191 11.359C8.68254 11.2989 7.53105 12.3004 7.46936 13.6024L6.77024 26.7821C6.68799 28.0641 7.71611 29.1858 9.05266 29.2458C10.3687 29.326 11.5202 28.3245 11.5818 27.0225L12.3015 13.8427C12.3632 12.5408 11.3351 11.4391 10.0191 11.359Z" fill="#CB1B5B"/>
<path d="M20.3164 20.0478C21.2006 19.6873 22.0848 19.2667 22.9073 18.7859C23.6475 18.3453 24.3466 17.8445 25.0046 17.3037L25.1486 19.8676C24.8813 20.1279 24.5934 20.3883 24.3055 20.6287C23.154 21.5701 21.8586 22.3313 20.4603 22.8721L20.3164 20.0478Z" fill="#A30C43"/>
<path d="M7.13509 19.8506C7.97815 20.2111 8.86234 20.5116 9.74652 20.7319C10.4662 20.9122 11.1859 21.0324 11.9056 21.1125L11.7616 23.7164C10.8158 23.5361 9.86989 23.2557 8.98571 22.8952C8.30715 22.6147 7.64915 22.2742 7.01172 21.8937L7.13509 19.8506Z" fill="#A30C43"/>
<path d="M3.39467 18.4724C5.36866 19.9947 7.52771 20.9962 9.74846 21.537C11.9898 22.0979 14.2927 22.178 16.5341 21.8575C18.7754 21.517 20.955 20.7759 22.9084 19.5941C24.8824 18.4324 26.6096 16.85 28.049 14.827C28.1107 14.7468 28.2135 14.7268 28.2958 14.7869C28.3574 14.827 28.3986 14.9071 28.378 14.9672C27.9051 17.4509 26.3423 19.7543 24.3066 21.4369C22.2298 23.1394 19.639 24.2411 16.9659 24.6417C14.2927 25.0423 11.4757 24.7418 8.98765 23.7203C6.52016 22.6988 4.34054 20.9361 3.12736 18.7128C3.06567 18.6126 3.1068 18.5125 3.18904 18.4524C3.27129 18.4324 3.33298 18.4324 3.39467 18.4724Z" fill="#CB1B5B"/>
</svg>
