<svg width="49" height="48" viewBox="0 0 49 48" fill="none" xmlns="http://www.w3.org/2000/svg">
<circle cx="24.0859" cy="24" r="24" fill="white" fill-opacity="0.15"/>
<path d="M29.0426 20.1143L16.4288 13.034C15.6862 12.6225 15.0332 12.6726 14.6328 13.0884L25.3957 23.7168L29.0426 20.1143Z" fill="white"/>
<path d="M29.0426 28.6318L25.3957 25.0293L14.6328 35.662C15.0332 36.0778 15.6862 36.1279 16.4288 35.7121L29.0426 28.6318Z" fill="white"/>
<path d="M29.6077 28.0215L26.0449 24.4979V24.2484L29.612 20.7248L29.6919 20.7706L33.9163 23.1449C35.1219 23.8187 35.1219 24.9275 33.9163 25.6056L29.6919 27.9756L29.6077 28.0215Z" fill="white"/>
<path d="M13.9864 13.7448C13.7327 14.0071 13.5859 14.4154 13.5859 14.9442V33.8065C13.5859 34.3353 13.7327 34.7436 13.9864 35.0059L14.049 35.0635L24.7492 24.498V24.2485L14.049 13.683L13.9864 13.7448Z" fill="white"/>
</svg>
