<svg width="48" height="48" viewBox="0 0 48 48" fill="none" xmlns="http://www.w3.org/2000/svg">
<path d="M37.0676 14.9332C37.0676 16.2665 37.0676 17.5999 37.0676 18.6665C37.0676 18.9332 37.0676 18.9332 37.0676 19.1999C36.801 19.9999 36.2676 20.5332 35.4676 20.5332C34.6676 20.5332 33.8676 19.9999 33.8676 19.1999C33.8676 18.6665 33.8676 18.1332 33.8676 17.8665C33.8676 17.0665 33.8676 15.9999 33.8676 15.1999H33.601C32.5343 15.1999 31.201 15.1999 30.1343 15.1999C29.3343 15.1999 28.801 14.6665 28.5343 14.1332C28.2676 13.5999 28.5343 12.7999 29.0676 12.2665C29.3343 11.9999 29.8676 11.9999 30.1343 11.9999C31.4676 11.9999 32.801 11.9999 34.1343 11.9999C34.1343 11.7332 34.1343 11.7332 34.1343 11.4665C34.1343 10.1332 34.1343 9.06654 34.1343 7.7332C34.1343 6.9332 34.6676 6.39987 35.4676 6.1332C36.2676 5.86654 36.801 6.1332 37.3343 6.9332C37.601 7.19987 37.601 7.46654 37.601 7.99987C37.601 9.3332 37.601 10.6665 37.601 11.9999C37.8676 11.9999 37.8676 11.9999 38.1343 11.9999C39.201 11.9999 40.5343 11.9999 41.601 11.9999C42.6676 11.9999 43.201 12.7999 43.4676 13.5999C43.4676 14.3999 42.6676 15.1999 41.8676 15.1999C39.7343 14.9332 38.401 14.9332 37.0676 14.9332Z" fill="#3F3F3F"/>
<path d="M18.3997 22.3999H10.1331C7.19974 22.3999 5.06641 19.9999 5.06641 17.3333V9.33327C5.06641 6.39993 7.46641 4.2666 10.1331 4.2666H18.3997C21.3331 4.2666 23.4664 6.6666 23.4664 9.33327V17.0666C23.4664 19.9999 21.3331 22.3999 18.3997 22.3999Z" fill="#DEC6CF"/>
<path d="M18.3997 43.7334H10.1331C7.19974 43.7334 5.06641 41.3334 5.06641 38.6667V30.9334C5.06641 28 7.46641 25.8667 10.1331 25.8667H18.3997C21.3331 25.8667 23.4664 28.2667 23.4664 30.9334V38.6667C23.4664 41.3334 21.3331 43.7334 18.3997 43.7334Z" fill="#DEC6CF"/>
<path d="M39.7318 43.7334H31.4651C28.5318 43.7334 26.3984 41.3334 26.3984 38.6667V30.9334C26.3984 28 28.7984 25.8667 31.4651 25.8667H39.7318C42.6651 25.8667 44.7984 28.2667 44.7984 30.9334V38.6667C44.7984 41.3334 42.3984 43.7334 39.7318 43.7334Z" fill="#DEC6CF"/>
</svg>
