<svg width="56" height="55" viewBox="0 0 56 55" fill="none" xmlns="http://www.w3.org/2000/svg">
<path d="M48.4612 25.5C48.4612 25.8 48.4612 26 48.4612 26.2C48.4612 29.7 48.4612 33.3 48.4612 36.8C48.4612 39.6 46.8612 41.9 44.2612 42.5C43.6612 42.7 43.0612 42.7 42.5612 42.7C40.7612 42.7 38.8612 42.7 37.0612 42.7C36.8612 42.7 36.6612 42.7 36.3612 42.7C36.3612 43 36.3612 43.2 36.3612 43.4C36.3612 45.6 36.3612 47.8 36.3612 49.9C36.3612 52.7 34.3612 54.7 31.5612 54.7C23.2612 54.7 14.9612 54.7 6.6612 54.7C3.7612 54.7 1.86122 52.8 1.86122 49.8C1.86122 41.8 1.86122 33.8 1.86122 25.8C1.86122 25.4 1.96122 25 1.36122 24.8C1.06122 24.7 0.861241 24.2 0.761241 23.8C0.661241 22.7 0.761241 21.6 0.761241 20.6C0.761241 19.9 1.16122 19.5 1.86122 19.4C1.86122 18.7 1.86122 18 1.86122 17.3C1.86122 17.2 1.66123 17 1.56123 16.9C1.06123 16.7 0.761241 16.3 0.761241 15.8C0.761241 14.7 0.761241 13.6 0.761241 12.6C0.761241 12.1 0.961192 11.7 1.46119 11.5C1.86119 11.4 1.86122 11.2 1.86122 10.9C1.86122 8.90001 1.96122 7 1.86122 5C1.76122 2 4.06122 0 6.86122 0C15.0612 0.1 23.2612 0 31.4612 0C34.4612 0 36.3612 1.90001 36.3612 4.90001C36.3612 7.40001 36.3612 9.9 36.3612 12.5C37.2612 12.7 37.4612 13.3 37.4612 14.2C37.4612 15 37.4612 15.9 37.4612 16.7C37.4612 17.6 37.2612 17.9 36.3612 18.2C36.3612 25.6 36.3612 33 36.3612 40.4C36.5612 40.4 36.7612 40.4 36.8612 40.4C38.7612 40.4 40.6612 40.4 42.5612 40.4C44.7612 40.4 46.1612 39 46.1612 36.8C46.1612 33.1 46.1612 29.5 46.1612 25.8C46.1612 25.6 46.1612 25.5 46.1612 25.3C43.6612 24.8 41.6612 23.6 40.3612 21.4C39.2612 19.7 38.9612 17.7 39.3612 15.7C40.0612 11.8 43.6612 8.90001 47.6612 9.10001C51.8612 9.30001 55.1612 12.5 55.4612 16.7C55.7612 20.8 53.1612 24.7 48.4612 25.5ZM34.0612 40.6C34.0612 30.2 34.0612 19.9 34.0612 9.60001C24.0612 9.60001 14.1612 9.60001 4.26124 9.60001C4.26124 21.5 4.26124 33.5 4.26124 45.4C14.2612 45.4 24.1612 45.4 34.0612 45.4C34.0612 44.5 34.0612 43.7 34.0612 42.9C33.7612 42.9 33.5612 42.9 33.3612 42.9C30.2612 42.9 27.1612 42.9 24.0612 42.9C23.6612 42.9 23.2612 42.9 22.8612 42.8C19.9612 42.3 18.0612 40 18.0612 37.1C18.0612 36.1 18.0612 35.1 18.0612 34.1C17.4612 34 16.9612 33.9 16.3612 33.7C12.2612 32.6 9.96123 29.6 8.06123 26.1C7.86123 25.7 7.66123 25.2 7.56123 24.7C6.96123 22.5 7.16124 20.2 7.26124 18C7.26124 16.3 8.66122 15 10.3612 14.8C10.7612 14.8 10.9612 14.7 11.1612 14.3C11.8612 12.9 13.4612 12.2 15.0612 12.6C16.5612 13 17.5612 14.4 17.5612 15.9C17.5612 17.5 16.4612 18.9 14.8612 19.2C13.3612 19.6 11.8612 18.8 11.0612 17.4C10.7612 16.9 10.4612 16.8 10.0612 17.1C9.76123 17.4 9.56123 17.8 9.56123 18.2C9.46123 19.4 9.46123 20.6 9.56123 21.9C9.66123 23 9.86124 24.1 10.2612 25.1C10.7612 26.6 11.8612 27.7 12.8612 28.8C15.2612 31.5 18.2612 32.4 21.6612 31.4C24.9612 30.5 26.7612 27.9 28.2612 25.1C28.5612 24.6 28.7612 23.9 28.7612 23.3C28.8612 21.5 28.8612 19.8 28.8612 18C28.8612 17.9 28.8612 17.7 28.7612 17.6C28.4612 17.4 28.1612 17.1 27.8612 17C27.7612 17 27.4612 17.3 27.2612 17.5C26.4612 18.8 24.9612 19.5 23.5612 19.1C21.9612 18.7 20.9612 17.4 20.9612 15.8C20.9612 14.2 21.9612 12.8 23.4612 12.4C25.0612 12 26.5612 12.7 27.3612 14.1C27.5612 14.4 27.7612 14.5 28.0612 14.6C29.6612 14.7 31.0612 15.9 31.1612 17.5C31.2612 19.5 31.2612 21.6 30.9612 23.6C30.4612 27 28.2612 29.5 25.7612 31.7C24.2612 33 22.3612 33.6 20.3612 33.9C20.3612 35.1 20.2612 36.2 20.3612 37.3C20.4612 39.1 21.9612 40.4 23.7612 40.4C25.1612 40.4 26.6612 40.4 28.0612 40.4C30.0612 40.6 32.0612 40.6 34.0612 40.6ZM4.1612 47.7C4.1612 48.7 4.1612 49.6 4.1612 50.5C4.2612 51.7 5.26124 52.5 6.76124 52.5C14.9612 52.5 23.2612 52.5 31.4612 52.5C31.6612 52.5 31.9612 52.5 32.1612 52.4C33.0612 52.2 33.7612 51.7 33.9612 50.8C34.1612 49.8 34.0612 48.7 34.1612 47.6C24.0612 47.7 14.1612 47.7 4.1612 47.7ZM34.1612 7.3C34.1612 6.6 34.1612 5.90001 34.1612 5.20001C34.1612 3.30001 33.3612 2.40001 31.3612 2.40001C23.1612 2.40001 15.0612 2.40001 6.86122 2.40001C6.56122 2.40001 6.26123 2.40001 6.06123 2.40001C5.16123 2.50001 4.2612 3.30001 4.1612 4.20001C4.0612 5.20001 4.1612 6.20001 4.1612 7.20001C14.1612 7.30001 24.1612 7.3 34.1612 7.3ZM53.1612 17.5C53.2612 14.3 50.6612 11.7 47.4612 11.6C44.2612 11.5 41.5612 14.1 41.4612 17.4C41.3612 20.6 44.0612 23.3 47.2612 23.3C50.4612 23.4 53.1612 20.8 53.1612 17.5ZM14.0612 17C14.6612 17 15.1612 16.5 15.1612 15.9C15.1612 15.3 14.7612 14.8 14.0612 14.7C13.4612 14.7 12.8612 15.2 12.8612 15.8C12.9612 16.4 13.4612 17 14.0612 17ZM24.2612 14.7C23.6612 14.7 23.0612 15.1 23.0612 15.7C22.9612 16.3 23.5612 16.9 24.1612 16.9C24.7612 16.9 25.2612 16.4 25.3612 15.8C25.3612 15.2 24.9612 14.7 24.2612 14.7Z" fill="white"/>
<path d="M19.1617 49C18.8617 49 18.6617 49 18.3617 49C17.7617 49.1 17.2617 49.5 17.2617 50.1C17.2617 50.7 17.6617 51.2 18.2617 51.2C18.7617 51.2 19.3617 51.2 19.8617 51.2C20.4617 51.1 20.8617 50.7 20.8617 50.1C20.8617 49.5 20.4617 49.1 19.8617 49C19.7617 48.9 19.4617 49 19.1617 49Z" fill="white"/>
<path d="M19.1604 49C19.4604 49 19.7604 49 19.9604 49C20.5604 49.1 20.9604 49.6 20.9604 50.1C20.9604 50.7 20.5604 51.1 19.9604 51.2C19.4604 51.2 18.8605 51.2 18.3605 51.2C17.7605 51.1 17.2605 50.7 17.3605 50.1C17.3605 49.5 17.8604 49 18.4604 49C18.6604 48.9 18.9604 49 19.1604 49Z" fill="white"/>
<path d="M19.1613 6.00018C18.4613 6.00018 17.7613 6.00018 17.0613 6.00018C16.2613 6.00018 15.8613 5.50019 15.8613 4.90019C15.8613 4.20019 16.3613 3.8002 17.0613 3.7002C18.4613 3.7002 19.7613 3.7002 21.1613 3.7002C21.9613 3.7002 22.3613 4.20019 22.3613 4.80019C22.3613 5.40019 21.8613 5.90019 21.0613 5.90019C20.5613 6.00019 19.8613 6.00018 19.1613 6.00018Z" fill="white"/>
<path d="M43.7617 17.3999C43.7617 15.3999 45.3617 13.8999 47.3617 13.8999C49.3617 13.8999 50.9617 15.4999 50.8617 17.4999C50.8617 19.4999 49.2617 20.9999 47.2617 20.9999C45.3617 20.9999 43.7617 19.3999 43.7617 17.3999ZM47.3617 18.6999C48.0617 18.6999 48.6617 18.0999 48.6617 17.3999C48.6617 16.6999 48.0617 16.0999 47.3617 16.0999C46.6617 16.0999 46.0617 16.6999 46.0617 17.3999C46.0617 18.1999 46.6617 18.7999 47.3617 18.6999Z" fill="white"/>
</svg>
