<svg width="40" height="40" viewBox="0 0 40 40" fill="none" xmlns="http://www.w3.org/2000/svg">
<path d="M28.2205 22.2223V35.1112C28.2205 36.0001 27.5538 36.6668 26.6649 36.6668H8.88715C7.99826 36.6668 7.3316 36.0001 7.3316 35.1112V22.2223C7.3316 17.3334 10.8872 13.3334 15.3316 12.6668V7.55566H11.3316C9.77604 7.55566 8.44271 6.66678 7.99826 5.33344L7.10938 3.55566H29.776C31.3316 3.55566 32.6649 4.44455 33.1094 5.77789L33.776 7.55566H19.9983V12.6668C24.6649 13.3334 28.2205 17.3334 28.2205 22.2223Z" fill="#CB1B5B"/>
<path d="M36.4446 15.7777C37.1113 17.3332 36.6669 19.111 35.1113 19.7777C34.6669 19.9999 34.4446 19.9999 34.0002 19.9999C33.778 19.9999 33.5557 19.9999 33.3335 19.9999C31.5557 19.5554 30.6669 17.3332 31.5557 15.7777L33.5557 11.7777C33.778 11.3332 34.2224 11.3332 34.4446 11.7777L36.4446 15.7777Z" fill="#CB1B5B"/>
<path d="M22.7778 24.2222V25.5556C22.7778 26 22.3333 26.2222 22.1111 26.2222H19.2222V28.8889C19.2222 29.3333 18.7778 29.5556 18.5556 29.5556H17.2222C16.7778 29.5556 16.5556 29.3333 16.5556 28.8889V26.2222H13.6667C13.4444 26.2222 13 26 13 25.5556V24.2222C13 23.7778 13.4444 23.5556 13.6667 23.5556H16.3333V20.6667C16.3333 20.2222 16.7778 20 17 20H18.3333C18.7778 20 19 20.4444 19 20.6667V23.3333H21.6667C22.5556 23.5556 22.7778 23.7778 22.7778 24.2222Z" fill="white"/>
</svg>
