<svg width="40" height="48" viewBox="0 0 40 48" fill="none" xmlns="http://www.w3.org/2000/svg">
<path d="M19.7621 47.3002C15.4621 47.2002 10.9621 46.7002 6.66211 45.1002C4.76211 44.4002 3.06211 43.5002 1.66211 42.0002C0.662109 40.9002 0.162109 39.6002 0.162109 38.1002C0.262109 32.9002 2.16212 28.3002 5.86212 24.6002C6.66212 23.8002 7.76213 23.7002 8.46213 24.4002C9.26213 25.1002 9.26213 26.2002 8.46213 27.0002C5.96213 29.5002 4.46213 32.5002 3.96213 36.0002C3.86213 36.6002 3.86212 37.2002 3.76212 37.8002C3.66212 38.7002 4.06211 39.3002 4.66211 39.9002C5.76211 40.9002 7.06212 41.4002 8.36212 41.9002C11.6621 43.1002 15.1621 43.6002 18.6621 43.7002C22.9621 43.8002 27.2621 43.4002 31.3621 41.9002C32.4621 41.5002 33.5621 40.9002 34.5621 40.3002C35.6621 39.6002 36.0621 38.6002 35.9621 37.3002C35.5621 33.3002 34.1621 29.9002 31.2621 27.0002C30.8621 26.6002 30.5621 26.0002 30.5621 25.4002C30.6621 24.7002 31.0621 24.2002 31.7621 23.9002C32.4621 23.6002 33.1621 23.8002 33.6621 24.3002C35.7621 26.4002 37.3621 28.9002 38.3621 31.7002C39.0621 33.6002 39.3621 35.7002 39.4621 37.7002C39.5621 39.5002 38.8621 41.0002 37.5621 42.3002C35.9621 43.8002 33.9621 44.7002 31.8621 45.4002C28.0621 46.8002 24.0621 47.2002 19.7621 47.3002Z" fill="white"/>
<path d="M19.9623 0.700195C26.9623 0.700195 32.4623 6.30019 32.4623 13.4002C32.4623 20.1002 26.7623 25.8002 19.9623 25.7002C12.9623 25.7002 7.36226 20.1002 7.46226 13.1002C7.46226 6.30019 13.0623 0.700195 19.9623 0.700195ZM19.9623 22.2002C24.9623 22.2002 28.9623 18.2002 28.9623 13.2002C28.9623 8.3002 24.9623 4.30019 19.9623 4.30019C15.0623 4.30019 11.0623 8.3002 11.0623 13.2002C10.9623 18.2002 14.9623 22.2002 19.9623 22.2002Z" fill="white"/>
</svg>
