<svg width="32" height="32" viewBox="0 0 32 32" fill="none" xmlns="http://www.w3.org/2000/svg">
<mask id="mask0_95_893" style="mask-type:alpha" maskUnits="userSpaceOnUse" x="0" y="0" width="32" height="32">
<rect width="32" height="32" fill="#D9D9D9"/>
</mask>
<g mask="url(#mask0_95_893)">
<path d="M27.2473 12.8304L17.3068 2.88992C16.2792 1.86224 14.6069 1.86218 13.5792 2.88992C12.6553 3.81372 12.5758 5.22264 13.258 6.2287L13.2442 6.2979C12.5275 9.88159 10.7827 13.1418 8.19834 15.7261L3.63888 20.2856C2.60874 21.3158 2.60857 22.983 3.63888 24.0132L6.12394 26.4983C7.15402 27.5284 8.82139 27.5285 9.85159 26.4983L10.4729 25.877L14.8218 30.2259C15.852 31.2561 17.5192 31.2562 18.5494 30.2259C19.5771 29.1982 19.5771 27.526 18.5494 26.4983L16.6856 24.6345L17.3069 24.0132C18.337 22.9831 18.3371 21.3159 17.3069 20.2856L16.8847 19.8634C18.9617 18.4092 21.3204 17.3968 23.8394 16.893L23.9095 16.879C24.9379 17.5734 26.3436 17.4617 27.2473 16.558H27.2474C28.275 15.5304 28.275 13.8582 27.2473 12.8304ZM8.60906 25.2557C8.26572 25.599 7.70981 25.5991 7.36647 25.2557L4.88141 22.7706C4.53801 22.4272 4.53801 21.8715 4.88141 21.5281L9.23029 17.1792L12.9579 20.9068C12.5325 21.3323 9.04503 24.8197 8.60906 25.2557ZM17.3068 27.7408C17.6493 28.0833 17.6493 28.6408 17.3068 28.9833C16.9643 29.3259 16.4068 29.3259 16.0643 28.9833L11.7154 24.6344L12.9579 23.3919L17.3068 27.7408ZM14.2005 22.1493C14.4646 21.8852 14.86 21.4806 15.484 20.9477L16.0643 21.5281C16.4077 21.8715 16.4077 22.4272 16.0643 22.7706L15.443 23.3919L14.2005 22.1493ZM14.2378 19.7017L10.4354 15.8992C12.4731 13.5463 13.9324 10.7688 14.7131 7.75141L22.3856 15.424C19.3682 16.2046 16.5908 17.6639 14.2378 19.7017ZM26.0046 15.3154C25.6612 15.6587 25.1055 15.6587 24.7621 15.3154L14.8217 5.37498C14.4783 5.03152 14.4783 4.47585 14.8217 4.13245C15.1651 3.78905 15.7209 3.78905 16.0643 4.13245L26.0046 14.0728C26.3472 14.4154 26.3472 14.9728 26.0046 15.3154Z" fill="#CB1B5B"/>
<path d="M9.85176 20.2861C9.50872 19.943 8.95234 19.943 8.60923 20.2861L7.3667 21.5287C7.0236 21.8718 7.0236 22.4281 7.3667 22.7712C7.70975 23.1143 8.26619 23.1143 8.60923 22.7712L9.85176 21.5287C10.1949 21.1856 10.1949 20.6292 9.85176 20.2861Z" fill="#CB1B5B"/>
<path d="M21.3425 1C20.8572 1 20.4639 1.39338 20.4639 1.87862V3.63587C20.4639 4.12112 20.8572 4.51449 21.3425 4.51449C21.8277 4.51449 22.2211 4.12112 22.2211 3.63587V1.87862C22.2211 1.39338 21.8277 1 21.3425 1Z" fill="#CB1B5B"/>
<path d="M28.3712 8.02979H26.614C26.1287 8.02979 25.7354 8.42316 25.7354 8.90841C25.7354 9.39366 26.1287 9.78703 26.614 9.78703H28.3712C28.8565 9.78703 29.2498 9.39366 29.2498 8.90841C29.2498 8.42316 28.8564 8.02979 28.3712 8.02979Z" fill="#CB1B5B"/>
<path d="M27.2366 3.0149C26.8936 2.67179 26.3372 2.67179 25.9941 3.0149L24.2368 4.77214C23.8937 5.11525 23.8937 5.67157 24.2368 6.01467C24.5799 6.35778 25.1362 6.35784 25.4794 6.01467L27.2366 4.25743C27.5797 3.91432 27.5797 3.35806 27.2366 3.0149Z" fill="#CB1B5B"/>
</g>
</svg>
