<svg width="48" height="48" viewBox="0 0 48 48" fill="none" xmlns="http://www.w3.org/2000/svg">
<path d="M31.1999 37.6004C26.6666 33.6004 21.3332 31.2004 15.4666 29.8671C15.4666 25.8671 15.4666 22.1337 15.4666 18.1337C21.3332 16.8004 26.3999 14.4004 31.1999 10.4004C31.1999 19.4671 31.1999 28.5337 31.1999 37.6004Z" stroke="#CB1B5B" stroke-width="1.5" stroke-miterlimit="10"/>
<path d="M36.2666 24C36.2666 28.8 36.2666 33.3333 36.2666 38.1333C36.2666 39.7333 35.2 40.8 33.6 40.8C32.2666 40.8 31.2 39.7333 31.2 38.4V38.1333C31.2 28.8 31.2 19.4666 31.2 10.1333C31.2 8.79995 32 7.73329 33.3333 7.46662C34.9333 7.19995 36.5333 8.26662 36.5333 9.86662C36.5333 10.9333 36.5333 12 36.5333 12.8C36.2666 16.5333 36.2666 20.2666 36.2666 24Z" stroke="#CB1B5B" stroke-width="1.5" stroke-miterlimit="10"/>
<path d="M9.06672 29.5994C8.53338 29.5994 7.73338 29.5994 7.20005 29.5994C5.86672 29.3327 4.80005 28.266 4.80005 26.9327C4.80005 25.066 4.80005 23.466 4.80005 21.5994C4.80005 19.9993 6.13338 18.9327 7.73338 18.666C8.00005 18.666 8.53338 18.666 9.06672 18.666C9.06672 22.1327 9.06672 25.866 9.06672 29.5994Z" stroke="#CB1B5B" stroke-width="1.5" stroke-miterlimit="10"/>
<path d="M9.06665 30.4004C9.06665 32.8004 9.06665 35.2004 9.06665 37.6004C10.6667 37.6004 12 37.6004 13.6 37.6004C14.1333 35.2004 14.9333 32.8004 15.4667 30.4004C13.3333 30.4004 11.2 30.4004 9.06665 30.4004Z" stroke="#CB1B5B" stroke-width="1.5" stroke-miterlimit="10" stroke-linejoin="round"/>
<path d="M15.4667 17.8672H9.06665V30.4005H15.4667V17.8672Z" stroke="#CB1B5B" stroke-width="1.5" stroke-miterlimit="10" stroke-linejoin="round"/>
<path d="M40 17.3324C41.0667 16.7991 42.1333 16.2658 42.9333 15.7324" stroke="#CB1B5B" stroke-width="1.5" stroke-miterlimit="10" stroke-linecap="round"/>
<path d="M41.6001 24.2656C42.6668 24.2656 44.0001 24.2656 45.0668 24.2656" stroke="#CB1B5B" stroke-width="1.5" stroke-miterlimit="10" stroke-linecap="round"/>
<path d="M40 30.9316C41.0667 31.465 42.1333 31.7316 43.2 32.265" stroke="#CB1B5B" stroke-width="1.5" stroke-miterlimit="10" stroke-linecap="round"/>
</svg>
