<svg width="150" height="150" viewBox="0 0 150 150" fill="none" xmlns="http://www.w3.org/2000/svg">
<circle cx="75" cy="75" r="75" fill="white"/>
<g clip-path="url(#clip0_9236_66997)">
<path d="M75 45C58.419 45 45 58.4175 45 75C45 91.5807 58.4175 105 75 105C91.581 105 105 91.5825 105 75C105 58.419 91.5825 45 75 45ZM75 100.814C60.7662 100.814 49.1861 89.2339 49.1861 75C49.1861 60.7661 60.7662 49.1861 75 49.1861C89.2339 49.1861 100.814 60.7661 100.814 75C100.814 89.2339 89.2339 100.814 75 100.814Z" fill="#CB1B5B"/>
<path d="M74.1105 82.959C72.452 82.959 71.1094 84.3411 71.1094 85.9995C71.1094 87.6187 72.4125 89.0403 74.1105 89.0403C75.8086 89.0403 77.1511 87.6187 77.1511 85.9995C77.1511 84.3411 75.769 82.959 74.1105 82.959Z" fill="#CB1B5B"/>
<path d="M74.6231 59.9375C69.292 59.9375 66.8438 63.0968 66.8438 65.2291C66.8438 66.7692 68.1469 67.48 69.213 67.48C71.3455 67.48 70.4768 64.4393 74.5046 64.4393C76.479 64.4393 78.0587 65.3081 78.0587 67.1246C78.0587 69.257 75.8473 70.4811 74.5441 71.5868C73.3989 72.5738 71.8984 74.193 71.8984 77.5891C71.8984 79.6425 72.4513 80.2348 74.0702 80.2348C76.0051 80.2348 76.4 79.3661 76.4 78.6157C76.4 76.5623 76.4395 75.3777 78.6115 73.6796C79.6777 72.8504 83.0341 70.165 83.0341 66.4531C83.0341 62.7412 79.6777 59.9375 74.6231 59.9375Z" fill="#CB1B5B"/>
</g>
<defs>
<clipPath id="clip0_9236_66997">
<rect width="60" height="60" fill="white" transform="translate(45 45)"/>
</clipPath>
</defs>
</svg>
