<svg width="60" height="60" viewBox="0 0 60 60" fill="none" xmlns="http://www.w3.org/2000/svg">
<g clip-path="url(#clip0_9370_64890)">
<path d="M30 0C13.419 0 0 13.4175 0 30C0 46.5807 13.4175 60 30 60C46.581 60 60 46.5825 60 30C60 13.419 46.5825 0 30 0ZM30 55.8139C15.7662 55.8139 4.18605 44.2339 4.18605 30C4.18605 15.7661 15.7662 4.18605 30 4.18605C44.2339 4.18605 55.8139 15.7661 55.8139 30C55.8139 44.2339 44.2339 55.8139 30 55.8139Z" fill="#CB1B5B"/>
</g>
<path d="M29.6703 21.2867C31.945 21.1862 34.2552 22.1467 35.9105 23.7874C37.571 25.4657 38.4646 27.6922 38.4279 30.0423C38.4102 30.781 38.2888 31.5217 38.0638 32.2939C37.9197 32.7714 37.6916 33.1993 37.4759 33.6345L36.4786 32.1433C35.8195 31.1576 34.4875 30.894 33.5071 31.5531C32.5225 32.2102 32.2589 33.5411 32.917 34.5247L35.6416 38.599C36.3872 39.7172 38.0053 39.826 38.949 38.9255C40.4609 37.4146 41.5439 35.5982 42.1727 33.5118C42.5086 32.3609 42.6854 31.2602 42.7126 30.1281C42.7691 26.5999 41.4351 23.2768 38.9417 20.7572C36.4473 18.2879 33.0227 16.9591 29.5677 17.001C28.3854 17.0303 27.4489 18.0117 27.4772 19.194C27.5044 20.3764 28.4618 21.2888 29.6703 21.2867Z" fill="#CB1B5B"/>
<path d="M17.5469 26.1416C17.2184 27.2402 17.0311 28.4163 17.0039 29.5421C16.9181 33.0828 18.2542 36.4143 20.7664 38.9255C23.1594 41.3194 26.4249 42.6713 29.7815 42.6713C29.9175 42.6713 30.0536 42.6692 30.1896 42.6629C31.3719 42.6252 32.3 41.6354 32.2613 40.4531C32.2236 39.2707 31.2872 38.306 30.0494 38.3814C27.7056 38.4274 25.4519 37.5485 23.7966 35.8953C22.1214 34.2212 21.231 32.003 21.2875 29.6467C21.3063 28.8934 21.4319 28.1065 21.6516 27.3741C21.7933 26.9041 22.0206 26.4807 22.235 26.0503L23.2295 27.5373C23.6428 28.1568 24.3208 28.4895 25.0124 28.4895C25.4215 28.4895 25.8359 28.3723 26.201 28.1275C27.1856 27.4704 27.4493 26.1395 26.7911 25.1559L24.0665 21.0816C23.3115 20.0269 21.7029 19.857 20.7675 20.7635C19.2493 22.2786 18.1663 24.0866 17.5469 26.1416Z" fill="#CB1B5B"/>
<defs>
<clipPath id="clip0_9370_64890">
<rect width="60" height="60" fill="white"/>
</clipPath>
</defs>
</svg>
