<svg width="150" height="150" viewBox="0 0 150 150" fill="none" xmlns="http://www.w3.org/2000/svg">
<circle cx="75" cy="75" r="75" fill="white"/>
<g clip-path="url(#clip0_9236_64573)">
<path d="M75 46C58.419 46 45 59.4175 45 76C45 92.5807 58.4175 106 75 106C91.581 106 105 92.5825 105 76C105 59.419 91.5825 46 75 46ZM75 101.814C60.7662 101.814 49.1861 90.2339 49.1861 76C49.1861 61.7661 60.7662 50.1861 75 50.1861C89.2339 50.1861 100.814 61.7661 100.814 76C100.814 90.2339 89.2339 101.814 75 101.814Z" fill="#CB1B5B"/>
</g>
<path d="M74.6703 67.2867C76.945 67.1862 79.2552 68.1467 80.9105 69.7874C82.571 71.4657 83.4646 73.6922 83.4279 76.0423C83.4102 76.781 83.2888 77.5217 83.0638 78.2939C82.9197 78.7714 82.6916 79.1993 82.4759 79.6345L81.4786 78.1433C80.8195 77.1576 79.4875 76.894 78.5071 77.5531C77.5225 78.2102 77.2589 79.5411 77.917 80.5247L80.6416 84.599C81.3872 85.7172 83.0053 85.826 83.949 84.9255C85.4609 83.4146 86.5439 81.5982 87.1727 79.5118C87.5086 78.3609 87.6854 77.2602 87.7126 76.1281C87.7691 72.5999 86.4351 69.2768 83.9417 66.7572C81.4473 64.2879 78.0227 62.9591 74.5677 63.001C73.3854 63.0303 72.4489 64.0117 72.4772 65.194C72.5044 66.3764 73.4618 67.2888 74.6703 67.2867Z" fill="#CB1B5B"/>
<path d="M62.5469 72.1416C62.2184 73.2402 62.0311 74.4163 62.0039 75.5421C61.9181 79.0828 63.2542 82.4143 65.7664 84.9255C68.1594 87.3194 71.4249 88.6713 74.7815 88.6713C74.9175 88.6713 75.0536 88.6692 75.1896 88.6629C76.3719 88.6252 77.3 87.6354 77.2613 86.4531C77.2236 85.2707 76.2872 84.306 75.0494 84.3814C72.7056 84.4274 70.4519 83.5485 68.7966 81.8953C67.1214 80.2212 66.231 78.003 66.2875 75.6467C66.3063 74.8934 66.4319 74.1065 66.6516 73.3741C66.7933 72.9041 67.0206 72.4807 67.235 72.0503L68.2295 73.5373C68.6428 74.1568 69.3208 74.4895 70.0124 74.4895C70.4215 74.4895 70.8359 74.3723 71.201 74.1275C72.1856 73.4704 72.4493 72.1395 71.7911 71.1559L69.0665 67.0816C68.3115 66.0269 66.7029 65.857 65.7675 66.7635C64.2493 68.2786 63.1663 70.0866 62.5469 72.1416Z" fill="#CB1B5B"/>
<defs>
<clipPath id="clip0_9236_64573">
<rect width="60" height="60" fill="white" transform="translate(45 46)"/>
</clipPath>
</defs>
</svg>
