<svg width="21" height="23" viewBox="0 0 21 23" fill="none" xmlns="http://www.w3.org/2000/svg">
<path d="M18.1199 17.8363C18.2152 18.742 17.425 19.6755 16.3624 19.6755C11.8119 19.6755 7.24787 19.6755 2.69744 19.6755C1.67563 19.6477 0.912685 18.742 1.00805 17.8363C1.0898 17.056 1.771 16.4011 2.62932 16.3593V11.0088C2.62932 7.07949 5.74922 3.88867 9.59121 3.88867C11.1171 3.88867 12.534 4.39028 13.692 5.25417C12.207 6.02053 11.1988 7.5811 11.1988 9.39248C11.1988 11.9702 13.2425 14.0463 15.7493 14.0463C16.0218 14.0463 16.2942 14.0185 16.5531 13.9627V16.3593C17.3978 16.4429 18.0517 17.0978 18.1199 17.8363Z" stroke="#CB1B5B" stroke-miterlimit="10" stroke-linecap="round" stroke-linejoin="round"/>
<path d="M20.0004 9.3929C20.0004 11.8731 18.0249 13.8935 15.5998 13.8935C13.1747 13.8935 11.1992 11.887 11.1992 9.3929C11.1992 6.92664 13.1611 4.90625 15.5998 4.90625C18.0112 4.90625 20.0004 6.92664 20.0004 9.3929Z" stroke="#CB1B5B" stroke-miterlimit="10"/>
<path d="M17.5896 10.0894H15.6414C15.4506 10.0894 15.3008 9.93614 15.3008 9.74107V6.92647C15.3008 6.7314 15.4506 6.57812 15.6414 6.57812C15.8185 6.57812 15.982 6.7314 15.982 6.92647V9.39273H17.5896C17.7804 9.39273 17.9302 9.55994 17.9302 9.74107C17.9302 9.93614 17.7804 10.0894 17.5896 10.0894Z" fill="#CB1B5B"/>
<path d="M6.6213 4.54335C6.48506 2.52297 8.10632 0.906658 9.83658 1.00419C11.4851 1.10173 12.8884 2.7041 12.6976 4.59909" stroke="#CB1B5B" stroke-miterlimit="10"/>
<path d="M5.83203 21.9336C8.32523 21.9336 10.8048 21.9336 13.298 21.9336" stroke="#CB1B5B" stroke-miterlimit="10" stroke-linecap="round" stroke-linejoin="round"/>
</svg>
