<svg width="70" height="70" viewBox="0 0 70 70" fill="none" xmlns="http://www.w3.org/2000/svg">
<g clip-path="url(#clip0_9389_64417)">
<path d="M35 0C15.7019 0 0 15.7019 0 35C0 54.2981 15.7019 70 35 70C54.2981 70 70 54.2981 70 35C70 15.7019 54.2981 0 35 0ZM35 65.625C18.1169 65.625 4.375 51.8875 4.375 35C4.375 18.1125 18.1169 4.375 35 4.375C51.8831 4.375 65.625 18.1125 65.625 35C65.625 51.8875 51.8831 65.625 35 65.625Z" fill="#CB1B5B"/>
<path d="M45.9386 26.25H43.528C43.1998 24.6225 42.4736 23.1525 41.5067 21.875H45.9386C47.1461 21.875 48.1261 20.895 48.1261 19.6875C48.1261 18.48 47.1461 17.5 45.9386 17.5H32.8136H24.0636C22.8561 17.5 21.8761 18.48 21.8761 19.6875C21.8761 20.895 22.8561 21.875 24.0636 21.875H32.8136C35.6617 21.875 38.068 23.7081 38.9736 26.25H24.0636C22.8561 26.25 21.8761 27.23 21.8761 28.4375C21.8761 29.645 22.8561 30.625 24.0636 30.625H38.9736C38.068 33.1669 35.6617 35 32.8136 35H24.0636C23.7792 35 23.4948 35.0569 23.228 35.1663C22.6942 35.3894 22.2655 35.8138 22.0423 36.3519C21.8192 36.8856 21.8192 37.4894 22.0423 38.0231C22.1517 38.2944 22.3136 38.535 22.5192 38.7363L40.0148 56.2319C40.4436 56.6606 41.0036 56.875 41.5636 56.875C42.1236 56.875 42.6836 56.6606 43.1123 56.2363C43.9655 55.3831 43.9655 53.9963 43.1123 53.1431L29.3442 39.375H32.8136C38.0986 39.375 42.513 35.6125 43.528 30.625H45.9386C47.1461 30.625 48.1261 29.645 48.1261 28.4375C48.1261 27.23 47.1461 26.25 45.9386 26.25Z" fill="#CB1B5B"/>
</g>
<defs>
<clipPath id="clip0_9389_64417">
<rect width="70" height="70" fill="white"/>
</clipPath>
</defs>
</svg>
