<svg width="48" height="48" viewBox="0 0 48 48" fill="none" xmlns="http://www.w3.org/2000/svg">
<path d="M12.0816 27.9467C11.9483 27.9733 11.1483 28.08 10.6416 28.8267C10.135 29.5467 10.2683 30.2933 10.295 30.4267C10.1083 30.6933 9.84164 31.1733 9.54831 31.76C8.93498 33.04 8.00164 35.0133 8.80164 36.1333C8.96164 36.3467 9.38831 36.8 10.455 36.96C23.655 36.9333 33.175 36.9333 34.135 36.96C34.2683 36.96 34.775 36.9867 35.3083 36.7467C35.7883 36.5333 36.0816 36.1867 36.215 36.0267C37.2283 34.72 38.215 33.4133 39.2283 32.1067C39.335 31.9467 39.495 31.6267 39.5483 31.2C39.6016 30.6133 39.3883 30.1867 39.2816 30.0267C38.0816 27.12 36.9083 24.24 35.7083 21.3333C35.6283 21.0933 35.3616 20.3733 34.5616 19.8667C34.4816 19.8133 33.575 19.3067 32.695 19.4667C31.3083 19.7333 30.3483 21.2 30.7216 22.6667C31.495 25.84 32.2683 29.04 33.0416 32.2133C33.2016 32.8267 33.3883 33.9733 32.7483 34.8267C32.3216 35.4133 31.655 35.6533 31.2283 35.76C29.2816 35.76 27.3083 35.7333 25.3616 35.7333C25.255 35.52 25.095 35.2267 24.9883 34.8267C24.8283 34.2933 24.8283 33.8667 24.8016 33.68C24.7216 31.2533 24.855 30.32 24.535 29.6C24.2416 28.9333 23.4683 28.1333 21.2016 27.7067C19.7883 27.92 18.1616 28.08 16.375 28.1333C14.8016 28.1333 13.3616 28.08 12.0816 27.9467Z" fill="#EAA136" stroke="black" stroke-miterlimit="10"/>
<path d="M16.8 25.0665C17.76 25.1732 18.8 25.2265 19.92 25.2265C21.6 25.2265 23.1466 25.0932 24.4533 24.8799C26.56 24.9332 27.4666 25.5999 27.8933 26.1332C28.5866 27.0132 28.4266 27.9465 28.9333 31.1199C29.0933 32.0799 29.2533 32.8799 29.36 33.4132C29.4933 33.4399 30.2133 33.5465 30.72 34.2132C31.2 34.8799 31.0933 35.5999 31.0933 35.7332C29.2 35.7332 27.3066 35.7332 25.3866 35.7332C25.3066 35.5999 25.2266 35.3865 25.12 35.1466C24.72 34.0532 24.8533 33.2532 24.8533 32.1865C24.8533 30.7465 24.8533 30.0265 24.48 29.4132C23.7333 28.1599 22.08 27.8932 21.6266 27.8132C20.96 27.7066 20.72 27.7865 18.2933 27.9999C17.4933 28.0532 16.8266 28.1065 16.4 28.1332C16.2933 27.6265 16.2666 26.9332 16.4533 26.1332C16.5333 25.7066 16.6666 25.3599 16.8 25.0665Z" fill="#FF5A72" stroke="black" stroke-miterlimit="10"/>
<path d="M11.3853 28.5334C10.9319 28.8268 10.5586 29.3334 10.5586 29.9201C10.5586 30.0534 10.5586 30.1601 10.5853 30.2401C13.0119 30.5868 15.9719 30.8001 19.2786 30.5868C21.1186 30.4801 22.8253 30.2401 24.3453 29.9468C24.2653 29.7601 24.1586 29.4934 23.9453 29.2268C23.1719 28.2401 21.8386 28.1068 21.1453 28.0534C20.2653 28.0001 20.0786 28.1601 18.6653 28.3201C17.1719 28.4801 15.9986 28.4268 13.6253 28.3468C12.9853 28.3201 12.4253 28.2934 12.0786 28.2668C11.7319 28.3468 11.5186 28.4534 11.3853 28.5334Z" fill="#453E47"/>
<path d="M38.4797 24.507C38.693 23.8937 38.933 22.9604 38.9597 21.7871C38.9597 20.5071 38.693 19.467 38.453 18.827C38.2664 18.8004 37.4664 18.7204 36.693 19.2537C35.7864 19.8937 35.7064 20.9337 35.6797 21.0671C36.213 22.3204 36.773 23.6004 37.3064 24.8537C37.413 24.8804 37.8397 24.987 38.2397 24.747C38.3464 24.667 38.4264 24.587 38.4797 24.507Z" fill="#FF5A72" stroke="black" stroke-miterlimit="10"/>
<path d="M31.8674 19.7339C31.6008 19.9205 31.1741 20.2939 30.8541 20.9072C30.3208 22.0005 30.6141 23.0405 30.6941 23.2805C29.9474 23.2005 28.7474 22.9339 27.5208 22.1339C26.9341 21.7605 26.4808 21.3339 26.1341 20.9605C25.7874 21.2805 25.2541 21.8939 24.8808 22.8272C24.5341 23.6805 24.4808 24.4539 24.4808 24.9072C23.2808 25.0672 21.8941 25.2005 20.3741 25.2272C19.0674 25.2539 17.8674 25.1739 16.8008 25.0672C16.6674 24.3739 15.7874 19.8405 18.7208 16.5072C19.2541 15.8672 21.0141 13.8939 23.6274 13.8672C23.7608 13.8672 26.5074 13.8939 28.0274 15.7339C28.8274 16.7205 28.9874 17.5739 30.2941 18.6939C30.8808 19.2005 31.4674 19.5472 31.8674 19.7339Z" fill="#D8D8D8" stroke="black" stroke-miterlimit="10"/>
<path d="M14.5599 27.4931H5.51995C5.01328 27.4931 4.61328 27.0931 4.61328 26.5865V19.7065C4.61328 19.1998 5.01328 18.7998 5.51995 18.7998H14.5599C15.0666 18.7998 15.4666 19.1998 15.4666 19.7065V26.5865C15.4666 27.0931 15.0666 27.4931 14.5599 27.4931Z" fill="#FFD766" stroke="black" stroke-miterlimit="10"/>
<path d="M11.5467 21.2265H8.56C8.24 21.2265 8 20.9598 8 20.6665V18.7998H12.1067V20.6398C12.1067 20.9598 11.84 21.2265 11.5467 21.2265Z" fill="#FF5A72" stroke="black" stroke-miterlimit="10"/>
<path d="M11.9219 36.96C12.2952 39.5466 14.2685 41.52 16.6152 41.84C19.4152 42.2133 22.2685 40.1333 22.8019 36.9866C19.1752 36.96 15.5485 36.96 11.9219 36.96Z" fill="#453E47" stroke="black" stroke-miterlimit="10"/>
<path d="M39.5742 31.7335L35.6275 36.7201C35.4142 37.0135 35.3342 37.3601 35.4675 37.7068C35.7609 38.5068 36.5075 39.9201 38.0809 40.6135C39.9742 41.4401 42.4542 41.0135 43.8409 39.2001C45.2809 37.3335 44.9609 34.8268 43.7609 33.2535C42.7475 31.9468 41.3342 31.5201 40.5075 31.3601C40.1875 31.3068 39.8142 31.4401 39.5742 31.7335Z" fill="#453E47" stroke="black" stroke-miterlimit="10"/>
<path d="M21.8661 14.1329C22.2928 13.9729 23.0394 13.7596 23.9461 13.7863C24.7461 13.8129 25.4128 13.9996 25.8128 14.1863C25.5194 13.1729 25.5461 12.3463 25.5994 11.8929C25.6528 11.3329 25.7861 11.0396 25.8394 10.9063C25.9728 10.6129 26.2128 10.1063 26.7194 9.78626C28.0794 8.93293 29.8928 10.3196 30.6928 9.54626C31.2528 9.0396 30.9328 7.89293 30.8794 7.70626C30.3461 5.78626 27.7594 4.3196 25.3594 4.50626C23.0928 4.66626 20.6661 6.2396 20.1061 8.85293C19.4928 11.8129 21.7328 14.0263 21.8661 14.1329Z" fill="#453E47" stroke="black" stroke-miterlimit="10"/>
<path d="M25.8114 14.187C25.6514 13.5737 25.4114 12.5337 25.7048 11.3604C25.9181 10.4537 26.3181 10.107 26.3981 10.0004C26.5048 9.89369 26.8248 9.65369 27.2514 9.52036C27.4114 9.46703 27.7314 9.41369 28.9581 9.62703C29.3581 9.70703 29.6781 9.76036 29.8914 9.81369C30.0781 10.5604 30.2914 11.1204 30.4514 11.4937C30.5314 11.6537 30.6648 11.947 30.7448 12.3737C30.7981 12.7204 30.8514 13.0137 30.7181 13.307C30.5314 13.7337 30.0781 13.867 29.9448 13.9204C29.9181 14.1337 29.8648 14.827 29.3314 15.4137C28.9848 15.787 28.5848 15.9737 28.3714 16.0537C28.1581 15.7604 27.8114 15.3604 27.3048 14.987C26.7448 14.5604 26.2114 14.3204 25.8114 14.187Z" fill="#FFECE4" stroke="black" stroke-miterlimit="10"/>
<path d="M10.2148 30.5332C11.3082 30.6665 12.4548 30.7465 13.7082 30.7999C15.3348 30.8532 16.8548 30.8265 18.2415 30.7465" fill="#FF8086"/>
<path d="M10.2148 30.5332C11.3082 30.6665 12.4548 30.7465 13.7082 30.7999C15.3348 30.8532 16.8548 30.8265 18.2415 30.7465" stroke="black" stroke-miterlimit="10" stroke-linecap="round"/>
<path d="M20 31C20.5614 31 21.193 30.9375 21.8713 30.8125C22.6433 30.625 23.3684 30.3125 24 30" fill="#FF8086"/>
<path d="M20 31C20.5614 31 21.193 30.9375 21.8713 30.8125C22.6433 30.625 23.3684 30.3125 24 30" stroke="black" stroke-miterlimit="10" stroke-linecap="round"/>
</svg>
