<svg width="56" height="56" viewBox="0 0 56 56" fill="none" xmlns="http://www.w3.org/2000/svg">
<mask id="mask0_2281_11300" style="mask-type:alpha" maskUnits="userSpaceOnUse" x="0" y="0" width="56" height="56">
<rect width="56" height="56" fill="#D9D9D9"/>
</mask>
<g mask="url(#mask0_2281_11300)">
<path d="M41.1926 51.7988H11.9482C9.7704 51.7988 8.21484 50.2432 8.21484 48.0654V27.8432C14.4371 22.5543 20.3482 17.2655 26.5704 11.9766C32.7926 17.2655 38.7037 22.5543 44.926 27.8432C44.926 34.6877 44.926 41.221 44.926 48.0654C44.926 49.9321 43.3704 51.7988 41.1926 51.7988Z" fill="#CB1B5B"/>
<path d="M5.10151 26.2896C4.47929 26.2896 3.85707 25.9785 3.54596 25.3563C2.92373 24.4229 2.92373 23.1785 3.85707 22.2451L25.3237 3.57848C26.2571 2.95626 27.1904 2.95626 28.1237 3.57848L49.9015 22.2451C50.8348 22.8674 50.8348 24.4229 50.2126 25.3563C49.5904 26.2896 48.0348 26.2896 47.1015 25.6674L26.5682 8.24515L6.34595 25.6674C6.03484 25.9785 5.41262 26.2896 5.10151 26.2896Z" fill="#CB1B5B"/>
<path d="M35.6005 34.6903V37.1792C35.6005 37.8014 35.2894 38.1125 34.6672 38.1125H30.0005C29.3783 38.1125 29.0672 38.4236 29.0672 39.0459V43.7125C29.0672 44.0236 28.7561 44.6459 28.1339 44.6459H25.3339C25.0227 44.6459 24.4005 44.3347 24.4005 43.7125V39.0459C24.4005 38.4236 24.0894 38.1125 23.4672 38.1125H18.8005C18.1783 38.1125 17.8672 37.8014 17.8672 37.1792V34.6903C17.8672 34.0681 18.1783 33.757 18.8005 33.757H23.4672C24.0894 33.757 24.4005 33.4459 24.4005 32.8236V28.157C24.4005 27.5347 24.7116 27.2236 25.3339 27.2236H27.8227C28.445 27.2236 28.7561 27.5347 28.7561 28.157V32.8236C28.7561 33.4459 29.0672 33.757 29.6894 33.757H34.3561C34.9783 34.0681 35.6005 34.3792 35.6005 34.6903Z" fill="white"/>
</g>
</svg>
