<svg width="56" height="56" viewBox="0 0 56 56" fill="none" xmlns="http://www.w3.org/2000/svg">
<path d="M48.5315 7.15626V52.8896H7.46484V7.15626C7.46484 4.97848 9.64262 3.11182 11.8204 3.11182H43.8648C46.3537 3.11182 48.5315 4.97848 48.5315 7.15626Z" fill="#CB1B5B"/>
<path d="M42.3107 35.4668V53.2002H38.8885V35.4668C38.8885 34.8446 38.5774 34.5335 37.9551 34.5335H29.8663V53.2002H26.7551V34.5335H18.044C17.4218 34.5335 17.1107 34.8446 17.1107 35.4668V53.2002H13.6885V35.4668C13.6885 32.9779 15.5551 31.1113 18.044 31.1113H37.9551C40.444 30.8002 42.3107 32.9779 42.3107 35.4668Z" fill="white"/>
<path d="M33.6004 18.9778V20.5333C33.6004 20.8444 33.2893 21.1556 32.9782 21.1556H29.8671C29.5559 21.1556 29.2448 21.4667 29.2448 21.7778V24.8889C29.2448 25.2 28.9337 25.5111 28.6226 25.5111H27.0671C26.7559 25.5111 26.7559 25.2 26.7559 24.8889V21.7778C26.7559 21.4667 26.4448 21.1556 26.1337 21.1556H23.0226C22.7115 21.1556 22.4004 20.8444 22.4004 20.5333V18.9778C22.4004 18.6667 22.7115 18.3556 23.0226 18.3556H26.1337C26.4448 18.3556 26.7559 18.0444 26.7559 17.7333V14.6222C26.7559 14.3111 27.0671 14 27.3782 14H28.9337C29.2448 14 29.5559 14.3111 29.5559 14.6222V17.7333C29.5559 18.0444 29.8671 18.3556 30.1782 18.3556H33.2893C33.6004 18.3556 33.6004 18.6667 33.6004 18.9778Z" fill="white"/>
</svg>
