<svg width="40" height="40" viewBox="0 0 40 40" fill="none" xmlns="http://www.w3.org/2000/svg">
<path d="M34.6654 5.11155V37.7782H5.33203V5.11155C5.33203 3.55599 6.88759 2.22266 8.44314 2.22266H31.332C33.1098 2.22266 34.6654 3.55599 34.6654 5.11155Z" fill="#CB1B5B"/>
<path d="M30.2218 25.3335V38.0002H27.7773V25.3335C27.7773 24.8891 27.5551 24.6668 27.1107 24.6668H21.3329V38.0002H19.1107V24.6668H12.8885C12.444 24.6668 12.2218 24.8891 12.2218 25.3335V38.0002H9.77734V25.3335C9.77734 23.5557 11.1107 22.2224 12.8885 22.2224H27.1107C28.8885 22.0002 30.2218 23.5557 30.2218 25.3335Z" fill="white"/>
<path d="M24 13.5556V14.6667C24 14.8889 23.7778 15.1111 23.5556 15.1111H21.3333C21.1111 15.1111 20.8889 15.3333 20.8889 15.5556V17.7778C20.8889 18 20.6667 18.2222 20.4444 18.2222H19.3333C19.1111 18.2222 19.1111 18 19.1111 17.7778V15.5556C19.1111 15.3333 18.8889 15.1111 18.6667 15.1111H16.4444C16.2222 15.1111 16 14.8889 16 14.6667V13.5556C16 13.3333 16.2222 13.1111 16.4444 13.1111H18.6667C18.8889 13.1111 19.1111 12.8889 19.1111 12.6667V10.4444C19.1111 10.2222 19.3333 10 19.5556 10H20.6667C20.8889 10 21.1111 10.2222 21.1111 10.4444V12.6667C21.1111 12.8889 21.3333 13.1111 21.5556 13.1111H23.7778C24 13.1111 24 13.3333 24 13.5556Z" fill="white"/>
</svg>
