<svg width="56" height="56" viewBox="0 0 56 56" fill="none" xmlns="http://www.w3.org/2000/svg">
<path d="M34.5321 10.5773C32.6655 9.02171 30.4877 8.08838 27.9988 8.08838C23.021 8.08838 18.9766 12.1328 18.9766 17.1106V17.7328C18.9766 18.355 19.5988 18.9773 20.221 18.9773H35.4655C36.0877 18.9773 36.7099 18.355 36.7099 17.7328V17.1106C37.021 14.6217 36.0877 12.1328 34.5321 10.5773ZM24.5766 14.6217C23.9543 14.6217 23.3321 13.9995 23.3321 13.3773C23.3321 12.755 23.9543 12.4439 24.5766 12.4439C25.1988 12.4439 25.821 13.0662 25.821 13.6884C25.821 13.9995 25.1988 14.6217 24.5766 14.6217ZM31.421 14.6217C30.7988 14.6217 30.1766 13.9995 30.1766 13.3773C30.1766 12.755 30.7988 12.4439 31.421 12.4439C32.0432 12.4439 32.6655 13.0662 32.6655 13.6884C32.6655 13.9995 32.0432 14.6217 31.421 14.6217Z" fill="#CB1B5B"/>
<path d="M35.1543 19.9106H20.8432C19.5988 19.9106 18.9766 20.5329 18.9766 21.7773V33.5995C18.9766 34.5329 19.9099 35.4662 20.8432 35.4662H35.1543C36.0877 35.4662 37.021 34.5329 37.021 33.5995V21.7773C37.021 20.5329 36.3988 19.9106 35.1543 19.9106ZM31.421 28.3106C31.421 28.6218 31.421 28.6218 31.1099 28.6218H28.9321V30.4884C28.9321 30.7995 28.9321 30.7995 28.621 30.7995H27.3766C27.0655 30.7995 27.0655 30.7995 27.0655 30.4884V28.6218H24.8877C24.5766 28.6218 24.5766 28.6218 24.5766 28.3106V27.0662C24.5766 26.7551 24.5766 26.7551 24.8877 26.7551H26.7543V24.5773C26.7543 24.2662 26.7543 24.2662 27.0655 24.2662H28.3099C28.621 24.2662 28.621 24.5773 28.621 24.5773V26.444H31.1099C31.421 26.444 31.421 26.444 31.421 26.7551V28.3106Z" fill="#CB1B5B"/>
<path d="M44.4852 35.7769C44.4852 36.088 44.1741 36.3991 43.863 36.3991C43.5519 36.3991 43.2408 36.088 43.2408 35.7769C43.2408 35.1546 42.6186 34.5324 41.6852 34.5324C41.063 34.5324 40.1297 35.1546 39.8186 36.088C39.8186 36.3991 39.5074 36.7102 39.1963 36.7102C38.8852 36.7102 38.5741 36.3991 38.5741 36.088C38.8852 34.8435 39.8186 33.9102 40.7519 33.5991V24.2657H39.1963V24.888C39.1963 25.1991 38.8852 25.5102 38.5741 25.5102H37.6408C37.3297 25.5102 37.0186 25.1991 37.0186 24.888V22.3991C37.0186 22.088 37.3297 21.7769 37.6408 21.7769H38.5741C38.8852 21.7769 39.1963 22.088 39.1963 22.3991V22.7102H41.6852C41.9963 22.7102 42.3074 23.0213 42.3074 23.3324V33.288C43.5519 33.9102 44.4852 34.8435 44.4852 35.7769Z" fill="#CB1B5B"/>
<path d="M18.3506 22.3991V24.888C18.3506 25.1991 18.0395 25.5102 17.7284 25.5102H17.1062C16.4839 25.5102 16.4839 25.1991 16.4839 24.888V24.2657H14.9284V33.288C15.2395 33.288 15.5506 33.288 15.8617 33.288C16.1728 33.288 16.4839 33.9102 16.1728 34.2213C16.1728 34.5324 15.8617 34.8435 15.5506 34.5324C14.6173 34.2213 13.6839 34.5324 13.3728 35.4657C13.0617 36.088 13.3728 37.0213 13.9951 37.3324C14.3062 37.6435 14.3062 37.9546 13.9951 38.2657C13.9951 38.5769 13.6839 38.5769 13.3728 38.5769H13.0617C12.1284 37.6435 11.5062 36.3991 12.1284 35.1546C12.4395 34.5324 12.7506 34.2213 13.3728 33.9102V23.6435C13.3728 23.3324 13.6839 23.0213 13.9951 23.0213H16.4839V22.3991C16.4839 22.088 16.4839 21.7769 17.1062 21.7769H18.0395C18.0395 21.7769 18.3506 22.088 18.3506 22.3991Z" fill="#CB1B5B"/>
<path d="M19.9089 38.888H17.7311V37.3324C17.7311 36.7102 17.1089 35.7769 16.1755 35.7769H13.6867C13.6867 36.088 13.6867 36.3991 13.9978 36.7102C13.9978 37.0213 14.3089 37.0213 14.3089 37.3324C14.9311 37.3324 15.5533 37.3324 16.1755 37.3324V38.888H11.82V38.5769V37.3324C11.5089 36.7102 11.5089 36.3991 11.5089 35.7769C10.8867 35.7769 10.2644 36.3991 10.2644 37.0213V38.5769H8.08665C7.46443 38.5769 7.15332 38.888 7.15332 39.5102V46.9769C7.15332 47.5991 7.46443 47.9102 8.08665 47.9102H19.9089C20.5311 47.9102 20.8422 47.5991 20.8422 46.9769V39.5102C20.8422 39.1991 20.5311 38.888 19.9089 38.888ZM16.1755 43.8657C16.1755 43.8657 15.8644 44.1769 16.1755 43.8657L14.62 44.1769V45.4213C14.62 45.4213 14.62 45.7324 14.3089 45.7324H13.6867C13.6867 45.7324 13.3755 45.7324 13.3755 45.4213V44.1769H12.1311C12.1311 44.1769 11.82 44.1769 11.82 43.8657V42.9324C11.82 42.9324 11.82 42.6213 12.1311 42.6213H13.3755V41.3769C13.3755 41.3769 13.3755 41.0657 13.6867 41.0657H14.3089C14.3089 41.0657 14.62 41.0657 14.62 41.3769V42.6213H15.8644C15.8644 42.6213 16.1755 42.6213 16.1755 42.9324V43.8657Z" fill="#CB1B5B"/>
<path d="M25.5115 37.955V46.0439C26.4448 46.355 27.0671 46.9773 27.0671 47.9106H22.4004C22.4004 46.9773 23.0226 46.0439 23.9559 46.0439V37.955H23.3337C22.7115 37.955 22.4004 37.6439 22.4004 37.3328V36.0884H27.0671V37.3328C27.0671 37.6439 26.7559 37.955 26.4448 37.955H25.5115Z" fill="#CB1B5B"/>
<path d="M32.0408 37.955V46.0439C32.9741 46.355 33.5964 46.9773 33.5964 47.9106H28.9297C28.9297 46.9773 29.5519 46.0439 30.4852 46.0439V37.955H29.863C29.5519 37.955 29.2408 37.6439 29.2408 37.3328V36.0884H33.9075V37.3328C33.9075 37.6439 33.5964 37.955 32.9741 37.955H32.0408Z" fill="#CB1B5B"/>
</svg>
