<svg width="56" height="56" viewBox="0 0 56 56" fill="none" xmlns="http://www.w3.org/2000/svg">
<path d="M28.9346 31.1108V45.733C28.9346 46.6664 29.8679 47.5997 30.8012 47.5997H43.2457L48.2235 51.6441C48.5346 51.9553 48.8457 51.6441 48.8457 51.333V47.5997H51.9568C52.8901 47.5997 53.8235 46.6664 53.8235 45.733V31.1108C53.8235 30.1775 52.8901 29.2441 51.9568 29.2441H30.8012C29.8679 29.2441 28.9346 29.8664 28.9346 31.1108Z" fill="#CB1B5B"/>
<path d="M48.222 8.08824V27.066H30.7998C28.622 27.066 27.0665 28.6216 27.0665 30.7993V38.266H22.0887L13.0665 46.0438C12.4442 46.3549 11.822 46.0438 11.822 45.4216V38.266H6.22203C4.35536 38.266 2.7998 36.7105 2.7998 34.8438V8.08824C2.7998 6.22157 4.35536 4.66602 6.22203 4.66602H44.7998C46.6665 4.66602 48.222 6.22157 48.222 8.08824Z" fill="#CB1B5B"/>
<path d="M32.3539 17.7329V19.5996C32.3539 20.2218 31.7317 20.5329 31.4206 20.5329H27.3762V24.2662C27.3762 24.8884 26.7539 25.1996 26.4428 25.1996H24.5762C23.9539 25.1996 23.6428 24.8884 23.6428 24.2662V20.5329H19.5984C19.2873 20.5329 18.665 20.2218 18.665 19.5996V17.7329C18.665 17.1107 19.2873 16.7996 19.5984 16.7996H23.3317V12.7551C23.3317 12.1329 23.9539 11.8218 24.265 11.8218H26.1317C26.7539 11.8218 27.065 12.444 27.065 12.7551V16.4884H30.7984C32.0428 16.7996 32.3539 17.1107 32.3539 17.7329Z" fill="white"/>
</svg>
