<svg width="56" height="56" viewBox="0 0 56 56" fill="none" xmlns="http://www.w3.org/2000/svg">
<path d="M27.6892 49.4663C25.8225 46.3552 26.7559 41.9997 29.867 39.8219L42.0003 32.3552C45.1114 30.4886 49.467 31.4219 51.6448 34.533C53.5114 37.6441 52.5781 41.9997 49.467 44.1774L37.3337 51.6441C33.9114 53.8219 29.5559 52.8886 27.6892 49.4663Z" fill="#CB1B5B"/>
<path d="M36.6786 35.8486L35.3555 36.6665L42.5531 48.3103L43.8762 47.4924L36.6786 35.8486Z" fill="white"/>
<path d="M33.2923 10.5776H9.95898V5.28869C9.95898 4.04425 11.2034 2.7998 12.4479 2.7998H30.4923C31.7368 2.7998 32.9812 4.04425 32.9812 5.28869V10.5776H33.2923Z" fill="#CB1B5B"/>
<path d="M37.0236 25.8228C37.0236 26.1339 37.0236 26.1339 37.0236 25.8228C37.0236 26.1339 37.0236 28.6228 37.0236 33.9117L29.2459 38.5784C28.6236 38.8895 28.0014 39.5117 27.6903 39.8228C27.3792 40.1339 27.0681 40.445 27.0681 40.7562C25.2014 43.2451 24.8903 46.3562 26.1347 49.4673H12.4459C12.1347 49.4673 8.71252 49.4673 7.15697 46.6673C6.53474 45.7339 6.22363 44.8006 6.22363 44.1784C6.22363 32.045 6.22363 26.7562 6.22363 26.1339C6.22363 25.8228 6.22363 25.2006 6.22363 24.8895C6.22363 24.8895 6.22363 24.8895 6.22363 24.5784C6.53474 23.0228 7.77919 21.7784 7.77919 21.7784C8.0903 21.1562 10.2681 18.6673 11.2014 17.4228C11.8236 16.1784 12.757 14.3117 12.4459 11.5117C17.4236 11.5117 17.1125 11.5117 20.2236 11.5117H22.7125C25.8236 11.5117 25.5125 11.5117 30.4903 11.5117C30.4903 14.6228 31.1125 16.1784 31.7347 17.4228C32.6681 18.6673 34.8459 21.1562 35.157 21.7784C35.157 21.7784 36.4014 23.0228 36.7125 24.5784V24.8895C37.0236 25.2006 37.0236 25.8228 37.0236 25.8228Z" fill="#CB1B5B"/>
<path d="M27.38 39.8232C27.0689 40.1344 26.7578 40.4455 26.7578 40.7566H6.84668V39.8232H27.38Z" fill="white"/>
<path d="M36.4022 26.4453H6.84668V27.3786H36.4022V26.4453Z" fill="white"/>
<path d="M26.1345 32.9789V34.2234C26.1345 34.5345 26.1345 34.5345 25.8234 34.5345H22.7123V37.9567C22.7123 38.2678 22.4012 38.2678 22.4012 38.2678H21.1568C20.8456 38.2678 20.8456 37.9567 20.8456 37.9567V34.5345H17.4234C17.1123 34.5345 17.1123 34.5345 17.1123 34.2234V33.2901C17.1123 32.9789 17.4234 32.9789 17.4234 32.9789H20.8456V29.5567C20.8456 29.2456 20.8456 29.2456 21.1568 29.2456H22.0901C22.4012 29.2456 22.4012 29.2456 22.4012 29.5567V32.9789H25.5123C25.8234 32.6678 26.1345 32.9789 26.1345 32.9789Z" fill="white"/>
</svg>
