<svg width="56" height="56" viewBox="0 0 56 56" fill="none" xmlns="http://www.w3.org/2000/svg">
<path d="M39.5087 31.1114V49.1558C39.5087 50.4002 38.5753 51.3336 37.3309 51.3336H12.442C11.1976 51.3336 10.2642 50.4002 10.2642 49.1558V31.1114C10.2642 24.2669 15.242 18.6669 21.4642 17.7336V10.578H15.8642C13.6865 10.578 11.8198 9.33358 11.1976 7.46692L9.95312 4.97803H41.6865C43.8642 4.97803 45.7309 6.22247 46.3531 8.08914L47.2865 10.578H27.9976V17.7336C34.5309 18.6669 39.5087 24.2669 39.5087 31.1114Z" fill="#CB1B5B"/>
<path d="M51.0221 22.0886C51.9554 24.2664 51.3332 26.7553 49.1554 27.6886C48.5332 27.9997 48.2221 27.9998 47.5999 27.9998C47.2888 27.9998 46.9777 27.9998 46.6665 27.9998C44.1777 27.3775 42.9332 24.2664 44.1777 22.0886L46.9777 16.4886C47.2888 15.8664 47.911 15.8664 48.2221 16.4886L51.0221 22.0886Z" fill="#CB1B5B"/>
<path d="M31.8891 33.9111V35.7778C31.8891 36.4 31.2669 36.7111 30.9558 36.7111H26.9113V40.4444C26.9113 41.0667 26.2891 41.3778 25.978 41.3778H24.1113C23.4891 41.3778 23.178 41.0667 23.178 40.4444V36.7111H19.1335C18.8224 36.7111 18.2002 36.4 18.2002 35.7778V33.9111C18.2002 33.2889 18.8224 32.9778 19.1335 32.9778H22.8669V28.9333C22.8669 28.3111 23.4891 28 23.8002 28H25.6669C26.2891 28 26.6002 28.6222 26.6002 28.9333V32.6667H30.3335C31.578 32.9778 31.8891 33.2889 31.8891 33.9111Z" fill="white"/>
</svg>
