<svg width="14" height="16" viewBox="0 0 14 16" fill="none" xmlns="http://www.w3.org/2000/svg">
<path d="M13.8008 12.7004C13.8008 14.1004 12.7008 15.2004 11.2008 15.2004C9.80078 15.2004 8.70078 14.1004 8.70078 12.7004C8.70078 12.5004 8.70078 12.3004 8.80078 12.1004L4.80078 10.0004C4.30078 10.6004 3.60078 11.0004 2.80078 11.0004C1.40078 11.0004 0.300781 9.90039 0.300781 8.50039C0.300781 7.10039 1.40078 5.90039 2.80078 5.90039C3.50078 5.90039 4.20078 6.20039 4.60078 6.70039L8.80078 4.20039C8.70078 3.90039 8.70078 3.70039 8.70078 3.40039C8.70078 2.00039 9.80078 0.900391 11.2008 0.900391C12.6008 0.900391 13.8008 2.00039 13.8008 3.40039C13.8008 4.80039 12.7008 5.90039 11.2008 5.90039C10.4008 5.90039 9.80078 5.60039 9.30078 5.00039L5.10078 7.50039C5.20078 7.80039 5.30078 8.10039 5.30078 8.40039C5.30078 8.60039 5.30078 8.80039 5.20078 9.00039L9.20078 11.1004C9.70078 10.5004 10.4008 10.1004 11.2008 10.1004C12.6008 10.1004 13.8008 11.3004 13.8008 12.7004Z" fill="#98969D"/>
</svg>
