<svg width="50" height="50" viewBox="0 0 50 50" fill="none" xmlns="http://www.w3.org/2000/svg">
<mask id="mask0_9549_63643" style="mask-type:luminance" maskUnits="userSpaceOnUse" x="0" y="0" width="50" height="50">
<path d="M0 0H50V50H0V0Z" fill="white"/>
</mask>
<g mask="url(#mask0_9549_63643)">
<path d="M44.7266 13.5845C44.7024 12.3137 44.6794 11.1131 44.6794 9.95176C44.6794 9.04179 43.9419 8.3042 43.0318 8.3042C35.9858 8.3042 30.6213 6.2791 26.1496 1.93134C25.5099 1.30918 24.492 1.30947 23.8525 1.93134C19.3813 6.2791 14.0177 8.3042 6.97215 8.3042C6.06219 8.3042 5.3245 9.04179 5.3245 9.95176C5.3245 11.1134 5.30175 12.3144 5.27733 13.5854C5.05155 25.4119 4.74227 41.609 24.4614 48.4441C24.6363 48.5048 24.8186 48.5352 25.001 48.5352C25.1833 48.5352 25.3658 48.5048 25.5405 48.4441C45.2612 41.6087 44.9524 25.4112 44.7266 13.5845Z" stroke="#CB1B5B" stroke-width="2.92969" stroke-miterlimit="10"/>
<path d="M28.0255 20.1791V14.0003H22.1792V20.1791H16V26.0254H22.1792V32.2041H28.0255V26.0254H34.2038V20.1791H28.0255Z" stroke="#CB1B5B" stroke-width="2.92969" stroke-miterlimit="10" stroke-linejoin="round"/>
</g>
</svg>
