<svg width="27" height="25" viewBox="0 0 27 25" fill="none" xmlns="http://www.w3.org/2000/svg">
<path d="M26.0983 15.5087C25.8211 16.0795 25.446 16.3078 24.9894 16.1448C24.7285 16.0469 24.4838 15.9491 24.2392 15.8186C23.2771 15.3131 22.3149 14.8075 21.369 14.302C21.3364 14.2857 21.2875 14.253 21.2549 14.2367C21.157 14.1878 21.1244 14.1063 21.1407 14.0084C21.1733 13.8943 21.2549 13.8617 21.3527 13.878C21.7604 13.9269 22.1681 13.9758 22.5921 14.041C23.4728 14.1715 24.3697 14.2857 25.2503 14.465C25.658 14.5466 25.9189 14.7586 26.0983 15.1174C26.0983 15.2315 26.0983 15.3783 26.0983 15.5087Z" fill="#FEEF83"/>
<path d="M14.5369 2.90234C14.8957 3.70143 15.2382 4.51683 15.5969 5.31591C15.7926 5.77253 15.9883 6.21285 16.184 6.66947C16.2493 6.81624 16.3308 6.86516 16.4939 6.88147C17.5376 6.96301 18.565 7.07716 19.6087 7.17501C20.6198 7.27286 21.6145 7.3544 22.6256 7.45225C22.7887 7.46855 22.9681 7.48486 23.1312 7.50117C23.3269 7.53379 23.5063 7.64794 23.5552 7.85994C23.6204 8.08825 23.5715 8.30026 23.3921 8.46334C22.9192 8.87103 22.4463 9.29504 21.9733 9.70274C20.9296 10.616 19.8859 11.5292 18.8585 12.4425C18.8096 12.4751 18.8096 12.4914 18.777 12.5077C18.2551 12.7849 18.2551 13.1926 18.3856 13.7145C18.8585 15.6388 19.2662 17.5631 19.7065 19.4875C19.7391 19.6016 19.7718 19.7321 19.7555 19.8626C19.6739 20.2703 19.2825 20.4496 18.9074 20.2213C18.2062 19.8299 17.5376 19.4059 16.8526 18.9982C15.6459 18.2807 14.4391 17.5631 13.2486 16.8456C13.1018 16.7641 12.9877 16.7804 12.8572 16.8619C11.2917 17.8078 9.70979 18.7373 8.12792 19.6669C8.079 19.6995 8.01377 19.7158 7.96484 19.7484C8.11161 18.721 8.32362 17.7099 8.55193 16.6988C8.92701 15.1333 9.36732 13.6003 9.92179 12.0837C10.4436 10.6323 11.047 9.19719 11.7157 7.79471C12.2375 6.71839 12.8083 5.67469 13.4117 4.64729C13.7541 4.0602 14.0966 3.45681 14.5369 2.90234Z" fill="#FEDB64"/>
<path d="M14.5351 2.90233C14.0948 3.4568 13.7523 4.06019 13.4098 4.64727C12.7901 5.67467 12.2194 6.73468 11.6975 7.811C11.0289 9.21348 10.4255 10.6323 9.90365 12.1C9.36549 13.6166 8.90887 15.1496 8.53379 16.7151C8.28917 17.7262 8.09347 18.7373 7.9467 19.7647C7.70208 19.9604 7.40854 20.1235 7.13131 20.2702C6.93561 20.3844 6.72361 20.3681 6.54422 20.205C6.36484 20.0419 6.2996 19.8625 6.34853 19.6179C6.82146 17.5142 7.29439 15.4268 7.76731 13.3231C7.83255 13.0621 7.78362 12.9154 7.57162 12.736C6.38114 11.7086 5.22328 10.6812 4.04911 9.63749C3.6088 9.26241 3.1848 8.88732 2.76079 8.51224C2.5651 8.34916 2.45094 8.15347 2.53248 7.89254C2.61402 7.63162 2.80971 7.51746 3.07064 7.48485C3.93496 7.40331 4.79928 7.32177 5.64729 7.24023C6.47899 7.17499 7.31069 7.09346 8.12609 7.01192C8.59902 6.96299 9.07195 6.93038 9.54487 6.89776C9.74057 6.88145 9.85472 6.81622 9.91996 6.63683C10.7843 4.64727 11.6323 2.65771 12.4966 0.668146C12.5945 0.423527 12.7412 0.260449 13.0348 0.244141C13.312 0.244141 13.4751 0.390912 13.5729 0.63553C13.8828 1.33677 14.1763 2.05432 14.4862 2.75556C14.5188 2.80448 14.5188 2.8534 14.5351 2.90233Z" fill="#FEC750"/>
<path d="M13.9161 23.9889C13.9325 24.6086 13.5737 25 13.0681 25C12.5626 25 12.2038 24.6086 12.2364 24.0541C12.2854 23.1898 12.4647 22.3418 12.6115 21.4938C12.6931 21.0535 12.7746 20.6132 12.8561 20.1728C12.8724 20.1239 12.8887 20.075 12.8887 20.0261C12.9051 19.9282 12.954 19.8467 13.0681 19.8467C13.1986 19.8467 13.2475 19.9282 13.2638 20.0261C13.3454 20.4338 13.4269 20.8578 13.4921 21.2655C13.6389 22.0972 13.7857 22.9126 13.8835 23.7443C13.8998 23.8584 13.9161 23.9563 13.9161 23.9889Z" fill="#FEEF83"/>
<path d="M5.32253 0C5.71392 0 5.95854 0.163079 6.12162 0.440313C6.54562 1.15786 6.9044 1.90802 7.26317 2.65819C7.47517 3.11481 7.70348 3.57143 7.91549 4.02805C7.96441 4.1422 8.02964 4.24005 7.89918 4.3379C7.76872 4.43575 7.68718 4.35421 7.58933 4.27267C6.74132 3.48989 5.92592 2.67449 5.12684 1.84279C4.98007 1.69602 4.8496 1.54925 4.71914 1.38617C4.49083 1.10894 4.47452 0.782779 4.6376 0.456621C4.78437 0.163079 5.0453 0.0326158 5.32253 0Z" fill="#FEEF83"/>
<path d="M20.7334 0C21.027 0.0163079 21.3042 0.146771 21.451 0.472929C21.614 0.799087 21.5977 1.12524 21.3531 1.40248C20.5703 2.29941 19.706 3.11481 18.858 3.9302C18.7275 4.06067 18.5971 4.17482 18.4666 4.30528C18.3851 4.38682 18.2872 4.43575 18.1731 4.35421C18.0752 4.27267 18.0915 4.19113 18.1405 4.07697C18.7275 2.87019 19.2494 1.61448 19.9506 0.456621C20.13 0.179387 20.3746 0.0163079 20.7334 0Z" fill="#FEEF83"/>
<path d="M0.853878 16.1776C0.397257 16.1776 0.0547916 15.884 0.00586792 15.4274C-0.0430558 15.0197 0.217871 14.612 0.641876 14.5142C1.32681 14.3348 2.01174 14.2532 2.71298 14.1391C3.30006 14.0576 3.88715 13.976 4.47423 13.8945C4.63731 13.8782 4.86562 13.764 4.94716 13.9923C5.0287 14.2206 4.78408 14.2532 4.65362 14.3348C3.64253 14.9056 2.61513 15.46 1.57143 15.9493C1.32681 16.0471 1.1148 16.1939 0.853878 16.1776Z" fill="#FEEF83"/>
</svg>
