<svg width="60" height="25" viewBox="0 0 60 25" fill="none" xmlns="http://www.w3.org/2000/svg">
<path d="M30.8356 4.53841C21.2284 6.1504 10.7304 10.5156 2.29219 20.5536C2.02016 20.8773 2.06174 21.3609 2.38557 21.6335C2.70949 21.9066 3.19187 21.8641 3.46548 21.5401C24.0048 -2.89078 57.2766 7.38884 57.6096 7.49562C58.0119 7.62544 58.444 7.40277 58.573 6.99894C58.7021 6.59564 58.4803 6.16503 58.0774 6.0353C57.8706 5.96917 45.3742 2.09899 30.8354 4.53847L30.8356 4.53841Z" fill="black"/>
<path d="M3.85643 8.99862C3.52319 9.05453 3.25569 9.32764 3.2211 9.68039L2.036 21.7604L13.1144 22.4841C13.5345 22.5133 13.9018 22.1921 13.9295 21.7689C13.9572 21.3463 13.6374 20.9814 13.2143 20.9538L3.71602 20.3325L4.74651 9.8288C4.78753 9.40774 4.48012 9.0327 4.05793 8.99132C3.98919 8.98551 3.92136 8.98827 3.85643 8.99862Z" fill="black"/>
</svg>
