<svg width="42" height="41" viewBox="0 0 42 41" fill="none" xmlns="http://www.w3.org/2000/svg">
<g clip-path="url(#clip0_9549_63404)">
<path d="M38.8313 3.16809C36.7896 1.12516 34.0735 0 31.1848 0C28.2957 0 25.5805 1.12516 23.5379 3.16809L13.8529 12.8529L4.16747 22.5389C2.12516 24.5818 1 27.2979 1 30.186C1 33.0741 2.12516 35.7902 4.16747 37.8319C6.20914 39.8748 8.92523 41 11.814 41C14.7027 41 17.4182 39.8748 19.4605 37.8319L29.1459 28.1471L38.8313 18.4611C40.8736 16.4182 41.9984 13.7021 41.9984 10.814C41.9984 7.92586 40.8736 5.20977 38.8313 3.16809ZM17.4216 35.793C15.9233 37.2911 13.9317 38.1166 11.814 38.1166C9.69536 38.1166 7.70435 37.2914 6.20633 35.793C4.70831 34.2947 3.88375 32.304 3.88375 30.1863C3.88375 28.0686 4.70893 26.0761 6.20633 24.578L14.8723 15.9115L26.0876 27.128L17.4216 35.793ZM36.7924 16.4223L28.1265 25.0889L16.9111 13.8723L25.5771 5.20695C27.0751 3.70893 29.0668 2.88344 31.1848 2.88344C33.3031 2.88344 35.2941 3.70862 36.7921 5.20695C38.2901 6.70529 39.1147 8.69598 39.1147 10.8137C39.1147 12.9314 38.2898 14.9239 36.7924 16.4223Z" fill="#CB1B5B"/>
<path d="M34.8908 9.72273C34.431 9.72273 33.979 9.50314 33.6997 9.09618C33.0249 8.11053 31.912 7.5234 30.7215 7.5234C29.7583 7.5234 28.8537 7.89783 28.1721 8.57943C27.6087 9.14248 26.6963 9.14248 26.1332 8.57943C25.5702 8.01607 25.5702 7.10361 26.1332 6.54057C27.3591 5.31406 28.9882 4.63965 30.7215 4.63965C32.8639 4.63965 34.8667 5.69568 36.0792 7.46584C36.529 8.12305 36.3616 9.02017 35.7041 9.47092C35.4554 9.64109 35.1717 9.72273 34.8908 9.72273Z" fill="#CB1B5B"/>
</g>
<defs>
<clipPath id="clip0_9549_63404">
<rect width="41" height="41" fill="white" transform="translate(0.851562)"/>
</clipPath>
</defs>
</svg>
