<svg width="16" height="16" viewBox="0 0 16 16" fill="none" xmlns="http://www.w3.org/2000/svg">
<path d="M14.934 7.64314C14.934 7.82092 14.8451 7.90981 14.8451 7.9987C14.7562 8.17648 14.6674 8.26536 14.5785 8.44314C14.5785 8.44314 14.4896 8.53203 14.4007 8.53203C14.5785 8.88759 14.6674 9.15425 14.6674 9.5987C14.5785 9.95425 14.4007 10.3098 14.134 10.4876C14.5785 11.1987 14.4007 11.9987 13.8674 12.4431C13.9562 12.7098 14.0451 12.8876 14.0451 13.1543C14.134 14.0431 13.5118 14.6654 12.6229 14.6654C11.2007 14.6654 9.77847 14.6654 8.35625 14.6654C8.00069 14.6654 7.55625 14.5765 7.20069 14.5765C6.48958 14.4876 5.86736 14.132 5.24514 13.9543C5.15625 13.9543 5.15625 13.8654 5.15625 13.7765C5.15625 11.4654 5.15625 9.15425 5.15625 6.93203C5.15625 6.84314 5.15625 6.84314 5.24514 6.75425C5.60069 6.22092 6.04514 5.77648 6.40069 5.33203C6.66736 5.06536 6.84514 4.7987 7.11181 4.53203C7.64514 3.90981 7.9118 3.10981 7.9118 2.30981C7.9118 2.22092 7.9118 2.04314 7.9118 1.95425C7.9118 1.5987 8.17847 1.33203 8.53403 1.33203C9.24514 1.33203 9.77847 1.5987 10.2229 2.13203C10.934 2.84314 11.0229 3.82092 10.7562 4.70981C10.6674 5.15425 10.4896 5.50981 10.4007 5.95425C10.4896 5.95425 10.4896 5.95425 10.5785 5.95425C11.5562 5.95425 12.534 5.95425 13.5118 5.95425C13.7785 5.95425 14.0451 6.04314 14.3118 6.13203C14.4896 6.22092 14.6674 6.3987 14.6674 6.48759C14.6674 6.66536 15.0229 7.10981 14.934 7.64314Z" fill="#98969D"/>
<path d="M1.51172 13.6873V7.02062C1.51172 6.75395 1.6895 6.57617 1.95616 6.57617H4.26727C4.53394 6.57617 4.71172 6.75395 4.71172 7.02062V13.6873C4.71172 13.9539 4.53394 14.1317 4.26727 14.1317H2.04505C1.77839 14.1317 1.51172 13.9539 1.51172 13.6873Z" fill="#98969D"/>
</svg>
