<svg width="16" height="16" viewBox="0 0 16 16" fill="none" xmlns="http://www.w3.org/2000/svg">
<path d="M14.934 9.24488C14.934 9.0671 14.8451 8.97821 14.8451 8.88932C14.7562 8.71155 14.6674 8.62266 14.5785 8.44488C14.5785 8.44488 14.4896 8.35599 14.4007 8.35599C14.5785 8.00043 14.6674 7.73377 14.6674 7.28932C14.5785 6.93377 14.4007 6.57821 14.134 6.40043C14.5785 5.68932 14.4007 4.88932 13.8674 4.44488C13.9562 4.17821 14.0451 4.00043 14.0451 3.73377C14.134 2.84488 13.5118 2.22266 12.6229 2.22266C11.2007 2.22266 9.77847 2.22266 8.35625 2.22266C8.00069 2.31155 7.55625 2.31155 7.20069 2.40043C6.48958 2.48932 5.86736 2.75599 5.24514 3.02266C5.15625 3.02266 5.15625 3.11155 5.15625 3.20043C5.15625 5.51154 5.15625 7.82266 5.15625 10.0449C5.15625 10.1338 5.15625 10.1338 5.24514 10.2227C5.60069 10.6671 6.04514 11.1115 6.48958 11.556C6.66736 11.8227 6.93403 12.0893 7.11181 12.2671C7.64514 12.8893 7.9118 13.6893 7.9118 14.4893C7.9118 14.5782 7.9118 14.756 7.9118 14.8449C7.9118 15.2004 8.17847 15.4671 8.53403 15.4671C9.24514 15.4671 9.77847 15.2004 10.2229 14.6671C10.934 13.956 11.0229 12.9782 10.7562 12.0893C10.6674 11.6449 10.4896 11.2893 10.4007 10.8449C10.4896 10.8449 10.4896 10.8449 10.5785 10.8449C11.5562 10.8449 12.534 10.8449 13.5118 10.8449C13.7785 10.8449 14.0451 10.756 14.3118 10.6671C14.4896 10.5782 14.6674 10.4004 14.6674 10.3115C14.6674 10.2227 15.0229 9.77821 14.934 9.24488Z" fill="#98969D"/>
<path d="M1.51172 9.95681V3.29015C1.51172 3.02348 1.6895 2.8457 1.95616 2.8457H4.26727C4.53394 2.8457 4.71172 3.02348 4.71172 3.29015V9.95681C4.71172 10.2235 4.53394 10.4013 4.26727 10.4013H2.04505C1.77839 10.4013 1.51172 10.2235 1.51172 9.95681Z" fill="#98969D"/>
</svg>
