<svg width="24" height="17" viewBox="0 0 24 17" fill="none" xmlns="http://www.w3.org/2000/svg">
<path d="M15.4503 16.0002C19.5887 16.0002 22.9436 12.6454 22.9436 8.50696C22.9436 4.36853 19.5887 1.01367 15.4503 1.01367C11.3119 1.01367 7.95703 4.36853 7.95703 8.50696C7.95703 12.6454 11.3119 16.0002 15.4503 16.0002Z" stroke="#CB1B5B" stroke-miterlimit="10" stroke-linecap="round" stroke-linejoin="round"/>
<path d="M15.4492 8.50781C16.6041 8.50781 17.7455 8.50781 18.9004 8.50781" stroke="#CB1B5B" stroke-miterlimit="10" stroke-linecap="round" stroke-linejoin="round"/>
<path d="M15.4912 8.50692C14.4975 7.16404 13.5037 5.80773 12.5234 4.46484" stroke="#CB1B5B" stroke-miterlimit="10" stroke-linecap="round" stroke-linejoin="round"/>
<path d="M15.4492 1C15.4492 1.56401 15.4492 2.14145 15.4492 2.70546" stroke="#CB1B5B" stroke-miterlimit="10" stroke-linecap="round" stroke-linejoin="round"/>
<path d="M15.4492 14.2949C15.4492 14.8589 15.4492 15.4364 15.4492 16.0004" stroke="#CB1B5B" stroke-miterlimit="10" stroke-linecap="round" stroke-linejoin="round"/>
<path d="M22.9437 8.50781C22.3797 8.50781 21.8023 8.50781 21.2383 8.50781" stroke="#CB1B5B" stroke-miterlimit="10" stroke-linecap="round" stroke-linejoin="round"/>
<path d="M9.66249 8.50781C9.09848 8.50781 8.52104 8.50781 7.95703 8.50781" stroke="#CB1B5B" stroke-miterlimit="10" stroke-linecap="round" stroke-linejoin="round"/>
<path d="M5.02734 2.58594C6.92081 2.58594 8.81427 2.58594 10.7077 2.58594" stroke="#CB1B5B" stroke-miterlimit="10" stroke-linecap="round" stroke-linejoin="round"/>
<path d="M2.00781 5.33594C4.19671 5.33594 6.38561 5.33594 8.56108 5.33594" stroke="#CB1B5B" stroke-miterlimit="10" stroke-linecap="round" stroke-linejoin="round"/>
<path d="M1 8.48047C3.1889 8.48047 5.3778 8.48047 7.55327 8.48047" stroke="#CB1B5B" stroke-miterlimit="10" stroke-linecap="round" stroke-linejoin="round"/>
<path d="M2.00781 11.6758C4.19671 11.6758 6.38561 11.6758 8.56108 11.6758" stroke="#CB1B5B" stroke-miterlimit="10" stroke-linecap="round" stroke-linejoin="round"/>
<path d="M5.02734 14.8047C7.09538 14.8047 9.16342 14.8047 11.2315 14.8047" stroke="#CB1B5B" stroke-miterlimit="10" stroke-linecap="round" stroke-linejoin="round"/>
</svg>
