<svg width="21" height="17" viewBox="0 0 21 17" fill="none" xmlns="http://www.w3.org/2000/svg">
<path fill-rule="evenodd" clip-rule="evenodd" d="M6.45126 12.972C4.28161 12.9005 2.93494 11.4106 2.57334 10.2067C3.17186 10.314 3.77038 10.2902 4.35643 10.159C4.3689 10.159 4.38137 10.1471 4.41878 10.1352C3.24667 9.87298 2.33642 9.27701 1.71296 8.31154C1.30147 7.66789 1.10197 6.96465 1.10197 6.18989C1.68802 6.48787 2.29901 6.65475 2.95988 6.66667C2.07456 6.05878 1.48851 5.2721 1.2516 4.24703C1.01468 3.23388 1.16431 2.26842 1.70049 1.36254C3.95742 3.90137 6.81287 5.29594 10.2918 5.52241C10.2668 5.36745 10.2419 5.22442 10.2294 5.08139C10.1172 4.13976 10.3042 3.26964 10.8404 2.48296C11.5013 1.49366 12.449 0.873848 13.6585 0.683138C15.055 0.46859 16.277 0.850009 17.2995 1.79164C17.3743 1.85124 17.4242 1.87508 17.5239 1.85124C18.3843 1.67245 19.1823 1.37446 19.9429 0.957284C19.9554 0.945365 19.9804 0.933445 19.9928 0.933445C19.9928 0.933445 20.0053 0.933445 20.0178 0.933445C19.6936 1.86316 19.0826 2.57832 18.2347 3.10277C19.0452 3.01934 19.8058 2.81671 20.5539 2.5068C20.5664 2.51872 20.5664 2.51872 20.5664 2.53064C20.4043 2.73327 20.2547 2.9359 20.0926 3.12661C19.6562 3.65106 19.1449 4.104 18.5838 4.49734C18.5339 4.5331 18.509 4.56885 18.5215 4.61653C18.5464 5.2125 18.5215 5.79655 18.4466 6.3806C18.2845 7.62022 17.9229 8.80023 17.3743 9.92066C16.8007 11.0888 16.065 12.1377 15.1174 13.0555C13.5338 14.6288 11.6135 15.63 9.39399 16.1068C8.63337 16.2618 7.86028 16.3452 7.07472 16.369C4.66816 16.4406 2.44864 15.8684 0.416162 14.6646C0.391224 14.6526 0.366283 14.6288 0.316406 14.605C1.7753 14.7599 3.14692 14.5811 4.48112 14.0567C5.16693 13.7945 5.8278 13.4369 6.45126 12.972Z" fill="white"/>
</svg>
