<svg width="24" height="24" viewBox="0 0 24 24" fill="none" xmlns="http://www.w3.org/2000/svg">
<path d="M12.0003 22.9326C10.0003 22.9326 7.86693 22.9326 5.86693 22.9326C4.00026 22.9326 2.53359 22.1326 1.60026 20.5326C1.20026 19.866 0.933594 19.066 0.933594 18.266C0.933594 16.9326 0.933594 15.466 0.933594 14.1326C0.933594 13.5993 1.20026 13.1993 1.60026 13.066C2.00026 12.9326 2.53359 13.066 2.66693 13.466C2.80026 13.5993 2.80026 13.866 2.80026 14.1326C2.80026 15.466 2.80026 16.7993 2.80026 18.1326C2.80026 19.7326 4.00026 21.066 5.73359 21.066C9.86693 21.066 13.8669 21.066 18.0003 21.066C19.7336 21.066 20.9336 19.866 20.9336 18.1326C20.9336 16.7993 20.9336 15.466 20.9336 13.9993C20.9336 13.5993 21.2003 13.1993 21.6003 13.066C22.0003 12.9326 22.4003 13.066 22.6669 13.3326C22.8003 13.466 22.9336 13.7326 22.9336 13.866C22.9336 15.466 22.9336 16.9326 22.9336 18.5326C22.8003 20.666 21.0669 22.3993 19.0669 22.7993C18.6669 22.7993 18.4003 22.9326 18.0003 22.9326C16.0003 22.9326 14.0003 22.9326 12.0003 22.9326Z" fill="#CB1B5B"/>
<path d="M10.933 4.40026C10.933 4.53359 10.7997 4.53359 10.7997 4.66693C9.46632 6.00026 8.13299 7.33359 6.79966 8.66693C6.53299 8.93359 6.13299 9.06693 5.73299 8.93359C5.06632 8.80026 4.79966 7.86693 5.19966 7.33359C5.33299 7.33359 5.33299 7.20026 5.33299 7.20026C7.33299 5.20026 9.19966 3.33359 11.1997 1.33359C11.733 0.80026 12.2663 0.80026 12.7997 1.33359C14.7997 3.33359 16.6663 5.20026 18.6663 7.20026C18.933 7.46693 19.0663 7.86693 18.933 8.13359C18.7997 8.93359 17.8663 9.20026 17.333 8.66693C16.933 8.26693 16.533 7.86693 15.9997 7.33359C15.0663 6.40026 14.133 5.46693 13.1997 4.53359C13.1997 4.53359 13.0663 4.40026 13.0663 4.26693C13.0663 4.26693 13.0663 4.26693 12.933 4.26693C12.933 4.40026 12.933 4.40026 12.933 4.53359C12.933 8.53359 12.933 12.6669 12.933 16.6669C12.933 17.2003 12.6663 17.6003 12.133 17.7336C11.5997 17.8669 10.933 17.4669 10.933 16.8003C10.933 16.6669 10.933 16.5336 10.933 16.5336C10.933 12.5336 10.933 8.53359 10.933 4.53359C10.933 4.66693 10.933 4.53359 10.933 4.40026Z" fill="#CB1B5B"/>
</svg>
