<svg width="45" height="50" viewBox="0 0 45 50" fill="none" xmlns="http://www.w3.org/2000/svg">
<path d="M44.0914 4.78978C31.5806 -1.59654 13.4195 -1.59665 0.908556 4.78978C0.350582 5.07465 0 5.64367 0 6.26476V24.7035C0 30.5456 2.38138 36.421 6.70544 41.2475C10.8875 45.9153 16.5496 49.0982 22.2402 49.98C22.3263 49.9933 22.4131 50 22.5 50C22.5869 50 22.6737 49.9934 22.7598 49.98C28.4504 49.0982 34.1125 45.9152 38.2946 41.2475C42.6186 36.4211 45 30.5456 45 24.7035V6.26465C45 5.64367 44.6494 5.07465 44.0914 4.78978ZM41.6431 24.7035C41.6431 34.9124 32.9037 44.9044 22.5 46.6582C12.0963 44.9044 3.35686 34.9123 3.35686 24.7035V7.29292C14.6268 1.95727 30.3731 1.95727 41.6431 7.29292V24.7035ZM19.3333 27.4445L30.8135 16.0916C31.4689 15.4434 32.5316 15.4433 33.1871 16.0916C33.8425 16.7398 33.8425 17.7908 33.1871 18.4389L20.5202 30.9655C20.1925 31.2896 19.7629 31.4516 19.3334 31.4516C18.904 31.4516 18.4744 31.2896 18.1467 30.9655L11.8132 24.7022C11.1577 24.054 11.1577 23.0031 11.8132 22.3549C12.4688 21.7066 13.5314 21.7066 14.1868 22.3549L19.3333 27.4445Z" fill="#CB1B5B"/>
</svg>
