<svg width="150" height="150" viewBox="0 0 150 150" fill="none" xmlns="http://www.w3.org/2000/svg">
<circle cx="75" cy="75" r="75" fill="white"/>
<path d="M100.91 50.7477C85.8968 43.0841 64.1034 43.084 49.0903 50.7477C48.4207 51.0896 48 51.7724 48 52.5177V74.6442C48 81.6547 50.8577 88.7052 56.0465 94.497C61.065 100.098 67.8596 103.918 74.6882 104.976C74.7915 104.992 74.8958 105 75 105C75.1042 105 75.2085 104.992 75.3118 104.976C82.1404 103.918 88.935 100.098 93.9535 94.497C99.1423 88.7053 102 81.6547 102 74.6442V52.5176C102 51.7724 101.579 51.0896 100.91 50.7477ZM97.9718 74.6442C97.9718 86.8949 87.4844 98.8853 75 100.99C62.5156 98.8853 52.0282 86.8947 52.0282 74.6442V53.7515C65.5522 47.3487 84.4477 47.3487 97.9718 53.7515V74.6442ZM71.2 77.9334L84.9762 64.3099C85.7627 63.5321 87.0379 63.532 87.8245 64.3099C88.611 65.0877 88.611 66.3489 87.8245 67.1267L72.6242 82.1586C72.231 82.5475 71.7155 82.742 71.2001 82.742C70.6848 82.742 70.1693 82.5475 69.776 82.1586L62.1759 74.6427C61.3892 73.8647 61.3892 72.6037 62.1759 71.8259C62.9625 71.048 64.2377 71.048 65.0242 71.8259L71.2 77.9334Z" fill="#CB1B5B"/>
</svg>
