<svg width="48" height="48" viewBox="0 0 48 48" fill="none" xmlns="http://www.w3.org/2000/svg">
<path d="M42.4016 22.4003C42.4016 24.5336 42.1349 32.0003 36.5349 38.6669C32.0016 44.0003 26.6682 46.1336 24.2682 46.6669C24.0016 46.6669 23.7349 46.6669 23.7349 46.6669C21.3349 45.8669 16.0016 44.0003 11.4682 38.6669C5.86823 32.0003 5.60156 24.8003 5.60156 22.4003C5.60156 18.6669 5.60156 14.6669 5.60156 10.9336C5.60156 10.4003 6.1349 9.86693 6.66823 9.86693C8.5349 9.86693 11.2016 9.33359 14.1349 8.26693C18.6682 6.40026 21.6016 3.46693 23.2016 1.33359C23.7349 0.80026 24.5349 0.80026 25.0682 1.33359C26.6682 3.20026 29.6016 6.13359 34.1349 8.00026C37.0682 9.33359 39.7349 9.60026 41.6016 9.60026C42.1349 9.60026 42.6682 10.1336 42.6682 10.6669C42.4016 14.9336 42.4016 18.6669 42.4016 22.4003Z" fill="#00A861"/>
<path d="M39.4656 22.6669C39.4656 24.5336 39.199 30.6669 34.399 36.2669C30.6656 40.8003 26.1323 42.4003 24.2656 42.9336C23.999 42.9336 23.7323 42.9336 23.7323 42.9336C21.599 42.6669 17.0656 40.8003 13.3323 36.5336C8.53229 30.9336 8.26562 24.5336 8.26562 22.9336C8.26562 19.7336 8.26562 16.5336 8.26562 13.3336C8.26562 12.8003 8.79896 12.2669 9.33229 12.2669C11.199 12.0003 13.3323 11.7336 15.7323 10.6669C19.4656 9.06693 21.599 6.93359 23.199 5.33359C23.7323 4.80026 24.5323 4.80026 25.0656 5.33359C26.399 6.93359 28.799 9.33359 32.5323 10.9336C34.9323 12.0003 37.0656 12.2669 38.6656 12.2669C39.199 12.2669 39.7323 12.8003 39.7323 13.3336C39.4656 16.2669 39.4656 19.4669 39.4656 22.6669Z" fill="#00DC7F"/>
<path d="M21.6026 30.9334L15.7359 25.3334C15.2026 24.8001 15.2026 23.7334 15.7359 23.2001C16.2693 22.6667 17.3359 22.6667 17.8693 23.2001L21.6026 26.9334L30.4026 18.1334C30.9359 17.6001 32.0026 17.6001 32.5359 18.1334C33.0693 18.6667 33.0693 19.7334 32.5359 20.2667L21.6026 30.9334Z" fill="white"/>
</svg>
