<svg width="162" height="32" viewBox="0 0 162 32" fill="none" xmlns="http://www.w3.org/2000/svg">
<path d="M51.9104 6.83282V14.6926H42.1197V6.83282H38.6094V25.8934H42.1197V17.7212H51.9104V25.8934H55.4447V6.83282H51.9104ZM73.7605 18.7066C73.7605 14.1638 70.68 11.1833 66.4771 11.1833C62.1788 11.1833 59.0028 14.284 59.0028 18.6345C59.0028 22.961 62.131 26.0857 66.9786 26.0857C69.4621 26.0857 71.4919 25.2685 72.8053 23.7061L70.9904 21.615C69.9636 22.6726 68.6741 23.2014 67.0741 23.2014C64.5429 23.2014 62.7997 21.8313 62.3937 19.7161H73.7127C73.7366 19.3796 73.7605 18.971 73.7605 18.7066ZM66.4771 13.9235C68.6741 13.9235 70.274 15.3656 70.5606 17.4568H62.3459C62.6803 15.3175 64.2802 13.9235 66.4771 13.9235ZM82.1184 11.1833C79.8021 11.1833 77.5574 11.7842 76.0052 12.986L77.3425 15.4618C78.4171 14.5724 80.0887 14.0196 81.7125 14.0196C84.1243 14.0196 85.3183 15.1974 85.3183 17.1924V17.4087H81.5931C77.1992 17.4087 75.5754 19.3075 75.5754 21.7352C75.5754 24.259 77.6529 26.0857 80.9722 26.0857C83.1214 26.0857 84.6975 25.3646 85.5094 24.1147V25.8934H88.7093V17.3606C88.7093 13.1783 86.2974 11.1833 82.1184 11.1833ZM81.6647 23.61C79.9454 23.61 78.9185 22.8168 78.9185 21.591C78.9185 20.5334 79.5394 19.6681 81.8319 19.6681H85.3183V21.3506C84.7452 22.8408 83.3124 23.61 81.6647 23.61ZM93.0315 25.8934H96.3986V5.70312H93.0315V25.8934ZM109.27 22.6726C108.768 23.0812 108.076 23.2735 107.383 23.2735C106.094 23.2735 105.377 22.5043 105.377 21.1102V14.1879H109.246V11.4718H105.377V8.1548H102.01V11.4718H99.6224V14.1879H102.01V21.1823C102.01 24.4032 103.825 26.0857 106.977 26.0857C108.195 26.0857 109.413 25.7492 110.225 25.1002L109.27 22.6726ZM121.21 11.1833C119.204 11.1833 117.508 11.8564 116.386 13.0341V5.70312H113.019V25.8934H116.386V18.5384C116.386 15.63 118.01 14.1638 120.422 14.1638C122.571 14.1638 123.86 15.4137 123.86 17.9855V25.8934H127.227V17.5529C127.227 13.1783 124.672 11.1833 121.21 11.1833ZM137.735 26.1578C142.917 26.1578 145.376 23.5619 145.376 20.4853C145.376 13.5148 134.153 16.1588 134.153 12.0967C134.153 10.6546 135.347 9.50082 138.26 9.50082C139.908 9.50082 141.794 10.0056 143.49 10.9911L144.588 8.25095C142.94 7.16932 140.576 6.56842 138.284 6.56842C133.102 6.56842 130.666 9.18835 130.666 12.265C130.666 19.3316 141.914 16.6395 141.914 20.7497C141.914 22.1678 140.672 23.2254 137.735 23.2254C135.394 23.2254 132.982 22.3601 131.478 21.1343L130.26 23.8744C131.836 25.2444 134.773 26.1578 137.735 26.1578ZM158.558 11.3516L153.973 22.0957L149.436 11.3516H145.925L152.23 25.9415L151.967 26.5183C151.322 27.9605 150.63 28.5374 149.436 28.5374C148.528 28.5374 147.597 28.1528 146.952 27.5279L145.591 30.0276C146.522 30.8689 148.027 31.3736 149.46 31.3736C151.871 31.3736 153.71 30.3641 155.024 27.0712L161.805 11.3516H158.558Z" fill="white"/>
<path d="M30.8986 13.6118C30.6359 13.3474 30.3971 13.107 30.1583 12.9388C29.9195 12.7465 29.6807 12.5782 29.418 12.458C29.1792 12.3379 28.9166 12.2177 28.6061 12.1456C28.439 12.0975 28.2718 12.0975 28.1285 12.0494C27.9375 12.0014 27.7703 11.9773 27.5793 11.9292L27.5554 11.9052C27.4599 11.8812 27.4121 11.785 27.436 11.6889C27.436 11.6408 27.4838 11.5927 27.5077 11.5687C27.6748 11.4726 27.8659 11.3764 28.0569 11.3043C28.2479 11.2562 28.439 11.1841 28.6539 11.1841C29.0837 11.1361 29.5374 11.2322 29.9195 11.4245C30.3255 11.5927 30.6837 11.9292 30.8986 12.2898C31.1374 12.6503 31.2568 13.0589 31.2329 13.5156C31.2329 13.6118 31.1374 13.6839 31.0419 13.6839C30.9941 13.6839 30.9464 13.6598 30.9225 13.6358L30.8986 13.6118Z" fill="white"/>
<path fill-rule="evenodd" clip-rule="evenodd" d="M22.5076 0.802169C20.9554 0.874277 19.7614 2.2203 19.8569 3.7586L21.027 26.4246C21.1225 27.9629 22.4359 29.1647 23.9881 29.0926C25.5164 29.0205 26.7104 27.6745 26.6388 26.1121L25.4687 3.47017C25.3732 1.93186 24.0598 0.706025 22.5076 0.802169Z" fill="white"/>
<path fill-rule="evenodd" clip-rule="evenodd" d="M8.63774 7.62808C7.08555 7.55597 5.74828 8.75778 5.67664 10.3201L4.86473 26.1358C4.76921 27.6741 5.9632 29.0202 7.51539 29.0923C9.0437 29.1884 10.381 27.9866 10.4526 26.4243L11.2884 10.6086C11.36 9.04621 10.1661 7.72423 8.63774 7.62808Z" fill="white"/>
<path d="M20.6013 18.0586C21.6282 17.6259 22.655 17.1212 23.6102 16.5443C24.4699 16.0155 25.2818 15.4146 26.0459 14.7656L26.2131 17.8422C25.9026 18.1547 25.5683 18.4672 25.234 18.7556C23.8967 19.8853 22.3923 20.7987 20.7685 21.4476L20.6013 18.0586Z" fill="#E9E9E9"/>
<path d="M5.2839 17.8203C6.26298 18.253 7.28981 18.6135 8.31664 18.8779C9.15244 19.0942 9.98823 19.2384 10.824 19.3346L10.6569 22.4593C9.55839 22.2429 8.45992 21.9064 7.43309 21.4738C6.64505 21.1373 5.8809 20.7287 5.14062 20.272L5.2839 17.8203Z" fill="#E9E9E9"/>
<path d="M0.946493 16.1599C3.23896 17.9866 5.74634 19.1884 8.32536 19.8374C10.9283 20.5104 13.6028 20.6065 16.2057 20.222C18.8086 19.8134 21.3399 18.924 23.6085 17.5059C25.9009 16.1118 27.9068 14.213 29.5784 11.7853C29.6501 11.6892 29.7695 11.6651 29.865 11.7372C29.9366 11.7853 29.9844 11.8815 29.9605 11.9536C29.4113 14.934 27.5964 17.6982 25.2323 19.7172C22.8204 21.7603 19.8116 23.0823 16.7072 23.563C13.6028 24.0437 10.3313 23.6832 7.44181 22.4573C4.57623 21.2315 2.04497 19.1163 0.636056 16.4483C0.564416 16.3281 0.612176 16.2079 0.707695 16.1358C0.803214 16.1118 0.874854 16.1118 0.946493 16.1599Z" fill="white"/>
</svg>
