<svg width="401" height="422" viewBox="0 0 401 422" fill="none" xmlns="http://www.w3.org/2000/svg">
<g filter="url(#filter0_d_10025_77054)">
<path d="M4 20.2667C4 9.07368 13.0737 0 24.2667 0H376.733C387.926 0 397 9.0737 397 20.2667V288.8C397 299.956 387.956 309 376.8 309H24.2C13.0439 309 4 299.956 4 288.8V20.2667Z" fill="#FCFCFC"/>
<path d="M4.5 20.2667C4.5 9.34983 13.3498 0.5 24.2667 0.5H376.733C387.65 0.5 396.5 9.34984 396.5 20.2667V288.8C396.5 299.68 387.68 308.5 376.8 308.5H24.2C13.32 308.5 4.5 299.68 4.5 288.8V20.2667Z" stroke="#FAFAFA"/>
</g>
<g filter="url(#filter1_d_10025_77054)">
<path d="M4 346.267C4 335.074 13.0737 326 24.2667 326H376.733C387.926 326 397 335.074 397 346.267V393.8C397 404.956 387.956 414 376.8 414H24.2C13.0439 414 4 404.956 4 393.8V346.267Z" fill="#FCFCFC"/>
<path d="M4.5 346.267C4.5 335.35 13.3498 326.5 24.2667 326.5H376.733C387.65 326.5 396.5 335.35 396.5 346.267V393.8C396.5 404.68 387.68 413.5 376.8 413.5H24.2C13.32 413.5 4.5 404.68 4.5 393.8V346.267Z" stroke="#FAFAFA"/>
</g>
<path d="M39.0064 358V350.627H36.1312V349.589H43.1222V350.627H40.2471V358H39.0064ZM43.4727 353.789C43.4727 352.906 43.6278 352.142 43.938 351.498C44.2482 350.854 44.6976 350.357 45.2861 350.007C45.8826 349.657 46.5905 349.482 47.4096 349.482C48.2209 349.482 48.9208 349.657 49.5093 350.007C50.0979 350.357 50.5512 350.854 50.8693 351.498C51.1954 352.142 51.3585 352.902 51.3585 353.777C51.3585 354.66 51.1954 355.427 50.8693 356.079C50.5512 356.723 50.0939 357.225 49.4974 357.582C48.9089 357.932 48.2129 358.107 47.4096 358.107C46.5905 358.107 45.8866 357.932 45.298 357.582C44.7095 357.225 44.2562 356.723 43.938 356.079C43.6278 355.427 43.4727 354.664 43.4727 353.789ZM44.7731 353.789C44.7731 354.807 44.9958 355.602 45.4412 356.175C45.8866 356.747 46.5427 357.034 47.4096 357.034C48.2527 357.034 48.9049 356.751 49.3662 356.187C49.8275 355.614 50.0581 354.815 50.0581 353.789C50.0581 352.763 49.8275 351.967 49.3662 351.403C48.9128 350.838 48.2607 350.556 47.4096 350.556C46.5427 350.556 45.8866 350.838 45.4412 351.403C44.9958 351.967 44.7731 352.763 44.7731 353.789ZM54.548 358V350.627H51.6729V349.589H58.6638V350.627H55.7887V358H54.548ZM58.0337 358L61.7797 349.589H62.8415L66.6471 358H65.3706L64.3327 355.614L64.8576 355.948H59.7635L60.3242 355.614L59.2863 358H58.0337ZM62.2927 350.949L60.4793 355.232L60.193 354.958H64.4282L64.1896 355.232L62.3404 350.949H62.2927ZM67.7589 358V349.589H68.9996V356.938H73.1274V358H67.7589ZM77.5219 358V349.589H81.089C81.9877 349.589 82.6757 349.808 83.1529 350.245C83.638 350.675 83.8806 351.271 83.8806 352.035C83.8806 352.799 83.638 353.399 83.1529 353.836C82.6757 354.274 81.9877 354.493 81.089 354.493H78.7626V358H77.5219ZM78.7626 353.502H80.9577C81.5224 353.502 81.9479 353.375 82.2342 353.121C82.5206 352.866 82.6637 352.504 82.6637 352.035C82.6637 351.574 82.5206 351.216 82.2342 350.961C81.9479 350.707 81.5224 350.58 80.9577 350.58H78.7626V353.502ZM83.6412 358L87.3873 349.589H88.449L92.2547 358H90.9782L89.9403 355.614L90.4652 355.948H85.3711L85.9318 355.614L84.8939 358H83.6412ZM87.9003 350.949L86.0869 355.232L85.8006 354.958H90.0357L89.7971 355.232L87.948 350.949H87.9003ZM94.6497 358V354.051L94.9241 354.839L91.3809 349.589H92.8125L95.4491 353.61H95.1508L97.7873 349.589H99.1712L95.6399 354.839L95.8905 354.051V358H94.6497ZM98.2974 358L102.043 349.589H103.105L106.911 358H105.634L104.596 355.614L105.121 355.948H100.027L100.588 355.614L99.5501 358H98.2974ZM102.556 350.949L100.743 355.232L100.457 354.958H104.692L104.453 355.232L102.604 350.949H102.556ZM108.023 358V349.589H111.53C112.437 349.589 113.133 349.78 113.618 350.162C114.111 350.544 114.357 351.081 114.357 351.773C114.357 352.29 114.202 352.723 113.892 353.073C113.582 353.423 113.156 353.657 112.616 353.777V353.598C113.236 353.677 113.717 353.896 114.059 354.254C114.401 354.612 114.572 355.085 114.572 355.674C114.572 356.421 114.318 356.998 113.809 357.403C113.308 357.801 112.6 358 111.685 358H108.023ZM109.228 357.034H111.554C112.119 357.034 112.56 356.926 112.878 356.712C113.204 356.497 113.367 356.135 113.367 355.626C113.367 355.117 113.204 354.755 112.878 354.54C112.56 354.326 112.119 354.218 111.554 354.218H109.228V357.034ZM109.228 353.264H111.339C111.944 353.264 112.397 353.148 112.699 352.918C113.001 352.687 113.153 352.349 113.153 351.904C113.153 351.458 113.001 351.12 112.699 350.89C112.397 350.659 111.944 350.544 111.339 350.544H109.228V353.264ZM116.19 358V349.589H117.43V356.938H121.558V358H116.19ZM122.772 358V349.589H128.284V350.58H123.977V353.228H128.009V354.23H123.977V356.998H128.284V358H122.772Z" fill="black"/>
<path d="M43.434 390L40.752 385.968C40.596 385.716 40.428 385.512 40.248 385.356C40.08 385.2 39.888 385.092 39.672 385.032C39.468 384.96 39.222 384.924 38.934 384.924H36.378V383.34H39.906C40.758 383.34 41.4 383.166 41.832 382.818C42.264 382.458 42.522 381.948 42.606 381.288L42.912 381.468H36.378V380.136H42.912L42.57 380.37C42.474 379.806 42.216 379.38 41.796 379.092C41.376 378.792 40.776 378.642 39.996 378.642H36.378V377.31H46.44V378.642H43.218L43.506 378.39C43.89 378.606 44.19 378.894 44.406 379.254C44.622 379.602 44.754 380.01 44.802 380.478L44.388 380.136H46.44V381.468H44.442L44.838 381.054C44.85 381.822 44.682 382.488 44.334 383.052C43.986 383.616 43.488 384.054 42.84 384.366C42.204 384.666 41.436 384.816 40.536 384.816V384.636H41.04C41.58 384.636 42.042 384.744 42.426 384.96C42.822 385.164 43.194 385.53 43.542 386.058L46.206 390H43.434ZM56.9344 390.18C56.0584 390.18 55.2184 390.054 54.4144 389.802C53.6104 389.538 52.9504 389.178 52.4344 388.722L53.1904 386.976C53.7544 387.408 54.3364 387.726 54.9364 387.93C55.5484 388.134 56.1904 388.236 56.8624 388.236C57.6784 388.236 58.2964 388.074 58.7164 387.75C59.1364 387.426 59.3464 386.952 59.3464 386.328C59.3464 385.728 59.1364 385.278 58.7164 384.978C58.3084 384.666 57.7084 384.51 56.9164 384.51H54.8644V382.656H56.7184C57.4024 382.656 57.9484 382.488 58.3564 382.152C58.7644 381.816 58.9684 381.354 58.9684 380.766C58.9684 380.214 58.7764 379.794 58.3924 379.506C58.0204 379.218 57.4804 379.074 56.7724 379.074C55.5004 379.074 54.3784 379.506 53.4064 380.37L52.6504 378.642C53.1664 378.162 53.8024 377.79 54.5584 377.526C55.3264 377.262 56.1304 377.13 56.9704 377.13C58.2904 377.13 59.3224 377.43 60.0664 378.03C60.8224 378.618 61.2004 379.44 61.2004 380.496C61.2004 381.252 60.9844 381.906 60.5524 382.458C60.1324 382.998 59.5504 383.358 58.8064 383.538V383.322C59.6824 383.466 60.3604 383.826 60.8404 384.402C61.3324 384.966 61.5784 385.674 61.5784 386.526C61.5784 387.654 61.1644 388.548 60.3364 389.208C59.5084 389.856 58.3744 390.18 56.9344 390.18ZM66.9714 390.18C66.2874 390.18 65.6094 390.054 64.9374 389.802C64.2654 389.538 63.6894 389.184 63.2094 388.74L63.9834 387.012C64.4274 387.42 64.9074 387.726 65.4234 387.93C65.9394 388.134 66.4614 388.236 66.9894 388.236C68.0574 388.236 68.8734 387.87 69.4374 387.138C70.0134 386.406 70.3014 385.314 70.3014 383.862V382.512H70.5174C70.4334 383.112 70.2294 383.634 69.9054 384.078C69.5814 384.522 69.1734 384.864 68.6814 385.104C68.2014 385.332 67.6614 385.446 67.0614 385.446C66.3294 385.446 65.6694 385.272 65.0814 384.924C64.5054 384.576 64.0494 384.096 63.7134 383.484C63.3894 382.86 63.2274 382.158 63.2274 381.378C63.2274 380.55 63.4074 379.818 63.7674 379.182C64.1394 378.546 64.6434 378.048 65.2794 377.688C65.9154 377.316 66.6474 377.13 67.4754 377.13C69.0834 377.13 70.3194 377.682 71.1834 378.786C72.0594 379.878 72.4974 381.426 72.4974 383.43C72.4974 384.858 72.2754 386.076 71.8314 387.084C71.3994 388.092 70.7694 388.86 69.9414 389.388C69.1134 389.916 68.1234 390.18 66.9714 390.18ZM67.6194 383.61C68.0634 383.61 68.4534 383.514 68.7894 383.322C69.1254 383.13 69.3894 382.86 69.5814 382.512C69.7734 382.152 69.8694 381.744 69.8694 381.288C69.8694 380.82 69.7734 380.412 69.5814 380.064C69.3894 379.716 69.1254 379.446 68.7894 379.254C68.4534 379.05 68.0634 378.948 67.6194 378.948C67.1754 378.948 66.7854 379.05 66.4494 379.254C66.1134 379.446 65.8494 379.716 65.6574 380.064C65.4774 380.412 65.3874 380.82 65.3874 381.288C65.3874 381.744 65.4774 382.152 65.6574 382.512C65.8494 382.86 66.1134 383.13 66.4494 383.322C66.7854 383.514 67.1754 383.61 67.6194 383.61ZM77.7644 390.18C77.0804 390.18 76.4024 390.054 75.7304 389.802C75.0584 389.538 74.4824 389.184 74.0024 388.74L74.7764 387.012C75.2204 387.42 75.7004 387.726 76.2164 387.93C76.7324 388.134 77.2544 388.236 77.7824 388.236C78.8504 388.236 79.6664 387.87 80.2304 387.138C80.8064 386.406 81.0944 385.314 81.0944 383.862V382.512H81.3104C81.2264 383.112 81.0224 383.634 80.6984 384.078C80.3744 384.522 79.9664 384.864 79.4744 385.104C78.9944 385.332 78.4544 385.446 77.8544 385.446C77.1224 385.446 76.4624 385.272 75.8744 384.924C75.2984 384.576 74.8424 384.096 74.5064 383.484C74.1824 382.86 74.0204 382.158 74.0204 381.378C74.0204 380.55 74.2004 379.818 74.5604 379.182C74.9324 378.546 75.4364 378.048 76.0724 377.688C76.7084 377.316 77.4404 377.13 78.2684 377.13C79.8764 377.13 81.1124 377.682 81.9764 378.786C82.8524 379.878 83.2904 381.426 83.2904 383.43C83.2904 384.858 83.0684 386.076 82.6244 387.084C82.1924 388.092 81.5624 388.86 80.7344 389.388C79.9064 389.916 78.9164 390.18 77.7644 390.18ZM78.4124 383.61C78.8564 383.61 79.2464 383.514 79.5824 383.322C79.9184 383.13 80.1824 382.86 80.3744 382.512C80.5664 382.152 80.6624 381.744 80.6624 381.288C80.6624 380.82 80.5664 380.412 80.3744 380.064C80.1824 379.716 79.9184 379.446 79.5824 379.254C79.2464 379.05 78.8564 378.948 78.4124 378.948C77.9684 378.948 77.5784 379.05 77.2424 379.254C76.9064 379.446 76.6424 379.716 76.4504 380.064C76.2704 380.412 76.1804 380.82 76.1804 381.288C76.1804 381.744 76.2704 382.152 76.4504 382.512C76.6424 382.86 76.9064 383.13 77.2424 383.322C77.5784 383.514 77.9684 383.61 78.4124 383.61Z" fill="#CB1B5B"/>
<path d="M37.7729 55V38.9753H44.8874C46.6452 38.9753 47.9863 39.3996 48.9106 40.2482C49.835 41.0968 50.2972 42.2636 50.2972 43.7486C50.2972 45.2185 49.835 46.3853 48.9106 47.2491C47.9863 48.1128 46.6452 48.5447 44.8874 48.5447H40.7051V55H37.7729ZM40.7051 46.2262H44.5465C45.5163 46.2262 46.2437 46.0141 46.7286 45.5898C47.2135 45.1503 47.4559 44.5366 47.4559 43.7486C47.4559 42.9607 47.2135 42.3545 46.7286 41.9302C46.2437 41.4908 45.5163 41.2711 44.5465 41.2711H40.7051V46.2262ZM56.5838 55.2273C55.5837 55.2273 54.7048 54.9924 53.9471 54.5227C53.1894 54.0378 52.5985 53.3483 52.1742 52.4542C51.7499 51.5602 51.5377 50.4919 51.5377 49.2493C51.5377 48.0067 51.7499 46.946 52.1742 46.0671C52.5985 45.1731 53.1894 44.4912 53.9471 44.0214C54.7048 43.5365 55.5837 43.294 56.5838 43.294C57.5536 43.294 58.4022 43.5365 59.1296 44.0214C59.8721 44.4912 60.3645 45.1276 60.607 45.9307H60.357L60.607 43.5214H63.3346C63.2891 43.9911 63.2437 44.4684 63.1982 44.9533C63.1679 45.4382 63.1528 45.9156 63.1528 46.3853V55H60.3342L60.3115 52.6361H60.5843C60.3418 53.4241 59.8493 54.0529 59.1068 54.5227C58.3643 54.9924 57.5233 55.2273 56.5838 55.2273ZM57.3793 53.0452C58.2734 53.0452 58.9932 52.7346 59.5387 52.1133C60.0842 51.4768 60.357 50.5222 60.357 49.2493C60.357 47.9764 60.0842 47.0293 59.5387 46.4081C58.9932 45.7868 58.2734 45.4761 57.3793 45.4761C56.4853 45.4761 55.7655 45.7868 55.22 46.4081C54.6745 47.0293 54.4017 47.9764 54.4017 49.2493C54.4017 50.5222 54.6669 51.4768 55.1973 52.1133C55.7428 52.7346 56.4701 53.0452 57.3793 53.0452ZM71.1564 55.2273C69.7926 55.2273 68.7622 54.8712 68.0651 54.159C67.3681 53.4468 67.0195 52.3785 67.0195 50.9541V45.658H64.8147V43.5214H67.0195V40.5892L69.8608 39.8618V43.5214H72.9293V45.658H69.8608V50.7722C69.8608 51.5602 70.0123 52.1133 70.3154 52.4315C70.6184 52.7497 71.0352 52.9088 71.5655 52.9088C71.8534 52.9088 72.0959 52.8861 72.2929 52.8406C72.505 52.7952 72.7096 52.7346 72.9066 52.6588V54.9091C72.649 55.0152 72.3611 55.0909 72.0429 55.1364C71.7398 55.197 71.4443 55.2273 71.1564 55.2273ZM74.8592 55V43.5214H77.7005V55H74.8592ZM74.7001 41.362V38.5889H77.8596V41.362H74.7001ZM86.332 55.2273C84.4076 55.2273 82.8998 54.6969 81.8088 53.6362C80.7177 52.5755 80.1722 51.1207 80.1722 49.272C80.1722 48.0749 80.4071 47.0293 80.8768 46.1353C81.3466 45.2413 81.9982 44.5442 82.8316 44.0441C83.6802 43.5441 84.6652 43.294 85.7865 43.294C86.8927 43.294 87.8171 43.5289 88.5596 43.9987C89.3021 44.4684 89.8628 45.1276 90.2416 45.9762C90.6356 46.8248 90.8326 47.8173 90.8326 48.9538V49.7039H82.4679V48.2037H88.8096L88.4232 48.5219C88.4232 47.4612 88.1959 46.6505 87.7413 46.0898C87.3018 45.5292 86.6578 45.2488 85.8092 45.2488C84.8697 45.2488 84.1424 45.5822 83.6272 46.2489C83.1271 46.9157 82.8771 47.8476 82.8771 49.0447V49.3402C82.8771 50.5828 83.1801 51.5147 83.7863 52.136C84.4076 52.7422 85.2789 53.0452 86.4002 53.0452C87.0518 53.0452 87.6579 52.9619 88.2186 52.7952C88.7944 52.6133 89.34 52.3254 89.8552 51.9314L90.6962 53.8408C90.1507 54.2802 89.4991 54.6212 88.7414 54.8636C87.9837 55.1061 87.1806 55.2273 86.332 55.2273ZM93.2386 55V46.3853C93.2386 45.9156 93.2234 45.4382 93.1931 44.9533C93.1628 44.4684 93.1174 43.9911 93.0567 43.5214H95.8071L96.0344 45.7943H95.7616C96.1253 44.9912 96.6632 44.3775 97.3754 43.9532C98.0876 43.5138 98.9135 43.294 99.853 43.294C101.202 43.294 102.217 43.6729 102.899 44.4305C103.581 45.1882 103.922 46.3702 103.922 47.9764V55H101.08V48.1128C101.08 47.1885 100.899 46.5293 100.535 46.1353C100.186 45.7262 99.656 45.5216 98.9438 45.5216C98.0649 45.5216 97.3679 45.7943 96.8526 46.3399C96.3374 46.8854 96.0798 47.6127 96.0798 48.5219V55H93.2386ZM111.844 55.2273C110.48 55.2273 109.45 54.8712 108.753 54.159C108.056 53.4468 107.707 52.3785 107.707 50.9541V45.658H105.502V43.5214H107.707V40.5892L110.548 39.8618V43.5214H113.617V45.658H110.548V50.7722C110.548 51.5602 110.7 52.1133 111.003 52.4315C111.306 52.7497 111.723 52.9088 112.253 52.9088C112.541 52.9088 112.783 52.8861 112.98 52.8406C113.193 52.7952 113.397 52.7346 113.594 52.6588V54.9091C113.337 55.0152 113.049 55.0909 112.73 55.1364C112.427 55.197 112.132 55.2273 111.844 55.2273ZM122.012 55V38.9753H127.83C129.664 38.9753 131.21 39.2936 132.467 39.93C133.74 40.5513 134.702 41.4605 135.354 42.6576C136.006 43.8396 136.331 45.2791 136.331 46.9763C136.331 48.6583 136.006 50.0979 135.354 51.295C134.702 52.4921 133.74 53.4089 132.467 54.0453C131.21 54.6818 129.664 55 127.83 55H122.012ZM124.944 52.5679H127.649C129.588 52.5679 131.028 52.1057 131.967 51.1814C132.907 50.257 133.377 48.8553 133.377 46.9763C133.377 45.0821 132.907 43.6805 131.967 42.7713C131.028 41.8469 129.588 41.3847 127.649 41.3847H124.944V52.5679ZM144.644 55.2273C142.72 55.2273 141.212 54.6969 140.121 53.6362C139.03 52.5755 138.484 51.1207 138.484 49.272C138.484 48.0749 138.719 47.0293 139.189 46.1353C139.659 45.2413 140.31 44.5442 141.144 44.0441C141.992 43.5441 142.977 43.294 144.099 43.294C145.205 43.294 146.129 43.5289 146.872 43.9987C147.614 44.4684 148.175 45.1276 148.554 45.9762C148.948 46.8248 149.145 47.8173 149.145 48.9538V49.7039H140.78V48.2037H147.122L146.735 48.5219C146.735 47.4612 146.508 46.6505 146.054 46.0898C145.614 45.5292 144.97 45.2488 144.121 45.2488C143.182 45.2488 142.455 45.5822 141.939 46.2489C141.439 46.9157 141.189 47.8476 141.189 49.0447V49.3402C141.189 50.5828 141.492 51.5147 142.098 52.136C142.72 52.7422 143.591 53.0452 144.712 53.0452C145.364 53.0452 145.97 52.9619 146.531 52.7952C147.107 52.6133 147.652 52.3254 148.167 51.9314L149.008 53.8408C148.463 54.2802 147.811 54.6212 147.054 54.8636C146.296 55.1061 145.493 55.2273 144.644 55.2273ZM156.416 55.2273C155.052 55.2273 154.022 54.8712 153.325 54.159C152.628 53.4468 152.279 52.3785 152.279 50.9541V45.658H150.074V43.5214H152.279V40.5892L155.12 39.8618V43.5214H158.189V45.658H155.12V50.7722C155.12 51.5602 155.272 52.1133 155.575 52.4315C155.878 52.7497 156.295 52.9088 156.825 52.9088C157.113 52.9088 157.356 52.8861 157.553 52.8406C157.765 52.7952 157.969 52.7346 158.166 52.6588V54.9091C157.909 55.0152 157.621 55.0909 157.303 55.1364C156.999 55.197 156.704 55.2273 156.416 55.2273ZM164.551 55.2273C163.551 55.2273 162.672 54.9924 161.915 54.5227C161.157 54.0378 160.566 53.3483 160.142 52.4542C159.717 51.5602 159.505 50.4919 159.505 49.2493C159.505 48.0067 159.717 46.946 160.142 46.0671C160.566 45.1731 161.157 44.4912 161.915 44.0214C162.672 43.5365 163.551 43.294 164.551 43.294C165.521 43.294 166.37 43.5365 167.097 44.0214C167.84 44.4912 168.332 45.1276 168.575 45.9307H168.324L168.575 43.5214H171.302C171.257 43.9911 171.211 44.4684 171.166 44.9533C171.135 45.4382 171.12 45.9156 171.12 46.3853V55H168.302L168.279 52.6361H168.552C168.309 53.4241 167.817 54.0529 167.074 54.5227C166.332 54.9924 165.491 55.2273 164.551 55.2273ZM165.347 53.0452C166.241 53.0452 166.961 52.7346 167.506 52.1133C168.052 51.4768 168.324 50.5222 168.324 49.2493C168.324 47.9764 168.052 47.0293 167.506 46.4081C166.961 45.7868 166.241 45.4761 165.347 45.4761C164.453 45.4761 163.733 45.7868 163.187 46.4081C162.642 47.0293 162.369 47.9764 162.369 49.2493C162.369 50.5222 162.634 51.4768 163.165 52.1133C163.71 52.7346 164.438 53.0452 165.347 53.0452ZM174.214 55V43.5214H177.055V55H174.214ZM174.055 41.362V38.5889H177.215V41.362H174.055ZM180.141 55V38.2707H182.982V55H180.141ZM190.159 55.2273C189.174 55.2273 188.265 55.1137 187.431 54.8863C186.613 54.6439 185.924 54.3105 185.363 53.8862L186.158 51.9769C186.734 52.3709 187.371 52.674 188.068 52.8861C188.765 53.0983 189.469 53.2043 190.182 53.2043C190.939 53.2043 191.5 53.0755 191.864 52.8179C192.243 52.5603 192.432 52.2118 192.432 51.7723C192.432 51.4238 192.311 51.1511 192.068 50.9541C191.841 50.7419 191.47 50.5828 190.954 50.4767L188.681 50.0449C187.712 49.8327 186.969 49.469 186.454 48.9538C185.954 48.4386 185.704 47.7643 185.704 46.9308C185.704 46.2186 185.893 45.5898 186.272 45.0443C186.666 44.4987 187.219 44.0744 187.931 43.7714C188.659 43.4532 189.507 43.294 190.477 43.294C191.326 43.294 192.121 43.4077 192.864 43.635C193.621 43.8623 194.258 44.2032 194.773 44.6578L193.955 46.499C193.485 46.1201 192.947 45.8247 192.341 45.6125C191.735 45.4004 191.144 45.2943 190.568 45.2943C189.78 45.2943 189.204 45.4382 188.841 45.7262C188.477 45.9989 188.295 46.355 188.295 46.7945C188.295 47.1278 188.401 47.4082 188.613 47.6355C188.841 47.8476 189.189 48.0067 189.659 48.1128L191.932 48.5447C192.947 48.7417 193.712 49.0902 194.228 49.5903C194.758 50.0752 195.023 50.7419 195.023 51.5905C195.023 52.3482 194.819 52.9998 194.409 53.5453C194 54.0908 193.432 54.5075 192.705 54.7954C191.977 55.0833 191.129 55.2273 190.159 55.2273Z" fill="#181423"/>
<path d="M37.3222 239V227.769H38.9789V232.819H39.0108L44.1721 227.769H46.2271L40.1737 233.6L40.1896 232.819L46.6412 239H44.5226L39.0108 233.759H38.9789V239H37.3222ZM47.5084 239V232.899C47.5084 232.591 47.4925 232.278 47.4606 231.959C47.4394 231.63 47.4128 231.3 47.381 230.971H48.9421L49.0855 232.66H48.8943C49.1386 232.065 49.5156 231.614 50.0254 231.306C50.5351 230.987 51.1245 230.828 51.7936 230.828C52.7388 230.828 53.4503 231.088 53.9282 231.608C54.4167 232.129 54.661 232.936 54.661 234.03V239H53.0521V234.125C53.0521 233.414 52.9087 232.904 52.622 232.596C52.3458 232.278 51.921 232.118 51.3476 232.118C50.6679 232.118 50.1263 232.331 49.7227 232.755C49.3191 233.17 49.1174 233.732 49.1174 234.444V239H47.5084ZM60.663 239.143C59.3674 239.143 58.3478 238.777 57.6044 238.044C56.861 237.311 56.4893 236.297 56.4893 235.002C56.4893 234.163 56.6486 233.43 56.9672 232.803C57.2965 232.177 57.7478 231.693 58.3213 231.354C58.9054 231.003 59.5798 230.828 60.3444 230.828C61.0984 230.828 61.7303 230.987 62.2401 231.306C62.7498 231.624 63.1375 232.076 63.403 232.66C63.6685 233.233 63.8012 233.913 63.8012 234.699V235.209H57.7478V234.285H62.702L62.4312 234.492C62.4312 233.695 62.2507 233.079 61.8896 232.644C61.5392 232.198 61.0294 231.975 60.3603 231.975C59.6169 231.975 59.0435 232.235 58.6399 232.755C58.2363 233.265 58.0346 233.971 58.0346 234.874V235.033C58.0346 235.979 58.2629 236.69 58.7195 237.168C59.1868 237.646 59.8453 237.885 60.6949 237.885C61.1621 237.885 61.5976 237.821 62.0011 237.694C62.4153 237.556 62.8082 237.333 63.1799 237.025L63.7056 238.124C63.3339 238.453 62.8826 238.708 62.3516 238.888C61.8206 239.058 61.2577 239.143 60.663 239.143ZM69.3592 239.143C68.0635 239.143 67.044 238.777 66.3006 238.044C65.5572 237.311 65.1855 236.297 65.1855 235.002C65.1855 234.163 65.3448 233.43 65.6634 232.803C65.9926 232.177 66.444 231.693 67.0175 231.354C67.6016 231.003 68.2759 230.828 69.0406 230.828C69.7946 230.828 70.4265 230.987 70.9362 231.306C71.446 231.624 71.8336 232.076 72.0991 232.66C72.3646 233.233 72.4974 233.913 72.4974 234.699V235.209H66.444V234.285H71.3982L71.1274 234.492C71.1274 233.695 70.9469 233.079 70.5858 232.644C70.2353 232.198 69.7256 231.975 69.0565 231.975C68.3131 231.975 67.7396 232.235 67.3361 232.755C66.9325 233.265 66.7307 233.971 66.7307 234.874V235.033C66.7307 235.979 66.959 236.69 67.4157 237.168C67.883 237.646 68.5414 237.885 69.391 237.885C69.8583 237.885 70.2937 237.821 70.6973 237.694C71.1115 237.556 71.5044 237.333 71.8761 237.025L72.4018 238.124C72.0301 238.453 71.5787 238.708 71.0477 238.888C70.5167 239.058 69.9539 239.143 69.3592 239.143ZM78.5906 242.441V232.899C78.5906 232.591 78.5747 232.278 78.5428 231.959C78.5216 231.63 78.495 231.3 78.4632 230.971H80.0243L80.1836 232.787H80.0084C80.1783 232.182 80.5181 231.704 81.0279 231.354C81.5483 231.003 82.1642 230.828 82.8758 230.828C83.5873 230.828 84.2086 230.998 84.7396 231.338C85.2706 231.667 85.6794 232.139 85.9662 232.755C86.2635 233.371 86.4122 234.115 86.4122 234.986C86.4122 235.846 86.2635 236.589 85.9662 237.216C85.6794 237.842 85.2706 238.32 84.7396 238.65C84.2086 238.979 83.5873 239.143 82.8758 239.143C82.1748 239.143 81.5642 238.973 81.0438 238.634C80.5341 238.283 80.1942 237.811 80.0243 237.216H80.1995V242.441H78.5906ZM82.4775 237.885C83.1784 237.885 83.736 237.641 84.1502 237.152C84.575 236.664 84.7874 235.941 84.7874 234.986C84.7874 234.03 84.575 233.313 84.1502 232.835C83.736 232.347 83.1784 232.102 82.4775 232.102C81.7766 232.102 81.2137 232.347 80.7889 232.835C80.3748 233.313 80.1677 234.03 80.1677 234.986C80.1677 235.941 80.3748 236.664 80.7889 237.152C81.2137 237.641 81.7766 237.885 82.4775 237.885ZM91.3724 239.143C90.6609 239.143 90.0396 238.979 89.5086 238.65C88.9776 238.32 88.5634 237.842 88.2661 237.216C87.9793 236.589 87.836 235.846 87.836 234.986C87.836 234.115 87.9793 233.371 88.2661 232.755C88.5634 232.139 88.9776 231.667 89.5086 231.338C90.0396 230.998 90.6609 230.828 91.3724 230.828C92.0734 230.828 92.684 231.003 93.2044 231.354C93.7248 231.704 94.0699 232.182 94.2398 232.787H94.0646L94.2239 230.971H95.785C95.7532 231.3 95.7213 231.63 95.6895 231.959C95.6682 232.278 95.6576 232.591 95.6576 232.899V239H94.0487V237.216H94.2239C94.054 237.811 93.7035 238.283 93.1725 238.634C92.6521 238.973 92.0521 239.143 91.3724 239.143ZM91.7707 237.885C92.461 237.885 93.0132 237.641 93.4274 237.152C93.8522 236.664 94.0646 235.941 94.0646 234.986C94.0646 234.03 93.8522 233.313 93.4274 232.835C93.0132 232.347 92.461 232.102 91.7707 232.102C91.0698 232.102 90.5069 232.347 90.0821 232.835C89.6679 233.313 89.4608 234.03 89.4608 234.986C89.4608 235.941 89.6679 236.664 90.0821 237.152C90.4963 237.641 91.0591 237.885 91.7707 237.885ZM98.0053 239V230.971H99.6142V239H98.0053ZM97.8778 229.299V227.626H99.7417V229.299H97.8778ZM101.972 239V232.899C101.972 232.591 101.956 232.278 101.924 231.959C101.903 231.63 101.877 231.3 101.845 230.971H103.406L103.549 232.66H103.358C103.602 232.065 103.979 231.614 104.489 231.306C104.999 230.987 105.588 230.828 106.257 230.828C107.203 230.828 107.914 231.088 108.392 231.608C108.881 232.129 109.125 232.936 109.125 234.03V239H107.516V234.125C107.516 233.414 107.373 232.904 107.086 232.596C106.81 232.278 106.385 232.118 105.811 232.118C105.132 232.118 104.59 232.331 104.187 232.755C103.783 233.17 103.581 233.732 103.581 234.444V239H101.972ZM115.662 239V230.971H117.271V239H115.662ZM115.535 229.299V227.626H117.398V229.299H115.535ZM122.385 239.143C121.716 239.143 121.1 239.058 120.537 238.888C119.974 238.719 119.507 238.48 119.135 238.172L119.629 237.072C120.022 237.37 120.457 237.593 120.935 237.742C121.413 237.89 121.902 237.965 122.401 237.965C122.985 237.965 123.426 237.864 123.723 237.662C124.02 237.449 124.169 237.163 124.169 236.802C124.169 236.526 124.073 236.303 123.882 236.133C123.702 235.963 123.399 235.835 122.974 235.75L121.445 235.448C120.765 235.299 120.25 235.044 119.9 234.683C119.549 234.322 119.374 233.86 119.374 233.297C119.374 232.819 119.502 232.394 119.756 232.023C120.022 231.651 120.394 231.359 120.872 231.147C121.36 230.934 121.928 230.828 122.576 230.828C123.171 230.828 123.723 230.913 124.233 231.083C124.743 231.253 125.167 231.497 125.507 231.816L124.997 232.883C124.668 232.607 124.297 232.394 123.882 232.246C123.468 232.086 123.049 232.007 122.624 232.007C122.029 232.007 121.588 232.118 121.302 232.341C121.015 232.564 120.872 232.856 120.872 233.217C120.872 233.494 120.957 233.722 121.126 233.902C121.307 234.072 121.588 234.205 121.971 234.301L123.5 234.603C124.222 234.752 124.764 234.996 125.125 235.336C125.486 235.676 125.666 236.133 125.666 236.706C125.666 237.205 125.528 237.641 125.252 238.012C124.976 238.384 124.594 238.665 124.105 238.857C123.617 239.048 123.043 239.143 122.385 239.143ZM131.778 239V232.963C131.778 232.633 131.767 232.304 131.746 231.975C131.736 231.635 131.714 231.3 131.682 230.971H133.244L133.419 233.042H133.164C133.27 232.543 133.451 232.129 133.706 231.8C133.96 231.47 134.268 231.226 134.629 231.067C135.001 230.908 135.389 230.828 135.792 230.828C135.962 230.828 136.106 230.839 136.222 230.86C136.339 230.87 136.456 230.892 136.573 230.923L136.557 232.357C136.376 232.283 136.217 232.24 136.079 232.23C135.952 232.209 135.792 232.198 135.601 232.198C135.134 232.198 134.736 232.304 134.406 232.516C134.077 232.718 133.828 232.994 133.658 233.345C133.488 233.695 133.403 234.072 133.403 234.476V239H131.778ZM141.418 239.143C140.122 239.143 139.102 238.777 138.359 238.044C137.616 237.311 137.244 236.297 137.244 235.002C137.244 234.163 137.403 233.43 137.722 232.803C138.051 232.177 138.502 231.693 139.076 231.354C139.66 231.003 140.334 230.828 141.099 230.828C141.853 230.828 142.485 230.987 142.995 231.306C143.504 231.624 143.892 232.076 144.157 232.66C144.423 233.233 144.556 233.913 144.556 234.699V235.209H138.502V234.285H143.457L143.186 234.492C143.186 233.695 143.005 233.079 142.644 232.644C142.294 232.198 141.784 231.975 141.115 231.975C140.371 231.975 139.798 232.235 139.394 232.755C138.991 233.265 138.789 233.971 138.789 234.874V235.033C138.789 235.979 139.017 236.69 139.474 237.168C139.941 237.646 140.6 237.885 141.449 237.885C141.917 237.885 142.352 237.821 142.756 237.694C143.17 237.556 143.563 237.333 143.934 237.025L144.46 238.124C144.088 238.453 143.637 238.708 143.106 238.888C142.575 239.058 142.012 239.143 141.418 239.143ZM149.476 239.143C148.765 239.143 148.144 238.979 147.613 238.65C147.082 238.32 146.667 237.842 146.37 237.216C146.083 236.589 145.94 235.846 145.94 234.986C145.94 234.115 146.083 233.371 146.37 232.755C146.667 232.139 147.082 231.667 147.613 231.338C148.144 230.998 148.765 230.828 149.476 230.828C150.177 230.828 150.788 231.003 151.308 231.354C151.829 231.704 152.174 232.182 152.344 232.787H152.169L152.328 230.971H153.889C153.857 231.3 153.825 231.63 153.794 231.959C153.772 232.278 153.762 232.591 153.762 232.899V239H152.153V237.216H152.328C152.158 237.811 151.808 238.283 151.277 238.634C150.756 238.973 150.156 239.143 149.476 239.143ZM149.875 237.885C150.565 237.885 151.117 237.641 151.531 237.152C151.956 236.664 152.169 235.941 152.169 234.986C152.169 234.03 151.956 233.313 151.531 232.835C151.117 232.347 150.565 232.102 149.875 232.102C149.174 232.102 148.611 232.347 148.186 232.835C147.772 233.313 147.565 234.03 147.565 234.986C147.565 235.941 147.772 236.664 148.186 237.152C148.6 237.641 149.163 237.885 149.875 237.885ZM156.109 239V227.276H157.718V239H156.109ZM160.076 239V227.276H161.685V239H160.076ZM163.804 242.616L163.422 241.31C163.921 241.204 164.335 241.076 164.665 240.928C165.004 240.779 165.286 240.582 165.509 240.338C165.732 240.104 165.923 239.802 166.082 239.43L166.481 238.49L166.449 239.143L162.96 230.971H164.68L167.389 237.662H166.958L169.667 230.971H171.323L167.643 239.573C167.41 240.104 167.16 240.551 166.895 240.912C166.629 241.273 166.342 241.565 166.034 241.788C165.727 242.011 165.387 242.186 165.015 242.313C164.643 242.441 164.24 242.542 163.804 242.616ZM181.116 239.143C180.415 239.143 179.804 238.968 179.284 238.618C178.764 238.267 178.418 237.789 178.249 237.184H178.424V239H176.831V227.276H178.44V232.755H178.249C178.429 232.161 178.774 231.693 179.284 231.354C179.804 231.003 180.415 230.828 181.116 230.828C181.827 230.828 182.449 230.998 182.98 231.338C183.511 231.667 183.92 232.145 184.206 232.771C184.504 233.387 184.652 234.131 184.652 235.002C184.652 235.862 184.504 236.605 184.206 237.232C183.92 237.848 183.505 238.32 182.964 238.65C182.433 238.979 181.817 239.143 181.116 239.143ZM180.718 237.885C181.408 237.885 181.966 237.646 182.39 237.168C182.815 236.68 183.028 235.957 183.028 235.002C183.028 234.035 182.815 233.313 182.39 232.835C181.966 232.347 181.408 232.102 180.718 232.102C180.017 232.102 179.454 232.347 179.029 232.835C178.615 233.313 178.408 234.03 178.408 234.986C178.408 235.941 178.615 236.664 179.029 237.152C179.454 237.641 180.017 237.885 180.718 237.885ZM189.613 239.143C188.901 239.143 188.28 238.979 187.749 238.65C187.218 238.32 186.804 237.842 186.506 237.216C186.22 236.589 186.076 235.846 186.076 234.986C186.076 234.115 186.22 233.371 186.506 232.755C186.804 232.139 187.218 231.667 187.749 231.338C188.28 230.998 188.901 230.828 189.613 230.828C190.314 230.828 190.924 231.003 191.445 231.354C191.965 231.704 192.31 232.182 192.48 232.787H192.305L192.464 230.971H194.025C193.993 231.3 193.962 231.63 193.93 231.959C193.908 232.278 193.898 232.591 193.898 232.899V239H192.289V237.216H192.464C192.294 237.811 191.944 238.283 191.413 238.634C190.892 238.973 190.292 239.143 189.613 239.143ZM190.011 237.885C190.701 237.885 191.253 237.641 191.668 237.152C192.092 236.664 192.305 235.941 192.305 234.986C192.305 234.03 192.092 233.313 191.668 232.835C191.253 232.347 190.701 232.102 190.011 232.102C189.31 232.102 188.747 232.347 188.322 232.835C187.908 233.313 187.701 234.03 187.701 234.986C187.701 235.941 187.908 236.664 188.322 237.152C188.736 237.641 189.299 237.885 190.011 237.885ZM199.32 239.143C198.619 239.143 197.998 238.979 197.456 238.65C196.925 238.32 196.511 237.842 196.214 237.216C195.927 236.589 195.784 235.846 195.784 234.986C195.784 234.115 195.927 233.371 196.214 232.755C196.511 232.139 196.925 231.667 197.456 231.338C197.998 230.998 198.619 230.828 199.32 230.828C200.01 230.828 200.616 231.003 201.136 231.354C201.667 231.693 202.017 232.161 202.187 232.755H201.996V227.276H203.605V239H202.012V237.184H202.203C202.023 237.789 201.672 238.267 201.152 238.618C200.632 238.968 200.021 239.143 199.32 239.143ZM199.718 237.885C200.409 237.885 200.966 237.641 201.391 237.152C201.816 236.664 202.028 235.941 202.028 234.986C202.028 234.03 201.816 233.313 201.391 232.835C200.966 232.347 200.409 232.102 199.718 232.102C199.017 232.102 198.454 232.347 198.03 232.835C197.615 233.313 197.408 234.03 197.408 234.986C197.408 235.941 197.615 236.664 198.03 237.152C198.454 237.641 199.017 237.885 199.718 237.885ZM205.714 239V237.104H207.61V239H205.714ZM212.961 239L217.963 227.769H219.38L224.462 239H222.757L221.372 235.814L222.072 236.26H215.27L216.019 235.814L214.633 239H212.961ZM218.648 229.585L216.226 235.304L215.844 234.938H221.499L221.18 235.304L218.711 229.585H218.648ZM225.803 239V227.276H227.412V239H225.803ZM232.526 239.143C231.857 239.143 231.241 239.058 230.678 238.888C230.115 238.719 229.648 238.48 229.276 238.172L229.77 237.072C230.163 237.37 230.598 237.593 231.076 237.742C231.554 237.89 232.043 237.965 232.542 237.965C233.126 237.965 233.567 237.864 233.864 237.662C234.161 237.449 234.31 237.163 234.31 236.802C234.31 236.526 234.215 236.303 234.023 236.133C233.843 235.963 233.54 235.835 233.115 235.75L231.586 235.448C230.906 235.299 230.391 235.044 230.041 234.683C229.69 234.322 229.515 233.86 229.515 233.297C229.515 232.819 229.643 232.394 229.897 232.023C230.163 231.651 230.535 231.359 231.013 231.147C231.501 230.934 232.069 230.828 232.717 230.828C233.312 230.828 233.864 230.913 234.374 231.083C234.884 231.253 235.308 231.497 235.648 231.816L235.138 232.883C234.809 232.607 234.438 232.394 234.023 232.246C233.609 232.086 233.19 232.007 232.765 232.007C232.17 232.007 231.729 232.118 231.443 232.341C231.156 232.564 231.013 232.856 231.013 233.217C231.013 233.494 231.098 233.722 231.267 233.902C231.448 234.072 231.729 234.205 232.112 234.301L233.641 234.603C234.363 234.752 234.905 234.996 235.266 235.336C235.627 235.676 235.808 236.133 235.808 236.706C235.808 237.205 235.669 237.641 235.393 238.012C235.117 238.384 234.735 238.665 234.246 238.857C233.758 239.048 233.184 239.143 232.526 239.143ZM241.145 239.143C240.348 239.143 239.658 238.979 239.074 238.65C238.49 238.31 238.038 237.832 237.72 237.216C237.401 236.589 237.242 235.846 237.242 234.986C237.242 234.125 237.401 233.387 237.72 232.771C238.038 232.145 238.49 231.667 239.074 231.338C239.658 230.998 240.348 230.828 241.145 230.828C241.941 230.828 242.632 230.998 243.216 231.338C243.81 231.667 244.267 232.145 244.586 232.771C244.915 233.387 245.08 234.125 245.08 234.986C245.08 235.846 244.915 236.589 244.586 237.216C244.267 237.832 243.81 238.31 243.216 238.65C242.632 238.979 241.941 239.143 241.145 239.143ZM241.145 237.885C241.846 237.885 242.403 237.641 242.817 237.152C243.232 236.664 243.439 235.941 243.439 234.986C243.439 234.03 243.232 233.313 242.817 232.835C242.403 232.347 241.846 232.102 241.145 232.102C240.455 232.102 239.902 232.347 239.488 232.835C239.074 233.313 238.867 234.03 238.867 234.986C238.867 235.941 239.069 236.664 239.472 237.152C239.886 237.641 240.444 237.885 241.145 237.885ZM251.207 239V232.899C251.207 232.591 251.191 232.278 251.159 231.959C251.138 231.63 251.111 231.3 251.08 230.971H252.641L252.784 232.66H252.593C252.816 232.076 253.156 231.624 253.613 231.306C254.08 230.987 254.637 230.828 255.285 230.828C255.944 230.828 256.48 230.987 256.894 231.306C257.319 231.614 257.611 232.092 257.77 232.74H257.515C257.728 232.155 258.089 231.693 258.599 231.354C259.108 231.003 259.698 230.828 260.367 230.828C261.259 230.828 261.928 231.088 262.374 231.608C262.82 232.129 263.043 232.936 263.043 234.03V239H261.434V234.109C261.434 233.409 261.312 232.904 261.068 232.596C260.834 232.278 260.452 232.118 259.921 232.118C259.305 232.118 258.816 232.331 258.455 232.755C258.094 233.18 257.914 233.754 257.914 234.476V239H256.305V234.109C256.305 233.409 256.183 232.904 255.938 232.596C255.705 232.278 255.322 232.118 254.791 232.118C254.175 232.118 253.692 232.331 253.342 232.755C252.991 233.18 252.816 233.754 252.816 234.476V239H251.207ZM265.031 242.616L264.649 241.31C265.148 241.204 265.562 241.076 265.892 240.928C266.231 240.779 266.513 240.582 266.736 240.338C266.959 240.104 267.15 239.802 267.309 239.43L267.708 238.49L267.676 239.143L264.187 230.971H265.907L268.616 237.662H268.185L270.894 230.971H272.55L268.87 239.573C268.637 240.104 268.387 240.551 268.122 240.912C267.856 241.273 267.57 241.565 267.262 241.788C266.954 242.011 266.614 242.186 266.242 242.313C265.87 242.441 265.467 242.542 265.031 242.616ZM280.814 239.143C280.145 239.143 279.529 239.058 278.966 238.888C278.403 238.719 277.936 238.48 277.564 238.172L278.058 237.072C278.451 237.37 278.886 237.593 279.364 237.742C279.842 237.89 280.331 237.965 280.83 237.965C281.414 237.965 281.854 237.864 282.152 237.662C282.449 237.449 282.598 237.163 282.598 236.802C282.598 236.526 282.502 236.303 282.311 236.133C282.131 235.963 281.828 235.835 281.403 235.75L279.874 235.448C279.194 235.299 278.679 235.044 278.329 234.683C277.978 234.322 277.803 233.86 277.803 233.297C277.803 232.819 277.93 232.394 278.185 232.023C278.451 231.651 278.822 231.359 279.3 231.147C279.789 230.934 280.357 230.828 281.005 230.828C281.6 230.828 282.152 230.913 282.662 231.083C283.171 231.253 283.596 231.497 283.936 231.816L283.426 232.883C283.097 232.607 282.725 232.394 282.311 232.246C281.897 232.086 281.477 232.007 281.053 232.007C280.458 232.007 280.017 232.118 279.73 232.341C279.444 232.564 279.3 232.856 279.3 233.217C279.3 233.494 279.385 233.722 279.555 233.902C279.736 234.072 280.017 234.205 280.4 234.301L281.929 234.603C282.651 234.752 283.193 234.996 283.554 235.336C283.915 235.676 284.095 236.133 284.095 236.706C284.095 237.205 283.957 237.641 283.681 238.012C283.405 238.384 283.023 238.665 282.534 238.857C282.046 239.048 281.472 239.143 280.814 239.143ZM285.992 239V227.276H287.601V232.676H287.378C287.611 232.07 287.988 231.614 288.509 231.306C289.029 230.987 289.629 230.828 290.309 230.828C291.265 230.828 291.976 231.093 292.443 231.624C292.911 232.145 293.144 232.936 293.144 233.998V239H291.535V234.094C291.535 233.403 291.397 232.904 291.121 232.596C290.856 232.278 290.431 232.118 289.847 232.118C289.167 232.118 288.62 232.331 288.206 232.755C287.802 233.17 287.601 233.722 287.601 234.412V239H285.992ZM298.875 239.143C298.079 239.143 297.389 238.979 296.805 238.65C296.22 238.31 295.769 237.832 295.451 237.216C295.132 236.589 294.973 235.846 294.973 234.986C294.973 234.125 295.132 233.387 295.451 232.771C295.769 232.145 296.22 231.667 296.805 231.338C297.389 230.998 298.079 230.828 298.875 230.828C299.672 230.828 300.362 230.998 300.946 231.338C301.541 231.667 301.998 232.145 302.316 232.771C302.646 233.387 302.81 234.125 302.81 234.986C302.81 235.846 302.646 236.589 302.316 237.216C301.998 237.832 301.541 238.31 300.946 238.65C300.362 238.979 299.672 239.143 298.875 239.143ZM298.875 237.885C299.576 237.885 300.134 237.641 300.548 237.152C300.962 236.664 301.169 235.941 301.169 234.986C301.169 234.03 300.962 233.313 300.548 232.835C300.134 232.347 299.576 232.102 298.875 232.102C298.185 232.102 297.633 232.347 297.219 232.835C296.805 233.313 296.598 234.03 296.598 234.986C296.598 235.941 296.799 236.664 297.203 237.152C297.617 237.641 298.175 237.885 298.875 237.885ZM307.542 239.143C306.576 239.143 305.848 238.883 305.36 238.363C304.882 237.832 304.643 237.019 304.643 235.926V230.971H306.252V235.894C306.252 236.563 306.39 237.057 306.666 237.375C306.942 237.694 307.362 237.853 307.925 237.853C308.562 237.853 309.077 237.641 309.47 237.216C309.863 236.791 310.059 236.228 310.059 235.527V230.971H311.668V239H310.107V237.28H310.314C310.091 237.874 309.735 238.336 309.247 238.665C308.758 238.984 308.19 239.143 307.542 239.143ZM314.025 239V227.276H315.634V239H314.025ZM321.066 239.143C320.365 239.143 319.744 238.979 319.202 238.65C318.671 238.32 318.257 237.842 317.96 237.216C317.673 236.589 317.53 235.846 317.53 234.986C317.53 234.115 317.673 233.371 317.96 232.755C318.257 232.139 318.671 231.667 319.202 231.338C319.744 230.998 320.365 230.828 321.066 230.828C321.757 230.828 322.362 231.003 322.882 231.354C323.413 231.693 323.764 232.161 323.934 232.755H323.742V227.276H325.351V239H323.758V237.184H323.95C323.769 237.789 323.419 238.267 322.898 238.618C322.378 238.968 321.767 239.143 321.066 239.143ZM321.464 237.885C322.155 237.885 322.712 237.641 323.137 237.152C323.562 236.664 323.774 235.941 323.774 234.986C323.774 234.03 323.562 233.313 323.137 232.835C322.712 232.347 322.155 232.102 321.464 232.102C320.764 232.102 320.201 232.347 319.776 232.835C319.362 233.313 319.155 234.03 319.155 234.986C319.155 235.941 319.362 236.664 319.776 237.152C320.201 237.641 320.764 237.885 321.464 237.885ZM331.411 239.143C330.115 239.143 329.096 238.777 328.352 238.044C327.609 237.311 327.237 236.297 327.237 235.002C327.237 234.163 327.396 233.43 327.715 232.803C328.044 232.177 328.496 231.693 329.069 231.354C329.653 231.003 330.328 230.828 331.092 230.828C331.846 230.828 332.478 230.987 332.988 231.306C333.498 231.624 333.885 232.076 334.151 232.66C334.416 233.233 334.549 233.913 334.549 234.699V235.209H328.496V234.285H333.45L333.179 234.492C333.179 233.695 332.998 233.079 332.637 232.644C332.287 232.198 331.777 231.975 331.108 231.975C330.365 231.975 329.791 232.235 329.388 232.755C328.984 233.265 328.782 233.971 328.782 234.874V235.033C328.782 235.979 329.011 236.69 329.467 237.168C329.935 237.646 330.593 237.885 331.443 237.885C331.91 237.885 332.345 237.821 332.749 237.694C333.163 237.556 333.556 237.333 333.928 237.025L334.453 238.124C334.082 238.453 333.63 238.708 333.099 238.888C332.568 239.058 332.005 239.143 331.411 239.143ZM336.363 239V232.963C336.363 232.633 336.353 232.304 336.332 231.975C336.321 231.635 336.3 231.3 336.268 230.971H337.829L338.004 233.042H337.749C337.856 232.543 338.036 232.129 338.291 231.8C338.546 231.47 338.854 231.226 339.215 231.067C339.587 230.908 339.974 230.828 340.378 230.828C340.548 230.828 340.691 230.839 340.808 230.86C340.925 230.87 341.042 230.892 341.158 230.923L341.142 232.357C340.962 232.283 340.803 232.24 340.664 232.23C340.537 232.209 340.378 232.198 340.187 232.198C339.719 232.198 339.321 232.304 338.992 232.516C338.663 232.718 338.413 232.994 338.243 233.345C338.073 233.695 337.988 234.072 337.988 234.476V239H336.363ZM37.1788 266.441V256.899C37.1788 256.591 37.1629 256.278 37.131 255.959C37.1098 255.63 37.0832 255.3 37.0514 254.971H38.6125L38.7718 256.787H38.5966C38.7665 256.182 39.1064 255.704 39.6161 255.354C40.1365 255.003 40.7525 254.828 41.464 254.828C42.1755 254.828 42.7968 254.998 43.3278 255.338C43.8588 255.667 44.2677 256.139 44.5544 256.755C44.8518 257.371 45.0005 258.115 45.0005 258.986C45.0005 259.846 44.8518 260.589 44.5544 261.216C44.2677 261.842 43.8588 262.32 43.3278 262.65C42.7968 262.979 42.1755 263.143 41.464 263.143C40.7631 263.143 40.1524 262.973 39.632 262.634C39.1223 262.283 38.7824 261.811 38.6125 261.216H38.7878V266.441H37.1788ZM41.0657 261.885C41.7667 261.885 42.3242 261.641 42.7384 261.152C43.1632 260.664 43.3756 259.941 43.3756 258.986C43.3756 258.03 43.1632 257.313 42.7384 256.835C42.3242 256.347 41.7667 256.102 41.0657 256.102C40.3648 256.102 39.802 256.347 39.3772 256.835C38.963 257.313 38.7559 258.03 38.7559 258.986C38.7559 259.941 38.963 260.664 39.3772 261.152C39.802 261.641 40.3648 261.885 41.0657 261.885ZM49.9607 263.143C49.2491 263.143 48.6278 262.979 48.0968 262.65C47.5658 262.32 47.1517 261.842 46.8543 261.216C46.5676 260.589 46.4242 259.846 46.4242 258.986C46.4242 258.115 46.5676 257.371 46.8543 256.755C47.1517 256.139 47.5658 255.667 48.0968 255.338C48.6278 254.998 49.2491 254.828 49.9607 254.828C50.6616 254.828 51.2722 255.003 51.7926 255.354C52.313 255.704 52.6581 256.182 52.8281 256.787H52.6528L52.8121 254.971H54.3733C54.3414 255.3 54.3095 255.63 54.2777 255.959C54.2564 256.278 54.2458 256.591 54.2458 256.899V263H52.6369V261.216H52.8121C52.6422 261.811 52.2917 262.283 51.7607 262.634C51.2404 262.973 50.6403 263.143 49.9607 263.143ZM50.3589 261.885C51.0492 261.885 51.6014 261.641 52.0156 261.152C52.4404 260.664 52.6528 259.941 52.6528 258.986C52.6528 258.03 52.4404 257.313 52.0156 256.835C51.6014 256.347 51.0492 256.102 50.3589 256.102C49.658 256.102 49.0951 256.347 48.6703 256.835C48.2561 257.313 48.0491 258.03 48.0491 258.986C48.0491 259.941 48.2561 260.664 48.6703 261.152C49.0845 261.641 49.6474 261.885 50.3589 261.885ZM56.5935 263V254.971H58.2024V263H56.5935ZM56.4661 253.299V251.626H58.3299V253.299H56.4661ZM60.5605 263V256.899C60.5605 256.591 60.5445 256.278 60.5127 255.959C60.4914 255.63 60.4649 255.3 60.433 254.971H61.9942L62.1375 256.66H61.9464C62.1906 256.065 62.5676 255.614 63.0774 255.306C63.5872 254.987 64.1766 254.828 64.8456 254.828C65.7908 254.828 66.5023 255.088 66.9802 255.608C67.4688 256.129 67.713 256.936 67.713 258.03V263H66.1041V258.125C66.1041 257.414 65.9607 256.904 65.674 256.596C65.3979 256.278 64.9731 256.118 64.3996 256.118C63.7199 256.118 63.1783 256.331 62.7747 256.755C62.3712 257.17 62.1694 257.732 62.1694 258.444V263H60.5605ZM72.7592 263.143C72.0902 263.143 71.4742 263.058 70.9113 262.888C70.3485 262.719 69.8812 262.48 69.5095 262.172L70.0033 261.072C70.3963 261.37 70.8317 261.593 71.3096 261.742C71.7875 261.89 72.276 261.965 72.7752 261.965C73.3593 261.965 73.8 261.864 74.0973 261.662C74.3947 261.449 74.5434 261.163 74.5434 260.802C74.5434 260.526 74.4478 260.303 74.2566 260.133C74.0761 259.963 73.7734 259.835 73.3486 259.75L71.8194 259.448C71.1397 259.299 70.6246 259.044 70.2741 258.683C69.9237 258.322 69.7485 257.86 69.7485 257.297C69.7485 256.819 69.8759 256.394 70.1308 256.023C70.3963 255.651 70.768 255.359 71.2459 255.147C71.7344 254.934 72.3026 254.828 72.9504 254.828C73.5451 254.828 74.0973 254.913 74.6071 255.083C75.1169 255.253 75.5417 255.497 75.8815 255.816L75.3717 256.883C75.0425 256.607 74.6708 256.394 74.2566 256.246C73.8425 256.086 73.423 256.007 72.9982 256.007C72.4035 256.007 71.9627 256.118 71.676 256.341C71.3892 256.564 71.2459 256.856 71.2459 257.217C71.2459 257.494 71.3308 257.722 71.5008 257.902C71.6813 258.072 71.9627 258.205 72.345 258.301L73.8743 258.603C74.5965 258.752 75.1381 258.996 75.4992 259.336C75.8603 259.676 76.0408 260.133 76.0408 260.706C76.0408 261.205 75.9027 261.641 75.6266 262.012C75.3505 262.384 74.9682 262.665 74.4797 262.857C73.9911 263.048 73.4177 263.143 72.7592 263.143ZM84.3666 263L81.324 254.971H82.9966L85.3702 261.662H84.956L87.3933 254.971H88.6358L91.0572 261.662H90.6589L93.0325 254.971H94.6414L91.5829 263H90.1173L87.6004 256.182H88.3491L85.864 263H84.3666ZM96.1229 263V251.276H97.7319V256.676H97.5088C97.7425 256.07 98.1195 255.614 98.6399 255.306C99.1603 254.987 99.7603 254.828 100.44 254.828C101.396 254.828 102.107 255.093 102.575 255.624C103.042 256.145 103.276 256.936 103.276 257.998V263H101.667V258.094C101.667 257.403 101.529 256.904 101.252 256.596C100.987 256.278 100.562 256.118 99.978 256.118C99.2983 256.118 98.7514 256.331 98.3372 256.755C97.9336 257.17 97.7319 257.722 97.7319 258.412V263H96.1229ZM105.566 263V254.971H107.175V263H105.566ZM105.438 253.299V251.626H107.302V253.299H105.438ZM109.533 263V251.276H111.142V263H109.533ZM117.211 263.143C115.916 263.143 114.896 262.777 114.153 262.044C113.409 261.311 113.038 260.297 113.038 259.002C113.038 258.163 113.197 257.43 113.516 256.803C113.845 256.177 114.296 255.693 114.87 255.354C115.454 255.003 116.128 254.828 116.893 254.828C117.647 254.828 118.279 254.987 118.788 255.306C119.298 255.624 119.686 256.076 119.951 256.66C120.217 257.233 120.35 257.913 120.35 258.699V259.209H114.296V258.285H119.25L118.98 258.492C118.98 257.695 118.799 257.079 118.438 256.644C118.088 256.198 117.578 255.975 116.909 255.975C116.165 255.975 115.592 256.235 115.188 256.755C114.785 257.265 114.583 257.971 114.583 258.874V259.033C114.583 259.979 114.811 260.69 115.268 261.168C115.735 261.646 116.394 261.885 117.243 261.885C117.711 261.885 118.146 261.821 118.55 261.694C118.964 261.556 119.357 261.333 119.728 261.025L120.254 262.124C119.882 262.453 119.431 262.708 118.9 262.888C118.369 263.058 117.806 263.143 117.211 263.143ZM129.199 263.143C128.53 263.143 127.914 263.058 127.351 262.888C126.788 262.719 126.321 262.48 125.949 262.172L126.443 261.072C126.836 261.37 127.271 261.593 127.749 261.742C128.227 261.89 128.716 261.965 129.215 261.965C129.799 261.965 130.239 261.864 130.537 261.662C130.834 261.449 130.983 261.163 130.983 260.802C130.983 260.526 130.887 260.303 130.696 260.133C130.516 259.963 130.213 259.835 129.788 259.75L128.259 259.448C127.579 259.299 127.064 259.044 126.714 258.683C126.363 258.322 126.188 257.86 126.188 257.297C126.188 256.819 126.315 256.394 126.57 256.023C126.836 255.651 127.207 255.359 127.685 255.147C128.174 254.934 128.742 254.828 129.39 254.828C129.985 254.828 130.537 254.913 131.047 255.083C131.556 255.253 131.981 255.497 132.321 255.816L131.811 256.883C131.482 256.607 131.11 256.394 130.696 256.246C130.282 256.086 129.862 256.007 129.438 256.007C128.843 256.007 128.402 256.118 128.115 256.341C127.829 256.564 127.685 256.856 127.685 257.217C127.685 257.494 127.77 257.722 127.94 257.902C128.121 258.072 128.402 258.205 128.785 258.301L130.314 258.603C131.036 258.752 131.578 258.996 131.939 259.336C132.3 259.676 132.48 260.133 132.48 260.706C132.48 261.205 132.342 261.641 132.066 262.012C131.79 262.384 131.408 262.665 130.919 262.857C130.431 263.048 129.857 263.143 129.199 263.143ZM134.377 263V251.276H135.986V263H134.377ZM142.055 263.143C140.76 263.143 139.74 262.777 138.997 262.044C138.253 261.311 137.882 260.297 137.882 259.002C137.882 258.163 138.041 257.43 138.36 256.803C138.689 256.177 139.14 255.693 139.714 255.354C140.298 255.003 140.972 254.828 141.737 254.828C142.491 254.828 143.123 254.987 143.632 255.306C144.142 255.624 144.53 256.076 144.795 256.66C145.061 257.233 145.194 257.913 145.194 258.699V259.209H139.14V258.285H144.094L143.824 258.492C143.824 257.695 143.643 257.079 143.282 256.644C142.931 256.198 142.422 255.975 141.753 255.975C141.009 255.975 140.436 256.235 140.032 256.755C139.629 257.265 139.427 257.971 139.427 258.874V259.033C139.427 259.979 139.655 260.69 140.112 261.168C140.579 261.646 141.238 261.885 142.087 261.885C142.554 261.885 142.99 261.821 143.393 261.694C143.808 261.556 144.201 261.333 144.572 261.025L145.098 262.124C144.726 262.453 144.275 262.708 143.744 262.888C143.213 263.058 142.65 263.143 142.055 263.143ZM150.752 263.143C149.456 263.143 148.436 262.777 147.693 262.044C146.95 261.311 146.578 260.297 146.578 259.002C146.578 258.163 146.737 257.43 147.056 256.803C147.385 256.177 147.836 255.693 148.41 255.354C148.994 255.003 149.668 254.828 150.433 254.828C151.187 254.828 151.819 254.987 152.329 255.306C152.838 255.624 153.226 256.076 153.491 256.66C153.757 257.233 153.89 257.913 153.89 258.699V259.209H147.836V258.285H152.791L152.52 258.492C152.52 257.695 152.339 257.079 151.978 256.644C151.628 256.198 151.118 255.975 150.449 255.975C149.705 255.975 149.132 256.235 148.728 256.755C148.325 257.265 148.123 257.971 148.123 258.874V259.033C148.123 259.979 148.351 260.69 148.808 261.168C149.275 261.646 149.934 261.885 150.783 261.885C151.251 261.885 151.686 261.821 152.09 261.694C152.504 261.556 152.897 261.333 153.268 261.025L153.794 262.124C153.422 262.453 152.971 262.708 152.44 262.888C151.909 263.058 151.346 263.143 150.752 263.143ZM155.736 266.441V256.899C155.736 256.591 155.72 256.278 155.688 255.959C155.667 255.63 155.64 255.3 155.609 254.971H157.17L157.329 256.787H157.154C157.324 256.182 157.664 255.704 158.173 255.354C158.694 255.003 159.31 254.828 160.021 254.828C160.733 254.828 161.354 254.998 161.885 255.338C162.416 255.667 162.825 256.139 163.112 256.755C163.409 257.371 163.558 258.115 163.558 258.986C163.558 259.846 163.409 260.589 163.112 261.216C162.825 261.842 162.416 262.32 161.885 262.65C161.354 262.979 160.733 263.143 160.021 263.143C159.32 263.143 158.71 262.973 158.189 262.634C157.679 262.283 157.34 261.811 157.17 261.216H157.345V266.441H155.736ZM159.623 261.885C160.324 261.885 160.881 261.641 161.296 261.152C161.72 260.664 161.933 259.941 161.933 258.986C161.933 258.03 161.72 257.313 161.296 256.835C160.881 256.347 160.324 256.102 159.623 256.102C158.922 256.102 158.359 256.347 157.934 256.835C157.52 257.313 157.313 258.03 157.313 258.986C157.313 259.941 157.52 260.664 157.934 261.152C158.359 261.641 158.922 261.885 159.623 261.885ZM165.443 263V254.971H167.052V263H165.443ZM165.316 253.299V251.626H167.18V253.299H165.316ZM169.41 263V256.899C169.41 256.591 169.394 256.278 169.362 255.959C169.341 255.63 169.315 255.3 169.283 254.971H170.844L170.987 256.66H170.796C171.04 256.065 171.417 255.614 171.927 255.306C172.437 254.987 173.026 254.828 173.695 254.828C174.641 254.828 175.352 255.088 175.83 255.608C176.319 256.129 176.563 256.936 176.563 258.03V263H174.954V258.125C174.954 257.414 174.811 256.904 174.524 256.596C174.248 256.278 173.823 256.118 173.249 256.118C172.57 256.118 172.028 256.331 171.625 256.755C171.221 257.17 171.019 257.732 171.019 258.444V263H169.41ZM182.469 266.568C181.747 266.568 181.089 266.483 180.494 266.313C179.91 266.144 179.384 265.889 178.917 265.549L179.315 264.37C179.644 264.593 179.968 264.768 180.287 264.896C180.605 265.034 180.94 265.135 181.29 265.198C181.641 265.262 182.002 265.294 182.374 265.294C183.138 265.294 183.712 265.097 184.094 264.705C184.487 264.322 184.684 263.765 184.684 263.032V260.881H184.843C184.673 261.476 184.322 261.949 183.791 262.299C183.271 262.639 182.666 262.809 181.975 262.809C181.243 262.809 180.605 262.65 180.064 262.331C179.533 262.002 179.119 261.54 178.821 260.945C178.535 260.34 178.391 259.628 178.391 258.81C178.391 257.993 178.535 257.286 178.821 256.692C179.119 256.097 179.533 255.64 180.064 255.322C180.605 254.993 181.243 254.828 181.975 254.828C182.676 254.828 183.282 255.003 183.791 255.354C184.312 255.693 184.657 256.161 184.827 256.755L184.684 256.628L184.827 254.971H186.388C186.346 255.3 186.314 255.63 186.292 255.959C186.271 256.278 186.261 256.591 186.261 256.899V262.841C186.261 264.051 185.937 264.975 185.289 265.613C184.652 266.25 183.712 266.568 182.469 266.568ZM182.358 261.55C183.059 261.55 183.616 261.311 184.03 260.834C184.455 260.356 184.668 259.681 184.668 258.81C184.668 257.94 184.455 257.271 184.03 256.803C183.616 256.336 183.059 256.102 182.358 256.102C181.636 256.102 181.062 256.336 180.637 256.803C180.223 257.271 180.016 257.94 180.016 258.81C180.016 259.681 180.223 260.356 180.637 260.834C181.062 261.311 181.636 261.55 182.358 261.55Z" fill="#CB1B5B"/>
<path d="M37.3222 95V83.7693H38.5966L45.4943 92.8176H45.096V83.7693H46.6412V95H45.3828L38.501 85.9518H38.8674V95H37.3222ZM52.2008 95.1434C51.4893 95.1434 50.868 94.9788 50.337 94.6495C49.806 94.3203 49.3918 93.8424 49.0945 93.2158C48.8077 92.5893 48.6644 91.8459 48.6644 90.9856C48.6644 90.1148 48.8077 89.3714 49.0945 88.7554C49.3918 88.1395 49.806 87.6669 50.337 87.3377C50.868 86.9978 51.4893 86.8279 52.2008 86.8279C52.9017 86.8279 53.5124 87.0031 54.0328 87.3536C54.5531 87.7041 54.8983 88.182 55.0682 88.7873H54.893L55.0523 86.9713H56.6134C56.5816 87.3005 56.5497 87.6297 56.5178 87.9589C56.4966 88.2775 56.486 88.5908 56.486 88.8988V95H54.8771V93.2158H55.0523C54.8824 93.8106 54.5319 94.2831 54.0009 94.6336C53.4805 94.9734 52.8805 95.1434 52.2008 95.1434ZM52.5991 93.8849C53.2894 93.8849 53.8416 93.6406 54.2558 93.1521C54.6806 92.6636 54.893 91.9414 54.893 90.9856C54.893 90.0298 54.6806 89.313 54.2558 88.8351C53.8416 88.3466 53.2894 88.1023 52.5991 88.1023C51.8981 88.1023 51.3353 88.3466 50.9105 88.8351C50.4963 89.313 50.2892 90.0298 50.2892 90.9856C50.2892 91.9414 50.4963 92.6636 50.9105 93.1521C51.3247 93.6406 51.8875 93.8849 52.5991 93.8849ZM58.8337 95V88.8988C58.8337 88.5908 58.8177 88.2775 58.7859 87.9589C58.7646 87.6297 58.7381 87.3005 58.7062 86.9713H60.2674L60.4107 88.6599H60.2196C60.4426 88.0758 60.7824 87.6244 61.2391 87.3058C61.7064 86.9872 62.2639 86.8279 62.9117 86.8279C63.5702 86.8279 64.1065 86.9872 64.5207 87.3058C64.9455 87.6138 65.2375 88.0917 65.3968 88.7395H65.1419C65.3543 88.1554 65.7154 87.6934 66.2252 87.3536C66.7349 87.0031 67.3244 86.8279 67.9934 86.8279C68.8855 86.8279 69.5546 87.0881 70.0006 87.6085C70.4466 88.1289 70.6697 88.936 70.6697 90.0298V95H69.0607V90.1095C69.0607 89.4086 68.9386 88.9041 68.6943 88.5961C68.4607 88.2775 68.0784 88.1182 67.5474 88.1182C66.9314 88.1182 66.4429 88.3306 66.0818 88.7554C65.7207 89.1802 65.5402 89.7537 65.5402 90.4759V95H63.9313V90.1095C63.9313 89.4086 63.8091 88.9041 63.5649 88.5961C63.3312 88.2775 62.9489 88.1182 62.4179 88.1182C61.802 88.1182 61.3187 88.3306 60.9683 88.7554C60.6178 89.1802 60.4426 89.7537 60.4426 90.4759V95H58.8337ZM76.6863 95.1434C75.3907 95.1434 74.3712 94.777 73.6278 94.0442C72.8844 93.3114 72.5127 92.2972 72.5127 91.0016C72.5127 90.1626 72.672 89.4298 72.9906 88.8032C73.3198 88.1766 73.7711 87.6934 74.3446 87.3536C74.9287 87.0031 75.6031 86.8279 76.3677 86.8279C77.1218 86.8279 77.7537 86.9872 78.2634 87.3058C78.7732 87.6244 79.1608 88.0758 79.4263 88.6599C79.6918 89.2333 79.8246 89.913 79.8246 90.6989V91.2087H73.7711V90.2847H78.7254L78.4546 90.4918C78.4546 89.6953 78.274 89.0793 77.9129 88.6439C77.5625 88.1979 77.0527 87.9749 76.3837 87.9749C75.6403 87.9749 75.0668 88.2351 74.6632 88.7554C74.2597 89.2652 74.0579 89.9714 74.0579 90.8741V91.0334C74.0579 91.9786 74.2862 92.6901 74.7429 93.168C75.2102 93.6459 75.8686 93.8849 76.7182 93.8849C77.1855 93.8849 77.6209 93.8212 78.0245 93.6937C78.4386 93.5557 78.8316 93.3327 79.2033 93.0247L79.729 94.1238C79.3573 94.4531 78.9059 94.7079 78.3749 94.8885C77.8439 95.0584 77.2811 95.1434 76.6863 95.1434ZM85.6788 88.8669V86.9713H87.5745V88.8669H85.6788ZM85.6788 95V93.1043H87.5745V95H85.6788Z" fill="#474747"/>
<path d="M106.322 95V83.7693H111.085C112.285 83.7693 113.204 84.0614 113.841 84.6455C114.489 85.219 114.813 86.0155 114.813 87.035C114.813 88.0545 114.489 88.8563 113.841 89.4404C113.204 90.0245 112.285 90.3166 111.085 90.3166H107.979V95H106.322ZM107.979 88.9944H110.91C111.664 88.9944 112.232 88.8245 112.615 88.4846C112.997 88.1448 113.188 87.6616 113.188 87.035C113.188 86.419 112.997 85.9411 112.615 85.6013C112.232 85.2615 111.664 85.0915 110.91 85.0915H107.979V88.9944ZM116.477 95V88.9625C116.477 88.6333 116.466 88.3041 116.445 87.9749C116.434 87.635 116.413 87.3005 116.381 86.9713H117.942L118.117 89.0422H117.862C117.969 88.543 118.149 88.1289 118.404 87.7996C118.659 87.4704 118.967 87.2262 119.328 87.0669C119.7 86.9076 120.087 86.8279 120.491 86.8279C120.661 86.8279 120.804 86.8385 120.921 86.8598C121.038 86.8704 121.155 86.8916 121.272 86.9235L121.256 88.3572C121.075 88.2828 120.916 88.2404 120.778 88.2297C120.65 88.2085 120.491 88.1979 120.3 88.1979C119.832 88.1979 119.434 88.3041 119.105 88.5165C118.776 88.7183 118.526 88.9944 118.356 89.3448C118.186 89.6953 118.101 90.0723 118.101 90.4759V95H116.477ZM125.51 95.1434C124.798 95.1434 124.177 94.9788 123.646 94.6495C123.115 94.3203 122.701 93.8424 122.404 93.2158C122.117 92.5893 121.974 91.8459 121.974 90.9856C121.974 90.1148 122.117 89.3714 122.404 88.7554C122.701 88.1395 123.115 87.6669 123.646 87.3377C124.177 86.9978 124.798 86.8279 125.51 86.8279C126.211 86.8279 126.822 87.0031 127.342 87.3536C127.862 87.7041 128.207 88.182 128.377 88.7873H128.202L128.361 86.9713H129.923C129.891 87.3005 129.859 87.6297 129.827 87.9589C129.806 88.2775 129.795 88.5908 129.795 88.8988V95H128.186V93.2158H128.361C128.192 93.8106 127.841 94.2831 127.31 94.6336C126.79 94.9734 126.19 95.1434 125.51 95.1434ZM125.908 93.8849C126.599 93.8849 127.151 93.6406 127.565 93.1521C127.99 92.6636 128.202 91.9414 128.202 90.9856C128.202 90.0298 127.99 89.313 127.565 88.8351C127.151 88.3466 126.599 88.1023 125.908 88.1023C125.207 88.1023 124.644 88.3466 124.22 88.8351C123.805 89.313 123.598 90.0298 123.598 90.9856C123.598 91.9414 123.805 92.6636 124.22 93.1521C124.634 93.6406 125.197 93.8849 125.908 93.8849ZM132.143 95V83.2755H133.752V90.4759H133.784L137.288 86.9713H139.279L135.042 91.1927L135.058 90.4759L139.63 95H137.591L133.784 91.3202H133.752V95H132.143ZM143.618 95.1434C142.906 95.1434 142.285 94.9788 141.754 94.6495C141.223 94.3203 140.809 93.8424 140.512 93.2158C140.225 92.5893 140.081 91.8459 140.081 90.9856C140.081 90.1148 140.225 89.3714 140.512 88.7554C140.809 88.1395 141.223 87.6669 141.754 87.3377C142.285 86.9978 142.906 86.8279 143.618 86.8279C144.319 86.8279 144.93 87.0031 145.45 87.3536C145.97 87.7041 146.315 88.182 146.485 88.7873H146.31L146.469 86.9713H148.031C147.999 87.3005 147.967 87.6297 147.935 87.9589C147.914 88.2775 147.903 88.5908 147.903 88.8988V95H146.294V93.2158H146.469C146.299 93.8106 145.949 94.2831 145.418 94.6336C144.898 94.9734 144.298 95.1434 143.618 95.1434ZM144.016 93.8849C144.706 93.8849 145.259 93.6406 145.673 93.1521C146.098 92.6636 146.31 91.9414 146.31 90.9856C146.31 90.0298 146.098 89.313 145.673 88.8351C145.259 88.3466 144.706 88.1023 144.016 88.1023C143.315 88.1023 142.752 88.3466 142.328 88.8351C141.913 89.313 141.706 90.0298 141.706 90.9856C141.706 91.9414 141.913 92.6636 142.328 93.1521C142.742 93.6406 143.305 93.8849 144.016 93.8849ZM153.007 95.1434C152.338 95.1434 151.722 95.0584 151.159 94.8885C150.596 94.7186 150.129 94.4796 149.757 94.1716L150.251 93.0725C150.644 93.3698 151.079 93.5928 151.557 93.7415C152.035 93.8902 152.523 93.9645 153.023 93.9645C153.607 93.9645 154.047 93.8637 154.345 93.6619C154.642 93.4495 154.791 93.1627 154.791 92.8017C154.791 92.5255 154.695 92.3025 154.504 92.1326C154.324 91.9627 154.021 91.8352 153.596 91.7503L152.067 91.4476C151.387 91.2989 150.872 91.044 150.522 90.683C150.171 90.3219 149.996 89.8599 149.996 89.2971C149.996 88.8192 150.123 88.3944 150.378 88.0227C150.644 87.651 151.015 87.3589 151.493 87.1465C151.982 86.9341 152.55 86.8279 153.198 86.8279C153.793 86.8279 154.345 86.9129 154.855 87.0828C155.364 87.2527 155.789 87.497 156.129 87.8156L155.619 88.8829C155.29 88.6068 154.918 88.3944 154.504 88.2457C154.09 88.0864 153.67 88.0067 153.246 88.0067C152.651 88.0067 152.21 88.1182 151.923 88.3413C151.637 88.5643 151.493 88.8563 151.493 89.2174C151.493 89.4935 151.578 89.7219 151.748 89.9024C151.929 90.0723 152.21 90.2051 152.592 90.3006L154.122 90.6033C154.844 90.752 155.386 90.9963 155.747 91.3361C156.108 91.6759 156.288 92.1326 156.288 92.7061C156.288 93.2052 156.15 93.6406 155.874 94.0123C155.598 94.384 155.216 94.6655 154.727 94.8566C154.239 95.0478 153.665 95.1434 153.007 95.1434ZM158.185 95V83.2755H159.794V88.6758H159.571C159.804 88.0704 160.181 87.6138 160.702 87.3058C161.222 86.9872 161.822 86.8279 162.502 86.8279C163.458 86.8279 164.169 87.0934 164.636 87.6244C165.104 88.1448 165.337 88.936 165.337 89.998V95H163.728V90.0936C163.728 89.4033 163.59 88.9041 163.314 88.5961C163.049 88.2775 162.624 88.1182 162.04 88.1182C161.36 88.1182 160.813 88.3306 160.399 88.7554C159.995 89.1696 159.794 89.7219 159.794 90.4122V95H158.185Z" fill="#181423"/>
<path d="M36.1593 133L41.1613 121.769H42.5791L47.6608 133H45.9563L44.5703 129.814L45.2713 130.26H38.4692L39.2179 129.814L37.832 133H36.1593ZM41.8463 123.585L39.425 129.304L39.0426 128.938H44.6978L44.3792 129.304L41.91 123.585H41.8463ZM52.5402 136.568C51.818 136.568 51.1596 136.483 50.5649 136.313C49.9808 136.144 49.4551 135.889 48.9878 135.549L49.3861 134.37C49.7153 134.593 50.0392 134.768 50.3578 134.896C50.6764 135.034 51.0109 135.135 51.3614 135.198C51.7118 135.262 52.0729 135.294 52.4446 135.294C53.2093 135.294 53.7827 135.097 54.1651 134.705C54.558 134.322 54.7545 133.765 54.7545 133.032V130.881H54.9138C54.7438 131.476 54.3934 131.949 53.8624 132.299C53.342 132.639 52.7367 132.809 52.0464 132.809C51.3136 132.809 50.6764 132.65 50.1348 132.331C49.6038 132.002 49.1896 131.54 48.8922 130.945C48.6055 130.34 48.4621 129.628 48.4621 128.81C48.4621 127.993 48.6055 127.286 48.8922 126.692C49.1896 126.097 49.6038 125.64 50.1348 125.322C50.6764 124.993 51.3136 124.828 52.0464 124.828C52.7473 124.828 53.3526 125.003 53.8624 125.354C54.3828 125.693 54.7279 126.161 54.8978 126.755L54.7545 126.628L54.8978 124.971H56.459C56.4165 125.3 56.3846 125.63 56.3634 125.959C56.3422 126.278 56.3315 126.591 56.3315 126.899V132.841C56.3315 134.051 56.0076 134.975 55.3598 135.613C54.7226 136.25 53.7827 136.568 52.5402 136.568ZM52.4287 131.55C53.1296 131.55 53.6872 131.311 54.1013 130.834C54.5261 130.356 54.7385 129.681 54.7385 128.81C54.7385 127.94 54.5261 127.271 54.1013 126.803C53.6872 126.336 53.1296 126.102 52.4287 126.102C51.7065 126.102 51.133 126.336 50.7082 126.803C50.2941 127.271 50.087 127.94 50.087 128.81C50.087 129.681 50.2941 130.356 50.7082 130.834C51.133 131.311 51.7065 131.55 52.4287 131.55ZM62.3898 133.143C61.0941 133.143 60.0746 132.777 59.3312 132.044C58.5878 131.311 58.2161 130.297 58.2161 129.002C58.2161 128.163 58.3754 127.43 58.694 126.803C59.0232 126.177 59.4746 125.693 60.0481 125.354C60.6322 125.003 61.3065 124.828 62.0712 124.828C62.8252 124.828 63.4571 124.987 63.9669 125.306C64.4766 125.624 64.8642 126.076 65.1297 126.66C65.3952 127.233 65.528 127.913 65.528 128.699V129.209H59.4746V128.285H64.4288L64.158 128.492C64.158 127.695 63.9775 127.079 63.6164 126.644C63.2659 126.198 62.7562 125.975 62.0871 125.975C61.3437 125.975 60.7702 126.235 60.3667 126.755C59.9631 127.265 59.7613 127.971 59.7613 128.874V129.033C59.7613 129.979 59.9897 130.69 60.4463 131.168C60.9136 131.646 61.572 131.885 62.4216 131.885C62.8889 131.885 63.3243 131.821 63.7279 131.694C64.1421 131.556 64.535 131.333 64.9067 131.025L65.4324 132.124C65.0607 132.453 64.6094 132.708 64.0784 132.888C63.5474 133.058 62.9845 133.143 62.3898 133.143ZM67.1353 126.867V124.971H69.031V126.867H67.1353ZM67.1353 133V131.104H69.031V133H67.1353Z" fill="#474747"/>
<path d="M90.9383 133.143C90.4498 133.143 89.9666 133.09 89.4887 132.984C89.0108 132.878 88.5647 132.729 88.1506 132.538C87.7364 132.336 87.3753 132.097 87.0673 131.821L87.6408 130.563C88.1506 130.956 88.6709 131.253 89.2019 131.455C89.7436 131.646 90.3117 131.742 90.9064 131.742C91.6605 131.742 92.2499 131.545 92.6747 131.152C93.1101 130.759 93.3278 130.233 93.3278 129.575C93.3278 128.895 93.1207 128.348 92.7065 127.934C92.303 127.509 91.7401 127.297 91.018 127.297C90.5188 127.297 90.0622 127.398 89.648 127.6C89.2444 127.802 88.8886 128.109 88.5807 128.524H87.4337V121.769H94.2358V123.155H89.0108V127.201H88.5966C88.8833 126.798 89.2657 126.485 89.7436 126.262C90.2321 126.039 90.779 125.927 91.3843 125.927C92.1065 125.927 92.7331 126.076 93.2641 126.373C93.7951 126.67 94.204 127.085 94.4907 127.616C94.7881 128.147 94.9367 128.773 94.9367 129.495C94.9367 130.218 94.7721 130.855 94.4429 131.407C94.1243 131.949 93.6623 132.373 93.057 132.681C92.4623 132.989 91.756 133.143 90.9383 133.143ZM97.4634 133V131.614H100.076V123.171H100.904L97.7183 125.115V123.522L100.538 121.769H101.733V131.614H104.186V133H97.4634Z" fill="#181423"/>
<path d="M42.611 171.143C41.3684 171.143 40.3223 170.915 39.4727 170.458C38.6338 169.991 38.0019 169.327 37.5771 168.467C37.1523 167.607 36.9399 166.582 36.9399 165.393C36.9399 164.203 37.1629 163.178 37.6089 162.318C38.0656 161.458 38.7134 160.794 39.5524 160.327C40.402 159.86 41.4215 159.626 42.611 159.626C43.4287 159.626 44.1402 159.743 44.7456 159.976C45.3509 160.199 45.8925 160.529 46.3704 160.964L45.781 162.254C45.4412 161.968 45.112 161.739 44.7934 161.569C44.4748 161.4 44.1455 161.277 43.8057 161.203C43.4659 161.118 43.0676 161.076 42.611 161.076C41.3259 161.076 40.3489 161.453 39.6798 162.207C39.0108 162.961 38.6762 164.028 38.6762 165.409C38.6762 166.81 38.9948 167.878 39.632 168.61C40.2799 169.343 41.2941 169.71 42.6747 169.71C43.1526 169.71 43.6252 169.667 44.0924 169.582C44.5597 169.487 45.0111 169.349 45.4465 169.168L45.1279 169.949V166.269H42.3561V165.026H46.5138V170.331C46.0253 170.575 45.4253 170.772 44.7137 170.92C44.0128 171.069 43.3119 171.143 42.611 171.143ZM52.6047 171.143C51.309 171.143 50.2895 170.777 49.5461 170.044C48.8027 169.311 48.431 168.297 48.431 167.002C48.431 166.163 48.5903 165.43 48.9089 164.803C49.2381 164.177 49.6895 163.693 50.263 163.354C50.8471 163.003 51.5214 162.828 52.2861 162.828C53.0401 162.828 53.672 162.987 54.1817 163.306C54.6915 163.624 55.0791 164.076 55.3446 164.66C55.6101 165.233 55.7429 165.913 55.7429 166.699V167.209H49.6895V166.285H54.6437L54.3729 166.492C54.3729 165.695 54.1924 165.079 53.8313 164.644C53.4808 164.198 52.9711 163.975 52.302 163.975C51.5586 163.975 50.9851 164.235 50.5816 164.755C50.178 165.265 49.9762 165.971 49.9762 166.874V167.033C49.9762 167.979 50.2045 168.69 50.6612 169.168C51.1285 169.646 51.7869 169.885 52.6365 169.885C53.1038 169.885 53.5392 169.821 53.9428 169.694C54.357 169.556 54.7499 169.333 55.1216 169.025L55.6473 170.124C55.2756 170.453 54.8242 170.708 54.2932 170.888C53.7622 171.058 53.1994 171.143 52.6047 171.143ZM57.5891 171V164.899C57.5891 164.591 57.5732 164.278 57.5413 163.959C57.5201 163.63 57.4936 163.3 57.4617 162.971H59.0228L59.1662 164.66H58.975C59.2193 164.065 59.5963 163.614 60.1061 163.306C60.6158 162.987 61.2052 162.828 61.8743 162.828C62.8195 162.828 63.531 163.088 64.0089 163.608C64.4974 164.129 64.7417 164.936 64.7417 166.03V171H63.1328V166.125C63.1328 165.414 62.9894 164.904 62.7027 164.596C62.4265 164.278 62.0017 164.118 61.4283 164.118C60.7486 164.118 60.207 164.331 59.8034 164.755C59.3998 165.17 59.1981 165.732 59.1981 166.444V171H57.5891ZM70.1065 171.143C69.4056 171.143 68.7843 170.979 68.2427 170.65C67.7117 170.32 67.2975 169.842 67.0002 169.216C66.7134 168.589 66.57 167.846 66.57 166.986C66.57 166.115 66.7134 165.371 67.0002 164.755C67.2975 164.139 67.7117 163.667 68.2427 163.338C68.7843 162.998 69.4056 162.828 70.1065 162.828C70.7968 162.828 71.4021 163.003 71.9225 163.354C72.4535 163.693 72.804 164.161 72.9739 164.755H72.7827V159.276H74.3917V171H72.7987V169.184H72.9898C72.8093 169.789 72.4588 170.267 71.9385 170.618C71.4181 170.968 70.8074 171.143 70.1065 171.143ZM70.5048 169.885C71.1951 169.885 71.7526 169.641 72.1774 169.152C72.6022 168.664 72.8146 167.941 72.8146 166.986C72.8146 166.03 72.6022 165.313 72.1774 164.835C71.7526 164.347 71.1951 164.102 70.5048 164.102C69.8038 164.102 69.241 164.347 68.8162 164.835C68.402 165.313 68.1949 166.03 68.1949 166.986C68.1949 167.941 68.402 168.664 68.8162 169.152C69.241 169.641 69.8038 169.885 70.5048 169.885ZM80.451 171.143C79.1554 171.143 78.1359 170.777 77.3925 170.044C76.6491 169.311 76.2774 168.297 76.2774 167.002C76.2774 166.163 76.4367 165.43 76.7553 164.803C77.0845 164.177 77.5359 163.693 78.1093 163.354C78.6934 163.003 79.3678 162.828 80.1324 162.828C80.8865 162.828 81.5184 162.987 82.0281 163.306C82.5379 163.624 82.9255 164.076 83.191 164.66C83.4565 165.233 83.5893 165.913 83.5893 166.699V167.209H77.5359V166.285H82.4901L82.2193 166.492C82.2193 165.695 82.0387 165.079 81.6777 164.644C81.3272 164.198 80.8174 163.975 80.1484 163.975C79.405 163.975 78.8315 164.235 78.4279 164.755C78.0244 165.265 77.8226 165.971 77.8226 166.874V167.033C77.8226 167.979 78.0509 168.69 78.5076 169.168C78.9749 169.646 79.6333 169.885 80.4829 169.885C80.9502 169.885 81.3856 169.821 81.7892 169.694C82.2033 169.556 82.5963 169.333 82.968 169.025L83.4937 170.124C83.122 170.453 82.6706 170.708 82.1396 170.888C81.6086 171.058 81.0458 171.143 80.451 171.143ZM85.4037 171V164.963C85.4037 164.633 85.393 164.304 85.3718 163.975C85.3612 163.635 85.3399 163.3 85.3081 162.971H86.8692L87.0444 165.042H86.7896C86.8958 164.543 87.0763 164.129 87.3312 163.8C87.5861 163.47 87.894 163.226 88.2551 163.067C88.6268 162.908 89.0145 162.828 89.418 162.828C89.5879 162.828 89.7313 162.839 89.8481 162.86C89.9649 162.87 90.0818 162.892 90.1986 162.923L90.1827 164.357C90.0021 164.283 89.8428 164.24 89.7048 164.23C89.5773 164.209 89.418 164.198 89.2269 164.198C88.7596 164.198 88.3613 164.304 88.0321 164.516C87.7029 164.718 87.4533 164.994 87.2834 165.345C87.1135 165.695 87.0285 166.072 87.0285 166.476V171H85.4037ZM95.4484 164.867V162.971H97.3441V164.867H95.4484ZM95.4484 171V169.104H97.3441V171H95.4484Z" fill="#474747"/>
<path d="M116.338 171V159.769H117.788L122.121 169.534H121.643L125.976 159.769H127.409V171H125.912V162.015H126.438L122.392 171H121.356L117.31 162.015H117.851V171H116.338ZM133.021 171.143C132.309 171.143 131.688 170.979 131.157 170.65C130.626 170.32 130.212 169.842 129.915 169.216C129.628 168.589 129.484 167.846 129.484 166.986C129.484 166.115 129.628 165.371 129.915 164.755C130.212 164.139 130.626 163.667 131.157 163.338C131.688 162.998 132.309 162.828 133.021 162.828C133.722 162.828 134.333 163.003 134.853 163.354C135.373 163.704 135.718 164.182 135.888 164.787H135.713L135.872 162.971H137.434C137.402 163.3 137.37 163.63 137.338 163.959C137.317 164.278 137.306 164.591 137.306 164.899V171H135.697V169.216H135.872C135.702 169.811 135.352 170.283 134.821 170.634C134.301 170.973 133.701 171.143 133.021 171.143ZM133.419 169.885C134.109 169.885 134.662 169.641 135.076 169.152C135.501 168.664 135.713 167.941 135.713 166.986C135.713 166.03 135.501 165.313 135.076 164.835C134.662 164.347 134.109 164.102 133.419 164.102C132.718 164.102 132.155 164.347 131.731 164.835C131.316 165.313 131.109 166.03 131.109 166.986C131.109 167.941 131.316 168.664 131.731 169.152C132.145 169.641 132.708 169.885 133.419 169.885ZM139.654 171V159.276H141.263V171H139.654ZM147.332 171.143C146.037 171.143 145.017 170.777 144.274 170.044C143.53 169.311 143.159 168.297 143.159 167.002C143.159 166.163 143.318 165.43 143.637 164.803C143.966 164.177 144.417 163.693 144.991 163.354C145.575 163.003 146.249 162.828 147.014 162.828C147.768 162.828 148.4 162.987 148.909 163.306C149.419 163.624 149.807 164.076 150.072 164.66C150.338 165.233 150.471 165.913 150.471 166.699V167.209H144.417V166.285H149.371L149.101 166.492C149.101 165.695 148.92 165.079 148.559 164.644C148.209 164.198 147.699 163.975 147.03 163.975C146.286 163.975 145.713 164.235 145.309 164.755C144.906 165.265 144.704 165.971 144.704 166.874V167.033C144.704 167.979 144.932 168.69 145.389 169.168C145.856 169.646 146.515 169.885 147.364 169.885C147.832 169.885 148.267 169.821 148.671 169.694C149.085 169.556 149.478 169.333 149.849 169.025L150.375 170.124C150.003 170.453 149.552 170.708 149.021 170.888C148.49 171.058 147.927 171.143 147.332 171.143Z" fill="#181423"/>
<path d="M37.3222 209V197.769H38.9789V209H37.3222ZM44.2283 209.143C43.5593 209.143 42.9433 209.058 42.3805 208.888C41.8176 208.719 41.3503 208.48 40.9786 208.172L41.4725 207.072C41.8654 207.37 42.3008 207.593 42.7787 207.742C43.2566 207.89 43.7451 207.965 44.2443 207.965C44.8284 207.965 45.2691 207.864 45.5665 207.662C45.8638 207.449 46.0125 207.163 46.0125 206.802C46.0125 206.526 45.9169 206.303 45.7258 206.133C45.5452 205.963 45.2426 205.835 44.8178 205.75L43.2885 205.448C42.6088 205.299 42.0937 205.044 41.7433 204.683C41.3928 204.322 41.2176 203.86 41.2176 203.297C41.2176 202.819 41.345 202.394 41.5999 202.023C41.8654 201.651 42.2371 201.359 42.715 201.147C43.2035 200.934 43.7717 200.828 44.4195 200.828C45.0142 200.828 45.5665 200.913 46.0762 201.083C46.586 201.253 47.0108 201.497 47.3506 201.816L46.8409 202.883C46.5116 202.607 46.1399 202.394 45.7258 202.246C45.3116 202.086 44.8921 202.007 44.4673 202.007C43.8726 202.007 43.4318 202.118 43.1451 202.341C42.8584 202.564 42.715 202.856 42.715 203.217C42.715 203.494 42.8 203.722 42.9699 203.902C43.1504 204.072 43.4318 204.205 43.8142 204.301L45.3434 204.603C46.0656 204.752 46.6072 204.996 46.9683 205.336C47.3294 205.676 47.5099 206.133 47.5099 206.706C47.5099 207.205 47.3719 207.641 47.0957 208.012C46.8196 208.384 46.4373 208.665 45.9488 208.857C45.4603 209.048 44.8868 209.143 44.2283 209.143ZM52.1622 209.143C51.4932 209.143 50.8772 209.058 50.3144 208.888C49.7515 208.719 49.2842 208.48 48.9125 208.172L49.4063 207.072C49.7993 207.37 50.2347 207.593 50.7126 207.742C51.1905 207.89 51.679 207.965 52.1782 207.965C52.7623 207.965 53.203 207.864 53.5004 207.662C53.7977 207.449 53.9464 207.163 53.9464 206.802C53.9464 206.526 53.8508 206.303 53.6597 206.133C53.4791 205.963 53.1764 205.835 52.7516 205.75L51.2224 205.448C50.5427 205.299 50.0276 205.044 49.6772 204.683C49.3267 204.322 49.1515 203.86 49.1515 203.297C49.1515 202.819 49.2789 202.394 49.5338 202.023C49.7993 201.651 50.171 201.359 50.6489 201.147C51.1374 200.934 51.7056 200.828 52.3534 200.828C52.9481 200.828 53.5004 200.913 54.0101 201.083C54.5199 201.253 54.9447 201.497 55.2845 201.816L54.7748 202.883C54.4455 202.607 54.0738 202.394 53.6597 202.246C53.2455 202.086 52.826 202.007 52.4012 202.007C51.8065 202.007 51.3657 202.118 51.079 202.341C50.7923 202.564 50.6489 202.856 50.6489 203.217C50.6489 203.494 50.7338 203.722 50.9038 203.902C51.0843 204.072 51.3657 204.205 51.7481 204.301L53.2773 204.603C53.9995 204.752 54.5411 204.996 54.9022 205.336C55.2633 205.676 55.4438 206.133 55.4438 206.706C55.4438 207.205 55.3058 207.641 55.0296 208.012C54.7535 208.384 54.3712 208.665 53.8827 208.857C53.3942 209.048 52.8207 209.143 52.1622 209.143ZM60.1917 209.143C59.2253 209.143 58.4978 208.883 58.0093 208.363C57.5314 207.832 57.2924 207.019 57.2924 205.926V200.971H58.9014V205.894C58.9014 206.563 59.0394 207.057 59.3155 207.375C59.5917 207.694 60.0112 207.853 60.574 207.853C61.2112 207.853 61.7263 207.641 62.1192 207.216C62.5122 206.791 62.7086 206.228 62.7086 205.527V200.971H64.3176V209H62.7564V207.28H62.9635C62.7405 207.874 62.3847 208.336 61.8962 208.665C61.4077 208.984 60.8395 209.143 60.1917 209.143ZM70.3859 209.143C69.0903 209.143 68.0707 208.777 67.3273 208.044C66.5839 207.311 66.2122 206.297 66.2122 205.002C66.2122 204.163 66.3715 203.43 66.6901 202.803C67.0194 202.177 67.4707 201.693 68.0442 201.354C68.6283 201.003 69.3027 200.828 70.0673 200.828C70.8213 200.828 71.4532 200.987 71.963 201.306C72.4727 201.624 72.8604 202.076 73.1259 202.66C73.3914 203.233 73.5241 203.913 73.5241 204.699V205.209H67.4707V204.285H72.4249L72.1541 204.492C72.1541 203.695 71.9736 203.079 71.6125 202.644C71.2621 202.198 70.7523 201.975 70.0832 201.975C69.3398 201.975 68.7664 202.235 68.3628 202.755C67.9592 203.265 67.7575 203.971 67.7575 204.874V205.033C67.7575 205.979 67.9858 206.69 68.4424 207.168C68.9097 207.646 69.5682 207.885 70.4178 207.885C70.885 207.885 71.3205 207.821 71.724 207.694C72.1382 207.556 72.5311 207.333 72.9028 207.025L73.4285 208.124C73.0568 208.453 72.6055 208.708 72.0745 208.888C71.5435 209.058 70.9806 209.143 70.3859 209.143ZM78.1263 209.143C77.4572 209.143 76.8412 209.058 76.2784 208.888C75.7155 208.719 75.2482 208.48 74.8765 208.172L75.3704 207.072C75.7633 207.37 76.1987 207.593 76.6766 207.742C77.1545 207.89 77.6431 207.965 78.1422 207.965C78.7263 207.965 79.167 207.864 79.4644 207.662C79.7617 207.449 79.9104 207.163 79.9104 206.802C79.9104 206.526 79.8148 206.303 79.6237 206.133C79.4431 205.963 79.1405 205.835 78.7157 205.75L77.1864 205.448C76.5067 205.299 75.9916 205.044 75.6412 204.683C75.2907 204.322 75.1155 203.86 75.1155 203.297C75.1155 202.819 75.2429 202.394 75.4978 202.023C75.7633 201.651 76.135 201.359 76.6129 201.147C77.1014 200.934 77.6696 200.828 78.3174 200.828C78.9121 200.828 79.4644 200.913 79.9741 201.083C80.4839 201.253 80.9087 201.497 81.2485 201.816L80.7388 202.883C80.4096 202.607 80.0379 202.394 79.6237 202.246C79.2095 202.086 78.79 202.007 78.3652 202.007C77.7705 202.007 77.3298 202.118 77.043 202.341C76.7563 202.564 76.6129 202.856 76.6129 203.217C76.6129 203.494 76.6979 203.722 76.8678 203.902C77.0483 204.072 77.3298 204.205 77.7121 204.301L79.2414 204.603C79.9635 204.752 80.5051 204.996 80.8662 205.336C81.2273 205.676 81.4078 206.133 81.4078 206.706C81.4078 207.205 81.2698 207.641 80.9937 208.012C80.7175 208.384 80.3352 208.665 79.8467 208.857C79.3582 209.048 78.7847 209.143 78.1263 209.143ZM87.3441 209.908H85.9901L90.1637 197.052H91.5178L87.3441 209.908ZM101.767 209.143C100.62 209.143 99.6433 208.91 98.8361 208.442C98.029 207.975 97.4077 207.311 96.9723 206.451C96.5475 205.58 96.3351 204.556 96.3351 203.377C96.3351 202.198 96.5475 201.178 96.9723 200.318C97.4077 199.458 98.029 198.794 98.8361 198.327C99.6433 197.86 100.62 197.626 101.767 197.626C102.564 197.626 103.275 197.743 103.902 197.976C104.528 198.21 105.075 198.55 105.543 198.996L104.969 200.318C104.459 199.883 103.96 199.569 103.472 199.378C102.994 199.187 102.436 199.092 101.799 199.092C100.588 199.092 99.6645 199.463 99.0273 200.207C98.3901 200.95 98.0715 202.007 98.0715 203.377C98.0715 204.747 98.3901 205.809 99.0273 206.563C99.6645 207.306 100.588 207.678 101.799 207.678C102.436 207.678 102.994 207.582 103.472 207.391C103.96 207.2 104.459 206.881 104.969 206.435L105.543 207.757C105.075 208.203 104.528 208.549 103.902 208.793C103.275 209.027 102.564 209.143 101.767 209.143ZM110.36 209.143C109.564 209.143 108.873 208.979 108.289 208.65C107.705 208.31 107.254 207.832 106.935 207.216C106.617 206.589 106.457 205.846 106.457 204.986C106.457 204.125 106.617 203.387 106.935 202.771C107.254 202.145 107.705 201.667 108.289 201.338C108.873 200.998 109.564 200.828 110.36 200.828C111.157 200.828 111.847 200.998 112.431 201.338C113.026 201.667 113.482 202.145 113.801 202.771C114.13 203.387 114.295 204.125 114.295 204.986C114.295 205.846 114.13 206.589 113.801 207.216C113.482 207.832 113.026 208.31 112.431 208.65C111.847 208.979 111.157 209.143 110.36 209.143ZM110.36 207.885C111.061 207.885 111.619 207.641 112.033 207.152C112.447 206.664 112.654 205.941 112.654 204.986C112.654 204.03 112.447 203.313 112.033 202.835C111.619 202.347 111.061 202.102 110.36 202.102C109.67 202.102 109.118 202.347 108.703 202.835C108.289 203.313 108.082 204.03 108.082 204.986C108.082 205.941 108.284 206.664 108.687 207.152C109.102 207.641 109.659 207.885 110.36 207.885ZM116.175 209V202.899C116.175 202.591 116.16 202.278 116.128 201.959C116.106 201.63 116.08 201.3 116.048 200.971H117.609L117.753 202.66H117.561C117.806 202.065 118.183 201.614 118.692 201.306C119.202 200.987 119.792 200.828 120.461 200.828C121.406 200.828 122.117 201.088 122.595 201.608C123.084 202.129 123.328 202.936 123.328 204.03V209H121.719V204.125C121.719 203.414 121.576 202.904 121.289 202.596C121.013 202.278 120.588 202.118 120.015 202.118C119.335 202.118 118.793 202.331 118.39 202.755C117.986 203.17 117.784 203.732 117.784 204.444V209H116.175ZM129.139 209.143C128.332 209.143 127.626 208.979 127.02 208.65C126.425 208.31 125.963 207.826 125.634 207.2C125.316 206.563 125.156 205.809 125.156 204.938C125.156 204.078 125.321 203.34 125.65 202.724C125.979 202.108 126.441 201.64 127.036 201.322C127.631 200.993 128.332 200.828 129.139 200.828C129.659 200.828 130.164 200.918 130.652 201.099C131.141 201.269 131.544 201.513 131.863 201.831L131.337 202.963C131.04 202.676 130.705 202.463 130.334 202.325C129.962 202.177 129.601 202.102 129.25 202.102C128.486 202.102 127.886 202.347 127.45 202.835C127.015 203.324 126.797 204.03 126.797 204.954C126.797 205.888 127.015 206.605 127.45 207.104C127.886 207.603 128.486 207.853 129.25 207.853C129.59 207.853 129.946 207.789 130.318 207.662C130.689 207.524 131.029 207.306 131.337 207.009L131.863 208.14C131.534 208.458 131.119 208.708 130.62 208.888C130.132 209.058 129.638 209.143 129.139 209.143ZM137.124 209.143C135.828 209.143 134.809 208.777 134.065 208.044C133.322 207.311 132.95 206.297 132.95 205.002C132.95 204.163 133.11 203.43 133.428 202.803C133.757 202.177 134.209 201.693 134.782 201.354C135.366 201.003 136.041 200.828 136.805 200.828C137.559 200.828 138.191 200.987 138.701 201.306C139.211 201.624 139.598 202.076 139.864 202.66C140.129 203.233 140.262 203.913 140.262 204.699V205.209H134.209V204.285H139.163L138.892 204.492C138.892 203.695 138.712 203.079 138.351 202.644C138 202.198 137.49 201.975 136.821 201.975C136.078 201.975 135.504 202.235 135.101 202.755C134.697 203.265 134.495 203.971 134.495 204.874V205.033C134.495 205.979 134.724 206.69 135.18 207.168C135.648 207.646 136.306 207.885 137.156 207.885C137.623 207.885 138.058 207.821 138.462 207.694C138.876 207.556 139.269 207.333 139.641 207.025L140.167 208.124C139.795 208.453 139.343 208.708 138.812 208.888C138.281 209.058 137.719 209.143 137.124 209.143ZM142.077 209V202.963C142.077 202.633 142.066 202.304 142.045 201.975C142.034 201.635 142.013 201.3 141.981 200.971H143.542L143.717 203.042H143.462C143.569 202.543 143.749 202.129 144.004 201.8C144.259 201.47 144.567 201.226 144.928 201.067C145.3 200.908 145.687 200.828 146.091 200.828C146.261 200.828 146.404 200.839 146.521 200.86C146.638 200.87 146.755 200.892 146.871 200.923L146.856 202.357C146.675 202.283 146.516 202.24 146.378 202.23C146.25 202.209 146.091 202.198 145.9 202.198C145.432 202.198 145.034 202.304 144.705 202.516C144.376 202.718 144.126 202.994 143.956 203.345C143.786 203.695 143.701 204.072 143.701 204.476V209H142.077ZM148.113 209V202.899C148.113 202.591 148.097 202.278 148.065 201.959C148.044 201.63 148.018 201.3 147.986 200.971H149.547L149.69 202.66H149.499C149.743 202.065 150.12 201.614 150.63 201.306C151.14 200.987 151.729 200.828 152.398 200.828C153.344 200.828 154.055 201.088 154.533 201.608C155.022 202.129 155.266 202.936 155.266 204.03V209H153.657V204.125C153.657 203.414 153.514 202.904 153.227 202.596C152.951 202.278 152.526 202.118 151.952 202.118C151.273 202.118 150.731 202.331 150.328 202.755C149.924 203.17 149.722 203.732 149.722 204.444V209H148.113ZM161.564 202.867V200.971H163.46V202.867H161.564ZM161.564 209V207.104H163.46V209H161.564Z" fill="#474747"/>
<rect x="230" y="350" width="143" height="40" rx="20" fill="#CB1B5B"/>
<path d="M258.684 375.14C257.657 375.14 256.775 374.935 256.038 374.524C255.31 374.104 254.75 373.516 254.358 372.76C253.966 371.995 253.77 371.094 253.77 370.058C253.77 369.022 253.966 368.126 254.358 367.37C254.75 366.614 255.31 366.031 256.038 365.62C256.775 365.2 257.657 364.99 258.684 364.99C259.375 364.99 259.995 365.088 260.546 365.284C261.106 365.48 261.587 365.769 261.988 366.152L261.4 367.58C260.961 367.225 260.537 366.973 260.126 366.824C259.725 366.665 259.263 366.586 258.74 366.586C257.741 366.586 256.976 366.889 256.444 367.496C255.921 368.093 255.66 368.947 255.66 370.058C255.66 371.169 255.921 372.027 256.444 372.634C256.976 373.241 257.741 373.544 258.74 373.544C259.263 373.544 259.725 373.469 260.126 373.32C260.537 373.161 260.961 372.9 261.4 372.536L261.988 373.964C261.587 374.337 261.106 374.627 260.546 374.832C259.995 375.037 259.375 375.14 258.684 375.14ZM266.236 375.14C265.508 375.14 264.878 374.991 264.346 374.692C263.814 374.393 263.398 373.969 263.1 373.418C262.81 372.867 262.666 372.214 262.666 371.458C262.666 370.702 262.81 370.053 263.1 369.512C263.398 368.961 263.814 368.537 264.346 368.238C264.878 367.939 265.508 367.79 266.236 367.79C266.964 367.79 267.594 367.939 268.126 368.238C268.667 368.537 269.082 368.961 269.372 369.512C269.67 370.053 269.82 370.702 269.82 371.458C269.82 372.214 269.67 372.867 269.372 373.418C269.082 373.969 268.667 374.393 268.126 374.692C267.594 374.991 266.964 375.14 266.236 375.14ZM266.236 373.796C266.786 373.796 267.225 373.605 267.552 373.222C267.878 372.83 268.042 372.242 268.042 371.458C268.042 370.674 267.878 370.091 267.552 369.708C267.225 369.325 266.786 369.134 266.236 369.134C265.685 369.134 265.246 369.325 264.92 369.708C264.593 370.091 264.43 370.674 264.43 371.458C264.43 372.242 264.593 372.83 264.92 373.222C265.246 373.605 265.685 373.796 266.236 373.796ZM271.329 375V369.694C271.329 369.405 271.32 369.111 271.301 368.812C271.282 368.513 271.254 368.219 271.217 367.93H272.911L273.051 369.33H272.883C273.107 368.835 273.438 368.457 273.877 368.196C274.316 367.925 274.824 367.79 275.403 367.79C276.234 367.79 276.859 368.023 277.279 368.49C277.699 368.957 277.909 369.685 277.909 370.674V375H276.159V370.758C276.159 370.189 276.047 369.783 275.823 369.54C275.608 369.288 275.282 369.162 274.843 369.162C274.302 369.162 273.872 369.33 273.555 369.666C273.238 370.002 273.079 370.45 273.079 371.01V375H271.329ZM280.241 375V369.246H278.883V367.93H280.731L280.241 368.378V367.3C280.241 366.423 280.46 365.76 280.899 365.312C281.347 364.864 281.995 364.64 282.845 364.64C283.05 364.64 283.265 364.654 283.489 364.682C283.722 364.71 283.923 364.761 284.091 364.836V366.208C283.969 366.161 283.825 366.124 283.657 366.096C283.489 366.068 283.325 366.054 283.167 366.054C282.803 366.054 282.513 366.161 282.299 366.376C282.084 366.581 281.977 366.917 281.977 367.384V368.238L281.725 367.93H286.639V375H284.889V369.246H281.991V375H280.241ZM284.791 366.6V364.892H286.737V366.6H284.791ZM288.528 375V369.736C288.528 369.437 288.519 369.134 288.5 368.826C288.491 368.518 288.467 368.219 288.43 367.93H290.124L290.32 369.862H290.04C290.133 369.395 290.287 369.008 290.502 368.7C290.726 368.392 290.997 368.163 291.314 368.014C291.631 367.865 291.977 367.79 292.35 367.79C292.518 367.79 292.653 367.799 292.756 367.818C292.859 367.827 292.961 367.851 293.064 367.888L293.05 369.428C292.873 369.353 292.719 369.307 292.588 369.288C292.467 369.269 292.313 369.26 292.126 369.26C291.725 369.26 291.384 369.344 291.104 369.512C290.833 369.68 290.628 369.913 290.488 370.212C290.357 370.511 290.292 370.851 290.292 371.234V375H288.528ZM294.038 375V369.694C294.038 369.405 294.029 369.111 294.01 368.812C293.991 368.513 293.963 368.219 293.926 367.93H295.62L295.76 369.33H295.592C295.788 368.845 296.087 368.467 296.488 368.196C296.899 367.925 297.384 367.79 297.944 367.79C298.504 367.79 298.966 367.925 299.33 368.196C299.703 368.457 299.965 368.868 300.114 369.428H299.89C300.086 368.924 300.408 368.527 300.856 368.238C301.304 367.939 301.817 367.79 302.396 367.79C303.189 367.79 303.782 368.023 304.174 368.49C304.566 368.957 304.762 369.685 304.762 370.674V375H303.012V370.744C303.012 370.184 302.919 369.783 302.732 369.54C302.545 369.288 302.247 369.162 301.836 369.162C301.351 369.162 300.968 369.335 300.688 369.68C300.408 370.016 300.268 370.473 300.268 371.052V375H298.518V370.744C298.518 370.184 298.425 369.783 298.238 369.54C298.051 369.288 297.753 369.162 297.342 369.162C296.857 369.162 296.474 369.335 296.194 369.68C295.923 370.016 295.788 370.473 295.788 371.052V375H294.038ZM318.732 375.14C318.302 374.991 317.892 374.79 317.5 374.538C317.108 374.277 316.753 374.001 316.436 373.712L316.814 373.726C316.384 374.165 315.885 374.51 315.316 374.762C314.746 375.014 314.14 375.14 313.496 375.14C312.777 375.14 312.156 375.028 311.634 374.804C311.111 374.58 310.71 374.272 310.43 373.88C310.15 373.479 310.01 373.012 310.01 372.48C310.01 371.845 310.196 371.304 310.57 370.856C310.943 370.408 311.456 369.988 312.11 369.596L312.586 369.33L312.32 369.652C311.918 369.251 311.62 368.863 311.424 368.49C311.228 368.117 311.13 367.729 311.13 367.328C311.13 366.861 311.242 366.455 311.466 366.11C311.699 365.755 312.021 365.48 312.432 365.284C312.852 365.088 313.342 364.99 313.902 364.99C314.63 364.99 315.222 365.186 315.68 365.578C316.137 365.961 316.366 366.483 316.366 367.146C316.366 367.501 316.296 367.832 316.156 368.14C316.016 368.448 315.787 368.742 315.47 369.022C315.162 369.302 314.756 369.582 314.252 369.862L314.294 369.512L316.744 372.046H316.38C316.622 371.663 316.809 371.215 316.94 370.702C317.07 370.189 317.15 369.647 317.178 369.078H318.648C318.62 369.843 318.498 370.567 318.284 371.248C318.069 371.929 317.78 372.531 317.416 373.054L317.402 372.634C317.654 372.895 317.943 373.133 318.27 373.348C318.596 373.563 318.951 373.74 319.334 373.88L318.732 375.14ZM313.594 373.782C314.06 373.782 314.476 373.693 314.84 373.516C315.213 373.339 315.544 373.077 315.834 372.732L315.792 373.152L312.852 370.17L313.566 370.184L313.16 370.408C312.842 370.604 312.576 370.8 312.362 370.996C312.156 371.192 312.002 371.402 311.9 371.626C311.797 371.841 311.746 372.088 311.746 372.368C311.746 372.807 311.904 373.152 312.222 373.404C312.539 373.656 312.996 373.782 313.594 373.782ZM313.902 366.18C313.547 366.18 313.262 366.283 313.048 366.488C312.833 366.693 312.726 366.964 312.726 367.3C312.726 367.477 312.758 367.645 312.824 367.804C312.889 367.963 312.996 368.135 313.146 368.322C313.295 368.499 313.491 368.719 313.734 368.98L313.314 369.008C313.892 368.691 314.312 368.401 314.574 368.14C314.844 367.869 314.98 367.561 314.98 367.216C314.98 366.889 314.882 366.637 314.686 366.46C314.49 366.273 314.228 366.18 313.902 366.18ZM324.092 375V365.13H328.474C329.557 365.13 330.383 365.391 330.952 365.914C331.521 366.437 331.806 367.155 331.806 368.07C331.806 368.975 331.521 369.694 330.952 370.226C330.383 370.758 329.557 371.024 328.474 371.024H325.898V375H324.092ZM325.898 369.596H328.264C328.861 369.596 329.309 369.465 329.608 369.204C329.907 368.933 330.056 368.555 330.056 368.07C330.056 367.585 329.907 367.211 329.608 366.95C329.309 366.679 328.861 366.544 328.264 366.544H325.898V369.596ZM335.678 375.14C335.062 375.14 334.521 374.995 334.054 374.706C333.587 374.407 333.223 373.983 332.962 373.432C332.701 372.881 332.57 372.223 332.57 371.458C332.57 370.693 332.701 370.039 332.962 369.498C333.223 368.947 333.587 368.527 334.054 368.238C334.521 367.939 335.062 367.79 335.678 367.79C336.275 367.79 336.798 367.939 337.246 368.238C337.703 368.527 338.007 368.919 338.156 369.414H338.002L338.156 367.93H339.836C339.808 368.219 339.78 368.513 339.752 368.812C339.733 369.111 339.724 369.405 339.724 369.694V375H337.988L337.974 373.544H338.142C337.993 374.029 337.689 374.417 337.232 374.706C336.775 374.995 336.257 375.14 335.678 375.14ZM336.168 373.796C336.719 373.796 337.162 373.605 337.498 373.222C337.834 372.83 338.002 372.242 338.002 371.458C338.002 370.674 337.834 370.091 337.498 369.708C337.162 369.325 336.719 369.134 336.168 369.134C335.617 369.134 335.174 369.325 334.838 369.708C334.502 370.091 334.334 370.674 334.334 371.458C334.334 372.242 334.497 372.83 334.824 373.222C335.16 373.605 335.608 373.796 336.168 373.796ZM341.421 378.178L341.015 376.792C341.454 376.699 341.823 376.591 342.121 376.47C342.42 376.349 342.667 376.19 342.863 375.994C343.059 375.798 343.223 375.546 343.353 375.238L343.703 374.412L343.661 375.098L340.581 367.93H342.443L344.655 373.446H344.249L346.475 367.93H348.239L345.019 375.392C344.805 375.896 344.571 376.311 344.319 376.638C344.067 376.974 343.797 377.24 343.507 377.436C343.218 377.641 342.901 377.8 342.555 377.912C342.21 378.024 341.832 378.113 341.421 378.178Z" fill="white"/>
<g filter="url(#filter2_i_10025_77054)">
<circle cx="351" cy="46" r="22" fill="#FAE8EF"/>
</g>
<path d="M343.982 54C343.73 54 343.479 53.9042 343.288 53.7125C342.904 53.3294 342.904 52.7075 343.288 52.3242L357.324 38.2875C357.708 37.9042 358.329 37.9042 358.712 38.2875C359.096 38.6706 359.096 39.2925 358.712 39.6758L344.676 53.7125C344.484 53.9044 344.233 54 343.982 54Z" fill="#CB1B5B"/>
<path d="M358.019 54C357.768 54 357.517 53.9042 357.325 53.7125L343.288 39.6758C342.904 39.2927 342.904 38.6708 343.288 38.2875C343.671 37.9042 344.292 37.9041 344.676 38.2875L358.712 52.3242C359.096 52.7073 359.096 53.3291 358.712 53.7125C358.521 53.9044 358.27 54 358.018 54H358.019Z" fill="#CB1B5B"/>
<defs>
<filter id="filter0_d_10025_77054" x="0" y="0" width="401" height="317" filterUnits="userSpaceOnUse" color-interpolation-filters="sRGB">
<feFlood flood-opacity="0" result="BackgroundImageFix"/>
<feColorMatrix in="SourceAlpha" type="matrix" values="0 0 0 0 0 0 0 0 0 0 0 0 0 0 0 0 0 0 127 0" result="hardAlpha"/>
<feOffset dy="4"/>
<feGaussianBlur stdDeviation="2"/>
<feComposite in2="hardAlpha" operator="out"/>
<feColorMatrix type="matrix" values="0 0 0 0 0.770833 0 0 0 0 0.770833 0 0 0 0 0.770833 0 0 0 0.25 0"/>
<feBlend mode="normal" in2="BackgroundImageFix" result="effect1_dropShadow_10025_77054"/>
<feBlend mode="normal" in="SourceGraphic" in2="effect1_dropShadow_10025_77054" result="shape"/>
</filter>
<filter id="filter1_d_10025_77054" x="0" y="326" width="401" height="96" filterUnits="userSpaceOnUse" color-interpolation-filters="sRGB">
<feFlood flood-opacity="0" result="BackgroundImageFix"/>
<feColorMatrix in="SourceAlpha" type="matrix" values="0 0 0 0 0 0 0 0 0 0 0 0 0 0 0 0 0 0 127 0" result="hardAlpha"/>
<feOffset dy="4"/>
<feGaussianBlur stdDeviation="2"/>
<feComposite in2="hardAlpha" operator="out"/>
<feColorMatrix type="matrix" values="0 0 0 0 0.770833 0 0 0 0 0.770833 0 0 0 0 0.770833 0 0 0 0.25 0"/>
<feBlend mode="normal" in2="BackgroundImageFix" result="effect1_dropShadow_10025_77054"/>
<feBlend mode="normal" in="SourceGraphic" in2="effect1_dropShadow_10025_77054" result="shape"/>
</filter>
<filter id="filter2_i_10025_77054" x="329" y="24" width="44" height="48" filterUnits="userSpaceOnUse" color-interpolation-filters="sRGB">
<feFlood flood-opacity="0" result="BackgroundImageFix"/>
<feBlend mode="normal" in="SourceGraphic" in2="BackgroundImageFix" result="shape"/>
<feColorMatrix in="SourceAlpha" type="matrix" values="0 0 0 0 0 0 0 0 0 0 0 0 0 0 0 0 0 0 127 0" result="hardAlpha"/>
<feOffset dy="4"/>
<feGaussianBlur stdDeviation="2"/>
<feComposite in2="hardAlpha" operator="arithmetic" k2="-1" k3="1"/>
<feColorMatrix type="matrix" values="0 0 0 0 0.7625 0 0 0 0 0.7625 0 0 0 0 0.7625 0 0 0 0.25 0"/>
<feBlend mode="normal" in2="shape" result="effect1_innerShadow_10025_77054"/>
</filter>
</defs>
</svg>
