<svg width="18" height="16" viewBox="0 0 18 16" fill="none" xmlns="http://www.w3.org/2000/svg">
<path d="M10.7084 16.1281H7.35243C6.99928 16.1281 6.7132 15.842 6.7132 15.4888V8.12849L0.623559 1.05625C0.460362 0.867015 0.422907 0.60001 0.526888 0.372771C0.630869 0.14554 0.858099 0 1.10782 0H16.9531C17.2032 0 17.43 0.14554 17.534 0.372771C17.638 0.600001 17.6006 0.866992 17.4374 1.05625L11.3477 8.12849V15.4888C11.3479 15.842 11.0615 16.1281 10.7087 16.1281H10.7084ZM7.99167 14.8496H10.0692V7.89151C10.0692 7.7383 10.1241 7.59027 10.2238 7.47451L15.5587 1.27849H2.50139L7.83628 7.47451C7.93634 7.59027 7.99091 7.7383 7.99091 7.89151V14.8496H7.99167Z" fill="#181423"/>
</svg>
