<svg width="32" height="32" viewBox="0 0 32 32" fill="none" xmlns="http://www.w3.org/2000/svg">
<path d="M22 5.78937V16.0295C18.8949 16.4902 16.4538 18.9173 16.041 22H2.81282C1.80769 22 1 21.2028 1 20.2106V5.78937C1 4.79724 1.80769 4 2.81282 4H20.1872C21.1923 4 22 4.79724 22 5.78937Z" stroke="#CB1B5B" stroke-width="2" stroke-miterlimit="10" stroke-linecap="round"/>
<path d="M4.83203 3.84529C4.83203 2.89108 4.83203 1.95421 4.83203 1" stroke="#CB1B5B" stroke-width="2" stroke-miterlimit="10" stroke-linecap="round"/>
<path d="M17.0469 3.84529C17.0469 2.89108 17.0469 1.95421 17.0469 1" stroke="#CB1B5B" stroke-width="2" stroke-miterlimit="10" stroke-linecap="round"/>
<path d="M2 9C8 9 14 9 20 9" stroke="#CB1B5B" stroke-width="2" stroke-miterlimit="10" stroke-linecap="round"/>
<path d="M4.19141 12.6582C4.71189 12.6582 5.23237 12.6582 5.75284 12.6582" stroke="#CB1B5B" stroke-width="2" stroke-miterlimit="10" stroke-linecap="round"/>
<path d="M10.0195 12.6582C10.54 12.6582 11.0605 12.6582 11.581 12.6582" stroke="#CB1B5B" stroke-width="2" stroke-miterlimit="10" stroke-linecap="round"/>
<path d="M16.1289 12.6582C16.6494 12.6582 17.1699 12.6582 17.6903 12.6582" stroke="#CB1B5B" stroke-width="2" stroke-miterlimit="10" stroke-linecap="round"/>
<path d="M4.19141 16.875C4.71189 16.875 5.23237 16.875 5.75284 16.875" stroke="#CB1B5B" stroke-width="2" stroke-miterlimit="10" stroke-linecap="round"/>
<path d="M10.0195 16.875C10.54 16.875 11.0605 16.875 11.581 16.875" stroke="#CB1B5B" stroke-width="2" stroke-miterlimit="10" stroke-linecap="round"/>
<path d="M16.1289 16.875C16.6494 16.875 17.1699 16.875 17.6903 16.875" stroke="#CB1B5B" stroke-width="2" stroke-miterlimit="10" stroke-linecap="round"/>
<path d="M29 22.5C29 26.0947 26.0947 29 22.5 29C18.9053 29 16 26.0947 16 22.5C16 22.2045 16.0164 21.8927 16.0657 21.6136C16.4432 18.7576 18.6755 16.5088 21.5152 16.0821C21.827 16.0328 22.1717 16 22.5 16C26.0947 16 29 18.9053 29 22.5Z" stroke="#CB1B5B" stroke-width="2" stroke-miterlimit="10" stroke-linecap="round"/>
<path d="M21.9219 22.8242C23.119 22.8242 24.3334 22.8242 25.5305 22.8242" stroke="#CB1B5B" stroke-width="2" stroke-miterlimit="10" stroke-linecap="round" stroke-linejoin="round"/>
<path d="M21.9231 22.825C21.9058 21.3157 21.8884 19.8063 21.8711 18.2969" stroke="#CB1B5B" stroke-width="2" stroke-miterlimit="10" stroke-linecap="round" stroke-linejoin="round"/>
</svg>
