<svg width="18" height="32" viewBox="0 0 18 32" fill="none" xmlns="http://www.w3.org/2000/svg">
<path fill-rule="evenodd" clip-rule="evenodd" d="M13.5712 6.0457C14.5724 6.00692 15.5941 6.0457 16.5953 6.0457C16.7179 6.0457 16.8404 6.0457 17.0039 6.0457V1.06269C16.4727 1.00453 15.9005 0.946358 15.3284 0.90758C14.2864 0.868802 13.2443 0.810634 12.2227 0.830023C10.6289 0.868801 9.13732 1.2372 7.82963 2.10971C6.33804 3.13733 5.5003 4.57213 5.19381 6.27837C5.07121 6.97638 5.03035 7.71317 5.00992 8.41118C4.98948 9.53575 5.00992 10.6409 5.00992 11.7655V12.1921H0.00390625V17.7567H5.00992V31.7557H11.1193V17.7761H16.1049C16.3705 15.9148 16.6157 14.0922 16.8813 12.1727C16.4727 12.1727 16.1253 12.1727 15.7575 12.1727C14.3477 12.1727 11.0784 12.1727 11.0784 12.1727C11.0784 12.1727 11.0989 9.41941 11.1193 8.21729C11.1602 6.5886 12.2022 6.10387 13.5712 6.0457Z" fill="#CB1B5B"/>
</svg>
