<svg width="370" height="47" viewBox="0 0 370 47" fill="none" xmlns="http://www.w3.org/2000/svg">
<path d="M1.87641 5.9861H13.0646C13.0646 5.9861 10.8928 -0.0284294 5.49612 1.27201C5.49612 1.27201 2.20547 2.27985 1.38281 5.9861H1.87641Z" fill="#8E1744"/>
<path d="M368.157 5.98806H356.969C356.969 5.98806 359.141 -0.0264763 364.537 1.27396C364.537 1.27396 367.828 2.2818 368.651 5.98806H368.157Z" fill="#4C0C3C"/>
<path d="M365.854 0.851049C363.32 -0.12428 359.404 0.0057637 356.245 0.0057637C351.704 0.0057637 120.701 0.0057637 119.187 0.0057637C117.673 0.0057637 18.296 0.0057637 13.7549 0.0057637C10.5959 0.0057637 6.68001 -0.12428 4.14621 0.851049C1.87567 1.72885 0.691035 3.6795 0 6.02029H1.87567C2.43508 4.2647 3.81715 1.76136 7.04198 1.76136C12.0109 1.76136 13.031 7.67835 13.031 7.67835L20.7311 39.2465C21.8499 43.7655 25.9303 46.9841 30.6688 46.9841H119.187H339.331C344.037 46.9841 348.15 43.798 349.269 39.2465L356.969 7.67835C356.969 7.67835 357.989 1.76136 362.958 1.76136C366.183 1.76136 367.565 4.2647 368.124 6.02029H370C369.309 3.64699 368.157 1.69633 365.854 0.851049Z" fill="url(#paint0_linear_17_4955)"/>
<path d="M38.0197 28.2129V15.9715H40.7285V20.8854H46.3369V15.9715H49.063V28.2129H46.3369V23.1253H40.7285V28.2129H38.0197ZM55.8053 28.4039C54.2773 28.4039 53.085 27.993 52.2284 27.1711C51.3718 26.3492 50.9435 25.2321 50.9435 23.8199C50.9435 22.9054 51.1229 22.1067 51.4817 21.4237C51.8522 20.7407 52.3615 20.2082 53.0097 19.8262C53.6696 19.4326 54.4394 19.2359 55.3191 19.2359C56.1873 19.2359 56.9108 19.4211 57.4896 19.7915C58.0799 20.1619 58.5198 20.6828 58.8092 21.3542C59.1102 22.014 59.2607 22.7838 59.2607 23.6636V24.2713H53.0966V22.9691H57.3507L57.0555 23.2121C57.0555 22.4829 56.905 21.933 56.604 21.5626C56.3146 21.1806 55.8921 20.9896 55.3365 20.9896C54.723 20.9896 54.2484 21.2153 53.9127 21.6668C53.5885 22.1182 53.4265 22.7665 53.4265 23.6115V23.8893C53.4265 24.7459 53.6348 25.3826 54.0516 25.7993C54.4799 26.2161 55.0934 26.4244 55.8921 26.4244C56.3667 26.4244 56.8124 26.3666 57.2291 26.2508C57.6574 26.1235 58.0626 25.9267 58.4446 25.6604L59.1739 27.3968C58.734 27.7209 58.2246 27.9698 57.6459 28.1434C57.0786 28.3171 56.4651 28.4039 55.8053 28.4039ZM64.3449 28.4039C63.5808 28.4039 62.9095 28.2187 62.3307 27.8483C61.7519 27.4778 61.3004 26.9511 60.9763 26.2682C60.6522 25.5852 60.4901 24.7633 60.4901 23.8025C60.4901 22.8533 60.6522 22.0372 60.9763 21.3542C61.3004 20.6713 61.7519 20.1503 62.3307 19.7915C62.9095 19.4211 63.5808 19.2359 64.3449 19.2359C65.051 19.2359 65.6819 19.4095 66.2375 19.7568C66.8047 20.0925 67.1751 20.5497 67.3488 21.1285H67.1578L67.3661 19.4095H69.8839C69.8491 19.7915 69.8144 20.1793 69.7797 20.5729C69.7565 20.9549 69.745 21.3311 69.745 21.7015V28.2129H67.1404L67.123 26.5633H67.3314C67.1462 27.119 66.7758 27.5646 66.2201 27.9003C65.6645 28.236 65.0394 28.4039 64.3449 28.4039ZM65.1436 26.4244C65.7455 26.4244 66.2317 26.2103 66.6021 25.782C66.9726 25.3537 67.1578 24.6938 67.1578 23.8025C67.1578 22.9112 66.9726 22.2571 66.6021 21.8404C66.2317 21.4237 65.7455 21.2153 65.1436 21.2153C64.5416 21.2153 64.0555 21.4237 63.685 21.8404C63.3146 22.2571 63.1294 22.9112 63.1294 23.8025C63.1294 24.6938 63.3088 25.3537 63.6677 25.782C64.0381 26.2103 64.5301 26.4244 65.1436 26.4244ZM71.8952 28.2129V15.4332H74.5171V28.2129H71.8952ZM80.7753 28.4039C79.6293 28.4039 78.7669 28.1203 78.1881 27.5531C77.6093 26.9743 77.3199 26.1119 77.3199 24.9659V21.3716H75.653V19.4095H77.3199V17.2564L79.9418 16.6139V19.4095H82.1991V21.3716H79.9418V24.827C79.9418 25.3826 80.0576 25.7646 80.2891 25.973C80.5206 26.1813 80.8158 26.2855 81.1746 26.2855C81.3946 26.2855 81.574 26.2739 81.7129 26.2508C81.8634 26.2161 82.0197 26.1698 82.1817 26.1119V28.1434C81.9618 28.236 81.7303 28.2997 81.4872 28.3344C81.2441 28.3807 81.0068 28.4039 80.7753 28.4039ZM83.5445 28.2129V15.4332H86.1664V21.059H85.906C86.1838 20.4687 86.5947 20.0172 87.1388 19.7047C87.6828 19.3921 88.3079 19.2359 89.0141 19.2359C90.0443 19.2359 90.8141 19.5368 91.3234 20.1388C91.8328 20.7291 92.0874 21.6378 92.0874 22.8649V28.2129H89.4655V22.9864C89.4655 22.3729 89.3498 21.933 89.1182 21.6668C88.8983 21.4005 88.551 21.2674 88.0764 21.2674C87.4976 21.2674 87.0346 21.4468 86.6873 21.8057C86.34 22.1645 86.1664 22.6449 86.1664 23.2469V28.2129H83.5445ZM98.7947 28.4039C97.8108 28.4039 96.8905 28.2823 96.0339 28.0393C95.1773 27.7962 94.448 27.4605 93.8461 27.0322L94.6448 24.9138C95.0384 25.18 95.4551 25.4058 95.895 25.591C96.3348 25.7762 96.7979 25.9209 97.2841 26.0251C97.7702 26.1177 98.2796 26.164 98.8121 26.164C99.6455 26.164 100.236 26.0366 100.583 25.782C100.942 25.5273 101.121 25.2032 101.121 24.8096C101.121 24.4508 101 24.1787 100.757 23.9935C100.525 23.7967 100.097 23.6289 99.4719 23.49L97.423 23.0732C96.3001 22.8417 95.4609 22.4481 94.9052 21.8925C94.3496 21.3369 94.0718 20.596 94.0718 19.6699C94.0718 18.8828 94.2801 18.1998 94.6969 17.621C95.1136 17.0422 95.6982 16.5908 96.4506 16.2667C97.2146 15.9425 98.1059 15.7805 99.1246 15.7805C99.9928 15.7805 100.803 15.902 101.556 16.1451C102.308 16.3882 102.927 16.7355 103.413 17.1869L102.615 19.1664C102.14 18.7844 101.608 18.5008 101.017 18.3156C100.438 18.1188 99.7902 18.0204 99.0725 18.0204C98.3201 18.0204 97.7413 18.1535 97.3362 18.4198C96.9426 18.686 96.7458 19.0506 96.7458 19.5137C96.7458 19.861 96.8673 20.1446 97.1104 20.3645C97.3535 20.5729 97.7818 20.7407 98.3953 20.868L100.41 21.2674C101.556 21.4989 102.406 21.8867 102.962 22.4308C103.518 22.9748 103.795 23.6983 103.795 24.6012C103.795 25.3652 103.587 26.0309 103.17 26.5981C102.765 27.1653 102.186 27.6109 101.434 27.9351C100.693 28.2476 99.8134 28.4039 98.7947 28.4039ZM105.383 32.1545L104.775 30.1055C105.319 30.0014 105.776 29.8798 106.147 29.7409C106.529 29.602 106.841 29.4168 107.084 29.1853C107.327 28.9653 107.524 28.6759 107.675 28.3171L108.109 27.2926L108.039 28.2997L104.219 19.4095H106.98L109.498 25.782H108.96L111.512 19.4095H114.117L110.14 28.5602C109.851 29.22 109.538 29.764 109.203 30.1924C108.879 30.6322 108.526 30.9795 108.144 31.2342C107.762 31.4888 107.339 31.6856 106.876 31.8245C106.425 31.9635 105.927 32.0734 105.383 32.1545ZM118.649 28.2129L124.275 15.9715H126.515L132.21 28.2129H129.467L127.991 24.8096L129.05 25.5562H121.775L122.851 24.8096L121.375 28.2129H118.649ZM125.386 18.8191L123.146 24.1324L122.678 23.4726H128.147L127.748 24.1324L125.456 18.8191H125.386ZM136.463 28.4039C135.699 28.4039 135.021 28.2187 134.431 27.8483C133.852 27.4778 133.395 26.9511 133.059 26.2682C132.735 25.5852 132.573 24.7633 132.573 23.8025C132.573 22.8533 132.735 22.0372 133.059 21.3542C133.384 20.6713 133.841 20.1503 134.431 19.7915C135.021 19.4211 135.699 19.2359 136.463 19.2359C137.157 19.2359 137.777 19.4037 138.321 19.7394C138.876 20.0635 139.247 20.5034 139.432 21.059H139.206V15.4332H141.828V28.2129H139.241V26.4939H139.467C139.281 27.0727 138.911 27.5357 138.355 27.883C137.8 28.2303 137.169 28.4039 136.463 28.4039ZM137.244 26.4244C137.846 26.4244 138.332 26.2103 138.703 25.782C139.073 25.3537 139.258 24.6938 139.258 23.8025C139.258 22.9112 139.073 22.2571 138.703 21.8404C138.332 21.4237 137.846 21.2153 137.244 21.2153C136.642 21.2153 136.15 21.4237 135.768 21.8404C135.398 22.2571 135.212 22.9112 135.212 23.8025C135.212 24.6938 135.398 25.3537 135.768 25.782C136.15 26.2103 136.642 26.4244 137.244 26.4244ZM146.531 28.2129L142.728 19.4095H145.489L148.007 25.7993H147.434L150.038 19.4095H152.625L148.788 28.2129H146.531ZM156.793 28.4039C156.029 28.4039 155.358 28.2187 154.779 27.8483C154.2 27.4778 153.749 26.9511 153.424 26.2682C153.1 25.5852 152.938 24.7633 152.938 23.8025C152.938 22.8533 153.1 22.0372 153.424 21.3542C153.749 20.6713 154.2 20.1503 154.779 19.7915C155.358 19.4211 156.029 19.2359 156.793 19.2359C157.499 19.2359 158.13 19.4095 158.686 19.7568C159.253 20.0925 159.623 20.5497 159.797 21.1285H159.606L159.814 19.4095H162.332C162.297 19.7915 162.263 20.1793 162.228 20.5729C162.205 20.9549 162.193 21.3311 162.193 21.7015V28.2129H159.589L159.571 26.5633H159.78C159.594 27.119 159.224 27.5646 158.668 27.9003C158.113 28.236 157.488 28.4039 156.793 28.4039ZM157.592 26.4244C158.194 26.4244 158.68 26.2103 159.05 25.782C159.421 25.3537 159.606 24.6938 159.606 23.8025C159.606 22.9112 159.421 22.2571 159.05 21.8404C158.68 21.4237 158.194 21.2153 157.592 21.2153C156.99 21.2153 156.504 21.4237 156.133 21.8404C155.763 22.2571 155.578 22.9112 155.578 23.8025C155.578 24.6938 155.757 25.3537 156.116 25.782C156.486 26.2103 156.978 26.4244 157.592 26.4244ZM164.343 28.2129V21.7015C164.343 21.3311 164.332 20.9549 164.309 20.5729C164.285 20.1793 164.251 19.7915 164.204 19.4095H166.722L166.913 21.0417H166.705C166.994 20.4629 167.405 20.0172 167.938 19.7047C168.47 19.3921 169.089 19.2359 169.796 19.2359C170.826 19.2359 171.596 19.5368 172.105 20.1388C172.626 20.7291 172.886 21.6494 172.886 22.8996V28.2129H170.264V23.0211C170.264 22.3845 170.149 21.933 169.917 21.6668C169.686 21.4005 169.338 21.2674 168.875 21.2674C168.296 21.2674 167.833 21.4526 167.486 21.823C167.139 22.1819 166.965 22.6681 166.965 23.2816V28.2129H164.343ZM179.107 28.4039C177.961 28.4039 177.099 28.1203 176.52 27.5531C175.941 26.9743 175.652 26.1119 175.652 24.9659V21.3716H173.985V19.4095H175.652V17.2564L178.274 16.6139V19.4095H180.531V21.3716H178.274V24.827C178.274 25.3826 178.39 25.7646 178.621 25.973C178.853 26.1813 179.148 26.2855 179.507 26.2855C179.727 26.2855 179.906 26.2739 180.045 26.2508C180.196 26.2161 180.352 26.1698 180.514 26.1119V28.1434C180.294 28.236 180.062 28.2997 179.819 28.3344C179.576 28.3807 179.339 28.4039 179.107 28.4039ZM185.297 28.4039C184.533 28.4039 183.862 28.2187 183.283 27.8483C182.704 27.4778 182.253 26.9511 181.929 26.2682C181.605 25.5852 181.443 24.7633 181.443 23.8025C181.443 22.8533 181.605 22.0372 181.929 21.3542C182.253 20.6713 182.704 20.1503 183.283 19.7915C183.862 19.4211 184.533 19.2359 185.297 19.2359C186.003 19.2359 186.634 19.4095 187.19 19.7568C187.757 20.0925 188.128 20.5497 188.301 21.1285H188.11L188.319 19.4095H190.836C190.802 19.7915 190.767 20.1793 190.732 20.5729C190.709 20.9549 190.697 21.3311 190.697 21.7015V28.2129H188.093L188.075 26.5633H188.284C188.099 27.119 187.728 27.5646 187.173 27.9003C186.617 28.236 185.992 28.4039 185.297 28.4039ZM186.096 26.4244C186.698 26.4244 187.184 26.2103 187.555 25.782C187.925 25.3537 188.11 24.6938 188.11 23.8025C188.11 22.9112 187.925 22.2571 187.555 21.8404C187.184 21.4237 186.698 21.2153 186.096 21.2153C185.494 21.2153 185.008 21.4237 184.637 21.8404C184.267 22.2571 184.082 22.9112 184.082 23.8025C184.082 24.6938 184.261 25.3537 184.62 25.782C184.991 26.2103 185.482 26.4244 186.096 26.4244ZM197.032 32.1024C196.187 32.1024 195.435 32.0155 194.775 31.8419C194.115 31.6798 193.525 31.431 193.004 31.0953L193.507 29.22C193.832 29.4283 194.173 29.5962 194.532 29.7235C194.902 29.8624 195.279 29.9608 195.661 30.0187C196.054 30.0882 196.442 30.1229 196.824 30.1229C197.6 30.1229 198.178 29.9377 198.56 29.5673C198.942 29.1968 199.133 28.6701 199.133 27.9872V26.164H199.307C199.122 26.7196 198.751 27.1653 198.196 27.501C197.64 27.8367 197.015 28.0045 196.32 28.0045C195.533 28.0045 194.844 27.8251 194.254 27.4663C193.675 27.1074 193.224 26.5981 192.9 25.9382C192.576 25.2784 192.414 24.5028 192.414 23.6115C192.414 22.7202 192.576 21.9446 192.9 21.2848C193.224 20.625 193.675 20.1214 194.254 19.7741C194.844 19.4153 195.533 19.2359 196.32 19.2359C197.027 19.2359 197.646 19.4037 198.178 19.7394C198.722 20.0635 199.087 20.4976 199.272 21.0417L199.133 20.9722L199.307 19.4095H201.842C201.796 19.7915 201.761 20.1793 201.738 20.5729C201.715 20.9549 201.703 21.3311 201.703 21.7015V27.692C201.703 29.1158 201.304 30.2039 200.505 30.9564C199.706 31.7204 198.549 32.1024 197.032 32.1024ZM197.102 26.0251C197.715 26.0251 198.201 25.8167 198.56 25.4C198.919 24.9832 199.099 24.3871 199.099 23.6115C199.099 22.8359 198.919 22.2456 198.56 21.8404C198.201 21.4237 197.715 21.2153 197.102 21.2153C196.465 21.2153 195.962 21.4237 195.591 21.8404C195.232 22.2456 195.053 22.8359 195.053 23.6115C195.053 24.3871 195.232 24.9832 195.591 25.4C195.962 25.8167 196.465 26.0251 197.102 26.0251ZM208.263 28.4039C206.735 28.4039 205.543 27.993 204.686 27.1711C203.83 26.3492 203.402 25.2321 203.402 23.8199C203.402 22.9054 203.581 22.1067 203.94 21.4237C204.31 20.7407 204.82 20.2082 205.468 19.8262C206.128 19.4326 206.897 19.2359 207.777 19.2359C208.645 19.2359 209.369 19.4211 209.948 19.7915C210.538 20.1619 210.978 20.6828 211.267 21.3542C211.568 22.014 211.719 22.7838 211.719 23.6636V24.2713H205.555V22.9691H209.809L209.514 23.2121C209.514 22.4829 209.363 21.933 209.062 21.5626C208.773 21.1806 208.35 20.9896 207.795 20.9896C207.181 20.9896 206.706 21.2153 206.371 21.6668C206.047 22.1182 205.885 22.7665 205.885 23.6115V23.8893C205.885 24.7459 206.093 25.3826 206.51 25.7993C206.938 26.2161 207.551 26.4244 208.35 26.4244C208.825 26.4244 209.27 26.3666 209.687 26.2508C210.115 26.1235 210.521 25.9267 210.903 25.6604L211.632 27.3968C211.192 27.7209 210.683 27.9698 210.104 28.1434C209.537 28.3171 208.923 28.4039 208.263 28.4039ZM222.884 28.4039C221.9 28.4039 220.98 28.2823 220.123 28.0393C219.267 27.7962 218.537 27.4605 217.935 27.0322L218.734 24.9138C219.128 25.18 219.545 25.4058 219.984 25.591C220.424 25.7762 220.887 25.9209 221.373 26.0251C221.86 26.1177 222.369 26.164 222.901 26.164C223.735 26.164 224.325 26.0366 224.673 25.782C225.031 25.5273 225.211 25.2032 225.211 24.8096C225.211 24.4508 225.089 24.1787 224.846 23.9935C224.615 23.7967 224.186 23.6289 223.561 23.49L221.512 23.0732C220.39 22.8417 219.55 22.4481 218.995 21.8925C218.439 21.3369 218.161 20.596 218.161 19.6699C218.161 18.8828 218.37 18.1998 218.786 17.621C219.203 17.0422 219.788 16.5908 220.54 16.2667C221.304 15.9425 222.195 15.7805 223.214 15.7805C224.082 15.7805 224.893 15.902 225.645 16.1451C226.397 16.3882 227.017 16.7355 227.503 17.1869L226.704 19.1664C226.23 18.7844 225.697 18.5008 225.107 18.3156C224.528 18.1188 223.88 18.0204 223.162 18.0204C222.41 18.0204 221.831 18.1535 221.426 18.4198C221.032 18.686 220.835 19.0506 220.835 19.5137C220.835 19.861 220.957 20.1446 221.2 20.3645C221.443 20.5729 221.871 20.7407 222.485 20.868L224.499 21.2674C225.645 21.4989 226.496 21.8867 227.051 22.4308C227.607 22.9748 227.885 23.6983 227.885 24.6012C227.885 25.3652 227.677 26.0309 227.26 26.5981C226.855 27.1653 226.276 27.6109 225.523 27.9351C224.783 28.2476 223.903 28.4039 222.884 28.4039ZM232.907 28.4039C231.807 28.4039 230.991 28.1029 230.458 27.501C229.926 26.8875 229.659 25.9614 229.659 24.7228V19.4095H232.281V24.7228C232.281 25.2784 232.391 25.6894 232.611 25.9556C232.843 26.2219 233.196 26.355 233.671 26.355C234.191 26.355 234.62 26.1755 234.955 25.8167C235.303 25.4463 235.476 24.9543 235.476 24.3408V19.4095H238.098V28.2129H235.546V26.5286H235.789C235.523 27.119 235.141 27.582 234.643 27.9177C234.157 28.2418 233.578 28.4039 232.907 28.4039ZM245.641 28.4039C244.935 28.4039 244.304 28.2303 243.749 27.883C243.205 27.5357 242.84 27.0727 242.655 26.4939H242.846V28.2129H240.259V15.4332H242.881V21.059H242.655C242.852 20.5034 243.222 20.0635 243.766 19.7394C244.322 19.4037 244.947 19.2359 245.641 19.2359C246.417 19.2359 247.094 19.4211 247.673 19.7915C248.252 20.1619 248.703 20.6886 249.027 21.3716C249.363 22.0546 249.531 22.8764 249.531 23.8372C249.531 24.7865 249.363 25.6025 249.027 26.2855C248.703 26.9685 248.246 27.4952 247.656 27.8656C247.077 28.2245 246.405 28.4039 245.641 28.4039ZM244.86 26.4244C245.45 26.4244 245.937 26.2161 246.319 25.7993C246.701 25.3826 246.892 24.7286 246.892 23.8372C246.892 22.9459 246.701 22.2861 246.319 21.8578C245.937 21.4295 245.45 21.2153 244.86 21.2153C244.258 21.2153 243.766 21.4237 243.384 21.8404C243.014 22.2571 242.829 22.9112 242.829 23.8025C242.829 24.6938 243.014 25.3537 243.384 25.782C243.766 26.2103 244.258 26.4244 244.86 26.4244ZM254.477 28.4039C253.69 28.4039 252.972 28.3171 252.324 28.1434C251.675 27.9698 251.126 27.7267 250.674 27.4142L251.351 25.6778C251.803 25.9556 252.3 26.1755 252.845 26.3376C253.4 26.4997 253.95 26.5807 254.494 26.5807C255.003 26.5807 255.38 26.4997 255.623 26.3376C255.866 26.1755 255.987 25.9556 255.987 25.6778C255.987 25.4463 255.906 25.2668 255.744 25.1395C255.594 25.0122 255.356 24.9196 255.032 24.8617L253.244 24.5318C252.491 24.3813 251.918 24.1035 251.525 23.6983C251.131 23.2932 250.935 22.7665 250.935 22.1182C250.935 21.551 251.085 21.0533 251.386 20.625C251.699 20.1851 252.144 19.8436 252.723 19.6005C253.302 19.3574 253.979 19.2359 254.755 19.2359C255.414 19.2359 256.039 19.3169 256.63 19.4789C257.22 19.641 257.724 19.8899 258.14 20.2256L257.429 21.9099C257.07 21.6436 256.653 21.4295 256.178 21.2674C255.715 21.1053 255.27 21.0243 254.841 21.0243C254.286 21.0243 253.886 21.1169 253.643 21.3021C253.4 21.4758 253.279 21.7015 253.279 21.9793C253.279 22.1877 253.348 22.3613 253.487 22.5002C253.637 22.6391 253.863 22.7433 254.164 22.8128L255.97 23.1427C256.746 23.2816 257.336 23.5421 257.741 23.9241C258.146 24.3061 258.349 24.8328 258.349 25.5042C258.349 26.1177 258.187 26.6386 257.863 27.0669C257.538 27.4952 257.081 27.8251 256.491 28.0566C255.912 28.2881 255.241 28.4039 254.477 28.4039ZM264.216 28.4039C263.278 28.4039 262.457 28.2187 261.75 27.8483C261.044 27.4778 260.5 26.9453 260.118 26.2508C259.736 25.5562 259.545 24.7344 259.545 23.7851C259.545 22.8244 259.736 22.0083 260.118 21.3369C260.512 20.6539 261.056 20.133 261.75 19.7741C262.457 19.4153 263.278 19.2359 264.216 19.2359C264.806 19.2359 265.379 19.3227 265.935 19.4963C266.502 19.6699 266.965 19.913 267.324 20.2256L266.56 22.0314C266.271 21.7652 265.935 21.5684 265.553 21.441C265.183 21.3021 264.824 21.2327 264.477 21.2327C263.77 21.2327 263.221 21.4526 262.827 21.8925C262.433 22.3324 262.237 22.9691 262.237 23.8025C262.237 24.636 262.433 25.2726 262.827 25.7125C263.221 26.1524 263.77 26.3723 264.477 26.3723C264.812 26.3723 265.165 26.3087 265.536 26.1813C265.918 26.054 266.259 25.863 266.56 25.6083L267.324 27.3968C266.954 27.7093 266.485 27.9582 265.918 28.1434C265.362 28.3171 264.795 28.4039 264.216 28.4039ZM268.796 28.2129V21.7362C268.796 21.3542 268.785 20.9664 268.762 20.5729C268.75 20.1793 268.721 19.7915 268.675 19.4095H271.193L271.488 21.9793H271.088C271.204 21.3542 271.389 20.8391 271.644 20.434C271.91 20.0288 272.234 19.7278 272.616 19.531C273.01 19.3343 273.456 19.2359 273.953 19.2359C274.173 19.2359 274.347 19.2474 274.474 19.2706C274.602 19.2822 274.729 19.3111 274.856 19.3574L274.839 21.6668C274.596 21.5626 274.388 21.4989 274.214 21.4758C274.052 21.441 273.844 21.4237 273.589 21.4237C273.103 21.4237 272.698 21.5163 272.373 21.7015C272.061 21.8867 271.824 22.1587 271.661 22.5176C271.511 22.8764 271.436 23.3105 271.436 23.8199V28.2129H268.796ZM275.953 28.2129V19.4095H278.575V28.2129H275.953ZM275.848 17.9683V15.52H278.661V17.9683H275.848ZM280.717 31.9635V21.7015C280.717 21.3311 280.706 20.9549 280.683 20.5729C280.66 20.1793 280.625 19.7915 280.579 19.4095H283.096L283.305 21.1285H283.114C283.287 20.5497 283.652 20.0925 284.208 19.7568C284.763 19.4095 285.4 19.2359 286.118 19.2359C286.882 19.2359 287.553 19.4211 288.132 19.7915C288.711 20.1503 289.162 20.6713 289.486 21.3542C289.822 22.0372 289.99 22.8533 289.99 23.8025C289.99 24.7633 289.822 25.5852 289.486 26.2682C289.162 26.9511 288.711 27.4778 288.132 27.8483C287.553 28.2187 286.882 28.4039 286.118 28.4039C285.411 28.4039 284.781 28.236 284.225 27.9003C283.681 27.5646 283.316 27.119 283.131 26.5633H283.339V31.9635H280.717ZM285.319 26.4244C285.932 26.4244 286.424 26.2103 286.795 25.782C287.165 25.3537 287.35 24.6938 287.35 23.8025C287.35 22.9112 287.165 22.2571 286.795 21.8404C286.424 21.4237 285.932 21.2153 285.319 21.2153C284.717 21.2153 284.225 21.4237 283.843 21.8404C283.472 22.2571 283.287 22.9112 283.287 23.8025C283.287 24.6938 283.472 25.3537 283.843 25.782C284.225 26.2103 284.717 26.4244 285.319 26.4244ZM295.719 28.4039C294.573 28.4039 293.71 28.1203 293.132 27.5531C292.553 26.9743 292.264 26.1119 292.264 24.9659V21.3716H290.597V19.4095H292.264V17.2564L294.885 16.6139V19.4095H297.143V21.3716H294.885V24.827C294.885 25.3826 295.001 25.7646 295.233 25.973C295.464 26.1813 295.759 26.2855 296.118 26.2855C296.338 26.2855 296.518 26.2739 296.657 26.2508C296.807 26.2161 296.963 26.1698 297.125 26.1119V28.1434C296.905 28.236 296.674 28.2997 296.431 28.3344C296.188 28.3807 295.95 28.4039 295.719 28.4039ZM298.488 28.2129V19.4095H301.11V28.2129H298.488ZM298.384 17.9683V15.52H301.197V17.9683H298.384ZM307.42 28.4039C306.483 28.4039 305.667 28.2187 304.972 27.8483C304.289 27.4663 303.757 26.9338 303.375 26.2508C303.004 25.5678 302.819 24.7517 302.819 23.8025C302.819 22.8649 303.004 22.0546 303.375 21.3716C303.757 20.6886 304.289 20.1619 304.972 19.7915C305.667 19.4211 306.483 19.2359 307.42 19.2359C308.358 19.2359 309.174 19.4211 309.869 19.7915C310.563 20.1619 311.096 20.6886 311.466 21.3716C311.848 22.0546 312.039 22.8649 312.039 23.8025C312.039 24.7517 311.848 25.5678 311.466 26.2508C311.096 26.9338 310.563 27.4663 309.869 27.8483C309.174 28.2187 308.358 28.4039 307.42 28.4039ZM307.42 26.4244C308.022 26.4244 308.497 26.2103 308.844 25.782C309.203 25.3537 309.382 24.6938 309.382 23.8025C309.382 22.9112 309.203 22.2571 308.844 21.8404C308.497 21.4237 308.022 21.2153 307.42 21.2153C306.818 21.2153 306.338 21.4237 305.979 21.8404C305.632 22.2571 305.458 22.9112 305.458 23.8025C305.458 24.6938 305.632 25.3537 305.979 25.782C306.338 26.2103 306.818 26.4244 307.42 26.4244ZM313.732 28.2129V21.7015C313.732 21.3311 313.721 20.9549 313.697 20.5729C313.674 20.1793 313.64 19.7915 313.593 19.4095H316.111L316.302 21.0417H316.094C316.383 20.4629 316.794 20.0172 317.327 19.7047C317.859 19.3921 318.478 19.2359 319.184 19.2359C320.215 19.2359 320.984 19.5368 321.494 20.1388C322.015 20.7291 322.275 21.6494 322.275 22.8996V28.2129H319.653V23.0211C319.653 22.3845 319.537 21.933 319.306 21.6668C319.074 21.4005 318.727 21.2674 318.264 21.2674C317.685 21.2674 317.222 21.4526 316.875 21.823C316.528 22.1819 316.354 22.6681 316.354 23.2816V28.2129H313.732ZM327.628 28.4039C326.841 28.4039 326.123 28.3171 325.475 28.1434C324.827 27.9698 324.277 27.7267 323.825 27.4142L324.503 25.6778C324.954 25.9556 325.452 26.1755 325.996 26.3376C326.552 26.4997 327.101 26.5807 327.645 26.5807C328.155 26.5807 328.531 26.4997 328.774 26.3376C329.017 26.1755 329.139 25.9556 329.139 25.6778C329.139 25.4463 329.058 25.2668 328.896 25.1395C328.745 25.0122 328.508 24.9196 328.184 24.8617L326.395 24.5318C325.643 24.3813 325.07 24.1035 324.676 23.6983C324.283 23.2932 324.086 22.7665 324.086 22.1182C324.086 21.551 324.236 21.0533 324.537 20.625C324.85 20.1851 325.296 19.8436 325.874 19.6005C326.453 19.3574 327.13 19.2359 327.906 19.2359C328.566 19.2359 329.191 19.3169 329.781 19.4789C330.372 19.641 330.875 19.8899 331.292 20.2256L330.58 21.9099C330.221 21.6436 329.804 21.4295 329.33 21.2674C328.867 21.1053 328.421 21.0243 327.993 21.0243C327.437 21.0243 327.038 21.1169 326.795 21.3021C326.552 21.4758 326.43 21.7015 326.43 21.9793C326.43 22.1877 326.499 22.3613 326.638 22.5002C326.789 22.6391 327.015 22.7433 327.316 22.8128L329.121 23.1427C329.897 23.2816 330.487 23.5421 330.892 23.9241C331.298 24.3061 331.5 24.8328 331.5 25.5042C331.5 26.1177 331.338 26.6386 331.014 27.0669C330.69 27.4952 330.233 27.8251 329.642 28.0566C329.063 28.2881 328.392 28.4039 327.628 28.4039Z" fill="white"/>
<defs>
<linearGradient id="paint0_linear_17_4955" x1="127.203" y1="-48.1095" x2="211.978" y2="42.1653" gradientUnits="userSpaceOnUse">
<stop offset="0.011" stop-color="#F42970"/>
<stop offset="0.9757" stop-color="#92186D"/>
</linearGradient>
</defs>
</svg>
