<svg width="31" height="30" viewBox="0 0 31 30" fill="none" xmlns="http://www.w3.org/2000/svg">
<path d="M29.7489 8.04591C29.545 6.13876 28.7976 4.45082 27.3254 3.09171C25.7852 1.66683 23.9052 1.03111 21.8214 0.921506C18.288 0.746136 9.93022 0.614609 6.98573 1.07495C3.63355 1.60106 1.43652 3.50821 0.507875 6.70871C-0.216922 9.18581 -0.0583893 20.5629 0.349309 22.9962C0.915557 26.3282 2.95406 28.4765 6.37419 29.3314C8.72978 29.9233 20.3492 29.8356 22.9766 29.441C26.4194 28.893 28.6391 26.942 29.545 23.6319C30.2472 21.111 29.998 10.3476 29.7489 8.04591ZM27.0083 22.5578C26.6006 25.1006 24.8792 26.657 22.2291 26.942C19.8056 27.2051 9.02423 27.3366 6.78189 26.7228C4.63015 26.1528 3.40705 24.706 3.04465 22.6235C2.7049 20.6287 2.6143 10.6545 3.04465 7.98014C3.4297 5.4592 5.17374 3.90279 7.80113 3.61782C10.4512 3.33284 20.0094 3.289 22.5462 3.68358C25.151 4.07816 26.7818 5.7661 27.0762 8.30896C27.3253 10.6765 27.3933 19.993 27.0083 22.5578ZM15.0265 7.84862C10.7909 7.84862 7.34813 11.1806 7.32548 15.2799C7.32548 19.3792 10.7683 22.7112 15.0038 22.7331C19.2393 22.7331 22.6821 19.4011 22.7048 15.3018C22.7048 11.1806 19.262 7.84862 15.0265 7.84862ZM14.9585 20.0807C12.2179 20.0587 9.99818 17.8885 10.0435 15.2361C10.0661 12.5836 12.3085 10.4353 15.0491 10.4792C17.7897 10.5011 20.0094 12.6713 19.9641 15.3238C19.9641 17.9762 17.6991 20.1026 14.9585 20.0807ZM24.8112 7.56364C24.8112 8.52817 23.9958 9.29542 22.9992 9.29542C22.0026 9.29542 21.2099 8.50625 21.2099 7.54172C21.2099 6.57718 22.0253 5.80994 23.0219 5.80994C23.9958 5.80994 24.8112 6.59911 24.8112 7.56364Z" fill="#CB1B5B"/>
</svg>
