<svg width="31" height="29" viewBox="0 0 31 29" fill="none" xmlns="http://www.w3.org/2000/svg">
<path d="M0.475598 10.0775H6.70041V28.6398H0.475598V10.0775ZM3.5993 0.859375C5.59124 0.859375 7.1984 2.35024 7.1984 4.19807C7.1984 6.0459 5.59124 7.53676 3.5993 7.53676C1.60736 7.53676 0.000232976 6.0459 0.000232976 4.19807C-0.0224027 2.35024 1.60736 0.859375 3.5993 0.859375Z" fill="#CB1B5B"/>
<path d="M10.6281 10.0811H16.5813V12.6219H16.6718C17.5093 11.152 19.5239 9.61914 22.5571 9.61914C28.8498 9.61914 30.0042 13.4618 30.0042 18.4593V28.6434H23.802V19.6142C23.802 17.4514 23.7568 14.7007 20.5652 14.7007C17.3283 14.7007 16.8303 17.0525 16.8303 19.4672V28.6434H10.6055V10.0811H10.6281Z" fill="#CB1B5B"/>
</svg>
