<svg width="31" height="37" viewBox="0 0 31 37" fill="none" xmlns="http://www.w3.org/2000/svg">
<path d="M30.1484 26.56C29.5274 28.4804 28.6311 30.3008 27.4874 31.9642C25.6267 34.7884 23.7734 36.2006 21.9274 36.2006C20.8878 36.1292 19.8658 35.8959 18.8984 35.5092C17.8584 35.0891 16.7525 34.8551 15.6314 34.8178C14.5713 34.8579 13.5286 35.1 12.5594 35.5311C11.6627 35.9548 10.6934 36.204 9.70339 36.2655C7.50872 36.2655 5.33806 34.4005 3.19139 30.6704C1.20631 27.3813 0.110518 23.6334 0.0113888 19.7939C-0.110656 16.9007 0.75111 14.0514 2.45639 11.7099C3.15756 10.7389 4.08118 9.94966 5.15006 9.40821C6.21894 8.86677 7.40201 8.58883 8.60039 8.59763C9.90018 8.63993 11.1882 8.85806 12.4294 9.24607C13.3979 9.57095 14.3993 9.7884 15.4154 9.8945C16.478 9.80316 17.5213 9.55537 18.5114 9.15914C19.7128 8.7197 20.9759 8.47156 22.2544 8.42378C23.8986 8.40221 25.5086 8.89324 26.8604 9.82856C27.7081 10.4392 28.4658 11.1657 29.1114 11.9867C28.1846 12.7291 27.3559 13.5863 26.6454 14.5374C25.7224 15.8464 25.231 17.4104 25.2394 19.0115C25.2197 20.735 25.7419 22.4212 26.7324 23.8323C27.5277 25.103 28.7336 26.0639 30.1504 26.556L30.1484 26.56ZM22.0114 1.20508C21.9844 2.21501 21.7719 3.21138 21.3844 4.14452C20.9247 5.26586 20.24 6.28121 19.3724 7.12791C18.7244 7.8204 17.9244 8.35325 17.0354 8.68456C16.2987 8.87768 15.5453 9.00079 14.7854 9.05224C14.7768 7.07193 15.3658 5.135 16.4754 3.49409C17.8114 1.78623 19.7429 0.644543 21.8844 0.296875C21.9072 0.37497 21.9252 0.454381 21.9384 0.534668C21.9515 0.614954 21.9696 0.694365 21.9924 0.77246C21.9924 0.830409 21.9961 0.902347 22.0034 0.988272C22.0107 1.0742 22.0134 1.14613 22.0114 1.20408V1.20508Z" fill="#181423"/>
</svg>
