<svg width="30" height="32" viewBox="0 0 30 32" fill="none" xmlns="http://www.w3.org/2000/svg">
<path d="M0.000169533 2.0935V29.2235C-0.00187826 29.2833 0.014666 29.3423 0.0476012 29.3926C0.0805364 29.4429 0.128301 29.4822 0.18454 29.5052C0.240778 29.5283 0.302824 29.5339 0.362423 29.5215C0.422021 29.509 0.476346 29.4791 0.518169 29.4356L14.9062 15.659L0.518169 1.88143C0.476346 1.83793 0.422021 1.80796 0.362423 1.79551C0.302824 1.78306 0.240778 1.78873 0.18454 1.81175C0.128301 1.83477 0.0805364 1.87407 0.0476012 1.9244C0.014666 1.97473 -0.00187826 2.03371 0.000169533 2.0935Z" fill="white"/>
<path d="M20.938 9.99657L2.89705 0.243406L2.88605 0.237515C2.81967 0.199966 2.74139 0.188139 2.66658 0.204357C2.59178 0.220575 2.52585 0.263667 2.48175 0.325169C2.43765 0.38667 2.41856 0.462138 2.42824 0.536749C2.43792 0.611361 2.47566 0.679724 2.53405 0.728413L16.676 13.9954L20.938 9.99657Z" fill="white"/>
<path d="M2.53795 30.5962C2.47956 30.6448 2.44182 30.7132 2.43215 30.7878C2.42247 30.8624 2.44156 30.9379 2.48566 30.9994C2.52976 31.0609 2.59568 31.104 2.67049 31.1202C2.7453 31.1364 2.82358 31.1246 2.88995 31.0871L2.90095 31.0812L20.94 21.3231L16.678 17.3223L2.53795 30.5962Z" fill="white"/>
<path d="M28.2233 13.9315L23.1853 11.207L18.4453 15.6575L23.1823 20.1051L28.2233 17.3835C28.535 17.211 28.7944 16.9603 28.9749 16.657C29.1554 16.3537 29.2505 16.0088 29.2505 15.6575C29.2505 15.3062 29.1554 14.9613 28.9749 14.658C28.7944 14.3547 28.535 14.104 28.2233 13.9315Z" fill="white"/>
</svg>
