<svg width="175" height="85" viewBox="0 0 175 85" fill="none" xmlns="http://www.w3.org/2000/svg">
<path d="M88.7787 29.4488C88.2095 29.4488 87.6313 29.5022 87.0443 29.6089C86.475 29.7157 85.9057 29.8402 85.3365 29.9825C84.7672 30.107 84.1979 30.2226 83.6287 30.3293C83.0594 30.4361 82.4813 30.4894 81.8942 30.4894C81.7163 30.4894 81.5295 30.4716 81.3339 30.4361C81.156 30.3827 81.067 30.2226 81.067 29.9558C81.067 29.7779 81.1382 29.6 81.2805 29.4222C81.4406 29.2265 81.6096 29.1198 81.7875 29.102L88.9388 28.0614C88.9566 27.9902 88.9833 27.8835 89.0189 27.7412C89.0545 27.5811 89.0989 27.4299 89.1523 27.2876C89.2235 27.1275 89.3124 26.9941 89.4191 26.8874C89.5259 26.7629 89.6504 26.7006 89.7927 26.7006C90.0062 26.7006 90.1752 26.754 90.2997 26.8607C90.4242 26.9674 90.531 27.0919 90.6199 27.2343C90.7089 27.3588 90.7889 27.4744 90.8601 27.5811C90.9312 27.6878 91.0202 27.7412 91.1269 27.7412L91.3404 27.7412C91.5183 27.7234 91.8029 27.6967 92.1943 27.6612C92.5856 27.6078 93.0304 27.5544 93.5285 27.5011C94.0444 27.4477 94.587 27.3943 95.1562 27.341C95.7255 27.2698 96.268 27.2165 96.7839 27.1809C97.2998 27.1275 97.7535 27.0831 98.1448 27.0475C98.5362 26.9941 98.8208 26.9496 98.9987 26.9141C99.0521 26.9141 99.1766 26.9141 99.3723 26.9141C99.5858 26.8963 99.737 26.8874 99.8259 26.8874C99.8259 27.2254 99.6391 27.51 99.2656 27.7412C98.9098 27.9547 98.4472 28.1414 97.878 28.3015C97.3265 28.4438 96.7039 28.5594 96.0101 28.6484C95.3341 28.7195 94.667 28.7818 94.0088 28.8352C93.3684 28.8885 92.7724 28.933 92.221 28.9686C91.6873 29.0041 91.2781 29.0486 90.9935 29.102C90.9223 30.3649 90.949 31.6812 91.0735 33.0509C91.2159 34.4205 91.3849 35.7991 91.5805 37.1865C91.794 38.574 91.9897 39.9525 92.1676 41.3222C92.3455 42.6919 92.4344 43.9993 92.4344 45.2444C92.5056 45.4934 92.5323 45.6891 92.5145 45.8314C92.5145 45.9737 92.47 46.0715 92.3811 46.1249C92.2921 46.1783 92.1587 46.205 91.9808 46.205C91.8029 46.205 91.5894 46.1961 91.3404 46.1783C91.1625 45.5379 91.0024 44.7908 90.8601 43.937C90.7355 43.0654 90.6199 42.1404 90.5132 41.1621C90.4064 40.166 90.2997 39.1432 90.193 38.0937C90.104 37.0442 90.0151 36.0036 89.9261 34.9719C89.8372 33.9403 89.7393 32.953 89.6326 32.0103C89.5259 31.0675 89.4013 30.2137 89.259 29.4488L88.7787 29.4488ZM97.7179 33.3177L97.7179 33.1042C97.7179 32.9263 97.7801 32.8018 97.9047 32.7307C98.047 32.6595 98.2071 32.624 98.385 32.624C98.5273 32.624 98.6607 32.6417 98.7852 32.6773C98.9098 32.6951 99.0076 32.7929 99.0788 32.9708C99.1321 33.2376 99.1855 33.6112 99.2389 34.0915C99.2922 34.5539 99.3545 35.0698 99.4257 35.639C99.4968 36.2082 99.568 36.813 99.6391 37.4533C99.7281 38.0759 99.8081 38.6718 99.8793 39.241C99.9682 39.7924 100.057 40.2905 100.146 40.7352C100.235 41.1799 100.333 41.5179 100.44 41.7491C100.386 40.0415 100.44 38.5651 100.6 37.3199C100.76 36.057 101.062 35.0342 101.507 34.2515C101.97 33.4511 102.592 32.8997 103.375 32.5973C104.175 32.2771 105.172 32.2059 106.364 32.3838C106.915 32.3838 107.191 32.6773 107.191 33.2643C107.191 33.4956 107.04 33.6556 106.737 33.7446C106.435 33.8157 106.097 33.8691 105.723 33.9047C105.35 33.9225 104.985 33.9491 104.629 33.9847C104.273 34.0203 104.015 34.1092 103.855 34.2515C103.215 34.6073 102.761 35.1587 102.494 35.9058C102.245 36.6529 102.067 37.5334 101.961 38.5473C101.854 39.5612 101.774 40.6729 101.72 41.8825C101.685 43.0743 101.569 44.3017 101.374 45.5646C101.374 45.7425 101.302 45.8759 101.16 45.9648C101.018 46.0538 100.84 46.0982 100.626 46.0982C100.431 46.0982 100.235 46.0538 100.039 45.9648C99.8615 45.8759 99.7192 45.7425 99.6125 45.5646L97.7179 33.3177ZM115.409 46.0715L108.525 35.052C108.507 35.0342 108.489 34.9719 108.472 34.8652C108.454 34.7407 108.445 34.6429 108.445 34.5717C108.445 34.3405 108.48 34.1448 108.552 33.9847C108.641 33.8068 108.854 33.7179 109.192 33.7179C109.263 33.7179 109.388 33.7624 109.566 33.8513C109.744 33.9225 109.85 33.9936 109.886 34.0648C110.277 34.6873 110.677 35.3811 111.087 36.1459C111.514 36.9108 111.949 37.6757 112.394 38.4406C112.857 39.2054 113.337 39.9436 113.835 40.6552C114.333 41.3489 114.858 41.9448 115.409 42.4428L116.05 31.9836C116.068 31.9836 116.112 31.9836 116.183 31.9836C116.272 31.9658 116.334 31.9569 116.37 31.9569C116.53 31.9569 116.69 31.9836 116.85 32.037C117.01 32.0725 117.126 32.1882 117.197 32.3838C117.215 33.0242 117.215 33.8157 117.197 34.7585C117.197 35.7012 117.179 36.6707 117.144 37.6668C117.126 38.6629 117.099 39.6235 117.064 40.5484C117.046 41.4556 117.028 42.1849 117.01 42.7363C116.993 43.0921 116.957 43.6257 116.904 44.3372C116.868 45.0487 116.815 45.8492 116.744 46.7386C116.69 47.6458 116.619 48.5974 116.53 49.5935C116.459 50.5896 116.388 51.5324 116.317 52.4218C116.246 53.3112 116.183 54.1116 116.13 54.8231C116.077 55.5524 116.032 56.0772 115.996 56.3974L114.609 56.3974L115.409 46.0715ZM130.913 29.769L130.913 28.4883C131.126 28.4883 131.367 28.5594 131.633 28.7017C131.9 28.844 132.158 29.013 132.407 29.2087C132.656 29.4044 132.887 29.6267 133.101 29.8757C133.314 30.107 133.483 30.3026 133.608 30.4627L141.48 41.0554C141.533 40.753 141.578 40.1927 141.613 39.3744C141.667 38.5562 141.684 37.6312 141.667 36.5995C141.667 35.5501 141.64 34.4561 141.587 33.3177C141.551 32.1793 141.489 31.1209 141.4 30.1426C141.329 29.1464 141.24 28.3104 141.133 27.6345C141.044 26.9408 140.919 26.5227 140.759 26.3804C140.759 26.1136 140.804 25.8646 140.893 25.6333C140.999 25.4021 141.195 25.2865 141.48 25.2865C141.764 25.2865 141.996 25.4466 142.174 25.7668C142.351 26.0869 142.485 26.4516 142.574 26.8607C142.663 27.252 142.725 27.6434 142.761 28.0347C142.814 28.4082 142.841 28.6573 142.841 28.7818C142.858 29.102 142.876 29.5911 142.894 30.2493C142.912 30.8896 142.93 31.6278 142.947 32.4639C142.965 33.2821 142.983 34.1537 143.001 35.0787C143.036 36.0036 143.063 36.8752 143.081 37.6935C143.116 38.5117 143.134 39.2588 143.134 39.9347C143.152 40.5929 143.17 41.0821 143.188 41.4022C143.188 41.6335 143.223 41.8469 143.294 42.0426C143.383 42.2383 143.463 42.4339 143.534 42.6296C143.623 42.8253 143.703 43.0209 143.775 43.2166C143.846 43.4123 143.881 43.6168 143.881 43.8303C143.881 44.186 143.748 44.4529 143.481 44.6307C143.232 44.7908 142.947 44.8709 142.627 44.8709C142.449 44.8709 142.289 44.8531 142.147 44.8175C142.022 44.7641 141.916 44.6841 141.827 44.5774C141.756 44.4529 141.711 44.3017 141.693 44.1238C141.693 43.9459 141.729 43.7147 141.8 43.4301C141.604 43.1988 141.302 42.8253 140.893 42.3094C140.484 41.7758 140.021 41.1888 139.505 40.5484C139.007 39.8903 138.473 39.2054 137.904 38.4939C137.335 37.7824 136.792 37.1065 136.276 36.4661C135.76 35.808 135.298 35.221 134.889 34.7051L133.982 33.5578C133.946 33.5045 133.884 33.4333 133.795 33.3444L133.154 32.704C133.065 32.6151 132.994 32.5528 132.941 32.5172C132.87 33.5489 132.879 34.5895 132.968 35.639C133.056 36.6707 133.172 37.7024 133.314 38.7341C133.475 39.7658 133.626 40.7975 133.768 41.8291C133.928 42.8431 134.008 43.8659 134.008 44.8975C134.008 45.1822 133.982 45.4401 133.928 45.6713C133.875 45.8848 133.661 46.0538 133.288 46.1783C132.932 46.0538 132.692 45.8225 132.567 45.4845C132.443 45.1288 132.452 44.7908 132.594 44.4706L130.913 29.769ZM145.536 42.5229C145.411 41.7046 145.349 40.9131 145.349 40.1482C145.349 39.3655 145.393 38.574 145.482 37.7735C145.589 36.9731 145.731 36.1459 145.909 35.2921C146.105 34.4205 146.327 33.4867 146.576 32.4905C146.576 32.2949 146.63 32.117 146.737 31.9569C146.843 31.779 146.986 31.6367 147.163 31.53C147.341 31.4055 147.528 31.3077 147.724 31.2365C147.92 31.1654 148.106 31.1298 148.284 31.1298C148.676 31.1298 149.031 31.2543 149.352 31.5033C149.672 31.7524 149.956 32.0547 150.205 32.4105C150.472 32.7663 150.695 33.1487 150.873 33.5578C151.068 33.9491 151.228 34.2871 151.353 34.5717C151.495 35.1943 151.593 35.9058 151.646 36.7063C151.718 37.4889 151.726 38.2894 151.673 39.1076C151.62 39.9259 151.495 40.7352 151.3 41.5356C151.104 42.3183 150.828 43.0387 150.472 43.6969C150.117 44.355 149.654 44.9064 149.085 45.3511C148.533 45.7958 147.875 46.0715 147.11 46.1783C146.701 46.1783 146.39 46.0449 146.176 45.778C145.963 45.4934 145.803 45.1555 145.696 44.7641C145.607 44.355 145.554 43.9459 145.536 43.5368C145.536 43.1277 145.536 42.7897 145.536 42.5229ZM146.897 42.4428C146.897 42.6207 146.897 42.7897 146.897 42.9498C146.914 43.1099 146.932 43.27 146.95 43.4301C146.986 43.5724 147.021 43.7324 147.057 43.9103C147.11 44.0704 147.172 44.2572 147.244 44.4706L147.404 44.4706C147.831 44.4706 148.195 44.3283 148.498 44.0437C148.8 43.7591 149.058 43.3945 149.272 42.9498C149.485 42.4873 149.663 41.9803 149.805 41.4289C149.948 40.8597 150.054 40.3083 150.125 39.7747C150.214 39.2232 150.268 38.7163 150.286 38.2538C150.321 37.7735 150.339 37.3911 150.339 37.1065L150.339 36.5729C150.339 36.3416 150.33 36.0837 150.312 35.7991C150.294 35.4967 150.259 35.1943 150.205 34.8919C150.17 34.5717 150.108 34.2871 150.019 34.0381C149.93 33.7713 149.814 33.5578 149.672 33.3977C149.529 33.2376 149.343 33.1576 149.111 33.1576C148.72 33.0331 148.382 33.0598 148.097 33.2376C147.831 33.4155 147.608 33.7179 147.43 34.1448C147.27 34.5539 147.146 35.0609 147.057 35.6657C146.968 36.2705 146.914 36.9375 146.897 37.6668C146.879 38.3961 146.87 39.1699 146.87 39.9881C146.888 40.8063 146.897 41.6246 146.897 42.4428ZM157.383 45.4845C157.295 45.2177 157.143 44.7997 156.93 44.2305C156.716 43.6613 156.476 43.0209 156.209 42.3094C155.943 41.5979 155.658 40.8419 155.355 40.0415C155.053 39.241 154.768 38.485 154.502 37.7735C154.235 37.062 153.995 36.4217 153.781 35.8524C153.568 35.2832 153.408 34.8563 153.301 34.5717C153.194 34.4116 153.096 34.2338 153.007 34.0381C152.936 33.8246 152.901 33.6201 152.901 33.4244C152.901 33.211 152.945 33.0242 153.034 32.8641C153.123 32.704 153.265 32.5884 153.461 32.5172C153.657 32.5172 153.826 32.5884 153.968 32.7307C154.128 32.8552 154.244 33.0064 154.315 33.1843L157.383 41.0554C157.401 40.8063 157.446 40.3617 157.517 39.7213C157.588 39.0631 157.659 38.3694 157.73 37.6401C157.802 36.9108 157.864 36.226 157.917 35.5856C157.988 34.9275 158.042 34.4739 158.077 34.2249C158.095 34.047 158.113 33.8424 158.131 33.6112C158.148 33.3799 158.184 33.1576 158.237 32.9441C158.309 32.7307 158.406 32.5439 158.531 32.3838C158.673 32.2237 158.869 32.1437 159.118 32.1437C159.296 32.1437 159.42 32.1615 159.492 32.197C159.58 32.2326 159.678 32.3394 159.785 32.5172L164.908 41.2688L164.908 32.2504C165.424 32.2504 165.78 32.3838 165.976 32.6506C166.189 32.8997 166.314 33.211 166.349 33.5845C166.403 33.958 166.403 34.3583 166.349 34.7852C166.296 35.2121 166.278 35.5945 166.296 35.9325C166.296 36.057 166.305 36.3238 166.323 36.7329C166.34 37.1421 166.358 37.6134 166.376 38.1471C166.412 38.6807 166.438 39.2588 166.456 39.8814C166.474 40.4862 166.492 41.0554 166.509 41.589C166.545 42.1226 166.572 42.594 166.589 43.0031C166.607 43.4123 166.616 43.6791 166.616 43.8036C166.741 44.1594 166.732 44.3995 166.589 44.524C166.465 44.6307 166.287 44.6663 166.056 44.6307C165.825 44.5952 165.593 44.4973 165.362 44.3372C165.131 44.1771 164.98 43.9993 164.908 43.8036L159.465 34.5717C159.34 37.2577 159.216 39.4989 159.091 41.2955C158.967 43.0921 158.851 44.604 158.744 45.8314C158.691 46.0271 158.602 46.1338 158.478 46.1516C158.353 46.1694 158.22 46.1516 158.077 46.0982C157.953 46.0271 157.828 45.9292 157.704 45.8047C157.579 45.6802 157.472 45.5735 157.383 45.4845Z" fill="black"/>
<path d="M36.8262 38.7837C26.3305 40.5433 14.8616 45.3082 5.64302 56.2654C5.34583 56.6188 5.39126 57.1468 5.74503 57.4443C6.09891 57.7423 6.62591 57.696 6.92482 57.3423C29.3637 30.6741 65.7126 41.8951 66.0764 42.0117C66.5159 42.1534 66.988 41.9103 67.1289 41.4695C67.27 41.0293 67.0276 40.5592 66.5875 40.4176C66.3615 40.3454 52.7094 36.1208 36.826 38.7837L36.8262 38.7837Z" fill="black"/>
<path d="M7.35194 43.6507C6.98789 43.7118 6.69564 44.0099 6.65786 44.3949L5.36316 57.5812L17.4661 58.3712C17.9251 58.4031 18.3264 58.0524 18.3566 57.5905C18.3869 57.1292 18.0375 56.7309 17.5752 56.7007L7.19855 56.0225L8.32434 44.5569C8.36916 44.0973 8.03331 43.6879 7.57208 43.6428C7.49698 43.6364 7.42288 43.6394 7.35194 43.6507Z" fill="black"/>
</svg>
