<svg width="31" height="24" viewBox="0 0 31 24" fill="none" xmlns="http://www.w3.org/2000/svg">
<path fill-rule="evenodd" clip-rule="evenodd" d="M9.09257 18.8433C5.87829 18.738 3.88322 16.5436 3.34751 14.7705C4.23421 14.9285 5.12091 14.8934 5.98913 14.7003C6.00761 14.7003 6.02608 14.6827 6.08149 14.6652C4.34504 14.2789 2.99652 13.4012 2.07287 11.9792C1.46326 11.0312 1.1677 9.99546 1.1677 8.85437C2.03593 9.29325 2.9411 9.53902 3.92016 9.55658C2.60858 8.66126 1.74036 7.50261 1.38937 5.99286C1.03839 4.50066 1.26007 3.07868 2.0544 1.74448C5.398 5.48375 9.62829 7.53772 14.7822 7.87127C14.7453 7.64305 14.7083 7.43239 14.6899 7.22173C14.5236 5.83486 14.8007 4.55332 15.595 3.39468C16.5741 1.93759 17.978 1.02472 19.7699 0.743831C21.8389 0.427837 23.6492 0.989605 25.164 2.37647C25.2749 2.46425 25.3487 2.49936 25.4965 2.46425C26.7712 2.20092 27.9534 1.76204 29.0803 1.1476C29.0987 1.13005 29.1357 1.11249 29.1542 1.11249C29.1542 1.11249 29.1726 1.11249 29.1911 1.11249C28.7108 2.4818 27.8056 3.53512 26.5495 4.30755C27.7502 4.18466 28.8771 3.88622 29.9854 3.42979C30.0039 3.44734 30.0039 3.44734 30.0039 3.4649C29.7638 3.76334 29.5421 4.06178 29.3019 4.34266C28.6554 5.11509 27.898 5.78219 27.0667 6.36152C26.9928 6.41418 26.9559 6.46685 26.9744 6.53707C27.0113 7.41483 26.9744 8.27504 26.8635 9.13525C26.6234 10.961 26.0877 12.699 25.2748 14.3492C24.4251 16.0696 23.3352 17.6144 21.9312 18.9662C19.5852 21.2835 16.7404 22.7581 13.4522 23.4604C12.3253 23.6886 11.18 23.8115 10.0162 23.8466C6.45095 23.9519 3.16278 23.1092 0.151693 21.3362C0.114747 21.3186 0.0777979 21.2835 0.00390625 21.2484C2.16524 21.4766 4.19726 21.2133 6.17386 20.4408C7.18987 20.0546 8.16893 19.528 9.09257 18.8433Z" fill="#CB1B5B"/>
</svg>
