<svg width="24" height="24" viewBox="0 0 24 24" fill="none" xmlns="http://www.w3.org/2000/svg">
<g id="add_photo_alternate_FILL0_wght400_GRAD0_opsz48 1">
<path id="Vector" d="M4.5 21C4.0875 21 3.73438 20.8531 3.44063 20.5594C3.14688 20.2656 3 19.9125 3 19.5V4.5C3 4.0875 3.14688 3.73438 3.44063 3.44063C3.73438 3.14688 4.0875 3 4.5 3H13.975C14.1875 3 14.3656 3.07229 14.5094 3.21687C14.6531 3.36147 14.725 3.54064 14.725 3.75437C14.725 3.96812 14.6531 4.14583 14.5094 4.2875C14.3656 4.42917 14.1875 4.5 13.975 4.5H4.5V19.5H19.5V10.05C19.5 9.8375 19.5723 9.65938 19.7169 9.51562C19.8615 9.37188 20.0406 9.3 20.2544 9.3C20.4681 9.3 20.6458 9.37188 20.7875 9.51562C20.9292 9.65938 21 9.8375 21 10.05V19.5C21 19.9125 20.8531 20.2656 20.5594 20.5594C20.2656 20.8531 19.9125 21 19.5 21H4.5ZM17.5 6.525H16.225C16.0125 6.525 15.8344 6.45271 15.6906 6.30813C15.5469 6.16353 15.475 5.98436 15.475 5.77063C15.475 5.55688 15.5469 5.37917 15.6906 5.2375C15.8344 5.09583 16.0125 5.025 16.225 5.025H17.5V3.75C17.5 3.5375 17.5723 3.35938 17.7169 3.21563C17.8615 3.07187 18.0406 3 18.2544 3C18.4681 3 18.6458 3.07187 18.7875 3.21563C18.9292 3.35938 19 3.5375 19 3.75V5.025H20.275C20.4875 5.025 20.6656 5.09729 20.8094 5.24187C20.9531 5.38647 21.025 5.56564 21.025 5.77937C21.025 5.99312 20.9531 6.17083 20.8094 6.3125C20.6656 6.45417 20.4875 6.525 20.275 6.525H19V7.8C19 8.0125 18.9277 8.19063 18.7831 8.33437C18.6385 8.47813 18.4594 8.55 18.2456 8.55C18.0319 8.55 17.8542 8.47813 17.7125 8.33437C17.5708 8.19063 17.5 8.0125 17.5 7.8V6.525ZM11.225 16.325L9.175 13.625C9.09167 13.525 8.99167 13.475 8.875 13.475C8.75833 13.475 8.65833 13.525 8.575 13.625L6.475 16.35C6.375 16.4833 6.3625 16.6167 6.4375 16.75C6.5125 16.8833 6.625 16.95 6.775 16.95H17.25C17.3917 16.95 17.4979 16.8833 17.5688 16.75C17.6396 16.6167 17.6333 16.4833 17.55 16.35L14.7 12.55C14.6167 12.45 14.5167 12.4 14.4 12.4C14.2833 12.4 14.1833 12.45 14.1 12.55L11.225 16.325Z" fill="#CB1B5B"/>
</g>
</svg>
