<svg width="64" height="64" viewBox="0 0 64 64" fill="none" xmlns="http://www.w3.org/2000/svg">
<g clip-path="url(#clip0_11431_98434)">
<path d="M22.6445 26.4741L35.5939 43.2866C40.2882 37.5953 45.8029 27.765 52.2573 21.8225C54.7097 19.5648 57.1439 17.452 59.5415 15.4758L48.5238 4.45801C46.5385 6.90163 44.402 9.38838 42.1033 11.8955C36.1788 18.3575 28.2903 21.884 22.6445 26.4741Z" fill="#C17D4F"/>
<path d="M48.5238 4.45801C47.9541 5.15938 47.3702 5.86463 46.7752 6.57263L48.7587 8.55613C52.4385 12.2359 52.2981 18.2324 48.4677 21.755C48.4432 21.7775 48.4187 21.8001 48.3941 21.8228C42.8068 26.9666 37.9243 35.0221 33.668 40.7863L35.5938 43.2868C40.2881 37.5954 45.8028 27.765 52.2572 21.8226C54.7096 19.5649 57.1438 17.4521 59.5415 15.4758L48.5238 4.45801Z" fill="#B16E3D"/>
<path d="M48.0227 3.95694L60.0421 15.9763C60.9473 16.8816 62.4149 16.8816 63.3201 15.9763C64.2253 15.0711 64.2253 13.6034 63.3201 12.6983L51.3007 0.678937C50.3954 -0.226313 48.9278 -0.226313 48.0227 0.678937C47.1174 1.58419 47.1174 3.05181 48.0227 3.95694Z" fill="#C17D4F"/>
<path d="M37.0246 10.7259C37.4487 10.8443 37.7826 11.1782 37.901 11.6023C39.3531 16.8062 38.0336 22.621 33.9411 26.7135C29.6713 30.9833 23.527 32.2347 18.1576 30.4693C16.3922 25.0999 17.6436 18.9556 21.9132 14.6858C26.0058 10.5932 31.8207 9.27368 37.0246 10.7259Z" fill="#B3E59F"/>
<path d="M37.9019 11.6021C37.7832 11.1771 37.4479 10.8435 37.0229 10.725C35.0337 10.1704 32.9556 10.022 30.9184 10.2772L30.948 10.281C32.8065 10.5167 34.2614 12.0049 34.4915 13.8641C35.057 18.433 33.5865 23.2059 30.0789 26.7135C27.5521 29.2402 24.3688 30.7095 21.0781 31.1224C25.6516 31.693 30.4307 30.2249 33.9421 26.7135C38.0345 22.6209 39.354 16.806 37.9019 11.6021Z" fill="#95D6A4"/>
<path d="M18.1575 31.4348C17.8999 31.4348 17.6428 31.3325 17.4527 31.1296C17.0878 30.7405 17.1075 30.1292 17.4967 29.7645L29.5952 18.4215C29.9845 18.0565 30.5955 18.0763 30.9604 18.4655C31.3253 18.8546 31.3055 19.4658 30.9164 19.8306L18.8179 31.1736C18.6314 31.3483 18.3942 31.4348 18.1575 31.4348Z" fill="#78C2A4"/>
<path d="M1.44695 10.7259C1.02283 10.8443 0.688954 11.1782 0.570579 11.6023C-0.881546 16.8062 0.437954 22.621 4.53045 26.7135C8.8002 30.9833 14.9446 32.2347 20.314 30.4693C22.0793 25.0999 20.828 18.9556 16.5583 14.6858C12.4657 10.5932 6.65083 9.27368 1.44695 10.7259Z" fill="#B3E59F"/>
<path d="M16.5587 14.6858C13.0464 11.1735 8.26578 9.70567 3.69141 10.2774C6.98328 10.6898 10.1679 12.1582 12.6955 14.6858C16.9653 18.9554 18.2167 25.0999 16.4512 30.4693C15.4975 30.7828 14.5193 30.9993 13.5317 31.1224C15.8015 31.4073 18.1225 31.1899 20.3143 30.4693C22.0798 25.0999 20.8284 18.9555 16.5587 14.6858Z" fill="#95D6A4"/>
<path d="M20.3143 31.4348C20.0776 31.4348 19.8403 31.3483 19.6539 31.1735L7.55526 19.8305C7.16613 19.4657 7.14638 18.8545 7.51126 18.4654C7.87601 18.0764 8.48713 18.0564 8.87651 18.4214L20.9751 29.7644C21.3643 30.1293 21.384 30.7404 21.0191 31.1295C20.829 31.3323 20.5719 31.4348 20.3143 31.4348Z" fill="#78C2A4"/>
<path d="M24.8514 63.9996H39.1452C41.2788 63.9996 43.0083 62.27 43.0083 60.1365V57.0459H20.9883V60.1364C20.9883 62.27 22.7178 63.9996 24.8514 63.9996Z" fill="#181423"/>
<path d="M39.1483 57.0459V60.1364C39.1483 62.2699 37.4187 63.9995 35.2852 63.9995H39.1483C41.2819 63.9995 43.0114 62.2699 43.0114 60.1364V57.0459H39.1483Z" fill="#98969D"/>
<path d="M25.4337 58.9783H38.5684C51.0143 58.9783 61.1037 48.8889 61.1037 36.443V31.4209H2.89844V36.443C2.89844 48.8889 12.9878 58.9783 25.4337 58.9783Z" fill="#FFBFAB"/>
<path d="M57.2384 31.4209V36.443C57.2384 48.8889 47.149 58.9783 34.7031 58.9783H38.5662C51.0121 58.9783 61.1015 48.8889 61.1015 36.443V31.4209H57.2384Z" fill="#FAE8EF"/>
<path d="M25.4321 54.7927C16.1373 54.7927 8.30355 47.8386 7.20993 38.6167C7.14718 38.0871 7.52568 37.6067 8.05543 37.5439C8.58443 37.4811 9.0653 37.8596 9.12818 38.3893C10.1064 46.6397 17.1156 52.8612 25.4321 52.8612C25.9656 52.8612 26.3978 53.2936 26.3978 53.8269C26.3978 54.3603 25.9654 54.7927 25.4321 54.7927Z" fill="#DA3845"/>
<path d="M2.96175 33.3522H61.0382C62.674 33.3522 64 32.0262 64 30.3905C64 28.7547 62.674 27.4287 61.0382 27.4287H2.96175C1.326 27.4287 0 28.7547 0 30.3905C0 32.0262 1.326 33.3522 2.96175 33.3522Z" fill="#655E67"/>
<path d="M61.039 27.4287H57.1758C58.8115 27.4287 60.1375 28.7547 60.1375 30.3905C60.1375 32.0262 58.8115 33.3522 57.1758 33.3522H61.0389C62.6747 33.3522 64.0007 32.0262 64.0007 30.3905C64.0008 28.7547 62.6748 27.4287 61.039 27.4287Z" fill="#544F56"/>
</g>
<defs>
<clipPath id="clip0_11431_98434">
<rect width="64" height="64" fill="white"/>
</clipPath>
</defs>
</svg>
