<svg width="64" height="64" viewBox="0 0 64 64" fill="none" xmlns="http://www.w3.org/2000/svg">
<g clip-path="url(#clip0_11431_98841)">
<path d="M64 30.7998C64 27.0193 61.037 23.9313 57.3068 23.7302C56.9879 22.8607 56.6608 22.0928 56.3525 21.5013C52.3596 12.1233 43.0616 5.52071 32.3191 5.44871C32.3071 5.44834 32.2955 5.44696 32.2834 5.44671C32.1885 5.44521 32.0946 5.44821 31.9999 5.44771C31.9052 5.44821 31.8113 5.44521 31.7164 5.44671C31.7044 5.44696 31.6926 5.44834 31.6806 5.44871C20.9381 5.52071 11.4929 11.2422 7.50012 20.6203C7.19175 21.2118 6.79087 23.5108 6.69312 23.7302C2.963 23.9313 0 27.0193 0 30.7998C0 34.4398 2.74725 37.437 6.28113 37.8342C7.866 44.4126 9.86437 49.805 17.5465 53.943C18.7247 54.5776 20.3517 55.5212 21.3228 56.4422C23.622 58.6233 27.1215 59.4343 31.8525 59.4343C31.9015 59.4343 31.9508 59.4267 32.0001 59.4156C32.0495 59.4267 32.0988 59.4343 32.1478 59.4343C36.8787 59.4343 40.3783 57.9786 42.6775 55.7975C43.6484 54.8765 45.3316 54.0275 46.4538 53.2982C52.0226 49.679 56.1343 44.4126 57.7191 37.8342C61.2528 37.437 64 34.4398 64 30.7998Z" fill="#FBCDBE"/>
<path d="M57.3087 23.7302C56.9898 22.8607 56.6627 22.0928 56.3544 21.5013C52.3615 12.1233 43.0635 5.52059 32.321 5.44871C32.309 5.44834 32.2974 5.44696 32.2853 5.44671C32.1904 5.44521 32.0965 5.44821 32.0018 5.44771C31.9072 5.44821 31.8132 5.44521 31.7183 5.44671C31.7063 5.44696 31.6945 5.44834 31.6825 5.44871C30.625 5.45584 29.5803 5.51846 28.5519 5.63321C38.0303 6.76434 46.0249 12.9895 49.649 21.5015C49.9574 22.093 50.2844 22.8608 50.6033 23.7303C50.6033 23.7303 52.8264 30.055 51.0155 37.8343C49.4307 44.4127 45.319 49.6791 39.7502 53.2983C38.628 54.0276 36.9449 54.8766 35.9739 55.7977C34.1619 57.5167 31.6035 58.7845 28.2852 59.2447C29.3854 59.3745 30.5743 59.4345 31.8542 59.4345C31.9032 59.4345 31.9524 59.4268 32.0018 59.4156C32.0512 59.4267 32.1004 59.4345 32.1494 59.4345C36.8804 59.4345 40.3799 57.9787 42.6792 55.7976C43.65 54.8766 45.3333 54.0276 46.4554 53.2982C52.0243 49.679 56.1359 44.4126 57.7208 37.8342C61.2547 37.437 64.0019 34.4398 64.0019 30.7998C64.0019 27.0193 61.0389 23.9313 57.3087 23.7302Z" fill="#FFBFAB"/>
<path d="M34.5685 5.56077C33.9998 4.57165 32.678 3.95915 30.1032 5.50052C29.494 5.9534 28.7418 6.62477 28.0779 7.54515C26.8082 9.30552 25.6215 12.3341 27.1792 16.7646C27.319 17.1624 27.6925 17.4113 28.0915 17.4113C28.1979 17.4113 28.3063 17.3935 28.4123 17.3563C28.9162 17.1793 29.181 16.627 29.0039 16.1233C26.7109 9.6009 31.3758 6.89352 32.0392 6.54702C31.7247 7.48165 31.5054 8.7549 31.8357 10.1839C32.374 12.5138 34.1773 14.5226 37.1957 16.1549C37.3419 16.2341 37.4994 16.2716 37.6548 16.2715C37.9985 16.2715 38.3314 16.0879 38.5063 15.7643C38.7604 15.2945 38.5855 14.7076 38.1157 14.4536C35.6192 13.1034 34.1422 11.5288 33.7259 9.7734C33.2469 7.7529 34.3669 6.09902 34.3933 6.06052C34.5015 5.90815 34.5582 5.73477 34.5685 5.56077Z" fill="#5C576B"/>
<path d="M6.39363 34.2007C4.78737 33.882 3.60938 32.4686 3.60938 30.7996C3.60938 29.1246 4.79788 27.7156 6.39363 27.3975C6.39363 27.3975 6.10862 33.9157 6.39363 34.2007Z" fill="#FFBFAB"/>
<path d="M57.6055 34.2007C59.2117 33.882 60.3897 32.4686 60.3897 30.7996C60.3897 29.1246 59.2012 27.7156 57.6055 27.3975V34.2007Z" fill="#FBCDBE"/>
<path d="M36.5569 41.252C35.6846 41.252 34.6602 41.4275 33.6141 41.7445C32.5607 42.0637 31.4382 42.0637 30.3848 41.7445C29.3387 41.4273 28.3143 41.252 27.4419 41.252C23.9489 41.252 21.1172 44.0615 21.1172 47.5273C21.1172 50.9931 23.9489 53.8027 27.4419 53.8027C28.3143 53.8027 29.3387 53.6272 30.3848 53.3101C31.4382 52.9908 32.5607 52.9908 33.6141 53.3101C34.6602 53.6272 35.6846 53.8027 36.5569 53.8027C40.0501 53.8027 42.8817 50.9931 42.8817 47.5273C42.8817 44.0616 40.0501 41.252 36.5569 41.252Z" fill="#CB1B5B"/>
<path d="M36.5586 41.252C35.6862 41.252 34.6618 41.4275 33.6157 41.7446C33.3338 41.83 33.0469 41.8918 32.7578 41.9315C34.8124 42.9678 36.2211 45.0837 36.2211 47.5273C36.2211 49.971 34.8124 52.0867 32.7578 53.1232C33.0469 53.163 33.3338 53.2247 33.6156 53.3102C34.6617 53.6273 35.6861 53.8027 36.5584 53.8027C40.0514 53.8027 42.8832 50.9931 42.8832 47.5273C42.8833 44.0616 40.0517 41.252 36.5586 41.252Z" fill="#FAE8EF"/>
<path d="M33.6208 58.0338H30.3768C27.4961 58.0338 25.1523 55.6901 25.1523 52.8092V51.3794C25.1523 48.8656 27.1976 46.8203 29.7115 46.8203H34.2862C36.8001 46.8203 38.8452 48.8656 38.8452 51.3794V52.8092C38.8453 55.6901 36.5016 58.0338 33.6208 58.0338ZM29.7115 48.7544C28.2641 48.7544 27.0865 49.9319 27.0865 51.3794V52.8092C27.0865 54.6234 28.5626 56.0996 30.3768 56.0996H33.6208C35.4351 56.0996 36.9111 54.6234 36.9111 52.8092V51.3794C36.9111 49.9319 35.7336 48.7544 34.2862 48.7544H29.7115Z" fill="#FF9F40"/>
<path d="M31.9981 50.1222C33.3864 50.1222 34.5119 48.9968 34.5119 47.6085C34.5119 46.2202 33.3864 45.0947 31.9981 45.0947C30.6098 45.0947 29.4844 46.2202 29.4844 47.6085C29.4844 48.9968 30.6098 50.1222 31.9981 50.1222Z" fill="#F77FA4"/>
<path d="M32.0039 45.0947V50.1216C33.3897 50.1187 34.5123 48.9946 34.5123 47.6082C34.5123 46.2217 33.3897 45.0977 32.0039 45.0947Z" fill="#DD6FA1"/>
</g>
<defs>
<clipPath id="clip0_11431_98841">
<rect width="64" height="64" fill="white"/>
</clipPath>
</defs>
</svg>
