<svg width="64" height="64" viewBox="0 0 64 64" fill="none" xmlns="http://www.w3.org/2000/svg">
<path d="M48.9793 16.8105C43.8693 11.1504 38.4293 8.15043 32.8093 7.91044C30.5493 7.81046 28.5193 8.17045 26.7893 8.72044C27.1893 8.88047 27.6593 9.09044 28.1793 9.34044C29.3697 9.93313 28.482 11.6962 27.3193 11.1405C26.0224 10.4457 24.577 10.1707 24.2192 9.76058C22.9593 10.3705 21.9893 11.0304 21.3593 11.5005C20.2593 9.48046 21.0693 5.89049 21.5393 4.52044C21.8546 3.71598 20.8979 2.88713 20.1493 3.30052C19.3493 3.43047 15.4193 3.25048 12.1193 3.00048C11.6993 2.97045 11.2893 3.22045 11.1193 3.62048C11.0793 3.72046 7.22931 13.3905 16.1193 21.0105C23.9693 27.7405 29.1693 34.0804 29.3793 37.1604C29.4093 37.6205 29.3193 37.9705 29.0993 38.2205C26.7592 41.3241 23.3103 39.3726 17.6993 37.5004C11.4997 35.4811 7.0477 43.4101 11.3594 48.8204C14.8693 53.3705 14.0793 59.8105 14.0693 59.8705C13.9868 60.4493 14.4749 61.0179 15.0593 61.0005C15.0593 61.0005 24.0393 61.0005 24.0393 61.0005C24.2008 60.9758 24.3432 60.9826 24.5093 61.0005C25.0593 61.0005 25.5093 60.5505 25.5093 60.0005V54.6905C26.5993 55.1205 27.7193 55.4405 28.8293 55.6405C29.7321 54.4468 30.9048 53.2071 31.8794 52.1405C32.7454 51.1466 34.2477 52.4905 33.3793 53.4605C32.6775 54.2258 31.9286 55.1669 31.1993 55.9305C48.6667 56.6791 62.3635 31.6876 48.9793 16.8105ZM40.6893 23.5505C40.1954 23.7797 39.6011 23.5548 39.3693 23.0404C38.9893 22.1704 38.5393 21.3205 38.0493 20.5105C37.7593 20.0404 37.8993 19.4204 38.3693 19.1305C38.8493 18.8404 39.4593 18.9905 39.7493 19.4604C40.2993 20.3504 40.7893 21.2804 41.1993 22.2305C41.4293 22.7405 41.1993 23.3304 40.6893 23.5505ZM42.2693 25.1705C42.4388 26.3064 43.8652 29.2118 41.9595 29.3805C41.4693 29.3805 41.0493 29.0204 40.9693 28.5304C40.8193 27.5804 40.6093 26.6405 40.3493 25.7304C40.0077 24.4645 41.8822 23.9164 42.2693 25.1705ZM37.7993 18.3205C37.3654 18.6648 36.7455 18.597 36.3893 18.1704C35.7893 17.4405 35.1393 16.7204 34.4393 16.0505C34.0393 15.6705 34.0294 15.0304 34.4193 14.6405C34.7993 14.2405 35.4293 14.2305 35.8293 14.6105C36.5894 15.3404 37.2993 16.1105 37.9393 16.9104C38.2893 17.3404 38.2193 17.9704 37.7993 18.3205ZM37.0993 45.0404C37.6093 44.1905 38.0793 43.3205 38.4893 42.4704C38.7293 41.9804 39.3293 41.7704 39.8293 42.0105C40.3293 42.2505 40.5294 42.8504 40.2893 43.3504C39.8493 44.2505 39.3593 45.1604 38.8193 46.0605C38.6393 46.3805 38.3093 46.5505 37.9593 46.5505C37.214 46.5727 36.6974 45.6863 37.0993 45.0404ZM40.2293 41.0904C39.7093 40.9004 39.4493 40.3205 39.6493 39.8105C39.9893 38.8805 40.2893 37.9604 40.5193 37.0505C40.6593 36.5105 41.1993 36.1905 41.7393 36.3304C42.2693 36.4704 42.5894 37.0105 42.4593 37.5505C42.2093 38.5204 41.8893 39.5204 41.5193 40.5105C41.3267 41.0272 40.7366 41.298 40.2293 41.0904ZM42.0493 35.3504C40.3285 35.2491 41.4234 32.7738 41.2192 31.6604C41.1316 31.0178 41.5102 30.3641 42.2094 30.3605C42.9054 30.3939 43.3089 31 43.2193 31.6605C43.2193 32.5904 43.1593 33.5404 43.0393 34.4804C42.9793 34.9804 42.5493 35.3504 42.0493 35.3504ZM32.8593 14.3705C31.9504 14.2325 30.8286 12.9829 29.8592 12.5306C28.7577 11.8132 29.7684 10.1624 30.9093 10.8205C31.7993 11.3705 32.6593 11.9604 33.4693 12.5804C33.9093 12.9205 33.9893 13.5405 33.6593 13.9805C33.4594 14.2405 33.1593 14.3705 32.8593 14.3705ZM33.7693 49.8705C34.3893 49.0904 34.9793 48.2904 35.5193 47.5105C35.8293 47.0505 36.4593 46.9405 36.9093 47.2505C37.3693 47.5705 37.4793 48.1905 37.1693 48.6504C36.5993 49.4604 35.9893 50.2904 35.3393 51.1104C35.1493 51.3604 34.8493 51.4904 34.5593 51.4904C33.7491 51.5176 33.2507 50.504 33.7693 49.8705Z" fill="url(#paint0_linear_11431_98510)"/>
<defs>
<linearGradient id="paint0_linear_11431_98510" x1="9.64433" y1="31.9995" x2="54.3643" y2="31.9995" gradientUnits="userSpaceOnUse">
<stop stop-color="#E94444"/>
<stop offset="1" stop-color="#EE6161"/>
</linearGradient>
</defs>
</svg>
