<svg width="78" height="78" viewBox="0 0 78 78" fill="none" xmlns="http://www.w3.org/2000/svg">
<rect width="78" height="78" rx="22" fill="#FFF9FB"/>
<path d="M39.033 53.2162C35.1496 53.2162 31.2663 52.5995 27.583 51.3662C26.183 50.8828 25.1163 49.8995 24.6496 48.6162C24.1663 47.3328 24.333 45.9162 25.0996 44.6495L27.0163 41.4662C27.4163 40.7995 27.783 39.4662 27.783 38.6828V33.8662C27.783 27.6662 32.833 22.6162 39.033 22.6162C45.233 22.6162 50.283 27.6662 50.283 33.8662V38.6828C50.283 39.4495 50.6497 40.7995 51.0497 41.4828L52.9497 44.6495C53.6663 45.8495 53.7997 47.2995 53.3163 48.6162C52.833 49.9328 51.783 50.9328 50.4663 51.3662C46.7997 52.5995 42.9163 53.2162 39.033 53.2162ZM39.033 25.1162C34.2163 25.1162 30.283 29.0329 30.283 33.8662V38.6828C30.283 39.8995 29.783 41.6995 29.1663 42.7495L27.2496 45.9328C26.883 46.5495 26.783 47.1995 26.9996 47.7495C27.1996 48.3162 27.6996 48.7495 28.383 48.9828C35.3496 51.3162 42.733 51.3162 49.6997 48.9828C50.2997 48.7828 50.7663 48.3328 50.983 47.7328C51.1997 47.1328 51.1497 46.4828 50.8163 45.9328L48.8997 42.7495C48.2663 41.6662 47.783 39.8828 47.783 38.6662V33.8662C47.783 29.0329 43.8663 25.1162 39.033 25.1162Z" fill="#CB1B5B"/>
<path d="M42.1327 25.5668C42.016 25.5668 41.8993 25.5501 41.7827 25.5168C41.2993 25.3835 40.8327 25.2835 40.3827 25.2168C38.966 25.0335 37.5993 25.1335 36.316 25.5168C35.8493 25.6668 35.3494 25.5168 35.0327 25.1668C34.716 24.8168 34.616 24.3168 34.7994 23.8668C35.4827 22.1168 37.1493 20.9668 39.0493 20.9668C40.9493 20.9668 42.616 22.1001 43.2993 23.8668C43.466 24.3168 43.3827 24.8168 43.066 25.1668C42.816 25.4335 42.466 25.5668 42.1327 25.5668Z" fill="#CB1B5B"/>
<path d="M39.0322 57.0166C37.3822 57.0166 35.7822 56.3499 34.6156 55.1833C33.4489 54.0166 32.7822 52.4166 32.7822 50.7666H35.2822C35.2822 51.7499 35.6822 52.7166 36.3822 53.4166C37.0822 54.1166 38.0488 54.5166 39.0322 54.5166C41.0988 54.5166 42.7822 52.8333 42.7822 50.7666H45.2822C45.2822 54.2166 42.4822 57.0166 39.0322 57.0166Z" fill="#CB1B5B"/>
</svg>
