<svg width="93" height="68" viewBox="0 0 93 68" fill="none" xmlns="http://www.w3.org/2000/svg">
<path d="M74.9303 30.99C72.6177 27.9908 70.1873 25.4392 67.6518 23.3419C67.5682 23.2605 67.4777 23.1862 67.3808 23.1203C57.0218 14.7079 45.4801 14.3183 33.4255 19.918C26.8931 20.9632 22.307 24.2608 19.7857 29.7257C14.1867 36.2074 13.0566 42.9142 18.7833 49.5124C21.6337 54.6346 26.3827 55.4862 31.8503 53.0673C34.0881 57.1841 38.1941 59.4741 45.2652 57.9363C47.0415 60.1863 50.2606 60.4886 52.2331 60.5153L58.2206 67.1572C58.6023 67.5807 59.1457 67.8223 59.7158 67.8223H63.933C65.2316 67.8223 66.1937 66.6077 65.891 65.3411L65.3445 63.0554C75.438 60.9335 80.8261 51.884 76.3538 46.6314C80.4842 41.6417 79.6047 35.5963 74.9303 30.99Z" fill="#DD636E"/>
<path d="M58.2214 67.1575C58.6031 67.581 59.1465 67.8227 59.7166 67.8227H63.9339C65.2324 67.8227 66.1945 66.6081 65.8918 65.3415L65.3453 63.0557C75.1638 60.9917 80.6114 52.3167 76.6289 46.9773C73.9687 45.8447 71.1561 44.2205 69.7454 42.0627C66.6218 37.285 65.6222 44.0915 62.8735 46.0906C60.1247 48.0897 49.8795 51.9628 35.7609 43.1029C21.6425 34.2429 25.3907 47.0902 21.8923 44.6271C19.9617 43.2677 17.9998 44.8102 16.6289 46.4655C17.1986 47.4964 17.9166 48.513 18.7843 49.5127C21.6347 54.6348 26.3836 55.4865 31.8513 53.0675C34.089 57.1844 38.1951 59.4744 45.2661 57.9365C47.0424 60.1865 50.2616 60.4888 52.234 60.5155L58.2214 67.1575Z" fill="#EB7A84"/>
<path d="M74.9281 30.99C72.6155 27.9908 70.1851 25.4392 67.6496 23.3419C67.5659 23.2605 67.4755 23.1862 67.3786 23.1203C57.0196 14.7079 45.4779 14.3183 33.4233 19.918C29.1312 20.6046 25.6796 22.2639 23.1016 24.8712C24.1062 25.2504 25.5654 25.6256 27.6365 25.9746C38.7564 27.8488 40.0058 18.603 45.5033 23.7256C51.0007 28.8482 54.4991 32.8463 60.6213 33.5961C66.7436 34.3458 62.8703 26.543 69.2423 32.1936C71.8996 34.5499 75.0561 35.1015 77.7432 34.7309C77.0683 33.4265 76.1258 32.1703 74.9281 30.99Z" fill="#EB7A84"/>
<path d="M36.2162 41.7518C35.1784 42.1505 34.6602 43.3151 35.059 44.3528C35.7277 46.0937 33.6418 47.6939 32.3038 48.365C30.4123 49.3135 31.0916 52.178 33.2079 52.178C33.5113 52.178 33.8192 52.109 34.1088 51.9639C38.2147 49.9047 40.107 46.2659 38.8175 42.9092C38.4186 41.8712 37.2543 41.3527 36.2162 41.7518Z" fill="#D82E3D"/>
<path d="M60.1207 44.9841C61.6769 40.789 61.0525 36.0738 57.168 34.0126C56.1857 33.4914 54.9672 33.8653 54.4462 34.8474C53.9251 35.8295 54.2989 37.0481 55.281 37.5692C57.1903 38.5823 57.1107 41.2333 56.4357 43.3191C52.0396 42.0302 48.1419 43.2354 46.38 46.4894C45.8505 47.4671 46.214 48.6887 47.1917 49.2181C48.1695 49.7471 49.391 49.3841 49.9205 48.4063C52.096 44.3876 61.65 48.8629 60.9444 52.8282C60.7255 54.0577 61.6695 55.1944 62.9287 55.1944C63.8859 55.1944 64.7347 54.5091 64.9083 53.5338C65.5234 50.0773 63.2398 46.9538 60.1207 44.9841Z" fill="#D82E3D"/>
<path d="M48.341 38.8238C49.3532 38.3641 49.8011 37.1707 49.3415 36.1585C48.8819 35.1462 47.6886 34.6981 46.6762 35.1579C45.8336 35.5406 44.8052 34.7594 44.0745 33.6807C45.0942 32.2543 45.4142 30.5829 44.8918 28.9353C44.5558 27.8755 43.4244 27.2892 42.3644 27.6248C41.3047 27.961 40.718 29.0925 41.054 30.1523C41.4559 31.4195 39.4536 32.4718 39.2242 32.5876C37.4812 33.4667 35.6444 33.3861 35.1666 32.7268C34.5141 31.8266 33.2554 31.6261 32.3552 32.2783C31.455 32.9309 31.2543 34.1895 31.9068 35.0897C33.8769 37.8078 37.9279 37.7105 40.9455 36.2271C42.775 38.7261 45.5926 40.0715 48.341 38.8238Z" fill="#D82E3D"/>
<path d="M51.6528 33.3187C52.8619 33.3187 53.7941 32.2662 53.6548 31.0722C53.1245 26.5248 54.6587 23.4861 58.4829 21.5089C59.4704 20.9982 59.8572 19.7837 59.3465 18.796C58.8359 17.8085 57.6217 17.4216 56.6336 17.9324C51.3492 20.6647 48.9361 25.3695 49.6556 31.5386C49.7752 32.5638 50.6451 33.3187 51.6528 33.3187Z" fill="#D82E3D"/>
<path d="M71.4131 39.0353C71.2007 37.9439 70.1435 37.231 69.0527 37.4438L65.8672 38.0636C64.7759 38.276 64.0633 39.3327 64.2758 40.424C64.4627 41.3855 65.3055 42.053 66.2496 42.053C66.5261 42.053 66.3968 42.062 69.8218 41.3957C70.9129 41.1833 71.6255 40.1266 71.4131 39.0353Z" fill="#D82E3D"/>
<path d="M62.997 32.1871C63.3032 32.1871 63.614 32.1169 63.9058 31.969C66.642 30.5817 68.1489 28.1217 68.2634 24.8552C68.3024 23.7441 67.4332 22.8118 66.3221 22.7728C65.2081 22.7327 64.2787 23.6031 64.2397 24.7142C64.1761 26.5248 63.5117 27.6548 62.0849 28.3781C60.2022 29.3327 60.8851 32.1871 62.997 32.1871Z" fill="#D82E3D"/>
<path d="M27.8763 38.8543C23.9635 38.8543 22.18 34.7107 23.3808 31.5377C23.7743 30.4979 23.2504 29.3359 22.2106 28.9425C21.1705 28.5487 20.0088 29.0729 19.6154 30.1127C17.3884 35.9977 21.1852 42.8805 27.8764 42.8805C28.9881 42.8805 29.8895 41.9793 29.8895 40.8675C29.8895 39.7556 28.9881 38.8543 27.8763 38.8543Z" fill="#D82E3D"/>
<path d="M34.017 23.8777C36.0264 23.8777 36.5309 24.8384 37.2955 25.9351C37.9275 26.8428 39.1811 27.0752 40.0978 26.437C41.0103 25.8017 41.235 24.5471 40.5997 23.6348C40.5551 23.5706 40.5086 23.5018 40.4597 23.4293C39.675 22.2681 38.0422 19.8516 34.017 19.8516C32.9053 19.8516 32.0039 20.7528 32.0039 21.8646C32.0039 22.9765 32.9051 23.8777 34.017 23.8777Z" fill="#D82E3D"/>
<path d="M46.4983 5.3913C45.3817 5.3913 44.4766 4.58671 44.4766 3.5942V1.7971C44.4766 0.80459 45.3817 0 46.4983 0C47.6149 0 48.52 0.80459 48.52 1.7971V3.5942C48.52 4.58671 47.6149 5.3913 46.4983 5.3913Z" fill="#C5EDB6"/>
<path d="M77.27 18.8698C76.5462 18.8697 75.8937 18.4336 75.6167 17.7649C75.3398 17.0962 75.4928 16.3266 76.0046 15.8147L77.7944 14.025C78.2438 13.5597 78.9093 13.3731 79.5351 13.5369C80.1609 13.7007 80.6496 14.1894 80.8134 14.8151C80.9772 15.4409 80.7906 16.1063 80.3253 16.5557L78.5354 18.3454C78.1999 18.6811 77.7447 18.8697 77.27 18.8698Z" fill="#C5EDB6"/>
<path d="M15.2835 18.8698C14.6901 18.8697 14.1212 18.6811 13.7017 18.3454L11.4643 16.5557C10.8827 16.1063 10.6495 15.4409 10.8542 14.8151C11.059 14.1894 11.6699 13.7007 12.4521 13.5369C13.2343 13.3731 14.0662 13.5597 14.6279 14.025L16.8653 15.8147C17.5049 16.3266 17.6962 17.0962 17.35 17.7649C17.0038 18.4336 16.1882 18.8697 15.2835 18.8698Z" fill="#C5EDB6"/>
<path d="M30.2127 10.7824C29.3495 10.7826 28.5711 10.3032 28.2405 9.5676L25.7902 4.10969C25.4787 3.45664 25.5745 2.69922 26.0407 2.12989C26.5068 1.56057 27.2704 1.26844 28.0366 1.3663C28.8027 1.46417 29.4515 1.93672 29.7324 2.60149L32.1849 8.05939C32.4025 8.54211 32.4031 9.08486 32.1865 9.56797C31.9698 10.0511 31.5538 10.4349 31.0302 10.6348C30.7706 10.7324 30.493 10.7825 30.2127 10.7824Z" fill="#C5EDB6"/>
<path d="M62.3606 10.7824C62.1362 10.7819 61.9141 10.7311 61.7065 10.6328C61.288 10.4329 60.9555 10.0494 60.7822 9.56678C60.6089 9.08413 60.6091 8.54189 60.7826 8.05939L62.7448 2.60149C62.9696 1.93672 63.4887 1.46417 64.1017 1.3663C64.7146 1.26844 65.3256 1.56057 65.6986 2.12989C66.0716 2.69922 66.1482 3.45664 65.899 4.10969L63.9385 9.5676C63.674 10.3032 63.0512 10.7826 62.3606 10.7824Z" fill="#C5EDB6"/>
<path d="M85.5486 33.696C84.6037 33.6985 83.789 33.121 83.6046 32.318C83.4202 31.5151 83.9178 30.7114 84.7918 30.4003L90.2693 28.4349C90.9216 28.2009 91.6684 28.2863 92.2284 28.6587C92.7884 29.0312 93.0765 29.6342 92.9842 30.2407C92.8919 30.8471 92.4332 31.3648 91.7809 31.5987L86.3054 33.5642C86.0656 33.6508 85.8084 33.6956 85.5486 33.696Z" fill="#C5EDB6"/>
<path d="M7.45258 33.696C7.19276 33.6956 6.93558 33.6508 6.69577 33.5642L1.22029 31.5987C0.567989 31.3648 0.109295 30.8471 0.0169951 30.2407C-0.0753052 29.6342 0.21281 29.0312 0.772812 28.6587C1.33281 28.2863 2.07962 28.2009 2.73193 28.4349L8.20938 30.4003C9.08344 30.7114 9.58099 31.5151 9.3966 32.318C9.21221 33.121 8.3975 33.6985 7.45258 33.696Z" fill="#C5EDB6"/>
</svg>
