<svg width="64" height="64" viewBox="0 0 64 64" fill="none" xmlns="http://www.w3.org/2000/svg">
<g clip-path="url(#clip0_11431_98631)">
<path fill-rule="evenodd" clip-rule="evenodd" d="M28.5078 31.1184L32.0008 56.6226V56.6632C32.0085 59.3441 33.4423 61.4443 35.4972 62.7575C36.7855 63.5808 38.2947 63.9913 39.8235 63.9913H41.58C44.5037 63.9913 47.2458 62.4571 48.6737 59.9058C48.7197 59.8237 48.7647 59.7403 48.8087 59.6557C52.9396 59.3236 56.4897 54.1504 55.2545 49.0325C59.4223 48.7263 61.9445 40.7375 58.4571 37.1731C61.2899 34.258 61.2899 26.0923 56.8262 24.6716C59.4223 19.9079 56.486 13.9413 51.083 13.7568C53.1465 10.7127 52.026 4.67231 46.3087 4.67969C42.3481 -1.75914 35.4732 -1.04336 32.0006 3.73143L28.5078 31.1184Z" fill="#EE6161"/>
<path fill-rule="evenodd" clip-rule="evenodd" d="M53.5496 40.0738C54.9438 43.9962 52.6066 49.6565 49.1119 49.9111C50.3471 55.029 46.797 60.2022 42.6661 60.5307C41.8562 62.0952 40.7028 63.2198 39.3751 63.98C39.5132 63.9846 39.6521 63.9885 39.7918 63.9917C40.4019 64.0057 40.998 63.9995 41.58 63.9917C44.8728 63.9486 47.2327 62.3509 48.6737 59.9062C48.7197 59.8241 48.7647 59.7408 48.8087 59.6561C52.9396 59.3241 56.4898 54.1508 55.2545 49.0329C59.4223 48.7267 61.9445 40.738 58.4572 37.1735C61.2899 34.2585 61.2899 26.0928 56.8262 24.6721C59.4223 19.9084 56.486 13.9418 51.0831 13.7573C53.1466 10.7132 52.0261 4.67278 46.3088 4.68015C43.2393 -0.312233 38.4169 -1.00227 34.7891 1.16009C36.7676 1.72089 38.6721 3.13047 40.1662 5.55842C41.1462 5.5548 41.9893 5.7319 42.7067 6.04186C46.1719 7.5363 46.649 12.1155 44.9404 14.6357C50.3434 14.8202 53.2797 20.7868 50.6836 25.5505C55.1473 26.971 55.1473 35.1368 52.3145 38.0519C52.8766 38.6273 53.2834 39.3174 53.5496 40.0738Z" fill="#E94444"/>
<path d="M41.2235 9.07518C41.0707 9.07518 40.9157 9.03893 40.7711 8.96257C40.2973 8.71222 40.1162 8.12517 40.3665 7.65135C42.1587 4.25977 44.3646 3.75596 46.2863 3.71034C46.8171 3.69547 47.2665 4.12154 47.2793 4.65735C47.2919 5.19303 46.868 5.6376 46.3323 5.65035C44.8841 5.6846 43.4694 5.93282 42.0822 8.55787C41.9083 8.88733 41.5717 9.07518 41.2235 9.07518Z" fill="#D83131"/>
<path d="M42.5533 29.0796C40.4345 29.0796 38.4819 28.1524 37.134 26.4192C36.8052 25.9963 36.8813 25.3866 37.3044 25.0576C37.7276 24.7287 38.3371 24.8049 38.6661 25.228C40.0429 26.9985 42.2208 27.5862 44.4922 26.8003C46.6171 26.065 48.754 23.995 48.738 21.0282C48.7351 20.4924 49.1672 20.0556 49.7031 20.0527H49.7083C50.2418 20.0527 50.6756 20.4837 50.6785 21.0177C50.6967 24.4178 48.4657 27.4786 45.1268 28.6341C44.261 28.9336 43.394 29.0796 42.5533 29.0796Z" fill="#D83131"/>
<path d="M50.1514 33.4615C48.7727 33.4615 47.2418 32.7919 46.1444 31.7064C45.3444 30.915 44.3906 29.5426 44.3906 27.4986C44.3906 26.9628 44.8249 26.5283 45.3609 26.5283C45.8968 26.5283 46.3311 26.9628 46.3311 27.4986C46.3311 28.8732 46.9717 29.7953 47.5091 30.3269C48.2445 31.0544 49.278 31.521 50.1499 31.521C50.1625 31.5208 50.1747 31.5207 50.1872 31.5207C50.718 31.5207 51.1514 31.9482 51.1572 32.4805C51.163 33.0163 50.7333 33.4553 50.1975 33.4612C50.1823 33.4615 50.1667 33.4615 50.1514 33.4615Z" fill="#D83131"/>
<path d="M51.6852 41.1907C51.5903 41.1907 51.4952 41.1897 51.3993 41.1877C50.8636 41.1766 50.4383 40.7334 50.4494 40.1976C50.4604 39.6618 50.901 39.2364 51.4396 39.2476C54.2768 39.3067 56.4272 38.3979 57.6598 36.6205C57.9651 36.1802 58.5698 36.0708 59.0101 36.3762C59.4505 36.6815 59.5598 37.2861 59.2545 37.7264C57.7008 39.9665 55.0202 41.1907 51.6852 41.1907Z" fill="#D83131"/>
<path d="M40.3104 56.2911C40.3069 56.2911 40.3033 56.2911 40.2998 56.2911C39.7639 56.2853 39.3342 55.8462 39.3399 55.3104C39.3971 49.9797 42.4455 46.9176 48.6591 45.9492C49.1896 45.8667 49.6849 46.229 49.7672 46.7585C49.8499 47.2879 49.4875 47.784 48.9581 47.8666C42.2128 48.9178 41.3118 52.408 41.2805 55.3313C41.2747 55.8634 40.8415 56.2911 40.3104 56.2911Z" fill="#D83131"/>
<path d="M43.1154 42.2875C41.5306 42.2875 39.7683 41.5153 38.5034 40.2639C37.5822 39.3527 36.4844 37.7728 36.4844 35.4205C36.4844 34.8846 36.9187 34.4502 37.4546 34.4502C37.9906 34.4502 38.4249 34.8846 38.4249 35.4205C38.4249 37.1034 39.2097 38.233 39.8681 38.8843C40.7687 39.7753 42.0393 40.3468 43.1144 40.3468C43.1288 40.3468 43.1432 40.3467 43.1576 40.3466C43.6885 40.3466 44.1218 40.7742 44.1276 41.3065C44.1332 41.8423 43.7036 42.2814 43.1678 42.2871C43.1503 42.2874 43.1329 42.2875 43.1154 42.2875Z" fill="#D83131"/>
<path fill-rule="evenodd" clip-rule="evenodd" d="M32.0013 3.73246V56.6636C31.9931 59.3449 30.5613 61.445 28.5062 62.7584C27.218 63.5817 25.7089 63.9923 24.18 63.9923H22.4221C19.4982 63.9923 16.7561 62.4577 15.3287 59.906C15.2827 59.8239 15.2377 59.7404 15.1937 59.6558C11.063 59.3246 7.51176 54.1513 8.75111 49.0334C4.579 48.7268 2.05756 40.7383 5.54538 37.1742C2.71223 34.2582 2.71223 26.0925 7.17543 24.672C4.579 19.9087 7.51564 13.9422 12.9193 13.7572C10.856 10.7132 11.9801 4.67297 17.6969 4.68071C21.6544 -1.75799 28.5329 -1.04258 32.0013 3.73246Z" fill="#F47C7C"/>
<path d="M20.8869 42.2875C20.8694 42.2875 20.8522 42.2874 20.8348 42.2871C20.299 42.2814 19.8693 41.8423 19.8751 41.3065C19.8808 40.7707 20.3209 40.3376 20.8557 40.3467C21.9366 40.357 23.2245 39.7843 24.1343 38.8843C24.7927 38.233 25.5775 37.1034 25.5775 35.4205C25.5775 34.8846 26.0119 34.4502 26.5477 34.4502C27.0835 34.4502 27.518 34.8846 27.518 35.4205C27.518 37.7727 26.4201 39.3526 25.499 40.2639C24.234 41.5153 22.4716 42.2875 20.8869 42.2875Z" fill="#E94444"/>
<path d="M32.0009 21.7386C31.8518 21.7386 31.7004 21.7041 31.5586 21.6313C31.0819 21.3865 30.8938 20.8016 31.1386 20.325C33.0313 16.6386 36.6249 14.8346 40.5175 15.6179C41.0429 15.7235 41.3831 16.235 41.2774 16.7604C41.1718 17.2857 40.6603 17.626 40.1349 17.5203C36.5422 16.7982 34.0243 18.9533 32.8649 21.2113C32.6929 21.5461 32.3531 21.7386 32.0009 21.7386Z" fill="#D83131"/>
<path d="M32.0022 18.9283V21.7395C31.6489 21.7395 31.3114 21.5468 31.1393 21.2117C29.9801 18.9542 27.4613 16.799 23.8688 17.5208C23.3436 17.6269 22.8325 17.2867 22.7264 16.7614C22.6203 16.2348 22.9605 15.7239 23.4858 15.6178C26.8507 14.9412 29.9904 16.1961 32.0022 18.9283Z" fill="#E94444"/>
<path d="M22.779 9.07491C22.4308 9.07491 22.0943 8.88705 21.9202 8.55772C20.533 5.93254 19.12 5.68445 17.6739 5.6502C17.1382 5.63745 16.7141 5.19288 16.7268 4.6572C16.7396 4.12151 17.1867 3.69869 17.7198 3.71019C19.6396 3.75568 21.8437 4.2595 23.636 7.65121C23.8863 8.12502 23.7052 8.71195 23.2314 8.96242C23.0869 9.03878 22.9318 9.07491 22.779 9.07491Z" fill="#E94444"/>
<path d="M12.3163 41.1908C8.98086 41.1908 6.30056 39.9667 4.74725 37.7264C4.44192 37.2861 4.55128 36.6816 4.99172 36.3762C5.43217 36.0707 6.0366 36.1803 6.34193 36.6207C7.57441 38.3979 9.72514 39.3072 12.5622 39.2476C13.0982 39.2378 13.5413 39.6618 13.5523 40.1976C13.5633 40.7334 13.1381 41.1766 12.6023 41.1877C12.5065 41.1898 12.4109 41.1908 12.3163 41.1908Z" fill="#E94444"/>
<path d="M23.6911 56.2912C23.16 56.2912 22.7267 55.8636 22.7211 55.3313C22.6898 52.4082 21.7889 48.918 15.0436 47.8666C14.5142 47.784 14.1519 47.2879 14.2344 46.7585C14.317 46.229 14.8139 45.8666 15.3425 45.9492C21.5562 46.9177 24.6046 49.9799 24.6616 55.3106C24.6673 55.8464 24.2376 56.2853 23.7017 56.2911C23.6982 56.2912 23.6946 56.2912 23.6911 56.2912Z" fill="#E94444"/>
<path d="M26.6985 25.0576C26.2755 24.7287 25.666 24.8049 25.3369 25.228C23.9606 26.9978 21.7837 27.5857 19.5142 26.801C17.389 26.0662 15.2508 23.9961 15.265 21.0276C15.2675 20.4918 14.8352 20.0554 14.2994 20.0527C14.2978 20.0527 14.2963 20.0527 14.2946 20.0527C13.7609 20.0527 13.3271 20.4841 13.3245 21.0184C13.3104 23.9739 14.995 26.6717 17.6276 28.0857C17.4785 29.14 16.9487 29.8753 16.4919 30.3271C15.7489 31.0619 14.7073 31.5277 13.8246 31.5211C13.2899 31.5146 12.8497 31.9449 12.8438 32.4807C12.8381 33.0165 13.2676 33.4556 13.8034 33.4615C13.8188 33.4616 13.8342 33.4617 13.8494 33.4617C15.2281 33.4617 16.7592 32.792 17.8566 31.7067C18.4709 31.0991 19.1739 30.1474 19.4682 28.8138C20.136 28.9914 20.8007 29.0796 21.4501 29.0796C23.5685 29.0796 25.5214 28.1522 26.8688 26.4193C27.1978 25.9961 27.1216 25.3865 26.6985 25.0576Z" fill="#E94444"/>
</g>
<defs>
<clipPath id="clip0_11431_98631">
<rect width="64" height="64" fill="white"/>
</clipPath>
</defs>
</svg>
