<svg width="51" height="51" viewBox="0 0 51 51" fill="none" xmlns="http://www.w3.org/2000/svg">
<g clip-path="url(#clip0_185_1459)">
<path d="M22.2844 12.4273C17.5005 13.5427 13.6495 17.3365 12.4735 22.0925C11.2938 26.8637 12.6439 31.7269 16.0852 35.1016C17.3024 36.2954 18.0293 38.2088 18.0293 40.22V40.541C18.0293 41.8654 18.6071 43.0572 19.5234 43.8784V46.5176C19.5234 48.9892 21.5343 51 24.0059 51H26.9941C29.4657 51 31.4766 48.9892 31.4766 46.5176V43.8784C32.3929 43.0572 32.9707 41.8655 32.9707 40.541V40.2141C32.9707 38.2335 33.7364 36.2837 35.019 34.9985C37.5521 32.4597 38.9473 29.0864 38.9473 25.5C38.9473 16.9257 31.0015 10.3954 22.2844 12.4273ZM28.4883 46.5176C28.4883 47.3415 27.818 48.0117 26.9941 48.0117H24.0059C23.182 48.0117 22.5117 47.3415 22.5117 46.5176V45.0234H28.4883V46.5176ZM32.9036 32.8876C31.0471 34.748 29.9824 37.4184 29.9824 40.2141V40.541C29.9824 41.3649 29.3122 42.0352 28.4883 42.0352H22.5117C21.6879 42.0352 21.0176 41.3649 21.0176 40.541V40.22C21.0176 37.3812 19.9823 34.738 18.1774 32.968C15.4989 30.3413 14.4511 26.5439 15.3743 22.8098C16.2832 19.1335 19.262 16.2004 22.963 15.3376C29.8033 13.7425 35.959 18.8489 35.959 25.5C35.959 28.2895 34.8738 30.9131 32.9036 32.8876Z" fill="white"/>
<path d="M13.8783 11.7651L9.65221 7.53907C9.0688 6.95556 8.12271 6.95556 7.5392 7.53907C6.95568 8.12259 6.95568 9.06858 7.5392 9.65209L11.7653 13.8781C12.3487 14.4616 13.2949 14.4616 13.8783 13.8781C14.4618 13.2946 14.4618 12.3486 13.8783 11.7651Z" fill="white"/>
<path d="M7.57031 24.0059H1.49414C0.668977 24.0059 0 24.6748 0 25.5C0 26.3252 0.668977 26.9941 1.49414 26.9941H7.57031C8.39548 26.9941 9.06445 26.3252 9.06445 25.5C9.06445 24.6748 8.39548 24.0059 7.57031 24.0059Z" fill="white"/>
<path d="M49.5059 24.0059H43.4297C42.6045 24.0059 41.9355 24.6748 41.9355 25.5C41.9355 26.3252 42.6045 26.9941 43.4297 26.9941H49.5059C50.331 26.9941 51 26.3252 51 25.5C51 24.6748 50.331 24.0059 49.5059 24.0059Z" fill="white"/>
<path d="M43.4611 7.53907C42.8778 6.95556 41.9317 6.95556 41.3481 7.53907L37.122 11.7651C36.5384 12.3485 36.5384 13.2946 37.122 13.8781C37.7054 14.4616 38.6515 14.4616 39.235 13.8781L43.4611 9.65209C44.0446 9.06868 44.0446 8.12259 43.4611 7.53907Z" fill="white"/>
<path d="M25.5 0C24.6748 0 24.0059 0.668977 24.0059 1.49414V7.57031C24.0059 8.39548 24.6748 9.06445 25.5 9.06445C26.3252 9.06445 26.9941 8.39548 26.9941 7.57031V1.49414C26.9941 0.668977 26.3252 0 25.5 0Z" fill="white"/>
<path d="M25.5001 18.0293C24.8859 18.0293 24.2603 18.1029 23.6416 18.2478C21.0652 18.8492 18.9084 20.97 18.2748 23.525C18.0761 24.326 18.5643 25.1362 19.3652 25.3349C20.1662 25.5336 20.9765 25.0452 21.1751 24.2444C21.5397 22.7744 22.8333 21.5052 24.322 21.1576C24.7187 21.0647 25.1151 21.0176 25.5001 21.0176C26.3253 21.0176 26.9943 20.3486 26.9943 19.5234C26.9943 18.6983 26.3253 18.0293 25.5001 18.0293Z" fill="white"/>
</g>
<defs>
<clipPath id="clip0_185_1459">
<rect width="51" height="51" fill="white"/>
</clipPath>
</defs>
</svg>
