<svg width="66" height="65" viewBox="0 0 66 65" fill="none" xmlns="http://www.w3.org/2000/svg">
<rect x="0.890625" width="64.891" height="64.891" rx="10.8152" fill="#CB1B5B"/>
<path d="M38.3616 46.055C39.5747 46.0547 40.4382 45.8069 40.9269 45.3178L43.8563 42.3887C44.0666 42.1784 44.5122 41.5847 44.1113 40.6159C43.3032 38.6644 38.1072 34.7625 36.6985 34.7625C36.3975 34.7625 36.121 34.8734 35.9197 35.0744L33.1357 37.8584C29.6628 36.8484 28.2766 34.0347 27.8219 32.7863L30.8316 29.7766C31.1891 29.4191 31.2388 28.92 30.9791 28.2928C30.381 26.8487 26.49 21.3828 24.2928 21.3828C23.9 21.3828 23.536 21.5306 23.2675 21.7991L20.3382 24.7284C18.485 26.5819 20.3441 35.0744 25.4366 40.1672C29.4813 44.2128 34.9722 46.0553 38.3616 46.055ZM21.7132 26.0763L24.421 23.3684C24.8428 23.5853 27.1835 25.4556 29.0891 28.7953L26.2135 31.6709C25.8538 32.0306 25.7244 32.5563 25.876 33.0422C26.2716 34.3106 27.9525 38.5478 32.9725 39.8088C33.0803 39.8359 33.7682 40.2619 34.2688 39.4491L36.9147 36.8031C38.2363 37.4409 41.7441 40.1262 42.2875 41.2334C42.2875 41.2334 39.9891 44.2638 38.3613 44.1288C35.8616 43.9216 30.7035 42.7113 26.7975 38.8053C21.8957 33.9034 21.1228 26.9909 21.7132 26.0763Z" fill="white"/>
<path d="M39.1328 31.2652C39.6647 31.2652 40.0703 30.8342 40.0703 30.3023V21.4433C40.0703 20.9114 39.6647 20.4805 39.1328 20.4805C38.6009 20.4805 38.1953 20.9114 38.1953 21.4433V30.3023C38.1953 30.8342 38.6009 31.2652 39.1328 31.2652Z" fill="white"/>
<path d="M36.0078 32.8059C36.5397 32.8059 36.9453 32.375 36.9453 31.8431V19.5175C36.9453 18.9856 36.5397 18.5547 36.0078 18.5547C35.4759 18.5547 35.0703 18.9856 35.0703 19.5175V31.8431C35.0703 32.375 35.4759 32.8059 36.0078 32.8059Z" fill="white"/>
<path d="M32.8828 28.5689C33.4147 28.5689 33.8203 28.138 33.8203 27.6061V24.1396C33.8203 23.6077 33.4147 23.1768 32.8828 23.1768C32.3509 23.1768 31.9453 23.6077 31.9453 24.1396V27.6061C31.9453 28.138 32.3509 28.5689 32.8828 28.5689Z" fill="white"/>
<path d="M42.4141 30.6875C42.9459 30.6875 43.5078 30.2566 43.5078 29.7247V22.2138C43.5078 21.6819 42.9459 21.251 42.4141 21.251C41.8822 21.251 41.3203 21.6819 41.3203 22.2138V29.7247C41.3203 30.2566 41.8822 30.6875 42.4141 30.6875Z" fill="white"/>
<path d="M45.6953 28.5688C46.2272 28.5688 46.6328 28.1379 46.6328 27.606V24.332C46.6328 23.8001 46.2272 23.3691 45.6953 23.3691C45.1634 23.3691 44.7578 23.8001 44.7578 24.332V27.606C44.7578 28.1379 45.1634 28.5688 45.6953 28.5688Z" fill="white"/>
</svg>
