<svg width="64" height="64" viewBox="0 0 64 64" fill="none" xmlns="http://www.w3.org/2000/svg">
<g clip-path="url(#clip0_11431_98764)">
<path d="M60.4811 60.717C58.2623 63.1645 55.4111 62.1445 55.1523 62.0457H55.1511C54.3136 61.6245 53.5948 61.002 53.0586 60.242L53.6548 57.5457C53.6548 57.5457 56.4036 52.1695 58.8798 52.5032C61.3561 52.837 62.8061 58.1495 60.4811 60.717Z" fill="#FB6672"/>
<path d="M59.8886 51.6927C59.2176 51.4149 58.4825 51.2607 57.7111 51.2607C54.5656 51.2607 52.0156 53.8107 52.0156 56.9562C52.0156 58.1804 52.4031 59.3134 53.0602 60.2419C55.8275 57.8446 58.1493 54.9477 59.8886 51.6927Z" fill="#FB4A59"/>
<path d="M63.4054 56.9556C63.4054 60.1015 60.8551 62.6517 57.7093 62.6517C56.7816 62.6517 55.9062 62.4297 55.1328 62.0369C57.6156 61.6577 59.5193 59.5127 59.5193 56.9225C59.5193 54.368 57.6679 52.2465 55.2334 51.826C55.9819 51.4634 56.8216 51.2607 57.7093 51.2607C60.8552 51.2609 63.4054 53.8097 63.4054 56.9556Z" fill="#FB4A59"/>
<path d="M57.3729 59.6799C57.292 59.6799 57.2099 59.6696 57.128 59.6483C56.612 59.5133 56.303 58.9855 56.4379 58.4695L56.4429 58.4503C56.5779 57.9341 57.1056 57.6253 57.6216 57.7601C58.1376 57.8951 58.4466 58.4229 58.3117 58.9389L58.3068 58.9581C58.1931 59.3923 57.8016 59.6799 57.3729 59.6799Z" fill="#FDC1B8"/>
<path d="M32.7287 63.9994C49.2661 63.9994 62.6723 50.5932 62.6723 34.0559C62.6723 17.5185 49.2661 4.1123 32.7287 4.1123C16.1913 4.1123 2.78516 17.5185 2.78516 34.0559C2.78516 50.5932 16.1913 63.9994 32.7287 63.9994Z" fill="#FDC1B8"/>
<path d="M42.3826 5.7041C41.6908 6.6471 41.2812 7.81023 41.2812 9.06948C41.2812 12.215 43.8312 14.765 46.9767 14.765C49.3231 14.765 51.3374 13.3459 52.2098 11.3194C49.3509 8.86723 46.0249 6.94435 42.3826 5.7041Z" fill="#FCB3A9"/>
<path d="M44.7593 6.63086C52.5321 12.0398 57.6209 21.0372 57.6209 31.2246C57.6209 47.762 44.2147 61.1682 27.6772 61.1682C23.3968 61.1682 19.3272 60.268 15.6445 58.65C20.4896 62.0216 26.3766 63.9998 32.7266 63.9998C49.264 63.9998 62.6702 50.5936 62.6702 34.0561C62.6702 21.7992 55.3048 11.2643 44.7593 6.63086Z" fill="#FCB3A9"/>
<path d="M55.1348 33.4132L54.1698 36.6345L50.3048 40.1783L47.9423 46.9933V51.2608L44.9485 52.5021L42.126 52.2871C41.5447 52.1883 40.9372 52.2608 40.3785 52.4933C40.3672 52.4983 40.356 52.5021 40.3447 52.5071C39.4547 52.8758 38.7622 53.6196 38.5222 54.5534C38.1897 55.8446 37.4372 56.9659 36.4197 57.7659C35.4022 58.5646 34.1197 59.0421 32.7247 59.0421C29.9359 59.0421 27.5934 57.1346 26.9284 54.5521C26.6884 53.6196 25.9959 52.8758 25.1046 52.5071C25.0946 52.5021 25.0834 52.4983 25.0721 52.4933C24.1796 52.1221 23.1621 52.1571 22.3296 52.6483C21.3946 53.2008 20.3421 53.4771 19.2884 53.4771C17.7571 53.4771 16.2258 52.8933 15.0571 51.7246C13.0846 49.7521 12.7771 46.7471 14.1321 44.4508C14.6233 43.6195 14.6596 42.6008 14.2883 41.7083C14.2833 41.6983 14.2796 41.687 14.2746 41.6758C13.9058 40.7858 13.1621 40.0933 12.2283 39.8533C10.9371 39.5208 9.81454 38.7695 9.01579 37.752C8.21578 36.7345 7.73828 35.4507 7.73828 34.0557C7.73828 31.267 9.64704 28.9232 12.2283 28.2594C13.1621 28.0194 13.9058 27.3269 14.2746 26.4357C14.2796 26.4257 14.2833 26.4144 14.2883 26.4032C14.6596 25.5119 14.6233 24.4932 14.1321 23.6607C13.5796 22.7257 13.3046 21.6732 13.3046 20.6207C13.3046 19.0881 13.8883 17.5569 15.0571 16.3881C17.0296 14.4156 20.0346 14.1081 22.3296 15.4631C23.1621 15.9544 24.1796 15.9894 25.0721 15.6194C25.0834 15.6144 25.0946 15.6094 25.1046 15.6056C25.9959 15.2369 26.6884 14.4931 26.9284 13.5594C27.2609 12.2694 28.0121 11.1468 29.0297 10.3468C30.0472 9.54684 31.3297 9.06934 32.7247 9.06934C35.5147 9.06934 37.8572 10.9768 38.5222 13.5594C38.7622 14.4919 39.4547 15.2369 40.3447 15.6044C40.356 15.6094 40.3672 15.6144 40.3785 15.6181C40.9385 15.8519 41.5485 15.9244 42.131 15.8244H47.6873L49.9185 22.1507L48.8948 27.0619L55.1348 33.4132Z" fill="#D82E3D"/>
<path d="M39.6597 34.7531C42.147 34.7531 44.1632 32.7368 44.1632 30.2496C44.1632 27.7624 42.147 25.7461 39.6597 25.7461C37.1725 25.7461 35.1562 27.7624 35.1562 30.2496C35.1562 32.7368 37.1725 34.7531 39.6597 34.7531Z" fill="#FB4A59"/>
<path d="M24.2997 41.3748C26.5816 41.3748 28.4315 39.525 28.4315 37.2431C28.4315 34.9612 26.5816 33.1113 24.2997 33.1113C22.0178 33.1113 20.168 34.9612 20.168 37.2431C20.168 39.525 22.0178 41.3748 24.2997 41.3748Z" fill="#FB4A59"/>
<path d="M35.6597 47.3227C35.9232 45.6973 34.8192 44.1661 33.1939 43.9026C31.5686 43.6391 30.0374 44.7432 29.774 46.3685C29.5105 47.9939 30.6144 49.5251 32.2397 49.7886C33.865 50.0521 35.3962 48.948 35.6597 47.3227Z" fill="#FB4A59"/>
<path d="M57.7151 34.0559C57.7151 36.8453 55.8079 39.1877 53.2258 39.8522C52.2922 40.093 51.5491 40.7858 51.1808 41.6757C51.1757 41.6873 51.1706 41.6975 51.1667 41.7092C50.7958 42.6016 50.8306 43.6189 51.3212 44.4508C51.8737 45.3857 52.1492 46.4392 52.1492 47.4913C52.1492 49.0238 51.5646 50.555 50.3966 51.7242C48.4249 53.6959 45.4193 54.0036 43.1244 52.6489C42.814 52.4647 42.4767 52.3462 42.1289 52.287C43.4618 52.2136 44.7728 51.6676 45.7901 50.6502C46.8873 49.5531 47.4372 48.1133 47.4372 46.6748C47.4372 45.6858 47.1771 44.6981 46.6593 43.8198C46.1983 43.0381 46.1648 42.0813 46.5126 41.2443C46.5177 41.2339 46.5216 41.2237 46.5267 41.212C46.8718 40.3763 47.5711 39.7259 48.4481 39.5005C50.8717 38.8759 52.6642 36.6751 52.6642 34.0558C52.6642 32.7461 52.2161 31.5407 51.4653 30.5852C50.7146 29.6297 49.6598 28.9227 48.4481 28.6111C47.5711 28.3857 46.8718 27.7355 46.5267 26.8996C46.5216 26.888 46.5177 26.8777 46.5126 26.8673C46.1648 26.0303 46.1983 25.0735 46.6593 24.2918C47.9317 22.1361 47.6419 19.3133 45.7901 17.4614C44.7727 16.444 43.4618 15.898 42.1289 15.8246C42.4767 15.7654 42.814 15.6469 43.1244 15.4628C44.0593 14.9103 45.1114 14.6348 46.1649 14.6348C47.6961 14.6348 49.2286 15.2194 50.3966 16.3874C52.3682 18.3603 52.6772 21.3647 51.3212 23.6608C50.8306 24.4927 50.7958 25.5101 51.1667 26.4025C51.1706 26.4141 51.1757 26.4243 51.1808 26.436C51.5491 27.3258 52.2922 28.0186 53.2258 28.2595C54.5162 28.5917 55.6391 29.3439 56.4389 30.3611C57.2386 31.3785 57.7151 32.6611 57.7151 34.0559Z" fill="#DD636E"/>
<path d="M39.6597 31.5656C42.147 31.5656 44.1632 29.5493 44.1632 27.0621C44.1632 24.5749 42.147 22.5586 39.6597 22.5586C37.1725 22.5586 35.1562 24.5749 35.1562 27.0621C35.1562 29.5493 37.1725 31.5656 39.6597 31.5656Z" fill="#FDA79B"/>
<path d="M44.1658 27.062C44.1658 29.5487 42.1504 31.5653 39.6624 31.5653C38.9812 31.5653 38.3361 31.4147 37.7578 31.143C39.6933 30.7913 41.1601 29.098 41.1601 27.062C41.1601 25.026 39.6946 23.3326 37.7591 22.9797C38.3373 22.7093 38.9824 22.5586 39.6624 22.5586C42.1504 22.5586 44.1658 24.574 44.1658 27.062Z" fill="#FC9085"/>
<path d="M6.2725 46.8519C6.2725 50.2657 2.51 49.8519 2.51 49.8519C1.37125 49.2544 0.59375 48.0619 0.59375 46.6869C0.59375 45.3119 1.37125 44.1182 2.51 43.5207C2.51 43.5207 6.2725 43.4382 6.2725 46.8519Z" fill="#FB6672"/>
<path d="M7.73881 46.6869C7.73881 48.6598 6.13944 50.2605 4.16519 50.2605C3.56769 50.2605 3.00356 50.1138 2.50781 49.8523C3.91281 49.484 4.94944 48.2078 4.94944 46.6869C4.94944 45.166 3.91281 43.8899 2.50781 43.5215C3.00356 43.2602 3.56769 43.1133 4.16519 43.1133C6.13931 43.1133 7.73881 44.7128 7.73881 46.6869Z" fill="#FB4A59"/>
<path d="M24.2997 38.1873C26.5816 38.1873 28.4315 36.3375 28.4315 34.0556C28.4315 31.7737 26.5816 29.9238 24.2997 29.9238C22.0178 29.9238 20.168 31.7737 20.168 34.0556C20.168 36.3375 22.0178 38.1873 24.2997 38.1873Z" fill="#FDA79B"/>
<path d="M28.4309 34.0562C28.4309 36.3368 26.5804 38.1875 24.2984 38.1875C23.6776 38.1875 23.0905 38.051 22.5625 37.8063C24.1516 37.3002 25.3016 35.8116 25.3016 34.0563C25.3016 32.2998 24.1516 30.8111 22.5625 30.3051C23.0905 30.0603 23.6778 29.9238 24.2984 29.9238C26.5803 29.9237 28.4309 31.7742 28.4309 34.0562Z" fill="#FC9085"/>
<path d="M35.6597 44.1352C35.9232 42.5098 34.8192 40.9786 33.1939 40.7151C31.5686 40.4516 30.0374 41.5557 29.774 43.181C29.5105 44.8064 30.6144 46.3376 32.2397 46.6011C33.865 46.8646 35.3962 45.7605 35.6597 44.1352Z" fill="#FDA79B"/>
<path d="M20.169 46.0003C19.6356 46.0003 19.2031 45.5679 19.2031 45.0344V45.0167C19.2031 44.4833 19.6355 44.0508 20.169 44.0508C20.7025 44.0508 21.1349 44.4832 21.1349 45.0167V45.0344C21.1347 45.5678 20.7024 46.0003 20.169 46.0003Z" fill="#FDA79B"/>
<path d="M31.3526 17.5149C30.8192 17.5149 30.3867 17.0826 30.3867 16.5491V16.5313C30.3867 15.9979 30.8191 15.5654 31.3526 15.5654C31.8861 15.5654 32.3185 15.9978 32.3185 16.5313V16.5491C32.3185 17.0824 31.886 17.5149 31.3526 17.5149Z" fill="#FDA79B"/>
<path d="M34.1534 54.4515C33.62 54.4515 33.1875 54.0191 33.1875 53.4856V53.4678C33.1875 52.9345 33.6199 52.502 34.1534 52.502C34.6869 52.502 35.1193 52.9343 35.1193 53.4678V53.4856C35.1193 54.019 34.6869 54.4515 34.1534 54.4515Z" fill="#FDA79B"/>
<path d="M46.9776 36.2513C46.4442 36.2513 46.0117 35.8189 46.0117 35.2854V35.2676C46.0117 34.7343 46.4441 34.3018 46.9776 34.3018C47.5111 34.3018 47.9435 34.7341 47.9435 35.2676V35.2854C47.9435 35.8189 47.5111 36.2513 46.9776 36.2513Z" fill="#FDA79B"/>
<path d="M34.1534 34.0862C33.62 34.0862 33.1875 33.6538 33.1875 33.1203V33.1026C33.1875 32.5692 33.6199 32.1367 34.1534 32.1367C34.6869 32.1367 35.1193 32.5691 35.1193 33.1026V33.1203C35.1193 33.6538 34.6869 34.0862 34.1534 34.0862Z" fill="#FDA79B"/>
<path d="M15.6456 32.9759C15.1122 32.9759 14.6797 32.5435 14.6797 32.01V31.9922C14.6797 31.4589 15.1121 31.0264 15.6456 31.0264C16.1791 31.0264 16.6114 31.4587 16.6114 31.9922V32.01C16.6114 32.5435 16.1789 32.9759 15.6456 32.9759Z" fill="#FDA79B"/>
<path d="M34.1534 14.8079C33.62 14.8079 33.1875 14.3755 33.1875 13.842V13.8243C33.1875 13.2909 33.6199 12.8584 34.1534 12.8584C34.6869 12.8584 35.1193 13.2908 35.1193 13.8243V13.842C35.1193 14.3754 34.6869 14.8079 34.1534 14.8079Z" fill="#E22334"/>
<path d="M42.4073 43.0725C41.8739 43.0725 41.4414 42.6402 41.4414 42.1067V42.0889C41.4414 41.5555 41.8738 41.123 42.4073 41.123C42.9408 41.123 43.3732 41.5554 43.3732 42.0889V42.1067C43.3732 42.64 42.9408 43.0725 42.4073 43.0725Z" fill="#FDA79B"/>
<path d="M24.2979 46.9934C23.7645 46.9934 23.332 46.5611 23.332 46.0276V46.0098C23.332 45.4764 23.7644 45.0439 24.2979 45.0439C24.8313 45.0439 25.2638 45.4763 25.2638 46.0098V46.0276C25.2637 46.5609 24.8313 46.9934 24.2979 46.9934Z" fill="#E22334"/>
<path d="M29.3382 26.8341C28.8732 26.8341 28.4634 26.4974 28.3861 26.0234L28.0947 24.2346C28.009 23.7081 28.3662 23.2119 28.8927 23.126C29.419 23.0401 29.9156 23.3975 30.0014 23.924L30.2927 25.7128C30.3785 26.2393 30.0212 26.7355 29.4947 26.8214C29.4421 26.8299 29.3899 26.8341 29.3382 26.8341Z" fill="#E22334"/>
<path d="M20.311 24.0107C19.846 24.0107 19.4361 23.6739 19.3589 23.2001L19.0674 21.4113C18.9816 20.8848 19.3389 20.3886 19.8654 20.3027C20.3911 20.2172 20.8881 20.5741 20.974 21.1007L21.2655 22.8894C21.3513 23.4159 20.994 23.9122 20.4675 23.9981C20.415 24.0066 20.3626 24.0107 20.311 24.0107Z" fill="#E22334"/>
<path d="M44.3765 48.9192C44.1308 48.9192 43.8849 48.8259 43.6965 48.6392L42.3952 47.3489C42.0164 46.9733 42.0138 46.3618 42.3893 45.9831C42.7649 45.6043 43.3764 45.6017 43.7552 45.9772L45.0565 47.2674C45.4353 47.6431 45.4379 48.2546 45.0624 48.6333C44.8737 48.8238 44.6252 48.9192 44.3765 48.9192Z" fill="#E22334"/>
<path d="M50.6063 5.50561C50.6063 11.4331 44.5113 10.7881 44.4013 10.7756H44.4C42.5488 9.83561 41.2812 7.91311 41.2812 5.69436C41.2812 3.43686 42.5963 1.48561 44.5013 0.564357C44.5013 0.564357 50.6063 -0.475643 50.6063 5.50561Z" fill="#FB6672"/>
<path d="M52.6711 5.69475C52.6711 8.84062 50.1207 11.3909 46.9749 11.3909C46.0472 11.3909 45.1718 11.1689 44.3984 10.776C46.8812 10.3969 48.7849 8.25187 48.7849 5.66162C48.7849 3.10712 46.9336 0.985625 44.4991 0.565125C45.2476 0.202625 46.0872 0 46.9749 0C50.1208 0 52.6711 2.54887 52.6711 5.69475Z" fill="#FB4A59"/>
<path d="M45.4199 5.50605C45.3399 5.50605 45.2587 5.49605 45.1777 5.47517C44.6614 5.34192 44.3507 4.81505 44.484 4.29855L44.489 4.2793C44.6224 3.76292 45.1496 3.4523 45.6656 3.58555C46.182 3.7188 46.4926 4.24567 46.3594 4.76217L46.3544 4.78142C46.242 5.21692 45.8497 5.50605 45.4199 5.50605Z" fill="#FDC1B8"/>
</g>
<defs>
<clipPath id="clip0_11431_98764">
<rect width="64" height="64" fill="white"/>
</clipPath>
</defs>
</svg>
