<svg width="64" height="64" viewBox="0 0 64 64" fill="none" xmlns="http://www.w3.org/2000/svg">
<g clip-path="url(#clip0_11527_94924)">
<path d="M52.2638 12.1167C49.3355 11.4628 46.4219 13.3152 45.768 16.245C45.0072 19.6535 47.6015 22.8748 51.0769 22.8748C53.5685 22.8748 55.8224 21.1475 56.3875 18.6152C57.0428 15.6802 55.2002 12.772 52.2638 12.1167Z" fill="#FBCDBE"/>
<path d="M56.3881 18.6144C55.8231 21.1469 53.5694 22.8744 51.0781 22.8744V11.9844C51.4694 11.9844 51.8669 12.0269 52.2644 12.1156C55.2006 12.7719 57.0431 15.6794 56.3881 18.6144Z" fill="#FDBBAB"/>
<path d="M43.8744 23.375C43.8744 24.41 43.0344 25.25 41.9994 25.25H38.3906C39.0304 24.0373 39.0089 22.6428 38.4881 21.5H41.9994C43.0344 21.5 43.8744 22.34 43.8744 23.375Z" fill="#CCF8FF"/>
<path d="M59.4749 31.4427L53.4087 58.5001H34.7338C34.7288 56.4638 33.4313 54.5776 31.4238 53.9063L32.8226 40.8627C33.1126 38.1627 35.3813 35.8364 38.54 35.8364L43.1013 35.9402L44.8338 28.1752C45.74 24.1215 49.7475 21.5803 53.7899 22.4828C57.8362 23.3853 60.3799 27.394 59.4749 31.4427Z" fill="#FC6581"/>
<path d="M59.4743 31.4419C52.545 62.3454 56.5206 44.6165 53.4081 58.4993H51.0781V22.377C51.9556 22.2495 52.8719 22.277 53.7894 22.482C57.8356 23.3845 60.3793 27.3932 59.4743 31.4419Z" fill="#F4425C"/>
<path d="M53.3351 41.7204C44.8269 39.8212 37.469 47.9794 40.2108 56.2431L34.8936 56.3068C34.216 54.7652 32.8401 53.5555 31.0684 53.1601C28.1179 52.5015 25.1819 54.3677 24.5231 57.3197V57.3198C23.8642 60.2719 25.7284 63.2093 28.6785 63.8676C31.5133 64.5003 34.3285 62.8145 35.1332 60.0547L42.2982 59.9677C48.2044 66.965 59.8105 64.3113 61.8552 55.1488C63.2087 49.0852 59.4036 43.0748 53.3351 41.7204Z" fill="#004071"/>
<path d="M62.1244 35.7002C63.1594 35.7002 63.9994 34.8602 63.9994 33.8252C63.9994 32.7902 63.1594 31.9502 62.1244 31.9502H57.3745C56.4982 31.9502 55.7395 32.5564 55.5457 33.4102L53.6471 41.7898C52.8262 41.5831 51.9667 41.4663 51.0781 41.4514V63.95C56.1543 63.8675 60.6981 60.3288 61.8543 55.1488C62.9144 50.3981 60.8201 45.8215 57.1376 43.347L58.8718 35.7002H62.1244Z" fill="#00244C"/>
<path d="M58.195 54.3317C57.2936 58.3709 53.297 60.9231 49.2502 60.0199C45.2105 59.1182 42.6696 55.1149 43.573 51.0681C44.4706 47.0469 48.4717 44.4771 52.5179 45.38C56.5575 46.2816 59.0984 50.285 58.195 54.3317Z" fill="#E6FAFF"/>
<path d="M58.1944 54.3324C57.4294 57.7587 54.4381 60.1149 51.0781 60.1999V45.2012C55.8005 45.3254 59.2221 49.7273 58.1944 54.3324Z" fill="#CCF8FF"/>
<path d="M50.8848 54.5752C51.9203 54.5752 52.7598 53.7357 52.7598 52.7002C52.7598 51.6647 51.9203 50.8252 50.8848 50.8252C49.8492 50.8252 49.0098 51.6647 49.0098 52.7002C49.0098 53.7357 49.8492 54.5752 50.8848 54.5752Z" fill="#004071"/>
<path d="M52.7131 53.1087C52.5344 53.915 51.8581 54.4837 51.0781 54.565V50.835C52.193 50.9525 52.9581 52.0132 52.7131 53.1087Z" fill="#00244C"/>
<path d="M18.8039 52L18.2477 62.2262C18.1927 63.2212 17.3714 64 16.3752 64H10.1252C9.13016 64 8.30766 63.2213 8.25266 62.2275L7.69141 52H18.8039Z" fill="#FBCDBE"/>
<path d="M18.8043 52C18.1393 64.2253 18.2637 61.9381 18.248 62.2262C18.193 63.2212 17.3718 64 16.3755 64H13.248V52H18.8043Z" fill="#FDBBAB"/>
<path d="M35.7499 3.54108C34.3175 0.47408 30.6573 -0.85617 27.5899 0.576455C27.5899 0.576455 27.5899 0.576455 27.5898 0.576455C24.5228 2.00883 23.1928 5.66933 24.6252 8.73645C26.0622 11.8136 29.7276 13.1291 32.7853 11.7011C35.8523 10.2687 37.1823 6.60808 35.7499 3.54108Z" fill="#FDBBAB"/>
<path d="M22.6249 50.75C22.6249 51.7855 21.7854 52.625 20.7499 52.625H1.87499C0.839495 52.625 0 51.7855 0 50.75V26.2502C0 19.4652 3.29373 13.4353 8.36495 9.67403C12.9309 6.28793 16.9972 5.67493 22.5746 5.62793L22.6249 50.75Z" fill="#84EEF9"/>
<path d="M22.6255 50.7492C22.6255 51.7842 21.7855 52.6242 20.7505 52.6242H13.248V6.97195C16.0905 5.9157 19.0268 5.65695 22.5755 5.62695L22.6255 50.7492Z" fill="#22E0E0"/>
<path d="M31.5636 58.8904C31.3539 59.8294 30.4263 60.4149 29.4951 60.2069C28.5629 59.9988 27.9742 59.0697 28.1826 58.1357C28.3912 57.2017 29.3196 56.611 30.2512 56.819C31.1846 57.0275 31.7727 57.9533 31.5636 58.8904Z" fill="#E6FAFF"/>
<path d="M39.3516 23.3475C39.3516 25.045 37.9716 26.425 36.2741 26.425C35.569 26.3669 24.531 25.4575 22.3917 25.2813C22.1604 25.2625 21.9592 25.1163 21.8679 24.9025L14.1055 6.67887C16.8775 5.8005 19.6777 5.645 22.8285 5.626C23.4545 5.62225 23.988 6.07937 24.0767 6.69899L25.7579 18.4513L36.8478 20.325C38.2991 20.6 39.3516 21.8713 39.3516 23.3475Z" fill="#22C7E0"/>
</g>
<defs>
<clipPath id="clip0_11527_94924">
<rect width="64" height="64" fill="white"/>
</clipPath>
</defs>
</svg>
