<svg width="24" height="24" viewBox="0 0 24 24" fill="none" xmlns="http://www.w3.org/2000/svg">
<path d="M9.13542 23.3958C8.81515 23.3972 8.50018 23.3141 8.22223 23.155C7.94427 22.9959 7.71313 22.7664 7.55208 22.4896L5.67708 19.2292H4.90625C3.87025 19.2292 2.87668 18.8176 2.14411 18.0851C1.41155 17.3525 1 16.3589 1 15.3229V4.90625C1 3.87025 1.41155 2.87668 2.14411 2.14411C2.87668 1.41155 3.87025 1 4.90625 1H19.4896C20.5256 1 21.5192 1.41155 22.2517 2.14411C22.9843 2.87668 23.3958 3.87025 23.3958 4.90625V15.3229C23.3958 16.3589 22.9843 17.3525 22.2517 18.0851C21.5192 18.8176 20.5256 19.2292 19.4896 19.2292H12.5938L10.7083 22.4896C10.5498 22.7663 10.3207 22.996 10.0443 23.1552C9.76798 23.3144 9.45434 23.3975 9.13542 23.3958ZM4.90625 2.5625C4.28465 2.5625 3.68851 2.80943 3.24897 3.24897C2.80943 3.68851 2.5625 4.28465 2.5625 4.90625V15.3229C2.5625 15.9445 2.80943 16.5407 3.24897 16.9802C3.68851 17.4197 4.28465 17.6667 4.90625 17.6667H6.125C6.26192 17.665 6.39682 17.6998 6.51582 17.7675C6.63482 17.8353 6.73363 17.9335 6.80208 18.0521L8.88542 21.6979C9.01042 21.9271 9.20833 21.9271 9.33333 21.6979L11.4167 18.0521C11.4875 17.9356 11.5868 17.8391 11.7053 17.7716C11.8237 17.7042 11.9574 17.6681 12.0937 17.6667H19.4896C20.1112 17.6667 20.7073 17.4197 21.1469 16.9802C21.5864 16.5407 21.8333 15.9445 21.8333 15.3229V4.90625C21.8333 4.28465 21.5864 3.68851 21.1469 3.24897C20.7073 2.80943 20.1112 2.5625 19.4896 2.5625H4.90625Z" fill="black"/>
<path d="M11.8515 14.6973C11.8204 14.6973 11.7889 14.691 11.7588 14.6781C11.6535 14.6326 11.5965 14.5177 11.6242 14.4063L12.4167 11.2161H10.2813C10.204 11.2161 10.1316 11.178 10.0879 11.1142C10.0442 11.0504 10.0348 10.9692 10.0627 10.8971L11.6293 6.84709C11.6642 6.7568 11.751 6.69727 11.8478 6.69727H14.0035C14.0827 6.69727 14.1565 6.73727 14.1998 6.80361C14.243 6.86995 14.2499 6.95366 14.2179 7.02614L13.2903 9.13176H15.125C15.2107 9.13176 15.2896 9.17855 15.3307 9.25379C15.3718 9.32901 15.3685 9.42066 15.3222 9.49279L12.0488 14.5895C12.0046 14.6585 11.9293 14.6973 11.8515 14.6973Z" fill="#CB1B5B"/>
</svg>
