<svg width="31" height="32" viewBox="0 0 31 32" fill="none" xmlns="http://www.w3.org/2000/svg">
<g id="cross 1">
<g id="Layer 2">
<path id="Vector" d="M15.5632 2.24264C12.8232 2.24264 10.1446 3.05516 7.86636 4.57746C5.58808 6.09975 3.81238 8.26345 2.76381 10.7949C1.71523 13.3264 1.44088 16.112 1.97544 18.7994C2.50999 21.4868 3.82946 23.9554 5.76697 25.8929C7.70449 27.8304 10.173 29.1499 12.8604 29.6844C15.5479 30.219 18.3334 29.9446 20.8649 28.896C23.3964 27.8475 25.5601 26.0718 27.0824 23.7935C28.6047 21.5152 29.4172 18.8367 29.4172 16.0966C29.4129 12.4237 27.9519 8.90235 25.3547 6.30516C22.7575 3.70798 19.2362 2.24697 15.5632 2.24264ZM20.9058 19.6596C21.0261 19.7758 21.1221 19.9148 21.1881 20.0684C21.2541 20.2221 21.2888 20.3874 21.2903 20.5546C21.2917 20.7218 21.2599 20.8877 21.1965 21.0424C21.1332 21.1972 21.0397 21.3379 20.9214 21.4561C20.8032 21.5744 20.6626 21.6679 20.5078 21.7312C20.353 21.7945 20.1872 21.8264 20.0199 21.8249C19.8527 21.8235 19.6874 21.7887 19.5338 21.7227C19.3801 21.6567 19.2411 21.5608 19.125 21.4405L15.5632 17.8775L12.0015 21.4405C11.764 21.6699 11.4458 21.7969 11.1156 21.794C10.7854 21.7911 10.4695 21.6587 10.236 21.4251C10.0025 21.1916 9.87 20.8757 9.86713 20.5455C9.86426 20.2153 9.9912 19.8972 10.2206 19.6596L13.7824 16.0966L10.2206 12.5336C10.1003 12.4175 10.0044 12.2785 9.93838 12.1248C9.87237 11.9712 9.83763 11.8059 9.83617 11.6387C9.83472 11.4714 9.86659 11.3056 9.92991 11.1508C9.99324 10.996 10.0868 10.8554 10.205 10.7372C10.3233 10.6189 10.4639 10.5254 10.6187 10.4621C10.7734 10.3987 10.9393 10.3669 11.1065 10.3683C11.2738 10.3698 11.439 10.4045 11.5927 10.4705C11.7463 10.5365 11.8853 10.6325 12.0015 10.7528L15.5632 14.3158L19.125 10.7528C19.2411 10.6325 19.3801 10.5365 19.5338 10.4705C19.6874 10.4045 19.8527 10.3698 20.0199 10.3683C20.1872 10.3669 20.353 10.3987 20.5078 10.4621C20.6626 10.5254 20.8032 10.6189 20.9214 10.7372C21.0397 10.8554 21.1332 10.996 21.1965 11.1508C21.2599 11.3056 21.2917 11.4714 21.2903 11.6387C21.2888 11.8059 21.2541 11.9712 21.1881 12.1248C21.1221 12.2785 21.0261 12.4175 20.9058 12.5336L17.3441 16.0966L20.9058 19.6596Z" fill="#797979"/>
</g>
</g>
</svg>
