<svg width="44" height="44" viewBox="0 0 44 44" fill="none" xmlns="http://www.w3.org/2000/svg">
<path d="M22 0C34.1463 0 44 9.8532 44 22C44 34.1408 34.1405 44 22 44C9.85375 44 0 34.1405 0 22C0 9.85375 9.84719 0 22 0ZM26.6666 15.058C27.8595 13.7798 29.8041 15.5901 28.6117 16.8747L23.3333 22.52V34.2938C23.3333 36.0431 20.6669 36.0431 20.6669 34.2938V22.0001C20.6669 21.6085 20.832 21.2599 21.1012 21.0154L26.6671 15.0583L26.6666 15.058ZM22 2.66604C11.3272 2.66604 2.66604 11.3268 2.66604 22C2.66604 32.6791 11.3203 41.334 22 41.334C32.6728 41.334 41.334 32.6797 41.334 22C41.334 11.3272 32.6732 2.66604 22 2.66604Z" fill="#4D4D4D"/>
</svg>
