<svg width="16" height="16" viewBox="0 0 16 16" fill="none" xmlns="http://www.w3.org/2000/svg">
<g id="Group">
<path id="Vector" d="M8 0C3.58876 0 0 3.58876 0 8C0 12.4112 3.58876 16 8 16C12.4112 16 16 12.4112 16 8C16 3.58876 12.4112 0 8 0ZM8 14.8571C4.21898 14.8571 1.14286 11.781 1.14286 8C1.14286 4.21898 4.21898 1.14286 8 1.14286C11.781 1.14286 14.8571 4.21898 14.8571 8C14.8571 11.781 11.781 14.8571 8 14.8571Z" fill="#4D4D4D"/>
<path id="Vector_2" d="M10.4525 5.54928C10.2293 5.32611 9.86756 5.32611 9.64439 5.54928L8.00096 7.19271L6.35747 5.54922C6.13429 5.32604 5.77251 5.32604 5.54934 5.54922C5.32616 5.77239 5.32616 6.13417 5.54934 6.35734L7.19283 8.00084L5.54934 9.64433C5.32616 9.8675 5.32616 10.2293 5.54934 10.4525C5.66089 10.564 5.80718 10.6198 5.9534 10.6198C6.09962 10.6198 6.24585 10.564 6.35747 10.4525L8.00096 8.80896L9.64445 10.4525C9.75601 10.564 9.90229 10.6198 10.0485 10.6198C10.1947 10.6198 10.341 10.564 10.4526 10.4525C10.6758 10.2293 10.6758 9.8675 10.4526 9.64433L8.80908 8.00084L10.4526 6.35734C10.6757 6.13423 10.6757 5.77239 10.4525 5.54928Z" fill="#4D4D4D"/>
</g>
</svg>
