<svg width="64" height="64" viewBox="0 0 64 64" fill="none" xmlns="http://www.w3.org/2000/svg">
<g clip-path="url(#clip0_11431_99103)">
<path d="M14.4918 0H11.743C10.4664 0 9.08203 1.03475 9.08203 2.31125L9.73991 14.3169L13.1617 17.3301L16.8032 14.3169V2.31125C16.803 1.03475 15.7683 0 14.4918 0Z" fill="#FBCDBE"/>
<path d="M12.052 0H8.99484C7.71834 0 6.68359 1.03475 6.68359 2.31125V14.3169L8.43384 15.7905L9.74072 14.3169V2.31125C9.74072 1.03475 10.7755 0 12.052 0Z" fill="#FDBBAB"/>
<path d="M55.0045 0H51.177C49.9005 0 48.8281 1.03475 48.8281 2.31125L49.0734 14.3169L52.8458 17.0984L57.3156 14.3169V2.31125C57.3157 1.03475 56.2809 0 55.0045 0Z" fill="#FBCDBE"/>
<path d="M49.0733 2.31125C49.0733 1.03475 50.1082 0 51.3846 0H49.5066C48.2301 0 47.1953 1.03475 47.1953 2.31125V14.3169L48.1481 15.3986L49.0733 14.3169V2.31125Z" fill="#FDBBAB"/>
<path d="M25.1523 32.6063H41.3016L44.3596 27.1118C44.3596 22.5655 47.0872 18.6891 45.2421 15.2904C45.0348 14.9086 44.9582 13.159 44.6198 12.8281C44.5341 12.7443 44.4476 12.6614 44.3602 12.5793C44.0209 12.2604 41.2783 12.183 40.9152 11.8909C40.5287 11.5799 42.5203 11.056 42.1087 10.7771C39.6751 9.12888 36.8177 8.059 33.7339 7.76488C33.1629 7.71038 32.0704 7.989 31.4852 7.989C23.0364 9.40288 17.1953 16.0301 17.1953 25.9991L25.1523 32.6063Z" fill="#ECF4FF"/>
<path d="M26.1192 19.0008C26.2865 19.0008 26.4559 18.9573 26.6102 18.8661L30.9605 16.2913C34.603 14.1357 38.7622 12.8775 42.9889 12.653L44.3596 12.5801C43.6594 11.9217 42.9071 11.3181 42.1086 10.7773C37.8412 11.1237 33.6624 12.4477 29.9767 14.6291L25.6264 17.2038C25.1674 17.4755 25.0155 18.0677 25.2871 18.527C25.4675 18.8316 25.789 19.0008 26.1192 19.0008Z" fill="#CBE2FF"/>
<path d="M50.0495 25.7332C50.0495 20.6765 47.9692 16.1062 44.6187 12.8291V19.7977C44.6187 19.9781 44.5492 20.1484 44.423 20.2771C42.8076 21.9252 41.918 24.104 41.918 26.4116V32.4492C41.918 32.5019 41.9202 32.554 41.9218 32.6062H50.0495V25.7332Z" fill="#CBE2FF"/>
<path d="M51.7074 63.9997C53.5333 63.9997 54.3439 61.6729 52.8915 60.5664C52.127 59.9839 51.2506 59.5306 50.2898 59.2436L40.7349 56.3895C39.072 55.8927 37.9325 54.3631 37.9325 52.6276V52.4531L29.0488 52.9176L28.0598 54.2775C28.0598 56.013 25.3341 57.5821 23.6711 58.0789L14.7395 60.7367C13.7786 61.0237 13.3715 60.8342 12.607 61.4166C11.1546 62.523 11.3574 63.9997 13.1833 63.9997H51.7074Z" fill="#FBCDBE"/>
<path d="M17.2576 61.2216L26.8124 58.3675C28.4753 57.8708 29.6148 56.7114 29.6148 55.4994V55.479C29.6148 54.4618 30.4618 53.639 31.4777 53.6909C31.7078 53.7026 31.9384 53.7085 32.1693 53.7085C34.1596 53.7085 36.1269 53.277 37.9299 52.4531V43.9629H26.0653V52.6276C26.0653 54.3631 24.9258 55.8928 23.2629 56.3895L13.7081 59.2436C12.7472 59.5306 11.8708 59.984 11.1063 60.5664C9.65406 61.673 10.4647 63.9999 12.2906 63.9999H13.1809C14.1954 62.7066 15.6007 61.7166 17.2576 61.2216Z" fill="#FDBBAB"/>
<path d="M33.7716 7.76924C33.1886 7.71249 32.5977 7.68262 31.9998 7.68262C22.0308 7.68262 13.9492 15.7641 13.9492 25.7332V32.6062H22.0768C22.0785 32.554 22.0807 32.5019 22.0807 32.4492V26.5451C22.0807 24.2195 21.2727 21.9001 19.5918 20.2929C19.4553 20.1624 19.38 19.9855 19.38 19.7976V18.864C19.38 18.0354 19.6016 17.2211 20.0256 16.5092C22.8887 11.7031 27.9206 8.33937 33.7716 7.76924Z" fill="#CBE2FF"/>
<path d="M38.464 49.2436L37.8169 49.6179C36.602 50.3205 35.2882 50.7791 33.9439 50.993C31.4823 51.3848 30.0242 50.1215 27.7799 48.8693C22.278 45.7994 19.6209 40.3198 19.6209 34.0193L19.5039 30.9348C19.5039 22.5708 27.0328 16.233 31.3804 16.233C31.9808 16.233 33.1912 15.8254 33.7734 15.8934C41.301 16.7721 47.1429 23.1713 47.1429 30.9348V34.1985C47.1428 40.4033 43.8352 46.1373 38.464 49.2436Z" fill="#FBCDBE"/>
<path d="M30.2251 49.7041L29.3163 49.1971C23.8145 46.1273 20.4047 40.3201 20.4047 34.0198V30.9353C20.4047 23.1718 26.2467 16.7739 33.7743 15.895C33.1921 15.827 32.6001 15.791 31.9997 15.791C23.6357 15.791 16.8555 22.5714 16.8555 30.9353V34.0198C16.8555 40.3203 20.2652 46.1273 25.7671 49.1971L26.6758 49.7041C28.9201 50.9564 31.4835 51.3839 33.945 50.9921C32.6578 50.7871 31.3978 50.3585 30.2251 49.7041Z" fill="#FDBBAB"/>
<path d="M9.08203 18.6918C9.08203 22.6069 9.42366 26.4985 10.6119 30.2291L11.2609 32.2666C12.0634 34.7861 13.1858 36.796 14.9695 38.7479L19.1649 44.1139C19.9397 44.9615 20.1349 45.6868 20.9149 44.844L21.0598 44.9715C21.0898 44.9391 21.7223 45.2611 21.7498 45.2273C22.2584 44.5984 22.3312 43.7154 21.9204 43.0083L17.1525 34.8008C17.5612 34.8008 17.0608 33.2834 17.3957 33.1C17.6384 32.967 18.7398 34.2058 18.9209 33.9993C19.2838 33.5855 19.5038 33.0431 19.5038 32.4495V26.412C19.5038 24.7921 18.8688 23.2369 17.7349 22.0801C17.1375 21.4706 16.803 20.6514 16.803 19.798V14.3174H9.73991L9.08203 18.6918Z" fill="#CB1B5B"/>
<path d="M48.3072 19.7979C48.3072 20.6513 47.9726 21.4705 47.3753 22.08L47.1442 22.718C46.0104 23.8749 45.8919 24.7921 45.8919 26.412L45.9848 31.4699C45.9848 32.7685 45.5473 34.8009 46.8459 34.8009L42.0781 43.0084C41.6451 43.7538 41.7492 44.6944 42.3347 45.327C43.1147 46.1698 44.4484 46.1655 45.2232 45.3179L50.9478 39.0539C52.7317 37.102 54.0709 34.7865 54.8734 32.2669L55.5224 30.2294C56.7107 26.4989 57.3154 22.6073 57.3154 18.692V14.3174H49.0732L48.3072 19.7979Z" fill="#CB1B5B"/>
<path d="M6.68359 18.6912C6.68359 22.6063 7.28847 26.4979 8.47659 30.2285L9.12559 32.266C9.92809 34.7855 11.2675 37.101 13.0512 39.053L18.7758 45.317C19.5506 46.1647 20.8843 46.1689 21.6643 45.3262C21.6943 45.2938 21.7223 45.26 21.7498 45.226L16.1083 39.0529C14.3246 37.101 12.9852 34.7855 12.1827 32.2659L11.5337 30.2284C10.3455 26.4979 9.74059 22.6063 9.74059 18.691V14.3164H6.68359V18.6912Z" fill="#CB1B5B"/>
<path d="M48.1328 22.0855C48.7314 21.473 49.0709 20.6534 49.0709 19.797V14.3164H47.1929V19.797C47.1929 20.6504 46.8583 21.4697 46.2611 22.0792C45.1273 23.236 44.4922 24.7913 44.4922 26.411V32.4485C44.4922 33.7469 45.5446 34.7994 46.8428 34.7998L48.2437 32.3768C49.0084 31.0542 49.4111 29.5533 49.4111 28.0255V26.2863C49.4111 25.7575 49.0037 25.2964 48.4752 25.2804C47.9282 25.2639 47.4796 25.7024 47.4796 26.2458V28.0255C47.4796 29.2809 47.1999 30.2167 46.9214 30.8373C46.7946 31.12 46.3702 31.026 46.3702 30.7162V26.4109C46.3702 24.7943 47.0029 23.2418 48.1328 22.0855Z" fill="#CB1B5B"/>
<path d="M17.4254 31.4101C16.8314 30.3828 16.5174 29.2125 16.5174 28.0258V26.246C16.5174 25.7125 16.0849 25.2803 15.5517 25.2803C15.0182 25.2803 14.5859 25.7127 14.5859 26.246V28.0258C14.5859 29.5515 14.9896 31.0561 15.7533 32.377L17.1544 34.8C17.8593 34.8 18.4901 34.4883 18.9211 33.9969L17.4254 31.4101Z" fill="#CB1B5B"/>
</g>
<defs>
<clipPath id="clip0_11431_99103">
<rect width="64" height="64" fill="white"/>
</clipPath>
</defs>
</svg>
