<svg width="40" height="40" viewBox="0 0 40 40" fill="none" xmlns="http://www.w3.org/2000/svg">
<path d="M29.2552 3.33301H10.7452C10.1768 3.33301 9.65016 3.35301 9.14183 3.37467C3.2085 3.72467 2.0835 6.63967 2.0835 11.8963V25.603C2.0835 32.1647 4.10683 34.1663 10.7502 34.1663H19.2602C19.5917 34.1663 19.9096 34.0346 20.144 33.8002C20.3785 33.5658 20.5102 33.2479 20.5102 32.9163C20.5102 32.5848 20.3785 32.2669 20.144 32.0325C19.9096 31.798 19.5917 31.6663 19.2602 31.6663H10.7452C5.50516 31.6663 4.5785 30.7597 4.5785 25.603V16.6663H35.4118V19.2497C35.4118 19.5812 35.5435 19.8991 35.7779 20.1336C36.0124 20.368 36.3303 20.4997 36.6618 20.4997C36.9934 20.4997 37.3113 20.368 37.5457 20.1336C37.7801 19.8991 37.9118 19.5812 37.9118 19.2497V11.8963C37.9168 5.33301 35.8935 3.33301 29.2552 3.33301ZM35.4218 14.1663H4.5835V11.8963C4.5835 6.89634 5.6435 6.08634 9.2685 5.87134C9.72183 5.85134 10.2135 5.83301 10.7452 5.83301H29.2552C34.4952 5.83301 35.4218 6.73967 35.4218 11.8963V14.1663ZM16.6668 24.1663C16.9984 24.1663 17.3163 24.298 17.5507 24.5325C17.7851 24.7669 17.9168 25.0848 17.9168 25.4163C17.9168 25.7479 17.7851 26.0658 17.5507 26.3002C17.3163 26.5346 16.9984 26.6663 16.6668 26.6663H10.0002C9.66864 26.6663 9.3507 26.5346 9.11628 26.3002C8.88186 26.0658 8.75016 25.7479 8.75016 25.4163C8.75016 25.0848 8.88186 24.7669 9.11628 24.5325C9.3507 24.298 9.66864 24.1663 10.0002 24.1663H16.6668ZM30.0002 20.833C27.9013 20.8357 25.8892 21.6706 24.4052 23.1547C22.9211 24.6388 22.0861 26.6509 22.0835 28.7497C22.0796 30.1867 22.4755 31.5964 23.2268 32.8213C23.9258 33.9922 24.9163 34.962 26.1018 35.636C27.2872 36.31 28.6271 36.6652 29.9908 36.6671C31.3545 36.6689 32.6953 36.3173 33.8826 35.6465C35.0699 34.9757 36.063 34.0087 36.7652 32.8397C37.5206 31.6094 37.9194 30.1934 37.9168 28.7497C37.9142 26.6509 37.0793 24.6388 35.5952 23.1547C34.1111 21.6706 32.099 20.8357 30.0002 20.833ZM34.6252 31.5447C34.1458 32.3456 33.4667 33.0084 32.6542 33.4681C31.8418 33.9277 30.9239 34.1685 29.9904 34.1668C29.057 34.1651 28.14 33.921 27.3292 33.4585C26.5184 32.9959 25.8416 32.3307 25.3652 31.528C24.852 30.6923 24.5813 29.7304 24.5835 28.7497C24.5835 27.3131 25.1542 25.9353 26.17 24.9195C27.1858 23.9037 28.5636 23.333 30.0002 23.333C31.4368 23.333 32.8145 23.9037 33.8303 24.9195C34.8461 25.9353 35.4168 27.3131 35.4168 28.7497C35.4181 29.7369 35.144 30.7048 34.6252 31.5447ZM33.5168 26.2597C33.6286 26.3799 33.7155 26.5211 33.7725 26.675C33.8296 26.829 33.8556 26.9927 33.8491 27.1567C33.8425 27.3208 33.8037 27.4819 33.7346 27.6309C33.6656 27.7798 33.5678 27.9137 33.4468 28.0247L29.8918 31.3097C29.6546 31.5284 29.342 31.6471 29.0193 31.6409C28.6966 31.6347 28.3888 31.5041 28.1602 31.2763L26.5168 29.633C26.3975 29.5176 26.3023 29.3797 26.2369 29.2271C26.1715 29.0746 26.1371 28.9106 26.1357 28.7446C26.1343 28.5786 26.166 28.414 26.229 28.2604C26.2919 28.1068 26.3848 27.9673 26.5022 27.85C26.6196 27.7327 26.7592 27.64 26.9129 27.5772C27.0665 27.5144 27.2311 27.4828 27.3971 27.4844C27.5631 27.4859 27.7271 27.5204 27.8796 27.586C28.032 27.6516 28.1699 27.7469 28.2852 27.8663L29.0768 28.658L31.7435 26.1897C31.864 26.0768 32.0057 25.989 32.1605 25.9314C32.3152 25.8738 32.4798 25.8474 32.6448 25.854C32.8098 25.8605 32.9718 25.8997 33.1215 25.9693C33.2712 26.039 33.4056 26.1377 33.5168 26.2597Z" fill="#CB1B5B"/>
</svg>
