<svg width="40" height="40" viewBox="0 0 40 40" fill="none" xmlns="http://www.w3.org/2000/svg">
<rect width="40" height="40" rx="20" fill="white"/>
<g clip-path="url(#clip0_520_3308)">
<path d="M14.7682 24.7917H12.6849C12.3974 24.7917 12.1641 24.5583 12.1641 24.2708C12.1641 23.9833 12.3974 23.75 12.6849 23.75H14.7682C15.0557 23.75 15.2891 23.9833 15.2891 24.2708C15.2891 24.5583 15.0557 24.7917 14.7682 24.7917Z" fill="#CB1B5B"/>
<path d="M31.6985 24.791H30.3964C30.1089 24.791 29.8756 24.5577 29.8756 24.2702C29.8756 23.9827 30.1089 23.7493 30.3964 23.7493H31.2662L31.9683 20.0077C31.9589 18.0931 30.3235 16.4577 28.3131 16.4577H24.8933L23.236 23.7493H26.2297C26.5172 23.7493 26.7506 23.9827 26.7506 24.2702C26.7506 24.5577 26.5172 24.791 26.2297 24.791H22.5839C22.4256 24.791 22.2756 24.7191 22.1766 24.5952C22.0777 24.4723 22.0402 24.3098 22.0756 24.1556L23.9693 15.8223C24.0235 15.5837 24.2339 15.416 24.4777 15.416H28.3131C30.8974 15.416 33.0006 17.5191 33.0006 20.1035L32.2099 24.366C32.1641 24.6129 31.9495 24.791 31.6985 24.791Z" fill="#CB1B5B"/>
<path d="M28.3151 26.8743C26.8797 26.8743 25.7109 25.7066 25.7109 24.2702C25.7109 22.8337 26.8797 21.666 28.3151 21.666C29.7505 21.666 30.9193 22.8337 30.9193 24.2702C30.9193 25.7066 29.7505 26.8743 28.3151 26.8743ZM28.3151 22.7077C27.4536 22.7077 26.7526 23.4087 26.7526 24.2702C26.7526 25.1316 27.4536 25.8327 28.3151 25.8327C29.1766 25.8327 29.8776 25.1316 29.8776 24.2702C29.8776 23.4087 29.1766 22.7077 28.3151 22.7077Z" fill="#CB1B5B"/>
<path d="M16.8542 26.8743C15.4188 26.8743 14.25 25.7066 14.25 24.2702C14.25 22.8337 15.4188 21.666 16.8542 21.666C18.2896 21.666 19.4583 22.8337 19.4583 24.2702C19.4583 25.7066 18.2896 26.8743 16.8542 26.8743ZM16.8542 22.7077C15.9927 22.7077 15.2917 23.4087 15.2917 24.2702C15.2917 25.1316 15.9927 25.8327 16.8542 25.8327C17.7156 25.8327 18.4167 25.1316 18.4167 24.2702C18.4167 23.4087 17.7156 22.7077 16.8542 22.7077Z" fill="#CB1B5B"/>
<path d="M14.7734 15.4167H10.6068C10.3193 15.4167 10.0859 15.1833 10.0859 14.8958C10.0859 14.6083 10.3193 14.375 10.6068 14.375H14.7734C15.0609 14.375 15.2943 14.6083 15.2943 14.8958C15.2943 15.1833 15.0609 15.4167 14.7734 15.4167Z" fill="#CB1B5B"/>
<path d="M14.7682 18.5417H9.5599C9.2724 18.5417 9.03906 18.3083 9.03906 18.0208C9.03906 17.7333 9.2724 17.5 9.5599 17.5H14.7682C15.0557 17.5 15.2891 17.7333 15.2891 18.0208C15.2891 18.3083 15.0557 18.5417 14.7682 18.5417Z" fill="#CB1B5B"/>
<path d="M14.7708 21.6667H8.52083C8.23333 21.6667 8 21.4333 8 21.1458C8 20.8583 8.23333 20.625 8.52083 20.625H14.7708C15.0583 20.625 15.2917 20.8583 15.2917 21.1458C15.2917 21.4333 15.0583 21.6667 14.7708 21.6667Z" fill="#CB1B5B"/>
<path d="M22.5807 24.791H18.9349C18.6474 24.791 18.4141 24.5577 18.4141 24.2702C18.4141 23.9827 18.6474 23.7493 18.9349 23.7493H22.1651L24.5318 13.3327H12.6849C12.3974 13.3327 12.1641 13.0993 12.1641 12.8118C12.1641 12.5243 12.3974 12.291 12.6849 12.291H25.1849C25.3432 12.291 25.4932 12.3629 25.5922 12.4868C25.6911 12.6098 25.7286 12.7723 25.6932 12.9264L23.0891 24.3848C23.0349 24.6233 22.8234 24.791 22.5807 24.791Z" fill="#CB1B5B"/>
</g>
<defs>
<clipPath id="clip0_520_3308">
<rect width="25" height="25" fill="white" transform="translate(8 5)"/>
</clipPath>
</defs>
</svg>
