<svg width="64" height="64" viewBox="0 0 64 64" fill="none" xmlns="http://www.w3.org/2000/svg">
<path d="M61 61.0209H3V24.0209C5.7625 22.5886 8.79525 22.7866 12 24.0209H52C55.2048 22.7866 58.2375 22.5886 61 24.0209V61.0209Z" fill="#BC0000"/>
<path d="M55.9943 23.0178C52.9943 32.0178 53.9943 35.9999 48.9943 48.9999C46.8095 54.6803 43.6701 57.1084 40.9943 56.9999C37.5463 56.8602 34.8682 52.6304 35.9943 46.9999C37.9943 36.9999 34.983 33.0178 31.9886 33.0178C28.9942 33.0178 25.9943 36.9999 27.9943 46.9999C29.1203 52.6304 26.4422 56.8602 22.9943 56.9999C20.3185 57.1084 17.1791 54.6803 14.9943 48.9999C9.99434 35.9999 10.9943 32.0178 7.99434 23.0178C5.59084 15.8072 7.03847 3.52794 17.9943 3.01782C20.7132 2.89119 24.0177 3.4272 27.9943 5.01782C27.9943 5.01782 30.7931 6.02032 31.9943 6.01782C33.1956 6.02032 35.9943 5.01782 35.9943 5.01782C39.4956 3.6172 42.476 3.06294 44.9943 3.01782C56.8608 2.80494 58.4691 15.5933 55.9943 23.0178Z" fill="#E8EDF1"/>
<path d="M42.5771 51H42.1596C41.8848 50.9998 41.613 50.9431 41.3611 50.8333C41.1093 50.7234 40.8827 50.5629 40.6955 50.3617C40.5084 50.1605 40.3647 49.9229 40.2735 49.6637C40.1822 49.4045 40.1453 49.1293 40.165 48.8553C40.6525 42.0188 40.5636 36.6761 39.0411 31.7803C38.7851 30.9714 38.2774 30.2655 37.5921 29.7654C36.9068 29.2653 36.0796 28.9971 35.2312 29H28.7657C27.9173 28.9971 27.0902 29.2653 26.4049 29.7654C25.7195 30.2656 25.2119 30.9715 24.9559 31.7804C23.4334 36.6761 23.3449 42.0187 23.832 48.8554C23.8517 49.1294 23.8148 49.4046 23.7235 49.6638C23.6322 49.923 23.4885 50.1605 23.3014 50.3618C23.1143 50.563 22.8877 50.7235 22.6358 50.8333C22.3839 50.9431 22.1121 50.9998 21.8374 51H21.4199C21.0033 51 20.597 50.8699 20.2579 50.6279C19.9188 50.3859 19.6638 50.044 19.5284 49.65C17.8961 44.9 12.5941 28.9288 12.9985 23C13.4797 15.945 16.9985 13 21.9985 13C25.211 13 28.4241 14.2386 30.311 15.1241C30.8393 15.3719 31.4156 15.5004 31.9991 15.5004C32.5826 15.5004 33.159 15.3719 33.6872 15.1241C35.5735 14.2386 38.786 13 41.9985 13C46.9985 13 50.5172 15.945 50.9985 23C51.4029 28.9288 46.1009 44.9 44.4686 49.65C44.3332 50.044 44.0782 50.3859 43.7391 50.6279C43.4 50.8699 42.9937 51 42.5771 51Z" fill="#FDC8C9"/>
<path d="M56.5981 12.649C53.7206 10.0902 49.5181 7.00022 46.0019 7.00022C40.0019 7.00022 38.0019 10.0002 32.0019 10.0002C26.0019 10.0002 24.0019 7.00022 18.0019 7.00022C14.4794 7.00022 10.2681 10.1015 7.39062 12.664C8.41562 7.66522 11.5694 3.31647 17.9956 3.01772C20.7156 2.89147 24.0194 3.42772 27.9956 5.01772C27.9956 5.01772 30.7944 6.02022 31.9956 6.01772C33.1969 6.02022 35.9956 5.01772 35.9956 5.01772C39.4981 3.61772 42.4781 3.06272 44.9956 3.01772C52.0894 2.89022 55.5169 7.40897 56.5981 12.649Z" fill="#E0E2E5"/>
<path d="M47.2425 20.03C46.9852 19.9658 46.713 20.0063 46.4856 20.1428C46.2582 20.2792 46.0943 20.5004 46.03 20.7577L45.3953 23.2965L42.7306 21.298L41.9865 16.8355C41.9651 16.7058 41.9184 16.5815 41.8489 16.4699C41.7795 16.3582 41.6887 16.2614 41.5818 16.1848C41.4748 16.1083 41.3539 16.0536 41.2258 16.0239C41.0977 15.9942 40.965 15.99 40.8353 16.0117C40.7056 16.0333 40.5814 16.0803 40.4699 16.15C40.3584 16.2196 40.2617 16.3106 40.1854 16.4177C40.1091 16.5248 40.0547 16.6459 40.0252 16.774C39.9958 16.9022 39.9919 17.0349 40.0138 17.1645L40.4131 19.5599L38.6 18.2002C38.3878 18.041 38.1211 17.9727 37.8586 18.0102C37.596 18.0477 37.3591 18.188 37.2 18.4002C37.0409 18.6123 36.9725 18.879 37.0101 19.1416C37.0476 19.4041 37.1878 19.641 37.4 19.8002L41.5416 22.9063L38.6285 24.0717C38.5066 24.1205 38.3954 24.1928 38.3015 24.2845C38.2075 24.3763 38.1325 24.4856 38.0808 24.6063C37.9763 24.8501 37.973 25.1254 38.0715 25.3717C38.17 25.6179 38.3623 25.815 38.6061 25.9194C38.8499 26.0239 39.1252 26.0272 39.3715 25.9287L43.4146 24.3112L44.9301 25.4478C44.1518 31.1103 41.6638 47.2603 41.0161 50.8213C41.0054 50.8803 41 50.9402 41 51.0002V61.0002H43V51.0898C43.6969 47.216 46.3033 30.2734 46.9836 25.1889L47.9701 21.2427C48.0344 20.9854 47.9939 20.7131 47.8574 20.4857C47.721 20.2583 47.4998 20.0944 47.2425 20.03Z" fill="#D82E3D"/>
<path d="M25.4012 18.2L23.5887 19.5599L23.9881 17.1645C24.01 17.0349 24.0061 16.9022 23.9767 16.774C23.9472 16.6459 23.8928 16.5248 23.8165 16.4177C23.7401 16.3106 23.6435 16.2196 23.5319 16.15C23.4204 16.0803 23.2963 16.0333 23.1666 16.0117C23.0369 15.99 22.9042 15.9942 22.7761 16.0239C22.648 16.0536 22.527 16.1083 22.4201 16.1848C22.3132 16.2614 22.2224 16.3582 22.1529 16.4699C22.0835 16.5815 22.0367 16.7058 22.0154 16.8355L21.2712 21.298L18.6066 23.2965L17.9719 20.7577C17.9408 20.6295 17.8846 20.5087 17.8067 20.4022C17.7287 20.2958 17.6305 20.2059 17.5176 20.1376C17.4047 20.0693 17.2794 20.024 17.149 20.0044C17.0185 19.9847 16.8855 19.9911 16.7575 20.0231C16.6295 20.0551 16.5091 20.1121 16.4033 20.1908C16.2974 20.2695 16.2082 20.3684 16.1407 20.4818C16.0732 20.5951 16.0288 20.7207 16.0101 20.8513C15.9914 20.9819 15.9987 21.1149 16.0316 21.2427L17.0181 25.1889C17.6985 30.2734 20.3049 47.216 21.0017 51.0898V61H23.0017V51C23.0017 50.9401 22.9964 50.8802 22.9856 50.8212C22.338 47.2595 19.85 31.1097 19.0716 25.4477L20.5871 24.311L24.6302 25.9285C24.8765 26.0271 25.1518 26.0237 25.3956 25.9193C25.6394 25.8148 25.8317 25.6178 25.9302 25.3715C26.0288 25.1253 26.0254 24.85 25.921 24.6062C25.8165 24.3624 25.6195 24.1701 25.3732 24.0715L22.4601 22.9062L26.6012 19.8C26.7063 19.7213 26.7948 19.6225 26.8617 19.5095C26.9286 19.3965 26.9726 19.2715 26.9912 19.1415C27.0098 19.0115 27.0025 18.8791 26.97 18.7519C26.9374 18.6247 26.88 18.5051 26.8012 18.4C26.7224 18.295 26.6237 18.2065 26.5107 18.1396C26.3977 18.0727 26.2727 18.0287 26.1427 18.0101C26.0127 17.9915 25.8803 17.9987 25.7531 18.0313C25.6258 18.0639 25.5063 18.1213 25.4012 18.2Z" fill="#D82E3D"/>
</svg>
