<?xml version="1.0" encoding="UTF-8"?>
<svg id="Layer_1" data-name="Layer 1" xmlns="http://www.w3.org/2000/svg" viewBox="0 0 24 24">
  <defs>
    <style>
      .cls-1 {
        fill: none;
      }

      .cls-1, .cls-2 {
        stroke: #cb1b5b;
        stroke-linecap: round;
        stroke-miterlimit: 10;
      }

      .cls-2 {
        fill: #cb1b5b;
      }
    </style>
  </defs>
  <path class="cls-1" d="m12.76,22.87H3.76c-.15-.01-.67-.09-1.11-.52,0,0-.39-.39-.52-1.04-.2-.99-.25-8.33-.13-18.39,0-.1-.04-.74.46-1.24.55-.56,1.29-.47,1.37-.46h9.72c.13,0,.89-.02,1.5.59.58.58.59,1.3.59,1.43.02,2.83.04,5.65.07,8.48"/>
  <path class="cls-2" d="m5.2,1.25c.32.44.63.87.95,1.31,0,0,0,.04.04.06.04.02.08,0,.08,0,1.62.01,3.25.03,4.87.04.03,0,.07-.02.11-.04.06-.04.09-.08.11-.11l.8-1.21c-2.32-.02-4.64-.03-6.96-.05Z"/>
  <path class="cls-1" d="m7.72,19.82h2.15"/>
  <path class="cls-1" d="m20.04,13.19s-.07-.01-.1.01c-1.85.72-3.7,1.45-5.55,2.17.02.88.04,1.76.07,2.64l5.46,2.15s.07.03.11,0c.04-.02.06-.07.05-.12,0-2.25,0-4.51,0-6.76.01-.04,0-.09-.04-.1Z"/>
  <path class="cls-1" d="m14.39,15.39h-1.52c-.08,0-.21.03-.34.13-.29.21-.29.58-.29.63,0,.44.02.87.02,1.31,0,.05.04.22.19.36.2.17.44.13.48.13h1.46c0-.85,0-1.7,0-2.55Z"/>
  <path class="cls-1" d="m13.41,18.35c.16.9.32,1.81.48,2.71,0,0,0,.07.04.11.03.03.07.03.09.03.09,0,.56,0,1.2-.02.02,0,.05,0,.07-.02.01-.02.02-.04,0-.06-.11-.87-.23-1.74-.34-2.62"/>
  <path class="cls-1" d="m21.49,15.41l1.1-.89"/>
  <path class="cls-1" d="m21.89,16.97l1.42.08"/>
  <path class="cls-1" d="m21.48,18.48l1.13.86"/>
</svg>