<svg width="24" height="24" viewBox="0 0 24 24" fill="none" xmlns="http://www.w3.org/2000/svg">
<path fill-rule="evenodd" clip-rule="evenodd" d="M1 4C1 2.34315 2.34315 1 4 1H4.75C5.30228 1 5.75 1.44772 5.75 2C5.75 2.55228 5.30228 3 4.75 3H4C3.44772 3 3 3.44772 3 4V9C3 11.7614 5.23858 14 8 14C10.7614 14 13 11.7614 13 9V4C13 3.44772 12.5523 3 12 3H11.25C10.6977 3 10.25 2.55228 10.25 2C10.25 1.44772 10.6977 1 11.25 1H12C13.6569 1 15 2.34315 15 4V9C15 12.5265 12.3923 15.4439 9 15.9291V16C9 18.7614 11.2386 21 14 21C16.4765 21 18.5342 19.1985 18.9308 16.8345C19.0222 16.2899 19.5378 15.9224 20.0825 16.0138C20.6272 16.1052 20.9946 16.6208 20.9033 17.1655C20.3477 20.4769 17.4695 23 14 23C10.134 23 7 19.866 7 16V15.9291C3.60771 15.4439 1 12.5265 1 9V4ZM20 14C21.6569 14 23 12.6569 23 11C23 9.34315 21.6569 8 20 8C18.3431 8 17 9.34315 17 11C17 12.6569 18.3431 14 20 14Z" fill="#CB1B5B"/>
</svg>
