<svg width="40" height="40" viewBox="0 0 40 40" fill="none" xmlns="http://www.w3.org/2000/svg">
<rect width="40" height="40" rx="10" fill="#FFF9FB"/>
<mask id="mask0_1339_21031" style="mask-type:luminance" maskUnits="userSpaceOnUse" x="8" y="8" width="25" height="25">
<path d="M8 8H33V33H8V8Z" fill="white"/>
</mask>
<g mask="url(#mask0_1339_21031)">
<path d="M25.4465 11.1547C24.3027 9.62964 22.5077 8.73213 20.6014 8.73213H20.3817C18.4754 8.73213 16.6804 9.62964 15.5366 11.1547L15.5364 11.1549C15.1883 11.6192 15 12.1838 15 12.7642V15.7926C15 18.8256 17.4586 21.2842 20.4916 21.2842C23.5245 21.2842 25.9831 18.8256 25.9831 15.7926V12.7642C25.9831 12.1838 25.7948 11.6192 25.4466 11.1549L25.4465 11.1547Z" stroke="#CB1B5B" stroke-width="1.5" stroke-miterlimit="10" stroke-linecap="round" stroke-linejoin="round"/>
<path d="M15 15.0078H15.0001C15.5023 15.0078 15.984 14.8083 16.3392 14.4532C16.7907 14.0017 17.3535 13.4388 17.3535 13.4388H17.3536C19.329 14.4266 21.6541 14.4266 23.6295 13.4388H23.6295C23.6295 13.4388 24.1924 14.0017 24.6439 14.4532C24.999 14.8083 25.4808 15.0078 25.983 15.0078H25.9831" stroke="#CB1B5B" stroke-width="1.5" stroke-miterlimit="10" stroke-linecap="round" stroke-linejoin="round"/>
<path d="M32.2617 32.2676C32.2617 32.2676 31.3041 29.3946 30.6105 27.314C30.1748 26.0068 29.0852 25.0242 27.7402 24.7252C25.6648 24.2641 22.8477 23.638 22.8477 23.638L20.4941 27.5605L18.1406 23.638C18.1406 23.638 15.3234 24.2641 13.2481 24.7252C11.9031 25.0242 10.8135 26.0068 10.3777 27.314C9.68423 29.3946 8.72656 32.2676 8.72656 32.2676" stroke="#CB1B5B" stroke-width="1.5" stroke-miterlimit="10" stroke-linecap="round" stroke-linejoin="round"/>
<path d="M18.1406 23.6377V20.8767" stroke="#CB1B5B" stroke-width="1.5" stroke-miterlimit="10" stroke-linecap="round" stroke-linejoin="round"/>
<path d="M22.8516 23.6377V20.8767" stroke="#CB1B5B" stroke-width="1.5" stroke-miterlimit="10" stroke-linecap="round" stroke-linejoin="round"/>
<path d="M24.4173 32.2676H23.6328V29.9141C23.6328 29.2899 23.8808 28.6913 24.3222 28.2499C24.7635 27.8085 25.3622 27.5605 25.9863 27.5605C27.2861 27.5605 28.3398 28.6143 28.3398 29.9141V32.2676H27.5554" stroke="#CB1B5B" stroke-width="1.5" stroke-miterlimit="10" stroke-linecap="round" stroke-linejoin="round"/>
<path d="M25.9922 26.7754V24.3347" stroke="#CB1B5B" stroke-width="1.5" stroke-miterlimit="10" stroke-linecap="round" stroke-linejoin="round"/>
<path d="M15.0065 29.1295C14.1405 29.1295 13.4375 29.8326 13.4375 30.6985C13.4375 31.5645 14.1405 32.2676 15.0065 32.2676C15.8725 32.2676 16.5755 31.5645 16.5755 30.6985C16.5755 29.8326 15.8725 29.1295 15.0065 29.1295Z" stroke="#CB1B5B" stroke-width="1.5" stroke-miterlimit="10" stroke-linecap="round" stroke-linejoin="round"/>
<path d="M15 29.1299V24.3356" stroke="#CB1B5B" stroke-width="1.5" stroke-miterlimit="10" stroke-linecap="round" stroke-linejoin="round"/>
</g>
</svg>
