<svg width="44" height="44" viewBox="0 0 44 44" fill="none" xmlns="http://www.w3.org/2000/svg">
<g clip-path="url(#clip0_14249_101153)">
<path d="M32.1742 0H11.8261C9.14328 0 6.96094 2.18234 6.96094 4.8652V39.1348C6.96094 41.8177 9.14328 44 11.8261 44H32.1739C34.8567 44 37.0391 41.8177 37.0391 39.1348V4.8652C37.0391 2.18234 34.8567 0 32.1742 0ZM26.2787 2.57812V3.56607C26.2787 3.76447 26.1173 3.9256 25.9192 3.9256H18.0808C17.8827 3.9256 17.7213 3.76447 17.7213 3.56607V2.57812H26.2787ZM34.4609 39.1348C34.4609 40.396 33.4351 41.4219 32.1742 41.4219H11.8261C10.5649 41.4219 9.53906 40.396 9.53906 39.1348V4.8652C9.53906 3.604 10.5649 2.57812 11.8261 2.57812H15.1435V3.56607C15.1435 5.18579 16.4611 6.50372 18.0808 6.50372H25.9192C27.5389 6.50372 28.8569 5.18579 28.8569 3.56607V2.57812H32.1742C33.4351 2.57812 34.4609 3.604 34.4609 4.8652V39.1348Z" fill="#CB1B5B"/>
<path d="M25.4375 37.168H18.5625C17.8505 37.168 17.2734 37.745 17.2734 38.457C17.2734 39.1687 17.8505 39.7461 18.5625 39.7461H25.4375C26.1495 39.7461 26.7266 39.1687 26.7266 38.457C26.7266 37.745 26.1495 37.168 25.4375 37.168Z" fill="#CB1B5B"/>
<path d="M28.8456 19.6423C28.7255 19.526 28.6164 19.4202 28.5073 19.3461C28.3981 19.2615 28.289 19.1874 28.1689 19.1345C28.0598 19.0816 27.9397 19.0287 27.7978 18.997C27.7214 18.9758 27.645 18.9758 27.5795 18.9546C27.4922 18.9335 27.4158 18.9229 27.3285 18.9017L27.3176 18.8912C27.2739 18.8806 27.2521 18.8383 27.263 18.7959C27.263 18.7748 27.2849 18.7536 27.2958 18.743C27.3722 18.7007 27.4595 18.6584 27.5468 18.6267C27.6341 18.6055 27.7214 18.5738 27.8197 18.5738C28.0161 18.5526 28.2235 18.5949 28.3981 18.6796C28.5837 18.7536 28.7474 18.9017 28.8456 19.0604C28.9547 19.2191 29.0093 19.399 28.9984 19.6C28.9984 19.6423 28.9547 19.6741 28.9111 19.6741C28.8893 19.6741 28.8674 19.6635 28.8565 19.6529L28.8456 19.6423Z" fill="#CB1B5B"/>
<path fill-rule="evenodd" clip-rule="evenodd" d="M25.0123 14.0023C24.3028 14.0341 23.7571 14.6266 23.8008 15.3037L24.3356 25.2807C24.3792 25.9578 24.9795 26.4868 25.689 26.4551C26.3875 26.4233 26.9332 25.8308 26.9004 25.1431L26.3656 15.1767C26.322 14.4996 25.7217 13.96 25.0123 14.0023Z" fill="#CB1B5B"/>
<path fill-rule="evenodd" clip-rule="evenodd" d="M18.6727 17.0077C17.9633 16.976 17.3521 17.505 17.3193 18.1927L16.9482 25.1544C16.9046 25.8315 17.4503 26.424 18.1597 26.4557C18.8582 26.498 19.4694 25.969 19.5022 25.2813L19.8842 18.3196C19.9169 17.6319 19.3712 17.05 18.6727 17.0077Z" fill="#CB1B5B"/>
<path d="M15.1577 20.7647C16.2054 21.5688 17.3514 22.0978 18.5302 22.3835C19.7198 22.6797 20.9422 22.7221 22.1319 22.5528C23.3215 22.3729 24.4784 21.9815 25.5153 21.3572C26.5631 20.7436 27.4799 19.9078 28.2439 18.8392C28.2766 18.7969 28.3312 18.7863 28.3748 18.818C28.4076 18.8392 28.4294 18.8815 28.4185 18.9132C28.1675 20.2252 27.338 21.4419 26.2575 22.3306C25.1551 23.2299 23.7799 23.8118 22.3611 24.0234C20.9422 24.235 19.447 24.0763 18.1263 23.5367C16.8166 22.9971 15.6597 22.0661 15.0158 20.8917C14.983 20.8388 15.0049 20.7859 15.0485 20.7542C15.0922 20.7436 15.1249 20.7436 15.1577 20.7647Z" fill="#CB1B5B"/>
</g>
<defs>
<clipPath id="clip0_14249_101153">
<rect width="44" height="44" fill="white"/>
</clipPath>
</defs>
</svg>
