<svg width="30" height="30" viewBox="0 0 30 30" fill="none" xmlns="http://www.w3.org/2000/svg">
<mask id="mask0_1154_7751" style="mask-type:alpha" maskUnits="userSpaceOnUse" x="0" y="0" width="30" height="30">
<rect x="0.714844" y="0.714233" width="28.5714" height="28.5714" fill="#D9D9D9"/>
</mask>
<g mask="url(#mask0_1154_7751)">
<g clip-path="url(#clip0_1154_7751)">
<path d="M15.0022 2.8573C8.30696 2.8573 2.85938 8.30489 2.85938 15.0002C2.85938 21.6954 8.30696 27.143 15.0022 27.143C21.6975 27.143 27.1451 21.6954 27.1451 15.0002C27.1451 8.30489 21.6975 2.8573 15.0022 2.8573ZM15.0022 25.6252C9.14482 25.6252 4.37723 20.8591 4.37723 15.0002C4.37723 9.14123 9.14482 4.37516 15.0022 4.37516C20.8596 4.37516 25.6272 9.14123 25.6272 15.0002C25.6272 20.8591 20.8596 25.6252 15.0022 25.6252Z" fill="#CB1B5B"/>
<path d="M18.7939 11.9643H17.9576C17.8437 11.3997 17.5918 10.8897 17.2563 10.4464H18.7939C19.2128 10.4464 19.5528 10.1064 19.5528 9.68752C19.5528 9.26859 19.2128 8.92859 18.7939 8.92859H14.2403H11.2046C10.7857 8.92859 10.4457 9.26859 10.4457 9.68752C10.4457 10.1064 10.7857 10.4464 11.2046 10.4464H14.2403C15.2285 10.4464 16.0633 11.0824 16.3775 11.9643H11.2046C10.7857 11.9643 10.4457 12.3043 10.4457 12.7232C10.4457 13.1422 10.7857 13.4822 11.2046 13.4822H16.3775C16.0633 14.364 15.2285 15 14.2403 15H11.2046C11.106 15 11.0073 15.0198 10.9147 15.0577C10.7295 15.1351 10.5808 15.2823 10.5034 15.469C10.426 15.6542 10.426 15.8637 10.5034 16.0489C10.5413 16.143 10.5975 16.2264 10.6688 16.2963L16.7387 22.3662C16.8875 22.5149 17.0818 22.5893 17.276 22.5893C17.4703 22.5893 17.6646 22.5149 17.8134 22.3677C18.1094 22.0717 18.1094 21.5906 17.8134 21.2946L13.0367 16.5179H14.2403C16.0739 16.5179 17.6054 15.2125 17.9576 13.4822H18.7939C19.2128 13.4822 19.5528 13.1422 19.5528 12.7232C19.5528 12.3043 19.2128 11.9643 18.7939 11.9643Z" fill="#CB1B5B"/>
</g>
</g>
<defs>
<clipPath id="clip0_1154_7751">
<rect width="24.2857" height="24.2857" fill="white" transform="translate(2.85938 2.8573)"/>
</clipPath>
</defs>
</svg>
