<svg width="40" height="40" viewBox="0 0 40 40" fill="none" xmlns="http://www.w3.org/2000/svg">
<rect width="40" height="40" rx="20" fill="white"/>
<path d="M28.6664 17.9375C28.8008 18.175 29.5096 19.4997 29.0452 21.112C28.4831 23.0492 26.6989 23.7241 26.5156 23.7865" stroke="#CB1B5B" stroke-miterlimit="10" stroke-linecap="round" stroke-linejoin="round"/>
<path d="M29.3315 24.262C28.2928 24.2245 27.2418 24.187 26.2031 24.1495C26.3131 23.1372 26.4109 22.1248 26.5209 21.125" stroke="#CB1B5B" stroke-miterlimit="10" stroke-linecap="round" stroke-linejoin="round"/>
<path d="M24.498 18.2737C26.732 18.2737 28.5429 16.4215 28.5429 14.1368C28.5429 11.8521 26.732 10 24.498 10C22.2641 10 20.4531 11.8521 20.4531 14.1368C20.4531 16.4215 22.2641 18.2737 24.498 18.2737Z" stroke="#CB1B5B" stroke-miterlimit="10"/>
<path d="M23.7386 27.6103L23.3231 28.0352C22.0644 29.3225 20.0114 29.3225 18.7527 28.0352L10.944 20.049C9.68533 18.7617 9.68533 16.6621 10.944 15.3748L11.3595 14.9498C12.6182 13.6626 14.6712 13.6626 15.9299 14.9498L23.7386 22.936C25.0095 24.2233 25.0095 26.3105 23.7386 27.6103Z" stroke="#CB1B5B" stroke-miterlimit="10"/>
<path d="M22.1641 11.0234C23.8749 13.0981 25.5857 15.1603 27.2966 17.2349" stroke="#CB1B5B" stroke-miterlimit="10"/>
<path d="M19.6231 18.7109C17.9489 20.4107 16.287 22.1104 14.625 23.8226" stroke="#CB1B5B" stroke-miterlimit="10"/>
<path d="M12.9207 19.2684C12.4074 18.9559 12.1019 18.406 12.1264 17.8436C12.1508 17.3062 12.4685 16.9437 12.5663 16.8438" stroke="#CB1B5B" stroke-miterlimit="10" stroke-linecap="round"/>
</svg>
