<svg width="64" height="64" viewBox="0 0 64 64" fill="none" xmlns="http://www.w3.org/2000/svg">
<g clip-path="url(#clip0_11527_94967)">
<mask id="mask0_11527_94967" style="mask-type:luminance" maskUnits="userSpaceOnUse" x="0" y="0" width="64" height="64">
<path d="M0 7.62939e-06H64V64H0V7.62939e-06Z" fill="white"/>
</mask>
<g mask="url(#mask0_11527_94967)">
<path d="M44.9277 64H36.1777C35.1422 64 34.3027 63.1605 34.3027 62.125V43.375C34.3027 42.3395 35.1422 41.5 36.1777 41.5H47.4277C47.9682 41.5 48.4824 41.7332 48.8385 42.1399C49.1945 42.5465 49.0032 44.7143 48.9317 45.25L46.7864 62.3728C46.6621 63.3044 45.8675 64 44.9277 64Z" fill="#0D8EBC"/>
<path d="M47.4277 41.5H44.9277V64C45.8675 64 46.6621 63.3044 46.7864 62.3727L48.9317 45.25C49.0032 44.7143 49.1945 42.5465 48.8385 42.1399C48.4825 41.7332 47.9682 41.5 47.4277 41.5Z" fill="#0A617D"/>
<path d="M62.125 64C61.0895 64 60.25 63.1605 60.25 62.125V39.625C60.25 38.5911 59.4089 37.75 58.375 37.75C57.3411 37.75 56.5 38.5911 56.5 39.625V40.875C56.5 41.9105 55.6605 42.75 54.625 42.75C53.5895 42.75 52.75 41.9105 52.75 40.875V39.625C52.75 36.5234 55.2734 34 58.375 34C61.4766 34 64 36.5234 64 39.625V62.125C64 63.1605 63.1605 64 62.125 64Z" fill="#37265A"/>
<path d="M13.9966 36.4999L7.37312 61.2196C6.83712 63.2201 4.78074 64.4073 2.78037 63.8713C0.779867 63.3352 -0.407382 61.2789 0.128743 59.2786L5.96424 37.4999L13.9966 36.4999Z" fill="#D5D3EA"/>
<path d="M8.01562 36.4999L14.6391 61.2196C15.1752 63.2201 17.2315 64.4073 19.2319 63.8713C21.2322 63.3352 22.4196 61.2789 21.8836 59.2786L16.0481 37.4999L8.01562 36.4999Z" fill="#E2DFF4"/>
<path d="M16.0479 37.4999L14.375 37.2917V60.2343L14.639 61.2196C15.175 63.2202 17.2312 64.4073 19.2317 63.8713C21.2322 63.3352 22.4194 61.2789 21.8834 59.2786L16.0479 37.4999Z" fill="#D5D3EA"/>
<path d="M62.9012 28.697L46.2535 12.0491C45.9019 11.6975 45.425 11.5 44.9277 11.5C41.1204 11.5 37.5322 12.9738 34.8245 15.6497C32.1194 18.3234 30.603 21.889 30.5549 25.6901C30.5549 25.6979 30.5547 25.7055 30.5547 25.7134L30.5527 32.6631V43.375C30.5527 44.4105 31.3922 45.25 32.4277 45.25H48.9317L52.5529 28.955L57.5981 34.0004C58.3291 34.7313 59.2894 35.0968 60.2496 35.0968C61.2099 35.0968 62.1701 34.7313 62.9012 34.0004C63.6096 33.2921 63.9996 32.3504 63.9996 31.3486C63.9996 30.3469 63.6096 29.4051 62.9012 28.697Z" fill="#ACCEFF"/>
<path d="M48.9317 45.25L52.5529 28.9551L57.5981 34.0004C58.3291 34.7314 59.2894 35.0968 60.2496 35.0968C61.2099 35.0968 62.1701 34.7314 62.9011 34.0004C63.6095 33.2921 63.9996 32.3504 63.9996 31.3486C63.9996 30.3469 63.6095 29.4051 62.9012 28.697L46.2535 12.0493C45.9019 11.6975 45.425 11.5 44.9277 11.5V45.25H48.9317Z" fill="#989DEC"/>
<path d="M42.4281 21.4813C41.6958 22.2134 41.6958 23.4007 42.4281 24.1329L51.5891 33.2939L52.5532 28.9553L52.5533 28.9549L45.0797 21.4813C44.3475 20.7492 43.1603 20.7492 42.4281 21.4813Z" fill="#989DEC"/>
<path d="M44.9277 13.375C41.2402 13.375 38.2402 10.375 38.2402 6.6875C38.2402 3 41.2402 1.90735e-06 44.9277 1.90735e-06C48.6152 1.90735e-06 51.6152 3 51.6152 6.6875C51.6152 10.375 48.6152 13.375 44.9277 13.375Z" fill="#FFDDCE"/>
<path d="M44.9277 21.3458V26.6329L51.5887 33.2939L52.5529 28.9553L52.553 28.9549L45.0794 21.4813C45.0309 21.4327 44.98 21.3879 44.9277 21.3458Z" fill="#6E75E2"/>
<path d="M44.9277 1.90735e-06V13.375C48.6152 13.375 51.6152 10.375 51.6152 6.6875C51.6152 3 48.6152 1.90735e-06 44.9277 1.90735e-06Z" fill="#FFBCA7"/>
<path d="M36.5786 26.0119C36.0816 25.1423 35.2757 24.5181 34.3094 24.2545L20.6176 20.5203L16.003 12.4447C15.6691 11.8605 15.0479 11.5 14.375 11.5C6.44863 11.5 0 17.9486 0 25.875V43.375C0 44.4105 0.8395 45.25 1.875 45.25H18.125C19.1605 45.25 20 44.4105 20 43.375V29.7094L20.2549 28.1954L32.3359 31.4901C32.6641 31.5798 32.9975 31.624 33.3288 31.624C33.9728 31.624 34.6089 31.4566 35.1831 31.1285C36.0529 30.6314 36.677 29.8255 36.9405 28.8591C37.2041 27.8929 37.0756 26.8816 36.5786 26.0119Z" fill="#F9F9F9"/>
<path d="M18.125 45.25C19.1605 45.25 20 44.4105 20 43.375V29.7094L20.2549 28.1954L32.3359 31.4901C32.6641 31.5798 32.9974 31.624 33.3288 31.624C33.9727 31.624 34.6089 31.4565 35.1831 31.1284C36.0529 30.6314 36.677 29.8255 36.9405 28.8591C37.2041 27.8929 37.0756 26.8816 36.5786 26.0119C36.0816 25.1423 35.2758 24.5181 34.3094 24.2545L20.6175 20.5203L16.0029 12.4448C15.6691 11.8605 15.0479 11.5 14.375 11.5V45.25H18.125Z" fill="#E2DFF4"/>
<path d="M15.7325 26.9618C14.8928 26.7328 14.1815 26.1584 13.7808 25.3859L13.1531 24.1758C12.6762 23.2566 11.5446 22.8979 10.6253 23.3748C9.7061 23.8516 9.34747 24.9833 9.82422 25.9026L10.452 27.1127C11.3336 28.8123 12.8987 30.0759 14.7458 30.5797L20.0003 32.0127V29.7092L20.2551 28.1952L15.7325 26.9618Z" fill="#E2DFF4"/>
<path d="M14.375 26.1846V30.4666C14.4972 30.5074 14.6206 30.5457 14.7455 30.5797L20 32.0127V29.7091L20.2547 28.1952L15.7321 26.9618C15.2174 26.8214 14.7514 26.5508 14.375 26.1846Z" fill="#D5D3EA"/>
<path d="M14.375 13.375C10.6875 13.375 7.6875 10.375 7.6875 6.6875C7.6875 3 10.6875 1.90735e-06 14.375 1.90735e-06C18.0625 1.90735e-06 21.0625 3 21.0625 6.6875C21.0625 10.375 18.0625 13.375 14.375 13.375Z" fill="#FFDDCE"/>
<path d="M14.375 1.90735e-06V13.375C18.0625 13.375 21.0625 10.375 21.0625 6.6875C21.0625 3 18.0625 1.90735e-06 14.375 1.90735e-06Z" fill="#FFBCA7"/>
</g>
</g>
<defs>
<clipPath id="clip0_11527_94967">
<rect width="64" height="64" fill="white"/>
</clipPath>
</defs>
</svg>
