<svg width="64" height="64" viewBox="0 0 64 64" fill="none" xmlns="http://www.w3.org/2000/svg">
<path d="M17.5391 12.627H46.4888V27.3646H17.5391V12.627Z" fill="#E8E8E8"/>
<path d="M46.4884 12.626V27.364H17.5391V12.626H20.0172C22.2744 12.626 24.274 14.094 24.9372 16.2516C25.6125 18.4487 26.2244 20.9461 26.566 21.9105C26.642 22.1693 27.0103 22.1513 27.0657 21.8873C27.5357 19.6196 29.542 17.7975 32.0002 17.8078C34.4405 17.7885 36.4596 19.5964 36.9322 21.8989C36.9863 22.1629 37.3559 22.1796 37.4319 21.9208C37.7938 20.8873 38.3951 18.4237 39.0635 16.2509C39.7272 14.0936 41.7263 12.626 43.9833 12.626H46.4884Z" fill="#DCDBDD"/>
<path d="M26.1719 43.959H38.76V59.0309H26.1719V43.959Z" fill="#E8E8E8"/>
<path d="M25.2383 43.959H27.5562V59.0305H25.2383V43.959Z" fill="#DCDBDD"/>
<path d="M43.6488 1.14028L43.1714 2.25198C42.1956 4.52378 39.9607 5.99617 37.4882 5.99617C35.9991 5.99617 34.7097 7.03034 34.3865 8.48406L34.0105 10.1755C33.801 11.1178 32.9651 11.7882 31.9998 11.7882C31.0345 11.7882 30.1987 11.1178 29.9892 10.1755L29.6131 8.48406C29.2899 7.03034 28.0005 5.99617 26.5114 5.99617H26.3224C23.8499 5.99617 21.6149 4.52378 20.6392 2.25198L20.1617 1.14028C19.9598 0.670262 19.581 0.312531 19.1225 0.131477C19.1225 0.131477 18.6805 0.11641 18.439 0.11641C17.3987 0.11641 16.6719 1.08568 16.6719 2.12604L17.081 4.72621C17.081 5.84473 17.3987 6.9402 17.9971 7.88513C19.6105 10.433 20.0849 13.3168 20.4104 16.315L22.4462 15.6183L24.9562 16.315H39.0439L41.837 15.5571L43.5896 16.315C43.9151 13.3168 44.9233 10.433 46.5367 7.88513C47.1351 6.9402 47.4528 5.84473 47.4528 4.72621V1.88369C47.4525 0.843332 46.6091 0 45.5687 0H45.3797C44.6267 0 43.946 0.448386 43.6488 1.14028Z" fill="#F9F8F9"/>
<path d="M39.4013 44.6844H27.5542L24.8815 44.4145C24.1703 44.4145 23.5938 43.838 23.5938 43.1268L23.3047 38.8896H40.4521L40.689 42.4489V43.3967C40.689 44.1079 40.1125 44.6844 39.4013 44.6844Z" fill="#F9F8F9"/>
<path d="M39.4031 54.3416H27.556L24.7847 54.1239C24.0735 54.1239 23.497 53.5474 23.497 52.8362L23.4805 50.0469C23.4805 49.3357 24.057 48.7592 24.7682 48.7592L27.556 48.5469H39.4031C40.1143 48.5469 40.6908 49.1234 40.6908 49.8346V53.0539C40.6908 53.7651 40.1143 54.3416 39.4031 54.3416Z" fill="#F9F8F9"/>
<path d="M27.5542 48.5469V54.3416H24.5924C23.8816 54.3416 23.3047 53.7647 23.3047 53.0539V49.8346C23.3047 49.1238 23.8816 48.5469 24.5924 48.5469H27.5542Z" fill="#E8E8E8"/>
<path d="M23.3086 38.8896V43.3967C23.3086 44.1079 23.8851 44.6844 24.5963 44.6844H27.5581V42.3433C27.5581 41.8455 27.9617 41.4419 28.4595 41.4419H37.5393C38.6918 41.4419 39.7889 41.8064 40.6929 42.4489V38.8896H23.3086Z" fill="#E8E8E8"/>
<path d="M44.3523 12.626C43.9814 13.8248 43.7251 15.0598 43.5886 16.3153H39.043C39.0494 16.2934 39.0558 16.2728 39.0623 16.2509C39.7255 14.094 41.7253 12.626 43.9827 12.626H44.3523Z" fill="#E8E8E8"/>
<path d="M24.9364 16.2524C24.5426 14.9708 23.6775 13.9327 22.5671 13.3007C22.4499 13.234 22.3678 13.121 22.331 12.9914C21.8635 11.3423 21.0337 9.44174 20.0379 7.88475C19.4404 6.94085 19.1223 5.84499 19.1223 4.72596V0.131348C18.906 0.0463581 18.6729 0 18.4308 0C17.9106 0 17.4393 0.211187 17.098 0.551147C16.7581 0.892394 16.5469 1.3637 16.5469 1.88394V4.72596C16.5469 5.84499 16.8649 6.94085 17.4624 7.88475C18.2699 9.15831 18.924 10.5169 19.4185 11.9308C19.8432 13.1763 20.2079 14.5258 20.4101 16.3155H22.9855H24.9557C24.9493 16.2936 24.9429 16.273 24.9364 16.2524Z" fill="#E8E8E8"/>
<path d="M52.9282 16.2995L51.1988 13.9682C50.2833 12.7342 48.8958 11.9101 47.365 11.7778C44.8327 11.5589 42.5363 13.1588 41.8364 15.5572L38.9539 25.4348C38.6758 26.388 37.8021 27.0432 36.8091 27.0432C35.5752 27.0432 34.5748 26.0428 34.5748 24.8088V22.8295C34.5748 21.407 33.4217 20.254 31.9993 20.254C30.5769 20.254 29.4239 21.407 29.4239 22.8295V24.8088C29.4239 26.0427 28.4235 27.0432 27.1895 27.0432C26.1966 27.0432 25.3228 26.388 25.0447 25.4348L22.1622 15.5572C21.6164 13.6866 20.0993 12.3018 18.2567 11.8867C18.2567 11.8867 17.2243 11.9947 16.6671 12.0428C15.1363 12.1751 14.3591 12.7342 13.4437 13.9684L11.7143 16.2997C5.89684 24.1418 5.06098 34.6149 9.56081 43.2805C10.5804 45.244 11.9695 46.3211 14.1821 46.3211C14.5753 46.3211 15.3348 46.3623 15.3348 46.3623C17.0834 46.0142 18.6071 44.8891 19.444 43.2682C20.7993 40.6432 23.5065 38.9943 26.4608 38.9943H37.5376C40.4919 38.9943 43.1991 40.6432 44.5544 43.2682C45.5717 45.2385 47.6037 46.4762 49.8211 46.4762C52.0335 46.4762 54.0619 45.244 55.0814 43.2805C59.5815 34.6147 58.7456 24.1417 52.9282 16.2995Z" fill="#D82E3D"/>
<path d="M18.2558 11.8868C17.0042 12.174 15.8916 12.9236 15.1164 13.9679L13.387 16.3C7.57029 24.1422 6.73456 34.6153 11.2339 43.2804C11.7438 44.2617 12.5061 45.0614 13.4166 45.6151C14.0038 45.9718 14.6516 46.2258 15.3341 46.3623C14.9568 46.4383 14.5704 46.4766 14.1763 46.4766C13.0702 46.4766 12.0104 46.1688 11.0987 45.6151C10.1882 45.0614 9.42591 44.2617 8.91597 43.2804C4.41665 34.6153 5.25239 24.1422 11.069 16.3L12.7985 13.9679C13.714 12.7343 15.1022 11.9101 16.6333 11.7775C17.1909 11.7298 17.7356 11.7696 18.2558 11.8868Z" fill="#DD636E"/>
<path d="M14.2207 42.3876C15.2874 42.3876 16.1522 41.5228 16.1522 40.456C16.1522 39.3892 15.2874 38.5244 14.2207 38.5244C13.1539 38.5244 12.2891 39.3892 12.2891 40.456C12.2891 41.5228 13.1539 42.3876 14.2207 42.3876Z" fill="#DD636E"/>
<path d="M47.166 20.3075C48.2328 20.3075 49.0976 19.4427 49.0976 18.3759C49.0976 17.3091 48.2328 16.4443 47.166 16.4443C46.0992 16.4443 45.2344 17.3091 45.2344 18.3759C45.2344 19.4427 46.0992 20.3075 47.166 20.3075Z" fill="#DD636E"/>
<path d="M51.0292 35.8632C52.096 35.8632 52.9608 34.9984 52.9608 33.9316C52.9608 32.8648 52.096 32 51.0292 32C49.9625 32 49.0977 32.8648 49.0977 33.9316C49.0977 34.9984 49.9625 35.8632 51.0292 35.8632Z" fill="#DD636E"/>
<path d="M31.998 34.3632C33.0648 34.3632 33.9296 33.4984 33.9296 32.4316C33.9296 31.3648 33.0648 30.5 31.998 30.5C30.9312 30.5 30.0664 31.3648 30.0664 32.4316C30.0664 33.4984 30.9312 34.3632 31.998 34.3632Z" fill="#DD636E"/>
<path d="M15.8144 22.077C16.8812 22.077 17.746 21.2122 17.746 20.1455C17.746 19.0787 16.8812 18.2139 15.8144 18.2139C14.7476 18.2139 13.8828 19.0787 13.8828 20.1455C13.8828 21.2122 14.7476 22.077 15.8144 22.077Z" fill="#DD636E"/>
<path d="M20.1106 32.5152C21.533 32.5152 22.6861 31.3621 22.6861 29.9397C22.6861 28.5173 21.533 27.3643 20.1106 27.3643C18.6882 27.3643 17.5352 28.5173 17.5352 29.9397C17.5352 31.3621 18.6882 32.5152 20.1106 32.5152Z" fill="#DD636E"/>
<path d="M45.5169 29.4253C46.9392 29.4253 48.0923 28.2722 48.0923 26.8499C48.0923 25.4275 46.9392 24.2744 45.5169 24.2744C44.0945 24.2744 42.9414 25.4275 42.9414 26.8499C42.9414 28.2722 44.0945 29.4253 45.5169 29.4253Z" fill="#DD636E"/>
<path d="M47.4547 40.333C46.9213 40.333 46.4883 39.9005 46.4883 39.3672C46.4883 38.8338 46.9202 38.4014 47.4534 38.4014H47.4547C47.9882 38.4014 48.4205 38.8338 48.4205 39.3672C48.4205 39.9005 47.9882 40.333 47.4547 40.333Z" fill="#DD636E"/>
<path d="M49.9 42.7802C49.3667 42.7802 48.9336 42.3478 48.9336 41.8144C48.9336 41.2811 49.3655 40.8486 49.8987 40.8486H49.9C50.4335 40.8486 50.8658 41.2811 50.8658 41.8144C50.8658 42.3478 50.4335 42.7802 49.9 42.7802Z" fill="#DD636E"/>
<path d="M13.6383 33.8359C13.1049 33.8359 12.6719 33.4035 12.6719 32.8701C12.6719 32.3367 13.1038 31.9043 13.637 31.9043H13.6383C14.1718 31.9043 14.6041 32.3367 14.6041 32.8701C14.6041 33.4035 14.1717 33.8359 13.6383 33.8359Z" fill="#DD636E"/>
<path d="M10.7243 36.3701C10.1909 36.3701 9.75781 35.9376 9.75781 35.4043C9.75781 34.8709 10.1897 34.4385 10.723 34.4385H10.7243C11.2578 34.4385 11.69 34.8709 11.69 35.4043C11.69 35.9376 11.2578 36.3701 10.7243 36.3701Z" fill="#DD636E"/>
<path d="M10.1891 32.9091C9.65572 32.9091 9.22266 32.4767 9.22266 31.9433C9.22266 31.41 9.65456 30.9775 10.1878 30.9775H10.1891C10.7226 30.9775 11.1549 31.41 11.1549 31.9433C11.1549 32.4767 10.7225 32.9091 10.1891 32.9091Z" fill="#DD636E"/>
<path d="M41.9313 33.3554C41.3979 33.3554 40.9648 32.923 40.9648 32.3896C40.9648 31.8562 41.3968 31.4238 41.93 31.4238H41.9313C42.4648 31.4238 42.8971 31.8562 42.8971 32.3896C42.8971 32.923 42.4647 33.3554 41.9313 33.3554Z" fill="#DD636E"/>
<path d="M38.2985 34.6767C37.7651 34.6767 37.332 34.2443 37.332 33.7109C37.332 33.1775 37.7639 32.7451 38.2972 32.7451H38.2985C38.832 32.7451 39.2643 33.1775 39.2643 33.7109C39.2643 34.2443 38.832 34.6767 38.2985 34.6767Z" fill="#DD636E"/>
<path d="M39.0407 31.2548C38.5073 31.2548 38.0742 30.8224 38.0742 30.289C38.0742 29.7557 38.5061 29.3232 39.0394 29.3232H39.0407C39.5742 29.3232 40.0065 29.7557 40.0065 30.289C40.0065 30.8224 39.5742 31.2548 39.0407 31.2548Z" fill="#DD636E"/>
<path d="M39.4031 63.9998H27.556L24.7847 63.7821C24.0735 63.7821 23.497 63.2056 23.497 62.4944L23.4805 59.7051C23.4805 58.9939 24.057 58.4174 24.7682 58.4174L27.556 58.2051H39.4031C40.1143 58.2051 40.6908 58.7816 40.6908 59.4928V62.7121C40.6908 63.4233 40.1143 63.9998 39.4031 63.9998Z" fill="#F9F8F9"/>
<path d="M27.5542 58.2051V63.9998H24.5924C23.8816 63.9998 23.3047 63.4229 23.3047 62.7121V59.4928C23.3047 58.782 23.8816 58.2051 24.5924 58.2051H27.5542Z" fill="#E8E8E8"/>
</svg>
