<svg width="20" height="19" viewBox="0 0 20 19" fill="none" xmlns="http://www.w3.org/2000/svg">
<g id="language 1">
<path id="Vector" d="M17.5342 4.00013C17.5332 4.00013 17.5322 4 17.5312 4H13.2812V3.5C13.2812 2.67292 12.6504 2 11.875 2H8.125C7.34961 2 6.71875 2.67292 6.71875 3.5V4H2.46875C2.20776 4 2 4.22813 2 4.5V15.5C2 16.3271 2.63086 17 3.40625 17H16.5938C17.3691 17 18 16.3271 18 15.5V4.51055C18 4.5099 18 4.50924 18 4.50859C17.9821 4.18021 17.7927 4.00195 17.5342 4.00013ZM7.65625 3.5C7.65625 3.22435 7.86658 3 8.125 3H11.875C12.1334 3 12.3438 3.22435 12.3438 3.5V4H7.65625V3.5ZM16.8809 5L15.4252 9.65807C15.3613 9.86263 15.1826 10 14.9806 10H12.3438V9.5C12.3438 9.22383 12.1339 9 11.875 9H8.125C7.86609 9 7.65625 9.22383 7.65625 9.5V10H5.01941C4.81738 10 4.63867 9.86263 4.57483 9.65807L3.11914 5H16.8809ZM11.4062 10V11H8.59375V10H11.4062ZM17.0625 15.5C17.0625 15.7757 16.8522 16 16.5938 16H3.40625C3.14783 16 2.9375 15.7757 2.9375 15.5V7.58112L3.68542 9.97435C3.87708 10.5879 4.41321 11 5.01941 11H7.65625V11.5C7.65625 11.7762 7.86609 12 8.125 12H11.875C12.1339 12 12.3438 11.7762 12.3438 11.5V11H14.9806C15.5868 11 16.1229 10.5879 16.3146 9.97435L17.0625 7.58112V15.5Z" fill="#CB1B5B"/>
</g>
</svg>
