<svg width="19" height="19" viewBox="0 0 19 19" fill="none" xmlns="http://www.w3.org/2000/svg">
<g id="language 1">
<path id="Vector" d="M16.6245 4.00013C16.6235 4.00013 16.6226 4 16.6216 4H12.3716V3.5C12.3716 2.67292 11.7407 2 10.9653 2H7.21533C6.43994 2 5.80908 2.67292 5.80908 3.5V4H1.55908C1.2981 4 1.09033 4.22813 1.09033 4.5V15.5C1.09033 16.3271 1.72119 17 2.49658 17H15.6841C16.4595 17 17.0903 16.3271 17.0903 15.5V4.51055C17.0903 4.5099 17.0903 4.50924 17.0903 4.50859C17.0724 4.18021 16.8831 4.00195 16.6245 4.00013ZM6.74658 3.5C6.74658 3.22435 6.95691 3 7.21533 3H10.9653C11.2238 3 11.4341 3.22435 11.4341 3.5V4H6.74658V3.5ZM15.9712 5L14.5155 9.65807C14.4517 9.86263 14.2729 10 14.0709 10H11.4341V9.5C11.4341 9.22383 11.2242 9 10.9653 9H7.21533C6.95642 9 6.74658 9.22383 6.74658 9.5V10H4.10974C3.90771 10 3.729 9.86263 3.66516 9.65807L2.20947 5H15.9712ZM10.4966 10V11H7.68408V10H10.4966ZM16.1528 15.5C16.1528 15.7757 15.9425 16 15.6841 16H2.49658C2.23816 16 2.02783 15.7757 2.02783 15.5V7.58112L2.77576 9.97435C2.96741 10.5879 3.50354 11 4.10974 11H6.74658V11.5C6.74658 11.7762 6.95642 12 7.21533 12H10.9653C11.2242 12 11.4341 11.7762 11.4341 11.5V11H14.0709C14.6771 11 15.2133 10.5879 15.4049 9.97435L16.1528 7.58112V15.5Z" fill="white"/>
</g>
</svg>
