<svg width="64" height="64" viewBox="0 0 64 64" fill="none" xmlns="http://www.w3.org/2000/svg">
<path fill-rule="evenodd" clip-rule="evenodd" d="M54.9731 31.8604C54.9731 32.1836 54.9666 32.5055 54.9525 32.8261C54.7375 37.9487 52.8161 42.6309 49.7411 46.3202C49.2145 46.9539 48.6517 47.559 48.0593 48.1307C43.976 52.0711 38.4156 54.496 32.2872 54.496C22.3872 54.496 13.9655 48.1669 10.8711 39.342C13.963 39.342 14.4548 35.0114 14.4548 31.8602C14.4548 28.7105 13.963 24.3837 10.8711 24.3799C13.9655 15.5551 22.3833 9.22461 32.2872 9.22461C37.6107 9.22461 42.5066 11.0557 46.3775 14.1205C46.9905 14.606 47.5776 15.1224 48.1378 15.667C52.1388 19.5662 54.7013 24.9309 54.9525 30.8917C54.9667 31.2127 54.9731 31.5359 54.9731 31.8604Z" fill="#F8F7F7"/>
<path fill-rule="evenodd" clip-rule="evenodd" d="M14.4532 31.8609C14.4532 28.7104 13.9605 24.3835 10.8687 24.3799C7.77337 24.3799 5.26562 27.7306 5.26562 31.8609C5.26562 35.9948 7.77337 39.3419 10.8687 39.3419C13.9605 39.3419 14.4532 35.0114 14.4532 31.8609Z" fill="#685E68"/>
<path fill-rule="evenodd" clip-rule="evenodd" d="M10.8705 24.3797C13.9659 15.5548 22.3834 9.22469 32.2866 9.22469C44.8144 9.22469 54.973 19.3608 54.973 31.8606C54.973 44.3641 44.8144 54.4964 32.2866 54.4964C22.3871 54.4964 13.966 48.1664 10.8705 39.3414C7.77512 39.3414 5.26737 35.9943 5.26737 31.8604C5.26737 27.7306 7.775 24.3797 10.8705 24.3797ZM60.2878 31.8607C60.2878 16.4034 47.7235 3.86719 32.2319 3.86719C21.6425 3.86719 12.0861 9.80019 7.31887 18.9676C6.97575 19.6341 7.14 19.4957 6.48663 19.8417C2.161 22.1471 0 27.0057 0 31.8607C0 36.7193 2.161 41.5743 6.4865 43.8798C7.13987 44.2294 6.97563 44.0911 7.31875 44.7576C12.086 53.9248 21.6424 59.8579 32.2318 59.8579C38.2364 59.8579 42.0254 58.3464 47.1321 55.6148C49.899 54.1324 50.7531 54.7881 52.7754 56.8094L55.9255 59.9489C56.1701 60.1929 56.5716 60.1929 56.8161 59.9489L63.8136 52.9669C64.0619 52.7229 64.0619 52.3223 63.8136 52.0783L60.2291 48.4981C57.0863 45.3622 57.3636 45.0162 58.7508 41.0244C59.7475 38.1543 60.2878 35.0694 60.2878 31.8607Z" fill="#D82E3D"/>
<path fill-rule="evenodd" clip-rule="evenodd" d="M49.2099 32.7747C49.2099 40.2593 46.662 47.0556 42.519 52.0672C49.9072 48.3377 54.9737 40.6891 54.9737 31.8606C54.9737 21.8775 48.4944 13.4058 39.5039 10.3975C45.3954 15.4853 49.2099 23.6147 49.2099 32.7747Z" fill="#E1E1E1"/>
<path fill-rule="evenodd" clip-rule="evenodd" d="M54.9716 31.8607C54.9716 40.6892 49.9051 48.3378 42.517 52.0673C39.4399 55.7896 35.483 58.5284 31.0296 59.8323C31.4275 59.8469 31.829 59.8578 32.2305 59.8578C38.2351 59.8578 42.0241 58.3463 47.1309 55.6147C49.8978 54.1323 50.7519 54.7879 52.7741 56.8093L55.9242 59.9488C56.1689 60.1928 56.5704 60.1928 56.8149 59.9488L63.8124 52.9668C64.0606 52.7228 64.0606 52.3222 63.8124 52.0782L60.2279 48.4979C57.085 45.3621 57.3624 45.0161 58.7495 41.0243C59.746 38.1543 60.2862 35.0694 60.2862 31.8607C60.2862 16.4034 47.722 3.86719 32.2304 3.86719C29.6643 3.86719 27.1565 4.21319 24.7656 4.87244C24.8751 4.87244 24.9883 4.86881 25.0978 4.86881C30.5001 4.86881 35.4828 6.92656 39.5016 10.3976C48.4925 13.4059 54.9716 21.8776 54.9716 31.8607Z" fill="#EE6161"/>
<path d="M54.9725 31.8607C54.9725 32.1839 54.966 32.5058 54.9519 32.8264C54.9378 32.8264 54.9249 32.8264 54.9106 32.8252C52.2953 32.6578 50.616 33.2759 48.9935 33.8747C47.0748 34.5829 45.0904 35.3143 42.0244 34.4593C37.9719 33.3299 36.3443 35.4689 34.2839 38.1769C32.5339 40.4781 30.5778 43.0484 26.8718 43.0484C26.3515 43.0484 25.7978 42.9969 25.2054 42.8888C24.6813 42.7922 24.3336 42.2887 24.4301 41.7646C24.5254 41.2392 25.0289 40.8928 25.5543 40.9893C29.2075 41.6602 30.8481 39.5033 32.7475 37.0077C34.8478 34.2468 37.2275 31.1176 42.5433 32.5986C45.008 33.2862 46.4709 32.7467 48.3251 32.0629C50.0365 31.4319 51.9745 30.7159 54.9518 30.8924C54.9662 31.2131 54.9725 31.5362 54.9725 31.8607Z" fill="#D82E3D"/>
<path d="M42.2838 34.4947C42.1749 34.4947 42.0641 34.4762 41.9559 34.437C37.0404 32.6623 35.2804 29.378 33.5784 26.202C32.2419 23.708 30.9795 21.3523 28.1798 19.7594C27.7161 19.4957 27.5541 18.906 27.818 18.4424C28.0818 17.9787 28.6713 17.8169 29.135 18.0807C32.4189 19.9492 33.8737 22.6642 35.2809 25.2898C36.8812 28.2762 38.393 31.0972 42.6117 32.6203C43.1135 32.8015 43.3734 33.355 43.1921 33.8567C43.0501 34.2499 42.6793 34.4947 42.2838 34.4947Z" fill="#D82E3D"/>
<path d="M44.2085 22.7456C43.8782 22.7456 43.5565 22.5761 43.3762 22.2712L40.1932 16.8882C39.9217 16.4291 40.0738 15.8368 40.533 15.5652C40.9922 15.2938 41.5843 15.4459 41.8558 15.9049L45.0388 21.2879C45.3103 21.7471 45.1582 22.3393 44.6991 22.6109C44.5448 22.7022 44.3756 22.7456 44.2085 22.7456Z" fill="#D82E3D"/>
<path d="M48.1386 15.6677C47.6802 15.7952 47.2462 15.8905 47.0517 15.942C46.2186 16.1635 45.4021 16.3206 44.6127 16.4725C41.6406 17.0442 39.2931 17.4962 37.9334 20.9061C37.7827 21.2847 37.4196 21.5152 37.0359 21.5152C36.9174 21.5152 36.7964 21.4921 36.6791 21.4457C36.1834 21.2473 35.9412 20.686 36.1396 20.1902C37.8909 15.7991 41.1219 15.1771 44.2471 14.5757C44.9464 14.4418 45.6662 14.3027 46.3782 14.1211C46.9912 14.6066 47.5785 15.123 48.1386 15.6677Z" fill="#D82E3D"/>
<path d="M49.7426 46.3199C49.2159 46.9535 48.6532 47.5587 48.0608 48.1304C46.4138 47.9359 44.9368 47.4209 43.6092 46.9585C40.8252 45.9877 38.6257 45.2202 35.8068 47.4234C35.3857 47.7518 34.7792 47.677 34.4508 47.256C34.1224 46.8363 34.1972 46.2297 34.6169 45.9013C38.2663 43.049 41.3067 44.1088 44.2453 45.1338C45.7364 45.654 47.2766 46.191 48.9803 46.2683C49.1412 46.2762 49.4244 46.289 49.7426 46.3199Z" fill="#D82E3D"/>
<path d="M34.0765 26.052C34.0635 26.052 34.0505 26.0517 34.0374 26.0512L26.3609 25.7452C25.8279 25.724 25.4131 25.2746 25.4344 24.7417C25.4556 24.2087 25.903 23.7943 26.4379 23.8152L34.1144 24.1212C34.6474 24.1425 35.0621 24.5918 35.0409 25.1247C35.0201 25.6445 34.5921 26.052 34.0765 26.052Z" fill="#D82E3D"/>
<path d="M33.2449 38.9198C33.1505 38.9198 33.0548 38.9058 32.9599 38.8767L27.74 37.2668C27.2304 37.1096 26.9445 36.5691 27.1018 36.0593C27.259 35.5496 27.7996 35.2641 28.3093 35.421L33.5291 37.0308C34.0388 37.1881 34.3246 37.7287 34.1674 38.2383C34.0395 38.6533 33.6574 38.9198 33.2449 38.9198Z" fill="#D82E3D"/>
<path d="M43.6581 46.9219C43.238 46.9219 42.8514 46.6457 42.7301 46.2216L41.2992 41.2209C41.1525 40.7081 41.4492 40.1734 41.962 40.0267C42.4749 39.8802 43.0096 40.1768 43.1562 40.6896L44.5871 45.6902C44.7339 46.2031 44.4371 46.7377 43.9244 46.8844C43.8356 46.9099 43.7461 46.9219 43.6581 46.9219Z" fill="#D82E3D"/>
</svg>
