<svg width="24" height="24" viewBox="0 0 24 24" fill="none" xmlns="http://www.w3.org/2000/svg">
<path d="M21.9743 17.0296V10.8008L22.152 10.6973C22.5293 10.4783 22.7543 10.0876 22.7543 9.65184C22.7543 9.21609 22.5293 8.82459 22.152 8.60559L13.0343 3.30909C12.267 2.86209 11.3123 2.86284 10.545 3.30909L1.42651 8.60634C1.05001 8.82534 0.825012 9.21609 0.825012 9.65184C0.825012 10.0876 1.05001 10.4783 1.42651 10.6981L4.19101 12.3046V16.0388C4.19101 16.9058 4.65751 17.7121 5.40751 18.1448L9.21301 20.3386C10.0073 20.7961 10.8983 21.0256 11.7893 21.0256C12.6803 21.0256 13.5705 20.7968 14.3655 20.3386L18.1703 18.1448C18.921 17.7128 19.3875 16.9058 19.3875 16.0388V12.3038L20.6243 11.5853V17.0296C20.307 17.2456 20.0985 17.6093 20.0985 18.0226C20.0985 18.6856 20.6363 19.2233 21.2993 19.2233C21.9623 19.2233 22.5 18.6856 22.5 18.0226C22.5 17.6101 22.2915 17.2463 21.9743 17.0296ZM18.0383 16.0381H18.0375C18.0375 16.4236 17.8313 16.7821 17.4968 16.9741L13.692 19.1678C12.519 19.8436 11.0603 19.8436 9.88801 19.1678L6.08251 16.9741C5.74876 16.7821 5.54176 16.4236 5.54176 16.0381V13.0883L10.545 15.9953C10.929 16.2181 11.3595 16.3298 11.79 16.3298C12.2205 16.3298 12.651 16.2188 13.035 15.9953L18.0383 13.0883V16.0381ZM12.3563 14.8283C12.0068 15.0316 11.5725 15.0316 11.223 14.8283L2.31376 9.65184L11.2223 4.47534C11.5718 4.27209 12.006 4.27209 12.3555 4.47534L21.2648 9.65109L12.3563 14.8283Z" fill="#CB1B5B"/>
</svg>
