<svg width="16" height="16" viewBox="0 0 16 16" fill="none" xmlns="http://www.w3.org/2000/svg">
<g id="mortarboard 1" clip-path="url(#clip0_3139_11594)">
<path id="Vector" d="M17.0904 6.74987C17.0906 6.66762 17.0691 6.58679 17.0281 6.51548C16.9871 6.44417 16.9281 6.3849 16.857 6.34362L9.32573 1.96862C9.25424 1.92713 9.17306 1.90527 9.09041 1.90527C9.00776 1.90527 8.92658 1.92713 8.8551 1.96862L1.32385 6.34362C1.25289 6.38484 1.194 6.44398 1.15306 6.5151C1.11212 6.58623 1.09058 6.66686 1.09058 6.74893C1.09058 6.831 1.11212 6.91163 1.15306 6.98275C1.194 7.05388 1.25289 7.11302 1.32385 7.15424L2.99666 8.12705V12.0624C2.99666 12.7283 3.66635 13.2517 4.9876 13.6189C6.09041 13.9249 7.54666 14.0936 9.09041 14.0936C10.6342 14.0936 12.0904 13.9249 13.1932 13.6189C14.5145 13.2517 15.1842 12.7283 15.1842 12.0624V8.12705L16.1529 7.56455V11.7499C16.1529 11.8742 16.2023 11.9934 16.2902 12.0813C16.3781 12.1692 16.4973 12.2186 16.6217 12.2186C16.746 12.2186 16.8652 12.1692 16.9531 12.0813C17.041 11.9934 17.0904 11.8742 17.0904 11.7499V6.74987ZM14.2467 12.0599C14.2273 12.1336 13.937 12.4558 12.8301 12.7458C11.8201 13.0105 10.492 13.1561 9.09041 13.1561C7.68885 13.1561 6.36073 13.0105 5.35073 12.7458C4.24385 12.4558 3.95354 12.1336 3.93416 12.0599V8.67174L8.8551 11.5311C8.92658 11.5726 9.00776 11.5945 9.09041 11.5945C9.17306 11.5945 9.25424 11.5726 9.32573 11.5311L14.2467 8.67174V12.0599ZM9.09041 10.5827L2.49229 6.74987L9.09041 2.91705L15.6885 6.74987L9.09041 10.5827Z" fill="white"/>
</g>
<defs>
<clipPath id="clip0_3139_11594">
<rect width="16" height="16" fill="white"/>
</clipPath>
</defs>
</svg>
