<svg width="42" height="42" viewBox="0 0 42 42" fill="none" xmlns="http://www.w3.org/2000/svg">
<path d="M10.8247 33.9326C10.0365 33.9326 9.38281 33.2789 9.38281 32.4907V28.5112C9.38281 27.723 10.0365 27.0693 10.8247 27.0693C11.6129 27.0693 12.2665 27.723 12.2665 28.5112V32.4907C12.2665 33.2982 11.6129 33.9326 10.8247 33.9326Z" fill="#CB1B5B"/>
<path d="M20.6684 33.9323C19.8802 33.9323 19.2266 33.2787 19.2266 32.4905V24.5122C19.2266 23.724 19.8802 23.0703 20.6684 23.0703C21.4566 23.0703 22.1103 23.724 22.1103 24.5122V32.4905C22.1103 33.2979 21.4566 33.9323 20.6684 33.9323Z" fill="#CB1B5B"/>
<path d="M30.5122 33.9314C29.724 33.9314 29.0703 33.2777 29.0703 32.4895V20.5317C29.0703 19.7435 29.724 19.0898 30.5122 19.0898C31.3004 19.0898 31.954 19.7435 31.954 20.5317V32.4895C31.954 33.297 31.3196 33.9314 30.5122 33.9314Z" fill="#CB1B5B"/>
<path d="M10.8219 22.9356C10.1683 22.9356 9.59153 22.4934 9.41851 21.8398C9.22626 21.0708 9.68766 20.2826 10.4759 20.0903C17.5506 18.3216 23.7795 14.4575 28.528 8.93999L29.4123 7.90185C29.9314 7.30588 30.835 7.22898 31.4502 7.74805C32.0461 8.26712 32.123 9.17068 31.604 9.78588L30.7196 10.824C25.5866 16.8222 18.8195 20.9939 11.168 22.8971C11.0526 22.9356 10.9373 22.9356 10.8219 22.9356Z" fill="#CB1B5B"/>
<path d="M30.5122 15.8997C29.724 15.8997 29.0704 15.2461 29.0704 14.4578V10.2861H24.8794C24.0911 10.2861 23.4375 9.63242 23.4375 8.8442C23.4375 8.05599 24.0911 7.40234 24.8794 7.40234H30.5122C31.3004 7.40234 31.9541 8.05599 31.9541 8.8442V14.4771C31.9541 15.2653 31.3197 15.8997 30.5122 15.8997Z" fill="#CB1B5B"/>
<path d="M26.4341 41.3333H14.8992C4.46015 41.3333 0 36.8732 0 26.4341V14.8992C0 4.46015 4.46015 0 14.8992 0H26.4341C36.8732 0 41.3333 4.46015 41.3333 14.8992V26.4341C41.3333 36.8732 36.8732 41.3333 26.4341 41.3333ZM14.8992 2.88372C6.03659 2.88372 2.88372 6.03659 2.88372 14.8992V26.4341C2.88372 35.2967 6.03659 38.4496 14.8992 38.4496H26.4341C35.2967 38.4496 38.4496 35.2967 38.4496 26.4341V14.8992C38.4496 6.03659 35.2967 2.88372 26.4341 2.88372H14.8992Z" fill="#CB1B5B"/>
</svg>
