<svg width="30" height="30" viewBox="0 0 30 30" fill="none" xmlns="http://www.w3.org/2000/svg">
<mask id="mask0_1154_7775" style="mask-type:alpha" maskUnits="userSpaceOnUse" x="0" y="0" width="30" height="30">
<rect x="0.714844" y="0.714111" width="28.5714" height="28.5714" fill="#D9D9D9"/>
</mask>
<g mask="url(#mask0_1154_7775)">
<path d="M9.20849 22.9648C8.76352 22.9648 8.39453 22.5958 8.39453 22.1508V19.9043C8.39453 19.4593 8.76352 19.0903 9.20849 19.0903C9.65345 19.0903 10.0224 19.4593 10.0224 19.9043V22.1508C10.0224 22.6066 9.65345 22.9648 9.20849 22.9648Z" fill="#CB1B5B"/>
<path d="M14.7632 22.9649C14.3182 22.9649 13.9492 22.5959 13.9492 22.1509V17.647C13.9492 17.2021 14.3182 16.8331 14.7632 16.8331C15.2081 16.8331 15.5771 17.2021 15.5771 17.647V22.1509C15.5771 22.6067 15.2081 22.9649 14.7632 22.9649Z" fill="#CB1B5B"/>
<path d="M20.3218 22.9647C19.8768 22.9647 19.5078 22.5957 19.5078 22.1508V15.4004C19.5078 14.9554 19.8768 14.5864 20.3218 14.5864C20.7667 14.5864 21.1357 14.9554 21.1357 15.4004V22.1508C21.1357 22.6066 20.7776 22.9647 20.3218 22.9647Z" fill="#CB1B5B"/>
<path d="M9.20744 16.7571C8.83844 16.7571 8.51286 16.5075 8.41519 16.1385C8.30666 15.7044 8.56712 15.2594 9.01209 15.1509C13.0059 14.1524 16.5222 11.971 19.2028 8.85631L19.702 8.27026C19.9951 7.93382 20.5051 7.89041 20.8524 8.18344C21.1889 8.47646 21.2323 8.98654 20.9392 9.33383L20.44 9.91987C17.5423 13.3059 13.7222 15.6609 9.40278 16.7354C9.33767 16.7571 9.27255 16.7571 9.20744 16.7571Z" fill="#CB1B5B"/>
<path d="M20.3219 12.7851C19.877 12.7851 19.508 12.4161 19.508 11.9712V9.61613H17.1421C16.6971 9.61613 16.3281 9.24714 16.3281 8.80217C16.3281 8.35721 16.6971 7.98822 17.1421 7.98822H20.3219C20.7669 7.98822 21.1359 8.35721 21.1359 8.80217V11.982C21.1359 12.427 20.7777 12.7851 20.3219 12.7851Z" fill="#CB1B5B"/>
<path d="M18.0201 27.1429H11.5085C5.61549 27.1429 3.09766 24.6251 3.09766 18.7321V12.2204C3.09766 6.3274 5.61549 3.80957 11.5085 3.80957H18.0201C23.9132 3.80957 26.431 6.3274 26.431 12.2204V18.7321C26.431 24.6251 23.9132 27.1429 18.0201 27.1429ZM11.5085 5.43748C6.50541 5.43748 4.72556 7.21732 4.72556 12.2204V18.7321C4.72556 23.7352 6.50541 25.515 11.5085 25.515H18.0201C23.0232 25.515 24.8031 23.7352 24.8031 18.7321V12.2204C24.8031 7.21732 23.0232 5.43748 18.0201 5.43748H11.5085Z" fill="#CB1B5B"/>
</g>
</svg>
