<svg width="40" height="40" viewBox="0 0 40 40" fill="none" xmlns="http://www.w3.org/2000/svg">
<rect width="40" height="40" rx="10" fill="#FFF9FB"/>
<mask id="mask0_1339_21082" style="mask-type:alpha" maskUnits="userSpaceOnUse" x="7" y="4" width="28" height="28">
<rect x="7" y="4" width="28" height="28" fill="#D9D9D9"/>
</mask>
<g mask="url(#mask0_1339_21082)">
<mask id="path-3-inside-1_1339_21082" fill="white">
<path d="M29.7824 20.5125C29.6364 20.3548 29.4777 20.2097 29.3079 20.0786C29.0162 19.8404 28.6786 19.6665 28.3167 19.5678C28.2096 19.5371 28.1026 19.5371 28.0114 19.5057C27.8885 19.4743 27.7814 19.4589 27.6592 19.4281L27.6439 19.4127C27.6297 19.409 27.6164 19.4023 27.6048 19.3932C27.5932 19.3841 27.5835 19.3728 27.5763 19.3598C27.5692 19.3468 27.5647 19.3325 27.5631 19.3177C27.5616 19.3029 27.563 19.2879 27.5673 19.2737C27.5673 19.2423 27.5983 19.2122 27.6129 19.1961C27.7255 19.1301 27.8431 19.0731 27.9645 19.0257C28.0885 18.9835 28.2172 18.9574 28.3477 18.9481C28.6271 18.9214 28.9081 18.9751 29.1585 19.1032C29.4193 19.2189 29.6384 19.4135 29.7857 19.6601C29.9412 19.8922 30.0165 20.1698 29.9998 20.4497C29.9969 20.4801 29.9827 20.5083 29.9599 20.5284C29.9372 20.5486 29.9077 20.5592 29.8775 20.558C29.8491 20.5575 29.8219 20.5465 29.8008 20.5272L29.7824 20.5125Z"/>
</mask>
<path d="M29.7824 20.5125C29.6364 20.3548 29.4777 20.2097 29.3079 20.0786C29.0162 19.8404 28.6786 19.6665 28.3167 19.5678C28.2096 19.5371 28.1026 19.5371 28.0114 19.5057C27.8885 19.4743 27.7814 19.4589 27.6592 19.4281L27.6439 19.4127C27.6297 19.409 27.6164 19.4023 27.6048 19.3932C27.5932 19.3841 27.5835 19.3728 27.5763 19.3598C27.5692 19.3468 27.5647 19.3325 27.5631 19.3177C27.5616 19.3029 27.563 19.2879 27.5673 19.2737C27.5673 19.2423 27.5983 19.2122 27.6129 19.1961C27.7255 19.1301 27.8431 19.0731 27.9645 19.0257C28.0885 18.9835 28.2172 18.9574 28.3477 18.9481C28.6271 18.9214 28.9081 18.9751 29.1585 19.1032C29.4193 19.2189 29.6384 19.4135 29.7857 19.6601C29.9412 19.8922 30.0165 20.1698 29.9998 20.4497C29.9969 20.4801 29.9827 20.5083 29.9599 20.5284C29.9372 20.5486 29.9077 20.5592 29.8775 20.558C29.8491 20.5575 29.8219 20.5465 29.8008 20.5272L29.7824 20.5125Z" fill="white"/>
<path d="M29.7824 20.5125L28.6813 21.5311L28.7591 21.6152L28.8487 21.6866L29.7824 20.5125ZM29.3079 20.0786L28.3591 21.2404L28.3752 21.2536L28.3917 21.2663L29.3079 20.0786ZM28.3167 19.5678L27.9025 21.0095L27.9124 21.0124L27.9224 21.0151L28.3167 19.5678ZM28.0114 19.5057L28.5 18.0875L28.4422 18.0676L28.3829 18.0524L28.0114 19.5057ZM27.6592 19.4281L26.5938 20.484L26.8879 20.7808L27.2932 20.8828L27.6592 19.4281ZM27.6439 19.4127L28.7094 18.3569L28.4221 18.067L28.0276 17.9627L27.6439 19.4127ZM27.5673 19.2737L29.0028 19.7087L29.0673 19.496L29.0673 19.2737L27.5673 19.2737ZM27.6129 19.1961L26.8542 17.9021L26.6558 18.0185L26.5013 18.189L27.6129 19.1961ZM27.9645 19.0257L27.4812 17.6057L27.4495 17.6164L27.4183 17.6286L27.9645 19.0257ZM28.3477 18.9481L28.4543 20.4443L28.4725 20.443L28.4906 20.4413L28.3477 18.9481ZM29.1585 19.1032L28.4755 20.4387L28.5123 20.4575L28.5501 20.4743L29.1585 19.1032ZM29.7857 19.6601L28.4978 20.429L28.5178 20.4627L28.5397 20.4953L29.7857 19.6601ZM29.9998 20.4497L31.4932 20.5894L31.4956 20.5643L31.4971 20.5392L29.9998 20.4497ZM29.8775 20.558L29.9351 19.0591L29.9194 19.0585L29.9037 19.0582L29.8775 20.558ZM29.8008 20.5272L30.8162 19.4231L30.7766 19.3867L30.7345 19.3532L29.8008 20.5272ZM30.8835 19.4939C30.6808 19.2748 30.4602 19.0731 30.2241 18.891L28.3917 21.2663C28.4952 21.3462 28.5921 21.4347 28.6813 21.5311L30.8835 19.4939ZM30.2567 18.9169C29.8029 18.5463 29.2766 18.2747 28.711 18.1206L27.9224 21.0151C28.0807 21.0582 28.2295 21.1346 28.3591 21.2404L30.2567 18.9169ZM28.7308 18.1262C28.6412 18.1004 28.5625 18.0842 28.5045 18.0737C28.4507 18.0639 28.3984 18.0563 28.3815 18.0538C28.3545 18.0497 28.3615 18.0504 28.3761 18.0533C28.3932 18.0568 28.4391 18.0666 28.5 18.0875L27.5227 20.9239C27.6292 20.9606 27.7227 20.9821 27.7889 20.9953C27.8525 21.008 27.9101 21.0166 27.9347 21.0203C27.9693 21.0255 27.9696 21.0256 27.9688 21.0255C27.9638 21.0246 27.9386 21.0199 27.9025 21.0095L28.7308 18.1262ZM28.3829 18.0524C28.2799 18.0261 28.1876 18.0076 28.1327 17.9965C28.0699 17.9838 28.0467 17.9789 28.0251 17.9735L27.2932 20.8828C27.3939 20.9081 27.4854 20.9263 27.5374 20.9368C27.5972 20.9489 27.6199 20.9539 27.6398 20.959L28.3829 18.0524ZM28.7246 18.3723L28.7094 18.3569L26.5785 20.4686L26.5938 20.484L28.7246 18.3723ZM28.0276 17.9627C28.2125 18.0116 28.383 18.0974 28.5299 18.2125L26.6797 20.574C26.8499 20.7073 27.047 20.8064 27.2602 20.8628L28.0276 17.9627ZM28.5299 18.2125C28.6767 18.3275 28.7993 18.4712 28.89 18.6357L26.2627 20.0839C26.3677 20.2743 26.5097 20.4408 26.6797 20.574L28.5299 18.2125ZM28.89 18.6357C28.979 18.7971 29.0355 18.9757 29.0549 19.1614L26.0713 19.474C26.0938 19.6892 26.1594 19.8965 26.2627 20.0839L28.89 18.6357ZM29.0549 19.1614C29.0743 19.346 29.0564 19.532 29.0028 19.7087L26.1318 18.8386C26.0696 19.0438 26.0488 19.2598 26.0713 19.474L29.0549 19.1614ZM29.0673 19.2737C29.0673 19.5127 29.0087 19.7041 28.9559 19.8302C28.9034 19.9553 28.844 20.0466 28.8065 20.0992C28.7487 20.1804 28.6611 20.2733 28.7245 20.2033L26.5013 18.189C26.5501 18.1351 26.4397 18.251 26.3628 18.3591C26.293 18.457 26.0673 18.788 26.0673 19.2737L29.0673 19.2737ZM28.3715 20.4902C28.416 20.4641 28.4626 20.4415 28.5107 20.4227L27.4183 17.6286C27.2236 17.7048 27.0349 17.7962 26.8542 17.9021L28.3715 20.4902ZM28.4478 20.4457C28.4503 20.4448 28.4525 20.4444 28.4543 20.4443L28.2412 17.4519C27.982 17.4703 27.7267 17.5221 27.4812 17.6057L28.4478 20.4457ZM28.4906 20.4413C28.4845 20.4419 28.4791 20.4405 28.4755 20.4387L29.8415 17.7677C29.3371 17.5098 28.7696 17.4009 28.2048 17.4549L28.4906 20.4413ZM28.5501 20.4743C28.5257 20.4635 28.5083 20.4467 28.4978 20.429L31.0736 18.8912C30.7686 18.3802 30.3129 17.9744 29.7669 17.7321L28.5501 20.4743ZM28.5397 20.4953C28.5119 20.4538 28.4997 20.4064 28.5024 20.3602L31.4971 20.5392C31.5333 19.9332 31.3706 19.3306 31.0317 18.825L28.5397 20.4953ZM28.5063 20.3099C28.5387 19.9635 28.7013 19.6395 28.9652 19.4057L30.9546 21.6512C31.264 21.3771 31.4551 20.9967 31.4932 20.5894L28.5063 20.3099ZM28.9652 19.4057C29.2306 19.1706 29.5776 19.0454 29.9351 19.0591L29.8199 22.0569C30.2377 22.0729 30.6438 21.9265 30.9546 21.6512L28.9652 19.4057ZM29.9037 19.0582C30.2453 19.0642 30.5692 19.196 30.8162 19.4231L28.7855 21.6313C29.0745 21.8971 29.4529 22.0508 29.8513 22.0578L29.9037 19.0582ZM30.7345 19.3532L30.716 19.3385L28.8487 21.6866L28.8672 21.7012L30.7345 19.3532Z" fill="#CB1B5B" mask="url(#path-3-inside-1_1339_21082)"/>
<path d="M13.2494 24.2319L13.1044 28.5768C13.0912 28.8149 13.1248 29.0532 13.2032 29.2781C13.2816 29.503 13.4032 29.71 13.5611 29.887C13.719 30.0641 13.9101 30.2077 14.1232 30.3096C14.3362 30.4115 14.5672 30.4697 14.8026 30.4808C15.038 30.4942 15.2736 30.4602 15.4959 30.3809C15.7181 30.3015 15.9227 30.1785 16.0977 30.0187C16.2727 29.859 16.4146 29.6657 16.5154 29.4501C16.6161 29.2345 16.6737 29.0008 16.6846 28.7626L16.7983 26.599M13.2449 24.3652L13.6244 18.392C13.6497 17.9079 13.8636 17.4537 14.2191 17.1288C14.5747 16.8039 15.043 16.6348 15.5216 16.6584C15.9967 16.6898 16.4406 16.9084 16.7582 17.2673C17.0757 17.6261 17.2415 18.0967 17.2199 18.5778L16.8806 25.0332" stroke="#CB1B5B" stroke-width="1.5"/>
<path d="M25.5086 23.6573C25.9446 23.3879 26.3638 23.094 26.7643 22.7772C26.4388 23.1718 26.0753 23.5364 25.6774 23.8651L25.6774 23.8651L25.6738 23.8681C24.2136 25.0902 22.454 25.8881 20.5826 26.1778C18.7112 26.4674 16.7971 26.2383 15.0437 25.5143L15.0423 25.5137C14.5498 25.3116 14.0811 25.062 13.6418 24.7699C14.1294 24.9585 14.6288 25.1181 15.1374 25.2475C16.8839 25.6938 18.7009 25.783 20.482 25.5098C22.2631 25.2367 23.972 24.6067 25.5086 23.6573Z" stroke="#CB1B5B" stroke-width="1.5" stroke-linejoin="round"/>
<path d="M23.2294 24.2012L22.7137 14.1662C22.7006 13.9281 22.7341 13.6897 22.8125 13.4649C22.8909 13.24 23.0126 13.033 23.1705 12.856C23.3284 12.6789 23.5194 12.5353 23.7325 12.4334C23.9456 12.3315 24.1766 12.2733 24.412 12.2622C24.8883 12.2375 25.3549 12.4042 25.7103 12.7261C26.0656 13.0479 26.2809 13.4987 26.3092 13.9804L26.7289 22.1389L26.8008 23.5378L27.0592 28.5609C27.0832 29.0427 26.9183 29.5146 26.6003 29.874C26.2823 30.2334 25.8369 30.4513 25.3609 30.4803C24.8853 30.5022 24.4202 30.3345 24.0655 30.0132C23.7108 29.6919 23.4948 29.2428 23.4638 28.7621L23.2294 25.0001" stroke="#CB1B5B" stroke-width="1.5"/>
<path d="M28.6784 10.5143L28.7201 6.71866C28.7208 6.62858 28.7398 6.53959 28.7763 6.45683C28.8127 6.37407 28.8658 6.29918 28.9325 6.23649C28.9991 6.1738 29.078 6.12455 29.1646 6.09158C29.2512 6.05861 29.3438 6.04259 29.437 6.04443C29.6256 6.04732 29.8057 6.12211 29.938 6.25251C30.0704 6.3829 30.1444 6.55834 30.1438 6.74061L30.1101 9.82654L30.1043 10.3557L30.0835 12.2556C30.0812 12.4378 30.0046 12.6115 29.8703 12.7388C29.736 12.8662 29.5549 12.9369 29.3663 12.9356C29.1781 12.9317 28.9986 12.8566 28.8664 12.7264C28.7343 12.5963 28.66 12.4214 28.6595 12.2395L28.6589 10.8155" stroke="#CB1B5B" stroke-width="0.86037"/>
<path d="M30.5143 10.2639L26.7187 10.2222C26.6286 10.2216 26.5396 10.2025 26.4568 10.1661C26.3741 10.1297 26.2992 10.0766 26.2365 10.0099C26.1738 9.94328 26.1245 9.86438 26.0916 9.77779C26.0586 9.69119 26.0426 9.59862 26.0444 9.50541C26.0473 9.31682 26.1221 9.13672 26.2525 9.00433C26.3829 8.87195 26.5583 8.79801 26.7406 8.7986L29.8265 8.83233L30.3557 8.83811L32.2556 8.85887C32.4378 8.86117 32.6115 8.93779 32.7388 9.07209C32.8662 9.20639 32.9369 9.38752 32.9356 9.57608C32.9317 9.76433 32.8566 9.9438 32.7264 10.076C32.5963 10.2081 32.4214 10.2824 32.2395 10.2829L30.8155 10.2835" stroke="#CB1B5B" stroke-width="0.86037"/>
</g>
</svg>
