<svg width="64" height="64" viewBox="0 0 64 64" fill="none" xmlns="http://www.w3.org/2000/svg">
<path fill-rule="evenodd" clip-rule="evenodd" d="M16.6184 12.5643C8.37599 14.3419 5.49687 27.2383 12.0307 32.3888C16.7135 28.2275 21.7657 20.8467 24.9741 14.006C23.39 11.0749 22.8084 8.14742 24.4107 5.00079C26.0754 1.73379 19.878 -1.62083 17.8292 1.81417C16.0622 5.44629 15.7732 9.04542 16.6184 12.5643Z" fill="#E94444"/>
<path fill-rule="evenodd" clip-rule="evenodd" d="M49.3255 8.00488C39.2393 9.68763 32.9505 22.4635 46.45 27.5155C48.6047 28.3185 51.2645 28.9281 54.4911 29.264C53.7997 27.0994 52.7863 25.0188 51.4802 23.022C49.7863 20.4304 47.8913 18.3606 45.8718 16.7509C46.9547 15.7945 48.301 15.028 49.9546 13.9658C51.2314 13.1225 51.107 11.5821 50.5364 10.4396L49.3255 8.00488Z" fill="#D83131"/>
<path fill-rule="evenodd" clip-rule="evenodd" d="M14.1791 25.1101C13.056 27.3915 12.3023 29.8517 12.0316 32.3887C11.6585 35.8565 12.1852 39.4739 13.8973 42.9964C16.9887 49.3587 23.6982 56.0606 31.1211 61.5324C33.36 63.1823 35.5112 63.9707 37.5086 64H37.7207C40.1206 63.9671 42.2901 62.8246 44.1192 60.7366C54.6407 48.7126 57.3589 38.262 54.4907 29.2641C51.264 28.9283 48.6043 28.3188 46.4496 27.5156C45.5057 27.1615 44.657 26.771 43.8997 26.3475C33.8465 20.7297 39.945 9.57088 49.3251 8.005L52.3798 7.15088C53.4701 6.84425 54.1761 6.11788 53.7261 4.74538L52.6505 1.4675C52.3618 0.580375 51.7837 0.021875 50.9752 0H50.7923C44.0682 0.06575 35.1673 4.98263 29.8883 11.064C28.8896 12.2139 28.714 12.4548 27.5506 12.8745C26.6762 13.1884 25.8165 13.568 24.9751 14.0061C20.4642 16.3495 16.5205 20.3429 14.1791 25.1101Z" fill="#F47C7C"/>
<path fill-rule="evenodd" clip-rule="evenodd" d="M45.3105 6.16199C34.9572 9.91812 30.1904 23.2124 40.2436 29.4762C41.0009 29.9471 41.8496 30.3851 42.7935 30.7794C43.1996 30.9472 43.624 31.1079 44.063 31.2612C45.969 31.922 48.2152 32.4256 50.8346 32.7322C53.7027 42.7631 46.1044 50.3337 35.5791 63.7449C36.2376 63.9091 36.8779 63.9931 37.5071 64.0004H37.7192C40.1191 63.9675 42.2886 62.825 44.1177 60.737C54.6392 48.713 57.3575 38.2624 54.4892 29.2645C51.2625 28.9286 48.6029 28.3191 46.4481 27.516C45.5042 27.1619 44.6555 26.7714 43.8982 26.3479C33.845 20.7301 39.9435 9.57124 49.3236 8.00537L52.3784 7.15124C53.4686 6.84462 54.1746 6.11824 53.7246 4.74574L53.4174 3.80762C53.293 3.86962 53.1612 3.92074 53.0222 3.96087L45.3105 6.16199Z" fill="#EE6161"/>
<path d="M18.2789 49.9376C18.1884 49.9376 18.0964 49.9248 18.0052 49.8979C17.4936 49.7469 17.2012 49.2098 17.3523 48.6981C19.5071 41.3976 25.9542 35.5894 33.3954 34.245C33.9201 34.1503 34.4227 34.4989 34.5176 35.0236C34.6124 35.5485 34.2637 36.0509 33.7388 36.1458C26.9987 37.3635 21.1581 42.6275 19.2051 49.2448C19.0808 49.6653 18.6961 49.9376 18.2789 49.9376Z" fill="#E94444"/>
<path d="M26.3806 39.1075C25.8521 39.1075 25.4208 38.6819 25.4151 38.1521C25.3775 34.6406 21.485 30.785 17.9775 30.785C17.444 30.785 17.0117 30.3526 17.0117 29.8193C17.0117 29.2859 17.4441 28.8535 17.9775 28.8535C20.13 28.8535 22.4427 29.9095 24.3227 31.7506C26.2208 33.6094 27.323 35.9351 27.3466 38.1315C27.3522 38.6649 26.9246 39.1019 26.3911 39.1076C26.3876 39.1075 26.3841 39.1075 26.3806 39.1075Z" fill="#E94444"/>
<path d="M24.7982 34.7417C24.7947 34.7417 24.7912 34.7417 24.7876 34.7417C24.2542 34.736 23.8265 34.2991 23.8321 33.7657C23.8703 30.1933 27.5481 26.5537 31.1196 26.5537C31.6531 26.5537 32.0853 26.9861 32.0853 27.5195C32.0853 28.0528 31.653 28.4852 31.1196 28.4852C28.5937 28.4852 25.7906 31.2596 25.7636 33.7862C25.7581 34.3161 25.3267 34.7417 24.7982 34.7417Z" fill="#E94444"/>
<path d="M26.8835 45.1557C24.7097 45.1557 22.4934 44.3502 21.1784 42.8187C20.8309 42.4141 20.8774 41.8042 21.282 41.4567C21.6867 41.1091 22.2966 41.1558 22.644 41.5603C24.2942 43.4822 28.2312 43.8154 30.1669 42.1969C30.5759 41.8548 31.185 41.9089 31.5272 42.3182C31.8694 42.7273 31.8152 43.3364 31.406 43.6786C30.214 44.6754 28.5615 45.1557 26.8835 45.1557Z" fill="#E94444"/>
<path d="M41.4495 39.0238C41.2465 39.0238 41.042 38.96 40.8677 38.8283C40.4424 38.5066 40.3581 37.9009 40.6799 37.4754C42.7391 34.7524 43.8309 29.5771 42.9702 26.6175C42.8214 26.1053 43.1159 25.5694 43.6281 25.4205C44.1404 25.2715 44.6762 25.5661 44.8252 26.0783C45.8631 29.6483 44.6705 35.401 42.2207 38.6405C42.0307 38.8915 41.7417 39.0238 41.4495 39.0238Z" fill="#E94444"/>
<path d="M45.3047 40.9765C45.1536 40.9765 45.0002 40.941 44.8571 40.866C44.3846 40.6185 44.2025 40.0348 44.4498 39.5623C45.1427 38.24 44.3098 35.712 42.9395 34.9775C42.4692 34.7255 42.2925 34.1401 42.5445 33.67C42.7965 33.1999 43.3816 33.0228 43.852 33.275C46.1562 34.5101 47.343 38.2027 46.1608 40.4588C45.9883 40.7881 45.6525 40.9765 45.3047 40.9765Z" fill="#E94444"/>
<path d="M49.0389 54.9495C48.6125 54.9495 48.2222 54.6649 48.1065 54.2333C47.4442 51.7592 43.6058 49.6102 41.0252 50.2688C40.508 50.4007 39.9824 50.0888 39.8505 49.5718C39.7187 49.055 40.0307 48.529 40.5473 48.3971C42.1978 47.9759 44.3052 48.3411 46.1848 49.3745C48.1375 50.448 49.5179 52.0368 49.9724 53.7336C50.1104 54.2489 49.8045 54.7784 49.2893 54.9164C49.2057 54.9388 49.1217 54.9495 49.0389 54.9495Z" fill="#E94444"/>
<path d="M38.92 54.1893C38.3804 54.1893 37.8635 54.1102 37.3875 53.9494C36.8821 53.7788 36.6109 53.2307 36.7815 52.7254C36.952 52.2201 37.5002 51.9489 38.0055 52.1193C39.8162 52.7309 42.8467 51.1851 43.5017 49.3166C43.6784 48.8132 44.2292 48.5479 44.7327 48.7247C45.236 48.9011 45.5011 49.4522 45.3246 49.9556C44.8614 51.2772 43.6551 52.5488 42.098 53.3573C41.0397 53.9067 39.9392 54.1893 38.92 54.1893Z" fill="#E94444"/>
</svg>
