<svg width="64" height="64" viewBox="0 0 64 64" fill="none" xmlns="http://www.w3.org/2000/svg">
<g clip-path="url(#clip0_11431_98666)">
<path d="M58.4511 35.7689C55.2578 37.3961 51.5552 38.3411 47.5112 38.8281C43.6206 39.2967 39.9744 40.9721 37.0391 43.5684L31.8321 48.1739C28.8322 50.8272 25.0818 52.4783 21.1009 52.9171C16.8403 53.3869 12.7786 53.656 9.09513 53.5444C4.02888 53.391 0 49.2436 0 44.175V32.9985C0 22.9406 8.20675 14.7602 18.2634 14.9142C21.5846 14.9651 24.8674 15.2774 28.1133 15.8405C34.7161 16.9859 41.4468 17.1835 48.1131 16.4981C50.0631 16.2976 52.0345 16.2144 54.0281 16.2521C60.054 16.3661 64.6524 21.6955 63.9239 27.6782C63.9082 27.8065 63.892 27.9351 63.8749 28.064C63.4396 31.3637 61.4169 34.2576 58.4511 35.7689Z" fill="#DD636E"/>
<path d="M54.0297 16.2518C52.9715 16.2318 51.9197 16.2469 50.8738 16.2944C56.5236 16.8171 60.7132 21.9474 60.0155 27.6778C59.9998 27.806 59.9836 27.9346 59.9666 28.0635C59.5312 31.3635 57.5085 34.2574 54.5427 35.7686C51.3493 37.3959 47.6468 38.3409 43.6027 38.8279C39.7121 39.2965 36.0658 40.9719 33.1306 43.5681L27.9236 48.1736C24.9237 50.827 21.1732 52.478 17.1923 52.917C14.337 53.2318 11.5718 53.4558 8.94922 53.5361C8.99847 53.5384 9.04709 53.5428 9.09659 53.5443C12.7801 53.6559 16.8416 53.3868 21.1023 52.917C25.0832 52.4781 28.8337 50.8271 31.8336 48.1736L37.0406 43.5681C39.9758 40.9719 43.6222 39.2965 47.5127 38.8279C51.5568 38.3408 55.2592 37.3958 58.4526 35.7686C61.4183 34.2575 63.4411 31.3635 63.8765 28.0635C63.8935 27.9346 63.9098 27.8061 63.9255 27.6778C64.654 21.6951 60.0556 16.3658 54.0297 16.2518Z" fill="#DA4A54"/>
<path d="M37.7659 17.0606L44.1188 9.55282C44.4134 9.20457 44.37 8.68345 44.0218 8.3887L41.2268 6.0237C40.8785 5.72907 40.3574 5.77245 40.0627 6.1207L35.8439 11.1063C35.4713 11.5467 34.7923 11.5467 34.4197 11.1063L30.2008 6.12057C29.9062 5.77232 29.3849 5.72895 29.0367 6.02357L26.2417 8.38857C25.8934 8.6832 25.85 9.20445 26.1447 9.5527L31.6302 16.0353C31.9807 16.4494 32.1127 17.0034 31.9955 17.5332C30.4653 24.4542 31.4644 31.8762 32.3565 38.5018C33.1704 44.5458 33.939 50.2548 32.6133 54.2056L32.0579 55.8607C31.8979 56.3376 32.1548 56.8538 32.6315 57.0138L35.9419 58.1247C36.4188 58.2847 36.935 58.0278 37.095 57.5511L37.6505 55.8958C39.3699 50.7721 38.521 44.4676 37.6224 37.7929C36.7039 30.9714 35.7568 23.9286 37.4192 17.7166C37.4839 17.4748 37.6043 17.2516 37.7659 17.0606Z" fill="#D82E3D"/>
<path d="M53.5532 49.9188C58.9651 49.9188 63.3524 45.5315 63.3524 40.1196C63.3524 34.7076 58.9651 30.3203 53.5532 30.3203C48.1412 30.3203 43.7539 34.7076 43.7539 40.1196C43.7539 45.5315 48.1412 49.9188 53.5532 49.9188Z" fill="#B3E59F"/>
<path d="M53.5549 30.3203C52.9887 30.3203 52.4345 30.3711 51.8945 30.4632C56.5153 31.2523 60.0334 35.2738 60.0334 40.1196C60.0334 44.9653 56.5153 48.9868 51.8945 49.7759C52.4345 49.8682 52.9887 49.9188 53.5549 49.9188C58.9669 49.9188 63.3542 45.5316 63.3542 40.1196C63.3542 34.7076 58.9669 30.3203 53.5549 30.3203Z" fill="#95D6A4"/>
<path d="M58.7448 37.9225H56.323C56.0073 37.9225 55.7513 37.6667 55.7513 37.3509V34.929C55.7513 34.6134 55.4955 34.3574 55.1797 34.3574H51.9297C51.6141 34.3574 51.3581 34.6133 51.3581 34.929V37.3509C51.3581 37.6665 51.1022 37.9225 50.7865 37.9225H48.3646C48.0488 37.9225 47.793 38.1784 47.793 38.4942V41.7442C47.793 42.0598 48.0488 42.3158 48.3646 42.3158H50.7865C51.1022 42.3158 51.3581 42.5717 51.3581 42.8874V45.3093C51.3581 45.625 51.614 45.8809 51.9297 45.8809H55.1797C55.4953 45.8809 55.7513 45.625 55.7513 45.3093V42.8874C55.7513 42.5717 56.0072 42.3158 56.323 42.3158H58.7448C59.0605 42.3158 59.3165 42.0599 59.3165 41.7442V38.4942C59.3163 38.1784 59.0605 37.9225 58.7448 37.9225Z" fill="#F6F6F6"/>
<path d="M20.5645 43.2201C20.2385 43.2201 19.9204 43.0551 19.7385 42.7562C19.4613 42.3006 19.6059 41.7065 20.0616 41.4291C20.1388 41.3797 22.1635 40.0455 22.8685 36.0425C23.5011 32.4509 28.1206 31.8859 28.317 31.8636C28.8473 31.8037 29.3254 32.1842 29.3855 32.7144C29.4456 33.2435 29.0659 33.7212 28.5371 33.7826C28.5033 33.7866 25.153 34.2081 24.7709 36.3775C24.4166 38.3885 23.687 40.1674 22.6609 41.5217C21.8594 42.5799 21.1445 43.0311 21.0656 43.0792C20.9089 43.1747 20.7356 43.2201 20.5645 43.2201Z" fill="#D82E3D"/>
<path d="M22.9463 39.9914C22.9067 39.9914 22.8667 39.9889 22.8263 39.984C20.5531 39.7024 19.8475 37.7448 19.928 36.4974C19.9623 35.965 20.4247 35.5614 20.9538 35.5958C21.4832 35.6299 21.8856 36.0845 21.856 36.6133C21.8431 36.9198 21.8936 37.9223 23.0637 38.0672C23.593 38.1327 23.969 38.6149 23.9035 39.1444C23.843 39.633 23.4267 39.9913 22.9463 39.9914Z" fill="#D82E3D"/>
<path d="M44.6523 26.0864C44.4671 26.0864 44.2801 26.0333 44.115 25.9223C43.6734 25.6254 43.5544 25.028 43.85 24.5855C43.9604 24.4202 46.605 20.5393 50.8788 20.8784C51.4105 20.9207 51.8074 21.3858 51.7651 21.9177C51.7229 22.4494 51.259 22.8443 50.7259 22.804C47.5913 22.5533 45.4756 25.6298 45.4546 25.6608C45.2678 25.937 44.9628 26.0864 44.6523 26.0864Z" fill="#D82E3D"/>
<path d="M46.2096 24.4256C45.9211 24.4257 45.6358 24.297 45.4455 24.0514C44.6794 23.0625 44.3845 22.0612 44.5689 21.0757C44.8436 19.6067 46.0854 18.8217 46.226 18.7371C46.6831 18.462 47.2765 18.6096 47.5516 19.0665C47.8253 19.5212 47.6808 20.111 47.2293 20.3877C47.2026 20.4049 46.5766 20.8142 46.4656 21.4419C46.3919 21.859 46.5625 22.339 46.9725 22.8682C47.2993 23.29 47.2223 23.8966 46.8006 24.2232C46.6245 24.3596 46.4163 24.4256 46.2096 24.4256Z" fill="#D82E3D"/>
<path d="M15.288 30.2601C14.8138 30.2601 14.3999 29.9105 14.3326 29.4274C14.2954 29.1784 13.9064 26.9599 11.9166 27.0943C11.1713 27.1444 10.5058 26.918 9.992 26.4371C8.9175 25.4318 8.89025 23.657 8.89063 23.4579C8.89175 22.9251 9.324 22.4941 9.85638 22.4941H9.85838C10.3906 22.4953 10.8213 22.9266 10.8221 23.4583C10.8243 23.8239 10.9473 24.6885 11.3136 25.0285C11.3984 25.1074 11.5211 25.1854 11.7848 25.1671C13.3645 25.0576 14.6865 25.76 15.5124 27.1404C16.085 28.0974 16.231 29.055 16.2459 29.161C16.3195 29.6893 15.9508 30.1773 15.4224 30.2508C15.3774 30.2571 15.3324 30.2601 15.288 30.2601Z" fill="#D82E3D"/>
<path d="M13.0136 27.219C12.7053 27.219 12.4025 27.0717 12.2153 26.7981C11.9145 26.3577 12.0275 25.7567 12.4677 25.4557C13.3957 24.8216 12.6388 23.2113 12.6312 23.1953C12.4016 22.7158 12.6017 22.1388 13.0801 21.907C13.5585 21.675 14.1332 21.8713 14.3673 22.3486C14.8945 23.4232 15.4037 25.7888 13.5578 27.0506C13.391 27.1643 13.2013 27.219 13.0136 27.219Z" fill="#D82E3D"/>
</g>
<defs>
<clipPath id="clip0_11431_98666">
<rect width="64" height="64" fill="white"/>
</clipPath>
</defs>
</svg>
