<svg width="40" height="40" viewBox="0 0 40 40" fill="none" xmlns="http://www.w3.org/2000/svg">
<rect width="40" height="40" rx="10" fill="#FFF9FB"/>
<mask id="mask0_1339_21071" style="mask-type:alpha" maskUnits="userSpaceOnUse" x="8" y="8" width="24" height="24">
<rect x="8" y="8" width="24" height="24" fill="#D9D9D9"/>
</mask>
<g mask="url(#mask0_1339_21071)">
<path d="M11.6828 15.5578L11.6912 15.5514L11.6995 15.5448L18.0822 10.4221C19.2151 9.52581 20.7866 9.52659 21.9157 10.4207C21.916 10.4209 21.9163 10.4212 21.9166 10.4214L28.3453 15.5492L28.3518 15.5544L28.3584 15.5594C28.9284 15.9936 29.2674 16.6622 29.2784 17.3902V25.9188C29.2784 27.7547 27.7696 29.2605 25.9025 29.2605H14.1258C12.2588 29.2605 10.75 27.7547 10.75 25.9188V17.4093C10.7585 16.6715 11.0963 16.002 11.6828 15.5578Z" stroke="#CB1B5B" stroke-width="1.5"/>
<path d="M16.9008 17.4842L16.9011 17.4841C17.7071 17.2239 18.5925 17.3728 19.2702 17.8821C19.7166 18.2188 20.3272 18.2089 20.7631 17.8738L20.7632 17.8738L20.7651 17.8724C21.3859 17.392 22.3195 17.229 23.1156 17.4844C23.9319 17.7475 24.4306 18.3032 24.6835 18.9841C24.9436 19.6847 24.9419 20.5253 24.7008 21.2791L24.6998 21.2823C24.3265 22.468 23.339 23.6211 22.2461 24.5837C21.4062 25.3235 20.5574 25.9048 20.0095 26.2532C19.4649 25.9085 18.6228 25.3332 17.7871 24.5971C16.6995 23.6391 15.708 22.4823 15.3201 21.2759C15.0792 20.5231 15.0771 19.683 15.3365 18.9827C15.5887 18.3019 16.0864 17.7468 16.9008 17.4842Z" stroke="#CB1B5B" stroke-width="1.5" stroke-linejoin="round"/>
</g>
</svg>
