<svg width="64" height="64" viewBox="0 0 64 64" fill="none" xmlns="http://www.w3.org/2000/svg">
<path d="M16.5449 14.0732V44.9011H32.0005L34.5001 29.3178L32.0005 2.35254L16.5449 14.0732Z" fill="#FFF5F5"/>
<path d="M47.4421 14.0926L32 2.35254V44.9011H47.4421V14.0926Z" fill="#EBE5F1"/>
<path d="M39.6289 0.00976562V8.1376L47.4422 14.073V0.00976562H39.6289Z" fill="#EBE5F1"/>
<path d="M8.35938 17.9273L10.6249 20.9149L31.9996 4.70551L33.2494 2.35275L31.9996 0L8.35938 17.9273Z" fill="#37265A"/>
<path d="M55.6404 17.9273L32 0V4.70551L53.3749 20.9149L55.6404 17.9273Z" fill="#37265A"/>
<path d="M24.0918 32.6199C14.3918 32.8165 10.0984 44.9564 17.4197 51.3226L31.9988 64.0003L34.2081 50.6038L31.9988 35.0406C29.8417 33.5147 27.2085 32.6172 24.3652 32.6172C24.2739 32.6172 24.1827 32.6181 24.0918 32.6199Z" fill="#F5D1DE"/>
<path d="M46.5793 51.3226C53.9005 44.9564 49.6071 32.8165 39.9071 32.6199C39.8161 32.6181 39.725 32.6172 39.6337 32.6172C36.7904 32.6172 34.1572 33.5147 32 35.0406V64.0003L46.5793 51.3226Z" fill="#CB1B5B"/>
<path d="M28.0938 16.6982V24.5115H32.0004L33.2502 20.6049L32.0004 16.6982H28.0938Z" fill="#FFDD00"/>
<path d="M32 16.6982H35.9066V24.5115H32V16.6982Z" fill="#FFBB17"/>
<path d="M26.2188 26.3859H32.0001L33.2499 24.5112L32.0001 22.6365H29.9682V18.5726H32.0001L33.2499 16.3493L32.0001 14.8232H26.2188V26.3859Z" fill="#37265A"/>
<path d="M34.0319 18.5726V22.6365H32V26.3859H37.7813V14.8232H32V18.5726H34.0319Z" fill="#37265A"/>
</svg>
