<svg width="44" height="44" viewBox="0 0 44 44" fill="none" xmlns="http://www.w3.org/2000/svg">
<path d="M37.4479 6.33497H41.1443C41.7516 6.33497 42.244 5.84253 42.244 5.23483C42.244 4.62749 41.7516 4.13507 41.1443 4.13507H34.5442C33.9413 4.14648 33.4558 4.63228 33.4441 5.23483V11.8349C33.4441 12.4426 33.9365 12.935 34.5442 12.935C35.1515 12.935 35.6439 12.4426 35.6439 11.8349V7.72089C38.9631 10.91 41.0676 15.1562 41.5954 19.7292C42.1228 24.3022 41.0411 28.916 38.5352 32.7776C36.0296 36.6389 32.257 39.5066 27.8657 40.8878C23.4747 42.2686 18.7397 42.0766 14.4751 40.3445C10.2105 38.6124 6.68245 35.4482 4.49764 31.3965C2.3132 27.3451 1.6086 22.6588 2.5047 18.1436C3.40116 13.6285 5.84264 9.56714 9.40932 6.65755C12.976 3.74795 17.4451 2.17157 22.0485 2.19995C22.6558 2.19995 23.1486 1.70752 23.1486 1.09982C23.1486 0.492477 22.6558 5.5195e-05 22.0485 5.5195e-05C16.95 -0.011362 12.006 1.74879 8.06102 4.97924C4.11644 8.2097 1.41635 12.7096 0.422282 17.7098C-0.571784 22.7107 0.201669 27.9013 2.61077 32.395C5.01952 36.8887 8.91431 40.4057 13.6291 42.346C18.3442 44.2863 23.5867 44.5283 28.4604 43.0311C33.3342 41.5339 37.5367 38.3904 40.349 34.138C43.1618 29.8854 44.4104 24.7885 43.8811 19.7168C43.3522 14.646 41.0783 9.91568 37.4479 6.33656V6.33497Z" fill="#4D4D4D"/>
<path d="M29.7486 18.7004C29.7486 18.9921 29.6326 19.272 29.4263 19.4782C29.2201 19.6845 28.9402 19.8005 28.6485 19.8005H24.2483V20.8564C24.2479 21.8236 23.9286 22.7636 23.3401 23.5311C22.7515 24.2986 21.9265 24.8511 20.9925 25.1022L26.8667 30.9764C26.8751 31.0644 26.8751 31.1528 26.8667 31.2405C26.8788 31.3429 26.8788 31.446 26.8667 31.5484C26.8667 31.8401 26.7506 32.12 26.5444 32.3263C26.3381 32.5325 26.0582 32.6485 25.7665 32.6485H25.4365C25.3013 32.6047 25.1747 32.5377 25.0623 32.4504L24.9084 32.2964L16.0645 23.2103C15.8966 23.0055 15.8034 22.7495 15.8005 22.4844C15.8005 21.877 16.2929 21.3842 16.9002 21.3842C17.1695 21.3857 17.4288 21.4877 17.6265 21.6704C17.6343 21.7065 17.6343 21.7441 17.6265 21.7805L18.4626 22.5945H18.4622C18.8464 22.9127 19.3274 23.0913 19.8265 23.1005C20.4099 23.1005 20.9697 22.8685 21.3822 22.456C21.7947 22.0435 22.0264 21.484 22.0264 20.9003V19.8005H16.5923C15.985 19.8005 15.4922 19.3077 15.4922 18.7004C15.4922 18.093 15.985 17.6002 16.5923 17.6002H22.0484V15.4003H16.5923C15.985 15.4003 15.4922 14.9079 15.4922 14.3002C15.4922 13.6929 15.985 13.2004 16.5923 13.2004H28.6488C29.2561 13.2004 29.7489 13.6929 29.7489 14.3002C29.7489 14.9079 29.2561 15.4003 28.6488 15.4003H24.2486V17.6002H28.6488C28.9405 17.6002 29.2204 17.7163 29.4266 17.9225C29.6329 18.1288 29.7489 18.4087 29.7489 18.7004L29.7486 18.7004Z" fill="#4D4D4D"/>
</svg>
