<svg width="24" height="24" viewBox="0 0 24 24" fill="none" xmlns="http://www.w3.org/2000/svg">
<path d="M21.1095 17.5758C22.1391 15.8985 22.6827 13.9683 22.68 12.0003V11.9999C22.6827 10.0318 22.139 8.10159 21.1095 6.42427L21.1036 6.41512C20.1485 4.85833 18.81 3.57249 17.2162 2.68048C15.6224 1.78846 13.8265 1.32008 12 1.32007C10.1736 1.32006 8.37766 1.78844 6.78384 2.68044C5.19002 3.57244 3.85158 4.85826 2.89641 6.41504L2.89048 6.42432C1.86349 8.10279 1.32001 10.0323 1.32001 12C1.32 13.9678 1.86346 15.8973 2.89044 17.5758L2.89647 17.5852C3.85165 19.1419 5.19008 20.4277 6.78389 21.3197C8.37769 22.2117 10.1736 22.6801 12 22.6801C13.8265 22.68 15.6224 22.2117 17.2162 21.3197C18.81 20.4277 20.1484 19.1418 21.1036 17.5851L21.1095 17.5758ZM13.3652 20.8496C13.1616 21.046 12.9274 21.2078 12.6717 21.3286C12.4618 21.4283 12.2324 21.4801 12 21.4801C11.7676 21.4801 11.5382 21.4283 11.3283 21.3286C10.8417 21.08 10.4252 20.7135 10.1168 20.2624C9.48692 19.3523 9.02015 18.3396 8.73733 17.2695C9.82379 17.2026 10.9113 17.1686 12 17.1673C13.0882 17.1673 14.1758 17.2014 15.2629 17.2695C15.1063 17.8197 14.9108 18.358 14.6777 18.8804C14.3709 19.6151 13.9252 20.2837 13.3652 20.8496ZM2.54089 12.6001H6.84865C6.8767 13.8021 7.00699 14.9995 7.2381 16.1795C6.06053 16.2831 4.88597 16.4254 3.71441 16.6064C3.02837 15.3756 2.62734 14.0065 2.54089 12.6001ZM3.7144 7.39369C4.8855 7.57517 6.06048 7.71752 7.23934 7.82075C7.00776 9.0006 6.87719 10.198 6.84903 11.4001H2.54089C2.62733 9.99362 3.02836 8.62451 3.7144 7.39369ZM10.6348 3.15046C10.8384 2.95409 11.0726 2.79231 11.3283 2.67152C11.5382 2.57179 11.7676 2.52005 12 2.52005C12.2324 2.52005 12.4618 2.57179 12.6717 2.67152C13.1583 2.92007 13.5748 3.28662 13.8832 3.73767C14.5131 4.64781 14.9798 5.66055 15.2627 6.73063C14.1762 6.79748 13.0886 6.83154 12 6.8328C10.9118 6.83279 9.82418 6.79873 8.73714 6.73062C8.89369 6.18043 9.08923 5.6421 9.32227 5.1197C9.62913 4.38501 10.0748 3.71639 10.6348 3.15046ZM21.4591 11.4001H17.1514C17.1233 10.198 16.993 9.00058 16.7619 7.82065C17.9395 7.71703 19.1141 7.57471 20.2856 7.39369C20.9717 8.62451 21.3727 9.99362 21.4591 11.4001ZM8.44502 16.0862C8.21035 14.9381 8.07781 13.7715 8.04896 12.6001H15.9512C15.9226 13.7715 15.7903 14.9381 15.5558 16.0862C14.3719 16.0085 13.1866 15.9689 12 15.9673C10.8143 15.9673 9.6293 16.0069 8.44502 16.0862ZM15.555 7.91394C15.7896 9.06201 15.9222 10.2286 15.951 11.4001H8.04883C8.07741 10.2286 8.20971 9.06199 8.44417 7.91389C9.62814 7.99157 10.8134 8.0312 12 8.03279C13.1857 8.03279 14.3707 7.99316 15.555 7.91394ZM17.151 12.6001H21.4591C21.3727 14.0065 20.9716 15.3756 20.2856 16.6064C19.1145 16.4249 17.9395 16.2826 16.7607 16.1794C16.9922 14.9995 17.1228 13.8021 17.151 12.6001ZM19.5661 6.28921C18.5422 6.43694 17.5152 6.5539 16.4851 6.64009C16.3 5.95083 16.0613 5.27711 15.771 4.6251C15.5061 4.02509 15.1727 3.4577 14.7775 2.93423C16.6874 3.51996 18.3633 4.69418 19.5661 6.28921ZM5.2966 5.29666C6.39218 4.20004 7.74004 3.38891 9.22202 2.93437C9.19953 2.96349 9.1764 2.99132 9.15424 3.02104C8.39251 4.1176 7.83765 5.34417 7.51705 6.64028C6.48694 6.55303 5.45923 6.43601 4.4339 6.28921C4.69834 5.93895 4.98659 5.60732 5.2966 5.29666ZM4.4339 17.7109C5.45781 17.5632 6.48479 17.4462 7.51485 17.36C7.69997 18.0493 7.93874 18.723 8.22896 19.375C8.49392 19.975 8.82732 20.5424 9.22252 21.0659C7.31263 20.4802 5.63665 19.3059 4.4339 17.7109ZM18.7034 18.7035C17.6078 19.8001 16.26 20.6112 14.778 21.0657C14.8005 21.0366 14.8236 21.0088 14.8458 20.9791C15.6075 19.8825 16.1624 18.6559 16.483 17.3598C17.5131 17.4471 18.5408 17.5641 19.5661 17.7109C19.3017 18.0612 19.0134 18.3928 18.7034 18.7035Z" fill="#CB1B5B"/>
</svg>
