<svg width="64" height="64" viewBox="0 0 64 64" fill="none" xmlns="http://www.w3.org/2000/svg">
<g clip-path="url(#clip0_11431_99095)">
<path fill-rule="evenodd" clip-rule="evenodd" d="M24.0554 55.7108C24.0104 55.7108 23.9564 55.7108 23.9114 55.7018C12.6343 53.4788 4.45312 43.5066 4.45312 32.0044C4.45312 20.4933 12.6343 10.5211 23.9114 8.29806C23.9564 8.28906 24.0104 8.28906 24.0554 8.28906H39.9407C39.9947 8.28906 40.0397 8.28906 40.0847 8.29806C51.3619 10.5211 59.543 20.4933 59.543 32.0044C59.543 43.5066 51.3619 53.4788 40.0847 55.7018C40.0397 55.7108 39.9947 55.7108 39.9407 55.7108C34.6486 55.7108 29.3475 55.7108 24.0554 55.7108Z" fill="#D82E3D"/>
<path fill-rule="evenodd" clip-rule="evenodd" d="M26.2533 49.1501C26.2173 49.1501 26.1903 49.1411 26.1543 49.1411C18.0002 47.5301 12.0781 40.321 12.0781 32.0049C12.0781 23.6797 18.0002 16.4706 26.1543 14.8686C26.1903 14.8596 26.2173 14.8506 26.2533 14.8506H37.7465C37.7825 14.8506 37.8185 14.8596 37.8545 14.8686C45.9997 16.4706 51.9217 23.6797 51.9217 32.0049C51.9217 40.321 45.9997 47.5301 37.8545 49.1411C37.8185 49.1411 37.7825 49.1501 37.7465 49.1501C33.9125 49.1501 30.0784 49.1501 26.2533 49.1501Z" fill="#EB7A84"/>
<path fill-rule="evenodd" clip-rule="evenodd" d="M36.5579 30.0065C34.7669 30.0065 33.1019 29.2055 32.0038 27.8554C30.8968 29.2055 29.2318 30.0065 27.4408 30.0065C24.1917 30.0065 21.5547 27.3604 21.5547 24.1114C21.5547 21.1233 23.7957 18.6393 26.6938 18.2703V0.756012C26.6938 0.342005 27.0268 0 27.4408 0H36.5579C36.9719 0 37.3049 0.342005 37.3049 0.756012V18.2703C40.203 18.6393 42.444 21.1233 42.444 24.1114C42.444 27.3604 39.807 30.0065 36.5579 30.0065Z" fill="#EDEBF2"/>
<path fill-rule="evenodd" clip-rule="evenodd" d="M26.6914 1.09802H34.8365C35.2505 1.09802 35.5835 1.43102 35.5835 1.84503V19.3593C38.4816 19.7373 40.7226 22.2123 40.7226 25.2094C40.7226 26.9284 39.9846 28.4854 38.8056 29.5655C40.9386 28.6744 42.4417 26.5684 42.4417 24.1114C42.4417 21.1233 40.2006 18.6393 37.3026 18.2703V0.756012C37.3026 0.342005 36.9696 0 36.5556 0H27.4384C27.0244 0 26.6914 0.342005 26.6914 0.756012V1.09802Z" fill="#D5D4DA"/>
<path fill-rule="evenodd" clip-rule="evenodd" d="M36.5579 33.9932C34.7669 33.9932 33.1019 34.7942 32.0038 36.1442C30.8968 34.7942 29.2318 33.9932 27.4408 33.9932C24.1917 33.9932 21.5547 36.6392 21.5547 39.8883C21.5547 42.8853 23.7957 45.3603 26.6938 45.7293V63.2436C26.6938 63.6576 27.0268 63.9996 27.4408 63.9996H36.5579C36.9719 63.9996 37.3049 63.6576 37.3049 63.2436V45.7293C40.203 45.3603 42.444 42.8853 42.444 39.8883C42.444 36.6392 39.807 33.9932 36.5579 33.9932Z" fill="#EDEBF2"/>
<path fill-rule="evenodd" clip-rule="evenodd" d="M26.6914 62.9018H34.8365C35.2505 62.9018 35.5835 62.5688 35.5835 62.1548V44.6405C38.4816 44.2715 40.7226 41.7875 40.7226 38.7904C40.7226 37.0714 39.9846 35.5144 38.8056 34.4434C40.9386 35.3254 42.4417 37.4314 42.4417 39.8884C42.4417 42.8855 40.2006 45.3605 37.3026 45.7295V63.2438C37.3026 63.6578 36.9696 63.9998 36.5556 63.9998H27.4384C27.0244 63.9998 26.6914 63.6578 26.6914 63.2438V62.9018Z" fill="#D5D4DA"/>
</g>
<defs>
<clipPath id="clip0_11431_99095">
<rect width="64" height="64" fill="white"/>
</clipPath>
</defs>
</svg>
