<svg width="19" height="19" viewBox="0 0 19 19" fill="none" xmlns="http://www.w3.org/2000/svg">
<g id="language 1">
<g id="31 - 40">
<g id="Language">
<path id="Vector" d="M15.5278 6.92708H11.1737V4.35417C11.173 3.82945 10.9643 3.32641 10.5933 2.95538C10.2223 2.58435 9.71921 2.37563 9.1945 2.375H2.0695C1.54478 2.37563 1.04174 2.58435 0.670711 2.95538C0.299681 3.32641 0.0909606 3.82945 0.090332 4.35417V9.10417C0.0909606 9.62888 0.299681 10.1319 0.670711 10.503C1.04174 10.874 1.54478 11.0827 2.0695 11.0833V11.9106C2.0692 12.0668 2.11538 12.2195 2.20215 12.3494C2.28892 12.4792 2.41237 12.5803 2.55677 12.6398C2.70181 12.7002 2.86154 12.716 3.01562 12.6854C3.16971 12.6547 3.3112 12.5789 3.42206 12.4676C3.43651 12.4537 3.44976 12.4386 3.46164 12.4224L4.44648 11.0833H6.42367V13.6563C6.42429 14.181 6.63301 14.684 7.00404 15.055C7.37507 15.4261 7.87812 15.6348 8.40283 15.6354H12.791L14.1765 17.0208C14.2872 17.1315 14.4282 17.2069 14.5818 17.2374C14.7353 17.268 14.8945 17.2523 15.0391 17.1924C15.1837 17.1325 15.3074 17.031 15.3944 16.9009C15.4814 16.7707 15.5278 16.6177 15.5278 16.4611V15.6354C16.0525 15.6348 16.5556 15.4261 16.9266 15.055C17.2977 14.684 17.5064 14.181 17.507 13.6563V8.90625C17.5064 8.38154 17.2977 7.87849 16.9266 7.50746C16.5556 7.13643 16.0525 6.92771 15.5278 6.92708ZM4.24658 10.2917C4.1849 10.292 4.12414 10.3067 4.06916 10.3347C4.01418 10.3627 3.9665 10.4031 3.92992 10.4528L2.86117 11.9015V10.6875C2.86117 10.5825 2.81946 10.4818 2.74523 10.4076C2.671 10.3334 2.57031 10.2917 2.46533 10.2917H2.0695C1.75455 10.2917 1.45251 10.1666 1.22981 9.94386C1.00711 9.72116 0.881999 9.41911 0.881999 9.10417V4.35417C0.881999 4.03922 1.00711 3.73718 1.22981 3.51448C1.45251 3.29178 1.75455 3.16667 2.0695 3.16667H9.1945C9.50944 3.16667 9.81149 3.29178 10.0342 3.51448C10.2569 3.73718 10.382 4.03922 10.382 4.35417V6.92708H8.40283C7.98171 6.92833 7.57217 7.06503 7.23473 7.31698L5.99221 4.58573C5.96072 4.51662 5.91002 4.45803 5.84615 4.41694C5.78228 4.37586 5.70794 4.35401 5.632 4.35401C5.55606 4.35401 5.48172 4.37586 5.41785 4.41694C5.35398 4.45803 5.30328 4.51662 5.27179 4.58573L3.29262 8.9399C3.27117 8.9873 3.25927 9.03846 3.2576 9.09047C3.25594 9.14247 3.26454 9.1943 3.28293 9.24297C3.30131 9.29165 3.32911 9.33622 3.36473 9.37414C3.40036 9.41207 3.44311 9.44259 3.49054 9.46398C3.54141 9.48755 3.59677 9.49984 3.65283 9.5C3.7288 9.49998 3.80316 9.4781 3.86703 9.43697C3.9309 9.39584 3.98159 9.33719 4.01304 9.26804L4.62737 7.91667H6.63742L6.66552 7.97802C6.50907 8.26255 6.42595 8.58156 6.42367 8.90625V10.2917H4.24658ZM6.2776 7.125H4.98719L5.632 5.70633L6.2776 7.125ZM16.7153 13.6563C16.7153 13.9712 16.5902 14.2732 16.3675 14.4959C16.1448 14.7186 15.8428 14.8438 15.5278 14.8438H15.132C15.027 14.8438 14.9263 14.8855 14.8521 14.9597C14.7779 15.0339 14.7362 15.1346 14.7362 15.2396V16.4611L13.2348 14.9597C13.1606 14.8855 13.0599 14.8438 12.9549 14.8438H8.40283C8.08789 14.8438 7.78584 14.7186 7.56314 14.4959C7.34044 14.2732 7.21533 13.9712 7.21533 13.6563V8.90625C7.21533 8.59131 7.34044 8.28926 7.56314 8.06656C7.78584 7.84386 8.08789 7.71875 8.40283 7.71875H15.5278C15.8428 7.71875 16.1448 7.84386 16.3675 8.06656C16.5902 8.28926 16.7153 8.59131 16.7153 8.90625V13.6563Z" fill="white"/>
<path id="Vector_2" d="M13.9445 9.896H12.3612V9.10433C12.3612 8.99935 12.3195 8.89867 12.2452 8.82443C12.171 8.7502 12.0703 8.7085 11.9653 8.7085C11.8604 8.7085 11.7597 8.7502 11.6854 8.82443C11.6112 8.89867 11.5695 8.99935 11.5695 9.10433V9.896H9.98617C9.88118 9.896 9.7805 9.9377 9.70627 10.0119C9.63204 10.0862 9.59033 10.1868 9.59033 10.2918C9.59033 10.3968 9.63204 10.4975 9.70627 10.5717C9.7805 10.646 9.88118 10.6877 9.98617 10.6877H12.9232C12.8263 11.3601 12.4843 11.9731 11.963 12.4087C11.6584 12.1544 11.4123 11.8374 11.2414 11.4793C11.2198 11.4312 11.1889 11.3878 11.1504 11.3517C11.1118 11.3157 11.0665 11.2877 11.017 11.2694C10.9675 11.2511 10.9149 11.243 10.8621 11.2453C10.8094 11.2477 10.7577 11.2606 10.7101 11.2832C10.6624 11.3059 10.6198 11.3378 10.5846 11.3772C10.5495 11.4165 10.5226 11.4625 10.5055 11.5124C10.4884 11.5623 10.4814 11.6152 10.485 11.6678C10.4886 11.7205 10.5027 11.7718 10.5265 11.819C10.7104 12.2003 10.9619 12.5452 11.2687 12.837C10.9169 12.9869 10.5383 13.0636 10.156 13.0627C10.1047 13.0629 10.054 13.0734 10.0069 13.0936C9.95972 13.1137 9.91708 13.1431 9.88148 13.18C9.84588 13.2169 9.81803 13.2605 9.79957 13.3084C9.78111 13.3562 9.77241 13.4073 9.774 13.4585C9.7772 13.5649 9.82188 13.6659 9.89849 13.7399C9.97511 13.8138 10.0776 13.8549 10.1841 13.8543C10.8132 13.8541 11.4308 13.686 11.9732 13.3675C12.5207 13.6847 13.1419 13.8526 13.7747 13.8543C13.826 13.8541 13.8767 13.8436 13.9238 13.8234C13.9709 13.8033 14.0136 13.7739 14.0492 13.737C14.0848 13.7001 14.1126 13.6565 14.1311 13.6086C14.1496 13.5608 14.1583 13.5097 14.1567 13.4585C14.1535 13.3521 14.1088 13.2511 14.0322 13.1771C13.9556 13.1032 13.8531 13.0621 13.7466 13.0627C13.3763 13.0612 13.0101 12.985 12.6699 12.8386C13.2595 12.2653 13.6318 11.505 13.7232 10.6877H13.9445C14.0495 10.6877 14.1502 10.646 14.2244 10.5717C14.2986 10.4975 14.3403 10.3968 14.3403 10.2918C14.3403 10.1868 14.2986 10.0862 14.2244 10.0119C14.1502 9.9377 14.0495 9.896 13.9445 9.896Z" fill="white"/>
</g>
</g>
</g>
</svg>
