<svg width="19" height="19" viewBox="0 0 19 19" fill="none" xmlns="http://www.w3.org/2000/svg">
<path d="M16.2285 6.92708H11.8744V4.35417C11.8737 3.82945 11.665 3.32641 11.294 2.95538C10.9229 2.58435 10.4199 2.37563 9.89518 2.375H2.77018C2.24547 2.37563 1.74242 2.58435 1.37139 2.95538C1.00036 3.32641 0.791644 3.82945 0.791016 4.35417V9.10417C0.791644 9.62888 1.00036 10.1319 1.37139 10.503C1.74242 10.874 2.24547 11.0827 2.77018 11.0833V11.9106C2.76989 12.0668 2.81606 12.2195 2.90284 12.3494C2.98961 12.4792 3.11305 12.5803 3.25745 12.6398C3.40249 12.7002 3.56222 12.716 3.71631 12.6854C3.8704 12.6547 4.01188 12.5789 4.12275 12.4676C4.1372 12.4537 4.15044 12.4386 4.16233 12.4224L5.14716 11.0833H7.12435V13.6563C7.12498 14.181 7.3337 14.684 7.70473 15.055C8.07576 15.4261 8.5788 15.6348 9.10352 15.6354H13.4917L14.8771 17.0208C14.9879 17.1315 15.1289 17.2069 15.2824 17.2374C15.436 17.268 15.5951 17.2523 15.7398 17.1924C15.8844 17.1325 16.0081 17.031 16.095 16.9009C16.182 16.7707 16.2285 16.6177 16.2285 16.4611V15.6354C16.7532 15.6348 17.2563 15.4261 17.6273 15.055C17.9983 14.684 18.2071 14.181 18.2077 13.6563V8.90625C18.2071 8.38154 17.9983 7.87849 17.6273 7.50746C17.2563 7.13643 16.7532 6.92771 16.2285 6.92708ZM4.94727 10.2917C4.88558 10.292 4.82482 10.3067 4.76984 10.3347C4.71486 10.3627 4.66718 10.4031 4.6306 10.4528L3.56185 11.9015V10.6875C3.56185 10.5825 3.52015 10.4818 3.44591 10.4076C3.37168 10.3334 3.271 10.2917 3.16602 10.2917H2.77018C2.45524 10.2917 2.15319 10.1666 1.93049 9.94386C1.70779 9.72116 1.58268 9.41911 1.58268 9.10417V4.35417C1.58268 4.03922 1.70779 3.73718 1.93049 3.51448C2.15319 3.29178 2.45524 3.16667 2.77018 3.16667H9.89518C10.2101 3.16667 10.5122 3.29178 10.7349 3.51448C10.9576 3.73718 11.0827 4.03922 11.0827 4.35417V6.92708H9.10352C8.6824 6.92833 8.27285 7.06503 7.93541 7.31698L6.69289 4.58573C6.6614 4.51662 6.6107 4.45803 6.54683 4.41694C6.48297 4.37586 6.40863 4.35401 6.33268 4.35401C6.25674 4.35401 6.1824 4.37586 6.11853 4.41694C6.05466 4.45803 6.00396 4.51662 5.97247 4.58573L3.99331 8.9399C3.97185 8.9873 3.95995 9.03846 3.95829 9.09047C3.95662 9.14247 3.96523 9.1943 3.98361 9.24297C4.00199 9.29165 4.02979 9.33622 4.06542 9.37414C4.10104 9.41207 4.14379 9.44259 4.19122 9.46398C4.24209 9.48755 4.29745 9.49984 4.35352 9.5C4.42949 9.49998 4.50384 9.4781 4.56771 9.43697C4.63159 9.39584 4.68227 9.3372 4.71372 9.26804L5.32806 7.91667H7.3381L7.3662 7.97802C7.20975 8.26255 7.12663 8.58156 7.12435 8.90625V10.2917H4.94727ZM6.97829 7.125H5.68787L6.33268 5.70633L6.97829 7.125ZM17.416 13.6563C17.416 13.9712 17.2909 14.2732 17.0682 14.4959C16.8455 14.7186 16.5435 14.8438 16.2285 14.8438H15.8327C15.7277 14.8438 15.627 14.8855 15.5528 14.9597C15.4786 15.0339 15.4369 15.1346 15.4369 15.2396V16.4611L13.9355 14.9597C13.8612 14.8855 13.7606 14.8438 13.6556 14.8438H9.10352C8.78857 14.8438 8.48653 14.7186 8.26383 14.4959C8.04113 14.2732 7.91602 13.9712 7.91602 13.6563V8.90625C7.91602 8.59131 8.04113 8.28926 8.26383 8.06656C8.48653 7.84386 8.78857 7.71875 9.10352 7.71875H16.2285C16.5435 7.71875 16.8455 7.84386 17.0682 8.06656C17.2909 8.28926 17.416 8.59131 17.416 8.90625V13.6563Z" fill="#CB1B5B"/>
<path d="M14.6452 9.896H13.0618V9.10433C13.0618 8.99935 13.0201 8.89867 12.9459 8.82443C12.8717 8.7502 12.771 8.7085 12.666 8.7085C12.561 8.7085 12.4604 8.7502 12.3861 8.82443C12.3119 8.89867 12.2702 8.99935 12.2702 9.10433V9.896H10.6868C10.5819 9.896 10.4812 9.9377 10.407 10.0119C10.3327 10.0862 10.291 10.1868 10.291 10.2918C10.291 10.3968 10.3327 10.4975 10.407 10.5717C10.4812 10.646 10.5819 10.6877 10.6868 10.6877H13.6239C13.527 11.3601 13.185 11.9731 12.6636 12.4087C12.3591 12.1544 12.113 11.8374 11.942 11.4793C11.9205 11.4312 11.8896 11.3878 11.8511 11.3517C11.8125 11.3157 11.7672 11.2877 11.7177 11.2694C11.6682 11.2511 11.6155 11.243 11.5628 11.2453C11.5101 11.2477 11.4584 11.2606 11.4108 11.2832C11.3631 11.3059 11.3204 11.3378 11.2853 11.3772C11.2502 11.4165 11.2233 11.4625 11.2062 11.5124C11.1891 11.5623 11.1821 11.6152 11.1857 11.6678C11.1893 11.7205 11.2034 11.7718 11.2272 11.819C11.4111 12.2003 11.6625 12.5452 11.9693 12.837C11.6176 12.9869 11.239 13.0636 10.8567 13.0627C10.8054 13.0629 10.7547 13.0734 10.7075 13.0936C10.6604 13.1137 10.6178 13.1431 10.5822 13.18C10.5466 13.2169 10.5187 13.2605 10.5002 13.3084C10.4818 13.3562 10.4731 13.4073 10.4747 13.4585C10.4779 13.5649 10.5226 13.6659 10.5992 13.7399C10.6758 13.8138 10.7783 13.8549 10.8848 13.8543C11.5138 13.8541 12.1315 13.686 12.6739 13.3675C13.2214 13.6847 13.8426 13.8526 14.4754 13.8543C14.5266 13.8541 14.5773 13.8436 14.6245 13.8234C14.6716 13.8033 14.7143 13.7739 14.7499 13.737C14.7855 13.7001 14.8133 13.6565 14.8318 13.6086C14.8502 13.5608 14.8589 13.5097 14.8573 13.4585C14.8541 13.3521 14.8095 13.2511 14.7329 13.1771C14.6562 13.1032 14.5538 13.0621 14.4473 13.0627C14.077 13.0612 13.7107 12.985 13.3706 12.8386C13.9602 12.2653 14.3325 11.505 14.4239 10.6877H14.6452C14.7502 10.6877 14.8508 10.646 14.9251 10.5717C14.9993 10.4975 15.041 10.3968 15.041 10.2918C15.041 10.1868 14.9993 10.0862 14.9251 10.0119C14.8508 9.9377 14.7502 9.896 14.6452 9.896Z" fill="#CB1B5B"/>
</svg>
