<svg width="56" height="38" viewBox="0 0 56 38" fill="none" xmlns="http://www.w3.org/2000/svg">
<path d="M30.2661 5.73344C30.2661 6.45827 29.6785 7.04594 28.9536 7.04594H27.0464C26.3215 7.04594 25.7339 6.45827 25.7339 5.73344C25.7339 5.00861 26.3215 4.42094 27.0464 4.42094H28.9536C29.6785 4.42094 30.2661 5.00861 30.2661 5.73344ZM56 30.5566V32.2567C56 35.1276 53.6644 37.4633 50.7933 37.4633H5.20669C2.33559 37.4633 0 35.1276 0 32.2567V30.5566C0 29.8318 0.587672 29.2441 1.3125 29.2441H3.25161C2.91572 28.5882 2.72486 27.8462 2.72486 27.06V4.80911C2.72486 2.15742 4.88228 0 7.53397 0H48.4662C51.1179 0 53.2754 2.15742 53.2754 4.80911V27.0601C53.2754 27.8463 53.0845 28.5883 52.7486 29.2442H54.6875C55.4123 29.2441 56 29.8318 56 30.5566ZM7.53386 29.2441H48.4661C49.6705 29.2441 50.6503 28.2644 50.6503 27.06V4.80911C50.6503 3.60478 49.6705 2.625 48.4661 2.625H7.53386C6.32953 2.625 5.34975 3.60478 5.34975 4.80911V27.0601C5.34975 28.2644 6.32953 29.2441 7.53386 29.2441ZM53.375 31.8691H2.625V32.2567C2.625 33.6802 3.78317 34.8383 5.20669 34.8383H50.7934C52.2169 34.8383 53.3751 33.6802 53.3751 32.2567V31.8691H53.375Z" fill="#CB1B5B"/>
</svg>
