<svg width="14" height="14" viewBox="0 0 14 14" fill="none" xmlns="http://www.w3.org/2000/svg">
<g id="location 1">
<g id="Group">
<g id="Group_2">
<path id="Vector" d="M11.187 1.73431C10.0686 0.615919 8.58166 0 7.00004 0C5.41842 0 3.93141 0.615919 2.81304 1.73431C1.69465 2.85272 1.07874 4.33968 1.07874 5.92127C1.07874 9.12083 4.104 11.7821 5.72929 13.2118C5.95515 13.4104 6.15019 13.582 6.30559 13.7272C6.50027 13.909 6.75017 14 7.00001 14C7.2499 14 7.49974 13.909 7.69446 13.7272C7.84985 13.582 8.0449 13.4104 8.27076 13.2118C9.89605 11.782 12.9213 9.12083 12.9213 5.92127C12.9213 4.33968 12.3054 2.85272 11.187 1.73431ZM7.72908 12.596C7.49827 12.7991 7.29896 12.9744 7.13462 13.1279C7.05913 13.1984 6.94089 13.1984 6.86537 13.1279C6.70106 12.9744 6.50172 12.799 6.27091 12.596C4.74294 11.2519 1.89878 8.74999 1.89878 5.9213C1.89878 3.1085 4.18715 0.820123 6.99998 0.820123C9.81278 0.820123 12.1012 3.1085 12.1012 5.9213C12.1012 8.74999 9.25705 11.2519 7.72908 12.596Z" fill="white"/>
</g>
</g>
<g id="Group_3">
<g id="Group_4">
<path id="Vector_2" d="M7.00007 3.08815C5.56121 3.08815 4.39062 4.25871 4.39062 5.69757C4.39062 7.13643 5.56121 8.30699 7.00007 8.30699C8.43893 8.30699 9.60949 7.13643 9.60949 5.69757C9.60949 4.25871 8.43893 3.08815 7.00007 3.08815ZM7.00007 7.48687C6.01343 7.48687 5.21072 6.68417 5.21072 5.69755C5.21072 4.71093 6.01343 3.90822 7.00007 3.90822C7.98672 3.90822 8.7894 4.71093 8.7894 5.69755C8.7894 6.68417 7.98672 7.48687 7.00007 7.48687Z" fill="white"/>
</g>
</g>
</g>
</svg>
