<svg width="42" height="42" viewBox="0 0 42 42" fill="none" xmlns="http://www.w3.org/2000/svg">
<path d="M14.1269 41.3786H14.3887C23.3333 41.3786 27.6444 37.8531 28.3898 29.9562C28.4703 29.1302 27.866 28.3848 27.0199 28.3042C26.2141 28.2237 25.4485 28.8482 25.368 29.6741C24.7837 35.9998 21.8022 38.3568 14.3686 38.3568H14.1067C5.90756 38.3568 3.00663 35.4558 3.00663 27.2567V14.1219C3.00663 5.92273 5.90756 3.0218 14.1067 3.0218H14.3686C21.8425 3.0218 24.824 5.4191 25.368 11.8656C25.4687 12.6916 26.1738 13.3161 27.0199 13.2355C27.866 13.1751 28.4703 12.4297 28.4099 11.6037C27.725 3.58587 23.3937 0 14.3887 0H14.1269C4.2355 0 0.00497627 4.23052 0.00497627 14.1219V27.2567C0.00497627 37.148 4.2355 41.3786 14.1269 41.3786Z" fill="#CB1B5B"/>
<path d="M14.6107 22.1995H37.536C38.3619 22.1995 39.0469 21.5146 39.0469 20.6886C39.0469 19.8627 38.3619 19.1777 37.536 19.1777H14.6107C13.7847 19.1777 13.0998 19.8627 13.0998 20.6886C13.0998 21.5146 13.7847 22.1995 14.6107 22.1995Z" fill="#CB1B5B"/>
<path d="M33.0423 28.9497C33.4251 28.9497 33.8078 28.8087 34.11 28.5065L40.8587 21.7578C41.4429 21.1736 41.4429 20.2066 40.8587 19.6224L34.11 12.8737C33.5258 12.2895 32.5588 12.2895 31.9746 12.8737C31.3904 13.4579 31.3904 14.4249 31.9746 15.0091L37.6556 20.6901L31.9746 26.3711C31.3904 26.9553 31.3904 27.9223 31.9746 28.5065C32.2567 28.8087 32.6596 28.9497 33.0423 28.9497Z" fill="#CB1B5B"/>
</svg>
