<svg width="40" height="40" viewBox="0 0 40 40" fill="none" xmlns="http://www.w3.org/2000/svg">
<rect width="40" height="40" rx="20" fill="white"/>
<path d="M26.4372 12.2601C26.4372 11.932 26.1712 11.666 25.8431 11.666C25.515 11.666 25.2491 11.932 25.2491 12.2601V13.6487C24.1478 12.7408 22.8229 12.1285 21.3999 11.8835C19.4896 11.5547 17.5246 11.9089 15.8494 12.884C14.1742 13.8591 12.8957 15.3928 12.2382 17.2163C11.5807 19.0397 11.5862 21.0364 12.2536 22.8562C12.3666 23.1642 12.7078 23.3224 13.0159 23.2094C13.3239 23.0964 13.482 22.7551 13.3691 22.4471C12.7977 20.8893 12.7931 19.1802 13.3559 17.6193C13.9187 16.0584 15.0131 14.7455 16.4471 13.9108C17.8811 13.0762 19.5631 12.7729 21.1983 13.0544C22.3671 13.2556 23.4585 13.7463 24.3777 14.4721H23.2923C22.9642 14.4721 22.6983 14.7381 22.6983 15.0662C22.6983 15.3943 22.9642 15.6602 23.2923 15.6602H25.6451C26.0825 15.6602 26.4372 15.3056 26.4372 14.8682V12.2601Z" fill="#CB1B5B"/>
<path d="M13.5632 27.7739C13.5632 28.102 13.8292 28.368 14.1573 28.368C14.4854 28.368 14.7514 28.102 14.7514 27.7739V26.3815C15.8525 27.2894 17.1775 27.9017 18.6005 28.1467C20.5108 28.4755 22.4758 28.1213 24.151 27.1462C25.8262 26.1711 27.1047 24.6373 27.7622 22.8139C28.4197 20.9905 28.4142 18.9938 27.7468 17.174C27.6338 16.8659 27.2926 16.7078 26.9845 16.8208C26.6765 16.9338 26.5184 17.275 26.6314 17.5831C27.2027 19.1408 27.2073 20.85 26.6445 22.4109C26.0817 23.9717 24.9873 25.2846 23.5533 26.1193C22.1193 26.954 20.4373 27.2572 18.8021 26.9758C17.6333 26.7746 16.5419 26.2839 15.6227 25.558H16.9383C17.2664 25.558 17.5323 25.2921 17.5323 24.964C17.5323 24.6359 17.2664 24.3699 16.9383 24.3699H14.3553C13.9178 24.3699 13.5632 24.7246 13.5632 25.162V27.7739Z" fill="#CB1B5B"/>
</svg>
