<svg width="64" height="61" viewBox="0 0 64 61" fill="none" xmlns="http://www.w3.org/2000/svg">
<path d="M13.4724 50.0973C10.2666 50.075 7.06077 49.8134 3.85502 49.3125C1.56977 48.9555 -0.101226 46.9532 0.00477357 44.6427C0.468149 34.5519 2.30427 24.461 5.51302 14.3702C6.53102 11.1688 9.50302 8.99316 12.8623 8.99316H15.6424C18.9078 8.99316 21.8296 11.0469 22.9099 14.1284C25.4355 21.3334 26.621 28.3674 27.2354 35.0939C27.9741 43.1802 21.592 50.1537 13.4724 50.0973Z" fill="#DD636E"/>
<path d="M27.2363 35.0939C26.6218 28.3674 25.4365 21.3334 22.9108 14.1284C21.8306 11.0468 18.9088 8.99316 15.6433 8.99316H12.8632C12.8543 8.99316 12.8455 8.99366 12.8366 8.99379C16.091 9.00529 18.9995 11.0555 20.0767 14.1285C22.6023 21.3334 23.7878 28.3675 24.4022 35.094C25.1065 42.8037 19.3377 49.5017 11.7617 50.06C12.3322 50.0792 12.9027 50.0934 13.4732 50.0974C21.5928 50.1537 27.975 43.1802 27.2363 35.0939Z" fill="#DA4A54"/>
<path d="M50.5284 50.0973C53.7341 50.075 56.94 49.8134 60.1458 49.3125C62.431 48.9555 64.102 46.9532 63.996 44.6427C63.5326 34.5519 61.6965 24.461 58.4878 14.3702C57.4698 11.1688 54.4978 8.99316 51.1385 8.99316H48.3583C45.0929 8.99316 42.171 11.0469 41.0908 14.1284C38.5651 21.3334 37.3796 28.3674 36.7653 35.0939C36.0266 43.1802 42.4088 50.1537 50.5284 50.0973Z" fill="#DD636E"/>
<path d="M63.9954 44.6428C63.532 34.552 61.6959 24.4612 58.487 14.3703C57.469 11.1689 54.497 8.99316 51.1378 8.99316H48.3576C48.3321 8.99316 48.3067 8.99441 48.2812 8.99466C51.6099 9.02654 54.5458 11.1925 55.5563 14.3702C58.7651 24.4609 60.6013 34.5518 61.0645 44.6427C61.1706 46.9533 59.4996 48.9555 57.2143 49.3125C54.6015 49.7208 51.9888 49.9673 49.3759 50.0575C49.7555 50.0863 50.1395 50.0999 50.5276 50.0973C53.7334 50.075 56.9393 49.8134 60.145 49.3125C62.4304 48.9557 64.1015 46.9534 63.9954 44.6428Z" fill="#DA4A54"/>
<path d="M44.4543 22.6236C44.3399 22.6236 44.2235 22.6031 44.1102 22.5599C43.6118 22.3698 43.3619 21.8117 43.5519 21.3133C43.9083 20.3787 45.242 18.7652 47.7369 19.3486C48.6547 19.5628 49.5897 18.1639 49.8443 17.6567C50.0832 17.1809 50.6625 16.9871 51.1388 17.2243C51.6153 17.4617 51.8103 18.0384 51.5744 18.5156C50.9629 19.7521 49.3738 21.7164 47.2973 21.2293C46.6383 21.0754 46.1303 21.1637 45.7429 21.4991C45.4788 21.7276 45.3577 21.9992 45.3567 22.0017C45.2099 22.3868 44.8433 22.6236 44.4543 22.6236Z" fill="#D82E3D"/>
<path d="M46.5664 21.1456C46.3437 21.1456 46.12 21.0689 45.9378 20.9126C45.5332 20.5649 45.4867 19.9553 45.8342 19.5507C46.0915 19.2509 45.5748 18.5857 45.5693 18.5791C45.2234 18.1729 45.2749 17.5661 45.6809 17.2204C46.0873 16.8747 46.699 16.9264 47.0447 17.3326C47.6025 17.9879 48.3738 19.5579 47.2995 20.8089C47.1087 21.0314 46.8383 21.1456 46.5664 21.1456Z" fill="#D82E3D"/>
<path d="M50.7095 39.9605C50.3538 39.9605 50.0117 39.7632 49.8431 39.4226C49.5897 38.918 48.6553 37.5193 47.7369 37.7332C45.2044 38.3256 43.8798 36.4205 43.5338 35.3302C43.3724 34.8218 43.6538 34.279 44.1622 34.1176C44.6683 33.9575 45.2083 34.235 45.3724 34.7386C45.3797 34.7595 45.5242 35.1663 45.8509 35.4963C46.2314 35.881 46.6909 35.9937 47.2972 35.8525C49.3735 35.3667 50.9627 37.33 51.5743 38.5662C51.8107 39.0443 51.6149 39.6236 51.1368 39.8601C50.9994 39.9282 50.8533 39.9605 50.7095 39.9605Z" fill="#D82E3D"/>
<path d="M46.3094 39.9604C46.0709 39.9604 45.8319 39.8727 45.6452 39.6956C45.26 39.3306 45.2418 38.7236 45.603 38.3362C45.6214 38.3153 46.0674 37.8029 45.8343 37.5314C45.4868 37.1268 45.5333 36.5171 45.9379 36.1696C46.3428 35.8219 46.9524 35.8687 47.2998 36.2732C47.871 36.9386 47.9944 37.8142 47.6383 38.6757C47.4143 39.2173 47.076 39.5898 47.0104 39.6589C46.8207 39.8593 46.5652 39.9604 46.3094 39.9604Z" fill="#D82E3D"/>
<path d="M49.982 30.0684C49.6467 30.0684 49.3209 29.8937 49.1426 29.5817C48.7319 28.8632 47.1727 29.1917 47.1574 29.1953C46.6397 29.3164 46.1191 28.9971 45.9955 28.4798C45.872 27.9626 46.1877 27.4432 46.7045 27.3176C47.8035 27.0506 49.906 27.0246 50.8197 28.6234C51.0844 29.0864 50.9235 29.6766 50.4604 29.9411C50.3091 30.0274 50.1445 30.0684 49.982 30.0684Z" fill="#D82E3D"/>
<path d="M19.5406 22.6236C19.655 22.6236 19.7713 22.6031 19.8847 22.5599C20.3831 22.3698 20.633 21.8117 20.443 21.3133C20.0866 20.3787 18.7528 18.7652 16.258 19.3486C15.3402 19.5628 14.4052 18.1639 14.1506 17.6567C13.9117 17.1809 13.3323 16.9871 12.8561 17.2243C12.3796 17.4617 12.1846 18.0384 12.4205 18.5156C13.032 19.7521 14.6211 21.7164 16.6976 21.2293C17.3566 21.0754 17.8646 21.1637 18.252 21.4991C18.5161 21.7276 18.6373 21.9992 18.6382 22.0017C18.785 22.3868 19.1516 22.6236 19.5406 22.6236Z" fill="#D82E3D"/>
<path d="M17.4282 21.1456C17.6509 21.1456 17.8746 21.0689 18.0568 20.9126C18.4614 20.5649 18.5079 19.9553 18.1604 19.5507C17.9031 19.2509 18.4198 18.5857 18.4253 18.5791C18.7712 18.1729 18.7197 17.5661 18.3137 17.2204C17.9073 16.8747 17.2956 16.9264 16.9499 17.3326C16.3921 17.9879 15.6208 19.5579 16.6951 20.8089C16.8859 21.0314 17.1562 21.1456 17.4282 21.1456Z" fill="#D82E3D"/>
<path d="M13.2853 39.9605C13.6411 39.9605 13.9833 39.7632 14.1518 39.4226C14.4052 38.918 15.3396 37.5193 16.258 37.7332C18.7905 38.3256 20.1151 36.4205 20.4611 35.3302C20.6225 34.8218 20.3411 34.279 19.8327 34.1176C19.3266 33.9575 18.7866 34.235 18.6225 34.7386C18.6152 34.7595 18.4707 35.1663 18.144 35.4963C17.7635 35.881 17.304 35.9937 16.6977 35.8525C14.6213 35.3667 13.0322 37.33 12.4206 38.5662C12.1842 39.0443 12.38 39.6236 12.8581 39.8601C12.9955 39.9282 13.1416 39.9605 13.2853 39.9605Z" fill="#D82E3D"/>
<path d="M17.6851 39.9604C17.9236 39.9604 18.1626 39.8727 18.3494 39.6956C18.7345 39.3306 18.7528 38.7236 18.3915 38.3362C18.3731 38.3153 17.9271 37.8029 18.1603 37.5314C18.5078 37.1268 18.4613 36.5171 18.0566 36.1696C17.6518 35.8219 17.0421 35.8687 16.6948 36.2732C16.1235 36.9386 16.0001 37.8142 16.3563 38.6757C16.5803 39.2173 16.9185 39.5898 16.9841 39.6589C17.1739 39.8593 17.4294 39.9604 17.6851 39.9604Z" fill="#D82E3D"/>
<path d="M14.012 30.0684C14.3473 30.0684 14.6732 29.8937 14.8514 29.5817C15.2622 28.8632 16.8213 29.1917 16.8367 29.1953C17.3543 29.3164 17.8749 28.9971 17.9985 28.4798C18.122 27.9626 17.8063 27.4432 17.2895 27.3176C16.1905 27.0506 14.088 27.0246 13.1743 28.6234C12.9097 29.0864 13.0705 29.6766 13.5337 29.9411C13.6849 30.0274 13.8495 30.0684 14.012 30.0684Z" fill="#D82E3D"/>
<path d="M43.5093 27.2374L36.5218 22.2369C35.0743 21.201 34.2154 19.5303 34.2154 17.7502V0.428C34.2154 0.191625 34.0238 0 33.7874 0H30.2138C29.9774 0 29.7858 0.191625 29.7858 0.428V17.7502C29.7858 19.5303 28.9269 21.201 27.4794 22.2369L20.4919 27.2374C20.0474 27.5555 19.945 28.1736 20.263 28.618L21.5908 30.4734C21.9089 30.9179 22.527 31.0203 22.9714 30.7022L28.7895 26.5385C30.7095 25.1644 33.2911 25.1644 35.2113 26.5385L41.0294 30.7022C41.4739 31.0204 42.092 30.9179 42.41 30.4734L43.7378 28.618C44.0561 28.1736 43.9538 27.5555 43.5093 27.2374Z" fill="#D82E3D"/>
<path d="M39.4086 60.6757C44.8206 60.6757 49.2079 56.2884 49.2079 50.8764C49.2079 45.4644 44.8206 41.0771 39.4086 41.0771C33.9967 41.0771 29.6094 45.4644 29.6094 50.8764C29.6094 56.2884 33.9967 60.6757 39.4086 60.6757Z" fill="#B3E59F"/>
<path d="M39.4065 41.0771C38.8402 41.0771 38.2861 41.1279 37.7461 41.22C42.3668 42.0091 45.885 46.0306 45.885 50.8764C45.885 55.7221 42.3668 59.7436 37.7461 60.5328C38.2861 60.625 38.8402 60.6756 39.4065 60.6756C44.8185 60.6756 49.2057 56.2884 49.2057 50.8764C49.2057 45.4644 44.8183 41.0771 39.4065 41.0771Z" fill="#95D6A4"/>
<path d="M44.5964 48.6804H42.1745C41.8588 48.6804 41.6029 48.4245 41.6029 48.1087V45.6869C41.6029 45.3711 41.347 45.1152 41.0313 45.1152H37.7813C37.4657 45.1152 37.2097 45.3711 37.2097 45.6869V48.1087C37.2097 48.4245 36.9538 48.6804 36.638 48.6804H34.2162C33.9005 48.6804 33.6445 48.9362 33.6445 49.252V52.502C33.6445 52.8177 33.9004 53.0736 34.2162 53.0736H36.638C36.9537 53.0736 37.2097 53.3295 37.2097 53.6452V56.0671C37.2097 56.3827 37.4655 56.6387 37.7813 56.6387H41.0313C41.3469 56.6387 41.6029 56.3829 41.6029 56.0671V53.6452C41.6029 53.3296 41.8588 53.0736 42.1745 53.0736H44.5964C44.9122 53.0736 45.168 52.8177 45.168 52.502V49.252C45.168 48.9362 44.9122 48.6804 44.5964 48.6804Z" fill="#F6F6F6"/>
</svg>
