<svg width="24" height="24" viewBox="0 0 24 24" fill="none" xmlns="http://www.w3.org/2000/svg">
<g id="magnifying-glass 1">
<g id="_x32_-Magnifying_Glass">
<path id="Vector" d="M20.1425 18.73L16.8994 15.4869C17.8822 14.2002 18.4213 12.6395 18.4215 10.9927C18.4215 9.00806 17.6486 7.14209 16.245 5.73877C14.8417 4.33545 12.976 3.5625 10.9911 3.5625C9.00647 3.5625 7.1405 4.33545 5.73718 5.73877C2.84021 8.63599 2.84021 13.3499 5.73718 16.2466C7.1405 17.6501 9.00647 18.4231 10.9911 18.4231C12.6379 18.4229 14.1986 17.8838 15.4853 16.9009L18.7284 20.144C18.9235 20.3394 19.1796 20.437 19.4354 20.437C19.6913 20.437 19.9474 20.3394 20.1425 20.144C20.5331 19.7537 20.5331 19.1204 20.1425 18.73ZM7.15125 14.8325C5.03406 12.7153 5.0343 9.27026 7.15125 7.15283C8.17688 6.12744 9.54065 5.5625 10.9911 5.5625C12.4418 5.5625 13.8053 6.12744 14.8309 7.15283C15.8566 8.17847 16.4215 9.54224 16.4215 10.9927C16.4215 12.4434 15.8566 13.8069 14.8309 14.8325C13.8053 15.8582 12.4418 16.4231 10.9911 16.4231C9.54065 16.4231 8.17688 15.8582 7.15125 14.8325Z" fill="black"/>
</g>
</g>
</svg>
