<svg width="64" height="64" viewBox="0 0 64 64" fill="none" xmlns="http://www.w3.org/2000/svg">
<g clip-path="url(#clip0_11431_98972)">
<path d="M63.9655 2.32292C63.9362 2.0931 63.8854 1.87174 63.8014 1.66406C63.7988 1.65885 63.7988 1.65169 63.7975 1.64518C63.7975 1.64388 63.7962 1.64258 63.7949 1.64128C63.7025 1.42253 63.5762 1.22396 63.4336 1.03971C63.3984 0.996094 63.3639 0.953125 63.3268 0.912109C63.1745 0.740234 63.0091 0.58138 62.8171 0.451823C62.8119 0.447917 62.8053 0.446615 62.8001 0.442708C62.6146 0.320312 62.4095 0.227865 62.1947 0.154948C62.1413 0.136068 62.0892 0.119792 62.0345 0.105469C61.8092 0.0442708 61.5775 0 61.3333 0H42.6667C41.1947 0 40 1.19466 40 2.66667C40 4.13867 41.1947 5.33333 42.6667 5.33333H54.8945L38.9785 21.2493C34.7344 17.8548 29.5091 16 24 16C10.7669 16 0 26.7669 0 40C0 53.2331 10.7669 64 24 64C37.2331 64 48 53.2331 48 40C48 34.4935 46.1465 29.2695 42.7494 25.0215L58.6667 9.10417V21.3333C58.6667 22.8053 59.8613 24 61.3333 24C62.8053 24 64 22.8053 64 21.3333V2.66667C64 2.61068 63.987 2.55729 63.9837 2.5026C63.9798 2.44141 63.9733 2.38281 63.9655 2.32292ZM24 58.6667C13.7064 58.6667 5.33333 50.2936 5.33333 40C5.33333 29.7064 13.7064 21.3333 24 21.3333C28.9837 21.3333 33.6758 23.2734 37.2038 26.7891C40.7266 30.3242 42.6667 35.0163 42.6667 40C42.6667 50.2936 34.2936 58.6667 24 58.6667Z" fill="#D82E3D"/>
</g>
<defs>
<clipPath id="clip0_11431_98972">
<rect width="64" height="64" fill="white"/>
</clipPath>
</defs>
</svg>
