<svg width="24" height="24" viewBox="0 0 24 24" fill="none" xmlns="http://www.w3.org/2000/svg">
<path fill-rule="evenodd" clip-rule="evenodd" d="M18.716 11.4392C20.2781 9.87716 20.2781 7.3445 18.716 5.78241C17.1539 4.22031 14.6212 4.22031 13.0591 5.78241L5.28094 13.5606C3.71885 15.1227 3.71885 17.6553 5.28094 19.2174C6.84304 20.7795 9.3757 20.7795 10.9378 19.2174L18.716 11.4392ZM19.4231 12.1463C21.3757 10.1937 21.3757 7.02792 19.4231 5.0753C17.4704 3.12268 14.3046 3.12268 12.352 5.0753L4.57384 12.8535C2.62122 14.8061 2.62122 17.9719 4.57384 19.9245C6.52646 21.8771 9.69228 21.8771 11.6449 19.9245L19.4231 12.1463Z" fill="black"/>
<path fill-rule="evenodd" clip-rule="evenodd" d="M14.8249 16.0354L8.46094 9.67146L9.16804 8.96436L15.532 15.3283L14.8249 16.0354Z" fill="black"/>
<path fill-rule="evenodd" clip-rule="evenodd" d="M17.3051 7.19606C16.8629 6.75384 15.4198 6.25303 13.4161 8.2568C13.2208 8.45206 12.9042 8.45206 12.709 8.2568C12.5137 8.06154 12.5137 7.74496 12.709 7.54969C14.9478 5.31082 17.0403 5.5171 18.0122 6.48895C18.2074 6.68422 18.2074 7.0008 18.0122 7.19606C17.8169 7.39132 17.5003 7.39132 17.3051 7.19606Z" fill="#CB1B5B"/>
</svg>
