<svg width="64" height="64" viewBox="0 0 64 64" fill="none" xmlns="http://www.w3.org/2000/svg">
<path d="M59.1172 23.8861C59.9543 21.4094 58.6251 18.7231 56.1484 17.886C55.7772 17.7605 55.4013 17.6858 55.0276 17.6542C55.6659 13.8891 53.2207 10.2605 49.4504 9.468C47.1112 8.97633 44.7994 9.68955 43.1586 11.186C43.0309 11.3025 42.8919 10.7702 42.8919 10.7702C41.2775 8.94628 38.6087 8.29153 36.2661 9.33605C33.375 10.6252 32.0763 14.0139 33.3654 16.9049L33.2914 55.065C34.3472 56.0739 35.9442 56.4118 37.3691 55.796C38.7292 55.2081 39.5634 53.9106 39.6265 52.5238C39.9478 52.5687 40.2796 52.5744 40.6169 52.5311C42.5854 52.2783 43.9951 50.5289 43.8502 48.573C46.0328 48.5355 48.071 47.1823 48.8742 45.0118C49.3523 43.7197 49.3093 42.3627 48.8525 41.1699C49.5042 41.4685 50.2436 41.5966 51.007 41.4986C53.1813 41.2193 54.7176 39.2304 54.4383 37.0561C54.3193 36.1291 53.8889 35.3188 53.2664 34.715C56.0996 34.6793 58.5118 32.5166 58.7929 29.6312C58.9276 28.2478 58.5495 26.9328 57.814 25.8744C58.3921 25.3506 58.8497 24.6777 59.1172 23.8861Z" fill="#DD636E"/>
<path d="M30.2615 15.669C27.9004 11.8251 23.658 9.26074 18.8169 9.26074C11.404 9.26074 5.39393 15.2702 5.39393 22.6838C5.39393 22.6838 4.26476 37.8014 30.2615 55.0394V15.669Z" fill="#D82E3D"/>
<path d="M44.671 43.0368H43.296C43.296 41.1356 41.7492 39.5889 39.848 39.5889H33.3398V38.2139H39.848C42.5074 38.2139 44.671 40.3775 44.671 43.0368Z" fill="#D82E3D"/>
<path d="M36.3711 18.8496H40.8128V20.2246H36.3711V18.8496Z" fill="#D82E3D"/>
<path d="M42.6758 20.2243V18.8493C44.577 18.8493 46.1238 17.3026 46.1238 15.4014H47.4988C47.4988 18.0607 45.3352 20.2243 42.6758 20.2243Z" fill="#D82E3D"/>
<path d="M52.2073 29.7458H50.8323C50.8323 27.8446 49.2855 26.2979 47.3842 26.2979H33.3398V24.9229H47.3842C50.0437 24.9229 52.2073 27.0865 52.2073 29.7458Z" fill="#D82E3D"/>
<path d="M44.9102 37.4425C42.6012 37.4425 40.7227 35.564 40.7227 33.255C40.7227 30.9459 42.6012 29.0674 44.9102 29.0674V30.4424C43.3594 30.4424 42.0977 31.7041 42.0977 33.255C42.0977 34.8059 43.3594 36.0675 44.9102 36.0675V37.4425Z" fill="#D82E3D"/>
<path d="M53.1641 34.6588C52.9815 34.6588 52.797 34.6499 52.6115 34.6318C50.2902 34.4057 48.4359 32.8004 47.7811 30.7061L46.4688 31.1164C47.3109 33.8097 49.6697 35.7268 52.4782 36.0003C52.7057 36.0225 52.9365 36.0337 53.1641 36.0337C53.49 36.0337 53.8136 36.011 54.1327 35.9663C53.924 35.4914 53.6289 35.0673 53.2658 34.7151L53.1641 34.6588Z" fill="#D82E3D"/>
<path d="M56.4996 22.8682L55.8438 24.0767C56.642 24.5099 57.3178 25.129 57.8205 25.87C58.1693 25.5529 58.4733 25.1809 58.7187 24.7619C58.1319 23.9976 57.3831 23.3476 56.4996 22.8682Z" fill="#D82E3D"/>
<path d="M43.8508 48.5743C43.8198 48.5749 43.7889 48.5761 43.7578 48.5761C43.129 48.5761 42.4893 48.4665 41.8651 48.2356C39.7459 47.4513 38.4043 45.49 38.3072 43.3662L36.9336 43.4291C37.0594 46.1775 38.8078 48.5703 41.388 49.5251C42.1314 49.8002 42.9067 49.9422 43.693 49.9497C43.8283 49.5159 43.8861 49.0514 43.8508 48.5743Z" fill="#D82E3D"/>
<path d="M48.4379 38.1396L47.4961 39.1414C48.1008 39.7099 48.5624 40.4066 48.8548 41.1704C48.8548 41.1703 48.8549 41.1704 48.8548 41.1704C49.3329 41.3894 49.8582 41.5154 50.4054 41.529C50.1018 40.259 49.4337 39.0758 48.4379 38.1396Z" fill="#D82E3D"/>
<path d="M40.5864 50.3242L39.3242 50.8697C39.5575 51.4095 39.6536 51.9739 39.6285 52.5243C39.9497 52.5692 40.2816 52.5749 40.6189 52.5316C40.751 52.5146 40.8804 52.4903 41.0072 52.4603C41.0223 51.7355 40.8826 51.0095 40.5864 50.3242Z" fill="#D82E3D"/>
<path d="M39.6406 14.711L40.9862 14.9938C41.3103 13.452 42.1097 12.1326 43.1978 11.1539C43.1917 11.1593 43.1853 11.1642 43.1792 11.1697C43.0905 11.0194 42.8943 10.7704 42.8943 10.7704C42.6964 10.5467 42.4823 10.3409 42.2552 10.1533C40.9322 11.3542 40.01 12.9537 39.6406 14.711Z" fill="#D82E3D"/>
<path d="M55.027 17.6544C55.027 17.6544 55.027 17.6544 55.027 17.6544C55.0112 17.7478 54.9951 17.8412 54.9754 17.9348C54.4564 20.4041 52.721 22.3057 50.5273 23.1447L51.0185 24.4289C53.7401 23.388 55.7223 21.066 56.321 18.2176C56.3386 18.134 56.3524 18.0503 56.3674 17.9666C56.2953 17.9382 56.2221 17.9112 56.1479 17.8861C55.7766 17.7606 55.4008 17.6859 55.027 17.6544Z" fill="#D82E3D"/>
</svg>
