<svg width="64" height="64" viewBox="0 0 64 64" fill="none" xmlns="http://www.w3.org/2000/svg">
<g clip-path="url(#clip0_11527_94893)">
<path d="M29.1994 3.47173e-05C31.59 10.7767 33.9808 21.5533 36.3714 32.3299C33.9808 42.8867 31.59 53.4434 29.1994 64H9.49064C8.87189 64 8.29314 63.695 7.94314 63.185C7.59439 62.675 7.51814 62.025 7.74189 61.4475C9.87489 55.9419 11.0111 45.6587 7.19064 38.7038C7.01402 38.3823 7.02439 38.4305 6.79314 38.0125C6.41377 37.3267 3.57264 32.0539 3.59189 25.4113C3.62177 15.0908 10.5373 8.01878 11.1456 7.41503C18.4626 0.15466 27.482 -0.00284028 29.1994 3.47173e-05Z" fill="#FBCDBE"/>
<path d="M60.1855 38.5875C59.7817 39.8913 58.8492 40.9863 57.6255 41.5913L55.638 42.5737L55.6555 49.2412C55.6561 49.6576 55.5911 53.7803 52.078 56.3413C49.5381 58.1928 46.489 58.2855 44.4167 57.6463C44.2941 57.6084 44.1937 57.5739 44.1267 57.55L38.523 55.595C36.2567 58.0813 35.8655 62.2388 35.8605 62.285C35.7755 63.2525 34.9642 64 33.993 64H29.1992V0C43.3192 0 54.8067 11.4875 54.8067 25.6075C54.8067 25.6737 54.8067 25.7412 54.8055 25.81L59.7705 34.6625C60.438 35.8537 60.5892 37.2838 60.1855 38.5875Z" fill="#FDBBAB"/>
<path d="M29.1987 12.3536C30.1324 15.5025 31.0662 18.6512 31.9999 21.8001C31.0662 25.4609 30.1324 29.1216 29.1987 32.7824H29.1849C28.7049 32.7824 28.2249 32.5986 27.8599 32.2324C24.9041 29.2677 21.9483 26.3032 18.9924 23.3386C18.4956 22.799 16.8022 20.8305 16.7949 18.0336C16.7912 16.6032 17.2298 15.481 17.3612 15.1635C17.7334 14.264 18.2831 13.4379 18.9924 12.7286C21.7862 9.93486 26.2549 9.80986 29.1987 12.3536Z" fill="white"/>
<path d="M41.603 18.0336C41.603 20.0374 40.8217 21.9224 39.4055 23.3386C36.4496 26.3032 33.4938 29.2677 30.538 32.2324C30.1717 32.5986 29.6917 32.7824 29.2117 32.7824H29.1992V12.3536C32.143 9.80986 36.6105 9.93486 39.4055 12.7286C40.8217 14.1461 41.603 16.0299 41.603 18.0336Z" fill="#CB1B5B"/>
</g>
<defs>
<clipPath id="clip0_11527_94893">
<rect width="64" height="64" fill="white"/>
</clipPath>
</defs>
</svg>
