<svg width="40" height="40" viewBox="0 0 40 40" fill="none" xmlns="http://www.w3.org/2000/svg">
<rect width="40" height="40" rx="10" fill="#FFF9FB"/>
<path d="M17.8824 17.2227H16.4706C16.2834 17.2227 16.1038 17.1505 15.9715 17.022C15.8391 16.8935 15.7647 16.7192 15.7647 16.5375C15.7647 16.3558 15.8391 16.1815 15.9715 16.053C16.1038 15.9245 16.2834 15.8523 16.4706 15.8523H17.8824V14.4818C17.8824 14.3001 17.9567 14.1258 18.0891 13.9973C18.2215 13.8688 18.401 13.7966 18.5882 13.7966C18.7754 13.7966 18.955 13.8688 19.0874 13.9973C19.2197 14.1258 19.2941 14.3001 19.2941 14.4818V15.8523H20.7059C20.8931 15.8523 21.0726 15.9245 21.205 16.053C21.3374 16.1815 21.4118 16.3558 21.4118 16.5375C21.4118 16.7192 21.3374 16.8935 21.205 17.022C21.0726 17.1505 20.8931 17.2227 20.7059 17.2227H19.2941V18.5932C19.2941 18.7749 19.2197 18.9492 19.0874 19.0777C18.955 19.2062 18.7754 19.2784 18.5882 19.2784C18.401 19.2784 18.2215 19.2062 18.0891 19.0777C17.9567 18.9492 17.8824 18.7749 17.8824 18.5932V17.2227ZM32 22.7045V26.8159C32 27.5428 31.7025 28.24 31.173 28.754C30.6435 29.268 29.9253 29.5568 29.1765 29.5568H27.7647V30.9725C27.7644 31.1581 27.7124 31.3402 27.6141 31.4995C27.5159 31.6588 27.3751 31.7893 27.2067 31.8772C27.0382 31.9652 26.8484 32.0072 26.6574 31.999C26.4663 31.9907 26.2811 31.9325 26.1214 31.8304L22.6104 29.5568H20.7059C19.957 29.5568 19.2389 29.268 18.7093 28.754C18.1798 28.24 17.8824 27.5428 17.8824 26.8159V25.0439L15.4541 27.4011C15.3063 27.5444 15.1181 27.6421 14.9132 27.6818C14.7084 27.7215 14.4959 27.7015 14.3028 27.6243C14.1096 27.5471 13.9442 27.4161 13.8276 27.2479C13.7109 27.0796 13.6481 26.8817 13.6471 26.6789V24.075H10.8235C10.0747 24.075 9.35651 23.7862 8.82699 23.2722C8.29748 22.7582 8 22.061 8 21.3341V11.7409C8 11.014 8.29748 10.3168 8.82699 9.80279C9.35651 9.28877 10.0747 9 10.8235 9H26.3529C27.1018 9 27.82 9.28877 28.3495 9.80279C28.879 10.3168 29.1765 11.014 29.1765 11.7409V19.9636C29.9253 19.9636 30.6435 20.2524 31.173 20.7664C31.7025 21.2804 32 21.9776 32 22.7045ZM17.8824 23.1061V22.7045C17.8824 21.9776 18.1798 21.2804 18.7093 20.7664C19.2389 20.2524 19.957 19.9636 20.7059 19.9636H27.7647V11.7409C27.7647 11.3774 27.616 11.0289 27.3512 10.7719C27.0865 10.5148 26.7274 10.3705 26.3529 10.3705H10.8235C10.4491 10.3705 10.09 10.5148 9.82526 10.7719C9.5605 11.0289 9.41176 11.3774 9.41176 11.7409V21.3341C9.41176 21.6976 9.5605 22.0461 9.82526 22.3031C10.09 22.5602 10.4491 22.7045 10.8235 22.7045H14.3529C14.5402 22.7045 14.7197 22.7767 14.8521 22.9052C14.9845 23.0337 15.0588 23.208 15.0588 23.3898V25.847L17.8824 23.1061ZM30.5882 22.7045C30.5882 22.3411 30.4395 21.9925 30.1747 21.7355C29.91 21.4785 29.5509 21.3341 29.1765 21.3341H20.7059C20.3315 21.3341 19.9724 21.4785 19.7076 21.7355C19.4429 21.9925 19.2941 22.3411 19.2941 22.7045V26.8159C19.2941 27.1794 19.4429 27.5279 19.7076 27.785C19.9724 28.042 20.3315 28.1864 20.7059 28.1864H22.8235C22.9627 28.1865 23.0988 28.2265 23.2146 28.3015L26.3529 30.3325V28.8716C26.3529 28.6898 26.4273 28.5156 26.5597 28.3871C26.6921 28.2585 26.8716 28.1864 27.0588 28.1864H29.1765C29.5509 28.1864 29.91 28.042 30.1747 27.785C30.4395 27.5279 30.5882 27.1794 30.5882 26.8159V22.7045ZM28.4706 22.7045H21.4118C21.2246 22.7045 21.045 22.7767 20.9126 22.9052C20.7803 23.0337 20.7059 23.208 20.7059 23.3898C20.7059 23.5715 20.7803 23.7458 20.9126 23.8743C21.045 24.0028 21.2246 24.075 21.4118 24.075H28.4706C28.6578 24.075 28.8373 24.0028 28.9697 23.8743C29.1021 23.7458 29.1765 23.5715 29.1765 23.3898C29.1765 23.208 29.1021 23.0337 28.9697 22.9052C28.8373 22.7767 28.6578 22.7045 28.4706 22.7045ZM25.6471 25.4454H21.4118C21.2246 25.4454 21.045 25.5176 20.9126 25.6461C20.7803 25.7747 20.7059 25.9489 20.7059 26.1307C20.7059 26.3124 20.7803 26.4867 20.9126 26.6152C21.045 26.7437 21.2246 26.8159 21.4118 26.8159H25.6471C25.8343 26.8159 26.0138 26.7437 26.1462 26.6152C26.2786 26.4867 26.3529 26.3124 26.3529 26.1307C26.3529 25.9489 26.2786 25.7747 26.1462 25.6461C26.0138 25.5176 25.8343 25.4454 25.6471 25.4454Z" fill="#CB1B5B"/>
</svg>
