<svg width="44" height="44" viewBox="0 0 44 44" fill="none" xmlns="http://www.w3.org/2000/svg">
<path d="M10.61 18.0778L12.561 16.135C12.8612 15.8329 13.0121 15.4363 13.0121 15.0414C13.0121 14.6464 12.8612 14.2504 12.561 13.9516L7.88461 9.2938C7.58987 9.02055 7.20793 8.8828 6.82438 8.8828C6.42506 8.8828 6.02767 9.03208 5.72873 9.32871L3.77812 11.27C1.61193 13.4272 1.41152 16.9663 2.44498 20.7845C3.6819 25.3547 6.67018 30.2702 10.2303 33.8146C13.7904 37.3589 18.728 40.3338 23.3187 41.5653C27.1539 42.5942 30.7088 42.3946 32.8757 40.2381L34.8234 38.2984C35.123 37.997 35.2736 37.6014 35.2736 37.2054C35.2736 36.8079 35.1236 36.4119 34.8256 36.114L30.1821 31.4944C29.8819 31.1955 29.4842 31.0452 29.0875 31.0452C28.6907 31.0452 28.2927 31.1955 27.9925 31.4944L26.0416 33.4366C24.6473 34.8247 22.5252 34.9983 20.2979 34.4012C17.9418 33.7692 15.4179 32.2527 13.6089 30.4521C11.9154 28.7661 10.4738 26.4599 9.7766 24.2506C9.0259 21.872 9.12179 19.5614 10.6106 18.0786L10.61 18.0778ZM34.4877 8.05901C35.3469 8.05901 36.0432 8.75223 36.0432 9.60756C36.0432 10.4629 35.3469 11.1561 34.4877 11.1561C33.6289 11.1561 32.9326 10.4629 32.9326 9.60756C32.9326 8.75222 33.6289 8.05901 34.4877 8.05901ZM30.194 8.05901C31.0531 8.05901 31.7495 8.75223 31.7495 9.60756C31.7495 10.4629 31.0531 11.1561 30.194 11.1561C29.3348 11.1561 28.6385 10.4629 28.6385 9.60756C28.6385 8.75222 29.3348 8.05901 30.194 8.05901ZM25.8996 8.05901C26.7588 8.05901 27.4551 8.75223 27.4551 9.60756C27.4551 10.4629 26.7587 11.1561 25.8996 11.1561C25.0404 11.1561 24.3441 10.4629 24.3441 9.60756C24.3441 8.75222 25.0404 8.05901 25.8996 8.05901ZM20.9128 0.000492086H39.4749C40.7191 0.000492086 41.8515 0.506952 42.6711 1.32286C43.4906 2.13876 44 3.26569 44 4.50482V14.7098C44 15.9453 43.49 17.0726 42.6695 17.8898C41.8515 18.7073 40.7202 19.2144 39.4753 19.2144H27.9446L21.5652 25.5654C21.2051 25.9239 20.6211 25.9239 20.2607 25.5654C20.0808 25.386 19.9904 25.1509 19.9904 24.9161L19.9898 19.1192C19.1136 18.9362 18.3281 18.4996 17.7167 17.8913C16.8972 17.0754 16.3885 15.9484 16.3885 14.7093V4.50433C16.3885 3.26561 16.8978 2.13826 17.7174 1.32237C18.537 0.506477 19.6683 0 20.9129 0L20.9128 0.000492086ZM39.4749 1.83827H20.9128C20.1766 1.83827 19.5066 2.13876 19.0217 2.62151C18.5368 3.10426 18.2343 3.77182 18.2343 4.5048V14.7098C18.2343 15.4427 18.5362 16.1103 19.0211 16.5931C19.506 17.0758 20.1765 17.377 20.9128 17.377C21.4221 17.377 21.8356 17.7886 21.8356 18.2957V22.6991L26.8913 17.6659C27.0596 17.4881 27.2984 17.3769 27.5632 17.3769H39.4752C40.2118 17.3769 40.882 17.0758 41.367 16.593C41.8535 16.1119 42.1543 15.4446 42.1543 14.7097V4.50477C42.1543 3.77183 41.8519 3.10425 41.367 2.62148C40.882 2.13872 40.2115 1.83824 39.4752 1.83824L39.4749 1.83827ZM13.8649 17.4295L11.9149 19.3698C10.9796 20.301 10.9789 21.9424 11.5352 23.7043C12.145 25.6353 13.4153 27.6618 14.9122 29.1517C16.5108 30.7431 18.723 32.078 20.7743 32.628C22.3931 33.0621 23.8726 32.9984 24.7375 32.1376L26.6885 30.1953C27.35 29.5367 28.2201 29.2071 29.0879 29.2071C29.9557 29.2071 30.8255 29.5367 31.4867 30.1953L36.1283 34.8163C36.7892 35.4781 37.12 36.343 37.12 37.2051C37.12 38.069 36.7889 38.9358 36.129 39.5929L34.1775 41.5332C31.4784 44.2199 27.2841 44.529 22.8428 43.3377C17.947 42.0246 12.6977 38.8676 8.92661 35.1132C5.15512 31.3585 1.98439 26.1334 0.665342 21.2589C-0.529078 16.8452 -0.221823 12.676 2.46117 9.9927C3.09925 9.33216 3.80139 8.70109 4.42653 8.03289C5.09131 7.37492 5.95975 7.04561 6.82534 7.04561C7.66802 7.04561 8.51367 7.35762 9.16755 7.98066L13.8664 12.6534C14.528 13.312 14.8591 14.1776 14.8591 15.0416C14.8591 15.9055 14.528 16.7717 13.8655 17.4297L13.8649 17.4295Z" fill="#4D4D4D"/>
</svg>
