<svg width="64" height="64" viewBox="0 0 64 64" fill="none" xmlns="http://www.w3.org/2000/svg">
<path d="M12.25 7.75195L7.75348 12.2485L2.25302 6.74801L6.74954 2.25149L12.25 7.75195Z" fill="url(#paint0_linear_11431_98897)"/>
<path d="M9 57V63H47V61C47 59.9391 46.5786 58.9217 45.8284 58.1716C45.0783 57.4214 44.0609 57 43 57H29C27.9391 57 26.9217 56.5786 26.1716 55.8284C25.4214 55.0783 25 54.0609 25 53V45H16L14.69 47.24L11.48 52.74L9 57Z" fill="url(#paint1_linear_11431_98897)"/>
<path d="M45 51H25V47H45V51Z" fill="url(#paint2_linear_11431_98897)"/>
<path d="M45 51H25V49H45V51Z" fill="#C7CDD8"/>
<path d="M31.5 21L21.5 31L19.75 29.25L17.78 27.28L10.72 20.22L7 16.5L17 6.5L31.5 21Z" fill="#CB1B5B"/>
<path d="M16.0078 7.50098L8.00457 15.5042L7.72177 15.2214C7.36525 14.8649 7.08244 14.4416 6.88949 13.9758C6.69654 13.51 6.59723 13.0107 6.59723 12.5065C6.59723 12.0023 6.69654 11.5031 6.88949 11.0373C7.08244 10.5714 7.36525 10.1482 7.72177 9.79166L10.2882 7.22525C10.6444 6.8672 11.0677 6.58294 11.5339 6.38876C12.0001 6.19458 12.5001 6.09429 13.0051 6.09363C13.5102 6.09297 14.0104 6.19197 14.4771 6.38493C14.9438 6.5779 15.3679 6.86106 15.725 7.21818L16.0078 7.50098Z" fill="url(#paint3_linear_11431_98897)"/>
<path d="M33 25.5029L26.0007 32.5022L23.003 29.5045L30.0023 22.5052L33 25.5029Z" fill="url(#paint4_linear_11431_98897)"/>
<path d="M19.7461 29.2559L29.7431 19.2589L31.4894 21.0052L21.4924 31.0022L19.7461 29.2559Z" fill="#5B8DC9"/>
<path d="M34.5117 30.002L30.5095 34.0042L27.5114 31.006L31.5136 27.0038L34.5117 30.002Z" fill="#CB1B5B"/>
<path d="M2.00189 8.50019C1.87029 8.50095 1.73982 8.47572 1.61799 8.42596C1.49615 8.37619 1.38533 8.30287 1.29189 8.21019C1.19816 8.11722 1.12377 8.00662 1.073 7.88476C1.02223 7.7629 0.996094 7.6322 0.996094 7.50019C0.996094 7.36817 1.02223 7.23747 1.073 7.11561C1.12377 6.99375 1.19816 6.88315 1.29189 6.79019L6.79189 1.29019C6.9802 1.10188 7.23559 0.996094 7.50189 0.996094C7.76819 0.996094 8.02359 1.10188 8.21189 1.29019C8.4002 1.47849 8.50598 1.73388 8.50598 2.00019C8.50598 2.26649 8.4002 2.52188 8.21189 2.71019L2.71189 8.21019C2.61845 8.30287 2.50764 8.37619 2.3858 8.42596C2.26396 8.47572 2.1335 8.50095 2.00189 8.50019Z" fill="url(#paint5_linear_11431_98897)"/>
<path d="M14.5208 47.5405L10.5208 54.4405C9.94252 54.1078 9.38484 53.7405 8.85081 53.3405C6.59278 51.6972 4.72479 49.5762 3.37981 47.1287C2.03483 44.6812 1.24594 41.9672 1.0693 39.1801C0.892653 36.393 1.3326 33.6011 2.35782 31.0034C3.38304 28.4056 4.96832 26.0658 7.00081 24.1505C7.70798 23.4745 8.47066 22.859 9.28081 22.3105L13.7008 29.0005C13.0105 29.4811 12.3794 30.0417 11.8208 30.6705C10.8389 31.764 10.0862 33.0432 9.60689 34.4325C9.12763 35.8218 8.93161 37.293 9.03042 38.7593C9.12923 40.2256 9.52086 41.6572 10.1822 42.9697C10.8435 44.2821 11.7611 45.4487 12.8808 46.4005C13.3894 46.8325 13.9387 47.2143 14.5208 47.5405Z" fill="url(#paint6_linear_11431_98897)"/>
<path d="M13.7 29.0005C13.0096 29.4811 12.3786 30.0417 11.82 30.6705C10.4393 30.2183 9.23354 29.3477 8.36988 28.1795C7.50621 27.0112 7.02746 25.6031 7 24.1505C7.70717 23.4745 8.46985 22.859 9.28 22.3105L13.7 29.0005Z" fill="#9CA0AD"/>
<path d="M41 15H38C37.7348 15 37.4804 14.8946 37.2929 14.7071C37.1054 14.5196 37 14.2652 37 14C37 13.7348 37.1054 13.4804 37.2929 13.2929C37.4804 13.1054 37.7348 13 38 13H41C41.2652 13 41.5196 13.1054 41.7071 13.2929C41.8946 13.4804 42 13.7348 42 14C42 14.2652 41.8946 14.5196 41.7071 14.7071C41.5196 14.8946 41.2652 15 41 15Z" fill="#CF4055"/>
<path d="M62 15H59C58.7348 15 58.4804 14.8946 58.2929 14.7071C58.1054 14.5196 58 14.2652 58 14C58 13.7348 58.1054 13.4804 58.2929 13.2929C58.4804 13.1054 58.7348 13 59 13H62C62.2652 13 62.5196 13.1054 62.7071 13.2929C62.8946 13.4804 63 13.7348 63 14C63 14.2652 62.8946 14.5196 62.7071 14.7071C62.5196 14.8946 62.2652 15 62 15Z" fill="#CF4055"/>
<path d="M50 6C49.7348 6 49.4804 5.89464 49.2929 5.70711C49.1054 5.51957 49 5.26522 49 5V2C49 1.73478 49.1054 1.48043 49.2929 1.29289C49.4804 1.10536 49.7348 1 50 1C50.2652 1 50.5196 1.10536 50.7071 1.29289C50.8946 1.48043 51 1.73478 51 2V5C51 5.26522 50.8946 5.51957 50.7071 5.70711C50.5196 5.89464 50.2652 6 50 6Z" fill="#CF4055"/>
<path d="M50 27C49.7348 27 49.4804 26.8946 49.2929 26.7071C49.1054 26.5196 49 26.2652 49 26V23C49 22.7348 49.1054 22.4804 49.2929 22.2929C49.4804 22.1054 49.7348 22 50 22C50.2652 22 50.5196 22.1054 50.7071 22.2929C50.8946 22.4804 51 22.7348 51 23V26C51 26.2652 50.8946 26.5196 50.7071 26.7071C50.5196 26.8946 50.2652 27 50 27Z" fill="#CF4055"/>
<path d="M50 23C54.9706 23 59 18.9706 59 14C59 9.02944 54.9706 5 50 5C45.0294 5 41 9.02944 41 14C41 18.9706 45.0294 23 50 23Z" fill="url(#paint7_linear_11431_98897)"/>
<path d="M56.362 20.36C55.0426 21.6754 53.3474 22.5489 51.5105 22.86C49.6735 23.171 47.7853 22.9043 46.1063 22.0967C44.4274 21.289 43.0405 19.9802 42.137 18.3509C41.2334 16.7215 40.8579 14.8519 41.062 13C41.3165 15.1926 42.3678 17.2152 44.0161 18.6833C45.6644 20.1513 47.7947 20.9625 50.002 20.9625C52.2093 20.9625 54.3396 20.1513 55.988 18.6833C57.6363 17.2152 58.6876 15.1926 58.942 13C59.0974 14.3421 58.946 15.7019 58.499 16.9769C58.0521 18.2519 57.3214 19.4087 56.362 20.36Z" fill="#D82E3D"/>
<path d="M45.0508 10.0498C44.9192 10.0506 44.7887 10.0253 44.6669 9.97556C44.545 9.9258 44.4342 9.85247 44.3408 9.75979L40.8108 6.21979C40.6469 6.02849 40.5613 5.78242 40.5711 5.53074C40.5808 5.27906 40.6851 5.04032 40.8632 4.86223C41.0413 4.68414 41.28 4.5798 41.5317 4.57008C41.7834 4.56036 42.0295 4.64597 42.2208 4.80979L45.7608 8.33979C45.8545 8.43276 45.9289 8.54336 45.9797 8.66522C46.0304 8.78708 46.0566 8.91778 46.0566 9.04979C46.0566 9.18181 46.0304 9.31251 45.9797 9.43437C45.9289 9.55623 45.8545 9.66683 45.7608 9.75979C45.6673 9.85247 45.5565 9.9258 45.4347 9.97556C45.3128 10.0253 45.1824 10.0506 45.0508 10.0498Z" fill="#D82E3D"/>
<path d="M58.4894 23.4894C58.3571 23.4889 58.2262 23.4621 58.1043 23.4106C57.9825 23.3591 57.872 23.2839 57.7794 23.1894L54.2394 19.6594C54.1462 19.5662 54.0722 19.4555 54.0217 19.3337C53.9713 19.2118 53.9453 19.0813 53.9453 18.9494C53.9453 18.8175 53.9713 18.687 54.0217 18.5652C54.0722 18.4433 54.1462 18.3326 54.2394 18.2394C54.3326 18.1462 54.4433 18.0722 54.5652 18.0217C54.687 17.9713 54.8175 17.9453 54.9494 17.9453C55.0813 17.9453 55.2118 17.9713 55.3337 18.0217C55.4555 18.0722 55.5662 18.1462 55.6594 18.2394L59.1894 21.7794C59.3757 21.9668 59.4802 22.2202 59.4802 22.4844C59.4802 22.7486 59.3757 23.002 59.1894 23.1894C59.0048 23.3778 58.7532 23.4856 58.4894 23.4894Z" fill="#D82E3D"/>
<path d="M55.0019 10.0498C54.8703 10.0506 54.7398 10.0253 54.618 9.97556C54.4961 9.9258 54.3853 9.85247 54.2919 9.75979C54.1982 9.66683 54.1238 9.55623 54.073 9.43437C54.0222 9.31251 53.9961 9.18181 53.9961 9.04979C53.9961 8.91778 54.0222 8.78708 54.073 8.66522C54.1238 8.54336 54.1982 8.43276 54.2919 8.33979L57.8319 4.80979C58.0232 4.64597 58.2693 4.56036 58.5209 4.57008C58.7726 4.5798 59.0114 4.68414 59.1895 4.86223C59.3676 5.04032 59.4719 5.27906 59.4816 5.53074C59.4913 5.78242 59.4057 6.02849 59.2419 6.21979L55.6619 9.75979C55.4856 9.93515 55.2503 10.0385 55.0019 10.0498Z" fill="#D82E3D"/>
<path d="M41.5103 23.4894C41.2466 23.4856 40.995 23.3778 40.8103 23.1894C40.6241 23.002 40.5195 22.7486 40.5195 22.4844C40.5195 22.2202 40.6241 21.9668 40.8103 21.7794L44.3403 18.2394C44.5286 18.0511 44.784 17.9453 45.0503 17.9453C45.3166 17.9453 45.572 18.0511 45.7603 18.2394C45.9486 18.4277 46.0544 18.6831 46.0544 18.9494C46.0544 19.2157 45.9486 19.4711 45.7603 19.6594L42.2203 23.1894C42.1277 23.2839 42.0173 23.3591 41.8954 23.4106C41.7735 23.4621 41.6426 23.4889 41.5103 23.4894Z" fill="#D82E3D"/>
<path d="M46.4614 15.2895C45.9333 15.29 45.4264 15.0815 45.0514 14.7095C44.8655 14.5238 44.7179 14.3032 44.6173 14.0604C44.5166 13.8176 44.4648 13.5574 44.4648 13.2945C44.4648 13.0317 44.5166 12.7715 44.6173 12.5287C44.7179 12.2859 44.8655 12.0653 45.0514 11.8795C45.2372 11.6936 45.4577 11.5461 45.7005 11.4454C45.9433 11.3448 46.2036 11.293 46.4664 11.293C46.7292 11.293 46.9895 11.3448 47.2323 11.4454C47.4751 11.5461 47.6957 11.6936 47.8814 11.8795C48.0674 12.0653 48.2149 12.2859 48.3155 12.5287C48.4162 12.7715 48.468 13.0317 48.468 13.2945C48.468 13.5574 48.4162 13.8176 48.3155 14.0604C48.2149 14.3032 48.0674 14.5238 47.8814 14.7095C47.6945 14.8949 47.4729 15.0416 47.2292 15.1411C46.9856 15.2406 46.7246 15.2911 46.4614 15.2895Z" fill="#D82E3D"/>
<path d="M52.832 13.3799C53.6605 13.3799 54.332 12.7083 54.332 11.8799C54.332 11.0515 53.6605 10.3799 52.832 10.3799C52.0036 10.3799 51.332 11.0515 51.332 11.8799C51.332 12.7083 52.0036 13.3799 52.832 13.3799Z" fill="#D82E3D"/>
<path d="M50 19.2402C50.5523 19.2402 51 18.7925 51 18.2402C51 17.6879 50.5523 17.2402 50 17.2402C49.4477 17.2402 49 17.6879 49 18.2402C49 18.7925 49.4477 19.2402 50 19.2402Z" fill="#D82E3D"/>
<path d="M59.1937 6.81055C58.7313 6.81018 58.2834 6.64961 57.926 6.35616C57.5687 6.06271 57.3241 5.65451 57.2338 5.20102C57.1435 4.74753 57.2132 4.27677 57.4309 3.86885C57.6486 3.46092 58.0009 3.14104 58.4279 2.96362C58.8549 2.78621 59.3302 2.76223 59.7729 2.89576C60.2156 3.02929 60.5983 3.31209 60.856 3.69603C61.1137 4.07997 61.2303 4.54132 61.1862 5.0016C61.142 5.46187 60.9397 5.89262 60.6137 6.22055C60.4277 6.40772 60.2064 6.55621 59.9627 6.65747C59.719 6.75873 59.4576 6.81076 59.1937 6.81055Z" fill="url(#paint8_linear_11431_98897)"/>
<path d="M40.8109 25.1904C40.3479 25.1901 39.8994 25.0291 39.5418 24.7349C39.1843 24.4408 38.9399 24.0317 38.8503 23.5774C38.7607 23.1232 38.8315 22.6519 39.0506 22.244C39.2697 21.8362 39.6235 21.5169 40.0517 21.3408C40.4798 21.1647 40.9559 21.1426 41.3985 21.2782C41.8412 21.4139 42.2231 21.6989 42.4791 22.0847C42.735 22.4705 42.8492 22.9332 42.8021 23.3938C42.7551 23.8544 42.5496 24.2844 42.2209 24.6104C41.8459 24.9824 41.3391 25.1909 40.8109 25.1904Z" fill="url(#paint9_linear_11431_98897)"/>
<path d="M59.193 25.1904C58.6649 25.1909 58.158 24.9824 57.783 24.6104C57.4543 24.2844 57.2489 23.8544 57.2018 23.3938C57.1547 22.9332 57.2689 22.4705 57.5248 22.0847C57.7808 21.6989 58.1627 21.4139 58.6054 21.2782C59.048 21.1426 59.5241 21.1647 59.9522 21.3408C60.3804 21.5169 60.7342 21.8362 60.9533 22.244C61.1724 22.6519 61.2432 23.1232 61.1536 23.5774C61.064 24.0317 60.8196 24.4408 60.4621 24.7349C60.1045 25.0291 59.656 25.1901 59.193 25.1904Z" fill="url(#paint10_linear_11431_98897)"/>
<path d="M40.8131 6.81053C40.3503 6.81248 39.9011 6.65386 39.5422 6.36171C39.1832 6.06956 38.9367 5.66196 38.8447 5.20839C38.7526 4.75483 38.8207 4.28337 39.0373 3.87438C39.254 3.4654 39.6057 3.14421 40.0327 2.96556C40.4596 2.78691 40.9353 2.76186 41.3787 2.89468C41.822 3.0275 42.2056 3.30997 42.464 3.69393C42.7224 4.0779 42.8396 4.5396 42.7957 5.00033C42.7517 5.46106 42.5494 5.89229 42.2231 6.22053C41.8498 6.59612 41.3427 6.8083 40.8131 6.81053Z" fill="url(#paint11_linear_11431_98897)"/>
<path d="M14 29C16.7614 29 19 26.7614 19 24C19 21.2386 16.7614 19 14 19C11.2386 19 9 21.2386 9 24C9 26.7614 11.2386 29 14 29Z" fill="url(#paint12_linear_11431_98897)"/>
<path d="M14 26C13.6044 26 13.2178 25.8827 12.8889 25.6629C12.56 25.4432 12.3036 25.1308 12.1522 24.7654C12.0009 24.3999 11.9613 23.9978 12.0384 23.6098C12.1156 23.2219 12.3061 22.8655 12.5858 22.5858C12.8655 22.3061 13.2219 22.1156 13.6098 22.0384C13.9978 21.9613 14.3999 22.0009 14.7654 22.1522C15.1308 22.3036 15.4432 22.56 15.6629 22.8889C15.8827 23.2178 16 23.6044 16 24C16 24.5304 15.7893 25.0391 15.4142 25.4142C15.0391 25.7893 14.5304 26 14 26Z" fill="#42455E"/>
<path d="M9 61H47V63H9V61Z" fill="#5B8DC9"/>
<path d="M14.5216 47.5399L10.5216 54.4399C9.94327 54.1071 9.38559 53.7398 8.85156 53.3399L9.78156 51.7299L12.9116 46.3799C13.4098 46.8172 13.949 47.2057 14.5216 47.5399Z" fill="#8288A1"/>
<defs>
<linearGradient id="paint0_linear_11431_98897" x1="2.26893" y1="7.03612" x2="12.2324" y2="6.56803" gradientUnits="userSpaceOnUse">
<stop stop-color="#474F72"/>
<stop offset="1" stop-color="#878C9F"/>
</linearGradient>
<linearGradient id="paint1_linear_11431_98897" x1="28" y1="63" x2="28" y2="45" gradientUnits="userSpaceOnUse">
<stop stop-color="#7AA8D7"/>
<stop offset="1" stop-color="#C3D2E7"/>
</linearGradient>
<linearGradient id="paint2_linear_11431_98897" x1="25" y1="49" x2="45" y2="49" gradientUnits="userSpaceOnUse">
<stop stop-color="#D4D8E1"/>
<stop offset="1" stop-color="#F3F4F5"/>
</linearGradient>
<linearGradient id="paint3_linear_11431_98897" x1="6.59641" y1="10.7964" x2="16.0036" y2="10.7964" gradientUnits="userSpaceOnUse">
<stop stop-color="#A0A6BA"/>
<stop offset="1" stop-color="#C6CCDA"/>
</linearGradient>
<linearGradient id="paint4_linear_11431_98897" x1="23.0044" y1="27.5002" x2="33.0014" y2="27.5002" gradientUnits="userSpaceOnUse">
<stop stop-color="#A0A6BA"/>
<stop offset="1" stop-color="#C6CCDA"/>
</linearGradient>
<linearGradient id="paint5_linear_11431_98897" x1="13.5031" y1="20.4349" x2="8.20064" y2="15.1324" gradientUnits="userSpaceOnUse">
<stop stop-color="#A0A6BA"/>
<stop offset="1" stop-color="#C6CCDA"/>
</linearGradient>
<linearGradient id="paint6_linear_11431_98897" x1="43.8536" y1="-19.4748" x2="21.1377" y2="3.24106" gradientUnits="userSpaceOnUse">
<stop stop-color="#A0A6BA"/>
<stop offset="1" stop-color="#C6CCDA"/>
</linearGradient>
<linearGradient id="paint7_linear_11431_98897" x1="50" y1="23" x2="50" y2="5" gradientUnits="userSpaceOnUse">
<stop stop-color="#DA5466"/>
<stop offset="1" stop-color="#F4929C"/>
</linearGradient>
<linearGradient id="paint8_linear_11431_98897" x1="57.1937" y1="4.81055" x2="61.1937" y2="4.81055" gradientUnits="userSpaceOnUse">
<stop stop-color="#DA5466"/>
<stop offset="1" stop-color="#F4929C"/>
</linearGradient>
<linearGradient id="paint9_linear_11431_98897" x1="38.8109" y1="23.1904" x2="42.8109" y2="23.1904" gradientUnits="userSpaceOnUse">
<stop stop-color="#DA5466"/>
<stop offset="1" stop-color="#F4929C"/>
</linearGradient>
<linearGradient id="paint10_linear_11431_98897" x1="57.193" y1="23.1904" x2="61.193" y2="23.1904" gradientUnits="userSpaceOnUse">
<stop stop-color="#DA5466"/>
<stop offset="1" stop-color="#F4929C"/>
</linearGradient>
<linearGradient id="paint11_linear_11431_98897" x1="38.8131" y1="4.81053" x2="42.8131" y2="4.81053" gradientUnits="userSpaceOnUse">
<stop stop-color="#DA5466"/>
<stop offset="1" stop-color="#F4929C"/>
</linearGradient>
<linearGradient id="paint12_linear_11431_98897" x1="17.9" y1="-16.57" x2="10.1344" y2="-9.50127" gradientUnits="userSpaceOnUse">
<stop stop-color="#474F72"/>
<stop offset="1" stop-color="#878C9F"/>
</linearGradient>
</defs>
</svg>
