<svg width="20" height="31" viewBox="0 0 20 31" fill="none" xmlns="http://www.w3.org/2000/svg">
<path fill-rule="evenodd" clip-rule="evenodd" d="M13.8581 0.307373C17.0268 0.307373 19.1553 2.5092 19.1553 5.78585V24.9058C19.1553 28.2111 17.0923 30.3608 13.8994 30.3812L6.14595 30.3843C2.97725 30.3843 0.847656 28.1825 0.847656 24.9058V5.78585C0.847656 2.47954 2.91074 0.330895 6.10362 0.311464L13.8571 0.307373H13.8581ZM13.8581 1.84139L6.10866 1.84548C3.76237 1.8598 2.35944 3.33245 2.35944 5.78585V24.9058C2.35944 27.3756 3.77548 28.8503 6.14494 28.8503L13.8943 28.8472C16.2406 28.8329 17.6436 27.3582 17.6436 24.9058V5.78585C17.6436 3.31609 16.2285 1.84139 13.8581 1.84139Z" fill="#CB1B5B"/>
<rect x="5.75" y="25.1538" width="8.22579" height="1.93548" rx="0.96774" fill="#CB1B5B"/>
</svg>
