<svg width="65" height="65" viewBox="0 0 65 65" fill="none" xmlns="http://www.w3.org/2000/svg">
<rect width="64.891" height="64.891" rx="10.8152" fill="#CB1B5B"/>
<g clip-path="url(#clip0_15210_10815)">
<path d="M46.2788 35.5948C46.2667 35.5646 46.2486 35.5404 46.2304 35.5162C45.4502 34.5545 44.0409 34.4093 43.0731 35.1896C41.8635 36.1755 40.1034 37.5968 38.9602 38.5222C38.1558 39.1694 37.1639 39.5384 36.1296 39.5747L33.0328 39.6775C32.9058 39.6835 32.7909 39.617 32.7244 39.5142L32.3796 38.9214C32.3191 38.8247 32.3131 38.7097 32.3615 38.6069C32.4098 38.5041 32.5006 38.4315 32.6094 38.4134L35.809 37.8085C36.934 37.5968 37.7203 36.5323 37.5933 35.3771C37.4723 34.2642 36.5288 33.4295 35.4159 33.4295C35.3856 33.4295 35.3494 33.4295 35.307 33.4295L31.0308 33.2541C29.3252 33.1936 27.8615 33.5202 26.1498 34.3489L23.9119 35.4315C23.5973 34.7783 22.9381 34.361 22.2123 34.361H19.7385C18.7042 34.3549 17.8635 35.1896 17.8574 36.2239V45.4356C17.8635 46.4698 18.7042 47.3045 19.7385 47.3045H22.2123C23.2465 47.3045 24.0812 46.4698 24.0873 45.4356V44.8126L26.4643 44.3771C27.2324 44.2622 27.7163 44.2198 28.5328 44.2561L35.0348 44.5585C37.3756 44.6614 39.6679 43.8872 41.4643 42.3872L45.9703 38.6493L45.9764 38.6432C46.8776 37.8751 47.0106 36.5263 46.2788 35.5948ZM22.8776 45.4356C22.8776 45.7985 22.5812 46.0948 22.2183 46.0948H19.7264C19.3635 46.0948 19.0671 45.7985 19.0671 45.4356V36.2299C19.0671 35.867 19.3635 35.5706 19.7264 35.5706H22.2183C22.5812 35.5706 22.8776 35.867 22.8776 36.2299V45.4356ZM45.1961 37.7178L40.6961 41.4497C39.1296 42.7561 37.1276 43.4275 35.0893 43.3428L28.5873 43.0404C27.674 42.9981 27.1175 43.0525 26.2768 43.1735C26.2707 43.1735 26.2647 43.1735 26.2586 43.1795L24.0873 43.5787V36.6835L26.676 35.4315C28.2002 34.6936 29.4885 34.4033 30.9824 34.4577L35.2889 34.6331C35.3131 34.6331 35.3433 34.6331 35.3675 34.6331C35.3736 34.6331 35.3977 34.6331 35.4159 34.6331C35.9119 34.6392 36.3352 35.0081 36.3957 35.5041C36.4562 36.0243 36.1054 36.5081 35.5913 36.611L32.3917 37.2158C31.551 37.3731 31.0006 38.1896 31.1578 39.0303C31.1941 39.2057 31.2546 39.3751 31.3453 39.5263L31.6901 40.113C31.9804 40.6029 32.5127 40.8932 33.0812 40.8751L36.178 40.7722C37.4723 40.7239 38.7183 40.2581 39.7284 39.4537C40.8715 38.5283 42.6377 37.1069 43.8473 36.121C44.2828 35.7823 44.9058 35.8368 45.2748 36.2481C45.2869 36.2722 45.305 36.2964 45.3231 36.3206C45.6679 36.738 45.6135 37.367 45.1961 37.7178Z" fill="white"/>
<path d="M37.1105 17.3047C32.7496 17.3047 29.1992 20.8551 29.1992 25.216C29.1992 29.5769 32.7496 33.1333 37.1105 33.1333C41.4714 33.1333 45.0218 29.5829 45.0218 25.222C45.0218 20.8611 41.4714 17.3047 37.1105 17.3047ZM37.1166 31.9236C33.4149 31.9236 30.4089 28.9236 30.4089 25.222C30.4089 25.222 30.4089 25.222 30.4089 25.216C30.4149 21.5204 33.4089 18.5204 37.1105 18.5144C40.8121 18.5144 43.8182 21.5144 43.8182 25.216C43.8182 28.9176 40.8182 31.9236 37.1166 31.9236Z" fill="white"/>
<path d="M39.4754 23.3533H38.6649C38.5984 23.0509 38.4835 22.7666 38.3141 22.5066H39.4754C39.8081 22.5066 40.0802 22.2344 40.0802 21.9017C40.0802 21.5691 39.8081 21.2969 39.4754 21.2969H34.7456C34.4129 21.2969 34.1407 21.5691 34.1407 21.9017C34.1407 22.2344 34.4129 22.5066 34.7456 22.5066H36.1004C36.6689 22.5066 37.1649 22.8695 37.3887 23.3533H34.7456C34.4129 23.3533 34.1407 23.6255 34.1407 23.9582C34.1407 24.2908 34.4129 24.563 34.7456 24.563H37.3887C37.3101 24.7021 37.2194 24.8291 37.1105 24.9441C36.8383 25.2102 36.4754 25.3553 36.1004 25.3493H34.7456C34.4069 25.3553 34.1347 25.6275 34.1407 25.9662C34.1407 26.1295 34.2133 26.2868 34.3282 26.4017L37.7093 29.6013C37.9512 29.8311 38.3323 29.8191 38.5621 29.5771C38.7919 29.3352 38.7798 28.9541 38.5379 28.7243L36.2577 26.565C36.8988 26.5287 37.5036 26.2626 37.9573 25.809C38.302 25.4642 38.544 25.0348 38.6649 24.563H39.4754C39.8081 24.563 40.0802 24.2908 40.0802 23.9582C40.0802 23.6255 39.8081 23.3533 39.4754 23.3533Z" fill="white"/>
</g>
<defs>
<clipPath id="clip0_15210_10815">
<rect width="30" height="30" fill="white" transform="translate(17.3047 17.3047)"/>
</clipPath>
</defs>
</svg>
