<svg width="64" height="64" viewBox="0 0 64 64" fill="none" xmlns="http://www.w3.org/2000/svg">
<g clip-path="url(#clip0_11527_95044)">
<path d="M30.2866 39.4668L22.4004 49.6001L30.2866 59.7335H50.1337V39.4668H30.2866Z" fill="#E2DFF4"/>
<path d="M7.4668 39.4668H29.8668V64.0001H7.4668V39.4668Z" fill="#E2DFF4"/>
<path d="M52.0005 49.9326H43.3339C39.808 49.9326 36.4617 51.0513 33.6569 53.1675C32.1655 54.293 30.8816 55.6787 29.8672 57.2365L25.8672 60.5846L29.8672 63.9328H50.0005L52.0005 49.9326Z" fill="#EF7598"/>
<path d="M26.0771 53.1675C23.2723 51.0513 19.926 49.9326 16.4001 49.9326H7.4668V63.9993H29.8668V57.2365C28.8524 55.6789 27.5685 54.293 26.0771 53.1675Z" fill="#FC6581"/>
<path d="M29.8672 0.0664062L20.8672 18.0664L29.8672 36.0664C39.8083 36.0664 47.8672 28.0075 47.8672 18.0664L29.8672 0.0664062Z" fill="#FDBBAB"/>
<path d="M47.8672 18.0664C47.8672 8.12534 39.8083 0.0664062 29.8672 0.0664062C29.8672 10.0075 37.9261 18.0664 47.8672 18.0664Z" fill="#FDBBAB"/>
<path d="M11.8672 18.0664C11.8672 28.0075 19.9261 36.0664 29.8672 36.0664V0.0664062L11.8672 18.0664Z" fill="#FBCDBE"/>
<path d="M29.8672 0.0664062C19.9261 0.0664062 11.8672 8.12534 11.8672 18.0664C21.8083 18.0664 29.8672 10.0075 29.8672 0.0664062Z" fill="#FBCDBE"/>
<path d="M35.8672 30V49.8667C35.8672 57.6231 42.1775 63.9333 49.9339 63.9333C57.0113 63.9333 62.8837 58.6791 63.8577 51.8667L35.8672 30Z" fill="#ACCEFF"/>
<path d="M57.7339 51.8667H63.8577C63.9512 51.2132 64.0005 50.5456 64.0005 49.8667V30H35.8672C35.8672 42.0767 45.6572 51.8667 57.7339 51.8667Z" fill="#989DEC"/>
<path d="M49.9339 44.0659C57.7027 44.0659 64.0005 37.7681 64.0005 29.9993C64.0005 22.2305 57.7027 15.9326 49.9339 15.9326C42.165 15.9326 35.8672 22.2305 35.8672 29.9993C35.8672 37.7681 42.165 44.0659 49.9339 44.0659Z" fill="#FFDDCE"/>
</g>
<defs>
<clipPath id="clip0_11527_95044">
<rect width="64" height="64" fill="white"/>
</clipPath>
</defs>
</svg>
