<svg width="40" height="40" viewBox="0 0 40 40" fill="none" xmlns="http://www.w3.org/2000/svg">
<mask id="mask0_95_929" style="mask-type:alpha" maskUnits="userSpaceOnUse" x="0" y="0" width="40" height="40">
<rect width="40" height="40" fill="#D9D9D9"/>
</mask>
<g mask="url(#mask0_95_929)">
<path fill-rule="evenodd" clip-rule="evenodd" d="M26.7066 3.07715C32.0075 3.07715 35.5685 6.70721 35.5685 12.1093V27.6142C35.5685 33.0635 32.1171 36.6076 26.7757 36.6413L13.805 36.6464C8.50403 36.6464 4.94141 33.0163 4.94141 27.6142V12.1093C4.94141 6.65832 8.39275 3.11593 13.7342 3.08389L26.7049 3.07715H26.7066ZM26.7066 5.60622L13.7426 5.61297C9.81746 5.63657 7.47048 8.06448 7.47048 12.1093V27.6142C7.47048 31.686 9.83938 34.1173 13.8033 34.1173L26.7673 34.1122C30.6924 34.0886 33.0394 31.6574 33.0394 27.6142V12.1093C33.0394 8.0375 30.6722 5.60622 26.7066 5.60622ZM26.3814 25.7945C27.0794 25.7945 27.6459 26.361 27.6459 27.059C27.6459 27.757 27.0794 28.3235 26.3814 28.3235H14.2081C13.5101 28.3235 12.9436 27.757 12.9436 27.059C12.9436 26.361 13.5101 25.7945 14.2081 25.7945H26.3814ZM26.3814 18.7358C27.0794 18.7358 27.6459 19.3023 27.6459 20.0004C27.6459 20.6984 27.0794 21.2649 26.3814 21.2649H14.2081C13.5101 21.2649 12.9436 20.6984 12.9436 20.0004C12.9436 19.3023 13.5101 18.7358 14.2081 18.7358H26.3814ZM18.8527 11.6935C19.5507 11.6935 20.1172 12.26 20.1172 12.9581C20.1172 13.6561 19.5507 14.2226 18.8527 14.2226H14.2076C13.5096 14.2226 12.9431 13.6561 12.9431 12.9581C12.9431 12.26 13.5096 11.6935 14.2076 11.6935H18.8527Z" fill="#CB1B5B"/>
</g>
</svg>
