<svg width="42" height="43" viewBox="0 0 42 43" fill="none" xmlns="http://www.w3.org/2000/svg">
<path d="M10.2582 16.4834C9.54184 16.4834 8.96094 17.0643 8.96094 17.7807C8.96094 18.4971 9.54184 19.078 10.2582 19.078H24.1682C24.8846 19.078 25.4655 18.4971 25.4655 17.7807C25.4655 17.0643 24.8846 16.4834 24.1682 16.4834H10.2582Z" fill="#CB1B5B"/>
<path d="M16.5127 23.8467H10.2582C9.54184 23.8467 8.96094 24.4276 8.96094 25.144C8.96094 25.8604 9.54184 26.4413 10.2582 26.4413H16.5127C17.2291 26.4413 17.81 25.8604 17.81 25.144C17.81 24.4276 17.2291 23.8467 16.5127 23.8467Z" fill="#CB1B5B"/>
<path d="M16.3186 40.3604H6.44469C4.32144 40.3604 2.59604 38.6278 2.59604 36.4973V10.2198C2.59604 8.08937 4.32144 6.35676 6.44469 6.35676H9.12433V6.68253C9.12433 8.57514 10.6638 10.1132 12.5564 10.1132H24.9528C26.8454 10.1132 28.3849 8.57514 28.3849 6.68253V6.35676H31.0516C33.2094 6.35676 34.8988 8.05334 34.8988 10.2198V17.6144C34.8988 18.3308 35.4797 18.9117 36.1961 18.9117C36.9125 18.9117 37.4934 18.3308 37.4934 17.6144V10.2198C37.4934 6.65946 34.6033 3.76217 31.0501 3.76217H28.3834V3.43063C28.3834 1.53802 26.844 0 24.9514 0H12.555C10.6624 0 9.12289 1.53802 9.12289 3.43063V3.76217H6.44469C2.89153 3.76217 0 6.65946 0 10.2198V36.4973C0 40.0577 2.89153 42.955 6.44469 42.955H16.3186C17.035 42.955 17.6159 42.3741 17.6159 41.6577C17.6159 40.9413 17.035 40.3604 16.3186 40.3604ZM11.7204 3.43063C11.7204 2.96937 12.0951 2.5946 12.5564 2.5946H24.9528C25.4141 2.5946 25.7889 2.96937 25.7889 3.43063V6.68109C25.7889 7.14235 25.4141 7.51712 24.9528 7.51712H12.5564C12.0951 7.51712 11.7204 7.14235 11.7204 6.68109V3.43063Z" fill="#CB1B5B"/>
<path d="M40.2087 23.4351C38.4328 21.6578 35.3323 21.6563 33.555 23.4351L22.0537 34.9363C21.6833 35.3068 21.4411 35.7767 21.3532 36.2942L20.7218 40.0261C20.5878 40.8261 20.8515 41.6477 21.4252 42.22C21.8995 42.6942 22.5409 42.9537 23.1997 42.9537C23.3395 42.9537 23.4778 42.9421 23.6162 42.9191L27.3467 42.2891C27.8642 42.2012 28.3341 41.9591 28.7045 41.5886L40.2058 30.0873C42.0407 28.2538 42.0407 25.27 40.2087 23.4351ZM26.9157 39.732L23.2818 40.4571L23.8901 36.7713L32.1337 28.5277L35.1189 31.5129L26.9157 39.732ZM38.3723 28.2524L36.951 29.6765L33.9672 26.6927L35.3899 25.27C35.7878 24.8722 36.3182 24.6517 36.8804 24.6517C37.4454 24.6517 37.9744 24.8708 38.3723 25.27C39.1953 26.0931 39.1953 27.4293 38.3723 28.2524Z" fill="#CB1B5B"/>
</svg>
