<svg width="29" height="30" viewBox="0 0 29 30" fill="none" xmlns="http://www.w3.org/2000/svg">
<mask id="mask0_1154_7715" style="mask-type:alpha" maskUnits="userSpaceOnUse" x="0" y="0" width="29" height="30">
<rect y="0.714233" width="28.5714" height="28.5714" fill="#D9D9D9"/>
</mask>
<g mask="url(#mask0_1154_7715)">
<path d="M8.6348 12.7316C8.26052 12.7316 7.95703 13.0351 7.95703 13.4094C7.95703 13.7837 8.26052 14.0872 8.6348 14.0872H15.902C16.2762 14.0872 16.5797 13.7837 16.5797 13.4094C16.5797 13.0351 16.2762 12.7316 15.902 12.7316H8.6348Z" fill="#CB1B5B"/>
<path d="M11.9024 16.5786H8.6348C8.26052 16.5786 7.95703 16.8821 7.95703 17.2564C7.95703 17.6307 8.26052 17.9341 8.6348 17.9341H11.9024C12.2767 17.9341 12.5801 17.6307 12.5801 17.2564C12.5801 16.8821 12.2767 16.5786 11.9024 16.5786Z" fill="#CB1B5B"/>
<path d="M11.8029 25.2062H6.64433C5.53506 25.2062 4.63363 24.301 4.63363 23.1879V9.45941C4.63363 8.34636 5.53506 7.44117 6.64433 7.44117H8.0443V7.61136C8.0443 8.60015 8.84858 9.40368 9.83736 9.40368H16.3138C17.3026 9.40368 18.1069 8.60015 18.1069 7.61136V7.44117H19.5C20.6274 7.44117 21.51 8.32754 21.51 9.45941V13.3227C21.51 13.6969 21.8135 14.0004 22.1878 14.0004C22.562 14.0004 22.8655 13.6969 22.8655 13.3227V9.45941C22.8655 7.59932 21.3556 6.08564 19.4993 6.08564H18.1061V5.91243C18.1061 4.92365 17.3018 4.12012 16.313 4.12012H9.83661C8.84783 4.12012 8.04354 4.92365 8.04354 5.91243V6.08564H6.64433C4.78801 6.08564 3.27734 7.59932 3.27734 9.45941V23.1879C3.27734 25.048 4.78801 26.5617 6.64433 26.5617H11.8029C12.1772 26.5617 12.4807 26.2582 12.4807 25.8839C12.4807 25.5097 12.1772 25.2062 11.8029 25.2062ZM9.40058 5.91243C9.40058 5.67145 9.59638 5.47565 9.83736 5.47565H16.3138C16.5548 5.47565 16.7506 5.67145 16.7506 5.91243V7.61061C16.7506 7.8516 16.5548 8.04739 16.3138 8.04739H9.83736C9.59638 8.04739 9.40058 7.8516 9.40058 7.61061V5.91243Z" fill="#CB1B5B"/>
<path d="M24.2886 16.3637C23.3608 15.4351 21.7409 15.4344 20.8124 16.3637L14.8036 22.3725C14.6101 22.566 14.4836 22.8115 14.4376 23.0818L14.1078 25.0316C14.0377 25.4495 14.1755 25.8788 14.4753 26.1777C14.723 26.4255 15.0581 26.561 15.4023 26.561C15.4754 26.561 15.5476 26.555 15.6199 26.543L17.5689 26.2139C17.8392 26.1679 18.0847 26.0414 18.2783 25.8479L24.2871 19.8391C25.2457 18.8812 25.2457 17.3223 24.2886 16.3637ZM17.3437 24.8779L15.4452 25.2567L15.763 23.3311L20.0698 19.0243L21.6295 20.5839L17.3437 24.8779ZM23.3291 18.8805L22.5866 19.6245L21.0278 18.0656L21.771 17.3223C21.9789 17.1145 22.256 16.9993 22.5497 16.9993C22.8449 16.9993 23.1213 17.1137 23.3291 17.3223C23.7592 17.7523 23.7592 18.4504 23.3291 18.8805Z" fill="#CB1B5B"/>
</g>
</svg>
