<svg width="64" height="64" viewBox="0 0 64 64" fill="none" xmlns="http://www.w3.org/2000/svg">
<g clip-path="url(#clip0_11527_94873)">
<path d="M36.0887 51.3002V57.8752H11.5938V42.6177C31.3225 42.5452 30.82 42.8202 32.0187 42.3965C34.51 44.5577 36.0887 47.749 36.0887 51.3002Z" fill="#DB4267"/>
<path d="M58.9715 39.4212V58.135C58.9715 61.3389 56.3672 64 53.1877 64C50.06 64 47.3965 61.4785 47.3965 58.2125C47.1944 40.3644 47.9045 37.629 46.584 31.7388L56.2749 23.75C56.3692 24.1197 58.9715 30.3247 58.9715 39.4212Z" fill="#48AAAF"/>
<path d="M33.2939 60.125H25.1564C25.1364 60.125 25.1164 60.125 25.0977 60.1237C26.2227 59.0725 27.1389 57.8 27.7739 56.375H33.3439C32.8403 57.591 32.838 58.9391 33.2939 60.125Z" fill="#42346B"/>
<path d="M18.1085 22.5632C21.1784 22.0655 23.2635 19.1736 22.7659 16.1038C22.2683 13.0341 19.3763 10.949 16.3065 11.4466C13.2366 11.9442 11.1515 14.8362 11.6491 17.9059C12.1467 20.9757 15.0387 23.0608 18.1085 22.5632Z" fill="#FBCDBE"/>
<path d="M22.8441 17.0023C22.8441 20.1073 20.3179 22.6336 17.2129 22.6336V11.3711C20.3179 11.3711 22.8441 13.8973 22.8441 17.0023Z" fill="#FDBBAB"/>
<path d="M35.3388 38.566C35.3388 41.0848 33.3537 43.1398 30.8625 43.2498H11.5938V28.3335C11.5938 25.1898 14.1662 22.5623 17.31 22.616C20.3637 22.6685 22.8312 25.1685 22.8312 28.2335L22.84 33.8785H30.6512C33.2419 33.8785 35.3388 35.9784 35.3388 38.566Z" fill="#EF7598"/>
<path d="M35.3391 38.5665C35.3391 41.0852 33.3541 43.1402 30.8629 43.2502H17.2129V22.6152C17.2454 22.6152 17.2779 22.6165 17.3104 22.6165C20.3641 22.669 22.8316 25.169 22.8316 28.234L22.8404 33.879H30.6516C33.2423 33.879 35.3391 35.9789 35.3391 38.5665Z" fill="#E55571"/>
<path d="M36.3655 11.5747C39.5618 11.5747 42.1529 8.98365 42.1529 5.78737C42.1529 2.5911 39.5618 0 36.3655 0C33.1692 0 30.5781 2.5911 30.5781 5.78737C30.5781 8.98365 33.1692 11.5747 36.3655 11.5747Z" fill="#FBCDBE"/>
<path d="M42.1527 5.7875C42.1527 8.97875 39.5565 11.575 36.3652 11.575V0C39.5565 0 42.1527 2.59625 42.1527 5.7875Z" fill="#FDBBAB"/>
<path d="M36.2187 33.5662C37.6314 35.7878 40.5991 36.4052 42.7806 34.9313L55.6523 26.235C56.1683 25.8862 56.4776 25.3028 56.4776 24.6801C56.4776 24.2785 56.3565 23.8576 55.5414 21.8966C53.8388 17.7838 51.5522 13.9688 48.7459 10.5578C46.6082 7.95871 42.675 7.76408 40.2819 10.1555L40.1944 10.2428C38.1044 12.3366 37.9525 15.6495 39.8412 17.9488C40.7102 19.0067 42.7704 22.0013 43.5048 23.1588L37.5468 27.184C35.4491 28.6011 34.8605 31.4302 36.2187 33.5662Z" fill="#5EBFB3"/>
<path d="M29.3323 53.1491C30.1531 46.4683 25.4025 40.387 18.7216 39.5662C12.0407 38.7454 5.95936 43.4959 5.13855 50.1767C4.31774 56.8575 9.06829 62.9388 15.7492 63.7597C22.4301 64.5805 28.5114 59.83 29.3323 53.1491Z" fill="#42346B"/>
<path d="M29.3954 51.6803C29.3954 58.3978 23.9304 63.8628 17.2129 63.8628V39.499C23.9304 39.499 29.3954 44.964 29.3954 51.6803Z" fill="#37265A"/>
<path d="M19.1613 59.8677C23.6925 58.7966 26.4975 54.2551 25.4264 49.724C24.3553 45.1929 19.8138 42.388 15.2826 43.459C10.7514 44.5301 7.94641 49.0716 9.01748 53.6028C10.0886 58.1339 14.6301 60.9388 19.1613 59.8677Z" fill="#EBEBFF"/>
<path d="M25.6454 51.6803C25.6454 56.3303 21.8616 60.1128 17.2129 60.1128V43.249C21.8616 43.249 25.6454 47.0315 25.6454 51.6803Z" fill="#DCDCFF"/>
<path d="M17.2129 53.5557C18.2484 53.5557 19.0879 52.7162 19.0879 51.6807C19.0879 50.6451 18.2484 49.8057 17.2129 49.8057C16.1774 49.8057 15.3379 50.6451 15.3379 51.6807C15.3379 52.7162 16.1774 53.5557 17.2129 53.5557Z" fill="#42346B"/>
<path d="M19.0879 51.6797C19.0879 52.7159 18.2479 53.5547 17.2129 53.5547V49.8047C18.2479 49.8047 19.0879 50.6447 19.0879 51.6797Z" fill="#37265A"/>
<path d="M38.9164 63.9279C42.0169 63.4253 44.1229 60.5045 43.6203 57.404C43.1177 54.3036 40.1968 52.1977 37.0964 52.7003C33.9959 53.2029 31.8899 56.1237 32.3925 59.2242C32.8951 62.3246 35.8159 64.4305 38.9164 63.9279Z" fill="#37265A"/>
<path d="M38.0219 60.2505C36.9534 60.2505 36.084 59.3811 36.084 58.3127C36.084 57.2444 36.9534 56.375 38.0219 56.375C39.0904 56.375 39.9596 57.2444 39.9596 58.3127C39.9596 59.3811 39.0904 60.2505 38.0219 60.2505Z" fill="#DCDCFF"/>
</g>
<defs>
<clipPath id="clip0_11527_94873">
<rect width="64" height="64" fill="white"/>
</clipPath>
</defs>
</svg>
