<svg width="64" height="64" viewBox="0 0 64 64" fill="none" xmlns="http://www.w3.org/2000/svg">
<g clip-path="url(#clip0_11527_95057)">
<path d="M9.87528 34.0231C6.88766 34.0231 4.45703 31.5925 4.45703 28.6048C4.45703 25.617 6.88766 23.1865 9.87528 23.1865C12.8629 23.1865 15.2935 25.617 15.2935 28.6048C15.2935 31.5925 12.8629 34.0231 9.87528 34.0231Z" fill="#FDBBAB"/>
<path d="M28.81 32.3186V39.6935C26.4325 39.6923 26.7163 39.6873 26.6825 39.671C12.0114 32.8698 12.5251 33.3311 12.5376 33.0111C12.6714 29.3711 16.4751 26.7886 20.0151 28.4011C22.1838 29.4711 28.185 32.3186 28.185 32.3186H28.81Z" fill="#EF7598"/>
<path d="M62.1249 39.431C62.1119 39.431 30.8899 39.4419 26.7833 39.4434L2.65524 28.4097C1.71325 27.9787 0.600886 28.3933 0.170264 29.3351C-0.260358 30.2768 0.154014 31.3894 1.09563 31.8201L22.5777 41.6436V57.6873H16.994C15.959 57.6873 15.119 58.5261 15.119 59.5623C15.119 60.5973 15.959 61.4373 16.994 61.4373H39.3751C40.4101 61.4373 41.2501 60.5973 41.2501 59.5623C41.2501 58.5261 40.4101 57.6873 39.3751 57.6873H33.9101V43.21C39.1388 43.2005 47.7808 43.181 62.1253 43.181C63.1608 43.1807 64 42.3411 63.9998 41.3057C63.9996 40.2704 63.1603 39.431 62.1249 39.431Z" fill="#E6FAFF"/>
<path d="M60.3873 37.5683V39.4321C60.3873 39.5696 60.2761 39.6821 60.1373 39.6821C38.5687 39.6871 30.9075 39.6958 28.1851 39.6921V32.3184H55.1374C58.0323 32.3184 60.3873 34.6733 60.3873 37.5683Z" fill="#DB4267"/>
<path d="M62.1248 39.4307C55.0545 39.4329 34.8284 39.4392 28.1851 39.4432V61.4367H39.375C40.41 61.4367 41.25 60.5968 41.25 59.5618C41.25 58.5255 40.41 57.6868 39.375 57.6868H33.91V43.2094C39.1387 43.2006 47.7812 43.1806 62.1248 43.1806C63.161 43.1806 63.9998 42.3406 63.9998 41.3056C63.9998 40.2694 63.1598 39.4307 62.1248 39.4307Z" fill="#CCF8FF"/>
<path d="M32.7339 17.4372C29.1015 21.059 22.894 19.2221 21.7651 14.3835L29.3001 6.37598C34.2835 7.17035 36.552 13.6271 32.7339 17.4372Z" fill="#FBCDBE"/>
<path d="M26.7937 3.17444L29.8168 6.49069C29.7998 6.51194 21.9263 14.8769 21.9135 14.8904L16.3903 11.8624C15.2799 11.2674 15.0667 9.76719 15.9528 8.88369L24.3187 2.91156C25.0912 2.35994 26.1542 2.47281 26.7937 3.17444Z" fill="#CCF8FF"/>
<path d="M47.27 48.0733L46.3388 60.2821C46.2888 60.9333 45.745 61.4371 45.0913 61.4371H39.9088C39.255 61.4371 38.7113 60.9333 38.6613 60.2821L37.7288 48.0596L47.27 48.0733Z" fill="#FBCDBE"/>
<path d="M47.27 48.0736C46.1861 62.283 46.3577 60.034 46.3387 60.2824C46.2887 60.9336 45.745 61.4374 45.0913 61.4374H42.5V48.0674L47.27 48.0736Z" fill="#FDBBAB"/>
<path d="M33.6965 48.6789C32.519 48.6772 31.6345 47.6032 31.8585 46.4473L35.6176 27.0476C35.8865 25.9006 34.5632 25.0612 33.6391 25.7711L26.8245 31.0063C25.8366 31.7653 24.4578 31.8316 23.3934 31.1271C21.9615 30.1794 21.6367 28.209 22.6896 26.852L33.9607 12.3223C34.1515 12.0765 34.4656 12.0242 34.7125 12.1363C43.3397 16.0492 48.862 24.1117 51.1522 33.2774C52.2032 37.4836 52.8176 43.5456 53.0832 46.6722C53.1763 47.7677 52.3115 48.707 51.2121 48.7054L33.6965 48.6789Z" fill="#22E0E0"/>
<path d="M51.2124 48.7044C51.1994 48.7044 42.52 48.6919 42.5 48.6919V17.5146C46.7525 21.7184 49.6487 27.2596 51.1524 33.277C52.2037 37.4832 52.8174 43.5444 53.0837 46.6719C53.1762 47.7669 52.3112 48.7069 51.2124 48.7044Z" fill="#22C7E0"/>
</g>
<defs>
<clipPath id="clip0_11527_95057">
<rect width="64" height="64" fill="white"/>
</clipPath>
</defs>
</svg>
