<svg width="40" height="40" viewBox="0 0 40 40" fill="none" xmlns="http://www.w3.org/2000/svg">
<rect width="40" height="40" rx="20" fill="white"/>
<path d="M24.8993 19.8906C22.6316 21.2771 20.377 22.6636 18.1094 24.0501" stroke="#CB1B5B" stroke-miterlimit="10" stroke-linecap="round"/>
<path d="M16.8779 14.3849C15.323 20.7342 14.2475 25.412 14.0791 26.5393C14.0402 26.7985 13.9883 27.2909 14.2475 27.7444C14.6233 28.3793 15.2971 28.483 15.3878 28.5089C18.3292 29.1957 21.2836 29.8824 24.225 30.5692C24.3157 30.5951 24.9766 30.7377 25.5597 30.31C26.1039 29.9213 26.1946 29.3253 26.2075 29.2216C27.1146 25.3731 28.0216 21.5247 28.9416 17.6762C28.9805 17.5078 29.0453 17.1838 28.9546 16.7821C28.8898 16.497 28.7602 16.2897 28.6825 16.1601C27.5811 14.3849 26.4797 12.6227 25.3653 10.8474C25.3135 10.7567 24.9377 10.1477 24.1732 10.0182C23.616 9.92745 23.1365 10.1996 22.9033 10.3291C21.9185 10.8993 19.923 12.1173 17.3185 13.8018C17.2796 13.8277 17.163 13.8925 17.0593 14.0221C16.9427 14.1646 16.9039 14.3072 16.8779 14.3849Z" stroke="#CB1B5B" stroke-miterlimit="10"/>
<path d="M19.7779 20.462C20.4577 20.462 21.0089 19.9108 21.0089 19.231C21.0089 18.5511 20.4577 18 19.7779 18C19.098 18 18.5469 18.5511 18.5469 19.231C18.5469 19.9108 19.098 20.462 19.7779 20.462Z" stroke="#CB1B5B" stroke-miterlimit="10"/>
<path d="M23.2388 26.0089C23.9187 26.0089 24.4698 25.4577 24.4698 24.7779C24.4698 24.098 23.9187 23.5469 23.2388 23.5469C22.5589 23.5469 22.0078 24.098 22.0078 24.7779C22.0078 25.4577 22.5589 26.0089 23.2388 26.0089Z" stroke="#CB1B5B" stroke-miterlimit="10"/>
<path d="M23.3617 14.1296C23.3974 14.1296 23.4265 14.1006 23.4265 14.0648C23.4265 14.029 23.3974 14 23.3617 14C23.3259 14 23.2969 14.029 23.2969 14.0648C23.2969 14.1006 23.3259 14.1296 23.3617 14.1296Z" stroke="#CB1B5B" stroke-miterlimit="10"/>
<path d="M23.2793 10.1484C21.4134 10.6538 19.5475 11.1591 17.6686 11.6775C17.4613 11.7293 17.0337 11.8718 16.6061 12.2217C16.2821 12.4938 16.0748 12.7918 15.9582 12.9732C12.8483 18.2471 10.6455 22.1603 10.2049 23.1321C10.0754 23.4302 9.90692 23.8966 10.0624 24.3631C10.2438 24.9074 10.6844 25.1536 10.7751 25.2054C12.045 25.8921 13.4703 26.7733 14.0534 27.0583" stroke="#CB1B5B" stroke-miterlimit="10" stroke-linecap="round"/>
</svg>
