<svg width="64" height="64" viewBox="0 0 64 64" fill="none" xmlns="http://www.w3.org/2000/svg">
<g clip-path="url(#clip0_11527_95013)">
<path d="M20.7051 35.3684L16.0227 35.0742L11.4766 37.3108C13.0355 39.8056 13.83 42.1514 14.1348 44.2803L17.6306 44.6742L20.7051 42.8975L21.96 38.1765L20.7051 35.3684Z" fill="#F4F4F6"/>
<path d="M20.7042 20.3096L13.9029 20.4868L7.10156 23.1735C7.3927 25.689 7.82752 28.1517 8.45309 30.4184L13.3319 30.382L20.7042 27.8391L21.9591 24.1565L20.7042 20.3096Z" fill="#F4F4F6"/>
<path d="M20.7052 27.8393L25.2935 28.1283L30.2639 25.827C30.4643 23.2528 30.7018 20.6579 30.9554 18.1514L24.9512 18.1607L20.7051 20.3097V27.8393H20.7052Z" fill="#F0E5F3"/>
<path d="M20.7051 0H7.3906C7.10812 2.0485 6.4503 8.50836 6.61356 15.7473L15.0581 16.9412L20.7051 12.7806L22.5875 7.52941L20.7051 0Z" fill="#FBCDBE"/>
<path d="M31.8079 10.4429C32.4094 5.42331 32.9691 1.49885 33.224 0H20.7051V12.7806L26.3521 13.1765L31.8079 10.4429Z" fill="#FDBBAB"/>
<path d="M20.7048 12.7803L6.61328 15.747C6.66825 18.1806 6.81607 20.7016 7.10219 23.1735L20.7048 20.3096L21.9597 16.9409L20.7048 12.7803Z" fill="#F0E5F3"/>
<path d="M20.7051 20.3103L30.9554 18.152C31.2303 15.4313 31.5237 12.8152 31.8079 10.4434L20.7051 12.781V20.3103Z" fill="#D0D5F4"/>
<path d="M20.7042 27.8398L8.45312 30.4192C9.45793 34.06 10.49 35.7341 11.4758 37.3116L20.7042 35.3691L23.5905 32.0005L20.7042 27.8398Z" fill="#F0E5F3"/>
<path d="M20.7051 42.8976L25.8302 44.3605L29.8818 40.9661C29.719 40.1473 29.6714 39.4619 29.6714 38.6921C29.6714 37.0546 29.7153 35.2929 29.7932 33.4552L25.2935 33.0664L20.7052 35.3684L20.7051 42.8976Z" fill="#F0E5F3"/>
<path d="M14.1347 44.2802C14.5991 47.5252 13.9274 50.2664 13.094 52.2638C12.5368 53.5976 12.2344 55.0246 12.2344 56.4702C12.2344 60.6287 15.6048 63.9996 19.7638 63.9996H20.7048L22.5872 52.4829L20.7048 42.8975L14.1347 44.2802Z" fill="#FBCDBE"/>
<path d="M53.6463 56.471H52.3349C49.7586 56.471 47.2539 55.5813 45.2787 53.9273C43.2545 52.2318 40.495 50.3244 37.4593 49.3482C33.561 48.0944 30.6593 44.8773 29.8818 40.9668L20.7051 42.8982V64.0004H25.4637C26.6371 64.0004 27.7225 63.4244 28.4291 62.487C30.6921 59.4825 35.1932 59.4884 37.4519 62.487C38.1584 63.4245 39.2437 64.0004 40.4172 64.0004H53.6463C55.7256 64.0004 57.411 62.3151 57.411 60.2357C57.411 58.1577 55.7245 56.471 53.6463 56.471Z" fill="#FDBBAB"/>
<path d="M20.7051 35.3687L29.7932 33.4554C29.897 31.0098 30.0615 28.4292 30.2639 25.8271L20.7051 27.8395V35.3687Z" fill="#D0D5F4"/>
</g>
<defs>
<clipPath id="clip0_11527_95013">
<rect width="64" height="64" fill="white"/>
</clipPath>
</defs>
</svg>
