<svg width="48" height="49" viewBox="0 0 48 49" fill="none" xmlns="http://www.w3.org/2000/svg">
<rect y="0.0683594" width="48" height="48" rx="10" fill="#FFF9FB"/>
<path fill-rule="evenodd" clip-rule="evenodd" d="M24 37.0684C31.1797 37.0684 37 31.2481 37 24.0684C37 16.8887 31.1797 11.0684 24 11.0684C16.8203 11.0684 11 16.8887 11 24.0684C11 31.2481 16.8203 37.0684 24 37.0684ZM24 39.0684C32.2843 39.0684 39 32.3526 39 24.0684C39 15.7841 32.2843 9.06836 24 9.06836C15.7157 9.06836 9 15.7841 9 24.0684C9 32.3526 15.7157 39.0684 24 39.0684Z" fill="#CB1B5B"/>
<path d="M26.4824 29.9927C26.131 29.9927 25.8034 29.8153 25.6114 29.521L23.5 26.2851C23.3593 26.0534 23.2078 25.8658 23.0454 25.7223C22.8939 25.5789 22.7207 25.4796 22.5259 25.4244C22.3418 25.3582 22.12 25.3251 21.8602 25.3251H20.283C19.8807 25.3251 19.5547 24.999 19.5547 24.5968C19.5547 24.1946 19.8807 23.8686 20.283 23.8686H22.7369C23.5054 23.8686 24.0845 23.7086 24.4742 23.3886C24.8432 23.075 25.0715 22.6378 25.159 22.0768C25.1659 22.0321 25.2159 22.0078 25.2546 22.031C25.309 22.0636 25.2859 22.1472 25.2225 22.1472H20.1671C19.8289 22.1472 19.5547 21.873 19.5547 21.5348C19.5547 21.1965 19.8289 20.9223 20.1671 20.9223H25.1971C25.2744 20.9223 25.3057 21.0219 25.2423 21.0661C25.1947 21.0992 25.1286 21.0714 25.1161 21.0148C25.0148 20.5567 24.79 20.2059 24.4417 19.9624C24.0629 19.6865 23.5217 19.5486 22.8181 19.5486H20.1671C19.8289 19.5486 19.5547 19.2744 19.5547 18.9361C19.5547 18.5979 19.8289 18.3237 20.1671 18.3237H28.0181C28.3564 18.3237 28.6305 18.5979 28.6305 18.9361C28.6305 19.2744 28.3564 19.5486 28.0181 19.5486H25.9974C25.9018 19.5486 25.8567 19.4304 25.9281 19.3668C25.9615 19.337 26.0104 19.3317 26.0486 19.3551C26.3642 19.5491 26.6133 19.8011 26.7959 20.1113C26.9553 20.3732 27.064 20.672 27.122 21.0077C27.1363 21.0907 27.0406 21.1421 26.9762 21.0879C26.9093 21.0315 26.9491 20.9223 27.0366 20.9223H28.1356C28.409 20.9223 28.6305 21.1439 28.6305 21.4173V21.6026C28.6305 21.9034 28.3867 22.1472 28.086 22.1472H27.0805C26.9849 22.1472 26.9355 22.033 27.0009 21.9633C27.0681 21.8917 27.1861 21.9383 27.1816 22.0363C27.1544 22.6298 27.0042 23.1523 26.7309 23.6037C26.4171 24.1223 25.9679 24.5251 25.3834 24.812C24.8293 25.0784 24.1642 25.2162 23.388 25.2253C23.3423 25.2258 23.3052 25.1887 23.3052 25.143C23.3052 25.0973 23.3422 25.0603 23.3879 25.0603H23.7598C24.2469 25.0603 24.6636 25.1596 25.0099 25.3582C25.3671 25.5458 25.7027 25.8823 26.0166 26.3679L27.3492 28.3781C27.8074 29.0694 27.3117 29.9927 26.4824 29.9927Z" fill="#CB1B5B"/>
</svg>
