<svg width="64" height="64" viewBox="0 0 64 64" fill="none" xmlns="http://www.w3.org/2000/svg">
<g clip-path="url(#clip0_11431_99131)">
<path d="M37.0839 50.1203C29.7216 49.8975 22.5574 47.6296 16.3994 43.5593C12.6826 41.1025 8.58393 38.0599 7.34443 33.7804C6.87331 32.1538 6.68918 29.8996 6.70643 28.2063L6.74906 24.0134L7.00118 19.7243C6.15131 17.9619 4.82418 14.5089 4.82418 14.5089C4.56381 8.99601 7.57831 3.70139 12.8847 1.19164L13.0172 1.12889C16.8202 -0.669862 21.2943 -0.299487 24.7498 2.10014C29.0443 5.08239 30.7643 10.6008 28.9246 15.4949L28.6051 16.3448C28.2544 17.2774 28.2062 18.2966 28.4669 19.2583L28.7094 20.0718C29.7439 19.6691 30.9251 19.7905 31.8594 20.4131L31.8593 20.4134C33.9331 19.1024 36.2219 17.9308 38.7004 17.57C41.8146 17.1168 44.9917 17.6856 47.7551 19.1913L47.8102 19.2213C48.5429 19.6205 49.4411 19.1166 49.4822 18.2831C49.5568 16.7731 50.6513 15.5085 52.1351 15.2183C53.8208 14.8884 55.4763 15.9116 55.9352 17.5669C57.1144 21.713 54.5508 25.9943 50.3392 26.9124C50.3392 26.9124 49.9469 26.9941 49.4284 27.1016L47.7963 27.0639L46.9266 27.6199C48.0009 28.5588 48.9249 29.6543 49.6693 30.867C49.6693 30.867 50.6411 34.2689 50.6566 34.3115L37.0839 50.1203Z" fill="#FFE7E0"/>
<path d="M51.1049 33.8321L37.1963 49.9838L37.0843 50.1191C36.215 50.0921 35.3471 50.038 34.4844 49.9542C34.72 47.1328 35.9665 44.435 37.987 42.4313L49.3795 31.1353C49.4735 31.0426 49.5701 30.9525 49.6693 30.8662C50.1329 31.6208 50.5269 32.4205 50.8424 33.2575C50.859 33.3001 51.0895 33.7896 51.1049 33.8321Z" fill="#FBCDBE"/>
<path d="M29.4172 49.1344C28.4282 48.9078 27.4482 48.6438 26.48 48.3412C22.9297 47.2363 19.5352 45.6305 16.3996 43.5585C14.5413 42.33 12.2563 41.5138 10.6118 39.9105C8.96747 38.3087 7.33097 36.3289 6.71034 34.19C6.25959 32.6344 5.46934 18.2844 5.24009 17.3778C4.99934 16.4274 4.86284 15.4655 4.82422 14.5088C6.26009 14.7019 7.58384 15.3548 8.62559 16.3953C9.88634 17.6573 10.5778 19.3287 10.5778 21.1058V28.2072C10.5778 28.8988 11.0656 29.4938 11.7438 29.6294C12.7935 29.8394 13.8565 30.3624 14.6188 31.1372L26.0101 42.4318C27.8333 44.2398 29.027 46.6143 29.4172 49.1344Z" fill="#FBCDBE"/>
<path d="M49.4305 27.1014L46.9283 27.619C46.5485 27.288 46.1455 26.9725 45.7307 26.6867L42.2616 24.2992C41.8225 23.9966 41.7117 23.3952 42.0143 22.9561C42.317 22.5157 42.9183 22.405 43.3575 22.7076L46.8253 25.0951C47.1962 25.3514 48.6166 26.4497 49.4305 27.1014Z" fill="#FBCDBE"/>
<path d="M33.912 21.0588L33.1685 20.2651C31.5653 18.554 28.9066 18.3989 27.1155 19.9126C25.8921 20.9465 25.3268 22.5644 25.6405 24.1376L25.676 24.313C22.9713 23.5709 20.1367 23.3603 17.3349 23.71L14.2524 24.0949C13.7233 24.161 13.3478 24.6436 13.4138 25.1729C13.4798 25.7023 13.9633 26.0766 14.4919 26.0116L17.5743 25.6268C21.0585 25.1916 24.6001 25.705 27.8173 27.111L28.7066 27.4998C28.8327 27.5549 28.9638 27.5809 29.093 27.5809C29.4653 27.5809 29.8199 27.3645 29.9784 27.0016C30.192 26.5129 29.969 25.9435 29.4803 25.7299L28.5909 25.3411C28.3255 25.2251 28.0574 25.1165 27.7881 25.0116L27.5345 23.7574C27.3588 22.876 27.676 21.9681 28.3624 21.388C29.3675 20.5388 30.8594 20.6254 31.759 21.5858L32.5026 22.3794C34.6865 24.7104 35.3448 28.1383 34.1799 31.1125C33.0995 33.8706 30.859 35.9595 28.0328 36.8434C27.5238 37.0026 27.2401 37.5444 27.3994 38.0535C27.5286 38.4666 27.9098 38.7313 28.3209 38.7313C28.4164 38.7313 28.5135 38.717 28.6095 38.687C31.9975 37.6274 34.6835 35.1233 35.9785 31.817C37.4135 28.1531 36.6024 23.9304 33.912 21.0588Z" fill="#FBCDBE"/>
<path d="M14.9885 19.7241C14.8489 19.7241 14.7071 19.6937 14.5729 19.6294C12.645 18.7086 11.6144 16.6071 12.0665 14.5191L12.1129 14.3053C12.3231 13.3341 12.9556 12.5258 13.8483 12.0881C14.7406 11.6503 15.7671 11.6449 16.664 12.0734C17.1453 12.3033 17.3491 12.8799 17.1193 13.3612C16.8894 13.8426 16.3124 14.0463 15.8315 13.8164C15.4708 13.6441 15.0578 13.6462 14.6988 13.8223C14.3398 13.9983 14.0853 14.3236 14.0005 14.7144L13.9541 14.9281C13.6925 16.1364 14.2893 17.3532 15.4054 17.8863C15.8868 18.1162 16.0905 18.6928 15.8606 19.1741C15.6949 19.5213 15.349 19.7239 14.9885 19.7241Z" fill="#FBCDBE"/>
<path d="M24.3708 18.4737C24.2112 18.4737 24.0494 18.434 23.9002 18.3507C23.5114 18.1333 23.0708 18.0184 22.6257 18.0184H21.9072C21.3737 18.0184 20.9414 17.586 20.9414 17.0527C20.9414 16.5193 21.3738 16.0869 21.9072 16.0869H22.6257C23.4002 16.0869 24.1669 16.2868 24.843 16.6649C25.3085 16.9253 25.4748 17.5138 25.2145 17.9793C25.0377 18.2954 24.7092 18.4737 24.3708 18.4737Z" fill="#FBCDBE"/>
<path d="M61.5561 18.6245V37.5966C61.5561 38.5946 61.2136 39.563 60.5864 40.3395L49.7747 53.7357C48.3774 55.4665 47.7801 57.7084 48.1289 59.9052L48.7094 63.5532C48.7468 63.7879 48.5654 64.0002 48.3279 64.0002H37.5348C37.3214 64.0002 37.1484 63.8272 37.1484 63.6139V50.9387C37.1484 48.465 38.1374 46.0944 39.8939 44.352L51.2864 33.0561C51.8402 32.5062 52.5626 32.232 53.2863 32.232C54.0074 32.232 54.7286 32.505 55.2823 33.051C55.8424 33.6047 56.1258 34.3375 56.1271 35.0715L56.8401 33.5116L56.1271 30.312V21.106C56.1271 20.014 56.5701 19.025 57.2847 18.309C58.0012 17.5937 58.9911 17.1506 60.0841 17.1514C60.8969 17.1519 61.5561 17.8116 61.5561 18.6245Z" fill="#FFBFAB"/>
<path d="M57.3693 38.8255L54.3355 42.1273L50.2843 46.5345C49.7793 47.084 48.9245 47.1201 48.3748 46.6152C47.825 46.1101 47.7887 45.255 48.294 44.7052L55.3786 36.9958C55.5382 36.8219 55.6722 36.6326 55.7803 36.433C56.0121 36.0106 56.1267 35.5419 56.1267 35.0745C56.1267 35.0733 56.1267 35.0733 56.1267 35.0719V30.3125C56.5027 30.5366 56.8568 30.8082 57.1813 31.1276C59.3163 33.2341 59.3987 36.6158 57.3693 38.8255Z" fill="#FBCDBE"/>
<path d="M2.44531 18.6245V37.5966C2.44531 38.5946 2.78781 39.563 3.41494 40.3395L14.2267 53.7357C15.6239 55.4665 16.2213 57.7084 15.8724 59.9052L15.2919 63.5532C15.2546 63.7879 15.4359 64.0002 15.6734 64.0002H26.4666C26.6799 64.0002 26.8529 63.8272 26.8529 63.6139V50.9387C26.8529 48.465 25.8639 46.0944 24.1074 44.352L12.7149 33.0561C12.1612 32.5062 11.4388 32.232 10.7151 32.232C9.99394 32.232 9.27281 32.505 8.71906 33.051C8.15894 33.6047 7.87556 34.3375 7.87431 35.0715L7.16131 33.5116L7.87431 30.312V21.106C7.87431 20.014 7.43131 19.025 6.71669 18.309C6.00019 17.5937 5.01031 17.1506 3.91731 17.1514C3.10444 17.1519 2.44531 17.8116 2.44531 18.6245Z" fill="#FFBFAB"/>
<path d="M6.63333 38.8246L9.66721 42.1264L13.7183 46.5336C14.2233 47.0831 15.0782 47.1193 15.6278 46.6144C16.1777 46.1093 16.214 45.2541 15.7087 44.7044L8.62421 36.9948C8.46458 36.8209 8.33058 36.6317 8.22246 36.432C7.99071 36.0097 7.87608 35.5409 7.87608 35.0735C7.87608 35.0723 7.87608 35.0723 7.87608 35.0709V30.3115C7.50008 30.5356 7.14596 30.8073 6.82146 31.1266C4.68633 33.2333 4.60396 36.6149 6.63333 38.8246Z" fill="#FBCDBE"/>
<path d="M19.875 46.6896C19.875 48.0392 20.095 49.3375 20.5019 50.55C22.5817 54.7975 26.5825 58.1667 31.9301 58.1667C38.6272 58.1667 43.501 53.3869 43.501 46.6897C43.501 41.3422 40.1157 37.6774 35.8619 35.1901C34.6493 34.7832 33.3509 34.5635 32.0012 34.5635C25.3041 34.5634 19.875 39.9925 19.875 46.6896Z" fill="#BFE8C8"/>
<path d="M44.1259 46.6898C44.1259 53.3873 38.6969 58.8163 31.9994 58.8163C26.6515 58.8163 22.1122 55.3549 20.5 50.5504C21.713 50.9587 23.0124 51.1788 24.3619 51.1788C31.0594 51.1788 36.4884 45.7498 36.4884 39.0523C36.4884 37.7028 36.2681 36.4034 35.86 35.1904C40.6645 36.8026 44.1259 41.3418 44.1259 46.6898Z" fill="#95D6A4"/>
<path d="M25.7302 44.4721H29.5252C29.6674 44.4721 29.7827 44.3569 29.7827 44.2146V40.4196C29.7827 40.2774 29.8979 40.1621 30.0402 40.1621H33.9599C34.1022 40.1621 34.2174 40.2774 34.2174 40.4196V44.2146C34.2174 44.3569 34.3327 44.4721 34.4749 44.4721H35.2128L38.0458 44.6652C38.188 44.6652 38.3033 44.7805 38.3033 44.9227L38.385 48.4707C38.385 48.613 38.2698 48.7282 38.1275 48.7282L34.2837 48.7155C34.1414 48.7155 34.0262 48.8307 34.0262 48.973L34.1549 52.6135C34.1549 52.7557 34.0397 52.871 33.8974 52.871L30.2649 53.0277C30.1227 53.0277 30.0074 52.9125 30.0074 52.7702L29.7827 49.9021V49.1645C29.7827 49.0222 29.6674 48.907 29.5252 48.907H25.7302C25.5879 48.907 25.4727 48.7917 25.4727 48.6495V44.7297C25.4727 44.5875 25.5879 44.4721 25.7302 44.4721Z" fill="#F5F8F9"/>
<path d="M38.53 44.7294V48.6493C38.53 48.7922 38.4142 48.9068 38.2725 48.9068H34.4775C34.3359 48.9068 34.22 49.0227 34.22 49.1643V52.9592C34.22 53.1021 34.1042 53.2167 33.9625 53.2167H30.0427C29.901 53.2167 29.7852 53.1021 29.7852 52.9592V49.9021C32.1302 48.7289 34.0424 46.8167 35.2155 44.4717H38.2725C38.4142 44.4719 38.53 44.5878 38.53 44.7294Z" fill="#E8EDF2"/>
</g>
<defs>
<clipPath id="clip0_11431_99131">
<rect width="64" height="64" fill="white"/>
</clipPath>
</defs>
</svg>
