<svg width="40" height="40" viewBox="0 0 40 40" fill="none" xmlns="http://www.w3.org/2000/svg">
<g clip-path="url(#clip0_14247_101067)">
<path d="M23.2197 7.03125C23.8669 7.03125 24.3916 6.50656 24.3916 5.85938C24.3916 5.21219 23.8669 4.6875 23.2197 4.6875H16.8135C16.1663 4.6875 15.6416 5.21219 15.6416 5.85938C15.6416 6.50656 16.1663 7.03125 16.8135 7.03125H23.2197Z" fill="#CB1B5B"/>
<path d="M27.9287 20.325H32.0712C32.7184 20.325 33.2431 19.8003 33.2431 19.1531C33.2431 18.5059 32.7184 17.9812 32.0712 17.9812H27.9287C27.2815 17.9812 26.7568 18.5059 26.7568 19.1531C26.7568 19.8003 27.2815 20.325 27.9287 20.325Z" fill="#CB1B5B"/>
<path d="M40 17.5906C40 15.438 38.4088 13.6503 36.3408 13.3413L36.3444 4.29688C36.3444 1.92758 34.4168 0 32.0475 0H7.98502C5.61572 0 3.68814 1.92758 3.68814 4.29688V22.0336L0.543378 26.2579C-0.077794 27.0924 -0.173653 28.1883 0.2933 29.1179C0.760253 30.0475 1.6965 30.625 2.73674 30.625H20V35.7031C20 38.0724 21.9276 40 24.2969 40H35.7031C38.0724 40 40 38.0724 40 35.7031V17.5906ZM35.7031 37.6562H24.2969C23.2199 37.6562 22.3438 36.7801 22.3438 35.7031V35.3125H37.6563V35.7031C37.6563 36.7801 36.7801 37.6562 35.7031 37.6562ZM22.3438 17.5906C22.3438 16.5137 23.2199 15.6375 24.2969 15.6375H35.7031C36.7801 15.6375 37.6563 16.5137 37.6563 17.5906V32.9688H22.3438V17.5906ZM6.03189 4.29688C6.03189 3.21992 6.90807 2.34375 7.98502 2.34375H32.0475C33.1245 2.34375 34.0006 3.21992 34.0006 4.29688L33.997 13.2938H24.2969C21.9276 13.2938 20 15.2213 20 17.5906V21.25H6.03189V4.29688ZM2.73674 28.2812C2.52705 28.2812 2.42807 28.1463 2.38767 28.0659C2.34721 27.9855 2.29814 27.8255 2.42338 27.6573L5.44853 23.5938H20V28.2812H2.73674Z" fill="#CB1B5B"/>
</g>
<defs>
<clipPath id="clip0_14247_101067">
<rect width="40" height="40" fill="white"/>
</clipPath>
</defs>
</svg>
