<svg width="48" height="65" viewBox="0 0 48 65" fill="none" xmlns="http://www.w3.org/2000/svg">
<path d="M13.9463 34.332C6.23861 34.332 7.86219e-06 40.5685 7.86219e-06 48.2762V63.2912C-0.0010806 63.5757 0.110887 63.849 0.311283 64.0509C0.51168 64.2529 0.784095 64.3669 1.06861 64.3681H46.1301C46.4146 64.3669 46.687 64.2529 46.8874 64.0509C47.0878 63.849 47.1998 63.5757 47.1987 63.2912V48.2762C47.1987 40.5685 40.9601 34.332 33.2524 34.332H13.9463Z" fill="#CB1B5B"/>
<path d="M13.9464 34.332C13.2147 34.332 12.5019 34.4038 11.8008 34.5121V46.1305H13.9464V34.332Z" fill="#C8D4D9"/>
<path d="M12.8714 45.0498C11.1067 45.0498 9.65625 46.5081 9.65625 48.2729C9.65625 50.0377 11.1067 51.4881 12.8714 51.4881C14.6362 51.4881 16.0946 50.0377 16.0946 48.2729C16.0946 46.5082 14.6362 45.0498 12.8714 45.0498Z" fill="#DBE9EE"/>
<path d="M12.8699 47.1953C13.4751 47.1954 13.9469 47.6671 13.9469 48.2723C13.9469 48.8775 13.4751 49.3414 12.8699 49.3414C12.2647 49.3414 11.8008 48.8775 11.8008 48.2723C11.8008 47.6671 12.2647 47.1953 12.8699 47.1953Z" fill="#C8D4D9"/>
<path d="M33.25 34.3322V45.0538H35.3977V34.5144C34.6959 34.4058 33.9825 34.3322 33.25 34.3322Z" fill="#C8D4D9"/>
<path d="M34.3302 43.9766C31.3771 43.9766 28.9609 46.3848 28.9609 49.3379V50.4149C28.9609 51.8456 31.1071 51.8456 31.1071 50.4149V49.3379C31.1071 47.5363 32.5287 46.1227 34.3302 46.1227C36.1317 46.1227 37.5454 47.5363 37.5454 49.3379V50.4149C37.5454 51.8456 39.6915 51.8456 39.6915 50.4149V49.3379C39.6915 46.3848 37.2833 43.9766 34.3302 43.9766Z" fill="#DBE9EE"/>
<path d="M18.1318 27.8879C17.8673 27.915 17.6223 28.0393 17.4442 28.2368C17.2661 28.4342 17.1677 28.6907 17.168 28.9565V35.3954C17.167 35.619 17.2358 35.8372 17.3649 36.0198L22.7268 43.5272C22.826 43.6669 22.9571 43.7807 23.1093 43.8593C23.2615 43.9379 23.4303 43.979 23.6016 43.979C23.7729 43.979 23.9416 43.9379 24.0938 43.8593C24.246 43.7807 24.3772 43.6669 24.4764 43.5272L29.8382 36.0198C29.9673 35.8372 30.0362 35.619 30.0352 35.3954V28.9565C30.0341 28.6735 29.9211 28.4024 29.7209 28.2022C29.5208 28.0021 29.2496 27.8891 28.9666 27.8879H18.2366C18.2024 27.8863 18.166 27.8863 18.1318 27.8879Z" fill="#FDCE97"/>
<path d="M39.6914 57.9229V64.368H46.1303C46.7227 64.3658 47.2011 63.8835 47.1989 63.2911V57.9229H39.6914Z" fill="#FDD5A6"/>
<path d="M7.50747 57.9229V64.368H1.06865C0.476187 64.3656 -0.00226215 63.8834 8.0456e-06 63.291V57.9229H7.50747Z" fill="#FDD5A6"/>
<path d="M23.5983 0C16.5011 0 10.7227 5.7807 10.7227 12.8778C10.7227 14.5906 10.9988 16.4115 11.4581 18.2375H35.7384C36.1981 16.4114 36.476 14.5905 36.476 12.8778C36.476 5.78065 30.6954 0 23.5983 0Z" fill="#ECF4FF"/>
<path d="M15.0181 17.7724C12.7097 16.1538 9.65625 17.89 9.65625 20.3653C9.65625 23.6937 12.3539 25.7471 15.0171 25.7471L15.0181 17.7724Z" fill="#FDCE97"/>
<path d="M32.1836 17.7724C34.492 16.1538 37.5455 17.89 37.5455 20.3653C37.5455 23.6937 34.8478 25.7471 32.1846 25.7471L32.1836 17.7724Z" fill="#FDCE97"/>
<path d="M25.6894 11.801C25.473 11.8117 25.2649 11.8876 25.0925 12.0189C24.92 12.1501 24.7914 12.3307 24.7235 12.5365C24.7235 12.5365 23.9559 15.0152 21.4527 15.0152H15.0139C14.7294 15.0163 14.457 15.1303 14.2566 15.3323C14.0562 15.5343 13.9442 15.8076 13.9453 16.0921V22.531C13.9453 27.8614 18.2679 32.184 23.5983 32.184C28.9287 32.184 33.2513 27.8614 33.2514 22.531V16.0921C33.2525 15.8076 33.1405 15.5343 32.9401 15.3323C32.7397 15.1303 32.4673 15.0163 32.1828 15.0152H30.0372C27.5339 15.0152 26.758 12.5365 26.758 12.5365C26.6846 12.314 26.5404 12.1217 26.3475 11.9889C26.1545 11.8561 25.9234 11.7901 25.6894 11.801Z" fill="#FDD5A6"/>
</svg>
