<svg width="64" height="64" viewBox="0 0 64 64" fill="none" xmlns="http://www.w3.org/2000/svg">
<g clip-path="url(#clip0_11527_94899)">
<path d="M37.8074 47.125L36.375 54.625H60.25C62.3211 54.625 64 52.9461 64 50.875C64 48.8039 62.3211 47.125 60.25 47.125H37.8074Z" fill="#989DEC"/>
<path d="M21.375 34V45.25H38.75V34H21.375Z" fill="#5E54AC"/>
<path d="M32 34H38.75V45.25H32V34Z" fill="#453D81"/>
<path d="M37 12.5H27C21.132 12.5 16.375 17.257 16.375 23.125V23.75L21.375 34H47.625V23.125C47.625 17.257 42.868 12.5 37 12.5Z" fill="#FFF5F5"/>
<path d="M37 12.5H32V34H47.625V23.125C47.625 17.257 42.868 12.5 37 12.5Z" fill="#E1EBF0"/>
<path d="M42 28.375V32.75H49.5V28.375C49.5 26.3039 47.8211 24.625 45.75 24.625C43.6789 24.625 42 26.3039 42 28.375Z" fill="#FBCDBE"/>
<path d="M32 41.5H17.8125C14.1881 41.5 11.25 44.4381 11.25 48.0625C11.25 51.6869 14.1881 54.625 17.8125 54.625H32L33.25 48.0625L32 41.5Z" fill="#DB4267"/>
<path d="M11.25 48.0625C11.25 51.6869 14.1881 54.625 17.8125 54.625H32L33.25 48.0625H11.25Z" fill="#EF7598"/>
<path d="M55.125 32.125H38.875C36.1136 32.125 33.875 34.3636 33.875 37.125V41.5H32V54.625H36.375C40.5171 54.625 43.875 51.2671 43.875 47.125V39.625H55.125C57.1961 39.625 58.875 37.9461 58.875 35.875C58.875 33.8039 57.1961 32.125 55.125 32.125Z" fill="#E2DFF4"/>
<path d="M0 62.125C0 63.1605 0.8395 64 1.875 64H62.125C63.1605 64 64 63.1605 64 62.125V60.25C64 57.1434 61.4816 54.625 58.375 54.625H5.625C2.51837 54.625 0 57.1434 0 60.25V62.125Z" fill="#FFF5F5"/>
<path d="M58.375 54.625H32V64H62.125C63.1605 64 64 63.1605 64 62.125V60.25C64 57.1434 61.4816 54.625 58.375 54.625Z" fill="#E1EBF0"/>
<path d="M32 13.75C35.797 13.75 38.875 10.672 38.875 6.875C38.875 3.07804 35.797 0 32 0C28.203 0 25.125 3.07804 25.125 6.875C25.125 10.672 28.203 13.75 32 13.75Z" fill="#FBCDBE"/>
<path d="M38.875 6.875C38.875 3.078 35.797 0 32 0V13.75C35.797 13.75 38.875 10.672 38.875 6.875Z" fill="#FDBBAB"/>
<path d="M23.875 28.375V23.75H16.375V30.875C16.375 33.6364 18.6136 35.875 21.375 35.875H33.875C35.9461 35.875 37.625 34.1961 37.625 32.125C37.625 30.0539 35.9461 28.375 33.875 28.375H23.875Z" fill="#FBCDBE"/>
<path d="M33.875 28.375H32V35.875H33.875C35.9461 35.875 37.625 34.1961 37.625 32.125C37.625 30.0539 35.9461 28.375 33.875 28.375Z" fill="#FDBBAB"/>
<path d="M32 48.0625V54.625H36.375C40.1994 54.625 43.3529 51.7619 43.8146 48.0625H32Z" fill="#F9F9F9"/>
<path d="M6.5625 54.625C10.1869 54.625 13.125 51.6869 13.125 48.0625C13.125 44.4381 10.1869 41.5 6.5625 41.5C2.93813 41.5 0 44.4381 0 48.0625C0 51.6869 2.93813 54.625 6.5625 54.625Z" fill="#FBCDBE"/>
<path d="M0 48.0625C0 51.6869 2.93812 54.625 6.5625 54.625C10.1869 54.625 13.125 51.6869 13.125 48.0625H0Z" fill="#FDBBAB"/>
</g>
<defs>
<clipPath id="clip0_11527_94899">
<rect width="64" height="64" fill="white"/>
</clipPath>
</defs>
</svg>
