<svg width="24" height="24" viewBox="0 0 24 24" fill="none" xmlns="http://www.w3.org/2000/svg">
<path fill-rule="evenodd" clip-rule="evenodd" d="M7.035 8.64112L11.031 4.06112C11.275 3.78112 11.629 3.62012 12 3.62012C12.371 3.62012 12.725 3.78112 12.969 4.06112L16.965 8.64112L20.778 6.23312C21.205 5.96412 21.75 5.96912 22.172 6.24712C22.594 6.52512 22.814 7.02512 22.734 7.52412L20.922 18.8461C20.781 19.7301 20.018 20.3801 19.124 20.3801H4.876C3.982 20.3801 3.219 19.7301 3.078 18.8461L1.266 7.52412C1.186 7.02512 1.406 6.52512 1.828 6.24712C2.25 5.96912 2.795 5.96412 3.222 6.23312L7.035 8.64112ZM2.822 7.75512L4.559 18.6091C4.584 18.7651 4.718 18.8801 4.876 18.8801H19.124C19.282 18.8801 19.416 18.7651 19.441 18.6091L21.178 7.75512L17.611 10.0071C17.075 10.3461 16.372 10.2431 15.955 9.76612L12 5.23212L8.045 9.76612C7.628 10.2431 6.925 10.3461 6.389 10.0071L2.822 7.75512Z" fill="#CB1B5B"/>
<path fill-rule="evenodd" clip-rule="evenodd" d="M20.037 15.1292C20.451 15.1292 20.787 15.4652 20.787 15.8792C20.787 16.2932 20.451 16.6292 20.037 16.6292H3.96301C3.54901 16.6292 3.21301 16.2932 3.21301 15.8792C3.21301 15.4652 3.54901 15.1292 3.96301 15.1292H20.037Z" fill="#CB1B5B"/>
</svg>
