<svg width="40" height="40" viewBox="0 0 40 40" fill="none" xmlns="http://www.w3.org/2000/svg">
<g clip-path="url(#clip0_11527_97765)">
<path d="M20 0C8.94602 0 0 8.945 0 20C0 31.0538 8.945 40 20 40C31.054 40 40 31.055 40 20C40 8.94602 31.055 0 20 0ZM20 37.2093C10.5108 37.2093 2.7907 29.4893 2.7907 20C2.7907 10.5107 10.5108 2.7907 20 2.7907C29.4893 2.7907 37.2093 10.5107 37.2093 20C37.2093 29.4893 29.4893 37.2093 20 37.2093Z" fill="#CB1B5B"/>
<path d="M19.409 25.3066C18.3033 25.3066 17.4082 26.228 17.4082 27.3337C17.4082 28.4131 18.277 29.3609 19.409 29.3609C20.541 29.3609 21.436 28.4131 21.436 27.3337C21.436 26.228 20.5146 25.3066 19.409 25.3066Z" fill="#CB1B5B"/>
<path d="M19.7507 9.95801C16.1966 9.95801 14.5645 12.0642 14.5645 13.4857C14.5645 14.5125 15.4332 14.9864 16.144 14.9864C17.5656 14.9864 16.9865 12.9592 19.6717 12.9592C20.988 12.9592 22.0411 13.5384 22.0411 14.7494C22.0411 16.171 20.5668 16.9871 19.698 17.7242C18.9345 18.3822 17.9342 19.4617 17.9342 21.7257C17.9342 23.0946 18.3028 23.4896 19.3821 23.4896C20.672 23.4896 20.9353 22.9104 20.9353 22.4101C20.9353 21.0412 20.9616 20.2514 22.4096 19.1194C23.1204 18.5666 25.358 16.7764 25.358 14.3018C25.358 11.8271 23.1204 9.95801 19.7507 9.95801Z" fill="#CB1B5B"/>
</g>
<defs>
<clipPath id="clip0_11527_97765">
<rect width="40" height="40" fill="white"/>
</clipPath>
</defs>
</svg>
