<svg width="40" height="40" viewBox="0 0 40 40" fill="none" xmlns="http://www.w3.org/2000/svg">
<rect width="40" height="40" rx="20" fill="white"/>
<g clip-path="url(#clip0_520_3272)">
<path d="M28.5251 18.9588C28.1801 18.9588 27.9001 18.6788 27.9001 18.3338C27.9001 15.9405 26.9686 13.6913 25.2769 11.9988C25.0327 11.7547 25.0327 11.3589 25.2769 11.1147C25.521 10.8706 25.9168 10.8706 26.1611 11.1147C28.0886 13.043 29.1501 15.6072 29.1501 18.3338C29.1501 18.6788 28.8701 18.9588 28.5251 18.9588Z" fill="#CB1B5B"/>
<path d="M11.4453 18.9583C11.1003 18.9583 10.8203 18.6783 10.8203 18.3333C10.8203 15.6067 11.882 13.0425 13.8103 11.115C14.0544 10.8708 14.4504 10.8708 14.6945 11.115C14.9387 11.3591 14.9387 11.7551 14.6945 11.9992C13.002 13.6908 12.0703 15.94 12.0703 18.3333C12.0703 18.6783 11.7903 18.9583 11.4453 18.9583Z" fill="#CB1B5B"/>
<path d="M19.9844 30C18.261 30 16.8594 28.5983 16.8594 26.875C16.8594 26.53 17.1394 26.25 17.4844 26.25C17.8294 26.25 18.1094 26.53 18.1094 26.875C18.1094 27.9092 18.9501 28.75 19.9844 28.75C21.0185 28.75 21.8594 27.9092 21.8594 26.875C21.8594 26.53 22.1394 26.25 22.4844 26.25C22.8294 26.25 23.1094 26.53 23.1094 26.875C23.1094 28.5983 21.7077 30 19.9844 30Z" fill="#CB1B5B"/>
<path d="M26.8647 27.5H13.1147C12.3104 27.5 11.6562 26.8459 11.6562 26.0417C11.6562 25.6149 11.8421 25.2109 12.1664 24.9333C13.4337 23.8625 14.1562 22.3059 14.1562 20.6567V18.3333C14.1562 15.1167 16.773 12.5 19.9897 12.5C23.2062 12.5 25.823 15.1167 25.823 18.3333V20.6567C25.823 22.3059 26.5455 23.8625 27.8046 24.9275C28.1371 25.2109 28.323 25.6149 28.323 26.0417C28.323 26.8459 27.6688 27.5 26.8647 27.5ZM19.9897 13.75C17.4621 13.75 15.4062 15.8058 15.4062 18.3333V20.6567C15.4062 22.6741 14.5222 24.5792 12.9813 25.8817C12.9522 25.9067 12.9062 25.9584 12.9062 26.0417C12.9062 26.1549 13.0013 26.25 13.1147 26.25H26.8647C26.9779 26.25 27.073 26.1549 27.073 26.0417C27.073 25.9584 27.0272 25.9067 26.9996 25.8833C25.4571 24.5792 24.573 22.6741 24.573 20.6567V18.3333C24.573 15.8058 22.5172 13.75 19.9897 13.75Z" fill="#CB1B5B"/>
<path d="M19.9844 13.75C19.6394 13.75 19.3594 13.47 19.3594 13.125V10.625C19.3594 10.28 19.6394 10 19.9844 10C20.3294 10 20.6094 10.28 20.6094 10.625V13.125C20.6094 13.47 20.3294 13.75 19.9844 13.75Z" fill="#CB1B5B"/>
</g>
<defs>
<clipPath id="clip0_520_3272">
<rect width="20" height="20" fill="white" transform="translate(10 10)"/>
</clipPath>
</defs>
</svg>
