<svg width="40" height="40" viewBox="0 0 40 40" fill="none" xmlns="http://www.w3.org/2000/svg">
<rect width="40" height="40" rx="20" fill="white"/>
<path d="M24.8581 29.9975C28.1798 29.9975 30.8725 27.3048 30.8725 23.9831C30.8725 20.6615 28.1798 17.9688 24.8581 17.9688C21.5365 17.9688 18.8438 20.6615 18.8438 23.9831C18.8438 27.3048 21.5365 29.9975 24.8581 29.9975Z" stroke="#CB1B5B" stroke-miterlimit="10" stroke-linecap="round"/>
<path d="M22.5312 26.7255C23.7615 26.7255 25.1284 26.7255 26.3586 26.7255C27.5888 26.4521 28.4089 25.4953 28.4089 24.4018C28.4089 23.1715 27.042 22.078 25.6751 22.2147C24.9917 22.2147 24.1715 22.2147 23.4881 22.2147" stroke="#CB1B5B" stroke-miterlimit="10" stroke-linecap="round"/>
<path d="M24.1714 20.4375C23.3512 21.121 22.5311 21.8044 21.7109 22.3512C22.3944 22.8979 23.2145 23.5814 23.898 24.1281" stroke="#CB1B5B" stroke-miterlimit="10" stroke-linecap="round" stroke-linejoin="round"/>
<path d="M18.9825 25.2127C14.7451 25.3494 11.7379 25.3494 11.0544 25.2127C10.5076 25.2127 10.2343 24.9393 10.0976 24.8026C9.82419 24.5292 9.6875 24.2558 9.6875 23.8458V14.6875H24.1767C24.1767 15.781 24.1767 16.8746 24.1767 17.9681C23.7666 17.9681 21.4429 18.2415 19.9393 20.4285C18.4357 22.4789 18.9825 24.9393 18.9825 25.2127Z" stroke="#CB1B5B" stroke-miterlimit="10" stroke-linecap="round"/>
<path d="M24.9928 14.6906H9V11.6835C9 11.4101 9.27338 11 9.68345 11H24.446C24.7194 11 25.1295 11.2734 25.1295 11.6835V14.6906H24.9928Z" stroke="#CB1B5B" stroke-miterlimit="10" stroke-linecap="round"/>
</svg>
