<svg width="24" height="25" viewBox="0 0 24 25" fill="none" xmlns="http://www.w3.org/2000/svg">
<mask id="mask0_106_2691" style="mask-type:alpha" maskUnits="userSpaceOnUse" x="0" y="0" width="24" height="25">
<rect y="24.0684" width="24" height="24" transform="rotate(-90 0 24.0684)" fill="#D9D9D9"/>
</mask>
<g mask="url(#mask0_106_2691)">
<path d="M1 11.6519C1 11.1586 1.36657 10.7509 1.84217 10.6864L1.97439 10.6775L19.1028 10.6783L12.9148 4.5156C12.5335 4.1359 12.5322 3.51895 12.9119 3.13761C13.257 2.79094 13.7983 2.75832 14.1804 3.04053L14.2898 3.13464L22.1499 10.9609C22.2002 11.011 22.2438 11.0651 22.2809 11.1223C22.2914 11.1396 22.302 11.1572 22.3121 11.1751C22.3214 11.1905 22.3298 11.2065 22.3377 11.2227C22.3487 11.2462 22.3595 11.2705 22.3692 11.2954C22.3771 11.3145 22.3838 11.3331 22.3898 11.3518C22.397 11.3751 22.404 11.3998 22.41 11.425C22.4144 11.4426 22.418 11.4595 22.421 11.4764C22.4254 11.5017 22.4291 11.5278 22.4317 11.5542C22.434 11.5744 22.4353 11.5944 22.4361 11.6144C22.4363 11.6265 22.4365 11.6392 22.4365 11.6519L22.436 11.6897C22.4353 11.7088 22.434 11.7279 22.4321 11.747L22.4365 11.6519C22.4365 11.7134 22.4308 11.7736 22.4199 11.8319C22.4174 11.8458 22.4144 11.8601 22.4111 11.8744C22.4041 11.9037 22.3961 11.932 22.3869 11.9596C22.3824 11.9734 22.3771 11.9881 22.3715 12.0027C22.3601 12.032 22.3478 12.06 22.3341 12.0872C22.3278 12.1 22.3207 12.1134 22.3133 12.1267C22.3011 12.1483 22.2886 12.1689 22.2753 12.1889C22.266 12.2031 22.2556 12.2179 22.2448 12.2324L22.2364 12.2436C22.2101 12.2779 22.1816 12.3104 22.1511 12.3409L22.15 12.3418L14.2899 20.1694C13.9086 20.5491 13.2916 20.5479 12.9119 20.1665C12.5667 19.8199 12.5364 19.2785 12.8202 18.8977L12.9148 18.7886L19.1002 12.6271L1.97439 12.6263C1.43625 12.6263 1 12.1901 1 11.6519Z" fill="#CB1B5B"/>
</g>
</svg>
