<svg width="64" height="64" viewBox="0 0 64 64" fill="none" xmlns="http://www.w3.org/2000/svg">
<g clip-path="url(#clip0_11431_98957)">
<path d="M15.1926 12.5906L11.2101 8.60811L13.9124 5.90586C14.9665 4.85173 14.2826 3.04686 12.7945 2.95686L1.83363 2.29523C0.797877 2.23248 -0.0596233 3.08986 0.00325166 4.12573L0.664877 15.0866C0.754877 16.5746 2.55975 17.2586 3.61388 16.2045L6.31613 13.5022L10.2986 17.4847C5.61163 24.4536 6.34725 33.9854 12.5088 40.1469C19.5079 47.146 30.8565 47.146 37.8556 40.1469C44.8548 33.1477 44.854 21.8 37.8549 14.8009C31.6931 8.63923 22.1614 7.90348 15.1926 12.5906ZM33.8555 36.1469C29.065 40.9374 21.2991 40.9375 16.5086 36.1469C11.7189 31.3571 11.7189 23.5912 16.5094 18.8007C21.2991 14.011 29.065 14.011 33.8548 18.8007C38.6454 23.5912 38.6452 31.3571 33.8555 36.1469Z" fill="#95D6A4"/>
<path d="M37.4461 27.4434C37.4541 30.5927 36.2567 33.7445 33.8538 36.1472C31.8577 38.1434 29.3448 39.3046 26.7461 39.6372C30.3842 40.103 34.1908 38.9417 36.9853 36.1472C39.1162 34.0164 40.2991 31.2965 40.534 28.5115" fill="#95D6A4"/>
<path d="M3.79638 15.0866L3.13475 4.12573C3.089 3.37273 3.53075 2.71598 4.17263 2.43648L1.83363 2.29523C0.797877 2.23248 -0.0596233 3.08998 0.00325166 4.12573L0.664877 15.0866C0.754877 16.5746 2.55975 17.2586 3.61388 16.2045L4.00288 15.8156C3.887 15.603 3.81288 15.3584 3.79638 15.0866Z" fill="#95D6A4"/>
<path d="M15.6405 40.1469C9.47891 33.9854 8.74328 24.4536 13.4304 17.4848L7.88216 11.9365L6.31641 13.5023L10.2989 17.4846C5.61178 24.4535 6.34753 33.9853 12.509 40.1468C16.4072 44.0449 21.6545 45.7709 26.7482 45.3268C22.6962 44.9736 18.7414 43.2478 15.6405 40.1469Z" fill="#95D6A4"/>
<path d="M63.9982 27.042C63.9982 17.1438 55.9736 9.11914 46.0753 9.11914C36.1771 9.11914 28.1523 17.1438 28.1523 27.042C28.1523 35.7558 34.3721 43.0159 42.6141 44.6294V48.3991H38.1452C37.0857 48.3991 36.2266 49.2583 36.2266 50.3178V53.4018C36.2266 54.4613 37.0857 55.3204 38.1452 55.3204H42.6141V59.7893C42.6141 60.8499 43.4732 61.7079 44.5338 61.7079H47.6178C48.6773 61.7079 49.5365 60.8499 49.5365 59.7893V55.3204H54.0053C55.0648 55.3204 55.924 54.4613 55.924 53.4018V50.3178C55.924 49.2583 55.0648 48.3991 54.0053 48.3991H49.5365V44.6294C57.7785 43.016 63.9982 35.7558 63.9982 27.042ZM58.3415 27.042C58.3415 33.8158 52.8502 39.307 46.0753 39.307C39.3016 39.307 33.8092 33.8158 33.8092 27.042C33.8092 20.2671 39.3016 14.7759 46.0753 14.7759C52.8502 14.7759 58.3415 20.2671 58.3415 27.042Z" fill="#D82E3D"/>
<path d="M47.5703 39.2169C48.0598 39.2762 48.5579 39.3075 49.0634 39.3075C55.8383 39.3075 61.3296 33.8162 61.3296 27.0425C61.3296 20.2676 55.8383 14.7764 49.0634 14.7764C48.5579 14.7764 48.0598 14.8076 47.5703 14.867C53.6406 15.6037 58.3431 20.7731 58.3431 27.0425C58.3432 33.3107 53.6407 38.4801 47.5703 39.2169Z" fill="#D82E3D"/>
<path d="M42.6141 48.3991H45.6006V44.6294C37.3586 43.0159 31.1388 35.7558 31.1388 27.042C31.1388 17.6468 38.3691 9.94052 47.5685 9.18152C47.076 9.14089 46.5782 9.11914 46.0752 9.11914C36.177 9.11914 28.1523 17.1439 28.1523 27.042C28.1523 35.7558 34.3721 43.0159 42.6141 44.6294V48.3991Z" fill="#D82E3D"/>
<path d="M45.5998 59.7892V55.3203H42.6133V59.7892C42.6133 60.8498 43.4724 61.7078 44.533 61.7078H47.5195C46.4589 61.7078 45.5998 60.8498 45.5998 59.7892Z" fill="#D82E3D"/>
<path d="M39.2131 53.402V50.318C39.2131 49.2585 40.0722 48.3994 41.1317 48.3994H38.1452C37.0857 48.3994 36.2266 49.2585 36.2266 50.318V53.402C36.2266 54.4615 37.0857 55.3207 38.1452 55.3207H41.1317C40.0722 55.3207 39.2131 54.4615 39.2131 53.402Z" fill="#D82E3D"/>
<path d="M42.1979 21.8415C41.0181 23.4934 39.2669 24.7087 37.2339 25.1998C36.7944 22.8553 35.6676 20.6155 33.8525 18.8003C32.6591 17.6069 31.2821 16.7115 29.8125 16.1128L33.4634 11.5762C35.0432 12.3994 36.5264 13.4744 37.8531 14.801C39.9009 16.8477 41.3487 19.267 42.1979 21.8415Z" fill="#95D6A4"/>
<path d="M37.446 27.4425C37.438 24.3139 36.2403 21.1877 33.853 18.8003C31.8572 16.8045 29.3446 15.6435 26.7461 15.3109C30.3841 14.8452 34.1905 16.0063 36.9845 18.8003C39.6438 21.4597 40.8268 25.0358 40.5338 28.5107L38.8237 28.2174L37.446 27.4425Z" fill="#95D6A4"/>
</g>
<defs>
<clipPath id="clip0_11431_98957">
<rect width="64" height="64" fill="white"/>
</clipPath>
</defs>
</svg>
