<svg width="40" height="44" viewBox="0 0 40 44" fill="none" xmlns="http://www.w3.org/2000/svg">
<path d="M39.6993 22.0548V5.51362C39.6993 5.22119 39.5829 4.94059 39.3762 4.73382C39.1694 4.52706 38.8892 4.41075 38.5964 4.41075H37.4935H37.4939C36.909 4.41075 36.3478 4.17851 35.9343 3.76498C35.5207 3.35145 35.2881 2.79028 35.2881 2.20538V1.1025C35.2881 0.810075 35.1722 0.529839 34.9654 0.322705C34.7587 0.11594 34.4781 0 34.1856 0H5.51356C4.90472 0 4.41107 0.493656 4.41107 1.1025V2.20537C4.41107 2.79022 4.17846 3.35144 3.76493 3.76497C3.3514 4.1785 2.79051 4.41074 2.20533 4.41074H0.860295C0.358889 4.51523 -0.000368349 4.95756 2.83428e-07 5.46966V22.5846C0.00110798 27.9985 2.0462 33.2126 5.72666 37.1834C9.40713 41.1541 14.4511 43.5887 19.8491 44C25.2475 43.5887 30.2918 41.1541 33.9715 37.1834C37.652 33.2124 39.697 27.9986 39.6982 22.5846C39.7203 22.4081 39.6982 22.2316 39.6982 22.0551L39.6993 22.0548ZM19.8498 41.9043C15.0351 41.49 10.5509 39.2843 7.2832 35.7235C4.01636 32.1623 2.2042 27.5049 2.20524 22.6729V22.1434V6.61644C3.37531 6.61644 4.49738 6.15158 5.32444 5.32452C6.1515 4.49709 6.61635 3.37502 6.61635 2.20532H33.0823C33.0823 3.37502 33.5471 4.49708 34.3742 5.32452C35.2016 6.15158 36.3233 6.61644 37.4934 6.61644V22.0546V22.5841C37.517 27.4283 35.7182 32.1042 32.4535 35.6838C29.1889 39.263 24.6976 41.4835 19.8718 41.9041L19.8498 41.9043Z" fill="#4D4D4D"/>
<path d="M30.5456 13.6079C30.7542 13.815 30.8716 14.0968 30.8716 14.391C30.8716 14.6849 30.7542 14.9666 30.5456 15.1738L18.0849 27.6572H18.0845C17.8777 27.8662 17.5957 27.9836 17.3018 27.9836C17.0079 27.9836 16.7258 27.8662 16.5186 27.6572L10.2773 21.4159C10.0694 21.208 9.95312 20.9266 9.95312 20.6327C9.95312 20.3392 10.0694 20.0575 10.2773 19.85C10.7097 19.4176 11.4108 19.4176 11.8431 19.85L17.2907 25.3196L29.0019 13.6085V13.6081C29.4309 13.1879 30.1169 13.1879 30.546 13.6081L30.5456 13.6079Z" fill="#4D4D4D"/>
</svg>
