<svg width="64" height="64" viewBox="0 0 64 64" fill="none" xmlns="http://www.w3.org/2000/svg">
<path d="M63.9996 15.9434V25.1609L34.1965 28.7733L0 25.1609V15.9434C0 15.0304 0.7405 14.29 1.6535 14.29H62.3462C63.2591 14.2899 63.9996 15.0304 63.9996 15.9434Z" fill="#FFDFCF"/>
<path d="M6.74375 14.29C5.83075 14.29 5.09037 15.0305 5.09037 15.9434V27.0483L0 25.161V15.9435C0 15.0305 0.7405 14.2902 1.6535 14.2902L6.74375 14.29Z" fill="#FFCEBF"/>
<path d="M63.9996 43.7563L36.0047 46.8794L0 43.7563V25.1611H63.9996" fill="#DD636E"/>
<path d="M5.09037 25.1611V44.1975L0 43.7558V25.1611H5.09037Z" fill="#FD8087"/>
<path d="M19.5216 18.9344H7.08684C6.55347 18.9344 6.12109 18.5021 6.12109 17.9687C6.12109 17.4353 6.55347 17.0029 7.08684 17.0029H19.5216C20.055 17.0029 20.4873 17.4353 20.4873 17.9687C20.4873 18.5021 20.055 18.9344 19.5216 18.9344Z" fill="#FFCEBF"/>
<path d="M27.7833 22.6102H15.3486C14.8152 22.6102 14.3828 22.1778 14.3828 21.6445C14.3828 21.1111 14.8152 20.6787 15.3486 20.6787H27.7833C28.3167 20.6787 28.7491 21.1111 28.7491 21.6445C28.7491 22.1778 28.3167 22.6102 27.7833 22.6102Z" fill="#FFCEBF"/>
<path d="M47.4163 19.0653H34.9814C34.4479 19.0653 34.0156 18.6329 34.0156 18.0995C34.0156 17.5662 34.448 17.1338 34.9814 17.1338H47.4163C47.9498 17.1338 48.382 17.5662 48.382 18.0995C48.382 18.6329 47.9498 19.0653 47.4163 19.0653Z" fill="#FFCEBF"/>
<path d="M57.2327 22.6102H44.7978C44.2643 22.6102 43.832 22.1778 43.832 21.6445C43.832 21.1111 44.2644 20.6787 44.7978 20.6787H57.2327C57.7662 20.6787 58.1984 21.1111 58.1984 21.6445C58.1984 22.1778 57.7662 22.6102 57.2327 22.6102Z" fill="#FFCEBF"/>
<path d="M32.8502 44.0433C32.8502 44.5777 32.4176 45.009 31.8845 45.009C31.3501 45.009 30.9187 44.5777 30.9187 44.0433C30.9187 42.14 29.416 40.1247 27.9633 38.1764C26.1347 35.7245 24.2431 33.1878 24.8265 30.3689C24.9346 29.846 25.4458 29.51 25.9673 29.6182C26.4901 29.7263 26.8262 30.2375 26.7181 30.759C26.4232 32.1794 27.1508 33.6603 28.1963 35.2043C28.4268 34.6197 28.7513 34.0505 29.081 33.4698C29.8021 32.2039 30.6172 30.7694 30.9276 28.6343C31.0048 28.1063 31.4942 27.7407 32.0222 27.8179C32.5502 27.8939 32.916 28.3845 32.84 28.9125C32.4768 31.4082 31.5252 33.0809 30.7603 34.4253C29.7211 36.2525 29.4353 36.8925 30.3482 38.1572C30.3495 38.1584 30.3508 38.161 30.3521 38.1623C31.6848 40.0114 32.8502 41.9352 32.8502 44.0433Z" fill="#BC0000"/>
<path d="M53.4903 43.9367C53.31 44.242 52.988 44.4132 52.6572 44.4132C52.4898 44.4132 52.321 44.3694 52.1678 44.2794C51.708 44.009 51.5548 43.4179 51.8253 42.9581C52.54 41.7425 52.4125 40.3325 51.9798 38.8181C51.9785 38.8155 51.9785 38.813 51.9772 38.8104C51.4157 37.242 50.3173 36.5814 49.0475 35.8151C47.4328 34.8416 45.6029 33.7392 45.1328 30.6976C45.0504 30.171 45.4123 29.6777 45.9389 29.5966C46.4643 29.5142 46.96 29.876 47.0412 30.4027C47.3734 32.552 48.5517 33.2615 50.0442 34.1604C50.1639 34.2325 50.2849 34.3059 50.4073 34.3806C49.726 32.2919 49.3952 30.2006 50.5863 28.2665C50.867 27.8132 51.4619 27.6715 51.9152 27.951C52.3697 28.2317 52.5114 28.8267 52.2307 29.28C51.1632 31.0132 52.0182 33.2706 52.9222 35.6606C53.9203 38.2952 55.0509 41.2815 53.4903 43.9367Z" fill="#BC0000"/>
<path d="M17.9999 29.5667C17.4725 29.4844 16.9794 29.8462 16.8979 30.3735C16.5721 32.479 15.416 33.1756 13.9524 34.0575C13.8463 34.1215 13.7387 34.1865 13.6309 34.2524C14.2926 32.2081 14.608 30.1615 13.4401 28.2668C13.1601 27.8128 12.5652 27.6715 12.1111 27.9514C11.6571 28.2312 11.5159 28.8262 11.7957 29.2804C12.8417 30.9772 12.0026 33.1938 11.1144 35.5403C10.132 38.135 9.01862 41.076 10.5577 43.6939C10.7377 43.9999 11.0601 44.1702 11.3912 44.1702C11.5576 44.1702 11.7261 44.1273 11.8799 44.0369C12.3397 43.7666 12.4932 43.1746 12.2229 42.7149C11.5216 41.522 11.6487 40.1366 12.0755 38.6475C12.625 37.113 13.7023 36.4635 14.9494 35.7121C16.54 34.7536 18.3429 33.6672 18.8068 30.6689C18.8881 30.1417 18.527 29.6484 17.9999 29.5667Z" fill="#BC0000"/>
<path d="M63.9996 43.7557V48.0567C63.9996 48.9697 63.2593 49.7101 62.3461 49.7101H1.6535C0.7405 49.7101 0 48.9697 0 48.0567V43.7557C0.893625 42.9663 2.06675 42.4873 3.35188 42.4873C4.61775 42.4873 5.77413 42.9522 6.66263 43.7222C7.11338 44.1123 7.77387 44.1123 8.22587 43.7209C9.11187 42.9522 10.2695 42.4873 11.5366 42.4873C12.8038 42.4873 13.9601 42.9522 14.8474 43.7209C15.2994 44.1123 15.9586 44.1123 16.4106 43.7222C17.2979 42.9522 18.4555 42.4873 19.7214 42.4873C20.9885 42.4873 22.1449 42.9522 23.0334 43.7222C23.4841 44.1123 24.1446 44.1123 24.5966 43.7209C25.4826 42.9522 26.6402 42.4873 27.9074 42.4873C29.1732 42.4873 30.3309 42.9534 31.2181 43.7222C31.6701 44.1137 32.3295 44.1137 32.7814 43.7222C33.6686 42.9534 34.8262 42.4873 36.0921 42.4873C37.3592 42.4873 38.5156 42.9522 39.4041 43.7222C39.8549 44.1123 40.5154 44.1123 40.9674 43.7209C41.8534 42.9522 43.011 42.4873 44.2781 42.4873C45.544 42.4873 46.7016 42.9534 47.5889 43.7222C48.0409 44.1137 48.7001 44.1137 49.1521 43.7222C50.0394 42.9534 51.197 42.4873 52.4629 42.4873C53.73 42.4873 54.8864 42.9522 55.7736 43.7209C56.2256 44.1123 56.8849 44.1123 57.3369 43.7222C58.2241 42.9522 59.3818 42.4873 60.6489 42.4873C61.9341 42.4873 63.1073 42.9663 63.9996 43.7557Z" fill="#FFEEE6"/>
<path d="M6.74375 49.711H1.6535C0.7405 49.711 0 48.9707 0 48.0577V43.7567C0.893625 42.9673 2.06675 42.4883 3.35187 42.4883C3.96225 42.4883 4.5495 42.5964 5.09025 42.796V48.0577C5.09037 48.9705 5.83075 49.711 6.74375 49.711Z" fill="#FFDFCF"/>
</svg>
