<svg width="40" height="40" viewBox="0 0 40 40" fill="none" xmlns="http://www.w3.org/2000/svg">
<rect width="40" height="40" rx="20" fill="white"/>
<path d="M25.1431 29.0049C28.3028 29.0049 30.8643 26.4435 30.8643 23.2837C30.8643 20.124 28.3028 17.5625 25.1431 17.5625C21.9834 17.5625 19.4219 20.124 19.4219 23.2837C19.4219 26.4435 21.9834 29.0049 25.1431 29.0049Z" stroke="#CB1B5B" stroke-miterlimit="10" stroke-linecap="round"/>
<path d="M19.5436 24.5189C15.5205 24.5973 12.5684 24.5842 11.9023 24.5189C11.3537 24.4536 11.1055 24.2185 11.0402 24.1662C10.8181 23.9442 10.6875 23.6437 10.6875 23.3041V14.4219H24.5726C24.5726 15.4799 24.5726 16.5379 24.5726 17.596C24.2329 17.6352 21.9993 17.8833 20.5102 19.8949C19.0081 21.9457 19.4783 24.1924 19.5436 24.5189Z" stroke="#CB1B5B" stroke-miterlimit="10" stroke-linecap="round"/>
<path d="M25.2696 14.4223H10V11.5878C10 11.2612 10.2612 11 10.5878 11H24.6688C24.9953 11 25.2566 11.2612 25.2566 11.5878V14.4223H25.2696Z" stroke="#CB1B5B" stroke-miterlimit="10" stroke-linecap="round"/>
<path d="M27.6278 20.6641C25.9558 22.336 24.297 23.9949 22.625 25.6669" stroke="#CB1B5B" stroke-miterlimit="10" stroke-linecap="round"/>
<path d="M27.6434 25.6669C25.9715 23.9949 24.3126 22.336 22.6406 20.6641" stroke="#CB1B5B" stroke-miterlimit="10" stroke-linecap="round"/>
</svg>
