<svg width="41" height="41" viewBox="0 0 41 41" fill="none" xmlns="http://www.w3.org/2000/svg">
<g clip-path="url(#clip0_9549_63407)">
<path d="M30.7022 5.21747L9.57692 13.6669H3.84375C1.72542 13.6669 0 15.3923 0 17.5106V22.2086C0 24.221 1.58021 25.6252 3.84375 25.6252H5.29583L6.847 36.4834C6.93754 37.1155 7.47738 37.5836 8.11458 37.5836H13.2396C13.6052 37.5836 13.952 37.4281 14.1963 37.1565C14.4388 36.8849 14.555 36.5227 14.514 36.1588L13.5061 27.1969L30.7005 34.0746C30.8559 34.1361 31.0165 34.1669 31.1771 34.1669C31.4282 34.1669 31.681 34.0917 31.8963 33.9465C32.2482 33.7074 32.4583 33.311 32.4583 32.8856V6.40648C32.4583 5.9811 32.2482 5.58477 31.8963 5.3456C31.5427 5.10643 31.0951 5.0586 30.7022 5.21747ZM2.5625 22.2086V17.5106C2.5625 16.8051 3.13821 16.2294 3.84375 16.2294H8.54167V23.0627H3.84375C3.2595 23.0627 2.5625 22.9141 2.5625 22.2086ZM11.8063 35.0211H9.225L7.88396 25.6252H9.57692L10.8086 26.1172L11.8063 35.0211ZM29.8958 30.9945L12.5118 24.0399C12.4384 24.0057 12.3683 23.9699 12.288 23.9494L11.1042 23.4761V15.816L29.8958 8.29931V30.9945Z" fill="#CB1B5B"/>
<path d="M36.2472 15.9487L40.518 12.532C41.0698 12.0895 41.1604 11.2832 40.7179 10.7297C40.2737 10.1796 39.4691 10.0908 38.9156 10.5298L34.6448 13.9465C34.093 14.389 34.0024 15.1953 34.4449 15.7488C34.6977 16.0631 35.0701 16.2288 35.446 16.2288C35.7279 16.2288 36.0097 16.1366 36.2472 15.9487Z" fill="#CB1B5B"/>
<path d="M36.2472 25.0513C35.6971 24.6123 34.8908 24.7011 34.4449 25.2512C34.0024 25.803 34.093 26.611 34.6448 27.0535L38.9156 30.4702C39.1531 30.6581 39.4349 30.7503 39.7168 30.7503C40.0926 30.7503 40.4651 30.5846 40.7179 30.2703C41.1604 29.7185 41.0698 28.9104 40.518 28.468L36.2472 25.0513Z" fill="#CB1B5B"/>
<path d="M39.7161 19.2188H35.4453C34.7381 19.2188 34.1641 19.7928 34.1641 20.5C34.1641 21.2072 34.7381 21.7812 35.4453 21.7812H39.7161C40.4234 21.7812 40.9974 21.2072 40.9974 20.5C40.9974 19.7928 40.4234 19.2188 39.7161 19.2188Z" fill="#CB1B5B"/>
</g>
<defs>
<clipPath id="clip0_9549_63407">
<rect width="41" height="41" fill="white"/>
</clipPath>
</defs>
</svg>
