<svg width="64" height="64" viewBox="0 0 64 64" fill="none" xmlns="http://www.w3.org/2000/svg">
<g clip-path="url(#clip0_11527_95030)">
<path d="M34.8006 3.47173e-05C32.41 10.7767 30.0192 21.5533 27.6286 32.3299C30.0192 42.8867 32.41 53.4434 34.8006 64H54.5094C55.1281 64 55.7069 63.695 56.0569 63.185C56.4056 62.675 56.4819 62.025 56.2581 61.4475C54.1251 55.9419 52.9889 45.6587 56.8094 38.7038C56.986 38.3823 56.9756 38.4305 57.2069 38.0125C57.5862 37.3267 60.4274 32.0539 60.4081 25.4113C60.3782 15.0908 53.4627 8.01878 52.8544 7.41503C45.5374 0.15466 36.518 -0.00284028 34.8006 3.47173e-05Z" fill="#FBCDBE"/>
<path d="M3.81453 38.5875C4.21828 39.8913 5.15078 40.9863 6.37453 41.5913L8.36203 42.5737L8.34453 49.2412C8.3439 49.6576 8.40891 53.7803 11.922 56.3413C14.4619 58.1928 17.511 58.2855 19.5833 57.6463C19.7059 57.6084 19.8063 57.5739 19.8733 57.55L25.477 55.595C27.7433 58.0813 28.1345 62.2388 28.1395 62.285C28.2245 63.2525 29.0358 64 30.007 64H34.8008V0C20.6808 0 9.19328 11.4875 9.19328 25.6075C9.19328 25.6737 9.19328 25.7412 9.19453 25.81L4.22953 34.6625C3.56203 35.8537 3.41078 37.2838 3.81453 38.5875Z" fill="#FDBBAB"/>
<path d="M28.4964 16H41.3038C43.9204 16 46 18.1235 46 20.697V33.5036C46 34.6942 44.6685 35.4088 43.6764 34.7472L39.2503 31.7969H28.4964C25.9069 31.7969 23.8005 29.6894 23.8005 27.0999V20.697C23.8005 18.0788 25.9256 16 28.4964 16ZM39.7026 25.3932C40.5277 25.3932 41.1971 24.7234 41.1971 23.8987C41.1971 23.0735 40.5277 22.4041 39.7026 22.4041C38.8778 22.4041 38.208 23.0735 38.208 23.8987C38.208 24.7234 38.8778 25.3932 39.7026 25.3932ZM34.9001 25.3932C35.7252 25.3932 36.3946 24.7234 36.3946 23.8987C36.3946 23.0735 35.7252 22.4041 34.9001 22.4041C34.0749 22.4041 33.4055 23.0735 33.4055 23.8987C33.4055 24.7234 34.0749 25.3932 34.9001 25.3932ZM30.0976 25.3932C30.9227 25.3932 31.5922 24.7234 31.5922 23.8987C31.5922 23.0735 30.9227 22.4041 30.0976 22.4041C29.2725 22.4041 28.603 23.0735 28.603 23.8987C28.603 24.7234 29.2725 25.3932 30.0976 25.3932Z" fill="white"/>
<path d="M28.4967 16H34.9004V22.4041C34.0753 22.4041 33.4058 23.0735 33.4058 23.8987C33.4058 24.7234 34.0753 25.3932 34.9004 25.3932V31.7969H28.4967C25.9073 31.7969 23.8009 29.6894 23.8009 27.0999V20.697C23.8009 18.0788 25.9259 16 28.4967 16ZM30.0979 25.3932C30.923 25.3932 31.5925 24.7234 31.5925 23.8987C31.5925 23.0735 30.923 22.4041 30.0979 22.4041C29.2728 22.4041 28.6033 23.0735 28.6033 23.8987C28.6033 24.7234 29.2728 25.3932 30.0979 25.3932Z" fill="#CB1B5B"/>
</g>
<defs>
<clipPath id="clip0_11527_95030">
<rect width="64" height="64" fill="white" transform="matrix(-1 0 0 1 64 0)"/>
</clipPath>
</defs>
</svg>
