<svg width="40" height="40" viewBox="0 0 40 40" fill="none" xmlns="http://www.w3.org/2000/svg">
<mask id="mask0_95_936" style="mask-type:alpha" maskUnits="userSpaceOnUse" x="0" y="0" width="40" height="40">
<rect width="40" height="40" fill="#D9D9D9"/>
</mask>
<g mask="url(#mask0_95_936)">
<path fill-rule="evenodd" clip-rule="evenodd" d="M27.3347 3.07715C33.0699 3.07715 36.9233 7.10146 36.9233 13.0888V26.9116C36.9233 32.899 33.0699 36.9233 27.333 36.9233H12.6641C6.92884 36.9233 3.07715 32.899 3.07715 26.9116V13.0888C3.07715 7.10146 6.92884 3.07715 12.6641 3.07715H27.3347ZM27.3347 5.61561H12.6641C8.38253 5.61561 5.61561 8.54838 5.61561 13.0888V26.9116C5.61561 31.4521 8.38253 34.3848 12.6641 34.3848H27.333C31.6162 34.3848 34.3848 31.4521 34.3848 26.9116V13.0888C34.3848 8.54838 31.6179 5.61561 27.3347 5.61561ZM19.9987 11.3417C20.6993 11.3417 21.2679 11.9103 21.2679 12.6109V19.2719L26.3889 22.3231C26.9896 22.6835 27.1876 23.462 26.8289 24.0645C26.5902 24.4622 26.1689 24.6839 25.7373 24.6839C25.5156 24.6839 25.2922 24.6263 25.0875 24.5062L19.3489 21.0826C18.9664 20.8525 18.7295 20.4379 18.7295 19.9928V12.6109C18.7295 11.9103 19.2981 11.3417 19.9987 11.3417Z" fill="#CB1B5B"/>
</g>
</svg>
