<svg width="40" height="47" viewBox="0 0 40 47" fill="none" xmlns="http://www.w3.org/2000/svg">
<path d="M25.4239 1.80859H20.0001V5.19842H23.7289V11.5826C23.7289 17.19 19.1667 21.7522 13.5593 21.7522C7.95193 21.7522 3.38983 17.1901 3.38983 11.5827V5.19842H7.00569V1.80859H1.69491C0.758747 1.80859 0 2.56734 0 3.50351V11.5827C0 19.0596 6.0825 25.1421 13.5594 25.1421C21.0363 25.1421 27.1188 19.0596 27.1188 11.5827V3.50351C27.1188 2.56734 26.3601 1.80859 25.4239 1.80859Z" fill="#CB1B5B"/>
<path d="M32.0345 26.5528V34.5755C32.0345 39.2484 28.2327 43.0501 23.5598 43.0501C18.8869 43.0501 15.0851 39.2484 15.0851 34.5755V23.502H11.6953V34.5755C11.6953 41.1173 17.0173 46.44 23.5598 46.44C30.1016 46.44 35.4243 41.1173 35.4243 34.5755V26.5528H32.0345Z" fill="#CB1B5B"/>
<path d="M33.7249 15.5928C30.2662 15.5928 27.4531 18.4058 27.4531 21.864C27.4531 25.3217 30.2662 28.1353 33.7244 28.1353C37.1826 28.1353 39.9956 25.3217 39.9962 21.864C39.9961 18.4058 37.1826 15.5928 33.7249 15.5928ZM33.7244 24.7455C32.1351 24.7455 30.8424 23.4528 30.8424 21.8641C30.8424 20.2754 32.135 18.9828 33.7244 18.9828C35.3131 18.9828 36.6057 20.2754 36.6057 21.8641C36.6057 23.4528 35.3131 24.7455 33.7244 24.7455Z" fill="#CB1B5B"/>
<path d="M6.95273 0C6.01656 0 5.25781 0.758747 5.25781 1.69491V5.31078C5.25781 6.24694 6.01656 7.00569 6.95273 7.00569C7.88889 7.00569 8.64764 6.24694 8.64764 5.31078V1.69491C8.64764 0.758747 7.88889 0 6.95273 0Z" fill="#CB1B5B"/>
<path d="M20.0543 0C19.1181 0 18.3594 0.758747 18.3594 1.69491V5.31078C18.3594 6.24694 19.1181 7.00569 20.0543 7.00569C20.9905 7.00569 21.7492 6.24694 21.7492 5.31078V1.69491C21.7492 0.758747 20.9905 0 20.0543 0Z" fill="#CB1B5B"/>
</svg>
