<svg width="64" height="64" viewBox="0 0 64 64" fill="none" xmlns="http://www.w3.org/2000/svg">
<g clip-path="url(#clip0_11431_98608)">
<path d="M46.8735 42.2379L38.0771 42.7265C34.906 43.5506 31.8853 40.2936 30.0364 37.1734C25.412 29.369 27.5704 16.5818 27.5704 16.5818C24.4754 10.5546 20.37 9.10051 20.37 9.10051C18.9194 8.59701 17.3762 8.31001 15.7795 8.27563C6.97625 8.08688 1.03125 14.3559 1.03125 23.7555C1.03125 42.51 18.4159 60.9168 36.128 60.9168C41.2185 60.9168 46.518 59.0296 49.943 54.3428C50.4551 53.642 51.1291 51.1564 51.1291 51.1564C50.05 44.5184 46.8735 42.2379 46.8735 42.2379Z" fill="#DD636E"/>
<path d="M60.5425 38.4595C58.4811 36.9832 55.8167 36.6282 53.3623 37.2645L38.0857 41.2254C34.9146 42.0495 31.4566 40.5112 30.0375 37.1735C29.3223 35.4917 29.4577 33.5989 30.1402 31.9034C31.282 29.0672 31.501 25.5033 30.9581 22.4967C30.7587 21.3927 31.0677 20.2587 31.8617 19.466L31.8871 19.4408C34.603 16.7298 36.1291 13.0499 36.1291 9.21255V1.04592C36.1291 0.475797 35.667 0.0136719 35.0968 0.0136719H33.0323C32.4622 0.0136719 32.0001 0.475797 32.0001 1.04592V9.2128C32.0001 11.2548 31.4111 13.2062 30.3138 14.8728C29.7616 15.7117 28.5455 15.6829 27.9675 14.8614C26.089 12.1915 23.4545 10.163 20.3711 9.10067C25.0032 11.2312 25.8868 19.7694 23.7593 28.869C23.1797 31.3482 23.0056 33.9054 23.1315 36.4482L23.1316 36.45C23.3406 40.6717 25.8897 44.4233 29.7377 46.1723L29.7733 46.1884C32.8835 47.6022 36.3738 47.9475 39.7008 47.1708L41.7725 46.6872C47.1532 45.2579 52.1433 48.6982 49.9443 54.3427C51.7991 51.8148 53.09 48.4945 53.5223 44.1873C53.5856 43.5579 53.8242 42.956 54.2342 42.4744C55.2947 41.2287 57.1966 40.985 58.4378 42.051L58.4492 42.0608C59.3521 42.8383 59.8712 43.9705 59.8712 45.1619V62.9532C59.8712 63.534 60.3505 64.0007 60.9311 63.985L62.9956 63.9297C63.5547 63.9147 64.0002 63.457 64.0002 62.8978V45.179C64.0001 42.4994 62.735 40.0299 60.5425 38.4595Z" fill="#DA4A54"/>
<path d="M37.5069 40.2437C37.5069 49.3653 30.7979 56.1248 21.6763 56.1248C13.6698 56.1248 9.25203 51.126 9.25203 51.126C6.70441 48.2199 5.16016 44.4122 5.16016 40.2437C5.16016 31.122 12.5547 23.7275 21.6763 23.7275C25.8444 23.7275 29.6519 25.2715 32.558 27.8188C32.558 27.8188 37.5069 32.2199 37.5069 40.2437Z" fill="#D82E3D"/>
<path d="M21.6781 50.5661C27.3791 50.5661 32.0007 45.9446 32.0007 40.2435C32.0007 34.5425 27.3791 29.9209 21.6781 29.9209C15.9771 29.9209 11.3555 34.5425 11.3555 40.2435C11.3555 45.9446 15.9771 50.5661 21.6781 50.5661Z" fill="#DA4A54"/>
<path d="M21.6774 61.9207C9.72475 61.9207 0 52.1958 0 40.2432C0 39.6726 0.46175 39.2109 1.03225 39.2109C1.60275 39.2109 2.0645 39.6727 2.0645 40.2432C2.0645 51.0577 10.8629 59.8561 21.6774 59.8561C22.248 59.8561 22.7096 60.3178 22.7096 60.8883C22.7096 61.4588 22.248 61.9207 21.6774 61.9207Z" fill="#95D6A4"/>
<path d="M41.8228 36.7468C41.35 36.7468 40.9235 36.4202 40.8168 35.9403C39.8389 31.5733 37.355 27.6318 33.8218 24.8436C33.3751 24.4897 33.2986 23.8406 33.6514 23.3929C34.0053 22.9484 34.6544 22.8708 35.102 23.2226C39.0053 26.3052 41.7501 30.6611 42.8309 35.4887C42.9559 36.0452 42.6061 36.5976 42.0496 36.7216C41.9729 36.7387 41.8973 36.7468 41.8228 36.7468Z" fill="#95D6A4"/>
<path d="M25.8059 39.211H24.7736C23.6334 39.211 22.7091 38.2867 22.7091 37.1465V36.1143C22.7091 35.5437 22.2474 35.082 21.6769 35.082C21.1064 35.082 20.6446 35.5438 20.6446 36.1143V37.1465C20.6446 38.2868 19.7202 39.211 18.5801 39.211H17.5479C16.9772 39.211 16.5156 39.6728 16.5156 40.2433C16.5156 40.8138 16.9774 41.2755 17.5479 41.2755H18.5801C19.7204 41.2755 20.6446 42.1999 20.6446 43.34V44.3723C20.6446 44.9429 21.1064 45.4045 21.6769 45.4045C22.2474 45.4045 22.7091 44.9428 22.7091 44.3723V43.34C22.7091 42.1998 23.6335 41.2755 24.7736 41.2755H25.8059C26.3765 41.2755 26.8381 40.8138 26.8381 40.2433C26.8381 39.6728 26.3764 39.211 25.8059 39.211Z" fill="white"/>
<path d="M21.6768 41.2754C22.2469 41.2754 22.709 40.8133 22.709 40.2432C22.709 39.6731 22.2469 39.2109 21.6768 39.2109C21.1067 39.2109 20.6445 39.6731 20.6445 40.2432C20.6445 40.8133 21.1067 41.2754 21.6768 41.2754Z" fill="#FB4455"/>
<path d="M32.5599 27.8184C35.1054 30.724 36.6459 34.5284 36.6459 38.6949C36.6459 47.8165 29.2514 55.211 20.1298 55.211C15.9633 55.211 12.1595 53.6711 9.25391 51.1256C12.2812 54.5812 16.7232 56.7594 21.6782 56.7594C30.7998 56.7594 38.1943 49.3649 38.1943 40.2432C38.1943 35.2882 36.0157 30.8457 32.5599 27.8184Z" fill="#DD636E"/>
</g>
<defs>
<clipPath id="clip0_11431_98608">
<rect width="64" height="64" fill="white"/>
</clipPath>
</defs>
</svg>
