<svg width="40" height="40" viewBox="0 0 40 40" fill="none" xmlns="http://www.w3.org/2000/svg">
<rect width="40" height="40" rx="10" fill="#FFF9FB"/>
<path d="M22.1135 15.4406C22.1135 16.0118 21.6504 16.4749 21.0792 16.4749C20.7959 16.4749 19.7734 16.4795 19.7734 16.4795C19.7734 16.4795 19.7734 15.7285 19.7734 15.4406C19.7734 15.2041 19.7734 14.4062 19.7734 14.4062C19.7734 14.4062 20.7444 14.4062 21.0792 14.4062C21.6504 14.4063 22.1135 14.8693 22.1135 15.4406Z" stroke="#CB1B5B" stroke-width="1.2" stroke-miterlimit="10" stroke-linecap="round" stroke-linejoin="round"/>
<path d="M22.5171 17.6855C22.5171 18.3538 21.9754 18.8955 21.3072 18.8955C20.9758 18.8955 19.7734 18.9008 19.7734 18.9008C19.7734 18.9008 19.7734 18.0224 19.7734 17.6855C19.7734 17.4089 19.7734 16.4756 19.7734 16.4756C19.7734 16.4756 20.9156 16.4756 21.3072 16.4756C21.9754 16.4756 22.5171 17.0173 22.5171 17.6855Z" stroke="#CB1B5B" stroke-width="1.2" stroke-miterlimit="10" stroke-linecap="round" stroke-linejoin="round"/>
<path d="M12.083 14.8664C12.083 14.8664 11.2764 14.1884 10.3253 14.4749C9.45189 14.738 9.32973 15.7451 9.9616 16.157C9.9616 16.157 10.5816 16.4336 11.2693 16.6873C12.9247 17.2979 12.2116 18.8994 10.8789 18.8994C10.2116 18.8994 9.65148 18.6072 9.3125 18.2331" stroke="#CB1B5B" stroke-width="1.2" stroke-miterlimit="10" stroke-linecap="round" stroke-linejoin="round"/>
<path d="M27.169 14.8664C27.169 14.8664 26.3624 14.1884 25.4112 14.4749C24.5378 14.738 24.4157 15.7451 25.0475 16.157C25.0475 16.157 25.6676 16.4336 26.3552 16.6873C28.0106 17.2979 27.2975 18.8994 25.9649 18.8994C25.2975 18.8994 24.7374 18.6072 24.3984 18.2331" stroke="#CB1B5B" stroke-width="1.2" stroke-miterlimit="10" stroke-linecap="round" stroke-linejoin="round"/>
<path d="M14.3438 14.4043V17.4974C14.3438 18.0242 14.605 18.3788 15.0489 18.6624C15.2651 18.8005 15.5382 18.8989 15.8775 18.8994C16.1714 18.8998 16.4169 18.8318 16.62 18.7295C17.1373 18.469 17.4672 18.0734 17.4672 17.4942V14.4043" stroke="#CB1B5B" stroke-width="1.2" stroke-miterlimit="10" stroke-linecap="round" stroke-linejoin="round"/>
<path d="M20.8298 11.0001H27.6604C28.7482 11.0001 29.6302 11.882 29.6302 12.9698V20.3361C29.6302 20.8438 29.4381 21.3064 29.123 21.6555L25.8043 21.2587L25.9294 22.3058H8.96975C7.88195 22.3058 7 21.4239 7 20.3361V12.9697C7 11.8819 7.88195 11 8.96975 11H16.0045" stroke="#CB1B5B" stroke-width="1.2" stroke-miterlimit="10" stroke-linecap="round" stroke-linejoin="round"/>
<path d="M25.8047 21.2588L26.673 28.5219L28.073 25.6422L31.9541 29.5233L34.0004 27.4769L30.1193 23.5958L33.0679 22.1271L25.8047 21.2588Z" stroke="#CB1B5B" stroke-width="1.2" stroke-miterlimit="10" stroke-linecap="round" stroke-linejoin="round"/>
</svg>
