<svg width="64" height="64" viewBox="0 0 64 64" fill="none" xmlns="http://www.w3.org/2000/svg">
<g clip-path="url(#clip0_11431_98726)">
<path d="M20.6641 38.6463C22.9713 37.1608 22.7132 30.6763 22.7132 29.6445H41.2834C41.2834 30.6762 40.9972 37.1608 43.3043 38.6463L31.9983 49.2465L20.6641 38.6463Z" fill="#FFD7A3"/>
<path d="M39.2216 40.993L43.3059 38.6463C40.9987 37.161 41.285 30.6763 41.285 29.6445H22.7148C24.0472 33.4752 32.8596 40.0473 39.2216 40.993Z" fill="#FDC88E"/>
<path d="M42.1653 37.1198C39.9841 38.2581 36.2474 39.0098 31.9984 39.0098C27.7355 39.0098 23.9894 38.2529 21.8114 37.1084C21.5254 37.7779 21.1557 38.3291 20.6641 38.6456L31.9984 49.2458L43.3044 38.6456C42.8156 38.331 42.4487 37.784 42.1653 37.1198Z" fill="#527992"/>
<path d="M45.7112 18.2955C47.3993 17.9085 48.5052 18.7352 48.5052 20.3589C48.5052 22.5082 46.2351 27.774 43.8486 24.4855C41.4621 21.197 45.7112 18.2955 45.7112 18.2955Z" fill="#FFE1B2"/>
<path d="M18.0518 18.2955C16.5053 17.9085 15.4922 18.7352 15.4922 20.3589C15.4922 22.5082 17.5719 27.774 19.7582 24.4855C21.9445 21.197 18.0518 18.2955 18.0518 18.2955Z" fill="#FFE1B2"/>
<path d="M46.4414 16.232C46.4414 24.4937 41.6842 34.8021 31.998 34.8021C22.3119 34.8021 17.5547 24.4937 17.5547 16.232C17.5547 4.8747 24.0213 0.748047 31.998 0.748047C39.9748 0.748047 46.4414 4.93929 46.4414 16.232Z" fill="#FFE1B2"/>
<path d="M46.4202 15.6713C46.2027 4.81261 39.8367 0.748047 31.9972 0.748047C24.157 0.748047 17.7904 4.75131 17.5742 15.6715C21.3012 13.0595 23.7439 8.73968 23.7439 3.84307C23.7439 3.81626 23.74 3.79024 23.7398 3.76343C25.9316 5.73088 28.82 6.9381 31.9972 6.9381C35.1744 6.9381 38.0628 5.73088 40.2546 3.76343C40.2544 3.79024 40.2505 3.81626 40.2505 3.84307C40.2507 8.73968 42.6933 13.0593 46.4202 15.6713Z" fill="#DCDCDC"/>
<path d="M17.5547 16.2322C17.5547 17.3282 17.6411 18.4605 17.8088 19.5997L18.5863 19.3184L20.0027 19.7845C20.0027 19.7845 19.6179 15.228 22.1112 12.0471C23.6933 10.0285 25.0987 7.68397 23.7447 3.84345C23.6413 3.54995 23.5201 3.27104 23.392 2.99902C19.8558 5.29023 17.5547 9.4727 17.5547 16.2322Z" fill="#7E5449"/>
<path d="M46.489 16.2322C46.489 17.3282 46.4026 18.4605 46.2349 19.5997L45.4107 19.3184L44.041 19.7845C44.041 19.7845 44.4258 15.228 41.9325 12.0471C40.3504 10.0285 38.945 7.68397 40.299 3.84345C40.4025 3.54995 40.5236 3.27104 40.6517 2.99902C44.1879 5.29023 46.489 9.4727 46.489 16.2322Z" fill="#7E5449"/>
<path d="M32.0217 11.9678C37.3153 11.9678 42.265 12.8802 46.4883 14.4645C45.834 3.96281 39.6117 0 32.0217 0C24.4296 0 18.2058 3.90481 17.5547 14.4645C21.7781 12.8802 26.728 11.9678 32.0217 11.9678Z" fill="#CB1B5B"/>
<path d="M17.8093 19.5995L23.6162 28.2163L24.1577 26.2305L17.5938 17.4785C17.6303 18.1309 17.7156 18.9356 17.8093 19.5995Z" fill="#D0D7DC"/>
<path d="M46.2742 19.5995L40.4673 28.2163L39.9258 26.2305L46.4898 17.4785C46.4531 18.1309 46.3678 18.9356 46.2742 19.5995Z" fill="#D0D7DC"/>
<path d="M29.5853 20.5351L23.9733 22.9124C23.2104 23.2355 22.7148 23.9837 22.7148 24.8123V30.6231C25.025 33.1423 28.115 34.8027 31.9999 34.8027C35.8848 34.8027 38.9748 33.1423 41.285 30.6231V24.8123C41.285 23.9837 40.7894 23.2355 40.0265 22.9124L34.4145 20.5351C32.871 19.8815 31.1287 19.8815 29.5853 20.5351Z" fill="#E4EBF0"/>
<path d="M50.962 38.8711L46.2755 37.6998C45.7465 37.5677 45.1788 37.6365 44.7191 37.9298C41.8028 39.7899 37.2042 40.9922 32.0226 40.9922C26.8342 40.9922 22.231 39.7866 19.3154 37.9225C18.8555 37.6283 18.287 37.5589 17.7572 37.6914L13.0365 38.8711C8.71309 40.2544 5.17578 45.1005 5.17578 49.64V60.9048C5.17578 62.6142 6.56142 63.9998 8.27081 63.9998H31.9992H55.7277C57.4371 63.9998 58.8227 62.6142 58.8227 60.9048V49.64C58.8227 45.1004 55.2854 40.2544 50.962 38.8711Z" fill="#CB1B5B"/>
<path d="M17.9574 55.8826C18.5272 55.8826 18.989 55.4207 18.989 54.851C18.989 54.2812 18.5272 53.8193 17.9574 53.8193C17.3877 53.8193 16.9258 54.2812 16.9258 54.851C16.9258 55.4207 17.3877 55.8826 17.9574 55.8826Z" fill="#E4EBF0"/>
<path d="M17.9574 50.7234C18.5272 50.7234 18.989 50.2615 18.989 49.6918C18.989 49.122 18.5272 48.6602 17.9574 48.6602C17.3877 48.6602 16.9258 49.122 16.9258 49.6918C16.9258 50.2615 17.3877 50.7234 17.9574 50.7234Z" fill="#E4EBF0"/>
<path d="M17.9574 61.0408C18.5272 61.0408 18.989 60.5789 18.989 60.0092C18.989 59.4394 18.5272 58.9775 17.9574 58.9775C17.3877 58.9775 16.9258 59.4394 16.9258 60.0092C16.9258 60.5789 17.3877 61.0408 17.9574 61.0408Z" fill="#E4EBF0"/>
</g>
<defs>
<clipPath id="clip0_11431_98726">
<rect width="64" height="64" fill="white"/>
</clipPath>
</defs>
</svg>
