<svg width="64" height="64" viewBox="0 0 64 64" fill="none" xmlns="http://www.w3.org/2000/svg">
<path d="M25 63L24.303 57.424C24.101 55.81 24 54.184 24 52.557C24 47.565 24.953 42.619 26.807 37.984L27.529 36.179C27.84 35.4 28 34.569 28 33.73C28 31.982 27.305 30.305 26.069 29.069C24.034 27.034 21.712 25.306 19.178 23.942C13.132 20.686 7.866 16.154 3.745 10.66L1 7V1H34L49.442 21.319C51.75 24.356 53 28.065 53 31.88C53 34.59 52.369 37.262 51.157 39.686C48.423 45.153 47 51.183 47 57.296V63H25Z" fill="#DD636E"/>
<path d="M34 1H1V2.5L4 6L6.745 9.661C10.865 15.155 16.131 19.687 22.178 22.943C24.712 24.308 27.034 26.035 29.069 28.07C30.305 29.305 31 30.982 31 32.73C31 33.569 30.84 34.4 30.529 35.178L29.807 36.983C27.953 41.619 27 46.565 27 51.557C27 53.184 27.101 54.81 27.303 56.424L28 62L28.167 63H47V57.296C47 51.183 48.423 45.153 51.157 39.685C52.369 37.262 53 34.589 53 31.88C53 28.065 51.75 24.356 49.442 21.319L34 1Z" fill="#D82E3D"/>
<path d="M31.409 43.3338C31.139 42.2898 31 41.2108 31 40.1208C31 38.7628 31.54 37.4598 32.5 36.4998C32.888 36.1118 33.332 35.7918 33.814 35.5488L40.241 35.9538C41.159 36.4038 42.006 37.0048 42.743 37.7418C43.548 38.5478 44 39.6398 44 40.7778V42.9498C44 46.9808 43.799 51.0088 43.398 55.0198C43.133 57.6718 43 60.3348 43 62.9998H37V59.9378C37 56.1668 36.069 52.4658 34.306 49.1578L31.409 43.3338Z" fill="#969696"/>
<path d="M44 42.9501V40.7781C44 39.6391 43.548 38.5481 42.743 37.7421C42.006 37.0051 41.159 36.4041 40.241 35.9541L35.626 35.6631C35.219 35.8911 34.836 36.1641 34.5 36.4991C33.54 37.4591 33 38.7621 33 40.1201C33 41.2101 33.139 42.2891 33.409 43.3331L36.305 49.1571C38.069 52.4661 39 56.1671 39 59.9381V63.0001H43C43 60.3351 43.133 57.6721 43.398 55.0201C43.799 51.0091 44 46.9811 44 42.9501Z" fill="#B5B5B5"/>
<path d="M30 63V47.6C30 46.54 30.171 45.487 30.506 44.482C30.801 43.597 31.629 43 32.562 43C33.443 43 34.249 43.498 34.643 44.286C34.874 44.749 34.945 45.275 34.843 45.783C34.283 48.587 34 51.441 34 54.301V63" fill="#C9C9C9"/>
<path d="M43.9992 40.7778C43.9992 39.6388 43.5472 38.5478 42.7422 37.7418C42.0052 37.0048 41.1582 36.4038 40.2402 35.9538L33.8132 35.5488C33.3322 35.7918 32.8882 36.1108 32.4992 36.4998C32.1572 36.8418 31.8902 37.2368 31.6602 37.6528C35.0082 40.8498 39.3882 42.7348 43.9982 42.9738C43.9982 42.9658 43.9982 42.9578 43.9982 42.9498L43.9992 40.7778Z" fill="#DDDDDD"/>
<path d="M19 1L39 22C42.314 22 45 24.686 45 28V28.838C45 30.726 43.792 32.403 42 33L41.909 33.363C41.375 35.5 39.454 37 37.251 37C35.288 37 33.522 35.805 32.793 33.982C32.269 32.673 32 31.276 32 29.866V28L9 1H19Z" fill="#C9C9C9"/>
<path d="M44.9991 28.838V28C44.9991 24.686 42.3131 22 38.9991 22L18.9991 1H12.7031L33.9991 26V27.866C33.9991 29.276 34.2681 30.673 34.7921 31.982C35.5211 33.805 37.2861 35 39.2501 35C39.9881 35 40.6991 34.893 41.3461 34.684C41.5911 34.28 41.7891 33.841 41.9081 33.363L41.9991 33C43.7911 32.403 44.9991 30.726 44.9991 28.838Z" fill="#DDDDDD"/>
<path d="M40.0583 27.504L39.5543 27.168L38.4453 28.832L38.9493 29.168C40.2323 30.024 40.9993 31.457 40.9993 33V35.173C41.4153 34.649 41.7383 34.044 41.9083 33.363L41.9993 33C42.3493 32.883 42.6693 32.715 42.9693 32.522C42.8233 30.495 41.7653 28.643 40.0583 27.504Z" fill="#969696"/>
</svg>
