<svg width="64" height="64" viewBox="0 0 64 64" fill="none" xmlns="http://www.w3.org/2000/svg">
<g clip-path="url(#clip0_11431_98487)">
<path d="M59.8167 36.7167C59.558 36.3254 54.0028 27.9051 52.5003 25.6376C52.5015 23.0337 52.5015 21.6087 52.5015 21.6087C52.5015 21.5274 52.4965 21.4474 52.4865 21.3662C50.9102 9.23704 39.8224 -0.923277 26.5007 0.0667543C13.8266 1.00303 3.875 11.7909 3.875 24.6238C3.875 31.5252 6.81759 38.1304 11.9465 42.7456C13.8478 44.4544 15.2504 46.7707 15.2504 49.3183V62.1249C15.2504 63.16 16.0904 64 17.1254 64H26.6007L28.0633 61.7499L30.3833 64H35.751C36.786 64 37.6261 63.16 37.6261 62.1249C37.6261 59.0236 40.1499 56.4998 43.2512 56.4998H47.0013C50.1027 56.4998 52.6265 53.9759 52.6265 50.8746V48.9995L49.8764 47.2495L52.6265 45.2494C52.6265 42.1481 55.1504 39.6242 58.2517 39.6242C59.748 39.6242 60.6355 37.9579 59.8167 36.7167Z" fill="#FFBFAB"/>
<path d="M58.251 39.6242C55.1496 39.6242 52.6258 42.1481 52.6258 45.2494L49.8757 47.2495L52.6258 48.9995V50.8746C52.6258 53.9759 50.102 56.4998 47.0006 56.4998H43.2505C40.1492 56.4998 37.6253 59.0236 37.6253 62.1249C37.6253 63.16 36.7853 64 35.7503 64H30.3826L28.0625 61.7499L26.6 64H26.5V0.0667543C39.8217 -0.923277 50.9095 9.23704 52.4858 21.3662C52.4958 21.4474 52.5008 21.5274 52.5008 21.6087C52.5008 21.6087 52.5008 23.0337 52.4996 25.6376C54.0021 27.9051 59.5573 36.3254 59.816 36.7167C60.6348 37.9579 59.7473 39.6242 58.251 39.6242Z" fill="#FBCDBE"/>
<path d="M52.6262 45.249V48.9991H43.3759C35.5349 48.9991 29.2524 55.9007 30.4455 63.9996H26.6629C26.5554 63.5758 26.5254 63.1508 26.5104 62.7258C26.1794 53.187 33.7984 45.249 43.3759 45.249H52.6262Z" fill="#D82E3D"/>
</g>
<defs>
<clipPath id="clip0_11431_98487">
<rect width="64" height="64" fill="white"/>
</clipPath>
</defs>
</svg>
