<svg width="18" height="13" viewBox="0 0 18 13" fill="none" xmlns="http://www.w3.org/2000/svg">
<path d="M1.99571 5.50001C1.79571 5.32001 1.52571 5.25001 1.18571 5.29001C0.845714 5.33001 0.565714 5.45001 0.345714 5.65001C0.125714 5.85001 0.0107143 6.11001 0.000714286 6.43001C-0.00928571 6.75001 0.0857143 7.01002 0.285714 7.21001L5.17571 12.34C5.39571 12.54 5.65071 12.64 5.94071 12.64C6.23071 12.64 6.47571 12.54 6.67571 12.34L16.8757 2.35001C17.0757 2.15001 17.1557 1.88501 17.1157 1.55501C17.0757 1.22501 16.9507 0.950015 16.7407 0.730015C16.5307 0.510015 16.2457 0.400015 15.8857 0.400015C15.5257 0.400015 15.2457 0.510015 15.0457 0.730015L5.98571 9.70001L1.99571 5.50001Z" fill="#CB1B5B"/>
</svg>
