<svg width="24" height="24" viewBox="0 0 24 24" fill="none" xmlns="http://www.w3.org/2000/svg">
<circle opacity="0.6" cx="12" cy="12" r="12" fill="#CB1B5B"/>
<path d="M14.3769 18.3452H9.62264C9.14698 18.3383 8.69144 18.1521 8.34712 17.8239C8.00281 17.4956 7.79509 17.0495 7.7655 16.5747L7.20217 8.00708C7.19928 7.94496 7.20873 7.88289 7.22999 7.82445C7.25124 7.76601 7.28386 7.71236 7.32598 7.6666C7.36936 7.61919 7.42189 7.58103 7.4804 7.55444C7.53891 7.52784 7.6022 7.51335 7.66645 7.51184H16.3331C16.3968 7.5117 16.4598 7.52465 16.5182 7.5499C16.5767 7.57514 16.6293 7.61214 16.6729 7.65858C16.7164 7.70503 16.7499 7.75993 16.7714 7.81989C16.7928 7.87984 16.8016 7.94356 16.7974 8.00708L16.2588 16.5747C16.2289 17.0537 16.0177 17.5034 15.6682 17.8323C15.3186 18.1611 14.8569 18.3445 14.3769 18.3452ZM8.18645 8.44041L8.66312 16.519C8.67887 16.7626 8.78687 16.991 8.96514 17.1578C9.14341 17.3246 9.37853 17.4171 9.62264 17.4166H14.3769C14.6206 17.4156 14.8549 17.3226 15.0329 17.1561C15.2108 16.9897 15.3193 16.7621 15.3365 16.519L15.8379 8.47137L8.18645 8.44041Z" fill="white"/>
<path d="M17.5713 8.44041H6.4284C6.30526 8.44041 6.18717 8.3915 6.1001 8.30443C6.01303 8.21736 5.96411 8.09926 5.96411 7.97613C5.96411 7.85299 6.01303 7.7349 6.1001 7.64783C6.18717 7.56076 6.30526 7.51184 6.4284 7.51184H17.5713C17.6944 7.51184 17.8125 7.56076 17.8996 7.64783C17.9866 7.7349 18.0355 7.85299 18.0355 7.97613C18.0355 8.09926 17.9866 8.21736 17.8996 8.30443C17.8125 8.3915 17.6944 8.44041 17.5713 8.44041Z" fill="white"/>
<path d="M13.857 8.44038H10.1428C10.0201 8.43877 9.90295 8.38934 9.81623 8.30262C9.7295 8.21589 9.68007 8.09873 9.67847 7.97609V6.86181C9.68631 6.54412 9.81601 6.24162 10.0407 6.01692C10.2654 5.79221 10.5679 5.66251 10.8856 5.65466H13.1142C13.4372 5.66274 13.7442 5.79674 13.9697 6.02806C14.1952 6.25938 14.3214 6.56969 14.3213 6.89276V7.97609C14.3197 8.09873 14.2703 8.21589 14.1836 8.30262C14.0968 8.38934 13.9797 8.43877 13.857 8.44038ZM10.607 7.51181H13.3928V6.89276C13.3928 6.81888 13.3634 6.74802 13.3112 6.69578C13.2589 6.64354 13.1881 6.61419 13.1142 6.61419H10.8856C10.8117 6.61419 10.7409 6.64354 10.6886 6.69578C10.6364 6.74802 10.607 6.81888 10.607 6.89276V7.51181Z" fill="white"/>
<path d="M13.8571 15.869C13.7345 15.8674 13.6173 15.818 13.5306 15.7312C13.4439 15.6445 13.3944 15.5273 13.3928 15.4047V10.4523C13.3928 10.3292 13.4417 10.2111 13.5288 10.124C13.6159 10.037 13.734 9.98804 13.8571 9.98804C13.9802 9.98804 14.0983 10.037 14.1854 10.124C14.2725 10.2111 14.3214 10.3292 14.3214 10.4523V15.4047C14.3198 15.5273 14.2704 15.6445 14.1836 15.7312C14.0969 15.818 13.9797 15.8674 13.8571 15.869Z" fill="white"/>
<path d="M10.1428 15.869C10.0201 15.8674 9.90295 15.818 9.81623 15.7312C9.7295 15.6445 9.68007 15.5273 9.67847 15.4047V10.4523C9.67847 10.3292 9.72738 10.2111 9.81445 10.124C9.90152 10.037 10.0196 9.98804 10.1428 9.98804C10.2659 9.98804 10.384 10.037 10.4711 10.124C10.5581 10.2111 10.607 10.3292 10.607 10.4523V15.4047C10.6054 15.5273 10.556 15.6445 10.4693 15.7312C10.3826 15.818 10.2654 15.8674 10.1428 15.869Z" fill="white"/>
<path d="M11.9999 15.869C11.8773 15.8674 11.7601 15.818 11.6734 15.7312C11.5867 15.6445 11.5372 15.5273 11.5356 15.4047V10.4523C11.5356 10.3292 11.5846 10.2111 11.6716 10.124C11.7587 10.037 11.8768 9.98804 11.9999 9.98804C12.1231 9.98804 12.2412 10.037 12.3282 10.124C12.4153 10.2111 12.4642 10.3292 12.4642 10.4523V15.4047C12.4626 15.5273 12.4132 15.6445 12.3265 15.7312C12.2397 15.818 12.1226 15.8674 11.9999 15.869Z" fill="white"/>
</svg>
