<svg width="64" height="64" viewBox="0 0 64 64" fill="none" xmlns="http://www.w3.org/2000/svg">
<g clip-path="url(#clip0_11431_98561)">
<path d="M57.139 2.03941C56.0425 0.812988 54.4993 0.0691885 52.8549 0.0213264C52.8156 0.0202017 52.7765 0.0192019 52.7375 0.0185771C48.7689 -0.0532785 45.8711 3.76319 46.9185 7.59191C46.923 7.60853 46.9275 7.62503 46.932 7.64165C47.5623 9.96502 46.0377 12.35 43.6605 12.7292C41.4803 13.0768 39.4642 13.936 37.692 15.2885C33.5933 18.4162 34.3191 23.1537 35.0209 27.7354C35.5178 30.9792 36.0642 34.548 35.2213 38.2354C34.8803 39.7267 33.5538 40.7852 32.0239 40.7838H32H31.976C30.4462 40.7851 29.1195 39.7267 28.7786 38.2354C27.9357 34.548 28.4819 30.9792 28.9789 27.7354C29.6807 23.1537 30.4066 18.4162 26.3079 15.2885C24.5356 13.936 22.5196 13.0768 20.3394 12.7292C17.9622 12.35 16.4376 9.96502 17.0679 7.64165C17.0724 7.62503 17.0769 7.60853 17.0814 7.59191C18.1287 3.76319 15.231 -0.0532785 11.2623 0.0185771C11.2233 0.0193269 11.1842 0.0202017 11.145 0.0213264C9.50069 0.0690635 7.95748 0.812988 6.86103 2.03941C3.02418 6.33063 0.155708 11.6362 0 18.0037C0.155708 24.3713 3.02418 29.6768 6.86103 33.9681C7.95748 35.1945 9.50069 35.9383 11.1451 35.9861C11.1844 35.9873 11.2235 35.9883 11.2625 35.9889C15.2311 36.0607 18.1289 32.2443 17.0815 28.4155C16.4891 26.2495 16.1888 24.014 16.1888 21.7683V20.9258C16.1888 18.0004 19.166 16.0155 21.8659 17.142C22.6049 17.4503 23.3051 17.8563 23.9643 18.3594C26.1396 20.0193 25.8704 22.5153 25.1603 27.1503C24.5475 31.1504 23.8081 35.9903 25.5957 41.14C25.7964 41.7182 25.5807 42.3602 25.0617 42.6845C22.5241 44.2699 20.898 46.7047 20.898 49.4369C20.898 52.4078 22.8195 55.0281 25.7463 56.5861C26.6831 57.0847 27.2554 58.0729 27.2554 59.1341V62.6481C27.2554 63.3855 27.8531 63.9832 28.5905 63.9832H35.4095C36.1469 63.9832 36.7446 63.3855 36.7446 62.6481V59.1341C36.7446 58.0729 37.3169 57.0847 38.2537 56.5861C41.1805 55.0281 43.102 52.4077 43.102 49.4369C43.102 46.7047 41.4759 44.2699 38.9383 42.6845C38.4191 42.3602 38.2036 41.7182 38.4043 41.14C40.1919 35.9903 39.4525 31.1504 38.8397 27.1503C38.1297 22.5154 37.8604 20.0193 40.0358 18.3594C40.695 17.8563 41.3952 17.4503 42.1343 17.142C44.8342 16.0155 47.8114 18.0004 47.8114 20.9258V21.7683C47.8114 24.014 47.5111 26.2495 46.9186 28.4155C45.8713 32.2443 48.769 36.0607 52.7377 35.9889C52.7766 35.9881 52.8158 35.9873 52.855 35.9861C54.4994 35.9384 56.0425 35.1945 57.1391 33.9681C60.9758 29.6768 63.8443 24.3713 64.0001 18.0037C63.8442 11.6362 60.9757 6.33063 57.139 2.03941Z" fill="#DD636E"/>
<path d="M17.0833 28.416C16.4909 26.2499 16.1906 24.0144 16.1906 21.7687V20.9262C16.1906 19.3745 17.0282 18.0876 18.2178 17.3892C18.0398 17.301 17.8594 17.2186 17.6765 17.1424C14.9766 16.016 11.9994 18.0008 11.9994 20.9262V21.7687C11.9994 24.0144 12.2997 26.2499 12.8922 28.416C13.7346 31.4953 12.0241 34.5649 9.25781 35.6119C9.85728 35.8371 10.4939 35.9675 11.1469 35.9865C11.1862 35.9877 11.2253 35.9887 11.2643 35.9893C15.2328 36.0611 18.1307 32.2447 17.0833 28.416Z" fill="#DA4A54"/>
<path d="M12.8922 7.59191C12.8877 7.60853 12.8832 7.62503 12.8787 7.64165C12.2484 9.96502 13.773 12.35 16.1502 12.7291C18.3304 13.0768 20.3464 13.9359 22.1187 15.2885C23.6584 16.4634 24.5171 17.8656 24.9522 19.4015C26.0234 21.0417 25.7377 23.3932 25.1623 27.1504C24.6202 30.6889 23.9803 34.8847 25.077 39.3706C25.6723 40.2404 26.6799 40.7857 27.7868 40.7838H27.8108H27.8347C28.6097 40.7852 29.3356 40.5175 29.9062 40.0593C29.3645 39.6243 28.9626 39.0178 28.7958 38.3014C27.9312 34.5905 28.481 30.9986 28.9809 27.7354C29.6827 23.1537 30.4085 18.4162 26.3098 15.2885C24.5376 13.9359 22.5215 13.0768 20.3413 12.7291C17.9641 12.35 16.4395 9.96502 17.0698 7.64165C17.0743 7.62503 17.0788 7.60853 17.0833 7.59191C18.1307 3.76319 15.233 -0.0532785 11.2643 0.0185771C11.2253 0.0193269 11.1862 0.0202017 11.1469 0.0213264C10.4937 0.0403213 9.85728 0.170661 9.25781 0.39585C12.0241 1.44282 13.7346 4.51249 12.8922 7.59191Z" fill="#DA4A54"/>
<path d="M57.1408 2.03939C56.0443 0.812968 54.5011 0.0691684 52.8567 0.0213063C52.8175 0.0201816 52.7783 0.0191819 52.7393 0.0185571C51.9626 0.00456084 51.2279 0.141149 50.5547 0.395955C51.4647 0.737738 52.2886 1.30009 52.9497 2.03939C56.7865 6.33061 59.6549 11.6362 59.8107 18.0037C59.655 24.3712 56.7865 29.6768 52.9497 33.968C52.2886 34.7073 51.4647 35.2697 50.5547 35.6115C51.2279 35.8663 51.9627 36.0029 52.7393 35.9889C52.7783 35.9881 52.8175 35.9872 52.8567 35.9861C54.5011 35.9384 56.0442 35.1945 57.1408 33.968C60.9775 29.6768 63.846 24.3712 64.0018 18.0037C63.846 11.6362 60.9775 6.33061 57.1408 2.03939Z" fill="#DA4A54"/>
<path d="M38.9392 42.6839C38.4201 42.3596 38.2045 41.7176 38.4052 41.1394C40.1929 35.9897 39.4535 31.1498 38.8406 27.1497C38.1307 22.5148 37.8614 20.0187 40.0368 18.3588C40.533 17.9801 41.0524 17.6566 41.5941 17.3882C40.541 16.7697 39.212 16.6124 37.9442 17.1414C37.2052 17.4497 36.505 17.8557 35.8458 18.3588C35.4339 18.6731 35.11 19.0176 34.8598 19.4008C34.1368 21.9531 34.584 24.8743 35.0223 27.7346C35.5221 30.9979 36.072 34.5899 35.2074 38.3007C35.1157 38.6937 34.952 39.0527 34.735 39.3699C34.5919 39.9551 34.4207 40.5449 34.2144 41.1393C34.0135 41.7177 34.2299 42.3598 34.7491 42.6842C37.2864 44.2697 38.9121 46.7043 38.9121 49.4362C38.9121 52.407 36.9906 55.0274 34.0638 56.5854C33.127 57.084 32.5547 58.0722 32.5547 59.1334V63.9826H35.4107C36.1481 63.9826 36.7458 63.3849 36.7458 62.6475V59.1336C36.7458 58.0723 37.3182 57.0841 38.2549 56.5855C41.1817 55.0275 43.1032 52.4072 43.1032 49.4363C43.103 46.7042 41.4769 44.2693 38.9392 42.6839Z" fill="#DA4A54"/>
<path d="M14.6971 13.0136C14.1569 13.0136 13.3777 12.9104 12.6975 12.4253C12.238 12.0976 11.6551 11.4647 11.4869 10.3102C11.4033 9.73651 11.1729 9.58155 11.0972 9.53069C10.7447 9.29363 10.1512 9.36724 9.97127 9.41185C9.45578 9.54919 8.93067 9.2404 8.79396 8.72504C8.65725 8.20942 8.96816 7.67969 9.48365 7.54298C9.63761 7.50211 11.0204 7.16583 12.1562 7.91538C12.6274 8.22642 13.2254 8.84613 13.3982 10.0317C13.4548 10.4196 13.5904 10.6868 13.813 10.8483C14.1929 11.1243 14.7992 11.0945 15.0009 11.0605C15.525 10.9611 16.0264 11.3063 16.1256 11.8306C16.2247 12.3547 15.8766 12.8607 15.3524 12.9599C15.2921 12.9711 15.0439 13.0136 14.6971 13.0136Z" fill="#D82E3D"/>
<path d="M10.4169 21.0966C9.92744 21.0966 9.55917 21.0061 9.48406 20.9861C8.96858 20.8494 8.66141 20.3206 8.79812 19.805C8.93421 19.2914 9.45882 18.9843 9.97281 19.1175C10.1543 19.1621 10.746 19.2348 11.0976 18.9984C11.1734 18.9474 11.4037 18.7926 11.4873 18.2188C11.6555 17.0643 12.2386 16.4314 12.6979 16.1038C13.8146 15.3075 15.1988 15.5404 15.3527 15.5696C15.8768 15.6688 16.2212 16.174 16.122 16.6982C16.0228 17.2222 15.5172 17.5665 14.9935 17.4675C14.7996 17.4344 14.1933 17.4049 13.8134 17.681C13.5908 17.8426 13.4552 18.1096 13.3986 18.4976C13.2258 19.6832 12.6278 20.303 12.1566 20.6139C11.5755 20.9973 10.9297 21.0966 10.4169 21.0966Z" fill="#D82E3D"/>
<path d="M9.34566 16.6684C9.20758 16.6684 9.06699 16.6388 8.9334 16.5761C8.45041 16.3498 8.24446 15.7702 8.47077 15.2871C8.90153 14.3677 10.2908 12.8304 12.4656 13.5936C12.9689 13.7703 13.2337 14.3216 13.057 14.8248C12.8805 15.3282 12.3295 15.593 11.826 15.4164C10.8274 15.0659 10.3409 15.8632 10.2156 16.116C10.0517 16.4652 9.70682 16.6684 9.34566 16.6684Z" fill="#D82E3D"/>
<path d="M49.301 13.0139C48.9542 13.0139 48.7061 12.9714 48.6458 12.9599C48.1217 12.8607 47.7772 12.3554 47.8764 11.8313C47.9755 11.3072 48.481 10.9628 49.005 11.0619C49.199 11.0949 49.8053 11.1241 50.185 10.8483C50.4076 10.6868 50.5433 10.4197 50.5998 10.0317C50.7726 8.84613 51.3706 8.22629 51.8418 7.91538C52.9773 7.16583 54.3602 7.50211 54.5142 7.54298C55.0299 7.67969 55.3369 8.20842 55.2001 8.72404C55.064 9.23752 54.5381 9.54394 54.0255 9.4116C53.844 9.36699 53.2525 9.29426 52.9008 9.53069C52.8251 9.58168 52.5949 9.73639 52.5112 10.3102C52.343 11.4647 51.7597 12.0976 51.3004 12.4253C50.6204 12.9107 49.8411 13.0139 49.301 13.0139Z" fill="#D82E3D"/>
<path d="M53.5812 21.0967C53.0683 21.0967 52.4228 20.9974 51.8417 20.6139C51.3703 20.3029 50.7723 19.6832 50.5996 18.4976C50.5431 18.1097 50.4074 17.8425 50.185 17.6809C49.805 17.405 49.1989 17.4346 48.9971 17.4689C48.4723 17.5675 47.9716 17.2229 47.8724 16.6988C47.7731 16.1747 48.1214 15.6687 48.6455 15.5695C48.8 15.5404 50.1836 15.3076 51.3003 16.1037C51.7597 16.4314 52.3428 17.0642 52.5111 18.2188C52.5947 18.7926 52.825 18.9475 52.9008 18.9983C53.253 19.2354 53.8464 19.1617 54.0266 19.1172C54.5413 18.9805 55.067 19.2885 55.2039 19.804C55.3406 20.3196 55.0297 20.8493 54.5141 20.9861C54.4388 21.0062 54.0706 21.0967 53.5812 21.0967Z" fill="#D82E3D"/>
<path d="M54.5245 16.9209C54.1281 16.9209 53.7569 16.6749 53.6155 16.2814C53.6082 16.2622 53.4661 15.8941 53.1841 15.6153C52.8908 15.325 52.5976 15.2677 52.1726 15.4168C51.6697 15.5932 51.1183 15.3287 50.9414 14.8252C50.7649 14.3219 51.0297 13.7707 51.533 13.594C53.6137 12.8641 55.007 14.4144 55.4356 15.6348C55.6124 16.1379 55.3476 16.6893 54.8443 16.866C54.7387 16.9032 54.6307 16.9209 54.5245 16.9209Z" fill="#D82E3D"/>
<path d="M35.6587 48.0623C35.5061 48.0623 35.3512 48.0259 35.207 47.9494C33.0481 46.8045 30.9489 46.8044 28.7896 47.9494C28.3184 48.1994 27.7339 48.02 27.4839 47.5487C27.2339 47.0774 27.4134 46.493 27.8846 46.243C30.6141 44.7953 33.3823 44.7953 36.112 46.243C36.5834 46.4931 36.7627 47.0776 36.5128 47.5487C36.3393 47.8758 36.0047 48.0622 35.6587 48.0623Z" fill="#DA4A54"/>
<path d="M47.7067 62.8177C52.9533 62.8177 57.2064 58.5646 57.2064 53.318C57.2064 48.0715 52.9533 43.8184 47.7067 43.8184C42.4602 43.8184 38.207 48.0715 38.207 53.318C38.207 58.5646 42.4602 62.8177 47.7067 62.8177Z" fill="#B3E59F"/>
<path d="M47.7072 43.8184C47.1582 43.8184 46.621 43.8675 46.0977 43.9569C50.5772 44.7219 53.9878 48.6206 53.9878 53.3182C53.9878 58.0158 50.5772 61.9144 46.0977 62.6794C46.6211 62.7688 47.1584 62.818 47.7072 62.818C52.9538 62.818 57.2069 58.5648 57.2069 53.3183C57.207 48.0716 52.9538 43.8184 47.7072 43.8184Z" fill="#95D6A4"/>
<path d="M52.738 51.1885H50.3901C50.0841 51.1885 49.836 50.9404 49.836 50.6344V48.2865C49.836 47.9805 49.588 47.7324 49.2819 47.7324H46.1313C45.8252 47.7324 45.5772 47.9805 45.5772 48.2865V50.6344C45.5772 50.9404 45.3291 51.1885 45.0231 51.1885H42.6752C42.3692 51.1885 42.1211 51.4365 42.1211 51.7426V54.8932C42.1211 55.1993 42.3692 55.4473 42.6752 55.4473H45.0231C45.3291 55.4473 45.5772 55.6954 45.5772 56.0014V58.3493C45.5772 58.6554 45.8252 58.9034 46.1313 58.9034H49.2819C49.588 58.9034 49.836 58.6554 49.836 58.3493V56.0014C49.836 55.6954 50.0841 55.4473 50.3901 55.4473H52.738C53.044 55.4473 53.2921 55.1993 53.2921 54.8932V51.7426C53.2922 51.4365 53.044 51.1885 52.738 51.1885Z" fill="#F6F6F6"/>
</g>
<defs>
<clipPath id="clip0_11431_98561">
<rect width="64" height="64" fill="white"/>
</clipPath>
</defs>
</svg>
