<svg width="64" height="64" viewBox="0 0 64 64" fill="none" xmlns="http://www.w3.org/2000/svg">
<g clip-path="url(#clip0_11431_98690)">
<path d="M13.1026 34.2687C13.0288 34.2687 12.9541 34.26 12.8792 34.2417C12.3762 34.1187 12.0682 33.6113 12.1911 33.1085L12.7749 30.7197C13.3867 28.2174 15.6129 26.4697 18.1889 26.4697H20.7143C21.2321 26.4697 21.6518 26.8895 21.6518 27.4072C21.6518 27.925 21.2321 28.3447 20.7143 28.3447H18.1891C16.4797 28.3447 15.0024 29.5045 14.5966 31.165L14.0127 33.5537C13.9078 33.9817 13.5246 34.2687 13.1026 34.2687Z" fill="#DD636E"/>
<path d="M50.9008 34.2689C50.4788 34.2689 50.0956 33.982 49.9908 33.5537L49.4069 31.165C49.0011 29.5045 47.5238 28.3447 45.8144 28.3447H43.2891C42.7713 28.3447 42.3516 27.925 42.3516 27.4072C42.3516 26.8895 42.7713 26.4697 43.2891 26.4697H45.8143C48.3903 26.4697 50.6166 28.2174 51.2283 30.7197L51.8122 33.1085C51.9351 33.6114 51.6271 34.1189 51.1241 34.2417C51.0493 34.2601 50.9744 34.2689 50.9008 34.2689Z" fill="#DD636E"/>
<path d="M55.7531 20.0329H47.354C45.775 20.0329 44.3075 19.1684 43.5889 17.7625C41.436 13.5506 37.055 10.667 32 10.667C26.945 10.667 22.564 13.5506 20.411 17.7625C19.6924 19.1685 18.2249 20.0329 16.6459 20.0329H8.24687C3.69225 20.0329 0 23.7251 0 28.2797C0 31.226 1.57187 33.9485 4.12337 35.4217L5.63263 36.2931L7.2905 34.9256L7.71387 32.6881L6.20463 31.8167C4.941 31.0871 4.1625 29.7389 4.1625 28.2797C4.1625 26.0241 5.991 24.1955 8.24675 24.1955H15.2989C17.2475 24.1955 18.9519 25.5171 19.425 27.4075C19.9506 29.5075 20.9934 31.6346 22.757 34.5974C23.6465 36.0917 24.279 37.7259 24.6295 39.4292L26.7411 49.6915H26.6979C25.3495 49.6915 24.2565 50.7846 24.2565 52.1329V54.2242C24.2565 54.8707 24.513 55.491 24.9696 55.9486L26.1334 57.1151C26.5226 57.5052 26.7412 58.034 26.7412 58.5851V61.9191C26.7412 63.0686 27.6731 64.0004 28.8225 64.0004H30.1241L32 62.7504L33.8761 64.0004H35.1777C36.3273 64.0004 37.259 63.0685 37.259 61.9191V58.5851C37.259 58.034 37.4776 57.5054 37.8669 57.1151L39.0306 55.9486C39.4873 55.4909 39.7438 54.8707 39.7438 54.2242V52.1329C39.7438 50.7845 38.6506 49.6915 37.3024 49.6915H37.2591L39.3708 39.4292C39.7212 37.7259 40.3536 36.0917 41.2433 34.5974C43.0068 31.6346 44.0496 29.5075 44.5752 27.4075C45.0484 25.5171 46.7528 24.1955 48.7014 24.1955H55.7535C58.0091 24.1955 59.8377 26.024 59.8377 28.2797C59.8377 29.7389 59.0592 31.0872 57.7956 31.8167L56.2864 32.6881L56.6401 34.8552L58.3676 36.2931L59.8769 35.4217C62.4281 33.9485 64 31.226 64 28.2797C64 23.7251 60.3078 20.0329 55.7531 20.0329Z" fill="#DD636E"/>
<path d="M55.7541 20.0332H51.8516C56.4062 20.0332 60.0984 23.7255 60.0984 28.2801C60.0984 30.6705 59.0637 32.9135 57.3106 34.4616L57.5323 35.7707L58.3682 36.2935L59.8774 35.4221C62.4291 33.9488 64.0009 31.2263 64.0009 28.2801C64.0009 23.7255 60.3087 20.0332 55.7541 20.0332Z" fill="#DD636E"/>
<path d="M44.7993 24.1953C42.8506 24.1953 41.1463 25.5169 40.6731 27.4073C40.1475 29.5073 39.1048 31.6344 37.3411 34.5972C36.4516 36.0916 35.8191 37.7257 35.4686 39.4291L33.357 49.6913H33.4002C34.7486 49.6913 35.8416 50.7844 35.8416 52.1327V54.2241C35.8416 54.8706 35.5851 55.4908 35.1285 55.9484L33.9648 57.1149C33.5755 57.5051 33.3569 58.0338 33.3569 58.5849V61.9189C33.3569 62.4504 33.156 62.9339 32.8281 63.3017L33.8765 64.0002H35.1781C36.3276 64.0002 37.2594 63.0683 37.2594 61.9189V58.5849C37.2594 58.0338 37.478 57.5052 37.8673 57.1149L39.031 55.9484C39.4876 55.4907 39.7441 54.8706 39.7441 54.2241V52.1327C39.7441 50.7843 38.651 49.6913 37.3027 49.6913H37.2595L39.3711 39.4291C39.7216 37.7257 40.354 36.0916 41.2436 34.5972C43.0071 31.6344 44.05 29.5073 44.5756 27.4073C45.0488 25.5169 46.7531 24.1953 48.7018 24.1953H44.7993Z" fill="#DD636E"/>
<path d="M44.093 18.5229C43.8996 18.2915 43.7294 18.0377 43.5886 17.7625C41.4356 13.5506 37.0546 10.667 31.9996 10.667C26.9446 10.667 22.5636 13.5506 20.4106 17.7624C20.2699 18.0377 20.0996 18.2914 19.9062 18.5227C22.525 22.4121 26.9685 24.9759 31.9996 24.9759C37.0308 24.9759 41.4743 22.4122 44.093 18.5229Z" fill="#DD636E"/>
<path d="M58.3664 36.2931C58.5022 38.0807 57.2204 40.109 55.564 41.0653C53.262 42.3945 49.1919 42.2561 47.8628 39.9541C46.5337 37.6521 48.449 34.0581 50.751 32.729C52.4074 31.7726 54.8048 31.6767 56.285 32.6881C56.5983 33.2307 58.053 35.7505 58.3664 36.2931Z" fill="#FFE177"/>
<path d="M58.3671 36.2929C58.0539 35.7503 56.599 33.2306 56.2857 32.6879C55.5685 32.1979 54.6357 31.9699 53.6766 31.9717C53.7879 32.5277 53.8471 33.1024 53.8471 33.6912C53.8471 36.9702 52.0355 39.8248 49.3594 41.3126C51.1724 42.2287 53.8555 42.0519 55.5647 41.0651C57.2211 40.1088 58.5029 38.0806 58.3671 36.2929Z" fill="#FFD15B"/>
<path d="M5.63096 36.2931C5.49521 38.0807 6.77696 40.109 8.43334 41.0653C10.7353 42.3945 14.8055 42.2561 16.1346 39.9541C17.4637 37.6521 15.5483 34.0581 13.2463 32.729C11.59 31.7726 9.19259 31.6767 7.71234 32.6881C7.39909 33.2307 5.94434 35.7505 5.63096 36.2931Z" fill="#FFE177"/>
<path d="M13.2477 32.7292C13.2287 32.7182 13.2083 32.7089 13.1892 32.6982C13.2262 33.0245 13.2472 33.3556 13.2472 33.6919C13.2472 36.9409 11.4679 39.7726 8.83203 41.2715C11.1784 42.3722 14.8802 42.1295 16.1359 39.9545C17.465 37.6524 15.5497 34.0584 13.2477 32.7292Z" fill="#FFD15B"/>
<path d="M42.4052 21.7001L41.4837 21.0102C40.6329 20.3732 39.9123 19.5848 39.3138 18.7066C37.7205 16.3692 35.0375 14.8314 32.0014 14.8311C28.9653 14.8314 26.2823 16.3692 24.689 18.7066C24.0904 19.5848 23.3699 20.3733 22.5192 21.0102L21.5976 21.7001C20.8779 22.2389 20.7755 23.2792 21.3764 23.9479L22.0885 24.7404C22.8678 25.6078 23.4689 26.6167 23.8848 27.7061C24.2671 28.7074 24.8391 29.8721 25.6865 31.3558C27.3203 34.2171 28.336 37.3173 28.7054 40.5706L29.4635 45.4406C29.904 48.2702 30.1253 51.1296 30.1253 53.9932V64.0003H33.8774V53.9932C33.8774 51.1296 34.0986 48.2702 34.5391 45.4406L35.2973 40.5706C35.6666 37.3173 36.6824 34.2171 38.3162 31.3558C39.1634 29.8721 39.7355 28.7073 40.1179 27.7061C40.5338 26.6168 41.1349 25.6078 41.9142 24.7404L42.6263 23.9479C43.2273 23.2792 43.1249 22.2389 42.4052 21.7001Z" fill="#D82E3D"/>
<path d="M41.4813 21.0102C40.6306 20.3732 39.9099 19.5848 39.3114 18.7066C37.7182 16.3692 35.0352 14.8314 31.9991 14.8311C28.9629 14.8314 26.2799 16.3692 24.6867 18.7066C24.0881 19.5848 23.3676 20.3733 22.5168 21.0102L22.2422 21.2158C24.8268 23.5513 28.2494 24.9759 31.9991 24.9759C35.7487 24.9759 39.1713 23.5513 41.7559 21.2158L41.4813 21.0102Z" fill="#DD636E"/>
<path d="M32.0002 20.813C37.7476 20.813 42.4068 16.1539 42.4068 10.4065C42.4068 4.65915 37.7476 0 32.0002 0C26.2529 0 21.5938 4.65915 21.5938 10.4065C21.5938 16.1539 26.2529 20.813 32.0002 20.813Z" fill="#DFF6FD"/>
<path d="M37.5565 1.60938C38.5741 3.21738 39.1656 5.12175 39.1656 7.16537C39.1656 12.9128 34.5065 17.5719 28.7591 17.5719C26.7155 17.5719 24.811 16.9805 23.2031 15.9627C25.0474 18.8767 28.2969 20.8132 32.0005 20.8132C37.7479 20.8132 42.407 16.1541 42.407 10.4067C42.407 6.703 40.4705 3.45362 37.5565 1.60938Z" fill="#C8EFFE"/>
<path d="M37.4636 12.4877H26.5367C25.962 12.4877 25.4961 12.0218 25.4961 11.4471V9.36582C25.4961 8.79107 25.962 8.3252 26.5367 8.3252H37.4636C38.0383 8.3252 38.5042 8.79107 38.5042 9.36582V11.4471C38.5043 12.0218 38.0383 12.4877 37.4636 12.4877Z" fill="#FD8087"/>
</g>
<defs>
<clipPath id="clip0_11431_98690">
<rect width="64" height="64" fill="white"/>
</clipPath>
</defs>
</svg>
