<svg width="64" height="64" viewBox="0 0 64 64" fill="none" xmlns="http://www.w3.org/2000/svg">
<path d="M55.21 15.5L57.1215 17.8645C58.6442 16.2712 59.7442 14.3224 60.3215 12.1955C60.6575 10.7835 60.5124 9.29982 59.9094 7.97965C59.3063 6.65949 58.2797 5.57845 56.9925 4.908C53.084 2.744 48.5775 4.233 45.462 6.837C43.1135 5.66 37.9885 3.5 31.9995 3.5C26.0105 3.5 20.8855 5.66 18.5365 6.837C15.421 4.233 10.9145 2.744 7.006 4.908C5.71875 5.57845 4.69219 6.65949 4.08912 7.97965C3.48606 9.29982 3.34102 10.7835 3.677 12.1955C4.25424 14.3224 5.35429 16.2712 6.877 17.8645L8.789 15.5C7.75653 14.3629 7.00643 12.9985 6.5995 11.5175C6.40602 10.7407 6.4852 9.92101 6.82378 9.19561C7.16237 8.4702 7.73981 7.88308 8.4595 7.5325C10.5845 6.356 14.1595 6.6015 17.349 9.804C17.4693 9.92533 17.5893 10.0445 17.709 10.1615C18.6527 11.0834 19.4022 12.1848 19.9134 13.401C20.4246 14.6171 20.6871 15.9233 20.6855 17.2425C20.6606 19.2403 20.3627 21.2254 19.8 23.1425C15.662 37.746 27.1995 35.3845 27.1995 60.5H36.7995C36.7995 35.3845 48.336 37.746 44.1995 23.1425C43.6368 21.2254 43.3388 19.2403 43.314 17.2425C43.3123 15.9233 43.5747 14.6171 44.0859 13.4009C44.5972 12.1847 45.3467 11.0833 46.2905 10.1615C46.4098 10.0445 46.5298 9.92533 46.6505 9.804C49.842 6.6015 53.4145 6.354 55.5395 7.5325C56.2593 7.883 56.8368 8.47008 57.1755 9.1955C57.5142 9.92091 57.5934 10.7406 57.4 11.5175C56.9929 12.9986 56.2426 14.3629 55.21 15.5Z" fill="#DD636E"/>
<path d="M30.1486 60.4998H33.8486C33.8486 31.9998 41.7641 36.1563 39.1546 24.2798C37.9826 18.9468 38.6546 15.2103 39.4436 12.9843C39.5224 12.7588 39.5457 12.5176 39.5115 12.2811C39.4774 12.0447 39.3869 11.8199 39.2475 11.6259C39.1082 11.4318 38.9242 11.2742 38.7111 11.1662C38.498 11.0583 38.262 11.0033 38.0231 11.0058C37.6863 11.013 37.3494 10.9935 37.0156 10.9473C35.1541 10.6818 34.3076 9.7168 31.9996 9.7168C29.6916 9.7168 28.8451 10.6818 26.9836 10.9473C26.6498 10.9935 26.313 11.013 25.9761 11.0058C25.7372 11.0033 25.5012 11.0583 25.2881 11.1662C25.075 11.2742 24.891 11.4318 24.7517 11.6259C24.6124 11.8199 24.5218 12.0447 24.4877 12.2811C24.4535 12.5176 24.4768 12.7588 24.5556 12.9843C25.3471 15.2103 26.0166 18.9468 24.8446 24.2798C22.2341 36.1563 30.1486 31.9998 30.1486 60.4998Z" fill="#D82E3D"/>
<path d="M15.1496 23.5909C16.6894 22.0511 16.2793 19.1444 14.2335 17.0986C12.1878 15.0529 9.28108 14.6427 7.74125 16.1826C6.20141 17.7224 6.61154 20.6291 8.6573 22.6749C10.7031 24.7206 13.6098 25.1308 15.1496 23.5909Z" fill="#FCBFAB"/>
<path d="M55.339 22.6748C57.3848 20.629 57.7949 17.7223 56.2551 16.1825C54.7152 14.6427 51.8085 15.0528 49.7628 17.0986C47.717 19.1443 47.3069 22.051 48.8467 23.5909C50.3866 25.1307 53.2933 24.7206 55.339 22.6748Z" fill="#FCBFAB"/>
</svg>
