<?xml version="1.0" encoding="UTF-8"?>
<svg id="Layer_1" data-name="Layer 1" xmlns="http://www.w3.org/2000/svg" viewBox="0 0 24 24">
  <defs>
    <style>
      .cls-1 {
        fill: none;
        fill-rule: evenodd;
        stroke: #cb1b5b;
        stroke-miterlimit: 10;
      }
    </style>
  </defs>
  <path class="cls-1" d="m7.91,20.27c.09-.1.21-.1.24-.1,3.03,0,6.06,0,9.09,0,0,0,.05,0,.08.04.03.04.03.08.02.08,0,.87,0,1.74,0,2.6,0,.03,0,.06-.03.08-.03.02-.07.01-.07.01-3.1.02-6.21.04-9.31.06-.01,0-.06,0-.1-.05-.05-.05-.05-.12-.04-.13,0-.77.02-1.54.03-2.31,0-.02-.02-.17.09-.29Z"/>
  <path class="cls-1" d="m9.05,19.68c0-.25,0-.51,0-.76,0-.02.03-.09,0-.16-.02-.07-.07-.11-.09-.12-1.33-1.79-2.66-3.58-3.99-5.37-.42-.44-.39-1.13,0-1.48.32-.29.85-.32,1.25-.05.91.91,1.81,1.81,2.72,2.72.02.04.06.06.09.04.02-.01.03-.05.02-.08,0-2.78.02-5.55.03-8.33.03-.57.48-1.03,1.02-1.06.49-.03.96.29,1.11.79,0,4.58,0,6.88.02,6.88,0,0,.02-.87.04-2.62.05-.04.42-.35.93-.26.62.11.86.7.87.73-.01,1.69-.01,2.53,0,2.53,0,0,.02-.75.04-2.25.19-.41.63-.66,1.08-.6.46.06.84.43.91.9-.01,1.66-.01,2.49,0,2.49.01,0,.03-.81.06-2.43.24-.32.64-.48,1.03-.42.58.09.82.61.83.64,0,1.71.01,3.42.02,5.14,0,.28-.03.7-.23,1.15-.14.31-.26.41-.38.68-.13.28-.25.72-.15,1.38"/>
  <path class="cls-1" d="m8.89,8.89c-1.63-.53-2.81-2.06-2.81-3.86,0-2.24,1.82-4.06,4.06-4.06s4.06,1.82,4.06,4.06c0,1.87-1.27,3.45-2.99,3.92"/>
</svg>