<svg width="21" height="22" viewBox="0 0 21 22" fill="none" xmlns="http://www.w3.org/2000/svg">
<path d="M18.8645 9.89773L17.6745 8.51523C17.447 8.25273 17.2633 7.76273 17.2633 7.41273V5.92523C17.2633 4.99773 16.502 4.23648 15.5745 4.23648H14.087C13.7458 4.23648 13.247 4.05273 12.9845 3.82523L11.602 2.63523C10.9983 2.11898 10.0095 2.11898 9.39703 2.63523L8.02328 3.83398C7.76078 4.05273 7.26203 4.23648 6.92078 4.23648H5.40703C4.47953 4.23648 3.71828 4.99773 3.71828 5.92523V7.42148C3.71828 7.76273 3.53453 8.25273 3.31578 8.51523L2.13453 9.90648C1.62703 10.5102 1.62703 11.4902 2.13453 12.094L3.31578 13.4852C3.53453 13.7477 3.71828 14.2377 3.71828 14.579V16.0752C3.71828 17.0027 4.47953 17.764 5.40703 17.764H6.92078C7.26203 17.764 7.76078 17.9477 8.02328 18.1752L9.40578 19.3652C10.0095 19.8815 10.9983 19.8815 11.6108 19.3652L12.9933 18.1752C13.2558 17.9477 13.7458 17.764 14.0958 17.764H15.5833C16.5108 17.764 17.272 17.0027 17.272 16.0752V14.5877C17.272 14.2465 17.4558 13.7477 17.6833 13.4852L18.8733 12.1027C19.3808 11.499 19.3808 10.5015 18.8645 9.89773ZM14.1395 9.34648L9.91328 13.5727C9.79078 13.6952 9.62453 13.7652 9.44953 13.7652C9.27453 13.7652 9.10828 13.6952 8.98578 13.5727L6.86828 11.4552C6.61453 11.2015 6.61453 10.7815 6.86828 10.5277C7.12203 10.274 7.54203 10.274 7.79578 10.5277L9.44953 12.1815L13.212 8.41899C13.4658 8.16524 13.8858 8.16524 14.1395 8.41899C14.3933 8.67274 14.3933 9.09273 14.1395 9.34648Z" fill="#CB1B5B"/>
</svg>
