<svg width="66" height="65" viewBox="0 0 66 65" fill="none" xmlns="http://www.w3.org/2000/svg">
<rect x="0.779297" width="64.891" height="64.891" rx="10.8152" fill="#CB1B5B"/>
<g clip-path="url(#clip0_15210_10838)">
<path d="M45.4967 21.0815H41.1431V19.8921C41.1424 19.2061 40.8696 18.5485 40.3845 18.0635C39.8995 17.5784 39.2419 17.3055 38.556 17.3047H20.6713C19.9853 17.3055 19.3277 17.5783 18.8426 18.0634C18.3576 18.5485 18.0848 19.2061 18.084 19.8921V35.7309C18.0848 36.4169 18.3576 37.0745 18.8427 37.5596C19.3277 38.0446 19.9853 38.3174 20.6713 38.3182H23.0388V42.5904C23.0388 42.7625 23.0863 42.9314 23.1759 43.0784C23.2656 43.2255 23.394 43.3449 23.547 43.4238C23.7001 43.5026 23.872 43.5378 24.0437 43.5254C24.2155 43.5131 24.3805 43.4536 24.5207 43.3537L26.5847 41.882C26.9088 42.0229 27.2585 42.0954 27.612 42.0951H34.5852L41.6473 47.1305C41.7875 47.2305 41.9525 47.2899 42.1243 47.3023C42.296 47.3147 42.4678 47.2795 42.6209 47.2006C42.774 47.1218 42.9024 47.0023 42.9921 46.8553C43.0817 46.7083 43.1291 46.5394 43.1291 46.3672V42.0951H45.4967C46.1826 42.0943 46.8403 41.8214 47.3253 41.3364C47.8104 40.8513 48.0832 40.1937 48.084 39.5077V23.6689C48.0832 22.9829 47.8104 22.3253 47.3253 21.8402C46.8403 21.3552 46.1826 21.0823 45.4967 21.0815ZM23.9763 36.4432H20.6713C20.4825 36.443 20.3014 36.3679 20.1679 36.2343C20.0343 36.1008 19.9592 35.9198 19.959 35.7309V19.8921C19.9592 19.7032 20.0343 19.5221 20.1678 19.3886C20.3014 19.255 20.4824 19.1799 20.6713 19.1797H38.556C38.7449 19.1799 38.9259 19.255 39.0595 19.3886C39.193 19.5221 39.2682 19.7032 39.2684 19.8921V35.7309C39.2682 35.9198 39.193 36.1008 39.0595 36.2344C38.9259 36.3679 38.7449 36.443 38.556 36.4432H31.2828C31.0877 36.4432 30.8974 36.5041 30.7385 36.6174L24.9138 40.7704V37.3807C24.9138 37.1321 24.8151 36.8936 24.6393 36.7178C24.4634 36.542 24.225 36.4432 23.9763 36.4432ZM46.209 39.5077C46.2088 39.6966 46.1336 39.8776 46.0001 40.0112C45.8666 40.1447 45.6855 40.2198 45.4967 40.2201H42.1916C41.943 40.2201 41.7045 40.3188 41.5287 40.4946C41.3529 40.6705 41.2541 40.9089 41.2541 41.1576V44.5473L35.4294 40.3943C35.2706 40.281 35.0803 40.2201 34.8852 40.2201H28.9154L31.5828 38.3182H38.556C39.242 38.3174 39.8996 38.0446 40.3847 37.5596C40.8697 37.0745 41.1426 36.4169 41.1434 35.7309V22.9565H45.4969C45.6857 22.9568 45.8667 23.032 46.0002 23.1655C46.1337 23.2991 46.2088 23.4801 46.209 23.6689V39.5077ZM32.6708 31.3794V30.1185L35.4379 31.7161C35.5804 31.7984 35.7421 31.8417 35.9066 31.8417C36.0712 31.8417 36.2329 31.7984 36.3754 31.7161C36.5179 31.6338 36.6363 31.5155 36.7185 31.3729C36.8008 31.2304 36.8441 31.0687 36.8441 30.9042V24.7188C36.8441 24.5542 36.8008 24.3926 36.7185 24.25C36.6362 24.1075 36.5179 23.9892 36.3754 23.9069C36.2328 23.8246 36.0712 23.7813 35.9066 23.7813C35.7421 23.7813 35.5804 23.8246 35.4379 23.9069L32.6708 25.5044V24.2436C32.6704 23.8708 32.5221 23.5133 32.2585 23.2497C31.9948 22.9861 31.6374 22.8378 31.2646 22.8373H23.7897C23.4169 22.8378 23.0594 22.9861 22.7958 23.2497C22.5322 23.5134 22.3839 23.8708 22.3834 24.2436V31.3794C22.3839 31.7522 22.5322 32.1096 22.7958 32.3732C23.0594 32.6368 23.4169 32.7851 23.7897 32.7856H31.2644C31.6373 32.7852 31.9947 32.6369 32.2584 32.3733C32.522 32.1097 32.6704 31.7522 32.6708 31.3794ZM32.7778 27.6078L34.9692 26.3426V29.2804L32.7778 28.0152C32.7433 27.9956 32.7075 27.9782 32.6708 27.9631V27.6599C32.7076 27.6448 32.7433 27.6274 32.7778 27.6078ZM30.7958 30.9108H24.2582V24.7122H30.7958V30.9108Z" fill="white"/>
</g>
<defs>
<clipPath id="clip0_15210_10838">
<rect width="30" height="30" fill="white" transform="translate(18.084 17.3047)"/>
</clipPath>
</defs>
</svg>
