<svg width="40" height="40" viewBox="0 0 40 40" fill="none" xmlns="http://www.w3.org/2000/svg">
<mask id="mask0_95_921" style="mask-type:alpha" maskUnits="userSpaceOnUse" x="0" y="0" width="40" height="40">
<rect width="40" height="40" fill="#D9D9D9"/>
</mask>
<g mask="url(#mask0_95_921)">
<path fill-rule="evenodd" clip-rule="evenodd" d="M12.1496 7.69427L12.9322 7.69527C13.066 7.69546 13.2013 7.69566 13.3378 7.69587L14.1696 7.69722C15.9946 7.70033 17.9385 7.70461 19.4201 7.70769L20.0689 7.70901C20.1709 7.70922 20.2696 7.70941 20.3648 7.7096C24.1087 7.44669 27.4883 10.2255 27.7894 13.9545C27.7923 13.9928 27.7947 14.2098 27.7968 14.6046L31.2509 11.7759C32.2559 10.9522 33.6087 10.7908 34.7818 11.3449C35.9549 11.9023 36.6837 13.0538 36.6821 14.3517L36.6621 26.5803C36.6604 27.8782 35.93 29.0296 34.7585 29.5821C34.2993 29.8001 33.8134 29.9049 33.3308 29.9049C32.5804 29.9049 31.8399 29.647 31.2292 29.1461L27.8045 26.3044C27.8045 26.3526 27.8044 26.4009 27.8044 26.4493C27.8743 28.2065 27.2487 29.8987 26.0406 31.2133C24.771 32.596 23.0205 33.3997 21.1136 33.478C21.0812 33.4803 20.899 33.4818 20.5999 33.4828L19.9425 33.484C19.6861 33.4842 19.3947 33.4842 19.0756 33.484L17.668 33.4827C17.5412 33.4825 17.4123 33.4823 17.2817 33.4821L16.479 33.4809C14.5665 33.4776 12.4121 33.4726 10.7419 33.469L10.0578 33.4675C9.8411 33.4671 9.63637 33.4667 9.44575 33.4663C9.26937 33.4796 9.09299 33.4863 8.91661 33.4863C5.39896 33.4879 2.33058 30.7923 2.04105 27.2563L2.04079 27.2528L2.03924 27.2198C2.03912 27.2162 2.039 27.2122 2.03888 27.2078L2.03774 27.1554C2.03761 27.148 2.03747 27.14 2.03734 27.1313L2.03608 27.0344C2.03593 27.0214 2.03579 27.0075 2.03564 26.9928L2.03431 26.8355C2.03416 26.8151 2.03401 26.7937 2.03386 26.7712L2.03296 26.6225C2.03281 26.5954 2.03265 26.5671 2.0325 26.5376L2.03115 26.2364C2.031 26.1989 2.03086 26.1599 2.03071 26.1195L2.02941 25.7142C2.02927 25.6644 2.02913 25.613 2.02899 25.5599L2.02778 25.0347C2.02765 24.971 2.02753 24.9053 2.0274 24.8378L2.02601 23.9319C2.0259 23.8482 2.02579 23.7623 2.02569 23.6742L2.0244 22.1822C2.02433 22.0709 2.02427 21.957 2.0242 21.8407L2.02418 15.3214C2.02425 15.1237 2.02433 14.9226 2.02441 14.7183C1.94454 13.0027 2.56687 11.2988 3.78157 9.97261C5.04952 8.58818 6.79836 7.78115 8.70695 7.69961C8.73265 7.69777 8.85426 7.69637 9.05486 7.69536L9.41287 7.69411C9.48171 7.69395 9.55495 7.69381 9.63234 7.69369L11.7757 7.69387C11.8981 7.69399 12.0228 7.69413 12.1496 7.69427ZM20.4546 10.2022C18.3538 10.1992 15.785 10.1955 13.5928 10.1931L12.4395 10.192C12.2552 10.1918 12.0753 10.1916 11.9004 10.1915L9.00665 10.1916C8.89775 10.1921 8.82731 10.1928 8.80013 10.1939C7.57211 10.2455 6.43895 10.7663 5.62193 11.6582C4.85983 12.4919 4.46713 13.5568 4.51871 14.6617L4.52009 21.0896C4.52016 21.2315 4.52024 21.3724 4.52032 21.5122L4.52184 23.499C4.52197 23.6227 4.5221 23.7442 4.52223 23.8635L4.52309 24.5509C4.52324 24.6605 4.5234 24.7674 4.52356 24.8716L4.52518 25.7284C4.52695 26.4999 4.52919 27.0003 4.53203 27.0966C4.72172 29.4012 6.88156 31.1634 9.35423 30.9737C9.61572 30.9741 9.88439 30.9745 10.1586 30.9749L10.9965 30.9762C11.706 30.9774 12.4402 30.9786 13.1739 30.9799L14.0526 30.9813C14.4901 30.982 14.9239 30.9828 15.3483 30.9834L16.1833 30.9847C16.3198 30.9849 16.455 30.9851 16.5885 30.9853L17.3681 30.9863C17.4942 30.9864 17.6183 30.9866 17.7402 30.9867L20.6778 30.9867C20.87 30.986 20.9907 30.985 21.027 30.9837C22.2501 30.9337 23.3849 30.4146 24.2019 29.5243C24.9657 28.694 25.3584 27.6291 25.3101 26.5292L25.3087 26.5017L25.3084 18.4544C25.3083 18.3237 25.3082 18.1947 25.3081 18.0676L25.3069 16.6435C25.3067 16.5342 25.3066 16.4276 25.3065 16.3238L25.305 15.4695C25.3045 15.2132 25.3039 14.9869 25.3033 14.7956L25.3019 14.4611C25.3009 14.2713 25.2997 14.1495 25.2985 14.1076C25.1104 11.7913 22.9406 10.0076 20.4546 10.2022ZM32.8316 13.7077L27.8038 17.8099C27.804 18.0144 27.8042 18.2269 27.8043 18.4475L27.8054 22.6201L32.8117 27.2176C33.1794 27.5171 33.5488 27.394 33.6919 27.3241C33.835 27.2575 34.1661 27.0495 34.1661 26.5769L34.1861 14.3484C34.1878 13.8758 33.855 13.6678 33.7119 13.5996C33.5704 13.533 33.196 13.4082 32.8316 13.7077Z" fill="#CB1B5B"/>
</g>
</svg>
