<svg width="24" height="24" viewBox="0 0 24 24" fill="none" xmlns="http://www.w3.org/2000/svg">
<g id="play-button 1" clip-path="url(#clip0_17_4461)">
<g id="Group">
<g id="Group_2">
<path id="Vector" d="M11.9952 0C5.38063 0 0 5.37951 0 11.9915C0 18.6036 5.38063 23.9831 11.9952 23.9831C18.6097 23.9831 23.9904 18.6036 23.9904 11.9915C23.9904 5.37951 18.6097 0 11.9952 0ZM16.7638 12.4117L9.7666 16.9085C9.68461 16.9617 9.58991 16.988 9.4962 16.988C9.4142 16.988 9.33122 16.9675 9.25704 16.927C9.09595 16.8392 8.99638 16.6713 8.99638 16.4884V7.49471C8.99638 7.31174 9.09595 7.14386 9.25704 7.05603C9.41518 6.96919 9.61334 6.97453 9.7666 7.07458L16.7638 11.5714C16.9063 11.6631 16.9932 11.8217 16.9932 11.9915C16.9932 12.1613 16.9063 12.3199 16.7638 12.4117Z" fill="white"/>
</g>
</g>
</g>
<defs>
<clipPath id="clip0_17_4461">
<rect width="23.9904" height="23.9831" fill="white"/>
</clipPath>
</defs>
</svg>
