<svg width="64" height="64" viewBox="0 0 64 64" fill="none" xmlns="http://www.w3.org/2000/svg">
<g clip-path="url(#clip0_11431_98857)">
<path d="M32 64C49.6731 64 64 49.6731 64 32C64 14.3269 49.6731 0 32 0C14.3269 0 0 14.3269 0 32C0 49.6731 14.3269 64 32 64Z" fill="#EB7A84"/>
<path d="M25.0251 63.2348C25.1406 58.3093 25.2739 49.3838 24.7792 47.7436C24.0887 45.4556 19.7774 43.2298 19.6049 41.4589C19.4323 39.6888 16.8359 36.2309 16.8359 34.1149C16.8359 31.9989 17.2303 26.5186 17.2729 25.3956C17.3162 24.2732 19.0651 19.5666 19.4969 18.4436C19.9288 17.3206 21.8069 18.3142 22.3254 19.2207C22.8439 20.1277 23.1892 21.4874 23.1892 21.4874C23.1892 21.4874 22.8444 16.0249 23.3623 14.0817C24.2653 10.6943 25.4529 6.76644 27.2157 5.84156C27.7629 5.55394 29.6026 6.37331 29.6026 7.79819C29.6026 9.22306 28.3936 12.0729 28.3936 12.0729L27.8543 19.3916C27.8543 19.3916 28.8907 13.4758 29.1499 12.6988C29.4092 11.9217 31.5899 7.94819 31.8486 6.63131C32.1078 5.31444 32.8093 4.16994 33.1874 3.88944C33.5651 3.60881 35.8432 4.23531 35.9513 5.24969C36.0592 6.26469 35.8219 8.01294 35.5842 8.61794C35.3469 9.22244 33.3821 16.2392 33.3821 16.2392L33.4467 21.6797L33.7169 22.9966C33.7169 22.9966 34.7643 18.9158 34.6991 18.0526C34.6344 17.1888 35.7787 14.4037 35.9947 13.7991C36.2107 13.1944 38.5639 7.53819 39.2331 6.69581C39.9023 5.85344 41.4571 6.80369 41.4571 8.09881C41.4571 9.39444 40.7878 12.3089 40.7878 12.3089C40.7878 12.3089 39.5956 16.5398 39.2929 18.0508C38.9904 19.5623 39.0169 24.8746 39.0169 24.8746C39.0169 24.8746 40.7438 19.2603 40.8737 18.9369C41.0036 18.6131 44.4701 14.5409 45.2472 13.7638C46.0243 12.9867 47.3072 14.1869 47.1559 15.2016C47.0047 16.2166 46.0988 18.0733 45.7103 19.4551C45.3217 20.8367 43.5516 24.2483 43.5516 25.3274C43.5516 26.4071 43.2497 31.9337 42.4724 35.3886C41.6953 38.8429 41.3496 43.3342 39.8812 46.0976C38.7877 48.1564 40.0401 57.9341 40.7501 62.7879C37.9694 63.5761 35.0353 63.9981 32.0031 63.9981C29.6064 63.9981 27.2727 63.7324 25.0268 63.2331L25.0251 63.2348Z" fill="#D82E3D"/>
<path d="M3.18063 18.0752H60.8181C62.8562 22.2853 63.9994 27.0092 63.9994 32.0006C63.9994 35.1997 63.5276 38.2881 62.6541 41.2026H1.34525C0.47175 38.2881 0 35.1998 0 32.0006C0 27.0093 1.14313 22.2853 3.18125 18.0752H3.18063Z" fill="#CCCCCC"/>
<path d="M19.7776 18.0748H20.8862C21.4717 18.2977 22.0663 18.77 22.3244 19.2208C22.8429 20.1278 23.1882 21.4876 23.1882 21.4876C23.1882 21.4876 23.0861 19.8652 23.0762 18.0742H27.9497L27.8528 19.3923C27.8528 19.3923 27.9476 18.8507 28.0872 18.0742H33.4018L33.4451 21.6805L33.7153 22.9973C33.7153 22.9973 34.7459 18.9801 34.6986 18.0742H39.2874C38.9896 19.6141 39.0161 24.8761 39.0161 24.8761C39.0161 24.8761 40.7429 19.2618 40.8728 18.9386C40.9057 18.856 41.1569 18.5286 41.5247 18.0748H46.1817C45.9998 18.5547 45.8296 19.0286 45.7093 19.4565C45.3207 20.8381 43.5506 24.2497 43.5506 25.3288C43.5506 26.4085 43.2487 31.9351 42.4714 35.39C42.0689 37.1775 41.7827 39.2427 41.3958 41.2017H19.5657C19.1968 39.3703 16.8359 36.1325 16.8359 34.1152C16.8359 31.9992 17.2303 26.5188 17.2729 25.3958C17.3162 24.2735 19.0651 19.5668 19.4969 18.4438C19.5616 18.2758 19.6586 18.1552 19.7787 18.075L19.7776 18.0748Z" fill="#979E9E"/>
<path d="M36.397 41.2023H28.9219C29.0222 40.4823 29.4276 39.9465 30.2572 39.7433C31.2295 39.5054 31.9501 39.7659 32.4119 40.3305C32.7606 39.9103 33.6156 39.8848 34.607 40.1914C35.581 40.4921 36.282 40.7664 36.3974 41.2023H36.397Z" fill="#FEFEFE"/>
<path d="M26.9106 41.2021H22.4741C22.4078 40.6346 22.1838 39.9164 21.5458 38.8216C20.1064 36.3511 18.6491 34.2645 18.9551 33.574C19.2611 32.8835 19.8904 33.4666 20.9338 33.2056C21.9771 32.9446 22.0493 32.4539 22.301 33.2056C22.5528 33.9574 21.9771 34.9244 22.3323 35.9308C23.0303 37.9116 23.7648 39.0156 25.2156 39.803C26.1474 40.3094 26.8178 40.7603 26.9109 41.2014L26.9106 41.2021Z" fill="#FEFEFE"/>
<path d="M21.5183 25.873C20.9288 25.3498 19.1909 25.3538 19.0829 26.1137C18.9751 26.8735 19.2446 28.6686 19.0829 30.1761C18.9213 31.6835 18.8803 32.2246 18.4754 32.5928C18.0706 32.9611 18.6244 33.2787 19.4472 33.2233C20.2699 33.1685 20.6597 33.3527 21.4027 33.0531C22.1457 32.7541 22.1457 32.3972 21.5251 31.6142C20.9044 30.8318 20.6076 29.1511 21.0799 27.9087C21.5523 26.6662 21.9968 26.2972 21.5183 25.873Z" fill="#FEFEFE"/>
<path d="M19.1392 25.285C19.2276 24.8658 19.8598 24.9743 20.1606 23.7543C20.4613 22.5343 21.1363 21.1418 20.772 20.5783C20.4077 20.0143 20.8932 19.5772 21.5682 20.1297C22.2431 20.6822 22.2021 22.7077 21.7703 23.5246C21.3386 24.3415 21.4603 24.4911 21.8246 24.8017C22.1888 25.1123 22.5127 25.688 21.5816 25.665C20.6503 25.6418 20.502 25.4202 19.8951 25.5078C19.2876 25.5956 19.1131 25.4078 19.1392 25.285Z" fill="#FEFEFE"/>
<path d="M28.3649 41.2018H26.067C25.1779 40.7192 25.1063 39.8687 25.0346 38.1609C24.9538 36.2267 24.0629 29.8757 23.8741 28.3112C23.6854 26.7459 23.1455 26.3776 23.3071 25.5076C23.4688 24.6369 24.0358 24.0762 25.5739 24.2142C27.112 24.3522 27.1663 24.9734 27.1929 26.2858C27.2201 27.5977 27.1393 32.8452 27.1929 34.8251C27.2465 36.8048 28.3563 37.8563 28.7934 38.5671C29.231 39.2778 29.1605 39.6202 28.9019 40.5889C28.8494 40.7864 28.656 41.0196 28.3638 41.2026L28.3649 41.2018Z" fill="#FEFEFE"/>
<path d="M24.2587 18.0755H26.5451C26.5029 19.4502 26.0439 20.7198 26.9214 22.1661C27.8152 23.639 27.4561 24.4391 26.7488 24.2717C25.8551 24.061 24.7384 23.9767 24.1449 24.1932C23.5514 24.4097 23.1599 24.2486 23.0387 23.9836C22.9174 23.7191 23.8077 23.0626 23.8216 22.1308C23.8319 21.4161 24.2228 19.4218 24.2586 18.0742V18.0753L24.2587 18.0755Z" fill="#FEFEFE"/>
<path d="M32.319 39.5202C31.1678 39.2864 30.8259 38.9907 30.2544 39.2638C29.6834 39.5369 29.3549 40.0016 28.7654 39.3174C28.1765 38.6339 28.5102 37.7279 28.792 37.1489C29.296 36.1132 28.9185 32.3043 28.8509 31.0843C28.7834 29.8643 27.934 25.6871 28.3855 24.7432C28.8377 23.7998 29.4849 23.0401 30.9963 23.2934C32.5072 23.5463 32.696 25.1809 31.8865 27.9886C31.0772 30.7968 31.1978 36.1387 31.8865 36.5734C33.2358 37.4251 33.4893 39.7569 32.3184 39.5197L32.319 39.5202Z" fill="#FEFEFE"/>
<path d="M29.6241 18.0752H32.2749C32.243 19.3761 32.2703 20.6468 32.2945 21.2224C32.3488 22.4886 33.4821 23.3171 31.944 23.2449C30.4059 23.1728 28.8655 23.9702 28.7396 23.0411C28.6138 22.1122 29.4341 21.5682 29.5965 18.6912C29.6081 18.4816 29.6174 18.2766 29.6243 18.0758L29.6241 18.0752Z" fill="#FEFEFE"/>
<path d="M35.747 34.4804C35.5385 35.5404 35.3423 36.3909 35.963 37.1733C36.5837 37.9556 35.5583 38.7154 35.2615 38.9683C34.9648 39.2211 33.2917 39.7489 32.5902 38.1618C31.8887 36.5746 33.0492 37.1503 33.5884 33.8356C34.1283 30.5216 34.2899 28.2196 33.966 26.9535C33.6422 25.688 34.3437 24.5598 36.044 24.629C37.7438 24.6983 38.3108 25.987 37.3662 27.8975C36.4217 29.808 35.8593 33.909 35.7472 34.48V34.4805L35.747 34.4804Z" fill="#FEFEFE"/>
<path d="M36.1662 18.0757H38.1356C37.9335 18.4567 37.7944 18.9071 37.8227 19.5503C37.9164 21.6981 37.8349 23.1912 37.8764 23.6288C38.0016 24.9469 37.9579 25.0336 36.6166 24.7079C35.2754 24.3823 34.4527 25.3569 34.1882 24.1936C33.9237 23.0307 35.0376 23.6006 35.7569 20.5013C36.0045 19.4349 36.1154 18.6659 36.1657 18.0752L36.1662 18.0757Z" fill="#FEFEFE"/>
<path d="M39.2432 36.3672C38.8719 37.3903 38.9059 37.8632 39.1757 38.7378C39.4459 39.6125 38.5278 40.8896 36.4501 40.3031C34.3721 39.7158 35.2757 37.5641 36.0049 37.0462C36.7336 36.5283 37.1441 35.5388 37.8231 33.2946C38.5014 31.0503 37.7294 29.3806 38.5101 28.4648C39.1579 27.7056 39.7716 27.5318 41.2087 27.7437C42.4592 27.9278 42.3599 29.6005 41.4154 30.5902C40.4709 31.5798 39.4594 35.7715 39.2428 36.3673L39.2432 36.3672Z" fill="#FEFEFE"/>
<path d="M41.3797 19.2051L42.7065 18.7617C42.6557 18.9383 42.647 19.1323 42.7261 19.3506C43.017 20.1542 43.4091 20.7356 42.8122 21.9112C42.2152 23.0868 43.2194 25.678 43.4369 26.2062C43.654 26.734 42.27 26.9135 42.0685 26.9262C41.1049 26.9862 40.4179 26.8587 40.557 26.2871C40.6956 25.7155 41.1985 25.585 41.1564 23.8726C41.1137 22.1607 40.7009 21.5833 40.8907 20.8356C40.99 20.4447 41.2002 19.8091 41.3802 19.2051H41.3797Z" fill="#FEFEFE"/>
<path d="M3.181 18.0752H60.8185C60.9144 18.2738 61.0085 18.4736 61.1009 18.6739H2.89925C2.99162 18.4729 3.08512 18.2738 3.18162 18.0752H3.181ZM62.8271 40.6038C62.7711 40.8042 62.7134 41.0039 62.654 41.2026H1.345C1.2855 41.0039 1.22788 40.8042 1.17188 40.6038H62.8271Z" fill="#FEFEFE"/>
<path d="M41.4969 21.4032C41.0287 21.4032 40.9976 22.1093 41.4802 22.1398L41.4969 22.1405H41.5282L41.5594 22.1411L41.5907 22.1417L41.6226 22.1423L41.6538 22.1435L41.6851 22.1446L41.7163 22.1457L41.7476 22.1475L41.7782 22.1492L41.8088 22.151L41.8406 22.1533L41.8712 22.1557L41.9018 22.1581L41.9324 22.1605L41.9631 22.1633L41.9943 22.1662L42.0249 22.1697L42.0551 22.1732L42.0863 22.1767L42.1164 22.1802L42.1466 22.1842L42.1767 22.1882L42.2068 22.1922L42.2374 22.1968L42.2681 22.2015L42.2982 22.2061L42.3277 22.2113L42.3578 22.2166L42.3873 22.2218L42.4174 22.2276L42.4469 22.2333L42.4771 22.2397L42.5066 22.2455L42.5354 22.2518L42.5656 22.2582L42.5951 22.2646L42.6246 22.2716L42.6534 22.2786L42.6818 22.2856L42.7119 22.2931L42.7414 22.3006L42.7703 22.3081L42.7992 22.3162L42.8281 22.3243L42.8553 22.3318C43.3247 22.449 43.5239 21.7787 43.0586 21.6235L43.0562 21.6228L43.0291 21.6153L42.9962 21.6061L42.9628 21.5968L42.9294 21.5876L42.8966 21.579L42.8637 21.5703L42.8297 21.5617L42.7957 21.5536L42.7627 21.5455L42.7287 21.5373L42.6958 21.5298L42.6612 21.5223L42.6272 21.5153L42.5938 21.5083L42.5592 21.502L42.5258 21.4956L42.4912 21.4892L42.4566 21.4835L42.4219 21.4777L42.3873 21.472L42.3533 21.4667L42.3193 21.4615L42.2847 21.4562L42.2496 21.4516L42.2144 21.447L42.1793 21.443L42.1453 21.439L42.1102 21.435L42.0751 21.4315L42.0404 21.428L42.0047 21.4245L41.9696 21.4216L41.9338 21.4187L41.8981 21.4163L41.8634 21.414L41.8277 21.4116L41.7919 21.4098L41.7562 21.4081L41.7204 21.407L41.6847 21.4058L41.6483 21.4047L41.6132 21.4036L41.5774 21.403L41.5411 21.4023H41.5047L41.4969 21.4032ZM39.8456 22.4286C40.2999 22.2467 40.0552 21.5827 39.5933 21.7363L39.5783 21.7416L39.5454 21.7537L39.5136 21.7658L39.4818 21.778L39.4506 21.7901L39.4193 21.8022L39.3864 21.8155L39.3552 21.8282L39.3246 21.841L39.2927 21.8542L39.2609 21.8681L39.2303 21.8813L39.1997 21.8952L39.1691 21.9091L39.1378 21.9236L39.1072 21.9381L39.0766 21.9526L39.0453 21.9676L39.0152 21.9826L38.9851 21.9976L38.9549 22.0132L38.9248 22.0288L38.8942 22.0445L38.8641 22.0607L38.8346 22.077L38.8039 22.0937L38.7751 22.11L38.7456 22.1262L38.7161 22.143L38.6872 22.1597L38.6583 22.1765L38.6288 22.1938L38.5993 22.2117L38.5716 22.2291L38.5432 22.2465L38.5137 22.265L38.4853 22.2828L38.4569 22.3013L38.4286 22.3198L38.4013 22.3377L38.3729 22.3562L38.3446 22.3758L38.3173 22.395L38.2902 22.4141L38.2624 22.4332L38.2352 22.4528L38.2074 22.4725L38.2011 22.4777C37.8177 22.7721 38.2351 23.3495 38.6376 23.0718L38.6393 23.0701L38.6422 23.0677L38.6659 23.0503L38.6897 23.0336L38.7134 23.0168L38.7377 23.0001L38.7619 22.9833L38.7857 22.9671L38.8099 22.9508L38.8354 22.9341L38.8597 22.9185L38.8839 22.9028L38.9088 22.8866L38.9326 22.8716L38.9581 22.856L38.9836 22.8403L39.0078 22.8258L39.0327 22.8108L39.0582 22.7958L39.0837 22.7808L39.1092 22.7663L39.1352 22.7518L39.1612 22.7373L39.1861 22.7235L39.2121 22.7096L39.2381 22.6957L39.2636 22.6825L39.2896 22.6692L39.3156 22.656L39.3422 22.6427L39.3688 22.6295L39.3943 22.6167L39.4209 22.604L39.4476 22.5912L39.4736 22.5791L39.5007 22.567L39.5279 22.5548L39.5551 22.5427L39.5817 22.5311L39.6083 22.5201L39.6367 22.5085L39.6644 22.4968L39.6904 22.4865L39.7182 22.4755L39.7459 22.4645L39.7737 22.4541L39.8014 22.4437L39.8281 22.4338L39.8431 22.4286H39.8457H39.8456ZM37.2832 24.592C37.3768 24.4286 37.3304 24.2167 37.1723 24.1076C36.9962 23.9852 36.7509 24.0388 36.6423 24.2288L36.7572 24.2941L37.2832 24.592ZM36.6423 24.2287L36.6388 24.2351L36.6226 24.2646L36.6063 24.2935L36.5896 24.3241L36.5733 24.3536L36.5571 24.3837L36.5414 24.4143L36.5258 24.4445L36.5102 24.4746L36.4952 24.5047L36.4802 24.5348L36.4652 24.5661L36.4507 24.5967L36.4362 24.6273L36.4217 24.6586L36.4078 24.6892L36.3939 24.7198L36.3807 24.7505L36.3668 24.7823L36.3536 24.8142L36.3408 24.8448L36.3281 24.8761L36.3148 24.909L36.3027 24.9402L36.2906 24.9715L36.2784 25.0033L36.2663 25.0352L36.2542 25.0681L36.2426 25.1L36.2309 25.1318L36.2199 25.1641L36.2089 25.1963L36.1979 25.2286L36.1869 25.2615L36.1766 25.2937L36.1662 25.326L36.1558 25.3593L36.1459 25.3916L36.1361 25.4245L36.1262 25.4578L36.1169 25.4907L36.1077 25.5241L36.0984 25.5575L36.0898 25.5903L36.0812 25.6232L36.0726 25.6572L36.0644 25.6912L36.0638 25.6941C35.9663 26.0843 36.5129 26.3338 36.7398 25.9648C36.7601 25.9273 36.7711 25.9025 36.7813 25.8603V25.8597L36.0636 25.6941M36.7827 25.8592L36.7897 25.8308L36.7967 25.8025L36.8042 25.7723L36.8117 25.7428L36.8192 25.714L36.8273 25.6851L36.8354 25.6562L36.8436 25.6278L36.8522 25.599L36.8608 25.5701L36.8694 25.5423L36.8787 25.5135L36.8879 25.4851L36.8972 25.4573L36.9071 25.4285L36.9169 25.4001L36.9268 25.3723L36.9372 25.344L36.9471 25.3162L36.9569 25.2896L36.9673 25.2618L36.9777 25.2341L36.9887 25.2063L36.9997 25.1786L37.0101 25.1526L37.0217 25.1248L37.0333 25.0965L37.0443 25.0698L37.0559 25.0432L37.0681 25.016L37.0802 24.9887L37.0923 24.9615L37.1044 24.9355L37.1172 24.9088L37.1299 24.8822L37.1427 24.8567L37.1559 24.8301L37.1692 24.8035L37.1824 24.7775L37.1957 24.7515L37.2089 24.726L37.2228 24.7L37.2367 24.674L37.2506 24.6491L37.2651 24.6231L37.2796 24.5971L37.2831 24.5907M36.7377 27.9018C36.6574 27.4746 36.0078 27.515 36.0078 27.9821C36.0089 28.003 36.0107 28.0207 36.0142 28.0403L36.7377 27.9018ZM36.0142 28.0405V28.0416L36.0206 28.0762L36.0276 28.1096L36.0346 28.1436L36.0421 28.1782L36.0496 28.2111L36.0577 28.2451L36.0658 28.2781L36.0739 28.3121L36.0826 28.3461L36.0912 28.379L36.0998 28.4118L36.1091 28.4452L36.1183 28.4786L36.1276 28.5115L36.1374 28.5448L36.1473 28.5777L36.1572 28.61L36.1676 28.6433L36.1779 28.6756L36.1883 28.7078L36.1993 28.7407L36.2103 28.773L36.2213 28.8052L36.2323 28.8375L36.2439 28.8693L36.2556 28.9012L36.2677 28.9341L36.2798 28.966L36.2919 28.9978L36.3041 29.0291L36.3162 29.0603L36.3294 29.0932L36.3422 29.1245L36.3549 29.1551L36.3682 29.187L36.3821 29.2188L36.3953 29.2495L36.4092 29.2801L36.4231 29.3107L36.4376 29.342L36.4521 29.3726L36.4666 29.4032L36.4816 29.4345L36.4966 29.4646L36.5116 29.4947L36.5272 29.5248L36.5289 29.5277C36.7229 29.9157 37.3546 29.6893 37.2003 29.227L37.1829 29.189V29.1883L36.5288 29.5273M37.1822 29.1882L37.1694 29.1627L37.1562 29.1361L37.1429 29.1095L37.1302 29.084L37.1174 29.0573L37.1047 29.0307L37.0926 29.0047L37.0804 28.9775L37.0683 28.9502L37.0562 28.9231L37.0446 28.8965L37.0336 28.8698L37.0219 28.8415L37.0103 28.8137L36.9999 28.7877L36.9889 28.76L36.9779 28.7322L36.9676 28.7045L36.9572 28.6767L36.9473 28.6501L36.9374 28.6223L36.9271 28.594L36.9172 28.5662L36.9073 28.5378L36.8974 28.509L36.8882 28.4812L36.8789 28.4528L36.8697 28.424L36.8611 28.3962L36.8524 28.3673L36.8438 28.3385L36.8357 28.3101L36.8276 28.2812L36.8194 28.2523L36.8119 28.2235L36.8044 28.194L36.7969 28.1638L36.7899 28.1355L36.7829 28.1066L36.7759 28.0771L36.7696 28.0476L36.7632 28.0175L36.7568 27.9886L36.7511 27.9591L36.7447 27.929L36.7389 27.8995V27.8983M38.4732 30.7685C38.1037 30.4843 37.6394 31.0017 38.0101 31.3412L38.0158 31.3458L38.0262 31.354L38.0517 31.3742L38.0777 31.3945L38.1049 31.4153L38.1321 31.4362L38.1587 31.4558L38.1853 31.4755L38.2124 31.4957L38.2402 31.5153L38.2674 31.535L38.2952 31.5541L38.3223 31.5732L38.3494 31.5923L38.3778 31.612L38.4062 31.6305L38.4333 31.6483L38.4617 31.6668L38.4901 31.6853L38.5184 31.7032L38.5479 31.7217L38.5763 31.7391L38.6041 31.7565L38.6336 31.7743L38.6631 31.7917L38.6919 31.8085L38.7208 31.8252L38.7503 31.842L38.7798 31.8582L38.8087 31.8745L38.8393 31.8912L38.8688 31.9075L38.8989 31.9237L38.9296 31.9393L38.9597 31.955L38.9898 31.9706L39.0199 31.9856L39.0501 32.0006L39.0813 32.0156L39.1119 32.0301L39.1426 32.0446L39.1738 32.0591L39.2044 32.073L39.2351 32.0868L39.2657 32.1001L39.2974 32.114L39.3293 32.1272L39.3599 32.14L39.3727 32.1452C39.7971 32.315 40.0951 31.7128 39.6884 31.4812L39.6521 31.4638L39.6428 31.4598L39.6144 31.4482L39.5878 31.4372L39.5612 31.4256L39.5339 31.4135L39.5068 31.4013L39.4797 31.3892L39.4537 31.3771L39.4271 31.3643L39.4004 31.3516L39.3749 31.3388L39.3483 31.3256L39.3217 31.3123L39.2957 31.2991L39.2697 31.2858L39.2442 31.2726L39.2182 31.2587L39.1922 31.2448L39.1673 31.231L39.1413 31.2165L39.1153 31.202L39.0898 31.1875L39.0643 31.1725L39.0388 31.1575L39.0139 31.1425L38.9897 31.128L38.9642 31.1123L38.9387 31.0967L38.9149 31.0817L38.8901 31.0655L38.8658 31.0498L38.8416 31.0342L38.8161 31.0175L38.7918 31.0012L38.7681 30.985L38.7438 30.9682L38.7196 30.9515L38.6958 30.9347L38.6721 30.918L38.6483 30.9006L38.6252 30.8832L38.6014 30.8653L38.5783 30.848L38.5552 30.8306L38.5326 30.8132L38.5094 30.7953L38.4857 30.7768L38.4753 30.7687L38.4732 30.7685ZM41.6538 31.8257C41.1712 31.8558 41.1896 32.5618 41.6793 32.5618H41.6816L41.7134 32.5607L41.7492 32.5596L41.7849 32.5578L41.8207 32.5561L41.8564 32.5538L41.8911 32.5515L41.9268 32.5492L41.9626 32.5463L41.9977 32.5435L42.0334 32.54L42.0681 32.5365L42.1032 32.533L42.1383 32.529L42.1723 32.525L42.2074 32.521L42.2426 32.5163L42.2777 32.5117L42.3123 32.5065L42.3463 32.5012L42.3803 32.496L42.4149 32.4902L42.4496 32.4845L42.4842 32.4787L42.5188 32.4723L42.5522 32.466L42.5868 32.4596L42.6202 32.4526L42.6542 32.4456L42.6888 32.4381L42.7217 32.4306L42.7557 32.4225L42.7886 32.4143L42.8226 32.4062L42.8566 32.3976L42.8894 32.389L42.9223 32.3803L42.9557 32.3711L42.9891 32.3618L43.0219 32.3526L43.0553 32.3427L43.0882 32.3328L43.1206 32.323L43.1539 32.3126L43.1863 32.3022L43.2186 32.2918L43.2267 32.289C43.6533 32.147 43.4992 31.4916 43.0327 31.5793L42.9941 31.5897L42.9912 31.5908L42.9628 31.6001L42.9339 31.6093L42.9062 31.618L42.8773 31.6266L42.8484 31.6352L42.8201 31.6433L42.7912 31.6515L42.7623 31.6596L42.7334 31.6671L42.7039 31.6746L42.6738 31.6821L42.6454 31.6891L42.6166 31.6961L42.5871 31.7031L42.5576 31.7095L42.5274 31.7158L42.4986 31.7222L42.4691 31.728L42.4389 31.7343L42.4094 31.7401L42.3793 31.7458L42.3498 31.7511L42.3197 31.7563L42.2902 31.7616L42.2601 31.7662L42.2294 31.7708L42.1988 31.7755L42.1687 31.7795L42.1386 31.7835L42.1084 31.7875L42.0783 31.791L42.0471 31.7945L42.0169 31.798L41.9863 31.8015L41.9551 31.8043L41.9244 31.8072L41.8938 31.8096L41.8632 31.812L41.8326 31.8143L41.8007 31.8167L41.7701 31.8185L41.7394 31.8202L41.7082 31.822L41.6769 31.8231L41.6452 31.8242L41.6538 31.8257ZM44.7602 30.5646C44.6914 30.6275 44.6482 30.7171 44.6424 30.8071C44.6199 31.1437 45.0142 31.3313 45.2591 31.1067L45.2753 31.0917L45.2996 31.0692L45.3244 31.0461L45.3487 31.023L45.3729 30.9992L45.3961 30.9767L45.4203 30.953L45.4441 30.9292L45.4678 30.9055L45.4916 30.8812L45.5142 30.8581L45.5379 30.8338L45.5611 30.8096L45.5842 30.7847L45.6067 30.7605L45.6292 30.7362L45.6518 30.7113L45.6743 30.6858L45.6963 30.661L45.7188 30.6355L45.7408 30.61L45.7622 30.5845L45.7842 30.5585L45.8051 30.533L45.8259 30.5075L45.8479 30.4808L45.8688 30.4542L45.8891 30.4287L45.9093 30.4027L45.9302 30.3756L45.9511 30.3483L45.9707 30.3217L45.9903 30.2951L46.0106 30.268L46.0302 30.2402L46.0498 30.2131L46.0689 30.1853L46.0881 30.1582L46.1072 30.131L46.1268 30.1026L46.1453 30.0742L46.1632 30.047L46.1817 30.0186L46.2002 29.9902L46.2181 29.9618L46.2366 29.9323L46.2539 29.904L46.2603 29.893C46.4798 29.509 45.9907 29.1355 45.6777 29.4485C45.6603 29.4693 45.6443 29.4865 45.6309 29.5097L45.6257 29.5183L45.6101 29.5438L45.5951 29.5676L45.5788 29.5925L45.5632 29.6167L45.5476 29.641L45.5308 29.6665L45.5146 29.6907L45.4983 29.7145L45.4816 29.7387L45.4648 29.763L45.4481 29.7867L45.4313 29.8105L45.4139 29.8342L45.3966 29.8573L45.3787 29.8811L45.3613 29.9042L45.3439 29.9273L45.3266 29.9498L45.3087 29.973L45.2902 29.9967L45.2723 30.0192L45.2544 30.0412L45.2353 30.0637L45.2168 30.0862L45.1983 30.1082L45.1792 30.1307L45.1607 30.1527L45.1416 30.1747L45.1219 30.1967L45.1028 30.2181L45.0832 30.2395L45.0636 30.2608L45.0439 30.2828L45.0243 30.3037L45.0047 30.3246L44.9851 30.3455L44.9642 30.3668L44.9439 30.3877L44.9237 30.408L44.9034 30.4282L44.8826 30.4485L44.8612 30.4693L44.8403 30.489L44.8194 30.5086L44.7986 30.5282L44.7766 30.5478L44.7603 30.5628V30.5642H44.7602V30.5646ZM46.3046 27.5901C46.2474 28.0456 46.9419 28.1813 47.0349 27.6865L47.0361 27.6772L47.0384 27.6587L47.0424 27.6247L47.0464 27.5896L47.0499 27.5545L47.0534 27.5198L47.0569 27.4841L47.0598 27.449L47.0627 27.4132L47.0651 27.3775L47.0673 27.3428L47.0697 27.3071L47.0714 27.2713L47.0732 27.2356L47.0743 27.1998L47.0754 27.1641L47.0766 27.1277L47.0777 27.0926L47.0783 27.0568L47.0789 27.0205V26.9841V26.9477L47.0783 26.9113L47.0777 26.8756L47.0766 26.8405L47.0754 26.8041L47.0743 26.7683L47.0732 26.7326L47.0714 26.6968L47.0697 26.6611L47.0673 26.6253L47.0651 26.5907L47.0627 26.555L47.0598 26.5192L47.0569 26.4841L47.0534 26.4483L47.0499 26.4137L47.0464 26.3786L47.0424 26.3435L47.0384 26.3095L47.0344 26.2743L47.0298 26.2392L47.0252 26.2041L47.0199 26.1695L47.0147 26.1355L47.0107 26.1088C46.9212 25.6301 46.2219 25.7376 46.2826 26.2237L46.2861 26.2468L46.2907 26.2775L46.2947 26.3076L46.2987 26.3377L46.3027 26.3678L46.3062 26.398L46.3097 26.4292L46.3132 26.4593L46.3167 26.49L46.3196 26.5212L46.3224 26.5518L46.3247 26.5825L46.3271 26.6131L46.3294 26.6437L46.3317 26.6756L46.3334 26.7062L46.3352 26.7368L46.3369 26.7681L46.3381 26.7993L46.3392 26.8306L46.3403 26.8618L46.3409 26.8937L46.3416 26.925L46.3422 26.9562V26.9875V27.0187L46.3416 27.05L46.3409 27.0812L46.3403 27.1131L46.3392 27.1443L46.3381 27.1756L46.3369 27.2068L46.3352 27.2381L46.3334 27.2687L46.3317 27.2993L46.3294 27.3312L46.3271 27.3618L46.3247 27.3925L46.3224 27.4231L46.3196 27.4537L46.3167 27.485L46.3132 27.5156L46.3097 27.5457L46.3062 27.577L46.3038 27.5955L46.3046 27.5901ZM45.5471 24.324C45.6544 24.4787 45.8507 24.5336 46.0171 24.4505C46.2139 24.3523 46.2849 24.0966 46.1608 23.9163L46.1446 23.8915L46.1261 23.8631L46.1064 23.8347L46.0873 23.8075L46.0682 23.7802L46.0491 23.7525L46.0294 23.7252L46.0098 23.6975L45.9896 23.6702L45.9699 23.6436L45.9503 23.617L45.9294 23.5897L45.9086 23.5625L45.8883 23.5365L45.8681 23.511L45.8472 23.4843L45.8252 23.4577L45.8043 23.4322L45.7834 23.4067L45.7614 23.3807L45.7401 23.3552L45.7181 23.3297L45.6956 23.3042L45.6736 23.2793L45.6511 23.2538L45.6286 23.229L45.6059 23.2047L45.5834 23.1805L45.5603 23.1556L45.5372 23.1313L45.5134 23.1071L45.4909 23.084L45.4672 23.0597L45.4434 23.036L45.4197 23.0122L45.3954 22.9885L45.3723 22.966L45.3481 22.9422L45.3238 22.9191L45.2989 22.896L45.2747 22.8735L45.2504 22.851L45.2256 22.8285L45.2001 22.806L45.1752 22.784L45.1497 22.7615L45.1242 22.7395L45.1196 22.7355C44.7979 22.4676 44.3499 22.8556 44.5694 23.2125C44.5926 23.2453 44.6116 23.2713 44.6433 23.298L44.6456 23.2997L44.6676 23.3182L44.6896 23.3373L44.7116 23.357L44.7329 23.3761L44.7543 23.3957L44.7757 23.4153L44.7977 23.435L44.8186 23.4546L44.8394 23.4742L44.8603 23.4938L44.8817 23.5147L44.9026 23.535L44.9228 23.5552L44.9431 23.5755L44.9633 23.5963L44.9842 23.6177L45.0038 23.6386L45.0234 23.6595L45.0431 23.6803L45.0627 23.7023L45.0823 23.7237L45.1019 23.7451L45.1211 23.7665L45.1407 23.7885L45.1598 23.8105L45.1783 23.8325L45.1974 23.855L45.2159 23.877L45.2344 23.8995L45.2536 23.922L45.2714 23.944L45.2893 23.9665L45.3078 23.9902L45.3257 24.0133L45.3431 24.0358L45.3604 24.059L45.3778 24.0821L45.3957 24.1058L45.4131 24.129L45.4304 24.1527L45.4472 24.1765L45.4639 24.2002L45.4807 24.2245L45.4974 24.2487L45.5137 24.2725L45.5299 24.2967L45.5462 24.3216L45.5471 24.324Z" fill="#FEFEFE"/>
</g>
<defs>
<clipPath id="clip0_11431_98857">
<rect width="64" height="64" fill="white"/>
</clipPath>
</defs>
</svg>
