<svg width="48" height="48" viewBox="0 0 48 48" fill="none" xmlns="http://www.w3.org/2000/svg">
<rect width="48" height="48" rx="10" fill="#FFF9FB"/>
<g clip-path="url(#clip0_1321_4558)">
<path d="M23.5754 39.5755C14.7532 39.5755 7.57578 32.3978 7.57578 23.5754C7.57578 14.7531 14.7532 7.57544 23.5754 7.57544C32.3977 7.57544 39.5752 14.7531 39.5752 23.5754C39.5752 32.3978 32.3977 39.5755 23.5754 39.5755ZM23.5754 9.76571C15.9609 9.76571 9.76605 15.9607 9.7659 23.5754C9.7659 31.1901 15.9607 37.385 23.5754 37.3852C31.19 37.385 37.3848 31.1901 37.3848 23.5752C37.3848 15.9608 31.19 9.76571 23.5754 9.76571Z" fill="#CB1B5B"/>
<path d="M25.7241 30.4283C25.2964 30.8558 24.6029 30.8557 24.1754 30.4283C23.7475 30.0004 23.7475 29.3071 24.1755 28.8793L28.3838 24.6712L16.1975 24.67C15.5927 24.6699 15.1026 24.1797 15.1026 23.5746C15.1027 22.9698 15.5929 22.4798 16.1977 22.4798L28.3844 22.4809L24.1751 18.272C23.7474 17.8443 23.7474 17.1507 24.1751 16.7231C24.389 16.5094 24.6692 16.4023 24.9496 16.4023C25.2298 16.4023 25.51 16.5094 25.7239 16.723L31.8025 22.8014C32.0079 23.0067 32.1233 23.2852 32.1233 23.5758C32.1231 23.8664 32.0078 24.1447 31.8023 24.3504L25.7241 30.4283Z" fill="#CB1B5B"/>
</g>
<defs>
<clipPath id="clip0_1321_4558">
<rect width="32" height="32" fill="white" transform="matrix(-1 0 0 1 39.5754 7.57544)"/>
</clipPath>
</defs>
</svg>
