<svg width="48" height="48" viewBox="0 0 48 48" fill="none" xmlns="http://www.w3.org/2000/svg">
<rect width="48" height="48" rx="10" fill="#FFF9FB"/>
<path fill-rule="evenodd" clip-rule="evenodd" d="M17.3799 19.5213L22.7079 13.4147C23.0332 13.0413 23.5052 12.8267 23.9999 12.8267C24.4946 12.8267 24.9666 13.0413 25.2919 13.4147L30.6199 19.5213L35.7039 16.3107C36.2732 15.952 36.9999 15.9587 37.5626 16.3293C38.1252 16.7 38.4186 17.3667 38.3119 18.032L35.8959 33.128C35.7079 34.3067 34.6906 35.1733 33.4986 35.1733H14.5012C13.3092 35.1733 12.2919 34.3067 12.1039 33.128L9.68791 18.032C9.58125 17.3667 9.87458 16.7 10.4372 16.3293C10.9999 15.9587 11.7266 15.952 12.2959 16.3107L17.3799 19.5213ZM11.7626 18.34L14.0786 32.812C14.1119 33.02 14.2906 33.1733 14.5012 33.1733H33.4986C33.7092 33.1733 33.8879 33.02 33.9212 32.812L36.2372 18.34L31.4812 21.3427C30.7666 21.7947 29.8292 21.6573 29.2732 21.0213L23.9999 14.976L18.7266 21.0213C18.1706 21.6573 17.2332 21.7947 16.5186 21.3427L11.7626 18.34Z" fill="#CB1B5B"/>
<path fill-rule="evenodd" clip-rule="evenodd" d="M34.7159 28.172C35.2679 28.172 35.7159 28.62 35.7159 29.172C35.7159 29.724 35.2679 30.172 34.7159 30.172H13.2839C12.7319 30.172 12.2839 29.724 12.2839 29.172C12.2839 28.62 12.7319 28.172 13.2839 28.172H34.7159Z" fill="#CB1B5B"/>
</svg>
