<svg width="48" height="48" viewBox="0 0 48 48" fill="none" xmlns="http://www.w3.org/2000/svg">
<rect width="48" height="48" rx="10" fill="#FFF9FB"/>
<g clip-path="url(#clip0_1321_4585)">
<path d="M24 9C21.0333 9 18.1332 9.87973 15.6665 11.528C13.1997 13.1762 11.2771 15.5189 10.1418 18.2597C9.0065 21.0006 8.70945 24.0166 9.28823 26.9264C9.86701 29.8361 11.2956 32.5088 13.3934 34.6066C15.4912 36.7044 18.1639 38.133 21.0737 38.7118C23.9834 39.2906 26.9994 38.9935 29.7403 37.8582C32.4812 36.7229 34.8238 34.8003 36.4721 32.3336C38.1203 29.8668 39 26.9667 39 24C39 20.0218 37.4197 16.2064 34.6066 13.3934C31.7936 10.5804 27.9783 9 24 9ZM24 37C21.4288 37 18.9154 36.2376 16.7776 34.8091C14.6398 33.3806 12.9735 31.3503 11.9896 28.9749C11.0056 26.5994 10.7482 23.9856 11.2498 21.4638C11.7514 18.9421 12.9895 16.6257 14.8076 14.8076C16.6257 12.9895 18.9421 11.7514 21.4638 11.2498C23.9856 10.7482 26.5995 11.0056 28.9749 11.9896C31.3503 12.9735 33.3807 14.6397 34.8091 16.7776C36.2376 18.9154 37 21.4288 37 24C37 27.4478 35.6304 30.7544 33.1924 33.1924C30.7544 35.6304 27.4478 37 24 37Z" fill="#CB1B5B"/>
<path d="M29 17C29 16.7348 28.8946 16.4804 28.7071 16.2929C28.5196 16.1054 28.2652 16 28 16H20C19.7348 16 19.4804 16.1054 19.2929 16.2929C19.1054 16.4804 19 16.7348 19 17C19 17.2652 19.1054 17.5196 19.2929 17.7071C19.4804 17.8946 19.7348 18 20 18H22C22.6189 18.0017 23.2222 18.1949 23.7271 18.5529C24.2319 18.911 24.6137 19.4165 24.82 20H20C19.7348 20 19.4804 20.1054 19.2929 20.2929C19.1054 20.4804 19 20.7348 19 21C19 21.2652 19.1054 21.5196 19.2929 21.7071C19.4804 21.8946 19.7348 22 20 22H24.82C24.6137 22.5835 24.2319 23.089 23.7271 23.4471C23.2222 23.8051 22.6189 23.9983 22 24H20C19.7901 24 19.5856 24.066 19.4153 24.1888C19.245 24.3115 19.1177 24.4847 19.0513 24.6838C18.9849 24.8829 18.9829 25.0978 19.0455 25.2982C19.1081 25.4985 19.2321 25.6741 19.4 25.8L27.4 31.8C27.6122 31.9591 27.8789 32.0275 28.1414 31.99C28.404 31.9524 28.6409 31.8122 28.8 31.6C28.9591 31.3878 29.0275 31.1211 28.99 30.8586C28.9524 30.596 28.8122 30.3591 28.6 30.2L22.89 25.92C23.8718 25.7405 24.7775 25.2712 25.4904 24.5726C26.2032 23.874 26.6907 22.978 26.89 22H28C28.2652 22 28.5196 21.8946 28.7071 21.7071C28.8946 21.5196 29 21.2652 29 21C29 20.7348 28.8946 20.4804 28.7071 20.2929C28.5196 20.1054 28.2652 20 28 20H26.89C26.7447 19.2758 26.4408 18.5927 26 18H28C28.2652 18 28.5196 17.8946 28.7071 17.7071C28.8946 17.5196 29 17.2652 29 17Z" fill="#CB1B5B"/>
</g>
<defs>
<clipPath id="clip0_1321_4585">
<rect width="32" height="32" fill="white" transform="translate(8 8)"/>
</clipPath>
</defs>
</svg>
