<svg width="48" height="48" viewBox="0 0 48 48" fill="none" xmlns="http://www.w3.org/2000/svg">
<rect width="48" height="48" rx="10" fill="#FFF9FB"/>
<path fill-rule="evenodd" clip-rule="evenodd" d="M13.0621 23.7155C13.0179 23.7597 13 23.8103 13 23.8534V28.2534C13 29.0211 13.6323 29.6534 14.4 29.6534H16.1333C16.2477 29.6534 16.3334 29.5678 16.3334 29.4534V23.8534C16.3334 23.7452 16.2405 23.6534 16.1333 23.6534H13.2C13.1569 23.6534 13.1063 23.6714 13.0621 23.7155ZM11 23.8534C11 22.6478 11.9945 21.6534 13.2 21.6534H16.1333C17.3594 21.6534 18.3334 22.655 18.3334 23.8534V29.4534C18.3334 30.6724 17.3522 31.6534 16.1333 31.6534H14.4C12.5277 31.6534 11 30.1257 11 28.2534V23.8534Z" fill="#CB1B5B"/>
<path fill-rule="evenodd" clip-rule="evenodd" d="M24 12.9867C19.3923 12.9867 15.6666 16.7123 15.6666 21.32V22.6667C15.6666 23.219 15.2189 23.6667 14.6666 23.6667C14.1143 23.6667 13.6666 23.219 13.6666 22.6667V21.32C13.6666 15.6077 18.2876 10.9867 24 10.9867C29.7123 10.9867 34.3333 15.6077 34.3333 21.32V22.6534C34.3333 23.2056 33.8856 23.6534 33.3333 23.6534C32.781 23.6534 32.3333 23.2056 32.3333 22.6534V21.32C32.3333 16.7123 28.6076 12.9867 24 12.9867Z" fill="#CB1B5B"/>
<path fill-rule="evenodd" clip-rule="evenodd" d="M33.397 29.673C33.9385 29.7817 34.2892 30.3088 34.1805 30.8503C33.4751 34.3616 30.3788 37 26.6667 37H25.3334C24.7811 37 24.3334 36.5523 24.3334 36C24.3334 35.4477 24.7811 35 25.3334 35H26.6667C29.4079 35 31.6983 33.0517 32.2196 30.4564C32.3284 29.915 32.8555 29.5642 33.397 29.673Z" fill="#CB1B5B"/>
<path fill-rule="evenodd" clip-rule="evenodd" d="M31.7288 23.7155C31.6846 23.7597 31.6666 23.8103 31.6666 23.8534V29.4534C31.6666 29.5617 31.7595 29.6534 31.8667 29.6534H33.5333C34.341 29.6534 35 28.9945 35 28.1867V23.8534C35 23.7452 34.9072 23.6534 34.8 23.6534H31.8667C31.8236 23.6534 31.7729 23.6714 31.7288 23.7155ZM29.6666 23.8534C29.6666 22.6478 30.6611 21.6534 31.8667 21.6534H34.8C36.0261 21.6534 37 22.655 37 23.8534V28.1867C37 30.099 35.4457 31.6534 33.5333 31.6534H31.8667C30.6405 31.6534 29.6666 30.6518 29.6666 29.4534V23.8534Z" fill="#CB1B5B"/>
</svg>
