<svg width="48" height="48" viewBox="0 0 48 48" fill="none" xmlns="http://www.w3.org/2000/svg">
<rect width="48" height="48" rx="10" fill="#FFF9FB"/>
<path d="M24 31.662C24.5523 31.662 25 31.2143 25 30.662C25 30.1097 24.5523 29.662 24 29.662C23.4477 29.662 23 30.1097 23 30.662C23 31.2143 23.4477 31.662 24 31.662Z" fill="#CB1B5B"/>
<path d="M30.6191 39H17.3821L20.3831 33H27.6161L30.6191 39ZM20.6181 37H27.3811L26.3801 35H21.6191L20.6181 37Z" fill="#CB1B5B"/>
<path d="M33 37H15C14.4477 37 14 37.4477 14 38C14 38.5523 14.4477 39 15 39H33C33.5523 39 34 38.5523 34 38C34 37.4477 33.5523 37 33 37Z" fill="#CB1B5B"/>
<path d="M34 35H14C11.243 35 9 32.757 9 30V14C9 11.243 11.243 9 14 9H34C36.757 9 39 11.243 39 14V30C39 32.757 36.757 35 34 35ZM14 11C12.346 11 11 12.346 11 14V30C11 31.654 12.346 33 14 33H34C35.654 33 37 31.654 37 30V14C37 12.346 35.654 11 34 11H14Z" fill="#CB1B5B"/>
<path d="M27.562 14.145L31.24 13.769C31.956 13.696 32.596 14.217 32.669 14.933L33.045 18.611C33.101 19.16 32.701 19.651 32.152 19.707C31.603 19.763 31.112 19.363 31.056 18.814L30.751 15.829L27.766 16.134C27.217 16.19 26.726 15.79 26.67 15.241C26.614 14.692 27.013 14.201 27.562 14.145Z" fill="#CB1B5B"/>
<path d="M15.289 23.578C14.874 23.213 14.834 22.581 15.199 22.166L19.229 17.585C19.769 16.971 20.548 16.61 21.367 16.597H21.416C22.217 16.597 22.988 16.93 23.538 17.514L25.028 19.099C25.203 19.285 25.438 19.387 25.692 19.387H25.697C25.954 19.386 26.191 19.281 26.365 19.092L30.529 14.557L32.002 15.91L27.838 20.445C27.292 21.04 26.516 21.383 25.709 21.388C24.91 21.36 24.123 21.058 23.571 20.47L22.081 18.886C21.902 18.696 21.685 18.606 21.4 18.598C21.14 18.602 20.903 18.712 20.731 18.908L16.701 23.489C16.336 23.904 15.704 23.944 15.289 23.579V23.578Z" fill="#CB1B5B"/>
<path d="M10 26.324H38V28.324H10V26.324Z" fill="#CB1B5B"/>
</svg>
