<svg width="48" height="48" viewBox="0 0 48 48" fill="none" xmlns="http://www.w3.org/2000/svg">
<rect width="48" height="48" rx="10" fill="#FFF9FB"/>
<path d="M39 18.5V16C38.9955 15.8471 38.958 15.697 38.89 15.56L36.45 10.66C36.2006 10.1604 35.8166 9.74026 35.3414 9.44698C34.8661 9.15371 34.3184 8.99891 33.76 9.00001H14.24C13.6816 8.99891 13.1339 9.15371 12.6586 9.44698C12.1834 9.74026 11.7994 10.1604 11.55 10.66L9.11 15.55C9.0406 15.6901 9.00304 15.8437 9 16V18.5C9.00115 19.2396 9.18417 19.9676 9.53294 20.6198C9.88171 21.272 10.3855 21.8284 11 22.24V37H10C9.73478 37 9.48043 37.1054 9.29289 37.2929C9.10536 37.4804 9 37.7348 9 38C9 38.2652 9.10536 38.5196 9.29289 38.7071C9.48043 38.8946 9.73478 39 10 39H38C38.2652 39 38.5196 38.8946 38.7071 38.7071C38.8946 38.5196 39 38.2652 39 38C39 37.7348 38.8946 37.4804 38.7071 37.2929C38.5196 37.1054 38.2652 37 38 37H37V22.24C37.6145 21.8284 38.1183 21.272 38.4671 20.6198C38.8158 19.9676 38.9989 19.2396 39 18.5ZM37 18.5C37 19.163 36.7366 19.7989 36.2678 20.2678C35.7989 20.7366 35.163 21 34.5 21C33.837 21 33.2011 20.7366 32.7322 20.2678C32.2634 19.7989 32 19.163 32 18.5V17H37V18.5ZM11 18.5V17H16V18.5C16 19.163 15.7366 19.7989 15.2678 20.2678C14.7989 20.7366 14.163 21 13.5 21C12.837 21 12.2011 20.7366 11.7322 20.2678C11.2634 19.7989 11 19.163 11 18.5ZM18 17H23V18.5C23 19.163 22.7366 19.7989 22.2678 20.2678C21.7989 20.7366 21.163 21 20.5 21C19.837 21 19.2011 20.7366 18.7322 20.2678C18.2634 19.7989 18 19.163 18 18.5V17ZM25 17H30V18.5C30 19.163 29.7366 19.7989 29.2678 20.2678C28.7989 20.7366 28.163 21 27.5 21C26.837 21 26.2011 20.7366 25.7322 20.2678C25.2634 19.7989 25 19.163 25 18.5V17ZM13.34 11.55C13.4239 11.3836 13.5526 11.2439 13.7116 11.1467C13.8706 11.0495 14.0536 10.9987 14.24 11H33.76C33.9464 10.9987 34.1294 11.0495 34.2884 11.1467C34.4474 11.2439 34.5761 11.3836 34.66 11.55L36.38 15H11.62L13.34 11.55ZM27 37H21V31C21 30.7348 21.1054 30.4804 21.2929 30.2929C21.4804 30.1054 21.7348 30 22 30H26C26.2652 30 26.5196 30.1054 26.7071 30.2929C26.8946 30.4804 27 30.7348 27 31V37ZM35 37H29V31C29 30.2044 28.6839 29.4413 28.1213 28.8787C27.5587 28.3161 26.7956 28 26 28H22C21.2044 28 20.4413 28.3161 19.8787 28.8787C19.3161 29.4413 19 30.2044 19 31V37H13V23C13.1655 23.0266 13.3325 23.0433 13.5 23.05C14.175 23.0442 14.8401 22.8866 15.446 22.5888C16.0519 22.2911 16.583 21.8609 17 21.33C17.4218 21.852 17.9551 22.273 18.5607 22.5622C19.1663 22.8515 19.8289 23.0016 20.5 23.0016C21.1711 23.0016 21.8337 22.8515 22.4393 22.5622C23.0449 22.273 23.5782 21.852 24 21.33C24.4218 21.852 24.9551 22.273 25.5607 22.5622C26.1663 22.8515 26.8289 23.0016 27.5 23.0016C28.1711 23.0016 28.8337 22.8515 29.4393 22.5622C30.0449 22.273 30.5782 21.852 31 21.33C31.422 21.8517 31.9553 22.2724 32.5609 22.5614C33.1665 22.8503 33.829 23.0002 34.5 23C34.6665 23.0099 34.8335 23.0099 35 23V37Z" fill="#CB1B5B"/>
</svg>
