<svg width="24" height="24" viewBox="0 0 24 24" fill="none" xmlns="http://www.w3.org/2000/svg">
<g id="Mask group">
<mask id="mask0_1528_215" style="mask-type:alpha" maskUnits="userSpaceOnUse" x="0" y="0" width="24" height="24">
<rect id="Rectangle 25529" width="24" height="24" fill="#D9D9D9"/>
</mask>
<g mask="url(#mask0_1528_215)">
<g id="Iconly/Bulk/Location">
<g id="Location">
<path id="Path_34175" d="M7.92047 3.10208C10.4909 1.60856 13.6504 1.63466 16.1967 3.17046C18.7179 4.73755 20.2503 7.53433 20.2361 10.5429C20.1773 13.5317 18.5342 16.3412 16.4803 18.5131C15.2948 19.7722 13.9687 20.8857 12.529 21.8306C12.3807 21.9164 12.2183 21.9738 12.0497 22C11.8875 21.9931 11.7295 21.9452 11.59 21.8605C9.39201 20.4407 7.46367 18.6283 5.89778 16.5105C4.58749 14.7428 3.84308 12.6071 3.76562 10.3934L3.77149 10.0714C3.87847 7.18194 5.44185 4.54227 7.92047 3.10208ZM13.0683 7.92326C12.0234 7.4791 10.8186 7.72041 10.0166 8.53453C9.21455 9.34864 8.97344 10.575 9.40582 11.6409C9.83819 12.7069 10.8588 13.4022 11.991 13.4022C12.7328 13.4075 13.4458 13.1104 13.9713 12.577C14.4967 12.0437 14.7909 11.3184 14.7883 10.5628C14.7922 9.40945 14.1132 8.36743 13.0683 7.92326Z" fill="#A6A6A6"/>
</g>
</g>
</g>
</g>
</svg>
