<svg width="48" height="48" viewBox="0 0 48 48" fill="none" xmlns="http://www.w3.org/2000/svg">
<rect width="48" height="48" rx="10" fill="#FFF9FB"/>
<path d="M24.9999 21.833C24.9999 21.2808 24.5522 20.8331 23.9999 20.8331C23.4477 20.8331 22.9999 21.2808 22.9999 21.833H24.9999ZM22.9999 36.61C22.9999 37.1622 23.4477 37.61 23.9999 37.61C24.5522 37.61 24.9999 37.1622 24.9999 36.61H22.9999ZM20.8325 14.5145C20.3545 14.7911 20.1911 15.4028 20.4677 15.8809C20.7442 16.3589 21.3559 16.5223 21.8339 16.2457L20.8325 14.5145ZM26.1659 16.2457C26.6439 16.5223 27.2557 16.3589 27.5322 15.8809C27.8087 15.4028 27.6454 14.7911 27.1673 14.5145L26.1659 16.2457ZM18.0945 11.5194C17.6415 11.8353 17.5304 12.4587 17.8464 12.9116C18.1624 13.3646 18.7857 13.4757 19.2387 13.1597L18.0945 11.5194ZM28.7611 13.1597C29.2142 13.4757 29.8375 13.3646 30.1534 12.9116C30.4694 12.4587 30.3583 11.8353 29.9054 11.5194L28.7611 13.1597ZM22.9999 21.833V36.61H24.9999V21.833H22.9999ZM15.3513 19.6723C17.6642 19.9264 20.6466 20.6029 22.7082 22.0073L23.8342 20.3544C21.3653 18.6724 17.9894 17.9501 15.5697 17.6843L15.3513 19.6723ZM15.3513 35.6024C17.6642 35.8564 20.6466 36.5329 22.7082 37.9373L23.8342 36.2844C21.3653 34.6024 17.9894 33.8801 15.5697 33.6142L15.3513 35.6024ZM12.3333 20.6735V32.3554H14.3333V20.6735H12.3333ZM15.5697 33.6142C14.8411 33.5342 14.3333 32.9561 14.3333 32.3554H12.3333C12.3333 34.1009 13.7378 35.425 15.3513 35.6024L15.5697 33.6142ZM15.5697 17.6843C13.7442 17.4837 12.3333 18.9695 12.3333 20.6735H14.3333C14.3333 20.0313 14.8346 19.6156 15.3513 19.6723L15.5697 17.6843ZM32.4301 17.6843C30.0105 17.9501 26.6346 18.6724 24.1657 20.3544L25.2917 22.0073C27.3533 20.6029 30.3357 19.9264 32.6485 19.6723L32.4301 17.6843ZM32.4301 33.6142C30.0105 33.8801 26.6346 34.6024 24.1657 36.2844L25.2917 37.9373C27.3533 36.5329 30.3357 35.8564 32.6485 35.6024L32.4301 33.6142ZM33.6666 20.6735V32.3554H35.6666V20.6735H33.6666ZM32.6485 35.6024C34.2621 35.425 35.6666 34.1009 35.6666 32.3554H33.6666C33.6666 32.9561 33.1587 33.5342 32.4301 33.6142L32.6485 35.6024ZM32.6485 19.6723C33.1653 19.6156 33.6666 20.0313 33.6666 20.6735H35.6666C35.6666 18.9695 34.2557 17.4837 32.4301 17.6843L32.6485 19.6723ZM22.7082 37.9373C23.4833 38.4653 24.5166 38.4653 25.2917 37.9373L24.1657 36.2844C24.0699 36.3496 23.9299 36.3496 23.8342 36.2844L22.7082 37.9373ZM22.7082 22.0073C23.4833 22.5353 24.5166 22.5353 25.2917 22.0073L24.1657 20.3544C24.0699 20.4196 23.9299 20.4196 23.8342 20.3544L22.7082 22.0073ZM21.8339 16.2457C22.4703 15.8776 23.209 15.6666 23.9999 15.6666V13.6666C22.8481 13.6666 21.7651 13.9751 20.8325 14.5145L21.8339 16.2457ZM23.9999 15.6666C24.7909 15.6666 25.5295 15.8776 26.1659 16.2457L27.1673 14.5145C26.2347 13.9751 25.1518 13.6666 23.9999 13.6666V15.6666ZM19.2387 13.1597C20.5881 12.2185 22.2281 11.6666 23.9999 11.6666V9.66663C21.8058 9.66663 19.7686 10.3516 18.0945 11.5194L19.2387 13.1597ZM23.9999 11.6666C25.7718 11.6666 27.4118 12.2185 28.7611 13.1597L29.9054 11.5194C28.2313 10.3516 26.1941 9.66663 23.9999 9.66663V11.6666Z" fill="#CB1B5B"/>
</svg>
