<svg width="19" height="20" viewBox="0 0 19 20" fill="none" xmlns="http://www.w3.org/2000/svg">
<path d="M13.2201 1.49698H16.7278L8.70844 9.47628C8.44875 9.73455 8.44875 10.1547 8.70844 10.413C8.83635 10.5402 9.00689 10.6057 9.17743 10.6057C9.34797 10.6057 9.51852 10.5402 9.64642 10.413L17.6697 2.43368V5.92221C17.6697 6.28841 17.9681 6.58523 18.3325 6.58523C18.7007 6.58523 18.9991 6.28841 18.9991 5.92221V0.837819C18.9991 0.471619 18.7007 0.174805 18.3325 0.174805H13.2201C12.8519 0.174805 12.5534 0.471619 12.5534 0.837819C12.5573 1.20016 12.8519 1.49698 13.2201 1.49698Z" fill="#CB1B5B"/>
<path d="M3.98837 19.0707H15.0078C17.2093 19.0707 18.9961 17.2898 18.9961 15.1042V9.9427C18.9961 9.5765 18.6977 9.28354 18.3295 9.28354C17.9612 9.28354 17.6667 9.58036 17.6667 9.9427V15.1003C17.6667 16.5574 16.4729 17.7447 15.0078 17.7447H3.98837C2.52326 17.7447 1.32946 16.5574 1.32946 15.1003V6.39635V4.14518C1.32946 2.68809 2.52326 1.50083 3.98837 1.50083H9.13178C9.5 1.50083 9.79457 1.20402 9.79457 0.837819C9.79457 0.471619 9.49612 0.174805 9.13178 0.174805H3.98837C1.78682 0.174805 0 1.95569 0 4.14133V6.39249V15.1003C0 17.2898 1.7907 19.0707 3.98837 19.0707Z" fill="#CB1B5B"/>
</svg>
