<svg width="55" height="55" viewBox="0 0 55 55" fill="none" xmlns="http://www.w3.org/2000/svg">
<g clip-path="url(#clip0_9370_64029)">
<path d="M28.517 27.808L17.517 20.4747C17.2409 20.2906 16.92 20.1849 16.5885 20.1689C16.2571 20.1529 15.9275 20.2271 15.6349 20.3837C15.3424 20.5403 15.0978 20.7733 14.9273 21.058C14.7567 21.3426 14.6667 21.6682 14.6667 22.0001V33.0001C14.6666 33.3019 14.7411 33.5991 14.8835 33.8652C15.026 34.1313 15.2319 34.3581 15.4831 34.5255L26.4746 41.8534L26.5283 41.8884C26.9011 42.1212 27.3451 42.2124 27.7795 42.1452H27.7818C27.8636 42.1322 27.9445 42.1139 28.0239 42.0902H28.0253C28.2134 42.0341 28.3912 41.9481 28.5521 41.8356L39.517 34.5255C39.7681 34.3581 39.9741 34.1313 40.1165 33.8652C40.2589 33.5991 40.3334 33.3019 40.3333 33.0001V22.0001C40.3334 21.6983 40.2589 21.4011 40.1165 21.135C39.9741 20.8689 39.7681 20.6421 39.517 20.4747L28.517 13.1414C28.2159 12.9404 27.862 12.8332 27.5 12.8332C27.138 12.8332 26.7841 12.9404 26.4831 13.1414L20.9844 16.808C20.7333 16.9755 20.5274 17.2023 20.385 17.4684C20.2426 17.7345 20.1681 18.0316 20.1681 18.3334C20.1681 18.6352 20.2426 18.9323 20.385 19.1984C20.5274 19.4645 20.7333 19.6914 20.9844 19.8588L31.9844 27.1921C32.1847 27.3278 32.4098 27.4225 32.6469 27.4708C32.8839 27.5191 33.1282 27.52 33.3656 27.4734C33.603 27.4269 33.8288 27.3338 34.0301 27.1996C34.2313 27.0653 34.404 26.8926 34.5382 26.6913C34.6724 26.49 34.7654 26.2642 34.8119 26.0268C34.8584 25.7894 34.8575 25.5451 34.8092 25.3081C34.7608 25.0711 34.6661 24.8459 34.5303 24.6457C34.3946 24.4454 34.2206 24.274 34.0183 24.1414L25.3064 18.3334L27.5 16.8702L36.6667 22.9812V32.019L29.3333 36.908V29.3334C29.3334 29.0316 29.2589 28.7344 29.1165 28.4683C28.9741 28.2022 28.7681 27.9754 28.517 27.808ZM25.6667 36.908L18.3333 32.019V25.4255L25.6667 30.3145V36.908ZM55 27.5001C55.0047 31.1081 54.298 34.6816 52.9206 38.0163C51.5431 41.351 49.5217 44.3814 46.9721 46.9343C44.4226 49.4872 41.3947 51.5124 38.0618 52.8942C34.7289 54.276 31.1563 54.9872 27.5483 54.9872C23.9403 54.9872 20.3677 54.276 17.0348 52.8942C13.7019 51.5124 10.6741 49.4872 8.12452 46.9343C5.57493 44.3814 3.55359 41.351 2.17611 38.0163C0.798619 34.6816 0.0920005 31.1081 0.0966625 27.5001C0.0966625 27.0138 0.289817 26.5475 0.633633 26.2037C0.97745 25.8599 1.44377 25.6667 1.93 25.6667C2.41623 25.6667 2.88254 25.8599 3.22636 26.2037C3.57018 26.5475 3.76333 27.0138 3.76333 27.5001C3.76939 33.3406 5.92207 38.9752 9.81188 43.3319C13.7017 47.6887 19.0572 50.4637 24.8598 51.129C30.6623 51.7943 36.507 50.3036 41.282 46.9404C46.057 43.5771 49.4291 38.5761 50.7571 32.8885C52.085 27.2009 51.2759 21.2236 48.4839 16.0937C45.6918 10.9637 41.1115 7.03904 35.6142 5.06616C30.117 3.09329 24.0863 3.20989 18.6695 5.39378C13.2526 7.57767 8.82741 11.6765 6.23572 16.9105H10.069C10.5553 16.9105 11.0216 17.1037 11.3654 17.4475C11.7092 17.7913 11.9024 18.2576 11.9024 18.7438C11.9024 19.2301 11.7092 19.6964 11.3654 20.0402C11.0216 20.384 10.5553 20.5772 10.069 20.5772H1.83333C1.3471 20.5772 0.880788 20.384 0.536971 20.0402C0.193154 19.6964 0 19.2301 0 18.7438V9.98762C0 9.50138 0.193154 9.03507 0.536971 8.69125C0.880788 8.34744 1.3471 8.15428 1.83333 8.15428C2.31956 8.15428 2.78588 8.34744 3.1297 8.69125C3.47351 9.03507 3.66667 9.50138 3.66667 9.98762V13.9399C6.6521 8.65763 11.304 4.51373 16.8947 2.15621C22.4855 -0.20131 28.7 -0.639515 34.5663 0.910125C40.4326 2.45977 45.6199 5.90987 49.3171 10.7209C53.0142 15.5319 55.0127 21.4326 55 27.5001Z" fill="#CB1B5B"/>
</g>
<defs>
<clipPath id="clip0_9370_64029">
<rect width="55" height="55" fill="white"/>
</clipPath>
</defs>
</svg>
