<svg width="55" height="55" viewBox="0 0 55 55" fill="none" xmlns="http://www.w3.org/2000/svg">
<g clip-path="url(#clip0_9370_64033)">
<path d="M52.4993 27.7307V20.0005C52.4993 17.3793 50.4661 15.2476 47.8973 15.0409L40.7185 2.50202C40.0532 1.34235 38.979 0.5135 37.6936 0.169326C36.4143 -0.172505 35.0765 0.00702353 33.9314 0.673458L9.32211 15.0006H4.99996C2.24246 15.0006 0 17.2429 0 20.0005V50C0 52.7575 2.24235 55 4.99996 55H47.4993C50.2568 55 52.4993 52.7576 52.4993 50V42.2699C53.9511 41.7522 54.9992 40.3777 54.9992 38.7502V31.2503C54.9992 29.6229 53.9511 28.2484 52.4993 27.7307ZM44.9924 15.0006H34.0975L42.2687 10.2433L44.9924 15.0006ZM41.0267 8.07384L29.1289 15.0006H24.1939L39.7927 5.91868L41.0267 8.07384ZM35.1899 2.83401C35.7551 2.50319 36.4154 2.4153 37.0466 2.58382C37.685 2.75467 38.2173 3.16728 38.5481 3.74466L38.5507 3.74923L19.2256 15.0006H14.2908L35.1899 2.83401ZM49.9992 50C49.9992 51.3781 48.8774 52.5 47.4993 52.5H4.99996C3.62185 52.5 2.50004 51.3781 2.50004 50V20.0005C2.50004 18.6224 3.62185 17.5006 4.99996 17.5006H47.4993C48.8774 17.5006 49.9992 18.6224 49.9992 20.0005V27.5004H42.4993C38.3636 27.5004 34.9995 30.8646 34.9995 35.0003C34.9995 39.136 38.3636 42.5002 42.4993 42.5002H49.9992V50ZM52.4993 38.7502C52.4993 39.4399 51.939 40.0002 51.2492 40.0002H42.4993C39.7419 40.0002 37.4994 37.7579 37.4994 35.0003C37.4994 32.2428 39.7417 30.0003 42.4993 30.0003H51.2492C51.9389 30.0003 52.4993 30.5606 52.4993 31.2503V38.7502Z" fill="#CB1B5B"/>
<path d="M42.4999 32.5C41.1218 32.5 40 33.6218 40 34.9999C40 36.378 41.1218 37.4998 42.4999 37.4998C43.878 37.4998 44.9998 36.378 44.9998 34.9999C45 33.6218 43.8781 32.5 42.4999 32.5Z" fill="#CB1B5B"/>
</g>
<defs>
<clipPath id="clip0_9370_64033">
<rect width="55" height="55" fill="white"/>
</clipPath>
</defs>
</svg>
