<svg width="56" height="55" viewBox="0 0 56 55" fill="none" xmlns="http://www.w3.org/2000/svg">
<path d="M22.9402 19.663H19.663C19.2285 19.663 18.8117 19.4904 18.5044 19.1831C18.1971 18.8758 18.0244 18.459 18.0244 18.0244C18.0244 17.5899 18.1971 17.1731 18.5044 16.8658C18.8117 16.5585 19.2285 16.3859 19.663 16.3859H22.9402V13.1087C22.9402 12.6741 23.1128 12.2573 23.4201 11.95C23.7274 11.6427 24.1442 11.4701 24.5788 11.4701C25.0134 11.4701 25.4302 11.6427 25.7375 11.95C26.0447 12.2573 26.2174 12.6741 26.2174 13.1087V16.3859H29.4946C29.9291 16.3859 30.3459 16.5585 30.6532 16.8658C30.9605 17.1731 31.1331 17.5899 31.1331 18.0244C31.1331 18.459 30.9605 18.8758 30.6532 19.1831C30.3459 19.4904 29.9291 19.663 29.4946 19.663H26.2174V22.9402C26.2174 23.3748 26.0447 23.7916 25.7375 24.0989C25.4302 24.4062 25.0134 24.5788 24.5788 24.5788C24.1442 24.5788 23.7274 24.4062 23.4201 24.0989C23.1128 23.7916 22.9402 23.3748 22.9402 22.9402V19.663ZM55.7119 32.7717V42.6032C55.7119 44.3416 55.0214 46.0087 53.7922 47.2379C52.563 48.467 50.8959 49.1576 49.1576 49.1576H45.8804V52.5429C45.8797 52.9868 45.7589 53.4223 45.5308 53.8032C45.3028 54.184 44.976 54.4961 44.585 54.7064C44.194 54.9167 43.7534 55.0173 43.31 54.9976C42.8665 54.9779 42.4366 54.8385 42.0658 54.5944L33.9155 49.1576H29.4946C27.7562 49.1576 26.0891 48.467 24.8599 47.2379C23.6308 46.0087 22.9402 44.3416 22.9402 42.6032V38.3659L17.3035 44.0026C16.9603 44.3453 16.5235 44.5789 16.0479 44.6738C15.5723 44.7688 15.0792 44.721 14.6308 44.5363C14.1823 44.3517 13.7985 44.0385 13.5277 43.6362C13.2568 43.2339 13.1111 42.7605 13.1087 42.2755V36.0489H6.55435C4.81602 36.0489 3.1489 35.3583 1.91972 34.1292C0.690545 32.9 0 31.2329 0 29.4946V6.55434C0 4.81602 0.690545 3.1489 1.91972 1.91972C3.1489 0.690545 4.81602 0 6.55435 0H42.6032C44.3416 0 46.0087 0.690545 47.2379 1.91972C48.467 3.1489 49.1576 4.81602 49.1576 6.55434V26.2174C50.8959 26.2174 52.563 26.9079 53.7922 28.1371C55.0214 29.3663 55.7119 31.0334 55.7119 32.7717ZM22.9402 33.7319V32.7717C22.9402 31.0334 23.6308 29.3663 24.8599 28.1371C26.0891 26.9079 27.7562 26.2174 29.4946 26.2174H45.8804V6.55434C45.8804 5.68518 45.5351 4.85162 44.9206 4.23703C44.306 3.62245 43.4724 3.27717 42.6032 3.27717H6.55435C5.68518 3.27717 4.85162 3.62245 4.23703 4.23703C3.62245 4.85162 3.27717 5.68518 3.27717 6.55434V29.4946C3.27717 30.3637 3.62245 31.1973 4.23703 31.8119C4.85162 32.4265 5.68518 32.7717 6.55435 32.7717H14.7473C15.1819 32.7717 15.5986 32.9444 15.9059 33.2517C16.2132 33.5589 16.3859 33.9757 16.3859 34.4103V40.2863L22.9402 33.7319ZM52.4348 32.7717C52.4348 31.9026 52.0895 31.069 51.4749 30.4544C50.8603 29.8398 50.0267 29.4946 49.1576 29.4946H29.4946C28.6254 29.4946 27.7918 29.8398 27.1772 30.4544C26.5627 31.069 26.2174 31.9026 26.2174 32.7717V42.6032C26.2174 43.4724 26.5627 44.306 27.1772 44.9206C27.7918 45.5351 28.6254 45.8804 29.4946 45.8804H34.4103C34.7334 45.8807 35.0493 45.9764 35.3181 46.1557L42.6032 51.0125V47.519C42.6032 47.0844 42.7759 46.6676 43.0832 46.3603C43.3905 46.053 43.8072 45.8804 44.2418 45.8804H49.1576C50.0267 45.8804 50.8603 45.5351 51.4749 44.9206C52.0895 44.306 52.4348 43.4724 52.4348 42.6032V32.7717ZM47.519 32.7717H31.1331C30.6986 32.7717 30.2818 32.9444 29.9745 33.2517C29.6672 33.5589 29.4946 33.9757 29.4946 34.4103C29.4946 34.8449 29.6672 35.2617 29.9745 35.569C30.2818 35.8763 30.6986 36.0489 31.1331 36.0489H47.519C47.9536 36.0489 48.3704 35.8763 48.6777 35.569C48.985 35.2617 49.1576 34.8449 49.1576 34.4103C49.1576 33.9757 48.985 33.5589 48.6777 33.2517C48.3704 32.9444 47.9536 32.7717 47.519 32.7717ZM40.9647 39.3261H31.1331C30.6986 39.3261 30.2818 39.4987 29.9745 39.806C29.6672 40.1133 29.4946 40.5301 29.4946 40.9647C29.4946 41.3992 29.6672 41.816 29.9745 42.1233C30.2818 42.4306 30.6986 42.6032 31.1331 42.6032H40.9647C41.3992 42.6032 41.816 42.4306 42.1233 42.1233C42.4306 41.816 42.6032 41.3992 42.6032 40.9647C42.6032 40.5301 42.4306 40.1133 42.1233 39.806C41.816 39.4987 41.3992 39.3261 40.9647 39.3261Z" fill="#FFFFFF"/>
</svg>
