<svg width="55" height="55" viewBox="0 0 55 55" fill="none" xmlns="http://www.w3.org/2000/svg">
<path d="M51.6227 38.8334C51.5316 38.7578 41.2259 31.4153 38.4433 31.8742C37.1009 32.1114 36.3344 33.0275 34.7961 34.8597C34.5486 35.1553 33.9522 35.8617 33.4916 36.3653C32.5193 36.0486 31.571 35.6626 30.6539 35.2103C25.9196 32.9055 22.0945 29.0804 19.7897 24.3461C19.3374 23.429 18.9514 22.4807 18.6347 21.5084C19.14 21.0461 19.8481 20.4497 20.1506 20.1953C21.9742 18.6656 22.8886 17.8973 23.1258 16.5533C23.6122 13.7706 16.2422 3.46844 16.1666 3.37562C15.8309 2.89963 15.3938 2.50409 14.8867 2.21756C14.3797 1.93103 13.8153 1.76066 13.2344 1.71875C10.2472 1.71875 1.71875 12.7806 1.71875 14.6455C1.71875 14.7537 1.87516 25.7606 15.4481 39.5673C29.2394 53.1248 40.2463 53.2812 40.3545 53.2812C42.2177 53.2812 53.2812 44.7528 53.2812 41.7656C53.2389 41.1846 53.0682 40.6203 52.7814 40.1132C52.4945 39.6062 52.0988 39.1691 51.6227 38.8334ZM40.1638 49.8334C38.6719 49.7062 29.425 48.4877 17.875 37.1422C6.47453 25.5355 5.28687 16.2731 5.16828 14.838C7.42118 11.3019 10.142 8.08675 13.2567 5.28C13.3255 5.34875 13.4166 5.45187 13.5334 5.58594C15.9222 8.8468 17.98 12.3376 19.6762 16.0067C19.1246 16.5617 18.5416 17.0844 17.93 17.5725C16.9816 18.2952 16.1107 19.1142 15.3313 20.0166C15.1994 20.2016 15.1055 20.411 15.055 20.6325C15.0046 20.8541 14.9986 21.0834 15.0373 21.3073C15.4011 22.883 15.9582 24.4076 16.6959 25.8466C19.3392 31.2744 23.7252 35.6598 29.1534 38.3023C30.5921 39.0412 32.1168 39.5989 33.6927 39.9627C33.9166 40.0014 34.1459 39.9954 34.3675 39.945C34.589 39.8945 34.7984 39.8006 34.9834 39.6687C35.889 38.8862 36.7109 38.0118 37.4361 37.0597C37.9758 36.4169 38.6959 35.5592 38.9692 35.3169C42.6476 37.0115 46.1463 39.0718 49.4123 41.4666C49.555 41.5869 49.6564 41.6797 49.7234 41.7398C46.9165 44.8556 43.7008 47.577 40.1638 49.83V49.8334Z" fill="#FFFFFF"/>
<path d="M29.2188 15.4688C31.953 15.4715 34.5744 16.5588 36.5078 18.4922C38.4412 20.4256 39.5285 23.047 39.5312 25.7812C39.5312 26.2371 39.7123 26.6743 40.0347 26.9966C40.357 27.3189 40.7942 27.5 41.25 27.5C41.7058 27.5 42.143 27.3189 42.4653 26.9966C42.7877 26.6743 42.9688 26.2371 42.9688 25.7812C42.9647 22.1358 41.5147 18.6408 38.9369 16.0631C36.3592 13.4853 32.8642 12.0353 29.2188 12.0312C28.7629 12.0312 28.3257 12.2123 28.0034 12.5347C27.6811 12.857 27.5 13.2942 27.5 13.75C27.5 14.2058 27.6811 14.643 28.0034 14.9653C28.3257 15.2877 28.7629 15.4688 29.2188 15.4688Z" fill="#FFFFFF"/>
<path d="M29.2188 6.875C34.2312 6.88091 39.0366 8.87472 42.581 12.419C46.1253 15.9634 48.1191 20.7688 48.125 25.7812C48.125 26.2371 48.3061 26.6743 48.6284 26.9966C48.9507 27.3189 49.3879 27.5 49.8438 27.5C50.2996 27.5 50.7368 27.3189 51.0591 26.9966C51.3814 26.6743 51.5625 26.2371 51.5625 25.7812C51.5557 19.8574 49.1994 14.1782 45.0106 9.98937C40.8218 5.80058 35.1426 3.44432 29.2188 3.4375C28.7629 3.4375 28.3257 3.61858 28.0034 3.94091C27.6811 4.26324 27.5 4.70041 27.5 5.15625C27.5 5.61209 27.6811 6.04926 28.0034 6.37159C28.3257 6.69392 28.7629 6.875 29.2188 6.875Z" fill="#FFFFFF"/>
</svg>
