<svg width="68" height="57" viewBox="0 0 68 57" fill="none" xmlns="http://www.w3.org/2000/svg">
<path d="M37.951 21.7686C37.951 23.1164 36.8584 24.2091 35.5105 24.2091C34.8421 24.2091 32.4297 24.2199 32.4297 24.2199C32.4297 24.2199 32.4297 22.448 32.4297 21.7686C32.4297 21.2107 32.4297 19.3281 32.4297 19.3281C32.4297 19.3281 34.7206 19.3281 35.5105 19.3281C36.8583 19.3281 37.951 20.4207 37.951 21.7686Z" stroke="#CB1B5B" stroke-width="3" stroke-miterlimit="10" stroke-linecap="round" stroke-linejoin="round"/>
<path d="M38.9033 27.0677C38.9033 28.6445 37.6252 29.9226 36.0485 29.9226C35.2665 29.9226 32.4297 29.9351 32.4297 29.9351C32.4297 29.9351 32.4297 27.8625 32.4297 27.0677C32.4297 26.415 32.4297 24.2129 32.4297 24.2129C32.4297 24.2129 35.1246 24.2129 36.0485 24.2129C37.6252 24.213 38.9033 25.4911 38.9033 27.0677Z" stroke="#CB1B5B" stroke-width="3" stroke-miterlimit="10" stroke-linecap="round" stroke-linejoin="round"/>
<path d="M14.3026 20.4185C14.3026 20.4185 12.3994 18.8187 10.1552 19.4947C8.09451 20.1155 7.80628 22.4916 9.29715 23.4635C9.29715 23.4635 10.7601 24.1161 12.3826 24.7147C16.2885 26.1555 14.606 29.9342 11.4616 29.9342C9.88695 29.9342 8.56544 29.2447 7.76562 28.362" stroke="#CB1B5B" stroke-width="3" stroke-miterlimit="10" stroke-linecap="round" stroke-linejoin="round"/>
<path d="M49.8729 20.4185C49.8729 20.4185 47.9698 18.8187 45.7256 19.4947C43.6648 20.1155 43.3766 22.4916 44.8675 23.4635C44.8675 23.4635 46.3304 24.1161 47.9529 24.7147C51.8588 26.1555 50.1763 29.9342 47.0319 29.9342C45.4573 29.9342 44.1358 29.2447 43.3359 28.362" stroke="#CB1B5B" stroke-width="3" stroke-miterlimit="10" stroke-linecap="round" stroke-linejoin="round"/>
<path d="M19.6172 19.3281V26.6262C19.6172 27.8691 20.2337 28.7058 21.281 29.375C21.7911 29.7009 22.4354 29.9331 23.236 29.9341C23.9294 29.935 24.5088 29.7746 24.988 29.5332C26.2085 28.9186 26.9869 27.9851 26.9869 26.6186V19.3281" stroke="#CB1B5B" stroke-width="3" stroke-miterlimit="10" stroke-linecap="round" stroke-linejoin="round"/>
<path d="M34.9277 11.2951H51.0444C53.611 11.2951 55.6919 13.376 55.6919 15.9426V33.3231C55.6919 34.521 55.2387 35.6125 54.4954 36.4362L46.665 35.4999L46.9602 37.9706H6.94442C4.3778 37.9706 2.29688 35.8896 2.29688 33.323V15.9425C2.29688 13.3758 4.3778 11.2949 6.94442 11.2949H23.5428" stroke="#CB1B5B" stroke-width="3" stroke-miterlimit="10" stroke-linecap="round" stroke-linejoin="round"/>
<path d="M46.6641 35.5001L48.7129 52.6372L52.016 45.8426L61.1733 54.9999L66.0016 50.1716L56.8443 41.0143L63.8013 37.5489L46.6641 35.5001Z" stroke="#CB1B5B" stroke-width="3" stroke-miterlimit="10" stroke-linecap="round" stroke-linejoin="round"/>
</svg>
