<svg width="55" height="55" viewBox="0 0 55 55" fill="none" xmlns="http://www.w3.org/2000/svg">
<g clip-path="url(#clip0_9370_64013)">
<path d="M50.7493 4.24988C48.0104 1.50936 44.3669 0 40.4918 0C36.6162 0 32.9739 1.50936 30.2338 4.24988L17.2416 17.2416L4.24904 30.2351C1.50936 32.9756 0 36.6191 0 40.4934C0 44.3678 1.50936 48.0113 4.24904 50.7501C6.98788 53.4906 10.6314 55 14.5066 55C18.3817 55 22.0244 53.4906 24.7641 50.7501L37.7567 37.7584L50.7493 24.7649C53.489 22.0244 54.9979 18.3809 54.9979 14.5066C54.9979 10.6322 53.489 6.98872 50.7493 4.24988ZM22.029 48.0151C20.0191 50.0246 17.3474 51.132 14.5066 51.132C11.6645 51.132 8.99364 50.025 6.9841 48.0151C4.97456 46.0051 3.86845 43.3347 3.86845 40.4939C3.86845 37.653 4.9754 34.9801 6.9841 32.9705L18.6092 21.3446L33.6541 36.3913L22.029 48.0151ZM48.0142 22.0299L36.3892 33.6558L21.3442 18.6092L32.9693 6.98494C34.9788 4.9754 37.6505 3.86803 40.4918 3.86803C43.3334 3.86803 46.0043 4.97498 48.0138 6.98494C50.0233 8.9949 51.1295 11.6653 51.1295 14.5061C51.1295 17.347 50.0229 20.0199 48.0142 22.0299Z" fill="#CB1B5B"/>
<path d="M45.6661 13.0434C45.0492 13.0434 44.4429 12.7488 44.0682 12.2029C43.163 10.8807 41.67 10.0931 40.073 10.0931C38.781 10.0931 37.5675 10.5953 36.6531 11.5097C35.8974 12.265 34.6734 12.265 33.918 11.5097C33.1627 10.754 33.1627 9.52993 33.918 8.77462C35.5625 7.1293 37.7479 6.22461 40.073 6.22461C42.9469 6.22461 45.6337 7.64124 47.2602 10.0158C47.8636 10.8975 47.6391 12.1009 46.7571 12.7056C46.4235 12.9339 46.0429 13.0434 45.6661 13.0434Z" fill="#CB1B5B"/>
</g>
<defs>
<clipPath id="clip0_9370_64013">
<rect width="55" height="55" fill="white"/>
</clipPath>
</defs>
</svg>
