<svg width="145" height="40" viewBox="0 0 145 40" fill="none" xmlns="http://www.w3.org/2000/svg">
<path d="M47.2736 10.6934V17.2432H38.843V10.6934H35.8203V26.5772H38.843V19.767H47.2736V26.5772H50.3168V10.6934H47.2736ZM66.0882 20.5882C66.0882 16.8025 63.4356 14.3188 59.8167 14.3188C56.1154 14.3188 53.3806 16.9027 53.3806 20.5281C53.3806 24.1335 56.0743 26.7374 60.2485 26.7374C62.387 26.7374 64.1348 26.0564 65.2657 24.7545L63.703 23.0118C62.8188 23.8932 61.7084 24.3338 60.3307 24.3338C58.1511 24.3338 56.65 23.1921 56.3005 21.4295H66.0471C66.0676 21.149 66.0882 20.8085 66.0882 20.5882ZM59.8167 16.6022C61.7084 16.6022 63.0861 17.804 63.3328 19.5466H56.2594C56.5472 17.764 57.9249 16.6022 59.8167 16.6022ZM73.285 14.3188C71.2905 14.3188 69.3576 14.8196 68.0211 15.8211L69.1726 17.8842C70.0979 17.143 71.5372 16.6823 72.9355 16.6823C75.0123 16.6823 76.0404 17.6638 76.0404 19.3263V19.5066H72.8327C69.0492 19.5066 67.6509 21.089 67.6509 23.112C67.6509 25.2151 69.4399 26.7374 72.298 26.7374C74.1487 26.7374 75.5058 26.1365 76.2049 25.095V26.5772H78.9603V19.4665C78.9603 15.9813 76.8835 14.3188 73.285 14.3188ZM72.8944 24.6743C71.4139 24.6743 70.5297 24.0133 70.5297 22.9918C70.5297 22.1105 71.0643 21.3894 73.0383 21.3894H76.0404V22.7915C75.5469 24.0334 74.3132 24.6743 72.8944 24.6743ZM82.6821 26.5772H85.5814V9.75195H82.6821V26.5772ZM96.6645 23.8932C96.2327 24.2337 95.6364 24.3939 95.0401 24.3939C93.9297 24.3939 93.3128 23.753 93.3128 22.5912V16.8226H96.6439V14.5592H93.3128V11.795H90.4135V14.5592H88.3573V16.8226H90.4135V22.6513C90.4135 25.3353 91.9763 26.7374 94.6905 26.7374C95.7392 26.7374 96.7879 26.457 97.487 25.9162L96.6645 23.8932ZM106.946 14.3188C105.218 14.3188 103.759 14.8796 102.792 15.8611V9.75195H99.8928V26.5772H102.792V20.448C102.792 18.0244 104.19 16.8025 106.267 16.8025C108.118 16.8025 109.228 17.8441 109.228 19.9873V26.5772H112.127V19.6268C112.127 15.9813 109.927 14.3188 106.946 14.3188ZM121.175 26.7975C125.637 26.7975 127.755 24.6343 127.755 22.0704C127.755 16.2617 118.091 18.465 118.091 15.0799C118.091 13.8781 119.119 12.9167 121.627 12.9167C123.046 12.9167 124.671 13.3373 126.13 14.1586L127.076 11.8751C125.658 10.9738 123.622 10.473 121.648 10.473C117.186 10.473 115.088 12.6563 115.088 15.2202C115.088 21.109 124.773 18.8656 124.773 22.2908C124.773 23.4725 123.704 24.3539 121.175 24.3539C119.16 24.3539 117.083 23.6328 115.788 22.6112L114.739 24.8947C116.096 26.0364 118.625 26.7975 121.175 26.7975ZM139.105 14.459L135.157 23.4124L131.251 14.459H128.228L133.656 26.6173L133.43 27.098C132.875 28.2998 132.279 28.7805 131.251 28.7805C130.469 28.7805 129.667 28.46 129.112 27.9392L127.94 30.0224C128.742 30.7234 130.037 31.144 131.271 31.144C133.348 31.144 134.931 30.3028 136.062 27.5587L141.902 14.459H139.105Z" fill="#00A242"/>
<path d="M29.1821 16.3457C28.9559 16.1254 28.7503 15.9251 28.5447 15.7849C28.339 15.6247 28.1334 15.4845 27.9072 15.3843C27.7016 15.2842 27.4754 15.184 27.2081 15.1239C27.0642 15.0839 26.9202 15.0839 26.7969 15.0438C26.6324 15.0037 26.4884 14.9837 26.3239 14.9436L26.3034 14.9236C26.2211 14.9036 26.18 14.8235 26.2006 14.7433C26.2006 14.7033 26.2417 14.6632 26.2622 14.6432C26.4062 14.5631 26.5707 14.4829 26.7352 14.4229C26.8997 14.3828 27.0642 14.3227 27.2492 14.3227C27.6194 14.2826 28.01 14.3628 28.339 14.523C28.6886 14.6632 28.997 14.9436 29.1821 15.2441C29.3877 15.5445 29.4905 15.8851 29.47 16.2656C29.47 16.3457 29.3877 16.4058 29.3055 16.4058C29.2644 16.4058 29.2232 16.3858 29.2027 16.3658L29.1821 16.3457Z" fill="#00A242"/>
<path fill-rule="evenodd" clip-rule="evenodd" d="M21.9628 5.66847C20.6263 5.72856 19.5981 6.85025 19.6804 8.13217L20.688 27.0205C20.7702 28.3024 21.9011 29.3039 23.2377 29.2438C24.5537 29.1837 25.5818 28.0621 25.5201 26.7601L24.5126 7.89181C24.4303 6.60989 23.2994 5.58835 21.9628 5.66847Z" fill="#00A242"/>
<path fill-rule="evenodd" clip-rule="evenodd" d="M10.0191 11.358C8.68254 11.2979 7.53105 12.2994 7.46936 13.6014L6.77024 26.7812C6.68799 28.0631 7.71611 29.1848 9.05266 29.2449C10.3687 29.325 11.5202 28.3235 11.5818 27.0215L12.3015 13.8418C12.3632 12.5398 11.3351 11.4382 10.0191 11.358Z" fill="#00A242"/>
<path d="M20.3164 20.0469C21.2006 19.6863 22.0848 19.2657 22.9073 18.785C23.6475 18.3443 24.3466 17.8435 25.0046 17.3027L25.1486 19.8666C24.8813 20.127 24.5934 20.3874 24.3055 20.6277C23.154 21.5691 21.8586 22.3303 20.4603 22.8711L20.3164 20.0469Z" fill="#019A3F"/>
<path d="M7.13509 19.8496C7.97815 20.2102 8.86234 20.5106 9.74652 20.7309C10.4662 20.9112 11.1859 21.0314 11.9056 21.1115L11.7616 23.7154C10.8158 23.5351 9.86989 23.2547 8.98571 22.8942C8.30715 22.6138 7.64915 22.2732 7.01172 21.8927L7.13509 19.8496Z" fill="#019A3F"/>
<path d="M3.39467 18.4714C5.36866 19.9937 7.52771 20.9952 9.74846 21.536C11.9898 22.0969 14.2927 22.177 16.5341 21.8565C18.7754 21.516 20.955 20.7749 22.9084 19.5931C24.8824 18.4314 26.6096 16.849 28.049 14.826C28.1107 14.7459 28.2135 14.7258 28.2958 14.7859C28.3574 14.826 28.3986 14.9061 28.378 14.9662C27.9051 17.4499 26.3423 19.7534 24.3066 21.4359C22.2298 23.1384 19.639 24.2401 16.9659 24.6407C14.2927 25.0413 11.4757 24.7408 8.98765 23.7193C6.52016 22.6978 4.34054 20.9351 3.12736 18.7118C3.06567 18.6117 3.1068 18.5115 3.18904 18.4514C3.27129 18.4314 3.33298 18.4314 3.39467 18.4714Z" fill="#00A242"/>
</svg>
